<svg xmlns="http://www.w3.org/2000/svg" viewBox="0 0 448 448">
    <path d="M 202 120 Q 179 121 165 128 L 165 128 Q 155 132 144 134 L 144 128 Q 143 113 128 112 Q 113 113 112 128 L 112 320 Q 112 321 112 322 Q 112 323 112 323 Q 112 323 112 324 Q 116 335 128 336 Q 140 335 144 324 Q 144 323 144 322 Q 144 321 144 320 L 144 166 Q 150 165 155 163 Q 160 162 165 160 Q 179 153 202 152 Q 226 153 243 161 Q 256 167 276 168 Q 289 168 300 165 Q 302 164 304 163 L 304 259 Q 290 264 276 264 Q 254 263 239 256 Q 224 249 202 248 Q 187 248 176 252 L 176 284 Q 187 280 202 280 Q 226 281 243 289 Q 256 295 276 296 Q 287 296 297 293 Q 307 291 322 285 Q 328 283 336 280 L 336 120 Q 328 123 322 125 Q 307 131 297 133 Q 287 136 276 136 Q 254 135 239 128 Q 224 121 202 120 L 202 120 Z M 384 0 L 64 0 Q 37 1 19 19 Q 1 37 0 64 L 0 384 Q 1 411 19 429 Q 37 447 64 448 L 384 448 Q 411 447 429 429 Q 447 411 448 384 L 448 64 Q 447 37 429 19 Q 411 1 384 0 L 384 0 Z M 416 384 Q 416 398 407 407 L 407 407 Q 398 416 384 416 L 64 416 Q 50 416 41 407 Q 32 398 32 384 L 32 64 Q 32 50 41 41 Q 50 32 64 32 L 384 32 Q 398 32 407 41 Q 416 50 416 64 L 416 384 L 416 384 Z"/>
</svg>
