<svg xmlns="http://www.w3.org/2000/svg" viewBox="0 0 448 448">
    <path d="M 384 0 L 64 0 Q 36 0 18 18 Q 0 36 0 64 L 0 384 Q 0 411 18 429 Q 36 447 64 448 L 384 448 Q 411 447 429 429 Q 447 411 448 384 L 448 64 Q 447 36 429 18 Q 411 0 384 0 L 384 0 Z M 336 280 Q 328 282 322 284 L 322 284 Q 306 290 297 293 L 297 293 Q 287 296 276 296 Q 260 295 249 291 Q 238 287 227 284 Q 216 280 201 280 Q 186 280 176 284 L 176 252 Q 186 248 201 248 Q 223 248 238 255 Q 253 262 276 264 Q 290 264 304 259 L 304 163 Q 290 168 276 168 Q 260 167 249 163 Q 238 159 227 156 Q 216 152 201 152 Q 179 152 164 159 Q 155 163 144 166 L 144 320 Q 142 334 128 336 Q 113 334 112 320 L 112 128 Q 113 113 128 112 Q 142 113 144 128 L 144 134 Q 155 131 164 127 Q 179 120 201 120 Q 223 120 238 127 Q 253 134 276 136 Q 287 136 297 133 Q 306 130 322 124 Q 328 122 336 120 L 336 280 L 336 280 Z"/>
</svg>
