<svg xmlns="http://www.w3.org/2000/svg" viewBox="0 0 448 448">
    <path d="M 448 16 L 448 352 Q 436 356 426 360 Q 393 373 372 378 Q 352 384 329 384 Q 284 382 254 368 Q 224 354 179 352 Q 150 353 128 360 L 128 296 Q 150 289 179 288 Q 224 290 254 304 Q 284 318 329 320 Q 357 320 384 311 L 384 103 Q 357 112 329 112 Q 284 110 254 96 Q 224 82 179 80 Q 156 80 138 85 Q 120 90 105 96 Q 86 104 64 109 L 64 416 Q 64 430 55 439 Q 46 448 32 448 Q 18 448 9 439 Q 0 430 0 416 L 0 32 Q 0 18 9 9 Q 18 0 32 0 Q 46 0 55 9 Q 64 18 64 32 L 64 45 Q 86 40 105 32 Q 120 26 138 21 Q 156 16 179 16 Q 224 18 254 32 Q 284 46 329 48 Q 352 48 372 42 Q 393 37 426 24 Q 436 20 448 16 L 448 16 Z"/>
</svg>
