<svg xmlns="http://www.w3.org/2000/svg" viewBox="0 0 384 384">
    <path d="M 48 192 Q 49 236 78 266 L 78 266 Q 108 295 152 296 L 160 296 Q 201 295 228 268 Q 255 241 256 200 L 256 192 Q 255 165 237 147 Q 219 129 192 128 Q 165 129 147 147 Q 129 165 128 192 Q 130 214 152 216 Q 174 214 176 192 L 176 184 Q 178 162 200 160 Q 222 162 224 184 L 224 192 Q 223 223 203 243 Q 183 263 152 264 Q 121 263 101 243 Q 81 223 80 192 Q 81 144 113 113 Q 144 81 192 80 Q 240 81 271 113 Q 303 144 304 192 L 304 200 Q 303 247 278 283 Q 252 319 211 335 Q 265 327 300 287 Q 335 248 336 192 Q 334 131 294 90 Q 253 50 192 48 Q 131 50 90 90 Q 50 131 48 192 L 48 192 Z M 0 192 Q 0 140 26 96 L 26 96 Q 51 52 96 26 Q 141 0 192 0 Q 243 0 288 26 Q 333 52 358 96 Q 384 140 384 192 Q 384 244 358 288 Q 333 332 288 358 Q 243 384 192 384 Q 141 384 96 358 Q 51 332 26 288 Q 0 244 0 192 L 0 192 Z"/>
</svg>
