<svg xmlns="http://www.w3.org/2000/svg" viewBox="0 0 290 450">
    <path d="M 129 38 Q 130 25 123 14 L 123 14 Q 116 4 102 2 Q 89 0 78 7 Q 68 14 66 28 L 54 97 L 119 97 L 129 38 L 129 38 Z M 108 161 L 43 161 L 1 412 Q 0 425 7 436 Q 14 446 28 449 Q 41 450 52 443 Q 62 436 65 422 L 108 161 L 108 161 Z M 289 38 Q 290 25 283 14 L 283 14 Q 276 4 262 2 Q 249 0 238 7 Q 228 14 226 28 L 182 289 L 247 289 L 289 38 L 289 38 Z M 236 353 L 171 353 L 161 412 Q 160 425 167 436 Q 174 446 188 449 Q 201 450 212 443 Q 222 436 224 422 L 236 353 L 236 353 Z"/>
</svg>
