<svg xmlns="http://www.w3.org/2000/svg" viewBox="0 0 640 256">
    <path d="M 96 21 Q 100 2 120 0 L 136 0 Q 156 2 160 21 Q 171 24 182 30 Q 198 19 213 32 L 224 43 Q 237 58 226 74 Q 232 85 235 96 Q 254 100 256 120 L 256 136 Q 254 156 235 160 Q 232 171 226 181 Q 237 198 224 213 L 213 224 Q 198 237 181 226 Q 171 232 160 235 Q 156 255 136 256 L 120 256 Q 100 254 96 235 Q 85 232 75 226 Q 58 237 43 224 L 32 213 Q 19 198 30 182 Q 24 171 21 160 Q 2 156 0 136 L 0 120 Q 2 100 21 96 Q 24 85 30 74 Q 19 58 32 43 L 43 32 Q 58 19 75 30 Q 85 24 96 21 L 96 21 Z M 192 128 Q 191 92 160 73 Q 128 55 96 73 Q 65 92 64 128 Q 65 164 96 183 Q 128 201 160 183 Q 191 164 192 128 L 192 128 Z M 480 21 Q 484 2 504 0 L 520 0 Q 540 2 544 21 Q 555 24 566 30 Q 582 19 597 32 L 608 43 Q 621 58 610 74 Q 616 85 619 96 Q 638 100 640 120 L 640 136 Q 638 156 619 160 Q 616 171 610 181 Q 621 198 608 213 L 597 224 Q 582 237 566 226 Q 555 232 544 235 Q 540 255 520 256 L 504 256 Q 484 254 480 235 Q 469 232 459 226 Q 442 237 427 224 L 416 213 Q 403 198 414 182 Q 408 171 405 160 Q 385 156 384 136 L 384 120 Q 386 100 405 96 Q 408 85 414 74 Q 403 58 416 43 L 427 32 Q 442 19 458 30 Q 469 24 480 21 L 480 21 Z M 576 128 Q 575 92 544 73 Q 512 55 480 73 Q 449 92 448 128 Q 449 164 480 183 Q 512 201 544 183 Q 575 164 576 128 L 576 128 Z"/>
</svg>
