<svg xmlns="http://www.w3.org/2000/svg" viewBox="0 0 512 384">
    <path d="M 64 96 Q 64 70 77 48 L 77 48 Q 90 26 112 13 Q 135 0 160 0 Q 185 0 208 13 Q 230 26 243 48 Q 256 70 256 96 Q 256 122 243 144 Q 230 166 208 179 Q 185 192 160 192 Q 135 192 112 179 Q 90 166 77 144 Q 64 122 64 96 L 64 96 Z M 0 357 Q 1 301 39 263 L 39 263 Q 77 225 133 224 L 187 224 Q 243 225 281 263 Q 319 301 320 357 Q 318 382 293 384 L 27 384 Q 2 382 0 357 L 0 357 Z M 416 160 L 480 160 Q 494 160 503 169 Q 512 178 512 192 L 512 224 L 384 224 L 384 192 Q 384 178 393 169 Q 402 160 416 160 L 416 160 Z"/>
</svg>
