<svg xmlns="http://www.w3.org/2000/svg" viewBox="0 0 576 448">
    <path d="M 96 0 Q 82 0 73 9 L 73 9 Q 64 18 64 32 L 64 96 L 32 96 Q 18 96 9 105 Q 0 114 0 128 L 0 320 Q 0 334 9 343 Q 18 352 32 352 L 64 352 L 64 416 Q 64 430 73 439 Q 82 448 96 448 L 128 448 Q 142 448 151 439 Q 160 430 160 416 L 160 32 Q 160 18 151 9 Q 142 0 128 0 L 96 0 L 96 0 Z M 480 0 L 448 0 Q 434 0 425 9 Q 416 18 416 32 L 416 416 Q 416 430 425 439 Q 434 448 448 448 L 480 448 Q 494 448 503 439 Q 512 430 512 416 L 512 352 L 544 352 Q 558 352 567 343 Q 576 334 576 320 L 576 128 Q 576 114 567 105 Q 558 96 544 96 L 512 96 L 512 32 Q 512 18 503 9 Q 494 0 480 0 L 480 0 Z"/>
</svg>
