<svg xmlns="http://www.w3.org/2000/svg" viewBox="0 0 448 448">
    <path d="M 64 0 Q 37 1 19 19 L 19 19 Q 1 37 0 64 L 0 384 Q 1 411 19 429 Q 37 447 64 448 L 384 448 Q 411 447 429 429 Q 447 411 448 384 L 448 64 Q 447 37 429 19 Q 411 1 384 0 L 64 0 L 64 0 Z M 64 224 Q 65 178 82 149 L 82 149 Q 98 120 114 107 Q 128 96 146 96 L 302 96 Q 320 96 334 107 Q 350 120 366 149 Q 383 178 384 224 Q 383 270 366 299 Q 350 327 334 341 Q 320 352 302 352 L 146 352 Q 128 352 114 341 Q 98 327 82 299 Q 65 270 64 224 L 64 224 Z"/>
</svg>
