<svg xmlns="http://www.w3.org/2000/svg" viewBox="0 0 544 480">
    <path d="M 235 43 L 249 5 Q 251 0 256 0 Q 261 0 263 5 L 277 43 L 315 57 Q 320 59 320 64 Q 320 69 315 71 L 277 85 L 263 123 Q 261 128 256 128 Q 251 128 249 123 L 235 85 L 197 71 Q 192 69 192 64 Q 192 59 197 57 L 235 43 L 235 43 Z M 530 117 L 419 227 L 380 188 L 485 83 L 461 59 L 356 164 L 317 125 L 427 14 Q 442 0 461 0 Q 480 0 495 14 L 530 49 Q 544 63 544 83 Q 544 102 530 117 L 530 117 Z M 8 117 L 64 96 L 85 40 Q 88 32 96 32 Q 104 32 107 40 L 128 96 L 185 117 Q 192 120 192 128 Q 192 136 185 139 L 128 160 L 107 217 Q 104 224 96 224 Q 88 224 85 217 L 64 160 L 8 139 Q 0 136 0 128 Q 0 120 8 117 L 8 117 Z M 360 373 L 416 352 L 437 296 Q 440 288 448 288 Q 456 288 459 296 L 480 352 L 537 373 Q 544 376 544 384 Q 544 392 537 395 L 480 416 L 459 473 Q 456 480 448 480 Q 440 480 437 473 L 416 416 L 360 395 Q 352 392 352 384 Q 352 376 360 373 L 360 373 Z"/>
</svg>
