<svg xmlns="http://www.w3.org/2000/svg" viewBox="0 0 512 376">
    <path d="M 64 0 Q 37 1 19 19 L 19 19 Q 1 37 0 64 L 0 128 Q 1 155 19 173 Q 37 191 64 192 L 448 192 Q 475 191 493 173 Q 511 155 512 128 L 512 64 Q 511 37 493 19 Q 475 1 448 0 L 64 0 L 64 0 Z M 344 72 Q 366 74 368 96 Q 366 118 344 120 Q 322 118 320 96 Q 322 74 344 72 L 344 72 Z M 392 96 Q 394 74 416 72 Q 438 74 440 96 Q 438 118 416 120 Q 394 118 392 96 L 392 96 Z M 424 376 Q 446 374 448 352 Q 446 330 424 328 Q 402 330 400 352 Q 402 374 424 376 L 424 376 Z"/>
</svg>
