<svg xmlns="http://www.w3.org/2000/svg" viewBox="0 0 308 508">
    <path d="M 132 16 Q 131 1 116 0 Q 101 1 100 16 L 100 80 Q 101 95 116 96 Q 131 95 132 80 L 132 16 L 132 16 Z M 33 23 Q 24 12 11 19 Q 0 28 7 41 L 39 89 Q 48 100 61 93 Q 72 84 65 71 L 33 23 L 33 23 Z M 151 508 Q 192 507 229 485 Q 266 462 287 426 Q 308 389 308 346 L 308 192 Q 308 178 299 169 Q 290 160 276 160 Q 262 160 253 169 Q 244 178 244 192 L 244 231 Q 242 247 228 247 L 228 346 Q 228 394 208 436 Q 188 478 151 508 L 151 508 Z M 221 19 Q 208 12 199 23 L 167 71 Q 160 84 171 93 Q 184 100 193 89 L 225 41 Q 232 28 221 19 L 221 19 Z"/>
</svg>
