<svg xmlns="http://www.w3.org/2000/svg" viewBox="0 0 320 320">
    <path d="M 0 160 L 0 240 L 80 240 L 80 160 L 0 160 L 0 160 Z M 320 320 L 320 240 L 240 240 L 240 320 L 320 320 L 320 320 Z M 80 320 L 160 320 L 160 240 L 80 240 L 80 320 L 80 320 L 80 320 Z M 0 0 L 0 80 L 80 80 L 80 0 L 0 0 L 0 0 Z M 160 80 L 80 80 L 80 160 L 160 160 L 160 80 L 160 80 Z M 160 160 L 160 240 L 240 240 L 240 160 L 160 160 L 160 160 Z M 320 160 L 320 80 L 240 80 L 240 160 L 320 160 L 320 160 Z M 240 0 L 160 0 L 160 80 L 240 80 L 240 0 L 240 0 Z"/>
</svg>
