<svg xmlns="http://www.w3.org/2000/svg" viewBox="0 0 416 416">
    <path d="M 208 416 Q 265 416 312 388 L 312 388 Q 359 361 388 312 Q 416 263 416 208 Q 416 153 388 104 Q 359 55 312 28 Q 265 0 208 0 Q 151 0 104 28 Q 57 55 28 104 Q 0 153 0 208 Q 0 263 28 312 Q 57 361 104 388 Q 151 416 208 416 L 208 416 Z M 241 119 L 313 191 Q 327 208 313 225 L 241 297 Q 224 311 207 297 Q 193 280 207 263 L 238 232 L 120 232 Q 98 230 96 208 Q 98 186 120 184 L 238 184 L 207 153 Q 193 136 207 119 Q 224 105 241 119 L 241 119 Z"/>
</svg>
