<svg xmlns="http://www.w3.org/2000/svg" viewBox="0 0 448 160">
    <path d="M 16 0 Q 1 1 0 16 L 0 48 Q 1 63 16 64 L 48 64 Q 63 63 64 48 L 64 16 Q 63 1 48 0 L 16 0 L 16 0 Z M 16 96 Q 1 97 0 112 L 0 144 Q 1 159 16 160 L 48 160 Q 63 159 64 144 L 64 112 Q 63 97 48 96 L 16 96 L 16 96 Z M 96 16 L 96 48 Q 97 63 112 64 L 144 64 Q 159 63 160 48 L 160 16 Q 159 1 144 0 L 112 0 Q 97 1 96 16 L 96 16 Z M 208 0 Q 193 1 192 16 L 192 48 Q 193 63 208 64 L 240 64 Q 255 63 256 48 L 256 16 Q 255 1 240 0 L 208 0 L 208 0 Z M 288 16 L 288 48 Q 289 63 304 64 L 336 64 Q 351 63 352 48 L 352 16 Q 351 1 336 0 L 304 0 Q 289 1 288 16 L 288 16 Z M 400 0 Q 385 1 384 16 L 384 48 Q 385 63 400 64 L 432 64 Q 447 63 448 48 L 448 16 Q 447 1 432 0 L 400 0 L 400 0 Z M 384 112 L 384 144 Q 385 159 400 160 L 432 160 Q 447 159 448 144 L 448 112 Q 447 97 432 96 L 400 96 Q 385 97 384 112 L 384 112 Z M 112 96 Q 97 97 96 112 L 96 144 Q 97 159 112 160 L 336 160 Q 351 159 352 144 L 352 112 Q 351 97 336 96 L 112 96 L 112 96 Z"/>
</svg>
