<svg xmlns="http://www.w3.org/2000/svg" viewBox="0 0 384 512">
    <path d="M 192 128 L 384 128 L 384 96 L 192 96 L 192 128 L 192 128 Z M 192 160 L 192 240 Q 191 272 166 291 L 102 339 Q 65 369 64 416 Q 65 457 92 484 Q 119 511 160 512 Q 192 512 218 493 L 333 406 Q 383 367 384 304 L 384 160 L 192 160 L 192 160 Z M 384 64 L 384 48 Q 383 28 370 14 Q 356 1 336 0 L 240 0 Q 220 1 206 14 Q 193 28 192 48 L 192 64 L 384 64 L 384 64 Z M 0 64 L 0 96 L 160 96 L 160 64 L 0 64 L 0 64 Z M 160 128 L 0 128 L 0 160 L 160 160 L 160 128 L 160 128 Z"/>
</svg>
