<svg xmlns="http://www.w3.org/2000/svg" viewBox="0 0 384 384">
    <path d="M 80 0 Q 46 1 23 23 L 23 23 Q 1 46 0 80 L 0 304 Q 1 338 23 361 Q 46 383 80 384 L 304 384 Q 338 383 361 361 Q 383 338 384 304 L 384 80 Q 383 46 361 23 Q 338 1 304 0 L 80 0 L 80 0 Z M 80 64 L 304 64 Q 319 65 320 80 L 320 112 Q 319 127 304 128 L 80 128 Q 65 127 64 112 L 64 80 Q 65 65 80 64 L 80 64 Z M 112 208 Q 110 230 88 232 Q 66 230 64 208 Q 66 186 88 184 Q 110 186 112 208 L 112 208 Z M 192 232 Q 170 230 168 208 Q 170 186 192 184 Q 214 186 216 208 Q 214 230 192 232 L 192 232 Z M 320 208 Q 318 230 296 232 Q 274 230 272 208 Q 274 186 296 184 Q 318 186 320 208 L 320 208 Z M 88 320 Q 66 318 64 296 Q 66 274 88 272 Q 110 274 112 296 Q 110 318 88 320 L 88 320 Z M 216 296 Q 214 318 192 320 Q 170 318 168 296 Q 170 274 192 272 Q 214 274 216 296 L 216 296 Z M 296 320 Q 274 318 272 296 Q 274 274 296 272 Q 318 274 320 296 Q 318 318 296 320 L 296 320 Z"/>
</svg>
