<svg xmlns="http://www.w3.org/2000/svg" viewBox="0 0 498 448">
    <path d="M 308 0 L 190 0 L 180 104 L 319 104 L 308 0 L 308 0 Z M 142 0 L 51 0 L 30 104 L 131 104 L 142 0 L 142 0 Z M 127 152 L 21 152 L 0 256 L 116 256 L 126 152 L 127 152 Z M 323 152 L 175 152 L 164 256 L 334 256 L 323 152 L 323 152 Z M 382 256 L 498 256 L 477 152 L 372 152 L 382 256 L 382 256 Z M 447 0 L 356 0 L 367 104 L 468 104 L 447 0 L 447 0 Z M 345 384 L 281 384 L 281 320 L 217 320 L 217 384 L 153 384 Q 139 384 130 393 Q 121 402 121 416 Q 121 430 130 439 Q 139 448 153 448 L 345 448 Q 359 448 368 439 Q 377 430 377 416 Q 377 402 368 393 Q 359 384 345 384 L 345 384 Z"/>
</svg>
