<svg xmlns="http://www.w3.org/2000/svg" viewBox="0 0 273 384">
    <path d="M 1 32 Q 1 18 10 9 L 10 9 Q 19 0 33 0 L 225 0 Q 246 1 255 20 Q 262 39 248 55 L 158 144 Q 207 147 240 181 Q 272 214 273 264 Q 272 315 238 349 Q 204 383 153 384 L 88 384 Q 55 383 32 363 Q 8 343 2 311 L 1 309 Q 0 296 7 285 Q 14 275 28 273 Q 41 271 52 278 Q 62 285 64 299 L 65 300 Q 69 319 88 320 L 153 320 Q 177 319 193 304 Q 208 288 209 264 Q 208 240 193 225 Q 177 209 153 208 L 81 208 Q 60 207 51 188 Q 44 169 58 153 L 148 64 L 33 64 Q 19 64 10 55 Q 1 46 1 32 L 1 32 Z"/>
</svg>
