<svg xmlns="http://www.w3.org/2000/svg" viewBox="0 0 640 523">
    <path d="M 64 91 Q 65 46 104 22 Q 144 0 184 22 Q 223 46 224 91 Q 223 136 184 160 Q 144 182 104 160 Q 65 136 64 91 L 64 91 Z M 432 91 Q 433 46 472 22 Q 512 0 552 22 Q 591 46 592 91 Q 591 136 552 160 Q 512 182 472 160 Q 433 136 432 91 L 432 91 Z M 107 203 L 149 203 Q 173 203 194 213 Q 192 224 192 235 Q 194 294 235 331 Q 235 331 235 331 Q 235 331 235 331 L 21 331 Q 2 329 0 310 Q 1 264 31 234 Q 61 204 107 203 L 107 203 Z M 405 331 Q 446 294 448 235 Q 448 224 446 213 Q 467 203 491 203 L 533 203 Q 579 204 609 234 Q 639 264 640 310 Q 638 329 619 331 L 605 331 Q 593 301 560 299 L 528 299 Q 495 301 483 331 L 405 331 Q 405 331 405 331 Q 405 331 405 331 L 405 331 Z M 433 375 Q 417 388 416 411 L 416 443 Q 417 463 430 477 Q 444 490 464 491 L 480 491 L 480 507 Q 480 515 483 523 L 155 523 Q 130 521 128 496 Q 129 440 167 402 Q 205 364 261 363 L 379 363 Q 408 363 433 375 L 433 375 Z M 320 139 Q 346 139 368 152 L 368 152 Q 390 165 403 187 Q 416 210 416 235 Q 416 260 403 283 Q 390 305 368 318 Q 346 331 320 331 Q 294 331 272 318 Q 250 305 237 283 Q 224 260 224 235 Q 224 210 237 187 Q 250 165 272 152 Q 294 139 320 139 L 320 139 Z"/>
</svg>
