<svg xmlns="http://www.w3.org/2000/svg" viewBox="0 0 384 256">
    <path d="M 64 0 Q 37 1 19 19 L 19 19 Q 1 37 0 64 L 0 192 Q 1 219 19 237 Q 37 255 64 256 L 320 256 Q 347 255 365 237 Q 383 219 384 192 L 384 64 Q 383 37 365 19 Q 347 1 320 0 L 64 0 L 64 0 Z M 128 80 L 128 96 Q 129 123 147 141 Q 165 159 192 160 Q 219 159 237 141 Q 255 123 256 96 L 256 80 Q 257 65 272 64 Q 287 65 288 80 L 288 96 Q 287 137 260 164 Q 233 191 192 192 Q 151 191 124 164 Q 97 137 96 96 L 96 80 Q 97 65 112 64 Q 127 65 128 80 L 128 80 Z"/>
</svg>
