<svg xmlns="http://www.w3.org/2000/svg" viewBox="0 0 180 256">
    <path d="M 59 0 Q 20 2 6 37 L 5 39 Q 0 60 20 69 Q 41 74 51 55 L 51 53 Q 53 48 59 48 L 117 48 Q 131 49 132 63 Q 132 72 124 76 L 80 102 Q 68 109 68 122 L 68 136 Q 70 158 92 160 Q 114 158 116 136 L 148 118 Q 179 99 180 63 Q 179 36 161 18 Q 144 1 117 0 L 59 0 L 59 0 Z M 92 256 Q 106 256 115 247 L 115 247 Q 124 238 124 224 Q 124 210 115 201 Q 106 192 92 192 Q 78 192 69 201 Q 60 210 60 224 Q 60 238 69 247 Q 78 256 92 256 L 92 256 Z"/>
</svg>
