<svg xmlns="http://www.w3.org/2000/svg" viewBox="0 0 448 512">
    <path d="M 224 16 Q 215 15 209 10 Q 208 10 208 10 Q 201 2 176 0 Q 153 1 137 28 Q 120 54 110 89 Q 74 96 53 106 Q 32 116 32 128 Q 33 142 58 152 Q 84 163 128 170 L 128 184 Q 128 201 140 212 Q 151 224 168 224 L 180 224 Q 207 223 217 198 Q 219 193 224 193 Q 229 193 231 198 Q 241 223 268 224 L 280 224 Q 297 224 308 212 Q 320 201 320 184 L 320 170 Q 364 163 390 152 Q 415 142 416 128 Q 416 116 395 106 Q 374 96 338 89 Q 328 54 311 28 Q 295 1 272 0 Q 247 2 240 10 Q 240 10 240 10 Q 239 10 239 10 Q 233 15 224 16 L 224 16 Z M 268 512 L 417 512 Q 430 512 439 503 Q 448 494 448 481 Q 448 438 428 403 Q 408 367 374 346 L 415 242 Q 416 240 416 237 Q 415 225 403 224 L 344 224 L 274 491 L 240 374 L 258 344 Q 262 336 258 328 Q 253 321 244 320 L 224 320 L 204 320 Q 195 321 190 328 Q 186 336 191 344 L 208 374 L 174 491 L 104 224 L 45 224 Q 33 225 32 237 Q 32 240 33 242 L 74 346 Q 40 367 20 403 Q 0 438 0 481 Q 0 494 9 503 Q 18 512 31 512 L 180 512 L 268 512 L 268 512 Z"/>
</svg>
