<svg xmlns="http://www.w3.org/2000/svg" viewBox="0 0 224 320">
    <path d="M 160 64 L 160 0 Q 160 0 160 0 Q 156 0 152 0 L 128 0 Q 95 0 64 9 L 64 64 L 64 87 Q 63 106 47 117 Q 2 150 0 208 Q 1 256 33 287 Q 64 319 112 320 Q 160 319 191 287 Q 223 256 224 208 Q 222 150 177 117 Q 161 106 160 87 L 160 64 L 160 64 Z M 48 208 Q 49 172 80 153 Q 112 135 144 153 Q 175 172 176 208 Q 175 244 144 263 Q 112 281 80 263 Q 49 244 48 208 L 48 208 Z M 144 208 Q 144 194 135 185 L 135 185 Q 126 176 112 176 Q 98 176 89 185 Q 80 194 80 208 Q 80 222 89 231 Q 98 240 112 240 Q 126 240 135 231 Q 144 222 144 208 L 144 208 Z"/>
</svg>
