<svg xmlns="http://www.w3.org/2000/svg" viewBox="0 0 480 448">
    <path d="M 416 85 Q 385 46 339 23 L 339 23 Q 294 0 240 0 Q 166 1 109 42 Q 53 83 29 149 Q 25 162 30 174 Q 36 185 48 190 Q 61 194 73 189 Q 84 183 89 171 Q 106 123 147 94 Q 187 65 240 64 Q 280 64 313 81 Q 346 98 368 128 L 336 128 Q 322 128 313 137 Q 304 146 304 160 Q 304 174 313 183 Q 322 192 336 192 L 420 192 Q 421 192 421 192 Q 421 192 422 192 L 448 192 Q 462 192 471 183 Q 480 174 480 160 L 480 48 Q 480 34 471 25 Q 462 16 448 16 Q 434 16 425 25 Q 416 34 416 48 L 416 85 L 416 85 Z M 451 299 Q 455 286 450 274 L 450 274 Q 444 263 432 258 Q 419 254 407 259 Q 396 265 391 277 Q 374 325 333 354 Q 293 383 240 384 Q 200 384 167 367 Q 134 350 112 320 L 144 320 Q 158 320 167 311 Q 176 302 176 288 Q 176 274 167 265 Q 158 256 144 256 L 32 256 Q 18 256 9 265 Q 0 274 0 288 L 0 400 Q 0 414 9 423 Q 18 432 32 432 Q 46 432 55 423 Q 64 414 64 400 L 64 363 Q 95 402 141 425 Q 186 448 240 448 Q 314 447 371 406 Q 427 365 451 299 L 451 299 Z"/>
</svg>
