<svg xmlns="http://www.w3.org/2000/svg" viewBox="0 0 320 320">
    <path d="M 144 222 L 144 287 Q 110 283 84 263 Q 58 244 44 215 L 106 195 Q 120 215 144 222 L 144 222 Z M 176 222 Q 200 215 214 194 L 276 215 Q 262 244 236 263 Q 210 282 176 287 L 176 222 L 176 222 Z M 224 164 Q 224 162 224 160 L 224 160 Q 224 160 224 160 Q 223 136 209 119 L 248 67 Q 286 103 288 160 Q 288 172 286 184 L 224 164 L 224 164 Z M 184 101 Q 173 96 160 96 Q 147 96 136 101 L 126 87 L 98 48 Q 126 32 160 32 Q 194 32 222 48 L 184 101 L 184 101 Z M 110 119 Q 96 136 96 160 Q 96 162 96 164 L 34 184 Q 32 172 32 160 Q 34 103 72 67 L 100 105 L 110 119 L 110 119 Z M 160 320 Q 203 320 240 299 L 240 299 Q 277 277 299 240 Q 320 202 320 160 Q 320 118 299 80 Q 277 43 240 21 Q 203 0 160 0 Q 117 0 80 21 Q 43 43 21 80 Q 0 118 0 160 Q 0 202 21 240 Q 43 277 80 299 Q 117 320 160 320 L 160 320 Z M 128 160 Q 128 146 137 137 L 137 137 Q 146 128 160 128 Q 174 128 183 137 Q 192 146 192 160 Q 192 174 183 183 Q 174 192 160 192 Q 146 192 137 183 Q 128 174 128 160 L 128 160 Z"/>
</svg>
