<svg xmlns="http://www.w3.org/2000/svg" viewBox="0 0 384 512">
    <path d="M 127 69 L 161 128 L 160 128 L 152 128 L 88 128 Q 71 128 60 116 Q 48 105 48 88 Q 48 71 60 60 Q 71 48 88 48 L 90 48 Q 114 49 127 69 L 127 69 Z M 192 86 L 168 45 Q 141 2 90 0 L 88 0 Q 51 1 26 26 Q 1 51 0 88 Q 1 125 26 150 Q 51 175 88 176 L 152 176 L 160 176 L 160 256 L 224 256 L 224 176 L 296 176 Q 333 175 358 150 Q 383 125 384 88 Q 383 51 358 26 Q 333 1 296 0 L 294 0 Q 243 2 216 44 L 192 86 L 192 86 Z M 258 69 Q 270 49 294 48 L 296 48 Q 313 48 324 60 Q 336 71 336 88 Q 336 105 324 116 Q 313 128 296 128 L 223 128 L 258 69 L 258 69 Z M 224 512 L 224 288 L 160 288 L 160 512 L 224 512 L 224 512 Z"/>
</svg>
