<svg xmlns="http://www.w3.org/2000/svg" viewBox="0 0 384 512">
    <path d="M 0 64 Q 1 37 19 19 L 19 19 Q 37 1 64 0 L 224 0 L 224 128 Q 224 142 233 151 Q 242 160 256 160 L 384 160 L 384 448 Q 383 475 365 493 Q 347 511 320 512 L 64 512 Q 37 511 19 493 Q 1 475 0 448 L 0 64 L 0 64 Z M 112 256 Q 97 257 96 272 Q 97 287 112 288 L 272 288 Q 287 287 288 272 Q 287 257 272 256 L 112 256 L 112 256 Z M 112 320 Q 97 321 96 336 Q 97 351 112 352 L 272 352 Q 287 351 288 336 Q 287 321 272 320 L 112 320 L 112 320 Z M 112 384 Q 97 385 96 400 Q 97 415 112 416 L 272 416 Q 287 415 288 400 Q 287 385 272 384 L 112 384 L 112 384 Z"/>
</svg>
