<svg xmlns="http://www.w3.org/2000/svg" viewBox="0 0 448 289">
    <path d="M 448 144 Q 446 206 406 247 L 406 247 Q 365 287 303 289 L 145 289 Q 83 287 42 247 Q 2 206 0 144 Q 1 90 34 51 Q 68 12 121 2 L 123 1 Q 136 0 147 7 Q 157 14 159 28 Q 161 41 154 52 Q 147 62 133 65 L 131 65 Q 102 70 83 92 Q 65 114 64 144 Q 65 179 88 201 Q 110 224 145 225 L 303 225 Q 338 224 360 201 Q 383 179 384 144 Q 383 114 365 92 Q 346 70 317 65 L 315 65 Q 301 62 294 52 Q 287 41 288 28 Q 291 14 301 7 Q 312 0 325 1 L 327 2 Q 380 12 414 51 Q 447 90 448 144 L 448 144 Z"/>
</svg>
