<svg xmlns="http://www.w3.org/2000/svg" viewBox="0 0 520 431">
    <path d="M 226 3 Q 233 0 238 4 L 238 4 Q 244 8 244 16 L 244 27 Q 245 42 260 43 Q 275 42 276 27 L 276 16 Q 276 8 282 4 Q 287 0 295 3 Q 315 13 327 32 Q 340 51 340 75 L 340 140 L 445 105 Q 449 104 450 100 L 469 43 Q 478 23 500 28 Q 520 37 515 59 L 496 115 Q 487 141 461 151 L 400 171 L 460 191 Q 486 201 496 227 L 515 283 Q 520 305 499 314 Q 478 319 469 299 L 450 242 Q 449 238 445 237 L 365 210 L 422 267 Q 446 293 435 327 L 402 412 Q 393 431 371 425 Q 352 416 358 394 L 390 310 Q 392 305 388 301 L 356 269 Q 354 309 327 335 Q 300 362 260 363 Q 220 362 193 336 Q 166 309 164 269 L 132 301 Q 128 305 130 310 L 162 394 Q 168 416 149 425 Q 127 431 118 412 L 85 327 Q 74 293 98 267 L 155 210 L 75 237 Q 71 238 70 242 L 51 299 Q 42 319 20 314 Q 0 305 5 283 L 24 227 Q 33 201 60 191 L 120 171 L 60 151 Q 34 141 24 115 L 5 59 Q 0 37 20 28 Q 42 23 51 43 L 70 100 Q 71 104 75 105 L 180 140 L 180 75 Q 180 51 193 32 Q 205 13 226 3 L 226 3 Z"/>
</svg>
