<svg xmlns="http://www.w3.org/2000/svg" viewBox="0 0 550 227">
    <path d="M 26 4 Q 12 0 4 13 Q 0 26 13 34 L 131 86 L 131 163 L 67 163 Q 52 164 51 179 Q 52 194 67 195 L 134 195 Q 146 225 179 227 L 371 227 Q 404 225 416 195 L 483 195 Q 498 194 499 179 Q 498 164 483 163 L 419 163 L 419 86 L 538 34 Q 550 26 546 12 Q 538 0 525 4 L 410 55 Q 396 36 371 35 L 179 35 Q 154 36 140 55 L 26 4 L 26 4 Z M 195 83 L 355 83 Q 370 84 371 99 Q 370 114 355 115 L 195 115 Q 180 114 179 99 Q 180 84 195 83 L 195 83 Z M 195 147 L 355 147 Q 370 148 371 163 Q 370 178 355 179 L 195 179 Q 180 178 179 163 Q 180 148 195 147 L 195 147 Z"/>
</svg>
