<svg xmlns="http://www.w3.org/2000/svg" viewBox="0 0 397 367">
    <path d="M 397 161 Q 397 147 388 138 L 388 138 Q 379 129 365 129 Q 351 129 342 138 Q 333 147 333 161 L 333 210 L 279 117 L 279 117 L 279 117 L 222 18 Q 209 0 189 9 Q 171 21 180 42 L 232 131 Q 236 141 227 147 Q 217 152 211 143 L 143 26 Q 131 8 111 17 Q 93 30 102 50 L 148 129 Q 162 131 175 139 L 235 176 Q 281 206 307 252 Q 333 298 333 353 L 333 361 Q 333 364 333 367 Q 363 342 380 308 Q 397 273 397 234 L 397 161 L 397 161 Z M 122 132 L 97 90 Q 84 72 64 81 Q 46 93 55 114 L 84 164 Q 85 161 87 159 Q 100 139 121 132 L 122 132 Z M 77 200 L 51 153 Q 38 135 18 144 Q 0 157 9 177 L 32 217 L 64 217 L 64 217 L 77 217 L 82 217 Q 78 209 77 200 L 77 200 Z"/>
</svg>
