<svg xmlns="http://www.w3.org/2000/svg" viewBox="0 0 576 416">
    <path d="M 186 48 L 184 48 Q 167 48 156 60 Q 144 71 144 88 Q 144 105 156 116 Q 167 128 184 128 L 257 128 L 223 69 Q 210 49 186 48 L 186 48 Z M 244 176 L 184 176 Q 147 175 122 150 Q 97 125 96 88 Q 97 51 122 26 Q 147 1 184 0 L 186 0 Q 237 2 264 44 L 288 85 L 312 44 Q 339 2 390 0 L 392 0 Q 429 1 454 26 Q 479 51 480 88 Q 479 125 454 150 Q 429 175 392 176 L 333 176 L 387 241 Q 399 259 383 274 Q 365 287 350 271 L 288 198 L 226 271 Q 211 287 193 275 Q 177 259 189 241 L 243 176 L 244 176 Z M 392 128 Q 409 128 420 116 L 420 116 Q 432 105 432 88 Q 432 71 420 60 Q 409 48 392 48 L 390 48 Q 366 49 354 69 L 319 128 L 320 128 L 392 128 L 392 128 Z M 576 416 L 0 416 L 0 320 L 576 320 L 576 416 L 576 416 Z"/>
</svg>
