<svg xmlns="http://www.w3.org/2000/svg" viewBox="0 0 576 288">
    <path d="M 376 24 Q 374 2 352 0 Q 330 2 328 24 L 328 96 L 64 96 Q 37 97 19 115 Q 1 133 0 160 L 0 224 Q 1 251 19 269 Q 37 287 64 288 L 512 288 Q 539 287 557 269 Q 575 251 576 224 L 576 160 Q 575 133 557 115 Q 539 97 512 96 L 376 96 L 376 24 L 376 24 Z M 96 160 Q 110 160 119 169 L 119 169 Q 128 178 128 192 Q 128 206 119 215 Q 110 224 96 224 Q 82 224 73 215 Q 64 206 64 192 Q 64 178 73 169 Q 82 160 96 160 L 96 160 Z M 160 192 Q 160 178 169 169 L 169 169 Q 178 160 192 160 Q 206 160 215 169 Q 224 178 224 192 Q 224 206 215 215 Q 206 224 192 224 Q 178 224 169 215 Q 160 206 160 192 L 160 192 Z"/>
</svg>
