<svg xmlns="http://www.w3.org/2000/svg" viewBox="0 0 512 512">
    <path d="M 256 0 Q 270 0 279 9 L 279 9 Q 288 18 288 32 L 288 64 L 512 64 L 512 96 Q 512 110 503 119 Q 494 128 480 128 L 288 128 L 288 256 L 512 256 L 512 288 Q 512 302 503 311 Q 494 320 480 320 L 288 320 L 288 480 Q 288 494 279 503 Q 270 512 256 512 Q 242 512 233 503 Q 224 494 224 480 L 224 320 L 32 320 Q 18 320 9 311 Q 0 302 0 288 L 0 256 L 224 256 L 224 128 L 32 128 Q 18 128 9 119 Q 0 110 0 96 L 0 64 L 224 64 L 224 32 Q 224 18 233 9 Q 242 0 256 0 L 256 0 Z"/>
</svg>
