<svg xmlns="http://www.w3.org/2000/svg" viewBox="0 0 512 448">
    <path d="M 256 288 Q 331 286 380 236 L 380 236 Q 430 187 432 112 Q 431 47 392 0 L 448 0 Q 475 1 493 19 Q 511 37 512 64 L 512 384 Q 511 411 493 429 Q 475 447 448 448 L 64 448 Q 37 447 19 429 Q 1 411 0 384 L 0 64 Q 1 37 19 19 Q 37 1 64 0 L 120 0 Q 81 47 80 112 Q 82 187 132 236 Q 181 286 256 288 L 256 288 Z M 296 160 Q 296 177 284 188 L 284 188 Q 273 200 256 200 Q 239 200 228 188 Q 216 177 216 160 Q 216 143 228 132 Q 239 121 256 120 L 289 42 Q 296 29 310 33 Q 323 40 319 54 L 285 133 Q 296 144 296 160 L 296 160 Z"/>
</svg>
