<svg xmlns="http://www.w3.org/2000/svg" viewBox="0 0 416 386">
    <path d="M 64 0 Q 37 1 19 19 L 19 19 Q 1 37 0 64 L 0 256 Q 1 283 19 301 Q 37 319 64 320 L 96 320 L 96 368 Q 96 378 105 382 Q 114 386 122 381 L 203 320 L 352 320 Q 379 319 397 301 Q 415 283 416 256 L 416 64 Q 415 37 397 19 Q 379 1 352 0 L 64 0 L 64 0 Z M 228 56 L 228 70 Q 239 72 249 75 Q 266 81 263 99 Q 257 116 239 113 Q 222 109 208 108 Q 195 108 186 113 Q 179 117 180 122 Q 179 125 185 129 Q 194 134 214 140 L 214 140 Q 215 140 215 140 Q 233 145 251 155 Q 273 166 276 196 Q 274 228 251 241 Q 240 248 228 250 L 228 264 Q 226 282 208 284 Q 190 282 188 264 L 188 249 Q 172 246 160 241 L 160 241 L 160 241 Q 157 240 154 239 Q 137 231 141 214 Q 148 197 166 201 Q 168 202 170 202 Q 172 203 174 203 Q 193 211 209 212 Q 222 212 230 207 Q 236 204 236 197 Q 237 193 230 188 Q 221 183 202 178 L 200 177 Q 200 177 200 177 Q 182 173 165 163 Q 143 152 140 123 Q 142 91 166 79 Q 176 73 188 70 L 188 56 Q 190 38 208 36 Q 226 38 228 56 L 228 56 Z"/>
</svg>
