<svg xmlns="http://www.w3.org/2000/svg" viewBox="0 0 580 105">
    <path d="M 272 13 Q 290 1 309 13 Q 344 38 386 39 Q 428 37 463 13 L 463 13 Q 484 0 503 15 Q 525 33 553 40 Q 566 43 573 54 Q 580 65 577 78 Q 574 91 563 98 Q 552 105 539 102 Q 501 92 481 77 Q 436 102 386 103 Q 337 100 306 84 Q 297 80 290 76 Q 283 80 274 84 Q 243 100 194 103 Q 144 102 100 77 Q 79 92 41 102 Q 28 105 17 98 Q 6 91 3 78 Q 0 65 7 54 Q 14 43 27 40 Q 55 33 77 15 Q 96 0 117 13 L 117 13 Q 152 37 194 39 Q 237 38 272 13 L 272 13 Z"/>
</svg>
