<svg xmlns="http://www.w3.org/2000/svg" viewBox="0 0 288 384">
    <path d="M 0 160 L 0 256 L 128 256 L 128 160 L 0 160 L 0 160 Z M 0 288 L 0 320 Q 1 347 19 365 Q 37 383 64 384 L 128 384 L 128 288 L 0 288 L 0 288 Z M 160 384 L 288 384 L 288 288 L 160 288 L 160 384 L 160 384 Z M 288 256 L 288 160 L 160 160 L 160 256 L 288 256 L 288 256 Z M 288 128 L 288 0 L 160 0 L 160 128 L 288 128 L 288 128 Z M 44 128 L 96 128 L 96 128 L 128 128 L 128 96 L 128 96 L 128 44 Q 125 32 113 37 Q 95 48 72 48 Q 66 48 60 47 Q 48 48 47 60 Q 48 66 48 72 Q 48 95 37 113 Q 33 125 44 128 L 44 128 Z"/>
</svg>
