<svg xmlns="http://www.w3.org/2000/svg" viewBox="0 0 322 384">
    <path d="M 166 0 Q 193 3 213 21 L 213 21 Q 233 38 238 65 L 244 98 Q 278 105 300 131 Q 321 156 322 192 L 322 224 Q 322 238 313 247 Q 304 256 290 256 L 274 256 L 234 256 L 234 352 Q 234 366 225 375 Q 216 384 202 384 Q 188 384 179 375 Q 170 366 170 352 L 170 256 L 162 256 L 154 256 L 154 352 Q 154 366 145 375 Q 136 384 122 384 Q 108 384 99 375 Q 90 366 90 352 L 90 255 Q 68 248 66 224 L 66 169 L 61 177 Q 54 188 42 191 Q 29 194 18 187 Q 6 180 3 168 Q 0 155 7 144 L 65 47 Q 89 8 134 1 Q 140 0 146 0 L 147 0 L 160 0 L 162 0 Q 164 0 166 0 L 166 0 Z"/>
</svg>
