<svg xmlns="http://www.w3.org/2000/svg" viewBox="0 0 385 208">
    <path d="M 372 13 Q 359 1 343 0 L 343 0 Q 326 0 313 12 L 162 158 Q 206 176 228 204 Q 230 206 231 208 L 257 184 L 232 158 Q 225 150 232 141 Q 240 134 249 141 L 274 167 L 289 152 L 264 126 Q 257 118 264 109 Q 272 102 281 109 L 307 135 L 322 121 L 296 94 Q 289 86 296 77 Q 304 70 313 77 L 339 104 L 354 89 L 328 62 Q 321 54 328 45 Q 336 38 345 45 L 372 72 Q 384 59 384 43 Q 385 26 372 13 L 372 13 Z M 64 38 Q 64 24 55 15 L 55 15 Q 46 6 32 6 Q 19 6 10 15 Q 1 24 0 38 Q 1 52 10 61 Q 19 70 32 70 Q 46 70 55 61 Q 64 52 64 38 L 64 38 Z M 224 38 Q 224 24 215 15 L 215 15 Q 206 6 192 6 Q 179 6 170 15 Q 161 24 160 38 Q 161 52 170 61 Q 179 70 192 70 Q 206 70 215 61 Q 224 52 224 38 L 224 38 Z"/>
</svg>
