<svg xmlns="http://www.w3.org/2000/svg" viewBox="0 0 576 512">
    <path d="M 64 0 Q 37 1 19 19 L 19 19 Q 1 37 0 64 L 0 352 Q 1 379 19 397 Q 37 415 64 416 L 240 416 L 229 448 L 160 448 Q 146 448 137 457 Q 128 466 128 480 Q 128 494 137 503 Q 146 512 160 512 L 395 512 Q 360 488 340 450 Q 320 413 320 368 Q 320 360 321 352 L 64 352 L 64 64 L 512 64 L 512 193 Q 547 196 576 211 L 576 64 Q 575 37 557 19 Q 539 1 512 0 L 64 0 L 64 0 Z M 480 193 L 480 120 Q 478 98 456 96 L 376 96 Q 354 98 352 120 Q 354 142 376 144 L 398 144 L 304 238 L 241 175 Q 224 161 207 175 L 103 279 Q 89 296 103 313 Q 120 327 137 313 L 224 226 L 287 289 Q 294 296 304 296 Q 314 296 321 289 L 432 178 L 432 200 Q 432 202 432 204 Q 455 195 480 193 L 480 193 Z"/>
</svg>
