<svg xmlns="http://www.w3.org/2000/svg" viewBox="0 0 576 452">
    <path d="M 0 388 L 0 86 Q 1 68 16 58 Q 30 48 48 52 Q 108 67 168 59 Q 228 50 288 34 Q 353 16 418 8 Q 484 0 549 22 Q 575 34 576 64 L 576 366 Q 575 384 560 394 Q 546 404 528 400 Q 468 385 408 393 Q 348 402 288 418 Q 223 436 158 444 Q 92 452 27 430 Q 1 418 0 388 L 0 388 Z M 448 70 Q 389 73 314 93 Q 311 94 308 95 Q 304 96 300 97 L 300 97 Q 299 97 298 97 Q 260 108 217 116 Q 173 125 127 126 Q 122 148 105 163 Q 88 178 64 178 L 64 322 Q 90 323 108 339 Q 126 356 128 382 Q 187 379 262 359 Q 265 358 267 357 Q 272 356 276 355 L 276 355 Q 277 355 278 355 Q 316 344 359 336 Q 403 327 449 326 Q 454 303 471 289 Q 488 274 512 274 L 512 130 Q 486 129 468 113 Q 451 96 448 70 L 448 70 Z M 272 158 L 288 158 Q 306 160 308 178 L 308 246 L 312 246 Q 330 248 332 266 Q 330 284 312 286 L 288 286 L 264 286 Q 246 284 244 266 Q 246 248 264 246 L 268 246 L 268 198 Q 253 194 252 178 Q 254 160 272 158 L 272 158 Z"/>
</svg>
