<svg xmlns="http://www.w3.org/2000/svg" viewBox="0 0 420 389">
    <path d="M 114 14 Q 113 29 127 33 L 135 34 Q 160 40 162 66 L 162 157 Q 177 135 194 123 L 194 66 Q 194 42 179 24 Q 164 7 141 3 L 133 1 Q 118 0 114 15 L 114 14 Z M 146 241 L 97 241 Q 86 241 76 236 L 41 219 Q 28 213 20 226 Q 14 240 27 247 L 61 265 Q 78 273 97 273 L 146 273 L 146 241 L 146 241 Z M 146 289 L 76 289 Q 69 289 61 287 L 23 274 Q 9 270 3 284 Q 0 298 13 304 L 51 317 Q 63 321 76 321 L 146 321 L 146 289 L 146 289 Z M 146 337 L 129 337 Q 110 337 93 345 L 75 355 Q 62 362 68 376 Q 75 389 89 383 L 108 374 Q 118 369 129 369 L 146 369 L 146 369 L 146 337 L 146 337 Z M 274 369 L 291 369 Q 302 369 312 374 L 331 383 Q 345 389 352 376 Q 358 362 345 355 L 327 345 Q 310 337 291 337 L 274 337 L 274 369 L 274 369 L 274 369 Z M 274 321 L 344 321 Q 357 321 369 317 L 407 304 Q 420 298 417 284 Q 411 271 397 274 L 359 287 Q 351 289 344 289 L 274 289 L 274 321 L 274 321 Z M 274 273 L 323 273 Q 342 273 359 265 L 393 247 Q 406 240 400 226 Q 393 213 379 219 L 344 236 Q 334 241 323 241 L 274 241 L 274 273 L 274 273 Z M 258 157 L 258 66 Q 260 40 285 34 L 293 33 Q 307 29 306 14 Q 302 0 287 1 L 280 3 Q 256 7 241 24 Q 226 42 226 66 L 226 123 Q 243 135 258 157 L 258 157 Z"/>
</svg>
