<svg xmlns="http://www.w3.org/2000/svg" viewBox="0 0 448 512">
    <path d="M 288 32 Q 288 18 279 9 L 279 9 Q 270 0 256 0 Q 242 0 233 9 Q 224 18 224 32 Q 224 46 233 55 Q 242 64 256 64 Q 270 64 279 55 Q 288 46 288 32 L 288 32 Z M 160 88 Q 174 88 183 79 L 183 79 Q 192 70 192 56 Q 192 42 183 33 Q 174 24 160 24 Q 146 24 137 33 Q 128 42 128 56 Q 128 70 137 79 Q 146 88 160 88 L 160 88 Z M 64 224 Q 37 225 19 243 L 19 243 Q 1 261 0 288 L 0 448 Q 1 475 19 493 Q 37 511 64 512 L 384 512 Q 411 511 429 493 Q 447 475 448 448 L 448 288 Q 447 261 429 243 Q 411 225 384 224 L 64 224 L 64 224 Z M 64 288 L 128 288 Q 143 289 144 304 L 144 368 Q 143 383 128 384 L 64 384 Q 49 383 48 368 L 48 304 Q 49 289 64 288 L 64 288 Z M 176 304 Q 177 289 192 288 L 256 288 Q 271 289 272 304 L 272 368 Q 271 383 256 384 L 192 384 Q 177 383 176 368 L 176 304 L 176 304 Z M 320 288 L 384 288 Q 399 289 400 304 L 400 368 Q 399 383 384 384 L 320 384 Q 305 383 304 368 L 304 304 Q 305 289 320 288 L 320 288 Z"/>
</svg>
