<svg xmlns="http://www.w3.org/2000/svg" viewBox="0 0 640 520">
    <path d="M 505 159 Q 515 150 528 150 L 528 150 Q 541 150 551 159 L 631 239 Q 640 249 640 262 Q 640 275 631 285 L 551 365 Q 541 374 528 374 Q 515 374 505 365 Q 496 355 496 342 Q 496 329 505 319 L 531 294 L 384 294 Q 370 294 361 285 Q 352 276 352 262 Q 352 248 361 239 Q 370 230 384 230 L 531 230 L 505 205 Q 496 195 496 182 Q 496 169 505 159 L 505 159 Z M 160 54 Q 161 27 184 12 Q 208 0 232 12 Q 255 27 256 54 Q 255 81 232 96 Q 208 108 184 96 Q 161 81 160 54 L 160 54 Z M 127 205 Q 126 206 125 206 L 125 206 Q 124 206 124 207 L 116 210 Q 90 222 81 248 L 78 256 Q 74 269 62 274 Q 51 280 38 276 Q 25 272 19 260 Q 14 249 18 236 L 20 228 Q 39 175 90 151 L 98 148 Q 129 134 164 134 Q 198 134 225 152 Q 252 171 266 202 L 281 239 L 302 249 Q 314 256 318 268 Q 322 280 317 292 Q 310 304 298 308 Q 286 312 274 307 L 247 293 Q 231 285 224 269 L 215 246 L 195 311 L 245 365 Q 253 374 256 386 L 279 478 Q 282 491 275 502 Q 269 513 256 517 Q 242 520 231 513 Q 221 507 217 494 L 195 406 L 124 328 Q 102 302 110 269 L 126 205 L 127 205 Z M 69 404 L 94 342 Q 97 346 101 350 L 141 395 L 127 431 Q 123 440 116 447 L 55 509 Q 45 518 32 518 Q 19 518 9 509 Q 0 499 0 486 Q 0 473 9 463 L 69 404 L 69 404 Z"/>
</svg>
