<svg xmlns="http://www.w3.org/2000/svg" viewBox="0 0 512 512">
    <path d="M 24 0 Q 2 2 0 24 L 0 136 Q 2 158 24 160 Q 46 158 48 136 L 48 48 L 136 48 Q 158 46 160 24 Q 158 2 136 0 L 24 0 L 24 0 Z M 488 0 L 376 0 Q 354 2 352 24 Q 354 46 376 48 L 464 48 L 464 136 Q 466 158 488 160 Q 510 158 512 136 L 512 24 Q 510 2 488 0 L 488 0 Z M 0 488 Q 2 510 24 512 L 136 512 Q 158 510 160 488 Q 158 466 136 464 L 48 464 L 48 376 Q 46 354 24 352 Q 2 354 0 376 L 0 488 L 0 488 Z M 488 512 Q 510 510 512 488 L 512 376 Q 510 354 488 352 Q 466 354 464 376 L 464 464 L 376 464 Q 354 466 352 488 Q 354 510 376 512 L 488 512 L 488 512 Z"/>
</svg>
