<svg xmlns="http://www.w3.org/2000/svg" viewBox="0 0 448 320">
    <path d="M 240 160 Q 239 115 200 91 Q 160 69 120 91 Q 81 115 80 160 Q 81 205 120 229 Q 160 251 200 229 Q 239 205 240 160 L 240 160 Z M 0 160 Q 0 117 21 80 L 21 80 Q 43 43 80 21 Q 118 0 160 0 Q 202 0 240 21 Q 277 43 299 80 Q 320 117 320 160 Q 320 203 299 240 Q 277 277 240 299 Q 202 320 160 320 Q 118 320 80 299 Q 43 277 21 240 Q 0 203 0 160 L 0 160 Z M 448 96 Q 446 129 416 141 L 416 256 Q 415 271 400 272 Q 385 271 384 256 L 384 141 Q 354 129 352 96 Q 353 76 366 62 Q 380 49 400 48 Q 420 49 434 62 Q 447 76 448 96 L 448 96 Z"/>
</svg>
