<svg xmlns="http://www.w3.org/2000/svg" viewBox="0 0 448 448">
    <path d="M 0 96 Q 1 55 28 28 L 28 28 Q 55 1 96 0 L 192 0 Q 206 0 215 9 Q 224 18 224 32 Q 224 46 215 55 Q 206 64 192 64 L 96 64 Q 82 64 73 73 Q 64 82 64 96 L 64 352 Q 64 366 73 375 Q 82 384 96 384 L 352 384 Q 366 384 375 375 Q 384 366 384 352 L 384 256 Q 384 242 393 233 Q 402 224 416 224 Q 430 224 439 233 Q 448 242 448 256 L 448 352 Q 447 393 420 420 Q 393 447 352 448 L 96 448 Q 55 447 28 420 Q 1 393 0 352 L 0 96 L 0 96 Z"/>
</svg>
