<svg xmlns="http://www.w3.org/2000/svg" viewBox="0 0 576 354">
    <path d="M 335 62 L 241 62 Q 230 62 221 57 L 123 11 Q 96 0 76 21 Q 39 64 20 117 Q 0 170 0 227 L 0 265 Q 0 272 6 276 Q 12 280 19 277 L 83 245 Q 96 239 104 251 L 133 300 Q 144 314 158 304 L 195 267 Q 208 257 219 269 L 275 342 Q 288 354 301 342 L 357 269 Q 368 257 381 267 L 417 304 Q 431 314 442 300 L 472 251 Q 480 239 493 245 L 557 277 Q 564 280 570 276 Q 575 272 576 265 L 576 227 Q 576 170 556 117 Q 537 64 500 21 Q 479 0 452 11 L 355 57 Q 345 62 335 62 L 335 62 Z"/>
</svg>
