<svg xmlns="http://www.w3.org/2000/svg" viewBox="0 0 320 256">
    <path d="M 24 0 Q 2 2 0 24 L 0 232 Q 2 254 24 256 L 40 256 Q 62 254 64 232 L 64 24 Q 62 2 40 0 L 24 0 L 24 0 Z M 184 0 Q 162 2 160 24 L 160 232 Q 162 254 184 256 L 200 256 Q 222 254 224 232 L 224 24 Q 222 2 200 0 L 184 0 L 184 0 Z M 256 24 L 256 232 Q 258 254 280 256 L 296 256 Q 318 254 320 232 L 320 24 Q 318 2 296 0 L 280 0 Q 258 2 256 24 L 256 24 Z M 112 0 Q 97 1 96 16 L 96 240 Q 97 255 112 256 Q 127 255 128 240 L 128 16 Q 127 1 112 0 L 112 0 Z"/>
</svg>
