<svg xmlns="http://www.w3.org/2000/svg" viewBox="0 0 264 518">
    <path d="M 24 54 Q 25 27 48 12 Q 72 0 96 12 Q 119 27 120 54 Q 119 81 96 96 Q 72 108 48 96 Q 25 81 24 54 L 24 54 Z M 0 198 Q 1 171 19 153 L 19 153 Q 37 135 64 134 L 97 134 Q 140 135 164 171 L 202 230 L 232 230 Q 246 230 255 239 Q 264 248 264 262 Q 264 276 255 285 Q 246 294 232 294 L 184 294 Q 167 294 157 279 L 144 259 L 144 486 Q 144 500 135 509 Q 126 518 112 518 Q 98 518 89 509 Q 80 500 80 486 L 80 358 L 64 358 L 64 486 Q 64 500 55 509 Q 46 518 32 518 Q 18 518 9 509 Q 0 500 0 486 L 0 295 L 0 294 L 0 198 L 0 198 Z"/>
</svg>
