<svg xmlns="http://www.w3.org/2000/svg" viewBox="0 0 512 305">
    <path d="M 512 80 Q 509 114 437 137 L 437 137 Q 365 159 256 160 Q 147 159 75 137 Q 3 114 0 80 Q 3 46 75 23 Q 147 1 256 0 Q 365 1 437 23 Q 509 46 512 80 L 512 80 Z M 448 80 Q 446 66 392 57 L 392 57 Q 338 48 256 48 Q 174 48 120 57 Q 66 66 64 80 Q 66 94 120 103 Q 174 112 256 112 Q 338 112 392 103 Q 446 94 448 80 L 448 80 Z M 218 301 L 218 301 L 218 301 L 217 301 Q 217 300 217 300 Q 217 300 217 300 Q 216 298 214 296 Q 210 292 204 286 Q 190 273 176 272 Q 162 273 148 286 Q 142 292 138 296 Q 136 298 135 300 Q 135 300 135 300 Q 135 300 135 301 L 134 301 L 134 301 L 134 301 L 134 301 Q 131 305 126 304 Q 120 302 120 296 Q 121 268 137 247 Q 152 226 176 224 Q 200 226 215 247 Q 231 268 232 296 Q 232 302 227 304 Q 221 305 218 301 L 218 301 L 218 301 L 218 301 Z M 378 301 L 378 301 L 378 301 L 377 301 Q 377 300 377 300 Q 377 300 377 300 Q 376 298 374 296 Q 370 292 364 286 Q 350 273 336 272 Q 322 273 308 286 Q 302 292 298 296 Q 296 298 295 300 Q 295 300 295 300 Q 295 300 295 301 L 294 301 L 294 301 L 294 301 L 294 301 Q 291 305 285 304 Q 280 302 280 296 Q 281 268 297 247 Q 312 226 336 224 Q 360 226 375 247 Q 391 268 392 296 Q 392 302 386 304 Q 381 305 378 301 L 378 301 L 378 301 L 378 301 Z"/>
</svg>
