<svg xmlns="http://www.w3.org/2000/svg" viewBox="0 0 448 448">
    <path d="M 64 0 Q 37 1 19 19 L 19 19 Q 1 37 0 64 L 0 384 Q 1 411 19 429 Q 37 447 64 448 L 338 448 Q 290 394 288 318 Q 288 315 288 312 Q 288 312 288 312 Q 288 312 288 312 Q 288 312 288 312 Q 266 310 264 288 Q 266 266 288 264 Q 293 264 298 266 Q 308 237 325 211 Q 331 201 337 192 L 96 192 Q 82 192 73 183 Q 64 174 64 160 L 64 96 Q 64 82 73 73 Q 82 64 96 64 L 352 64 Q 366 64 375 73 Q 384 82 384 96 L 384 135 Q 398 121 413 108 Q 428 95 448 96 L 448 64 Q 447 37 429 19 Q 411 1 384 0 L 64 0 L 64 0 Z M 96 264 Q 118 266 120 288 Q 118 310 96 312 Q 74 310 72 288 Q 74 266 96 264 L 96 264 Z M 168 288 Q 170 266 192 264 Q 214 266 216 288 Q 214 310 192 312 Q 170 310 168 288 L 168 288 Z"/>
</svg>
