<svg xmlns="http://www.w3.org/2000/svg" viewBox="0 0 352 202">
    <path d="M 111 22 L 110 28 Q 101 56 80 74 Q 59 93 29 97 L 18 98 Q 3 98 0 84 Q 0 69 14 66 L 26 65 Q 66 58 79 19 L 81 14 Q 86 0 100 3 Q 114 8 111 22 L 111 22 Z M 241 22 Q 238 8 252 3 Q 266 0 271 14 L 273 19 Q 286 58 326 65 L 338 66 Q 352 69 352 84 Q 349 98 334 98 L 322 97 Q 293 93 272 74 Q 250 56 242 28 L 241 22 L 241 22 Z M 48 138 Q 62 138 71 129 L 71 129 Q 80 120 80 106 Q 80 97 76 90 Q 78 90 80 90 Q 104 91 120 106 Q 135 122 136 146 Q 135 170 120 186 Q 104 201 80 202 Q 56 201 40 186 Q 25 170 24 146 Q 24 137 26 130 Q 35 138 48 138 L 48 138 Z M 272 106 Q 272 97 268 90 Q 270 90 272 90 Q 296 91 312 106 Q 327 122 328 146 Q 327 170 312 186 Q 296 201 272 202 Q 248 201 232 186 Q 217 170 216 146 Q 216 137 218 130 Q 227 138 240 138 Q 254 138 263 129 Q 272 120 272 106 L 272 106 Z"/>
</svg>
