<svg xmlns="http://www.w3.org/2000/svg" viewBox="0 0 301 391">
    <path d="M 247 96 Q 274 95 288 72 Q 301 48 288 24 Q 274 1 247 0 Q 219 1 205 24 Q 192 48 205 72 Q 219 95 247 96 L 247 96 Z M 211 118 Q 201 91 177 80 L 177 80 Q 153 69 127 79 L 43 112 Q 42 113 41 113 Q 41 113 40 114 L 161 171 L 162 174 L 170 196 Q 174 208 183 216 L 183 216 Q 188 220 194 223 L 252 252 Q 264 258 276 254 Q 288 250 295 238 Q 300 226 296 214 Q 292 202 280 195 L 228 169 L 211 118 L 211 118 Z M 22 217 L 97 292 L 51 361 L 108 391 L 157 317 Q 167 302 165 285 Q 163 269 151 256 L 112 217 L 3 165 Q 0 194 22 217 L 22 217 Z"/>
</svg>
