<svg xmlns="http://www.w3.org/2000/svg" viewBox="0 0 512 287">
    <path d="M 162 256 Q 163 262 159 265 L 159 265 Q 155 268 150 265 L 74 222 Q 69 218 65 213 L 3 105 Q 0 100 0 93 L 0 9 Q 0 3 5 2 Q 9 0 14 3 L 110 99 Q 114 103 116 109 L 162 256 L 162 256 Z M 498 3 Q 502 0 507 2 L 507 2 Q 512 3 512 9 L 512 93 Q 512 100 509 105 L 447 213 Q 443 218 438 222 L 362 265 Q 357 268 353 265 Q 349 261 350 256 L 396 109 Q 398 103 402 99 L 498 3 L 498 3 Z M 311 276 Q 307 286 295 287 L 217 287 Q 205 286 201 276 L 151 116 Q 148 104 160 97 L 249 52 Q 256 49 263 52 L 352 97 Q 364 104 361 116 L 311 276 L 311 276 Z"/>
</svg>
