<svg xmlns="http://www.w3.org/2000/svg" viewBox="0 0 256 224">
    <path d="M 32 32 Q 32 18 41 9 L 41 9 Q 50 0 64 0 Q 78 0 87 9 Q 96 18 96 32 Q 96 46 87 55 Q 78 64 64 64 Q 50 64 41 55 Q 32 46 32 32 L 32 32 Z M 0 192 Q 0 178 9 169 L 9 169 Q 18 160 32 160 Q 46 160 55 169 Q 64 178 64 192 Q 64 206 55 215 Q 46 224 32 224 Q 18 224 9 215 Q 0 206 0 192 L 0 192 Z M 224 128 Q 238 128 247 137 L 247 137 Q 256 146 256 160 Q 256 174 247 183 Q 238 192 224 192 Q 210 192 201 183 Q 192 174 192 160 Q 192 146 201 137 Q 210 128 224 128 L 224 128 Z"/>
</svg>
