<svg xmlns="http://www.w3.org/2000/svg" viewBox="0 0 608 384">
    <path d="M 256 192 Q 255 156 224 137 Q 192 119 160 137 Q 129 156 128 192 Q 129 228 160 247 Q 192 265 224 247 Q 255 228 256 192 L 256 192 Z M 349 303 Q 322 340 282 362 L 282 362 Q 241 384 192 384 Q 110 382 56 328 Q 2 274 0 192 Q 2 110 56 56 Q 110 2 192 0 Q 270 2 324 52 Q 325 53 327 54 L 389 103 Q 397 109 395 120 L 389 141 Q 385 160 400 172 Q 416 183 433 174 L 451 163 Q 460 158 469 164 L 597 264 Q 608 272 608 285 Q 608 296 601 304 L 538 374 Q 528 384 514 384 L 512 384 Q 504 384 497 380 L 349 303 L 349 303 Z"/>
</svg>
