<svg xmlns="http://www.w3.org/2000/svg" viewBox="0 0 376 454">
    <path d="M 280 54 Q 281 27 304 12 Q 328 0 352 12 Q 375 27 376 54 Q 375 81 352 96 Q 328 108 304 96 Q 281 81 280 54 L 280 54 Z M 56 134 Q 56 120 65 111 L 65 111 Q 74 102 88 102 L 247 102 Q 281 104 292 132 Q 303 160 280 185 L 206 255 L 266 315 Q 280 329 280 349 L 280 422 Q 280 436 271 445 Q 262 454 248 454 Q 234 454 225 445 Q 216 436 216 422 L 216 355 L 138 278 Q 118 256 120 229 Q 121 202 143 183 L 163 166 L 88 166 Q 74 166 65 157 Q 56 148 56 134 L 56 134 Z M 9 359 L 96 273 Q 103 288 116 300 L 137 322 L 55 405 Q 45 414 32 414 Q 19 414 9 405 Q 0 395 0 382 Q 0 369 9 359 L 9 359 Z"/>
</svg>
