<svg xmlns="http://www.w3.org/2000/svg" viewBox="0 0 512 512">
    <path d="M 224 80 Q 224 94 233 103 L 233 103 Q 242 112 256 112 Q 270 112 279 103 Q 288 94 288 80 L 288 32 Q 288 18 279 9 Q 270 0 256 0 Q 242 0 233 9 Q 224 18 224 32 L 224 80 L 224 80 Z M 32 224 Q 18 224 9 233 L 9 233 Q 0 242 0 256 Q 0 270 9 279 Q 18 288 32 288 L 80 288 Q 94 288 103 279 Q 112 270 112 256 Q 112 242 103 233 Q 94 224 80 224 L 32 224 L 32 224 Z M 432 224 Q 418 224 409 233 L 409 233 Q 400 242 400 256 Q 400 270 409 279 Q 418 288 432 288 L 480 288 Q 494 288 503 279 Q 512 270 512 256 Q 512 242 503 233 Q 494 224 480 224 L 432 224 L 432 224 Z M 256 512 Q 270 512 279 503 L 279 503 Q 288 494 288 480 L 288 432 Q 288 418 279 409 Q 270 400 256 400 Q 242 400 233 409 Q 224 418 224 432 L 224 480 Q 224 494 233 503 Q 242 512 256 512 L 256 512 Z M 73 439 Q 83 448 96 448 L 96 448 Q 109 448 119 439 L 151 407 Q 160 397 160 384 Q 160 371 151 361 Q 141 352 128 352 Q 115 352 105 361 L 73 393 Q 64 403 64 416 Q 64 429 73 439 L 73 439 Z M 361 105 Q 352 115 352 128 L 352 128 Q 352 141 361 151 Q 371 160 384 160 Q 397 160 407 151 L 439 119 Q 448 109 448 96 Q 448 83 439 73 Q 429 64 416 64 Q 403 64 393 73 L 361 105 L 361 105 Z M 439 439 Q 448 429 448 416 L 448 416 Q 448 403 439 393 L 407 361 Q 397 352 384 352 Q 371 352 361 361 Q 352 371 352 384 Q 352 397 361 407 L 393 439 Q 403 448 416 448 Q 429 448 439 439 L 439 439 Z M 105 151 Q 115 160 128 160 L 128 160 Q 141 160 151 151 Q 160 141 160 128 Q 160 115 151 105 L 119 73 Q 109 64 96 64 Q 83 64 73 73 Q 64 83 64 96 Q 64 109 73 119 L 105 151 L 105 151 Z"/>
</svg>
