<svg xmlns="http://www.w3.org/2000/svg" viewBox="0 0 384 512">
    <path d="M 64 512 Q 78 512 87 503 L 87 503 Q 96 494 96 480 L 96 272 L 32 272 L 32 480 Q 32 494 41 503 Q 50 512 64 512 L 64 512 Z M 224 200 L 224 201 Q 238 192 256 192 Q 276 192 292 203 Q 298 184 315 172 Q 331 160 352 160 Q 370 160 384 169 L 384 160 Q 382 92 337 47 Q 292 2 224 0 L 162 0 Q 96 1 49 47 L 38 59 Q 1 96 0 149 L 0 176 Q 1 203 19 221 Q 37 239 64 240 L 152 240 Q 169 240 180 228 Q 192 217 192 200 Q 192 183 180 172 Q 169 160 152 160 L 96 160 Q 81 159 80 144 Q 81 129 96 128 L 152 128 Q 183 129 203 149 Q 223 169 224 200 L 224 200 Z"/>
</svg>
