<svg xmlns="http://www.w3.org/2000/svg" viewBox="0 0 352 512">
    <path d="M 224 160 L 64 0 L 64 128 Q 64 142 73 151 Q 82 160 96 160 L 224 160 L 224 160 Z M 16 352 Q 1 353 0 368 L 0 496 Q 1 511 16 512 L 48 512 Q 68 511 82 498 Q 95 484 96 464 L 96 400 Q 95 380 82 366 Q 68 353 48 352 L 16 352 L 16 352 Z M 32 480 L 32 384 L 48 384 Q 63 385 64 400 L 64 464 Q 63 479 48 480 L 32 480 L 32 480 Z M 296 352 Q 279 352 268 364 L 268 364 Q 256 375 256 392 L 256 472 Q 256 489 268 500 Q 279 512 296 512 L 312 512 Q 329 512 340 500 Q 352 489 352 472 L 352 464 Q 351 449 336 448 Q 321 449 320 464 L 320 472 Q 319 479 312 480 L 296 480 Q 289 479 288 472 L 288 392 Q 289 385 296 384 L 312 384 Q 319 385 320 392 L 320 400 Q 321 415 336 416 Q 351 415 352 400 L 352 392 Q 352 375 340 364 Q 329 352 312 352 L 296 352 L 296 352 Z M 128 392 L 128 472 Q 128 489 140 500 Q 151 512 168 512 L 184 512 Q 201 512 212 500 Q 224 489 224 472 L 224 392 Q 224 375 212 364 Q 201 352 184 352 L 168 352 Q 151 352 140 364 Q 128 375 128 392 L 128 392 Z M 168 384 L 184 384 Q 191 385 192 392 L 192 472 Q 191 479 184 480 L 168 480 Q 161 479 160 472 L 160 392 Q 161 385 168 384 L 168 384 Z"/>
</svg>
