<svg xmlns="http://www.w3.org/2000/svg" viewBox="0 0 512 384">
    <path d="M 160 32 Q 160 18 169 9 L 169 9 Q 178 0 192 0 Q 206 0 215 9 Q 224 18 224 32 Q 224 46 215 55 Q 206 64 192 64 Q 178 64 169 55 Q 160 46 160 32 L 160 32 Z M 512 320 Q 511 347 493 365 L 493 365 Q 475 383 448 384 L 64 384 Q 37 383 19 365 Q 1 347 0 320 L 0 128 L 512 128 L 512 320 L 512 320 Z M 288 0 Q 302 0 311 9 L 311 9 Q 320 18 320 32 Q 320 46 311 55 Q 302 64 288 64 Q 274 64 265 55 Q 256 46 256 32 Q 256 18 265 9 Q 274 0 288 0 L 288 0 Z"/>
</svg>
