<svg xmlns="http://www.w3.org/2000/svg" viewBox="0 0 240 320">
    <path d="M 8 320 L 32 168 L 7 137 Q 0 128 0 117 L 0 16 Q 1 1 16 0 L 40 0 Q 55 1 56 16 L 56 40 Q 57 47 64 48 L 80 48 Q 87 47 88 40 L 88 16 Q 89 1 104 0 L 136 0 Q 151 1 152 16 L 152 40 Q 153 47 160 48 L 176 48 Q 183 47 184 40 L 184 16 Q 185 1 200 0 L 224 0 Q 239 1 240 16 L 240 117 Q 240 128 233 137 L 208 168 L 232 320 L 8 320 L 8 320 Z M 96 185 Q 97 191 103 192 L 137 192 Q 143 191 144 185 L 144 152 Q 142 130 120 128 Q 98 130 96 152 L 96 185 L 96 185 Z"/>
</svg>
