<svg xmlns="http://www.w3.org/2000/svg" viewBox="0 0 514 514">
    <path d="M 176 3 Q 189 0 200 6 L 200 6 Q 211 13 215 26 L 272 239 Q 278 257 297 258 Q 318 257 323 237 L 361 59 Q 364 46 375 39 Q 385 32 399 35 Q 412 38 419 49 Q 426 59 423 73 L 387 243 Q 386 256 400 258 Q 408 258 412 249 L 449 121 Q 454 108 465 102 Q 476 96 489 99 Q 502 104 508 115 Q 514 126 511 139 L 430 414 Q 416 457 382 484 Q 349 510 304 514 Q 304 514 304 514 Q 304 514 304 514 Q 304 514 304 514 L 296 514 L 285 514 Q 192 513 125 450 L 12 343 Q 0 331 0 315 Q 0 299 11 286 Q 23 274 39 274 Q 55 274 68 285 L 123 338 Q 128 342 133 339 Q 138 336 136 330 L 73 123 Q 70 110 76 99 Q 82 88 95 83 Q 108 80 119 86 Q 130 92 135 105 L 178 248 Q 182 258 192 258 Q 208 256 206 240 L 153 42 Q 150 29 156 18 Q 163 7 176 3 L 176 3 Z M 192 338 Q 193 353 208 354 L 216 354 Q 247 355 267 375 Q 287 395 288 426 L 288 434 Q 289 449 304 450 Q 319 449 320 434 L 320 426 Q 319 383 291 354 L 368 354 Q 383 353 384 338 Q 383 323 368 322 L 216 322 L 208 322 Q 193 323 192 338 L 192 338 Z"/>
</svg>
