<svg xmlns="http://www.w3.org/2000/svg" viewBox="0 0 224 448">
    <path d="M 33 66 Q 39 37 60 19 L 60 19 Q 82 1 112 0 Q 142 1 164 19 Q 185 37 191 66 Q 222 78 224 112 L 224 136 Q 222 158 200 160 L 112 160 L 24 160 Q 2 158 0 136 L 0 112 Q 2 78 33 66 L 33 66 Z M 136 80 Q 134 58 112 56 Q 90 58 88 80 Q 90 102 112 104 Q 134 102 136 80 L 136 80 Z M 48 256 Q 49 220 80 201 Q 112 183 144 201 Q 175 220 176 256 Q 175 292 144 311 Q 112 329 80 311 Q 49 292 48 256 L 48 256 Z M 0 432 Q 1 398 23 375 L 23 375 Q 46 353 80 352 L 144 352 Q 178 353 201 375 Q 223 398 224 432 Q 223 447 208 448 L 16 448 Q 1 447 0 432 L 0 432 Z"/>
</svg>
