<svg xmlns="http://www.w3.org/2000/svg" viewBox="0 0 448 512">
    <path d="M 96 0 Q 55 1 28 28 L 28 28 Q 1 55 0 96 L 0 416 Q 1 457 28 484 Q 55 511 96 512 L 384 512 L 416 512 Q 430 512 439 503 Q 448 494 448 480 Q 448 466 439 457 Q 430 448 416 448 L 352 448 L 256 448 L 96 448 Q 82 448 73 439 Q 64 430 64 416 Q 64 402 73 393 Q 82 384 96 384 L 256 384 L 352 384 L 416 384 Q 430 384 439 375 Q 448 366 448 352 L 448 32 Q 448 18 439 9 Q 430 0 416 0 L 384 0 L 96 0 L 96 0 Z M 247 284 Q 253 278 259 265 Q 269 243 271 208 L 208 208 Q 211 243 221 265 Q 227 278 232 284 Q 238 289 240 288 Q 242 289 247 284 L 247 284 Z M 290 274 Q 326 251 335 208 L 304 208 Q 301 246 290 274 L 290 274 Z M 290 110 Q 301 138 304 176 L 335 176 Q 326 133 290 110 L 290 110 Z M 112 192 Q 112 157 129 128 L 129 128 Q 146 99 176 81 Q 206 64 240 64 Q 274 64 304 81 Q 334 99 351 128 Q 368 157 368 192 Q 368 227 351 256 Q 334 285 304 303 Q 274 320 240 320 Q 206 320 176 303 Q 146 285 129 256 Q 112 227 112 192 L 112 192 Z M 145 208 Q 154 251 190 274 Q 179 246 176 208 L 145 208 L 145 208 Z M 176 176 Q 179 138 190 110 Q 154 133 145 176 L 176 176 L 176 176 Z M 233 100 Q 227 106 221 119 Q 211 141 209 176 L 272 176 Q 269 141 259 119 Q 253 106 247 100 Q 242 95 240 96 Q 238 95 233 100 L 233 100 Z"/>
</svg>
