<svg xmlns="http://www.w3.org/2000/svg" viewBox="0 0 448 512">
    <path d="M 96 0 Q 55 1 28 28 L 28 28 Q 1 55 0 96 L 0 416 Q 1 457 28 484 Q 55 511 96 512 L 384 512 L 416 512 Q 430 512 439 503 Q 448 494 448 480 Q 448 466 439 457 Q 430 448 416 448 L 352 448 L 256 448 L 96 448 Q 82 448 73 439 Q 64 430 64 416 Q 64 402 73 393 Q 82 384 96 384 L 256 384 L 352 384 L 416 384 Q 430 384 439 375 Q 448 366 448 352 L 448 32 Q 448 18 439 9 Q 430 0 416 0 L 384 0 L 96 0 L 96 0 Z M 208 112 Q 209 97 224 96 L 256 96 Q 271 97 272 112 L 272 160 L 320 160 Q 335 161 336 176 L 336 208 Q 335 223 320 224 L 272 224 L 272 272 Q 271 287 256 288 L 224 288 Q 209 287 208 272 L 208 224 L 160 224 Q 145 223 144 208 L 144 176 Q 145 161 160 160 L 208 160 L 208 112 L 208 112 Z"/>
</svg>
