<svg xmlns="http://www.w3.org/2000/svg" viewBox="0 0 416 416">
    <path d="M 9 9 Q 0 19 0 32 L 0 32 Q 0 45 9 55 L 121 167 Q 136 136 167 121 L 55 9 Q 45 0 32 0 Q 19 0 9 9 L 9 9 Z M 121 249 L 9 361 Q 0 371 0 384 Q 0 397 9 407 Q 19 416 32 416 Q 45 416 55 407 L 167 295 Q 136 280 121 249 L 121 249 Z M 249 295 L 361 407 Q 371 416 384 416 Q 397 416 407 407 Q 416 397 416 384 Q 416 371 407 361 L 295 249 Q 280 280 249 295 L 249 295 Z M 295 167 L 407 55 Q 416 45 416 32 Q 416 19 407 9 Q 397 0 384 0 Q 371 0 361 9 L 249 121 Q 280 136 295 167 L 295 167 Z"/>
</svg>
