<svg xmlns="http://www.w3.org/2000/svg" viewBox="0 0 373 389">
    <path d="M 233 327 Q 239 307 251 282 L 251 282 Q 262 256 281 237 Q 296 222 309 217 Q 309 217 309 217 Q 310 217 310 217 Q 328 211 342 199 L 363 177 Q 373 165 363 153 Q 352 144 337 150 Q 326 156 309 153 Q 291 151 269 129 L 257 117 Q 234 93 236 71 Q 238 49 247 35 Q 255 22 245 10 Q 234 0 222 10 L 192 40 Q 179 55 172 73 Q 172 73 172 74 Q 171 75 170 76 Q 169 79 168 81 Q 163 92 151 105 Q 132 124 106 136 Q 81 147 61 153 Q 39 159 23 175 Q 0 199 0 230 Q 0 261 23 285 L 103 366 Q 126 389 157 389 Q 188 389 211 366 Q 227 349 234 327 L 233 327 Z M 195 146 L 243 194 Q 253 205 243 216 Q 232 226 221 216 L 173 168 Q 163 157 173 146 Q 184 136 195 146 L 195 146 Z M 131 210 L 179 258 Q 189 269 179 280 Q 168 290 157 280 L 109 232 Q 99 221 109 210 Q 120 200 131 210 L 131 210 Z"/>
</svg>
