<svg xmlns="http://www.w3.org/2000/svg" viewBox="0 0 640 512">
    <path d="M 352 32 Q 352 18 343 9 L 343 9 Q 334 0 320 0 Q 306 0 297 9 Q 288 18 288 32 L 288 156 Q 301 144 320 144 Q 339 144 352 156 L 352 32 L 352 32 Z M 384 190 Q 398 180 415 182 L 415 182 Q 432 183 445 196 Q 459 210 459 230 Q 459 249 445 264 Q 442 266 443 269 Q 445 272 448 272 Q 468 273 482 286 Q 495 300 496 320 Q 495 340 482 354 Q 468 368 448 368 Q 445 368 443 371 Q 442 374 445 377 Q 459 391 459 411 Q 459 430 445 445 Q 427 461 405 458 Q 425 483 457 491 L 530 510 Q 540 512 551 512 Q 589 511 614 486 Q 639 461 640 423 L 640 416 Q 640 414 640 412 Q 634 368 617 324 Q 601 281 580 242 Q 560 203 541 172 Q 521 142 509 125 Q 488 97 454 96 Q 424 97 404 116 Q 385 136 384 165 L 384 189 L 384 190 Z M 235 458 Q 213 461 196 444 Q 182 430 182 410 Q 182 391 196 377 Q 198 374 197 371 Q 195 368 192 368 Q 172 367 158 354 Q 145 340 144 320 Q 145 300 158 286 Q 172 272 192 272 Q 195 272 197 269 Q 198 266 196 263 Q 182 249 182 229 Q 182 210 196 195 Q 208 183 225 182 Q 242 180 256 189 L 256 165 Q 255 136 236 116 Q 216 97 187 96 Q 152 96 131 125 Q 119 142 100 172 Q 80 203 60 242 Q 39 280 23 324 Q 6 368 0 412 Q 0 414 0 416 Q 0 416 0 416 L 0 423 Q 1 461 26 486 Q 51 511 89 512 Q 100 512 111 509 L 183 491 Q 215 483 235 458 L 235 458 Z"/>
</svg>
