<svg xmlns="http://www.w3.org/2000/svg" viewBox="0 0 480 352">
    <path d="M 0 64 Q 1 37 19 19 L 19 19 Q 37 1 64 0 L 416 0 Q 443 1 461 19 Q 479 37 480 64 L 480 288 Q 479 315 461 333 Q 443 351 416 352 L 64 352 Q 37 351 19 333 Q 1 315 0 288 L 0 64 L 0 64 Z M 56 64 L 56 80 Q 57 95 72 96 L 88 96 Q 103 95 104 80 L 104 64 Q 103 49 88 48 L 72 48 Q 57 49 56 64 L 56 64 Z M 392 48 Q 377 49 376 64 L 376 80 Q 377 95 392 96 L 408 96 Q 423 95 424 80 L 424 64 Q 423 49 408 48 L 392 48 L 392 48 Z M 56 168 L 56 184 Q 57 199 72 200 L 88 200 Q 103 199 104 184 L 104 168 Q 103 153 88 152 L 72 152 Q 57 153 56 168 L 56 168 Z M 392 152 Q 377 153 376 168 L 376 184 Q 377 199 392 200 L 408 200 Q 423 199 424 184 L 424 168 Q 423 153 408 152 L 392 152 L 392 152 Z M 56 272 L 56 288 Q 57 303 72 304 L 88 304 Q 103 303 104 288 L 104 272 Q 103 257 88 256 L 72 256 Q 57 257 56 272 L 56 272 Z M 392 256 Q 377 257 376 272 L 376 288 Q 377 303 392 304 L 408 304 Q 423 303 424 288 L 424 272 Q 423 257 408 256 L 392 256 L 392 256 Z M 160 80 L 160 128 Q 160 142 169 151 Q 178 160 192 160 L 288 160 Q 302 160 311 151 Q 320 142 320 128 L 320 80 Q 320 66 311 57 Q 302 48 288 48 L 192 48 Q 178 48 169 57 Q 160 66 160 80 L 160 80 Z M 192 192 Q 178 192 169 201 L 169 201 Q 160 210 160 224 L 160 272 Q 160 286 169 295 Q 178 304 192 304 L 288 304 Q 302 304 311 295 Q 320 286 320 272 L 320 224 Q 320 210 311 201 Q 302 192 288 192 L 192 192 L 192 192 Z"/>
</svg>
