<svg xmlns="http://www.w3.org/2000/svg" viewBox="0 0 521 517">
    <path d="M 278 241 Q 237 199 227 148 L 227 148 Q 217 97 241 57 Q 253 86 272 110 Q 293 134 316 146 Q 340 158 362 165 Q 362 166 363 166 L 364 166 Q 386 174 406 183 Q 425 193 442 212 Q 458 234 471 264 Q 473 268 474 271 Q 434 302 379 294 Q 325 286 278 241 L 278 241 Z M 459 60 Q 501 103 511 154 L 511 154 Q 521 204 497 245 Q 485 216 466 192 Q 445 168 422 156 Q 398 144 376 136 Q 376 136 375 136 L 374 136 Q 352 128 332 118 Q 313 108 296 90 Q 279 68 267 37 Q 265 34 264 31 Q 304 0 359 8 Q 413 16 459 60 L 459 60 Z M 0 358 Q 1 298 30 256 L 30 256 Q 58 213 104 201 Q 92 230 88 261 Q 86 292 94 318 Q 102 343 113 364 Q 113 364 113 364 L 113 365 Q 124 386 131 407 Q 138 428 136 453 Q 132 480 120 510 Q 119 513 118 515 Q 117 516 117 517 Q 67 511 34 467 Q 1 422 0 358 L 0 358 Z M 256 358 Q 255 418 226 460 L 226 460 Q 198 503 153 515 Q 164 486 168 455 Q 170 423 162 398 Q 154 373 143 352 Q 143 352 143 352 L 143 351 Q 132 330 125 309 Q 118 288 120 263 Q 124 236 136 206 Q 137 203 138 201 Q 139 200 139 199 Q 189 205 222 249 Q 255 294 256 358 L 256 358 Z"/>
</svg>
