<svg xmlns="http://www.w3.org/2000/svg" viewBox="0 0 256 450">
    <path d="M 32 0 Q 18 0 9 9 L 9 9 Q 0 18 0 32 L 0 256 L 0 416 Q 0 430 9 439 Q 18 448 32 448 Q 46 448 55 439 Q 64 430 64 416 L 64 288 L 106 288 L 162 428 Q 168 440 179 445 Q 191 450 204 446 Q 216 440 221 429 Q 226 417 222 404 L 170 276 Q 209 258 232 224 Q 255 189 256 144 Q 254 83 214 42 Q 173 2 112 0 L 32 0 L 32 0 Z M 112 224 L 64 224 L 64 64 L 112 64 Q 146 65 169 87 Q 191 110 192 144 Q 191 178 169 201 Q 146 223 112 224 L 112 224 Z"/>
</svg>
