<svg xmlns="http://www.w3.org/2000/svg" viewBox="0 0 352 512">
    <path d="M 160 160 L 0 0 L 0 128 Q 0 142 9 151 Q 18 160 32 160 L 160 160 L 160 160 Z M 208 512 Q 247 512 280 493 L 280 493 Q 313 474 333 440 Q 352 406 352 368 Q 352 330 333 296 Q 313 262 280 243 Q 247 224 208 224 Q 169 224 136 243 Q 103 262 83 296 Q 64 330 64 368 Q 64 406 83 440 Q 103 474 136 493 Q 169 512 208 512 L 208 512 Z M 208 272 Q 230 274 232 296 Q 230 318 208 320 Q 186 318 184 296 Q 186 274 208 272 L 208 272 Z M 176 368 Q 177 353 192 352 L 208 352 Q 223 353 224 368 L 224 432 Q 239 433 240 448 Q 239 463 224 464 L 208 464 L 192 464 Q 177 463 176 448 Q 177 433 192 432 L 192 432 L 192 384 L 192 384 Q 177 383 176 368 L 176 368 Z"/>
</svg>
