<svg xmlns="http://www.w3.org/2000/svg" viewBox="0 0 352 512">
    <path d="M 160 160 L 32 160 Q 18 160 9 151 Q 0 142 0 128 L 0 0 L 160 160 L 160 160 Z M 64 368 Q 64 329 83 296 L 83 296 Q 102 263 136 243 Q 170 224 208 224 Q 246 224 280 243 Q 314 263 333 296 Q 352 329 352 368 Q 352 407 333 440 Q 314 473 280 493 Q 246 512 208 512 Q 170 512 136 493 Q 102 473 83 440 Q 64 407 64 368 L 64 368 Z M 275 325 Q 264 315 253 325 L 192 385 L 163 357 Q 152 347 141 357 Q 131 368 141 379 L 181 419 Q 192 429 203 419 L 275 347 Q 285 336 275 325 L 275 325 Z"/>
</svg>
