<svg xmlns="http://www.w3.org/2000/svg" viewBox="0 0 448 384">
    <path d="M 172 384 Q 137 384 97 377 L 97 377 Q 57 370 29 353 L 29 353 Q 1 336 0 306 Q 0 284 14 273 Q 28 263 52 254 Q 75 244 106 227 Q 137 209 172 175 Q 193 153 205 129 Q 218 104 227 81 Q 227 81 227 81 Q 239 47 256 24 Q 273 1 310 0 Q 345 1 377 26 Q 408 51 428 91 Q 447 130 448 175 Q 447 228 406 275 Q 366 323 304 353 Q 241 383 172 384 L 172 384 Z M 320 192 Q 334 192 343 183 L 343 183 Q 352 174 352 160 Q 352 146 343 137 Q 334 128 320 128 Q 306 128 297 137 Q 288 146 288 160 Q 288 174 297 183 Q 306 192 320 192 L 320 192 Z"/>
</svg>
