<svg xmlns="http://www.w3.org/2000/svg" viewBox="0 0 256 457">
    <path d="M 192 73 Q 191 37 160 18 Q 128 0 96 18 Q 65 37 64 73 Q 65 109 96 128 Q 128 146 160 128 Q 191 109 192 73 L 192 73 Z M 64 239 L 64 323 Q 49 306 48 281 Q 49 256 64 239 L 64 239 Z M 192 323 L 192 239 Q 208 256 208 281 Q 208 306 192 323 L 192 323 Z M 192 382 Q 221 368 238 342 L 238 342 Q 256 315 256 281 Q 255 233 223 202 Q 192 170 144 169 L 112 169 Q 64 170 33 202 Q 1 233 0 281 Q 0 315 18 342 Q 35 368 64 382 L 64 425 Q 64 439 73 448 Q 82 457 96 457 L 160 457 Q 174 457 183 448 Q 192 439 192 425 L 192 382 L 192 382 Z"/>
</svg>
