<svg xmlns="http://www.w3.org/2000/svg" viewBox="0 0 448 512">
    <path d="M 176 112 L 128 112 L 128 112 L 128 144 Q 129 185 156 212 Q 183 239 224 240 Q 265 239 292 212 Q 319 185 320 144 L 320 128 L 320 128 L 320 96 L 312 96 Q 276 95 258 66 Q 245 87 224 99 Q 202 112 176 112 L 176 112 Z M 224 272 L 71 272 Q 50 270 48 249 Q 48 240 55 233 L 59 230 Q 95 192 96 139 L 96 128 L 96 128 Q 97 74 133 37 Q 170 1 224 0 Q 278 1 314 37 Q 350 73 352 128 L 352 128 L 352 129 L 352 139 Q 353 192 390 230 L 393 233 Q 400 240 400 249 Q 398 270 377 272 L 224 272 L 224 272 Z M 288 304 L 288 362 Q 267 368 254 384 Q 240 401 240 424 L 240 464 Q 241 479 256 480 L 272 480 Q 287 479 288 464 Q 287 449 272 448 L 272 424 Q 272 410 281 401 Q 290 392 304 392 Q 318 392 327 401 Q 336 410 336 424 L 336 448 Q 321 449 320 464 Q 321 479 336 480 L 352 480 Q 367 479 368 464 L 368 424 Q 368 401 354 384 Q 341 368 320 362 L 320 309 Q 376 323 412 367 Q 447 412 448 472 L 448 480 Q 448 494 439 503 Q 430 512 416 512 L 32 512 Q 18 512 9 503 Q 0 494 0 480 L 0 472 Q 1 412 36 367 Q 72 323 128 309 L 128 370 Q 110 376 99 390 Q 88 405 88 424 Q 89 448 104 464 Q 120 479 144 480 Q 168 479 184 464 Q 199 448 200 424 Q 200 405 189 390 Q 178 376 160 370 L 160 304 Q 160 304 160 304 Q 164 304 168 304 L 280 304 Q 284 304 288 304 Q 288 304 288 304 L 288 304 Z M 120 424 Q 122 402 144 400 Q 166 402 168 424 Q 166 446 144 448 Q 122 446 120 424 L 120 424 Z"/>
</svg>
