<svg xmlns="http://www.w3.org/2000/svg" viewBox="0 0 352 352">
    <path d="M 0 176 Q 0 128 24 88 L 24 88 Q 47 48 88 24 Q 130 0 176 0 Q 222 0 264 24 Q 305 48 328 88 Q 352 128 352 176 Q 352 224 328 264 Q 305 304 264 328 Q 222 352 176 352 Q 130 352 88 328 Q 47 304 24 264 Q 0 224 0 176 L 0 176 Z M 216 224 Q 216 208 205 197 L 239 118 Q 243 104 230 97 Q 216 93 209 106 L 176 184 Q 159 185 148 196 Q 136 207 136 224 Q 136 241 148 252 Q 159 264 176 264 Q 193 264 204 252 Q 216 241 216 224 L 216 224 Z"/>
</svg>
