<svg xmlns="http://www.w3.org/2000/svg" viewBox="0 0 352 352">
    <path d="M 176 352 Q 224 352 264 328 L 264 328 Q 304 305 328 264 Q 352 222 352 176 Q 352 130 328 88 Q 304 47 264 24 Q 224 0 176 0 Q 128 0 88 24 Q 48 47 24 88 Q 0 130 0 176 Q 0 222 24 264 Q 48 305 88 328 Q 128 352 176 352 L 176 352 Z M 207 127 Q 209 131 214 132 L 264 139 Q 276 144 269 155 L 233 190 Q 229 194 230 199 L 239 248 Q 239 254 235 258 Q 231 261 225 258 L 180 235 Q 176 233 172 235 L 127 258 Q 114 262 113 248 L 122 199 Q 122 194 119 190 L 83 155 Q 75 144 88 139 L 138 132 Q 143 131 145 127 L 168 81 Q 176 71 184 81 L 207 127 L 207 127 Z"/>
</svg>
