<svg xmlns="http://www.w3.org/2000/svg" viewBox="0 0 448 192">
    <path d="M 65 57 L 0 0 L 73 0 L 123 44 L 205 26 Q 192 59 192 96 Q 192 133 205 166 L 123 148 L 73 192 L 0 192 L 65 135 L 63 135 Q 34 126 32 96 Q 34 66 63 57 L 65 57 L 65 57 Z M 320 96 Q 321 60 352 41 Q 384 23 416 41 Q 447 60 448 96 Q 447 132 416 151 Q 384 169 352 151 Q 321 132 320 96 L 320 96 Z M 384 128 Q 398 128 407 119 L 407 119 Q 416 110 416 96 Q 416 82 407 73 Q 398 64 384 64 Q 370 64 361 73 Q 352 82 352 96 Q 352 110 361 119 Q 370 128 384 128 L 384 128 Z"/>
</svg>
