<svg xmlns="http://www.w3.org/2000/svg" viewBox="0 0 576 320">
    <path d="M 0 0 L 576 0 L 576 256 Q 575 283 557 301 Q 539 319 512 320 L 64 320 Q 37 319 19 301 Q 1 283 0 256 L 0 0 L 0 0 Z M 256 160 Q 256 134 243 112 L 243 112 Q 230 90 208 77 Q 185 64 160 64 Q 135 64 112 77 Q 90 90 77 112 Q 64 134 64 160 Q 64 186 77 208 Q 90 230 112 243 Q 135 256 160 256 Q 185 256 208 243 Q 230 230 243 208 Q 256 186 256 160 L 256 160 Z M 352 64 Q 338 64 329 73 L 329 73 Q 320 82 320 96 L 320 224 Q 320 238 329 247 Q 338 256 352 256 L 480 256 Q 494 256 503 247 Q 512 238 512 224 L 512 96 Q 512 82 503 73 Q 494 64 480 64 L 352 64 L 352 64 Z"/>
</svg>
