<svg xmlns="http://www.w3.org/2000/svg" viewBox="0 0 646 416">
    <path d="M 323 32 Q 343 30 354 18 L 354 18 Q 354 18 354 18 Q 361 11 370 6 Q 379 0 395 0 Q 416 1 434 32 Q 452 63 465 107 Q 478 150 486 190 Q 457 204 416 214 Q 375 224 323 224 Q 271 224 230 214 Q 189 204 160 190 Q 168 150 181 107 Q 194 63 212 32 Q 230 1 251 0 Q 267 0 276 6 Q 285 11 292 18 Q 292 18 292 18 Q 303 30 323 32 L 323 32 Z M 114 239 Q 150 258 202 273 L 202 273 Q 254 287 323 288 Q 392 287 444 273 Q 497 258 532 239 Q 570 220 602 191 Q 616 179 632 188 Q 646 198 642 216 Q 619 274 576 317 Q 539 356 477 385 Q 415 414 323 416 Q 231 414 169 385 Q 107 356 71 317 Q 27 273 4 216 Q 0 198 14 188 Q 30 179 44 191 Q 76 220 114 239 L 114 239 Z"/>
</svg>
