<svg xmlns="http://www.w3.org/2000/svg" viewBox="0 0 224 320">
    <path d="M 16 16 L 16 68 Q 16 80 24 89 L 51 120 L 49 192 L 175 192 L 171 120 L 200 89 Q 208 80 208 68 L 208 16 Q 207 1 192 0 L 176 0 Q 161 1 160 16 L 160 32 L 136 32 L 136 16 Q 135 1 120 0 L 104 0 Q 89 1 88 16 L 88 32 L 64 32 L 64 16 Q 63 1 48 0 L 32 0 Q 17 1 16 16 L 16 16 Z M 96 112 Q 97 97 112 96 Q 127 97 128 112 L 128 144 L 96 144 L 96 112 L 96 112 Z M 5 282 Q 0 288 0 296 Q 2 318 24 320 L 200 320 Q 222 318 224 296 Q 224 288 219 282 L 176 224 L 48 224 L 5 282 L 5 282 Z"/>
</svg>
