<svg xmlns="http://www.w3.org/2000/svg" viewBox="0 0 431 347">
    <path d="M 157 0 Q 139 26 105 27 Q 102 27 100 27 Q 100 27 99 27 L 129 89 Q 89 120 77 171 L 0 171 Q 9 185 9 203 Q 9 221 0 235 L 77 235 Q 88 284 126 315 Q 165 346 217 347 Q 280 345 321 303 L 393 346 Q 395 309 426 291 L 354 248 Q 361 227 361 203 Q 361 172 349 146 L 431 86 Q 399 70 393 34 L 311 94 Q 272 60 217 59 Q 201 59 187 62 L 157 0 L 157 0 Z M 217 155 Q 244 156 259 179 Q 271 203 259 227 Q 244 250 217 251 Q 190 250 175 227 Q 163 203 175 179 Q 190 156 217 155 L 217 155 Z"/>
</svg>
