<svg xmlns="http://www.w3.org/2000/svg" viewBox="0 0 413 413">
    <path d="M 253 81 L 253 115 L 145 223 Q 150 232 158 240 L 170 252 Q 180 263 190 268 L 362 96 L 365 96 Q 385 95 399 82 Q 412 68 413 48 Q 412 28 399 14 Q 385 1 365 0 L 364 0 Q 349 0 337 8 L 267 55 Q 253 64 253 81 L 253 81 Z M 96 269 Q 85 259 74 269 Q 64 280 74 291 L 122 339 Q 133 349 144 339 Q 154 328 144 317 L 96 269 L 96 269 Z M 32 333 Q 21 323 10 333 Q 0 344 10 355 L 58 403 Q 69 413 80 403 Q 90 392 80 381 L 32 333 L 32 333 Z"/>
</svg>
