<svg xmlns="http://www.w3.org/2000/svg" viewBox="0 0 320 320">
    <path d="M 175 10 Q 170 0 160 0 Q 150 0 145 10 L 121 65 L 64 43 Q 54 40 47 47 Q 40 54 43 64 L 65 121 L 10 145 Q 0 150 0 160 Q 0 170 10 175 L 65 199 L 43 256 Q 40 266 47 273 Q 54 280 64 277 L 121 255 L 145 310 Q 150 320 160 320 Q 170 320 175 310 L 199 255 L 256 277 Q 266 280 273 273 Q 280 266 277 256 L 255 199 L 310 175 Q 319 170 320 160 Q 319 150 310 145 L 255 121 L 277 64 Q 280 54 273 47 Q 266 40 256 43 L 199 65 L 175 10 L 175 10 Z M 96 160 Q 97 124 128 105 Q 160 87 192 105 Q 223 124 224 160 Q 223 196 192 215 Q 160 233 128 215 Q 97 196 96 160 L 96 160 Z M 160 192 Q 174 192 183 183 L 183 183 Q 192 174 192 160 Q 192 146 183 137 Q 174 128 160 128 Q 146 128 137 137 Q 128 146 128 160 Q 128 174 137 183 Q 146 192 160 192 L 160 192 Z"/>
</svg>
