<svg xmlns="http://www.w3.org/2000/svg" viewBox="0 0 384 512">
    <path d="M 0 64 Q 1 37 19 19 L 19 19 Q 37 1 64 0 L 224 0 L 224 128 Q 224 142 233 151 Q 242 160 256 160 L 384 160 L 384 448 Q 383 475 365 493 Q 347 511 320 512 L 64 512 Q 37 511 19 493 Q 1 475 0 448 L 0 64 L 0 64 Z M 128 256 Q 128 242 119 233 L 119 233 Q 110 224 96 224 Q 82 224 73 233 Q 64 242 64 256 Q 64 270 73 279 Q 82 288 96 288 Q 110 288 119 279 Q 128 270 128 256 L 128 256 Z M 216 288 Q 208 288 203 295 L 155 365 L 142 344 Q 137 336 128 336 Q 119 336 114 344 L 66 424 Q 62 432 66 440 Q 71 448 80 448 L 128 448 L 176 448 L 216 448 L 304 448 Q 313 448 318 439 Q 322 431 317 423 L 229 295 Q 224 288 216 288 L 216 288 Z"/>
</svg>
