<svg xmlns="http://www.w3.org/2000/svg" viewBox="0 0 480 400">
    <path d="M 256 32 L 256 80 Q 256 94 265 103 Q 274 112 288 112 L 384 112 Q 398 112 407 103 Q 416 94 416 80 L 416 32 Q 416 18 407 9 Q 398 0 384 0 L 288 0 Q 274 0 265 9 Q 256 18 256 32 L 256 32 Z M 256 176 L 256 224 Q 256 238 265 247 Q 274 256 288 256 L 384 256 Q 398 256 407 247 Q 416 238 416 224 L 416 176 Q 416 162 407 153 Q 398 144 384 144 L 288 144 Q 274 144 265 153 Q 256 162 256 176 L 256 176 Z M 48 40 Q 46 18 24 16 Q 2 18 0 40 L 0 264 Q 1 322 40 360 Q 78 399 136 400 L 456 400 Q 478 398 480 376 Q 478 354 456 352 L 136 352 Q 99 351 74 326 Q 49 301 48 264 L 48 40 L 48 40 Z"/>
</svg>
