<svg xmlns="http://www.w3.org/2000/svg" viewBox="0 0 644 520">
    <path d="M 178 54 Q 177 27 154 12 Q 130 0 106 12 Q 83 27 82 54 Q 83 81 106 96 Q 130 108 154 96 Q 177 81 178 54 L 178 54 Z M 146 313 L 146 248 L 165 276 Q 172 287 184 293 L 244 323 Q 256 328 268 324 Q 280 320 287 308 Q 292 296 288 284 Q 284 272 272 265 L 216 237 L 169 166 Q 147 135 109 134 Q 84 135 67 151 Q 51 168 50 193 L 50 281 Q 50 307 69 326 L 148 405 L 162 491 Q 165 505 175 512 Q 186 519 199 518 Q 213 515 220 505 Q 227 494 226 481 L 210 390 Q 208 375 197 364 L 146 313 L 146 313 Z M 4 474 Q 0 487 5 499 L 5 499 Q 10 510 22 516 Q 35 520 47 515 Q 58 510 64 498 L 101 404 L 52 355 L 4 474 L 4 474 Z M 466 54 Q 467 81 490 96 Q 514 108 538 96 Q 561 81 562 54 Q 561 27 538 12 Q 514 0 490 12 Q 467 27 466 54 L 466 54 Z M 498 313 L 447 364 Q 436 375 434 390 L 418 481 Q 417 494 424 505 Q 431 515 445 518 Q 458 519 469 512 Q 479 505 481 491 L 496 405 L 575 326 Q 594 307 594 281 L 594 193 Q 593 168 577 151 Q 560 135 535 134 Q 497 135 476 166 L 428 237 L 372 265 Q 360 272 356 284 Q 352 296 357 308 Q 364 320 376 324 Q 388 328 400 323 L 461 292 Q 472 287 479 276 L 498 248 L 498 313 L 498 313 Z M 640 474 L 592 355 L 543 404 L 580 498 Q 586 510 597 515 Q 609 520 622 516 Q 634 510 639 498 Q 644 487 640 474 L 640 474 Z"/>
</svg>
