<svg xmlns="http://www.w3.org/2000/svg" viewBox="0 0 505 384">
    <path d="M 64 0 Q 37 1 19 19 L 19 19 Q 1 37 0 64 L 0 192 Q 1 219 19 237 Q 37 255 64 256 L 149 256 L 160 384 L 416 384 L 440 288 L 336 288 Q 321 287 320 272 Q 321 257 336 256 L 448 256 L 464 192 L 336 192 Q 321 191 320 176 Q 321 161 336 160 L 472 160 L 488 96 L 336 96 Q 321 95 320 80 Q 321 65 336 64 L 496 64 L 502 40 Q 505 24 496 12 Q 487 1 471 0 L 160 0 L 128 0 L 64 0 L 64 0 Z M 133 64 L 144 192 L 64 192 L 64 64 L 133 64 L 133 64 Z"/>
</svg>
