<svg xmlns="http://www.w3.org/2000/svg" viewBox="0 0 644 519">
    <path d="M 197 7 Q 172 0 158 22 L 79 175 Q 58 218 69 262 Q 80 305 117 332 L 86 418 L 45 403 Q 32 399 21 404 Q 9 409 4 422 Q 0 435 5 447 Q 10 458 23 463 L 94 489 L 165 515 Q 178 519 190 514 Q 201 509 206 496 Q 211 483 205 471 Q 200 460 187 455 L 146 440 L 178 354 Q 223 357 260 331 Q 296 305 308 259 L 322 194 L 337 259 Q 348 305 385 331 Q 421 357 467 354 L 498 440 L 457 455 Q 444 460 439 471 Q 433 483 438 496 Q 443 509 454 514 Q 466 519 479 515 L 550 489 L 621 463 Q 634 458 639 447 Q 644 435 640 422 Q 635 410 624 404 Q 612 399 599 403 L 558 418 L 527 332 Q 564 305 575 262 Q 586 218 565 175 L 486 22 Q 473 0 447 7 L 322 53 L 197 7 L 197 7 Z M 136 205 L 202 77 L 277 104 L 245 244 Q 238 271 216 283 Q 194 295 168 287 Q 142 276 133 253 Q 124 229 136 205 L 136 205 Z M 508 205 Q 520 229 511 253 L 511 253 Q 502 276 476 287 Q 450 295 428 283 Q 406 271 399 244 L 367 104 L 443 77 L 508 205 L 508 205 Z"/>
</svg>
