<svg xmlns="http://www.w3.org/2000/svg" viewBox="0 0 640 227">
    <path d="M 577 24 Q 574 12 584 5 Q 596 0 604 9 L 612 18 Q 640 54 640 99 Q 639 153 603 189 Q 566 226 512 227 L 480 227 L 480 179 Q 480 152 464 131 L 512 131 L 535 131 Q 557 131 572 117 Q 588 103 591 81 Q 592 69 588 57 L 577 24 L 577 24 Z M 176 131 Q 161 152 160 179 L 160 227 L 128 227 Q 74 226 37 189 Q 1 153 0 99 Q 0 54 28 18 L 36 9 Q 44 0 56 5 Q 66 12 63 24 L 52 58 Q 48 69 49 81 Q 52 103 68 117 Q 83 131 105 131 L 128 131 L 176 131 L 176 131 Z"/>
</svg>
