<svg xmlns="http://www.w3.org/2000/svg" viewBox="0 0 491 352">
    <path d="M 91 48 Q 105 48 114 57 L 114 57 Q 123 66 123 80 Q 123 94 114 103 Q 105 112 91 112 Q 77 112 68 103 Q 59 94 59 80 Q 59 66 68 57 Q 77 48 91 48 L 91 48 Z M 91 160 Q 136 159 160 120 Q 182 80 160 40 Q 136 1 91 0 Q 46 1 22 40 Q 0 80 22 120 Q 46 159 91 160 L 91 160 Z M 251 240 Q 265 240 274 249 L 274 249 Q 283 258 283 272 Q 283 286 274 295 Q 265 304 251 304 Q 237 304 228 295 Q 219 286 219 272 Q 219 258 228 249 Q 237 240 251 240 L 251 240 Z M 251 352 Q 296 351 320 312 Q 342 272 320 232 Q 296 193 251 192 Q 206 193 182 232 Q 160 272 182 312 Q 206 351 251 352 L 251 352 Z M 379 112 Q 379 98 388 89 L 388 89 Q 397 80 411 80 Q 425 80 434 89 Q 443 98 443 112 Q 443 126 434 135 Q 425 144 411 144 Q 397 144 388 135 Q 379 126 379 112 L 379 112 Z M 491 112 Q 490 67 451 43 Q 411 21 371 43 Q 332 67 331 112 Q 332 157 371 181 Q 411 203 451 181 Q 490 157 491 112 L 491 112 Z"/>
</svg>
