<svg xmlns="http://www.w3.org/2000/svg" viewBox="0 0 416 336">
    <path d="M 64 16 Q 63 1 48 0 Q 33 1 32 16 Q 33 31 48 32 Q 63 31 64 16 L 64 16 Z M 237 133 Q 240 123 240 112 Q 239 78 217 55 Q 194 33 160 32 Q 126 33 103 55 Q 81 78 80 112 Q 81 146 103 169 Q 126 191 160 192 L 161 192 L 258 317 Q 273 336 296 336 L 368 336 Q 388 335 402 322 Q 415 308 416 288 Q 415 268 402 254 Q 388 241 368 240 L 320 240 L 237 133 L 237 133 Z M 128 112 Q 128 98 137 89 L 137 89 Q 146 80 160 80 Q 174 80 183 89 Q 192 98 192 112 Q 192 126 183 135 Q 174 144 160 144 Q 146 144 137 135 Q 128 126 128 112 L 128 112 Z M 16 128 Q 31 127 32 112 Q 31 97 16 96 Q 1 97 0 112 Q 1 127 16 128 L 16 128 Z M 48 224 Q 63 223 64 208 Q 63 193 48 192 Q 33 193 32 208 Q 33 223 48 224 L 48 224 Z"/>
</svg>
