<svg xmlns="http://www.w3.org/2000/svg" viewBox="0 0 642 307">
    <path d="M 567 188 Q 542 105 475 54 Q 502 49 538 39 Q 585 25 616 6 Q 625 0 634 6 Q 642 12 641 22 Q 636 47 618 94 Q 600 142 567 188 L 567 188 Z M 104 39 Q 141 49 167 54 Q 100 105 75 188 Q 42 142 24 94 Q 6 47 1 22 Q 0 12 8 6 Q 17 0 26 6 Q 57 25 104 39 L 104 39 Z M 241 307 Q 228 307 219 298 L 219 298 Q 210 289 209 275 Q 210 261 219 252 L 188 242 Q 175 236 178 222 Q 184 209 198 212 L 294 244 Q 308 250 304 264 Q 298 277 284 274 L 273 271 Q 273 273 273 275 Q 273 289 264 298 Q 255 307 241 307 L 241 307 Z M 433 275 Q 433 289 424 298 L 424 298 Q 415 307 401 307 Q 388 307 379 298 Q 370 289 369 275 Q 369 273 370 270 L 358 274 Q 344 278 338 264 Q 334 250 348 244 L 444 212 Q 458 209 464 222 Q 467 236 454 242 L 424 252 Q 433 261 433 275 L 433 275 Z"/>
</svg>
