<svg xmlns="http://www.w3.org/2000/svg" viewBox="0 0 288 288">
    <path d="M 160 16 Q 159 1 144 0 Q 129 1 128 16 Q 126 41 105 50 Q 84 59 65 42 Q 54 33 42 42 Q 33 53 42 65 Q 59 84 50 105 Q 41 126 16 128 Q 1 129 0 144 Q 1 159 16 160 Q 41 162 50 183 Q 59 204 42 223 Q 33 235 42 246 Q 54 255 65 246 Q 84 229 105 238 Q 126 247 128 272 Q 129 287 144 288 Q 159 287 160 272 Q 162 247 183 238 Q 204 229 223 246 Q 235 255 246 246 Q 255 234 246 223 Q 229 204 238 183 Q 247 162 272 160 Q 287 159 288 144 Q 287 129 272 128 Q 247 126 238 105 Q 229 84 246 65 Q 255 54 246 42 Q 234 33 223 42 Q 204 59 183 50 Q 162 41 160 16 L 160 16 Z M 96 120 Q 98 98 120 96 Q 142 98 144 120 Q 142 142 120 144 Q 98 142 96 120 L 96 120 Z M 176 160 Q 191 161 192 176 Q 191 191 176 192 Q 161 191 160 176 Q 161 161 176 160 L 176 160 Z"/>
</svg>
