<svg xmlns="http://www.w3.org/2000/svg" viewBox="0 0 512 512">
    <path d="M 509 140 Q 498 184 504 230 Q 504 235 504 240 Q 503 272 486 296 Q 468 321 439 331 Q 417 337 400 352 L 371 381 Q 352 400 325 400 L 282 400 Q 256 400 237 419 L 227 429 Q 208 447 181 448 L 136 448 Q 109 448 91 467 L 55 502 Q 45 512 32 512 Q 19 512 9 502 Q 0 493 0 480 Q 0 467 9 457 L 45 421 Q 64 402 64 376 L 64 331 Q 64 304 83 285 L 93 275 Q 111 256 112 229 L 112 186 Q 112 160 131 141 L 160 112 Q 175 95 181 73 Q 191 44 216 26 Q 240 9 272 8 Q 277 8 282 9 Q 328 14 372 4 Q 385 0 400 0 Q 448 1 479 33 Q 511 64 512 112 Q 512 127 509 140 L 509 140 Z M 411 123 Q 421 112 411 101 Q 400 91 389 101 L 277 213 L 240 249 L 240 192 Q 239 177 224 176 Q 209 177 208 192 L 208 281 L 165 325 Q 155 336 165 347 Q 176 357 187 347 L 235 299 L 295 240 L 384 240 Q 399 239 400 224 Q 399 209 384 208 L 327 208 L 411 123 L 411 123 Z"/>
</svg>
