<svg xmlns="http://www.w3.org/2000/svg" viewBox="0 0 448 448">
    <path d="M 96 0 Q 70 0 48 13 L 48 13 Q 26 26 13 48 Q 0 71 0 96 Q 0 121 13 144 Q 26 166 48 179 Q 70 192 96 192 Q 122 192 144 179 Q 166 166 179 144 Q 192 121 192 96 Q 192 71 179 48 Q 166 26 144 13 Q 122 0 96 0 L 96 0 Z M 352 256 Q 326 256 304 269 L 304 269 Q 282 282 269 304 Q 256 327 256 352 Q 256 377 269 400 Q 282 422 304 435 Q 326 448 352 448 Q 378 448 400 435 Q 422 422 435 400 Q 448 377 448 352 Q 448 327 435 304 Q 422 282 400 269 Q 378 256 352 256 L 352 256 Z"/>
</svg>
