<svg xmlns="http://www.w3.org/2000/svg" viewBox="0 0 480 495">
    <path d="M 153 55 Q 144 45 144 32 L 144 32 Q 144 19 153 9 Q 163 0 176 0 Q 189 0 199 9 L 391 201 Q 398 206 400 198 L 400 120 Q 401 103 412 92 Q 423 80 440 80 Q 457 80 468 92 Q 480 103 480 120 L 480 296 Q 480 342 460 382 Q 441 422 405 450 Q 366 479 320 487 Q 275 495 231 483 Q 188 472 153 439 L 149 434 L 41 327 L 9 295 Q 0 285 0 272 Q 0 259 9 249 Q 19 240 32 240 Q 45 240 55 249 L 87 281 L 87 281 L 133 328 Q 143 336 152 328 Q 160 319 152 309 L 25 183 Q 16 173 16 160 Q 16 147 25 137 Q 35 128 48 128 Q 61 128 71 137 L 197 264 Q 207 272 216 264 Q 224 255 216 245 L 73 103 Q 64 93 64 80 Q 64 67 73 57 Q 83 48 96 48 Q 109 48 119 57 L 261 200 Q 271 208 280 200 Q 288 191 280 181 L 153 55 L 153 55 Z"/>
</svg>
