<svg xmlns="http://www.w3.org/2000/svg" viewBox="0 0 581 448">
    <path d="M 97 81 Q 133 47 181 24 L 181 24 Q 229 1 290 0 Q 351 1 399 24 Q 447 47 483 81 Q 518 114 541 149 Q 564 184 576 212 Q 581 224 576 236 Q 564 264 541 299 Q 518 334 483 367 Q 447 401 399 424 Q 351 447 290 448 Q 229 447 181 424 Q 133 401 97 367 Q 62 334 39 299 Q 16 264 5 236 Q 0 224 5 212 Q 16 184 39 149 Q 62 114 97 81 L 97 81 Z M 290 368 Q 329 368 362 349 L 362 349 Q 395 330 415 296 Q 434 262 434 224 Q 434 186 415 152 Q 395 118 362 99 Q 329 80 290 80 Q 251 80 218 99 Q 185 118 165 152 Q 146 186 146 224 Q 146 262 165 296 Q 185 330 218 349 Q 251 368 290 368 L 290 368 Z"/>
</svg>
