<svg xmlns="http://www.w3.org/2000/svg" viewBox="0 0 371 131">
    <path d="M 152 8 Q 145 0 134 3 Q 124 7 123 18 L 123 114 Q 124 129 139 130 Q 154 129 155 114 L 155 66 L 174 92 Q 179 98 187 98 Q 195 98 200 92 L 219 66 L 219 114 Q 220 129 235 130 Q 250 129 251 114 L 251 18 Q 250 7 240 3 Q 229 0 222 8 L 187 55 L 152 8 L 152 8 Z M 308 39 Q 308 38 310 37 Q 315 34 323 34 Q 332 34 343 38 Q 357 40 363 26 Q 365 12 351 7 Q 339 3 323 2 Q 308 2 294 10 Q 277 18 275 41 Q 277 63 293 71 Q 305 77 316 80 Q 317 80 317 80 L 318 81 Q 331 84 336 88 Q 340 90 339 91 L 339 91 Q 339 93 338 94 Q 338 94 336 96 Q 332 98 324 98 Q 314 98 301 93 L 301 93 Q 300 93 300 92 Q 298 92 296 91 Q 282 88 276 101 Q 272 116 286 122 Q 287 122 289 123 Q 289 123 290 123 L 290 123 Q 290 123 290 123 Q 304 129 323 130 Q 338 131 353 123 Q 370 113 371 90 Q 369 69 353 61 Q 340 53 328 50 L 328 50 Q 315 47 309 43 Q 307 42 307 42 Q 307 42 307 42 Q 307 41 307 41 Q 307 40 308 39 L 308 39 Z M 36 39 Q 36 39 36 39 L 36 39 Q 36 38 38 37 Q 43 34 51 34 Q 62 35 74 38 Q 89 40 94 26 Q 96 12 82 7 Q 67 3 51 2 Q 36 2 22 10 Q 5 18 3 41 Q 5 63 21 70 Q 33 77 44 80 Q 45 80 45 80 L 45 80 L 45 80 L 46 80 Q 59 84 64 87 Q 68 90 67 90 L 67 91 Q 67 93 66 93 Q 66 94 64 95 Q 60 98 51 98 Q 41 97 28 92 Q 28 92 28 92 L 28 92 L 28 92 Q 26 92 24 91 Q 9 88 3 101 Q 0 115 13 121 Q 15 122 16 122 Q 16 122 17 122 L 17 122 L 17 122 L 17 122 Q 17 122 17 122 Q 31 128 50 130 Q 66 131 81 122 Q 98 113 99 90 Q 97 68 81 60 Q 68 53 56 50 L 55 50 Q 43 46 37 43 Q 35 42 35 41 Q 35 41 35 41 Q 35 41 35 41 Q 35 41 35 41 Q 35 39 35 39 L 36 39 Z"/>
</svg>
