<svg xmlns="http://www.w3.org/2000/svg" viewBox="0 0 545 480">
    <path d="M 401 0 Q 387 0 378 9 L 378 9 Q 369 18 369 32 Q 369 46 378 55 Q 387 64 401 64 L 430 64 L 320 152 L 212 70 Q 192 57 173 71 L 13 199 Q 3 208 1 220 Q 0 233 8 244 Q 17 254 29 256 Q 42 257 53 249 L 194 137 L 302 218 Q 322 231 341 217 L 481 105 L 481 144 Q 481 158 490 167 Q 499 176 513 176 Q 527 176 536 167 Q 545 158 545 144 L 545 32 Q 545 18 536 9 Q 527 0 513 0 L 401 0 L 401 0 Z M 161 256 L 161 448 Q 161 462 170 471 Q 179 480 193 480 Q 207 480 216 471 Q 225 462 225 448 L 225 256 Q 225 242 216 233 Q 207 224 193 224 Q 179 224 170 233 Q 161 242 161 256 L 161 256 Z M 33 352 L 33 448 Q 33 462 42 471 Q 51 480 65 480 Q 79 480 88 471 Q 97 462 97 448 L 97 352 Q 97 338 88 329 Q 79 320 65 320 Q 51 320 42 329 Q 33 338 33 352 L 33 352 Z"/>
</svg>
