<svg xmlns="http://www.w3.org/2000/svg" viewBox="0 0 506 512">
    <path d="M 250 0 Q 222 0 197 6 Q 206 27 200 49 Q 194 71 174 85 L 120 122 Q 133 129 142 141 Q 155 160 154 181 Q 161 176 170 176 Q 184 176 193 185 Q 202 194 202 208 Q 202 222 193 231 Q 184 240 170 240 Q 148 239 140 219 Q 135 225 128 231 L 45 291 Q 24 306 0 310 Q 20 398 88 454 Q 156 510 250 512 Q 322 511 379 477 Q 437 443 471 385 Q 505 328 506 256 Q 505 184 471 127 Q 437 69 379 35 Q 322 1 250 0 L 250 0 Z M 155 341 Q 169 351 192 359 L 192 359 Q 216 367 250 368 Q 284 367 308 359 Q 332 351 345 341 Q 357 334 367 345 Q 374 357 363 367 Q 346 380 318 390 Q 289 399 250 400 Q 210 399 182 390 Q 154 380 137 367 Q 125 357 133 345 Q 143 334 155 341 L 155 341 Z M 330 176 Q 344 176 353 185 L 353 185 Q 362 194 362 208 Q 362 222 353 231 Q 344 240 330 240 Q 317 240 308 231 Q 299 222 298 208 Q 299 194 308 185 Q 317 176 330 176 L 330 176 Z"/>
</svg>
