<svg xmlns="http://www.w3.org/2000/svg" viewBox="0 0 515 510">
    <path d="M 206 27 Q 185 31 184 52 Q 186 76 210 78 L 368 78 Q 383 77 384 62 L 384 17 Q 382 0 366 1 L 206 27 L 206 27 Z M 313 222 L 208 222 L 40 222 Q 23 222 12 234 Q 0 245 0 262 Q 0 279 12 290 Q 23 302 40 302 L 192 302 L 192 391 L 355 229 Q 335 222 313 222 L 313 222 Z M 192 478 Q 192 492 201 501 L 201 501 Q 210 510 224 510 L 352 510 Q 366 510 375 501 Q 384 492 384 478 L 384 446 L 192 446 L 192 478 L 192 478 Z M 215 414 L 384 414 L 384 368 L 438 458 Q 447 473 462 477 Q 478 481 492 473 Q 507 464 511 448 Q 515 433 507 418 L 430 289 Q 413 260 386 243 L 215 414 L 215 414 Z"/>
</svg>
