<svg xmlns="http://www.w3.org/2000/svg" viewBox="0 0 512 499">
    <path d="M 175 499 Q 97 472 49 407 L 49 407 Q 1 342 0 256 Q 1 184 35 127 Q 69 69 127 35 Q 184 1 256 0 Q 328 1 385 35 Q 443 69 477 127 Q 511 184 512 256 Q 511 342 463 407 Q 415 472 338 499 Q 352 476 352 448 L 352 401 Q 389 374 407 332 Q 411 322 404 316 Q 398 310 388 313 Q 328 331 256 332 Q 185 331 124 313 Q 115 310 108 316 Q 102 322 105 332 Q 123 374 160 401 L 160 448 Q 160 476 174 499 L 175 499 Z M 208 208 Q 208 194 199 185 L 199 185 Q 190 176 176 176 Q 163 176 154 185 Q 145 194 144 208 Q 145 222 154 231 Q 163 240 176 240 Q 190 240 199 231 Q 208 222 208 208 L 208 208 Z M 336 240 Q 350 240 359 231 L 359 231 Q 368 222 368 208 Q 368 194 359 185 Q 350 176 336 176 Q 323 176 314 185 Q 305 194 304 208 Q 305 222 314 231 Q 323 240 336 240 L 336 240 Z"/>
</svg>
