<svg xmlns="http://www.w3.org/2000/svg" viewBox="0 0 512 512">
    <path d="M 160 0 Q 174 0 183 9 L 183 9 Q 192 18 192 32 L 192 96 Q 193 123 211 141 Q 229 159 256 160 L 273 160 Q 290 131 319 114 Q 348 96 384 96 Q 438 97 475 133 Q 511 170 512 224 L 512 304 Q 510 392 451 451 Q 392 510 304 512 Q 257 511 225 497 Q 194 482 176 465 Q 173 462 170 460 L 170 460 Q 154 446 142 439 Q 130 432 112 432 Q 92 433 78 446 Q 65 460 64 480 Q 64 494 55 503 Q 46 512 32 512 Q 18 512 9 503 Q 0 494 0 480 Q 1 426 37 389 Q 74 353 128 352 L 192 352 Q 219 351 237 333 Q 255 315 256 288 L 256 224 Q 202 223 165 187 Q 129 150 128 96 L 128 32 Q 128 18 137 9 Q 146 0 160 0 L 160 0 Z M 215 414 Q 215 414 215 414 L 215 414 Q 216 415 217 415 Q 233 430 251 438 Q 269 447 304 448 Q 365 446 406 406 Q 446 365 448 304 L 448 224 Q 447 197 429 179 Q 411 161 384 160 Q 357 161 339 179 Q 321 197 320 224 L 320 288 Q 319 336 290 371 Q 261 405 215 414 L 215 414 Z"/>
</svg>
