<svg xmlns="http://www.w3.org/2000/svg" viewBox="0 0 448 448">
    <path d="M 352 0 Q 326 0 304 13 L 304 13 Q 282 26 269 48 Q 256 71 256 96 Q 256 121 269 144 Q 282 166 304 179 Q 326 192 352 192 Q 378 192 400 179 Q 422 166 435 144 Q 448 121 448 96 Q 448 71 435 48 Q 422 26 400 13 Q 378 0 352 0 L 352 0 Z M 96 256 Q 70 256 48 269 L 48 269 Q 26 282 13 304 Q 0 327 0 352 Q 0 377 13 400 Q 26 422 48 435 Q 70 448 96 448 Q 122 448 144 435 Q 166 422 179 400 Q 192 377 192 352 Q 192 327 179 304 Q 166 282 144 269 Q 122 256 96 256 L 96 256 Z"/>
</svg>
