<svg xmlns="http://www.w3.org/2000/svg" viewBox="0 0 411 488">
    <path d="M 385 235 Q 387 238 388 241 Q 392 238 396 234 Q 405 225 411 215 Q 399 186 380 161 Q 359 138 336 126 Q 312 114 290 106 Q 289 106 289 106 L 288 106 Q 266 98 246 88 Q 227 78 210 60 Q 193 38 181 7 Q 179 4 178 0 Q 174 4 170 8 Q 161 17 155 27 Q 167 56 186 80 Q 207 104 230 116 Q 254 128 276 135 Q 276 136 277 136 L 278 136 Q 300 144 320 153 Q 339 163 356 182 Q 372 204 385 235 L 385 235 Z M 34 481 Q 33 483 32 485 L 32 485 Q 31 486 31 487 Q 36 488 42 488 Q 55 488 67 485 Q 78 456 82 425 Q 84 393 76 368 Q 68 343 57 322 Q 57 322 57 322 L 57 321 Q 46 300 39 279 Q 32 258 34 233 Q 38 206 50 176 Q 51 173 52 171 Q 53 170 53 169 Q 48 168 42 168 Q 29 168 18 171 Q 6 200 2 231 Q 0 262 8 288 Q 16 313 27 334 Q 27 334 27 334 L 28 335 Q 38 356 45 377 Q 52 398 50 423 Q 47 450 34 480 L 34 481 Z"/>
</svg>
