<svg xmlns="http://www.w3.org/2000/svg" viewBox="0 0 506 512">
    <path d="M 253 512 Q 329 511 389 473 L 389 473 Q 449 435 482 371 Q 475 367 469 361 Q 457 348 452 335 Q 447 321 444 307 Q 437 278 434 259 Q 432 238 446 225 Q 459 211 480 213 Q 490 215 506 218 Q 490 123 421 63 Q 351 2 253 0 Q 155 2 85 63 Q 16 123 0 218 Q 16 215 26 213 Q 47 211 60 225 Q 74 238 72 259 Q 69 278 62 307 Q 59 321 54 334 Q 49 348 37 361 Q 31 367 24 371 Q 57 435 117 473 Q 177 511 253 512 L 253 512 Z M 385 313 Q 395 310 401 316 L 401 316 Q 408 322 404 332 Q 385 377 345 404 Q 305 431 253 432 Q 202 431 162 404 Q 122 377 102 332 Q 99 322 105 316 Q 112 310 121 313 Q 182 331 253 332 Q 325 331 385 313 L 385 313 Z M 215 229 L 215 229 L 215 229 L 214 229 Q 214 228 214 228 Q 214 228 214 228 Q 213 226 211 224 Q 207 220 201 214 Q 187 201 173 200 Q 159 201 145 214 Q 139 220 135 224 Q 133 226 132 228 Q 132 228 132 228 Q 132 228 132 229 L 131 229 L 131 229 L 131 229 L 131 229 Q 128 233 123 232 Q 117 230 117 224 Q 118 196 134 175 Q 149 154 173 152 Q 197 154 212 175 Q 228 196 229 224 Q 229 230 224 232 Q 218 233 215 229 L 215 229 L 215 229 L 215 229 Z M 375 229 L 375 229 L 374 229 L 374 228 L 374 228 Q 373 226 371 224 Q 367 220 361 214 Q 347 201 333 200 Q 319 201 305 214 Q 299 220 295 224 Q 293 226 292 228 Q 292 228 292 228 Q 292 228 291 228 L 291 229 L 291 229 L 291 229 L 291 229 Q 288 233 282 231 Q 277 230 277 224 Q 278 196 293 175 Q 309 154 333 152 Q 357 154 372 175 Q 388 196 389 224 Q 389 229 383 231 Q 378 233 374 229 L 374 229 L 374 229 L 374 229 L 375 229 Z"/>
</svg>
