<svg xmlns="http://www.w3.org/2000/svg" viewBox="0 0 448 512">
    <path d="M 416 512 Q 430 512 439 503 L 439 503 Q 448 494 448 480 Q 447 435 428 399 Q 409 363 379 333 Q 335 292 281 256 Q 262 270 242 283 L 238 285 Q 231 290 224 295 Q 255 315 283 336 L 165 336 Q 132 360 109 384 L 339 384 Q 383 430 384 480 Q 384 494 393 503 Q 402 512 416 512 L 416 512 Z M 167 256 Q 182 245 198 235 L 198 235 Q 200 233 202 232 L 206 229 Q 210 227 213 225 Q 219 221 224 218 Q 160 176 115 133 Q 96 115 84 96 L 364 96 Q 384 66 384 32 L 64 32 Q 64 18 55 9 Q 46 0 32 0 Q 18 0 9 9 Q 0 18 0 32 Q 1 77 20 113 Q 39 149 69 179 Q 113 220 167 256 L 167 256 Z"/>
</svg>
