<svg xmlns="http://www.w3.org/2000/svg" viewBox="0 0 544 499">
    <path d="M 360 189 Q 349 201 359 213 Q 398 250 400 307 Q 399 361 363 398 Q 326 434 272 435 Q 218 434 181 398 Q 145 361 144 307 Q 146 250 185 213 Q 195 201 184 189 Q 158 169 143 139 Q 128 110 128 75 Q 128 50 136 27 Q 139 16 131 8 Q 124 0 115 5 Q 74 34 46 75 Q 19 116 7 166 Q 6 169 9 172 L 37 200 Q 42 209 33 211 L 7 211 Q 1 211 0 217 Q 0 222 0 227 Q 0 253 5 278 Q 5 280 7 282 L 53 328 Q 58 337 49 339 L 34 339 Q 26 340 28 348 Q 63 416 127 457 Q 191 498 272 499 Q 353 498 417 457 Q 481 416 516 348 Q 518 340 510 339 L 495 339 Q 486 337 491 328 L 537 282 Q 539 280 539 278 Q 544 253 544 227 Q 544 222 544 217 Q 543 211 537 211 L 511 211 Q 502 209 507 200 L 535 172 Q 538 169 537 166 Q 525 116 498 75 Q 470 34 429 5 Q 420 0 413 8 Q 405 16 408 27 Q 416 50 416 75 Q 416 110 401 139 Q 386 169 360 189 L 360 189 Z"/>
</svg>
