<svg xmlns="http://www.w3.org/2000/svg" viewBox="0 0 480 320">
    <path d="M 176 0 Q 156 1 142 14 L 142 14 Q 129 28 128 48 L 128 104 Q 130 126 152 128 L 200 128 Q 222 126 224 104 L 224 48 Q 223 28 210 14 Q 196 1 176 0 L 176 0 Z M 304 0 Q 284 1 270 14 L 270 14 Q 257 28 256 48 L 256 104 Q 258 126 280 128 L 328 128 Q 350 126 352 104 L 352 48 Q 351 28 338 14 Q 324 1 304 0 L 304 0 Z M 0 80 L 0 104 Q 2 126 24 128 L 72 128 Q 94 126 96 104 L 96 80 Q 95 60 82 46 Q 68 33 48 32 Q 28 33 14 46 Q 1 60 0 80 L 0 80 Z M 432 32 Q 412 33 398 46 L 398 46 Q 385 60 384 80 L 384 104 Q 386 126 408 128 L 456 128 Q 478 126 480 104 L 480 80 Q 479 60 466 46 Q 452 33 432 32 L 432 32 Z M 0 272 Q 1 292 14 306 L 14 306 Q 28 319 48 320 Q 68 319 82 306 Q 95 292 96 272 L 96 248 Q 94 226 72 224 L 24 224 Q 2 226 0 248 L 0 272 L 0 272 Z M 176 320 Q 196 319 210 306 L 210 306 Q 223 292 224 272 L 224 248 Q 222 226 200 224 L 152 224 Q 130 226 128 248 L 128 272 Q 129 292 142 306 Q 156 319 176 320 L 176 320 Z M 256 272 Q 257 292 270 306 L 270 306 Q 284 319 304 320 Q 324 319 338 306 Q 351 292 352 272 L 352 248 Q 350 226 328 224 L 280 224 Q 258 226 256 248 L 256 272 L 256 272 Z M 432 320 Q 452 319 466 306 L 466 306 Q 479 292 480 272 L 480 248 Q 478 226 456 224 L 408 224 Q 386 226 384 248 L 384 272 Q 385 292 398 306 Q 412 319 432 320 L 432 320 Z"/>
</svg>
