<svg xmlns="http://www.w3.org/2000/svg" viewBox="0 0 320 320">
    <path d="M 16 0 Q 1 1 0 16 Q 1 31 16 32 L 96 32 L 96 0 L 16 0 L 16 0 Z M 96 96 L 16 96 Q 1 97 0 112 Q 1 127 16 128 L 96 128 L 96 96 L 96 96 Z M 96 192 L 16 192 Q 1 193 0 208 Q 1 223 16 224 L 96 224 L 96 304 Q 97 319 112 320 Q 127 319 128 304 L 128 224 L 96 224 L 96 192 L 96 192 Z M 224 224 L 192 224 L 192 304 Q 193 319 208 320 Q 223 319 224 304 L 224 224 L 224 224 Z M 320 304 L 320 224 L 288 224 L 288 304 Q 289 319 304 320 Q 319 319 320 304 L 320 304 Z"/>
</svg>
