<svg xmlns="http://www.w3.org/2000/svg" viewBox="0 0 512 480">
    <path d="M 0 256 Q 1 184 35 127 L 35 127 Q 69 69 127 35 L 127 35 Q 184 1 256 0 Q 328 1 385 35 Q 443 69 477 127 Q 511 184 512 256 Q 511 328 477 386 Q 492 390 502 403 Q 512 415 512 432 Q 511 452 498 466 Q 484 479 464 480 L 48 480 Q 28 479 14 466 Q 1 452 0 432 Q 0 415 10 403 Q 20 390 35 386 Q 1 328 0 256 L 0 256 Z M 416 256 Q 414 188 369 143 L 369 143 Q 324 98 256 96 Q 188 98 143 143 Q 98 188 96 256 Q 96 296 113 329 Q 130 362 160 384 Q 201 415 256 416 Q 306 415 346 389 Q 349 386 352 384 Q 352 384 352 384 Q 382 362 399 329 Q 416 296 416 256 L 416 256 Z M 256 224 Q 270 224 279 233 L 279 233 Q 288 242 288 256 Q 288 270 279 279 Q 270 288 256 288 Q 242 288 233 279 Q 224 270 224 256 Q 224 242 233 233 Q 242 224 256 224 L 256 224 Z"/>
</svg>
