<svg xmlns="http://www.w3.org/2000/svg" viewBox="0 0 448 448">
    <path d="M 0 64 Q 1 37 19 19 L 19 19 Q 37 1 64 0 L 384 0 Q 411 1 429 19 Q 447 37 448 64 L 448 384 Q 447 411 429 429 Q 411 447 384 448 L 64 448 Q 37 447 19 429 Q 1 411 0 384 L 0 64 L 0 64 Z M 172 195 L 208 231 L 208 242 Q 180 248 162 269 Q 145 290 144 320 Q 145 354 167 377 Q 190 399 224 400 Q 258 399 281 377 Q 303 354 304 320 Q 303 290 286 269 Q 268 248 240 242 L 240 231 L 276 195 Q 295 208 320 208 Q 354 207 377 185 Q 399 162 400 128 Q 399 94 377 71 Q 354 49 320 48 Q 286 49 263 71 Q 241 94 240 128 Q 240 153 253 172 L 224 201 L 195 172 Q 208 153 208 128 Q 207 94 185 71 Q 162 49 128 48 Q 94 49 71 71 Q 49 94 48 128 Q 49 162 71 185 Q 94 207 128 208 Q 153 208 172 195 L 172 195 Z"/>
</svg>
