<svg xmlns="http://www.w3.org/2000/svg" viewBox="0 0 448 352">
    <path d="M 0 64 Q 2 101 32 119 L 32 233 Q 2 251 0 288 Q 1 315 19 333 Q 37 351 64 352 Q 101 350 119 320 L 329 320 Q 347 350 384 352 Q 411 351 429 333 Q 447 315 448 288 Q 446 251 416 233 L 416 119 Q 446 101 448 64 Q 447 37 429 19 Q 411 1 384 0 Q 347 2 329 32 L 119 32 Q 101 2 64 0 Q 37 1 19 19 Q 1 37 0 64 L 0 64 Z M 329 96 Q 337 111 352 119 L 352 233 Q 337 241 329 256 L 119 256 Q 111 241 96 233 L 96 119 Q 111 111 119 96 L 329 96 L 329 96 Z"/>
</svg>
