<svg xmlns="http://www.w3.org/2000/svg" viewBox="0 0 640 512">
    <path d="M 528 256 Q 528 199 500 152 L 500 152 Q 473 105 424 76 Q 375 48 320 48 Q 265 48 216 76 Q 167 105 140 152 Q 112 199 112 256 Q 112 313 140 360 Q 167 407 216 436 Q 265 464 320 464 Q 375 464 424 436 Q 473 407 500 360 Q 528 313 528 256 L 528 256 Z M 64 256 Q 65 186 98 128 L 98 128 Q 132 70 192 34 Q 253 0 320 0 Q 387 0 448 34 Q 508 70 542 128 Q 575 186 576 256 Q 575 326 542 384 Q 508 442 448 478 Q 387 512 320 512 Q 253 512 192 478 Q 132 442 98 384 Q 65 326 64 256 L 64 256 Z M 48 184 L 48 328 Q 46 350 24 352 Q 2 350 0 328 L 0 184 Q 2 162 24 160 Q 46 162 48 184 L 48 184 Z M 616 160 Q 638 162 640 184 L 640 328 Q 638 350 616 352 Q 594 350 592 328 L 592 184 Q 594 162 616 160 L 616 160 Z M 230 214 L 198 246 Q 184 258 170 246 Q 158 232 170 218 L 202 186 Q 216 174 230 186 Q 242 200 230 214 L 230 214 Z M 296 224 Q 298 202 320 200 Q 342 202 344 224 Q 342 246 320 248 Q 298 246 296 224 L 296 224 Z M 376 264 L 456 184 Q 464 177 472 184 L 475 187 Q 496 208 496 238 L 496 242 Q 495 272 473 290 Q 456 304 434 304 L 430 304 Q 400 304 379 283 L 376 280 Q 369 272 376 264 L 376 264 Z"/>
</svg>
