<svg xmlns="http://www.w3.org/2000/svg" viewBox="0 0 259 517">
    <path d="M 0 406 L 0 406 L 112 494 L 113 494 L 116 497 L 129 507 Q 143 517 158 508 Q 171 497 167 481 L 162 465 L 160 461 L 160 460 L 116 321 L 230 232 L 230 232 L 232 230 L 247 219 Q 259 208 255 192 Q 249 177 232 176 L 213 176 L 211 176 L 211 176 L 74 176 L 29 37 L 29 37 L 28 33 L 23 17 Q 17 1 0 0 Q 0 0 0 0 Q 0 0 0 0 L 0 130 L 0 130 L 20 193 L 33 232 L 74 232 L 139 232 L 82 277 L 51 301 L 63 338 L 82 400 L 34 362 L 0 336 L 0 336 L 0 406 L 0 406 Z"/>
</svg>
