<svg xmlns="http://www.w3.org/2000/svg" viewBox="0 0 354 456">
    <path d="M 0 54 Q 1 27 24 12 Q 48 0 72 12 Q 95 27 96 54 Q 95 81 72 96 Q 48 108 24 96 Q 1 81 0 54 L 0 54 Z M 129 230 L 137 262 L 191 262 Q 216 262 236 276 Q 256 290 266 314 L 291 382 L 310 376 Q 323 372 334 377 Q 346 383 350 396 Q 354 409 349 420 Q 343 432 330 436 L 282 452 Q 270 456 258 451 Q 247 446 242 433 L 206 336 Q 202 327 191 326 L 113 326 Q 112 326 112 326 Q 112 326 111 326 L 105 326 Q 82 326 66 312 Q 49 299 43 278 L 22 193 Q 17 170 30 152 Q 44 135 68 134 Q 101 136 113 166 L 192 166 Q 206 166 215 175 Q 224 184 224 198 Q 224 212 215 221 Q 206 230 192 230 L 129 230 L 129 230 Z"/>
</svg>
