<svg xmlns="http://www.w3.org/2000/svg" viewBox="0 0 431 412">
    <path d="M 224 16 Q 242 0 263 10 L 323 43 Q 332 48 342 47 L 410 39 Q 422 37 431 43 Q 422 47 415 54 L 296 174 Q 265 151 223 150 Q 172 151 138 185 Q 104 219 103 270 Q 104 312 127 343 L 71 398 Q 65 404 62 412 L 61 370 Q 60 360 54 352 L 13 297 Q 0 277 14 258 L 57 205 Q 63 197 64 187 L 68 118 Q 70 95 93 89 L 161 75 Q 170 73 178 66 L 224 16 L 224 16 Z M 273 197 L 150 320 Q 135 298 135 270 Q 136 233 161 208 Q 186 183 223 182 Q 251 182 273 197 L 273 197 Z"/>
</svg>
