<svg xmlns="http://www.w3.org/2000/svg" viewBox="0 0 288 288">
    <path d="M 220 250 Q 218 239 228 232 Q 255 215 272 188 Q 288 161 288 128 Q 286 74 246 37 Q 205 1 144 0 Q 83 1 42 37 Q 2 74 0 128 Q 0 161 16 188 Q 33 214 60 232 Q 70 239 68 250 L 64 271 Q 64 272 64 273 Q 65 287 79 288 L 209 288 Q 223 287 224 273 Q 224 272 224 271 L 220 250 L 220 250 Z M 64 144 Q 64 130 73 121 L 73 121 Q 82 112 96 112 Q 110 112 119 121 Q 128 130 128 144 Q 128 158 119 167 Q 110 176 96 176 Q 82 176 73 167 Q 64 158 64 144 L 64 144 Z M 192 112 Q 206 112 215 121 L 215 121 Q 224 130 224 144 Q 224 158 215 167 Q 206 176 192 176 Q 178 176 169 167 Q 160 158 160 144 Q 160 130 169 121 Q 178 112 192 112 L 192 112 Z"/>
</svg>
