<svg xmlns="http://www.w3.org/2000/svg" viewBox="0 0 640 416">
    <path d="M 0 48 Q 1 28 14 14 L 14 14 Q 28 1 48 0 L 368 0 Q 388 1 402 14 Q 415 28 416 48 L 416 96 L 467 96 Q 493 96 512 115 L 589 192 Q 608 211 608 237 L 608 256 L 608 288 L 608 352 Q 622 352 631 361 Q 640 370 640 384 Q 640 398 631 407 Q 622 416 608 416 L 576 416 L 575 416 Q 568 374 538 348 Q 507 321 464 320 Q 421 321 390 348 Q 360 374 353 416 L 287 416 Q 280 374 250 348 Q 219 321 176 320 Q 133 321 102 348 Q 72 374 65 416 L 48 416 Q 28 415 14 402 Q 1 388 0 368 L 0 48 L 0 48 Z M 416 256 L 544 256 L 544 237 L 467 160 L 416 160 L 416 256 L 416 256 Z M 257 79 Q 240 65 223 79 Q 209 96 223 113 L 262 152 L 96 152 Q 74 154 72 176 Q 74 198 96 200 L 262 200 L 223 239 Q 209 256 223 273 Q 240 287 257 273 L 337 193 Q 351 176 337 159 L 257 79 L 257 79 Z"/>
</svg>
