<svg xmlns="http://www.w3.org/2000/svg" viewBox="0 0 512 320">
    <path d="M 448 160 Q 448 134 435 112 L 435 112 Q 422 90 400 77 Q 377 64 352 64 Q 327 64 304 77 Q 282 90 269 112 Q 256 134 256 160 Q 256 186 269 208 Q 282 230 304 243 Q 327 256 352 256 Q 377 256 400 243 Q 422 230 435 208 Q 448 186 448 160 L 448 160 Z M 192 160 Q 192 117 213 80 L 213 80 Q 235 43 272 21 Q 310 0 352 0 Q 394 0 432 21 Q 469 43 491 80 Q 512 117 512 160 Q 512 203 491 240 Q 469 277 432 299 Q 394 320 352 320 Q 310 320 272 299 Q 235 277 213 240 Q 192 203 192 160 L 192 160 Z M 32 128 Q 46 128 55 137 L 55 137 Q 64 146 64 160 Q 64 174 55 183 Q 46 192 32 192 Q 18 192 9 183 Q 0 174 0 160 Q 0 146 9 137 Q 18 128 32 128 L 32 128 Z"/>
</svg>
