<svg xmlns="http://www.w3.org/2000/svg" viewBox="0 0 448 513">
    <path d="M 230 2 L 382 42 Q 396 46 399 60 Q 402 74 392 83 L 368 104 Q 368 105 368 107 L 368 128 Q 368 145 353 153 Q 335 162 302 169 Q 269 177 224 177 Q 179 177 146 169 Q 113 162 95 153 Q 80 145 80 128 L 80 107 Q 80 105 80 104 L 56 83 Q 46 74 49 60 Q 52 46 66 42 L 218 2 Q 224 0 230 2 L 230 2 Z M 227 50 Q 224 48 221 50 L 189 62 Q 184 65 184 70 Q 184 84 191 101 Q 199 118 221 128 Q 224 130 227 128 Q 249 118 257 101 Q 264 84 264 70 Q 264 65 259 62 L 227 50 L 227 50 Z M 208 417 L 188 376 Q 184 368 188 361 Q 193 353 202 353 L 246 353 Q 255 353 260 361 Q 264 368 260 376 L 240 417 L 252 466 L 315 361 Q 320 353 329 354 Q 381 361 414 398 Q 447 435 448 487 Q 446 511 422 513 L 256 513 L 256 513 L 192 513 L 192 513 L 26 513 Q 2 511 0 487 Q 1 435 34 398 Q 67 361 119 354 Q 128 353 133 361 L 196 466 L 208 417 L 208 417 Z M 352 409 Q 346 409 344 415 L 339 431 L 322 431 Q 316 431 314 437 Q 313 442 317 446 L 331 456 L 326 472 Q 324 478 329 481 Q 333 484 338 481 L 352 471 L 366 481 Q 371 484 376 481 Q 380 478 378 472 L 373 456 L 387 446 Q 391 442 390 437 Q 388 431 382 431 L 365 431 L 360 414 Q 358 409 352 409 L 352 409 Z"/>
</svg>
