<svg xmlns="http://www.w3.org/2000/svg" viewBox="0 0 587 523">
    <path d="M 96 0 L 146 0 Q 160 0 170 11 L 384 256 L 192 256 L 96 64 L 96 176 Q 95 196 82 210 Q 68 223 48 224 Q 28 223 14 210 Q 1 196 0 176 L 0 160 Q 1 145 16 144 Q 31 145 32 160 L 32 176 Q 33 191 48 192 Q 63 191 64 176 L 64 32 Q 64 18 73 9 Q 82 0 96 0 L 96 0 Z M 96 432 Q 97 387 136 363 Q 176 341 216 363 Q 255 387 256 432 Q 255 477 216 501 Q 176 523 136 501 Q 97 477 96 432 L 96 432 Z M 496 352 Q 541 353 565 392 Q 587 432 565 472 Q 541 511 496 512 Q 451 511 427 472 Q 405 432 427 392 Q 451 353 496 352 L 496 352 Z"/>
</svg>
