<svg xmlns="http://www.w3.org/2000/svg" viewBox="0 0 512 320">
    <path d="M 96 0 L 32 0 Q 18 0 9 9 Q 0 18 0 32 L 0 224 Q 1 265 28 292 Q 55 319 96 320 L 288 320 Q 329 319 356 292 Q 383 265 384 224 L 400 224 Q 448 223 479 191 Q 511 160 512 112 Q 511 64 479 33 Q 448 1 400 0 L 352 0 L 160 0 L 160 64 Q 160 78 151 87 Q 142 96 128 96 Q 114 96 105 87 Q 96 78 96 64 L 96 0 L 96 0 Z M 384 160 L 384 64 L 400 64 Q 420 65 434 78 Q 447 92 448 112 Q 447 132 434 146 Q 420 159 400 160 L 384 160 L 384 160 Z"/>
</svg>
