<svg xmlns="http://www.w3.org/2000/svg" viewBox="0 0 576 386">
    <path d="M 576 193 Q 575 271 539 334 L 488 294 Q 511 248 512 193 Q 510 112 463 53 Q 455 42 456 29 Q 457 17 468 8 Q 479 0 491 1 Q 504 3 513 13 Q 574 89 576 193 L 576 193 Z M 464 193 Q 464 231 449 264 L 396 222 Q 400 208 400 193 Q 399 149 372 118 Q 363 108 363 95 Q 364 82 374 73 Q 384 64 397 65 Q 410 66 419 76 Q 462 124 464 193 L 464 193 Z M 288 137 Q 308 137 323 149 L 323 149 Q 338 161 343 180 L 288 137 L 288 137 L 288 137 Z M 124 130 L 178 173 Q 176 183 176 193 Q 177 237 205 268 Q 213 278 213 291 Q 212 304 202 313 Q 192 322 179 321 Q 166 320 157 310 Q 114 262 112 193 Q 112 160 124 130 L 124 130 Z M 33 59 L 84 100 Q 64 143 64 193 Q 66 274 113 333 Q 121 344 120 357 Q 119 369 108 378 Q 97 386 85 385 Q 72 383 63 373 Q 2 297 0 193 Q 1 120 33 59 L 33 59 Z"/>
</svg>
