<svg xmlns="http://www.w3.org/2000/svg" viewBox="0 0 480 256">
    <path d="M 160 16 Q 161 1 176 0 Q 210 1 233 23 Q 255 46 256 80 L 256 96 Q 255 111 240 112 Q 206 111 183 89 Q 161 66 160 32 L 160 16 L 160 16 Z M 32 56 Q 34 34 56 32 L 104 32 Q 126 34 128 56 Q 126 78 104 80 L 56 80 Q 34 78 32 56 L 32 56 Z M 0 128 Q 2 106 24 104 L 136 104 Q 158 106 160 128 Q 158 150 136 152 L 24 152 Q 2 150 0 128 L 0 128 Z M 56 176 L 104 176 Q 126 178 128 200 Q 126 222 104 224 L 56 224 Q 34 222 32 200 Q 34 178 56 176 L 56 176 Z M 288 0 Q 322 1 345 23 L 345 23 Q 367 46 368 80 L 368 96 Q 367 111 352 112 Q 318 111 295 89 Q 273 66 272 32 L 272 16 Q 273 1 288 0 L 288 0 Z M 384 16 Q 385 1 400 0 Q 434 1 457 23 Q 479 46 480 80 L 480 96 Q 479 111 464 112 Q 430 111 407 89 Q 385 66 384 32 L 384 16 L 384 16 Z M 464 144 Q 479 145 480 160 L 480 176 Q 479 210 457 233 Q 434 255 400 256 Q 385 255 384 240 L 384 224 Q 385 190 407 167 Q 430 145 464 144 L 464 144 Z M 368 160 L 368 176 Q 367 210 345 233 Q 322 255 288 256 Q 273 255 272 240 L 272 224 Q 273 190 295 167 Q 318 145 352 144 Q 367 145 368 160 L 368 160 Z M 240 144 Q 255 145 256 160 L 256 176 Q 255 210 233 233 Q 210 255 176 256 Q 161 255 160 240 L 160 224 Q 161 190 183 167 Q 206 145 240 144 L 240 144 Z"/>
</svg>
