<svg xmlns="http://www.w3.org/2000/svg" viewBox="0 0 576 352">
    <path d="M 55 151 Q 45 160 32 160 L 32 160 Q 19 160 9 151 Q 0 141 0 128 Q 0 115 9 105 L 105 9 Q 115 0 128 0 Q 141 0 151 9 L 247 105 Q 256 115 256 128 Q 256 141 247 151 Q 237 160 224 160 Q 211 160 201 151 L 160 109 L 160 320 Q 160 334 151 343 Q 142 352 128 352 Q 114 352 105 343 Q 96 334 96 320 L 96 109 L 55 151 L 55 151 Z M 375 151 Q 365 160 352 160 L 352 160 Q 339 160 329 151 Q 320 141 320 128 Q 320 115 329 105 L 425 9 Q 435 0 448 0 Q 461 0 471 9 L 567 105 Q 576 115 576 128 Q 576 141 567 151 Q 557 160 544 160 Q 531 160 521 151 L 480 109 L 480 320 Q 480 334 471 343 Q 462 352 448 352 Q 434 352 425 343 Q 416 334 416 320 L 416 109 L 375 151 L 375 151 Z"/>
</svg>
