<svg xmlns="http://www.w3.org/2000/svg" viewBox="0 0 522 304">
    <path d="M 229 0 Q 244 1 245 16 Q 244 31 229 32 Q 214 31 213 16 Q 214 1 229 0 L 229 0 Z M 261 144 Q 276 145 277 160 Q 276 175 261 176 Q 246 175 245 160 Q 246 145 261 144 L 261 144 Z M 245 224 Q 246 209 261 208 Q 276 209 277 224 Q 276 239 261 240 Q 246 239 245 224 L 245 224 Z M 261 272 Q 276 273 277 288 Q 276 303 261 304 Q 246 303 245 288 Q 246 273 261 272 L 261 272 Z M 277 16 Q 278 1 293 0 Q 308 1 309 16 Q 308 31 293 32 Q 278 31 277 16 L 277 16 Z M 85 32 Q 107 34 109 56 L 109 96 L 158 117 Q 149 137 149 160 Q 149 163 149 166 L 76 134 L 20 110 Q 0 99 7 79 Q 17 59 38 66 L 61 76 L 61 56 Q 63 34 85 32 L 85 32 Z M 373 160 Q 373 137 364 117 L 413 96 L 413 56 Q 415 34 437 32 Q 459 34 461 56 L 461 76 L 484 66 Q 505 59 515 79 Q 522 100 502 110 L 446 134 L 373 166 Q 373 163 373 160 L 373 160 Z"/>
</svg>
