<svg xmlns="http://www.w3.org/2000/svg" viewBox="0 0 512 512">
    <path d="M 507 422 Q 512 412 512 400 Q 511 380 498 366 Q 484 353 464 352 Q 445 352 433 364 L 507 422 L 507 422 Z M 381 324 Q 415 273 416 208 Q 414 120 355 61 Q 296 2 208 0 Q 162 0 123 18 Q 83 36 55 68 L 156 147 Q 178 129 208 128 Q 242 129 265 151 Q 287 174 288 208 Q 288 228 280 244 L 381 324 L 381 324 Z M 253 224 Q 256 216 256 208 Q 255 188 242 174 Q 228 161 208 160 Q 194 160 182 168 L 253 224 L 253 224 Z M 444 497 L 402 463 Q 397 464 392 464 L 352 464 L 352 424 L 336 411 Q 279 447 208 448 Q 126 447 64 400 L 64 464 Q 65 484 78 498 Q 92 511 112 512 L 320 512 L 352 512 L 392 512 Q 421 512 444 497 L 444 497 Z M 309 390 L 8 152 Q 0 179 0 208 Q 2 296 61 355 Q 120 414 208 416 Q 264 415 309 390 L 309 390 Z"/>
</svg>
