<svg xmlns="http://www.w3.org/2000/svg" viewBox="0 0 224 218">
    <path d="M 83 167 Q 50 149 48 110 Q 48 86 63 69 L 78 84 Q 83 89 89 86 Q 95 84 96 77 L 96 16 Q 95 7 85 6 L 25 6 Q 18 6 15 12 Q 13 18 18 24 L 29 35 Q 1 65 0 110 Q 0 143 17 169 Q 33 195 61 210 Q 81 218 93 199 Q 101 179 83 167 L 83 167 Z M 176 108 Q 175 132 161 149 L 146 134 Q 140 129 134 132 Q 128 134 128 141 L 128 202 Q 129 211 138 212 L 199 212 Q 206 212 208 206 Q 211 200 206 195 L 195 183 Q 223 153 224 108 Q 223 75 207 49 Q 190 23 163 8 Q 142 0 130 19 Q 122 39 141 51 Q 174 69 176 108 L 176 108 Z"/>
</svg>
