<svg xmlns="http://www.w3.org/2000/svg" viewBox="0 0 512 512">
    <path d="M 256 0 Q 178 1 117 41 Q 119 46 121 51 Q 127 63 128 81 Q 127 115 104 137 Q 81 159 48 160 Q 34 160 21 155 Q 0 202 0 256 Q 1 328 35 385 Q 69 443 127 477 Q 184 511 256 512 Q 328 511 385 477 Q 443 443 477 385 Q 511 328 512 256 Q 511 184 477 127 Q 443 69 385 35 Q 328 1 256 0 L 256 0 Z M 196 411 Q 185 421 173 412 Q 163 401 172 389 Q 184 375 205 364 Q 226 353 256 352 Q 286 353 307 364 Q 328 375 340 389 Q 349 401 339 412 Q 327 421 316 411 Q 307 401 292 392 Q 277 384 256 384 Q 235 384 220 392 Q 205 401 196 411 L 196 411 Z"/>
</svg>
