<svg xmlns="http://www.w3.org/2000/svg" viewBox="0 0 354 149">
    <path d="M 116 10 Q 126 21 116 32 L 109 40 Q 72 76 22 84 L 20 85 Q 5 86 1 72 Q 0 57 14 53 L 17 53 Q 57 46 86 17 L 94 10 Q 105 0 116 10 L 116 10 Z M 97 85 Q 110 85 119 94 L 119 94 Q 128 103 129 117 Q 128 131 119 140 Q 110 149 97 149 Q 83 149 74 140 Q 65 131 65 117 Q 65 103 74 94 Q 83 85 97 85 L 97 85 Z M 257 85 Q 270 85 279 94 L 279 94 Q 288 103 289 117 Q 288 131 279 140 Q 270 149 257 149 Q 243 149 234 140 Q 225 131 225 117 Q 225 103 234 94 Q 243 85 257 85 L 257 85 Z M 238 32 Q 228 21 238 10 Q 249 0 260 10 L 268 17 Q 297 46 337 53 L 340 53 Q 354 57 353 72 Q 349 86 335 85 L 332 84 Q 282 76 245 40 L 238 32 L 238 32 Z"/>
</svg>
