<svg xmlns="http://www.w3.org/2000/svg" viewBox="0 0 448 480">
    <path d="M 32 48 Q 33 28 46 14 L 46 14 Q 60 1 80 0 L 176 0 L 176 144 Q 176 153 185 158 Q 193 162 201 157 L 240 131 L 279 157 Q 287 162 296 158 Q 304 153 304 144 L 304 0 L 400 0 Q 420 1 434 14 Q 447 28 448 48 L 448 240 Q 447 260 434 274 Q 420 287 400 288 L 80 288 Q 60 287 46 274 Q 33 260 32 240 L 32 48 L 32 48 Z M 0 432 Q 0 424 3 416 L 93 416 Q 96 424 96 432 Q 95 452 82 466 Q 68 479 48 480 Q 28 479 14 466 Q 0 452 0 432 L 0 432 Z M 288 432 Q 288 424 291 416 L 381 416 Q 384 424 384 432 Q 383 452 370 466 Q 356 479 336 480 Q 316 479 302 466 Q 288 452 288 432 L 288 432 Z"/>
</svg>
