<svg xmlns="http://www.w3.org/2000/svg" viewBox="0 0 449 437">
    <path d="M 0 373 L 0 196 L 224 0 L 448 196 L 449 373 Q 448 400 430 418 Q 412 436 385 437 L 64 437 Q 37 436 19 418 Q 1 400 0 373 L 0 373 Z M 192 165 L 192 213 L 144 213 Q 129 214 128 229 L 128 261 Q 129 276 144 277 L 192 277 L 192 325 Q 193 340 208 341 L 240 341 Q 255 340 256 325 L 256 277 L 304 277 Q 319 276 320 261 L 320 229 Q 319 214 304 213 L 256 213 L 256 165 Q 255 150 240 149 L 208 149 Q 193 150 192 165 L 192 165 Z"/>
</svg>
