<svg xmlns="http://www.w3.org/2000/svg" viewBox="0 0 448 414">
    <path d="M 185 75 L 153 121 L 355 175 L 350 119 Q 349 108 338 105 L 203 69 Q 192 66 185 75 L 185 75 Z M 85 108 L 133 38 Q 148 17 171 9 Q 194 0 219 7 L 355 43 Q 380 50 396 69 Q 411 88 414 114 L 421 198 Q 448 220 440 257 L 430 295 L 413 357 L 405 388 Q 401 401 390 407 Q 379 414 366 410 L 350 406 Q 337 402 331 391 Q 325 380 328 367 L 336 336 L 89 270 L 81 301 Q 77 314 66 320 Q 55 327 41 323 L 26 319 Q 13 315 6 304 Q 0 293 3 280 L 12 249 L 28 187 L 39 149 Q 50 114 85 108 L 85 108 Z M 133 199 Q 136 177 116 169 Q 94 166 86 186 Q 83 208 103 216 Q 125 219 133 199 L 133 199 Z M 351 282 Q 364 286 375 276 Q 385 266 381 253 Q 377 239 363 236 Q 341 232 334 253 Q 330 274 351 282 L 351 282 Z"/>
</svg>
