<svg xmlns="http://www.w3.org/2000/svg" viewBox="0 0 416 354">
    <path d="M 273 7 Q 261 0 249 3 L 249 3 Q 236 6 229 17 Q 222 29 225 41 Q 228 54 239 61 L 285 90 L 192 90 L 192 90 L 192 90 L 56 90 Q 34 92 32 114 Q 34 136 56 138 L 180 138 Q 191 139 192 150 Q 191 161 180 162 L 24 162 Q 2 164 0 186 Q 2 208 24 210 L 180 210 Q 191 211 192 222 Q 191 233 180 234 L 56 234 Q 34 236 32 258 Q 34 280 56 282 L 180 282 Q 191 283 192 294 Q 191 305 180 306 L 88 306 Q 66 308 64 330 Q 66 352 88 354 L 264 354 Q 329 352 371 309 Q 414 267 416 202 L 416 194 Q 416 148 394 109 Q 372 69 333 45 L 273 7 L 273 7 Z"/>
</svg>
