<svg xmlns="http://www.w3.org/2000/svg" viewBox="0 0 448 448">
    <path d="M 256 96 Q 256 70 269 48 L 269 48 Q 282 26 304 13 Q 327 0 352 0 Q 377 0 400 13 Q 422 26 435 48 Q 448 70 448 96 Q 448 122 435 144 Q 422 166 400 179 Q 377 192 352 192 Q 327 192 304 179 Q 282 166 269 144 Q 256 122 256 96 L 256 96 Z M 0 224 Q 0 198 13 176 L 13 176 Q 26 154 48 141 Q 71 128 96 128 Q 121 128 144 141 Q 166 154 179 176 Q 192 198 192 224 Q 192 250 179 272 Q 166 294 144 307 Q 121 320 96 320 Q 71 320 48 307 Q 26 294 13 272 Q 0 250 0 224 L 0 224 Z M 352 256 Q 378 256 400 269 L 400 269 Q 422 282 435 304 Q 448 327 448 352 Q 448 377 435 400 Q 422 422 400 435 Q 378 448 352 448 Q 326 448 304 435 Q 282 422 269 400 Q 256 377 256 352 Q 256 327 269 304 Q 282 282 304 269 Q 326 256 352 256 L 352 256 Z"/>
</svg>
