<svg xmlns="http://www.w3.org/2000/svg" viewBox="0 0 480 480">
    <path d="M 424 22 Q 393 1 352 0 Q 305 1 271 29 Q 243 52 211 72 Q 178 93 144 102 Q 95 115 56 152 Q 0 211 0 288 Q 0 365 56 424 Q 115 480 192 480 Q 269 480 328 424 Q 365 385 378 337 Q 387 302 408 269 Q 428 237 451 209 Q 479 175 480 128 Q 479 88 458 56 L 425 89 Q 408 103 391 89 Q 377 72 391 55 L 424 22 L 424 22 Z M 304 272 Q 319 273 320 288 Q 319 342 283 379 Q 246 415 192 416 Q 177 415 176 400 Q 177 385 192 384 Q 233 383 260 356 Q 287 329 288 288 Q 289 273 304 272 L 304 272 Z"/>
</svg>
