<svg xmlns="http://www.w3.org/2000/svg" viewBox="0 0 640 519">
    <path d="M 69 11 L 117 43 Q 134 57 124 76 Q 110 93 91 83 L 43 51 Q 26 37 36 18 Q 50 1 69 11 L 69 11 Z M 597 51 L 549 83 Q 530 94 516 76 Q 505 57 523 43 L 571 11 Q 590 0 604 18 Q 615 37 597 51 L 597 51 Z M 24 167 L 88 167 Q 110 169 112 191 Q 110 213 88 215 L 24 215 Q 2 213 0 191 Q 2 169 24 167 L 24 167 Z M 552 167 L 616 167 Q 638 169 640 191 Q 638 213 616 215 L 552 215 Q 530 213 528 191 Q 530 169 552 167 L 552 167 Z M 117 339 L 69 371 Q 50 382 36 364 Q 25 345 43 331 L 91 299 Q 110 288 124 306 Q 135 325 117 339 L 117 339 Z M 549 299 L 597 331 Q 614 345 604 364 Q 590 381 571 371 L 523 339 Q 506 325 516 306 Q 530 289 549 299 L 549 299 Z M 400 439 Q 399 473 377 496 L 377 496 Q 354 518 320 519 Q 286 518 263 496 Q 241 473 240 439 L 240 391 L 400 391 L 400 439 L 400 439 Z"/>
</svg>
