<svg xmlns="http://www.w3.org/2000/svg" viewBox="0 0 276 295">
    <path d="M 145 5 Q 147 0 152 0 L 152 0 Q 157 0 160 5 L 186 71 Q 189 78 196 76 L 264 55 Q 270 54 273 58 Q 276 62 273 67 L 251 106 L 214 159 Q 171 173 157 219 L 151 241 Q 148 241 147 243 L 94 292 Q 90 295 85 293 Q 81 291 81 285 L 86 214 Q 86 207 79 205 L 8 194 Q 3 193 2 188 Q 0 183 5 180 L 64 140 Q 69 135 66 129 L 31 67 Q 28 62 31 58 Q 35 54 40 55 L 109 76 Q 115 78 118 72 L 145 5 L 145 5 Z M 188 228 Q 190 219 194 212 Q 190 219 188 228 L 188 228 L 188 228 Z"/>
</svg>
