<svg xmlns="http://www.w3.org/2000/svg" viewBox="0 0 640 288">
    <path d="M 192 48 Q 192 67 180 80 Q 192 93 192 112 Q 192 131 180 144 Q 192 157 192 176 Q 192 195 180 208 Q 192 221 192 240 Q 191 260 178 274 Q 164 287 144 288 Q 127 288 115 278 Q 102 268 98 253 Q 89 256 80 256 Q 60 255 46 242 Q 33 228 32 208 Q 32 199 35 190 Q 20 186 10 173 Q 0 161 0 144 Q 0 127 10 115 Q 20 102 35 98 Q 32 89 32 80 Q 33 60 46 46 Q 60 33 80 32 Q 89 32 98 35 Q 102 20 115 10 Q 127 0 144 0 Q 164 1 178 14 Q 191 28 192 48 L 192 48 Z M 448 48 Q 449 28 462 14 L 462 14 Q 476 1 496 0 Q 513 0 525 10 Q 538 20 542 35 Q 551 32 560 32 Q 580 33 594 46 Q 607 60 608 80 Q 608 89 605 98 Q 620 102 630 115 Q 640 127 640 144 Q 640 161 630 173 Q 620 186 605 190 Q 608 199 608 208 Q 607 228 594 242 Q 580 255 560 256 Q 551 256 542 253 Q 538 268 525 278 Q 513 288 496 288 Q 476 287 462 274 Q 449 260 448 240 Q 448 221 460 208 Q 448 195 448 176 Q 448 157 460 144 Q 448 131 448 112 Q 448 93 460 80 Q 448 67 448 48 L 448 48 Z"/>
</svg>
