<svg xmlns="http://www.w3.org/2000/svg" viewBox="0 0 498 297">
    <path d="M 73 137 Q 109 136 128 105 Q 146 73 128 41 Q 109 10 73 9 Q 37 10 18 41 Q 0 73 18 105 Q 37 136 73 137 L 73 137 Z M 73 297 Q 109 296 128 265 Q 146 233 128 201 Q 109 170 73 169 Q 37 170 18 201 Q 0 233 18 265 Q 37 296 73 297 L 73 297 Z M 297 73 Q 296 37 265 18 Q 233 0 201 18 Q 170 37 169 73 Q 170 109 201 128 Q 233 146 265 128 Q 296 109 297 73 L 297 73 Z M 425 137 Q 461 136 480 105 Q 498 73 480 41 Q 461 10 425 9 Q 389 10 370 41 Q 352 73 370 105 Q 389 136 425 137 L 425 137 Z"/>
</svg>
