<svg xmlns="http://www.w3.org/2000/svg" viewBox="0 0 456 462">
    <path d="M 313 19 Q 333 0 359 7 Q 386 14 393 41 Q 400 67 381 87 Q 361 106 335 99 Q 309 91 301 65 Q 294 39 313 19 L 313 19 Z M 360 200 Q 361 173 384 158 Q 408 146 432 158 Q 455 173 456 200 Q 455 227 432 242 Q 408 254 384 242 Q 361 227 360 200 L 360 200 Z M 152 408 Q 153 381 176 366 Q 200 354 224 366 Q 247 381 248 408 Q 247 435 224 450 Q 200 462 176 450 Q 153 435 152 408 L 152 408 Z M 19 313 Q 39 294 65 301 Q 91 309 99 335 Q 106 361 87 381 Q 67 400 41 393 Q 14 386 7 359 Q 0 333 19 313 L 19 313 Z M 313 313 Q 333 293 360 300 Q 387 307 395 334 Q 401 361 381 381 Q 361 400 335 393 Q 309 386 301 359 Q 294 333 313 313 L 313 313 Z"/>
</svg>
