<svg xmlns="http://www.w3.org/2000/svg" viewBox="0 0 224 416">
    <path d="M 0 48 Q 1 28 14 14 L 14 14 Q 28 1 48 0 L 176 0 Q 196 1 210 14 Q 223 28 224 48 L 224 64 Q 223 105 196 132 Q 169 159 128 160 L 96 160 Q 55 159 28 132 Q 1 105 0 64 L 0 48 L 0 48 Z M 77 67 L 71 46 Q 70 40 64 40 Q 58 40 57 46 L 51 67 L 30 73 Q 24 74 24 80 Q 24 86 30 87 L 51 93 L 57 115 Q 58 120 64 120 Q 70 120 71 115 L 77 93 L 99 87 Q 104 86 104 80 Q 104 74 99 73 L 77 67 L 77 67 Z M 48 320 L 176 320 Q 190 320 199 329 Q 208 338 208 352 L 208 416 L 80 416 L 80 368 Q 79 353 64 352 Q 49 353 48 368 L 48 416 L 16 416 L 16 352 Q 16 338 25 329 Q 34 320 48 320 L 48 320 Z M 176 368 Q 175 353 160 352 Q 145 353 144 368 Q 145 383 160 384 Q 175 383 176 368 L 176 368 Z"/>
</svg>
