<svg xmlns="http://www.w3.org/2000/svg" viewBox="0 0 416 388">
    <path d="M 107 52 Q 65 114 64 194 Q 65 274 107 336 Q 114 348 111 360 Q 109 373 98 381 Q 86 388 74 385 Q 61 383 53 372 Q 1 294 0 194 Q 1 94 53 16 Q 61 5 74 3 Q 86 0 98 7 Q 109 15 111 28 Q 114 40 107 52 L 107 52 Z M 309 52 Q 302 40 305 28 L 305 28 Q 307 15 318 7 Q 330 0 342 3 Q 355 5 363 16 Q 415 94 416 194 Q 415 294 363 372 Q 355 383 342 385 Q 330 388 318 381 Q 307 373 305 360 Q 302 348 309 336 Q 351 274 352 194 Q 351 114 309 52 L 309 52 Z"/>
</svg>
