<svg xmlns="http://www.w3.org/2000/svg" viewBox="0 0 576 384">
    <path d="M 64 0 Q 37 1 19 19 L 19 19 Q 1 37 0 64 L 0 320 Q 1 347 19 365 Q 37 383 64 384 L 512 384 Q 539 383 557 365 Q 575 347 576 320 L 576 64 Q 575 37 557 19 Q 539 1 512 0 L 64 0 L 64 0 Z M 112 160 L 304 160 Q 319 161 320 176 Q 319 191 304 192 L 112 192 Q 97 191 96 176 Q 97 161 112 160 L 112 160 Z M 96 272 Q 97 257 112 256 L 464 256 Q 479 257 480 272 Q 479 287 464 288 L 112 288 Q 97 287 96 272 L 96 272 Z M 408 96 L 456 96 Q 478 98 480 120 L 480 168 Q 478 190 456 192 L 408 192 Q 386 190 384 168 L 384 120 Q 386 98 408 96 L 408 96 Z"/>
</svg>
