<svg xmlns="http://www.w3.org/2000/svg" viewBox="0 0 448 512">
    <path d="M 0 96 Q 1 55 28 28 L 28 28 Q 55 1 96 0 L 384 0 L 416 0 Q 430 0 439 9 Q 448 18 448 32 L 448 352 Q 448 366 439 375 Q 430 384 416 384 L 352 384 L 256 384 L 96 384 Q 82 384 73 393 Q 64 402 64 416 Q 64 430 73 439 Q 82 448 96 448 L 256 448 L 352 448 L 416 448 Q 430 448 439 457 Q 448 466 448 480 Q 448 494 439 503 Q 430 512 416 512 L 384 512 L 96 512 Q 55 511 28 484 Q 1 457 0 416 L 0 96 L 0 96 Z M 208 80 L 208 128 L 160 128 Q 145 129 144 144 L 144 176 Q 145 191 160 192 L 208 192 L 208 304 Q 209 319 224 320 L 256 320 Q 271 319 272 304 L 272 192 L 320 192 Q 335 191 336 176 L 336 144 Q 335 129 320 128 L 272 128 L 272 80 Q 271 65 256 64 L 224 64 Q 209 65 208 80 L 208 80 Z"/>
</svg>
