<svg xmlns="http://www.w3.org/2000/svg" viewBox="0 0 640 455">
    <path d="M 69 11 Q 50 0 36 18 Q 25 37 43 51 L 91 83 Q 110 94 124 76 Q 135 57 117 43 L 69 11 L 69 11 Z M 597 51 Q 614 37 604 18 Q 590 1 571 11 L 523 43 Q 506 57 516 76 Q 530 93 549 83 L 597 51 L 597 51 Z M 24 167 Q 2 169 0 191 Q 2 213 24 215 L 88 215 Q 110 213 112 191 Q 110 169 88 167 L 24 167 L 24 167 Z M 552 167 Q 530 169 528 191 Q 530 213 552 215 L 616 215 Q 638 213 640 191 Q 638 169 616 167 L 552 167 L 552 167 Z M 128 327 Q 114 327 105 336 L 105 336 Q 96 345 96 359 L 96 423 Q 96 437 105 446 Q 114 455 128 455 L 512 455 Q 526 455 535 446 Q 544 437 544 423 L 544 359 Q 544 345 535 336 Q 526 327 512 327 L 128 327 L 128 327 Z"/>
</svg>
