<svg xmlns="http://www.w3.org/2000/svg" viewBox="0 0 568 517">
    <path d="M 156 36 Q 172 48 166 69 L 144 127 Q 136 144 119 143 L 86 140 Q 65 205 86 270 L 119 267 Q 137 266 144 283 L 166 341 Q 172 362 156 374 L 112 402 Q 95 410 82 397 Q 33 343 16 274 Q 0 205 16 136 Q 33 67 82 13 Q 95 0 112 9 L 156 36 L 156 36 Z M 568 69 L 560 101 L 408 101 Q 393 100 392 85 Q 393 70 408 69 L 568 69 L 568 69 Z M 544 165 L 536 197 L 408 197 Q 393 196 392 181 Q 393 166 408 165 L 544 165 L 544 165 Z M 520 261 L 512 293 L 408 293 Q 393 292 392 277 Q 393 262 408 261 L 520 261 L 520 261 Z M 216 389 L 504 389 Q 524 390 538 403 Q 551 417 552 437 L 552 469 Q 551 489 538 503 Q 524 516 504 517 L 216 517 Q 196 516 182 503 Q 169 489 168 469 L 168 437 Q 169 417 182 403 Q 196 390 216 389 L 216 389 Z M 360 485 Q 374 485 383 476 L 383 476 Q 392 467 392 453 Q 392 439 383 430 Q 374 421 360 421 Q 346 421 337 430 Q 328 439 328 453 Q 328 467 337 476 Q 346 485 360 485 L 360 485 Z"/>
</svg>
