<svg xmlns="http://www.w3.org/2000/svg" viewBox="0 0 648 248">
    <path d="M 132 0 Q 146 1 153 13 Q 180 59 225 85 Q 270 112 324 112 Q 378 112 423 85 Q 468 59 495 13 Q 502 1 516 0 Q 530 1 537 12 Q 556 44 579 72 Q 602 99 628 109 Q 648 118 643 139 Q 633 159 612 154 Q 574 138 548 109 L 548 248 L 484 248 L 484 100 Q 465 116 444 128 L 444 248 L 396 248 L 396 149 Q 373 156 348 159 L 348 248 L 300 248 L 300 159 Q 275 156 252 149 L 252 248 L 204 248 L 204 128 Q 183 116 164 100 L 164 248 L 100 248 L 100 109 Q 74 138 36 154 Q 15 159 5 139 Q 0 118 20 109 Q 46 98 69 72 Q 92 44 111 12 Q 118 1 132 0 L 132 0 Z"/>
</svg>
