<svg xmlns="http://www.w3.org/2000/svg" viewBox="0 0 448 513">
    <path d="M 448 402 L 448 353 L 448 241 L 448 33 Q 448 19 439 10 Q 430 1 416 1 Q 406 0 376 15 Q 345 29 318 67 Q 290 106 288 177 L 288 277 L 448 402 L 448 402 Z M 210 216 Q 224 195 224 169 Q 224 159 222 150 L 192 14 Q 188 1 174 1 Q 161 4 160 17 L 160 151 Q 159 160 150 161 Q 142 160 140 152 L 128 16 Q 126 2 112 1 Q 98 2 96 16 L 87 119 L 211 216 L 210 216 Z M 64 101 L 64 17 Q 63 4 50 1 Q 36 1 32 14 L 21 67 L 64 101 L 64 101 Z M 144 286 L 0 173 Q 2 207 24 230 Q 47 253 80 257 L 80 481 Q 80 495 89 504 Q 98 513 112 513 Q 126 513 135 504 Q 144 495 144 481 L 144 286 L 144 286 Z"/>
</svg>
