<svg xmlns="http://www.w3.org/2000/svg" viewBox="0 0 449 437">
    <path d="M 0 196 L 0 373 Q 1 400 19 418 Q 37 436 64 437 L 385 437 Q 412 436 430 418 Q 448 400 449 373 L 448 196 L 224 0 L 0 196 L 0 196 Z M 208 149 L 240 149 Q 255 150 256 165 L 256 213 L 304 213 Q 319 214 320 229 L 320 261 Q 319 276 304 277 L 256 277 L 256 325 Q 255 340 240 341 L 208 341 Q 193 340 192 325 L 192 277 L 144 277 Q 129 276 128 261 L 128 229 Q 129 214 144 213 L 192 213 L 192 165 Q 193 150 208 149 L 208 149 Z"/>
</svg>
