<svg xmlns="http://www.w3.org/2000/svg" viewBox="0 0 470 469">
    <path d="M 429 258 L 388 269 Q 378 273 384 282 L 406 304 Q 419 318 419 336 Q 419 354 406 368 Q 390 383 368 381 L 293 370 Q 283 371 286 380 Q 297 396 295 414 Q 293 433 280 446 L 276 450 Q 262 463 244 466 Q 226 469 208 461 L 177 446 Q 150 432 120 432 L 72 432 L 272 232 Q 286 215 272 198 Q 255 184 238 198 L 38 398 L 38 350 Q 38 320 25 293 L 9 262 Q 0 245 3 226 Q 6 208 20 194 L 24 190 Q 37 177 55 175 Q 74 174 90 184 Q 99 187 100 177 L 89 102 Q 86 80 102 64 Q 116 51 134 51 Q 152 51 166 64 L 188 86 Q 197 92 201 82 L 212 41 Q 217 23 231 12 Q 245 0 265 0 Q 294 1 310 24 L 320 39 Q 326 47 337 45 L 357 40 Q 390 33 414 56 Q 437 80 430 113 L 425 133 Q 423 144 431 150 L 446 160 Q 469 176 470 205 Q 470 225 458 239 Q 447 253 429 258 L 429 258 Z"/>
</svg>
