<svg xmlns="http://www.w3.org/2000/svg" viewBox="0 0 384 384">
    <path d="M 80 0 Q 46 1 23 23 L 23 23 Q 1 46 0 80 L 0 304 Q 1 338 23 361 Q 46 383 80 384 L 304 384 Q 338 383 361 361 Q 383 338 384 304 L 384 80 Q 383 46 361 23 Q 338 1 304 0 L 80 0 L 80 0 Z M 192 149 Q 217 149 231 170 Q 243 192 231 214 Q 217 235 192 235 Q 167 235 153 214 Q 141 192 153 170 Q 167 149 192 149 L 192 149 Z M 213 288 Q 214 270 229 260 Q 245 252 261 260 Q 277 270 277 288 Q 277 302 268 311 Q 259 320 245 320 Q 232 320 223 311 Q 214 302 213 288 L 213 288 Z M 139 256 Q 152 256 161 265 L 161 265 Q 170 274 171 288 Q 170 302 161 311 Q 152 320 139 320 Q 125 320 116 311 Q 107 302 107 288 Q 107 274 116 265 Q 125 256 139 256 L 139 256 Z M 213 96 Q 214 78 229 68 Q 245 60 261 68 Q 277 78 277 96 Q 277 110 268 119 Q 259 128 245 128 Q 232 128 223 119 Q 214 110 213 96 L 213 96 Z M 139 64 Q 152 64 161 73 L 161 73 Q 170 82 171 96 Q 170 110 161 119 Q 152 128 139 128 Q 125 128 116 119 Q 107 110 107 96 Q 107 82 116 73 Q 125 64 139 64 L 139 64 Z M 64 192 Q 64 178 73 169 L 73 169 Q 82 160 96 160 Q 110 160 119 169 Q 128 178 128 192 Q 128 206 119 215 Q 110 224 96 224 Q 82 224 73 215 Q 64 206 64 192 L 64 192 Z M 288 160 Q 302 160 311 169 L 311 169 Q 320 178 320 192 Q 320 206 311 215 Q 302 224 288 224 Q 274 224 265 215 Q 256 206 256 192 Q 256 178 265 169 Q 274 160 288 160 L 288 160 Z"/>
</svg>
