<svg xmlns="http://www.w3.org/2000/svg" viewBox="0 0 452 512">
    <path d="M 211 10 Q 210 10 210 10 L 210 10 Q 203 2 178 0 Q 152 2 134 36 Q 116 69 106 110 Q 147 126 226 128 Q 305 126 346 110 Q 336 69 318 36 Q 300 2 274 0 Q 249 2 242 10 Q 242 10 242 10 Q 241 10 241 10 Q 235 15 226 16 Q 217 15 211 10 L 211 10 Z M 31 102 Q 22 93 11 98 Q 0 105 3 117 Q 10 138 28 162 Q 47 186 75 207 Q 104 228 142 242 Q 180 256 226 256 Q 272 256 310 242 Q 348 228 377 207 Q 405 186 423 162 Q 442 138 449 117 Q 452 105 441 98 Q 429 93 421 102 Q 414 116 366 137 Q 319 158 226 160 Q 133 158 86 137 Q 38 116 31 102 L 31 102 Z M 103 384 Q 66 385 39 408 L 39 408 Q 13 431 7 468 L 6 476 Q 5 491 14 501 Q 23 512 38 512 L 414 512 Q 429 512 438 501 Q 447 491 446 476 L 445 468 Q 439 431 413 408 Q 387 385 349 384 L 103 384 L 103 384 Z"/>
</svg>
