<svg xmlns="http://www.w3.org/2000/svg" viewBox="0 0 288 288">
    <path d="M 144 288 Q 183 288 216 269 L 216 269 Q 249 250 269 216 Q 288 182 288 144 Q 288 106 269 72 Q 249 38 216 19 Q 183 0 144 0 Q 105 0 72 19 Q 39 38 19 72 Q 0 106 0 144 Q 0 182 19 216 Q 39 250 72 269 Q 105 288 144 288 L 144 288 Z M 163 77 L 219 133 Q 229 144 219 155 L 163 211 Q 152 221 141 211 Q 131 200 141 189 L 169 160 L 80 160 Q 65 159 64 144 Q 65 129 80 128 L 169 128 L 141 99 Q 131 88 141 77 Q 152 67 163 77 L 163 77 Z"/>
</svg>
