<svg xmlns="http://www.w3.org/2000/svg" viewBox="0 0 638 394">
    <path d="M 293 91 Q 306 88 318 91 L 318 217 L 279 227 L 125 269 L 63 285 Q 50 288 39 282 Q 28 276 24 263 L 11 216 Q 6 196 16 180 Q 26 163 45 157 Q 65 153 82 162 Q 98 172 104 191 L 108 207 L 263 165 L 259 150 Q 254 130 263 113 Q 273 97 292 91 L 293 91 Z M 6 135 Q 0 108 12 86 L 12 86 Q 25 64 51 56 L 237 7 Q 263 0 285 13 Q 307 26 315 52 L 317 58 Q 301 56 284 60 Q 256 69 240 91 Q 224 114 225 142 L 129 168 Q 116 143 91 131 Q 66 119 37 127 Q 20 131 8 141 L 6 135 L 6 135 Z M 542 202 Q 568 202 590 215 L 590 215 Q 612 228 625 250 Q 638 273 638 298 Q 638 323 625 346 Q 612 368 590 381 Q 568 394 542 394 Q 516 394 494 381 Q 472 368 459 346 Q 446 323 446 298 Q 446 273 459 250 Q 472 228 494 215 Q 516 202 542 202 L 542 202 Z"/>
</svg>
