<svg xmlns="http://www.w3.org/2000/svg" viewBox="0 0 304 439">
    <path d="M 304 160 L 176 160 Q 162 160 153 151 Q 144 142 144 128 L 144 0 L 304 160 L 304 160 Z M 192 304 Q 192 331 179 353 L 217 391 Q 231 408 217 425 Q 200 439 183 425 L 145 387 Q 123 400 96 400 Q 55 399 28 372 Q 1 345 0 304 Q 1 263 28 236 Q 55 209 96 208 Q 137 209 164 236 Q 191 263 192 304 L 192 304 Z M 96 352 Q 123 351 138 328 Q 150 304 138 280 Q 123 257 96 256 Q 69 257 54 280 Q 42 304 54 328 Q 69 351 96 352 L 96 352 Z"/>
</svg>
