<svg xmlns="http://www.w3.org/2000/svg" viewBox="0 0 512 428">
    <path d="M 276 20 Q 274 2 256 0 Q 238 2 236 20 L 236 34 Q 224 36 214 43 Q 190 55 188 86 Q 191 116 213 127 Q 231 137 248 141 L 250 142 Q 269 147 278 152 Q 285 157 284 160 Q 284 168 278 171 Q 270 176 257 176 Q 241 175 222 167 Q 218 166 214 165 Q 196 161 189 177 Q 185 195 202 203 Q 205 204 208 205 L 208 205 L 208 205 Q 220 210 236 213 L 236 228 Q 238 246 256 248 Q 274 246 276 228 L 276 214 Q 288 212 299 205 Q 322 192 324 160 Q 321 130 299 119 Q 281 108 262 104 L 262 103 Q 243 98 233 93 Q 227 89 228 86 Q 227 81 234 77 Q 243 72 256 72 Q 270 72 287 77 Q 305 80 311 63 Q 314 45 297 38 Q 287 36 276 34 L 276 20 L 276 20 Z M 64 268 L 48 268 Q 28 269 14 282 Q 1 296 0 316 L 0 380 Q 1 400 14 414 Q 28 427 48 428 L 464 428 Q 484 427 498 414 Q 511 400 512 380 L 512 316 Q 511 296 498 282 Q 484 269 464 268 L 448 268 Q 419 307 376 332 L 448 332 L 448 364 L 256 364 L 64 364 L 64 332 L 136 332 Q 94 307 64 268 L 64 268 Z"/>
</svg>
