<svg xmlns="http://www.w3.org/2000/svg" viewBox="0 0 352 451">
    <path d="M 191 391 Q 195 411 184 427 L 184 427 Q 173 443 153 447 Q 133 451 117 440 Q 101 429 97 409 L 95 398 Q 84 347 43 314 L 36 308 Q 1 279 0 233 L 0 208 L 0 160 L 0 122 Q 1 71 43 42 L 81 16 Q 106 0 135 0 L 232 0 Q 252 1 266 14 Q 279 28 280 48 Q 280 53 279 58 Q 310 70 312 104 Q 312 118 305 129 Q 322 132 333 145 Q 344 158 344 176 Q 343 199 326 213 Q 351 227 352 256 Q 351 276 338 290 Q 324 303 304 304 L 160 304 Q 181 339 189 379 L 191 391 L 191 391 Z"/>
</svg>
