<svg xmlns="http://www.w3.org/2000/svg" viewBox="0 0 320 320">
    <path d="M 160 320 Q 203 320 240 299 L 240 299 Q 277 277 299 240 Q 320 202 320 160 Q 320 118 299 80 Q 277 43 240 21 Q 203 0 160 0 Q 117 0 80 21 Q 43 43 21 80 Q 0 118 0 160 Q 0 202 21 240 Q 43 277 80 299 Q 117 320 160 320 L 160 320 Z M 104 96 Q 126 98 128 120 Q 126 142 104 144 Q 82 142 80 120 Q 82 98 104 96 L 104 96 Z M 192 120 Q 194 98 216 96 Q 238 98 240 120 Q 238 142 216 144 Q 194 142 192 120 L 192 120 Z M 97 197 Q 122 223 160 224 Q 199 223 224 197 Q 235 187 246 196 Q 256 207 247 219 Q 212 255 160 256 Q 108 255 73 219 Q 64 208 74 197 Q 85 187 97 197 L 97 197 Z"/>
</svg>
