<svg xmlns="http://www.w3.org/2000/svg" viewBox="0 0 480 288">
    <path d="M 256 16 L 256 32 L 272 32 Q 287 33 288 48 Q 287 63 272 64 L 240 64 Q 225 63 224 48 L 224 16 Q 225 1 240 0 Q 255 1 256 16 L 256 16 Z M 0 80 Q 1 65 16 64 L 48 64 Q 63 65 64 80 L 64 144 Q 63 159 48 160 L 16 160 Q 1 159 0 144 L 0 80 L 0 80 Z M 416 80 Q 417 65 432 64 L 464 64 Q 479 65 480 80 L 480 144 Q 479 159 464 160 L 432 160 Q 417 159 416 144 L 416 80 L 416 80 Z M 16 192 L 48 192 Q 63 193 64 208 L 64 272 Q 63 287 48 288 L 16 288 Q 1 287 0 272 L 0 208 Q 1 193 16 192 L 16 192 Z M 416 208 Q 417 193 432 192 L 464 192 Q 479 193 480 208 L 480 272 Q 479 287 464 288 L 432 288 Q 417 287 416 272 L 416 208 L 416 208 Z"/>
</svg>
