<svg xmlns="http://www.w3.org/2000/svg" viewBox="0 0 450 446">
    <path d="M 193 29 L 193 97 L 144 48 Q 130 31 144 14 Q 161 0 178 14 L 193 29 L 193 29 Z M 132 132 L 73 97 L 68 78 Q 64 56 85 48 Q 106 45 114 65 L 132 132 L 132 132 Z M 42 153 L 101 188 L 33 206 Q 11 209 4 189 Q 0 167 21 159 L 42 153 L 42 153 Z M 101 259 L 42 293 L 21 287 Q 0 279 4 257 Q 11 237 33 240 L 101 259 L 101 259 Z M 73 349 L 132 315 L 114 381 Q 106 401 85 398 Q 64 390 68 368 L 73 349 L 73 349 Z M 193 349 L 193 417 L 178 432 Q 161 446 144 432 Q 130 415 144 398 L 193 349 L 193 349 Z M 257 417 L 257 349 L 306 398 Q 320 415 306 432 Q 289 446 272 432 L 257 417 L 257 417 Z M 318 315 L 377 349 L 383 368 Q 386 390 366 398 Q 344 401 336 381 L 318 315 L 318 315 Z M 408 293 L 349 259 L 417 241 Q 439 237 446 258 Q 450 279 429 287 L 408 293 L 408 293 Z M 349 188 L 408 153 L 430 159 Q 450 167 447 189 Q 439 209 417 206 L 349 187 L 349 188 Z M 377 97 L 318 132 L 336 65 Q 344 45 366 48 Q 386 56 383 78 L 377 97 L 377 97 Z M 257 97 L 257 29 L 272 14 Q 289 0 306 14 Q 320 31 306 48 L 257 97 L 257 97 Z"/>
</svg>
