<svg xmlns="http://www.w3.org/2000/svg" viewBox="0 0 448 400">
    <path d="M 135 18 Q 144 1 164 0 L 284 0 Q 304 1 313 18 L 320 32 L 416 32 Q 430 32 439 41 Q 448 50 448 64 Q 448 78 439 87 Q 430 96 416 96 L 32 96 Q 18 96 9 87 Q 0 78 0 64 Q 0 50 9 41 Q 18 32 32 32 L 128 32 L 135 18 L 135 18 Z M 200 376 L 200 312 L 136 312 Q 114 310 112 288 Q 114 266 136 264 L 200 264 L 200 200 Q 202 178 224 176 Q 246 178 248 200 L 248 264 L 312 264 Q 334 266 336 288 Q 334 310 312 312 L 248 312 L 248 376 Q 246 398 224 400 Q 202 398 200 376 L 200 376 Z"/>
</svg>
