<svg xmlns="http://www.w3.org/2000/svg" viewBox="0 0 649 466">
    <path d="M 592 73 Q 591 58 576 57 Q 561 58 560 73 Q 561 88 576 89 Q 591 88 592 73 L 592 73 Z M 512 73 Q 513 37 544 18 Q 576 0 608 18 Q 639 37 640 73 Q 639 109 608 128 Q 576 146 544 128 Q 513 109 512 73 L 512 73 Z M 224 249 Q 239 248 240 233 Q 239 218 224 217 Q 209 218 208 233 Q 209 248 224 249 L 224 249 Z M 224 169 Q 260 170 279 201 Q 297 233 279 265 Q 260 296 224 297 Q 188 296 169 265 Q 151 233 169 201 Q 188 170 224 169 L 224 169 Z M 80 393 Q 79 378 64 377 Q 49 378 48 393 Q 49 408 64 409 Q 79 408 80 393 L 80 393 Z M 0 393 Q 1 357 32 338 Q 64 320 96 338 Q 127 357 128 393 Q 127 429 96 448 Q 64 466 32 448 Q 1 429 0 393 L 0 393 Z M 240 393 Q 239 378 224 377 Q 209 378 208 393 Q 209 408 224 409 Q 239 408 240 393 L 240 393 Z M 160 393 Q 161 357 192 338 Q 224 320 256 338 Q 287 357 288 393 Q 287 429 256 448 Q 224 466 192 448 Q 161 429 160 393 L 160 393 Z M 576 249 Q 591 248 592 233 Q 591 218 576 217 Q 561 218 560 233 Q 561 248 576 249 L 576 249 Z M 576 169 Q 612 170 631 201 Q 649 233 631 265 Q 612 296 576 297 Q 540 296 521 265 Q 503 233 521 201 Q 540 170 576 169 L 576 169 Z M 592 393 Q 591 378 576 377 Q 561 378 560 393 Q 561 408 576 409 Q 591 408 592 393 L 592 393 Z M 512 393 Q 513 357 544 338 Q 576 320 608 338 Q 639 357 640 393 Q 639 429 608 448 Q 576 466 544 448 Q 513 429 512 393 L 512 393 Z M 416 249 Q 431 248 432 233 Q 431 218 416 217 Q 401 218 400 233 Q 401 248 416 249 L 416 249 Z M 416 169 Q 452 170 471 201 Q 489 233 471 265 Q 452 296 416 297 Q 380 296 361 265 Q 343 233 361 201 Q 380 170 416 169 L 416 169 Z M 432 393 Q 431 378 416 377 Q 401 378 400 393 Q 401 408 416 409 Q 431 408 432 393 L 432 393 Z M 352 393 Q 353 357 384 338 Q 416 320 448 338 Q 479 357 480 393 Q 479 429 448 448 Q 416 466 384 448 Q 353 429 352 393 L 352 393 Z"/>
</svg>
