<svg xmlns="http://www.w3.org/2000/svg" viewBox="0 0 451 452">
    <path d="M 415 431 Q 402 452 377 446 L 69 347 Q 51 341 37 330 Q 7 303 3 264 Q 0 226 25 194 Q 52 164 91 160 Q 129 157 161 182 L 407 391 Q 426 408 415 431 L 415 431 Z M 99 288 Q 113 288 122 279 L 122 279 Q 131 270 131 256 Q 131 242 122 233 Q 113 224 99 224 Q 85 224 76 233 Q 67 242 67 256 Q 67 270 76 279 Q 85 288 99 288 L 99 288 Z M 355 0 Q 329 0 307 13 L 307 13 Q 285 26 272 48 Q 259 71 259 96 Q 259 121 272 144 Q 285 166 307 179 Q 329 192 355 192 Q 381 192 403 179 Q 425 166 438 144 Q 451 121 451 96 Q 451 71 438 48 Q 425 26 403 13 Q 381 0 355 0 L 355 0 Z"/>
</svg>
