<svg xmlns="http://www.w3.org/2000/svg" viewBox="0 0 446 446">
    <path d="M 281 54 Q 271 64 271 77 L 271 77 Q 271 90 281 100 Q 290 109 303 109 Q 316 109 326 100 L 371 54 Q 380 44 380 32 Q 380 19 371 9 Q 361 0 348 0 Q 336 0 326 9 L 280 54 L 281 54 Z M 318 190 Q 318 204 327 213 L 327 213 Q 336 222 350 222 L 414 222 Q 428 222 437 213 Q 446 204 446 190 Q 446 176 437 167 Q 428 158 414 158 L 350 158 Q 336 158 327 167 Q 318 176 318 190 L 318 190 Z M 190 318 Q 176 318 167 327 L 167 327 Q 158 336 158 350 L 158 414 Q 158 428 167 437 Q 176 446 190 446 Q 204 446 213 437 Q 222 428 222 414 L 222 350 Q 222 336 213 327 Q 204 318 190 318 L 190 318 Z M 326 281 Q 316 271 303 271 L 303 271 Q 290 271 281 281 Q 271 290 271 303 Q 271 316 281 326 L 326 371 Q 336 380 348 380 Q 361 380 371 371 Q 380 361 380 348 Q 380 336 371 326 L 326 280 L 326 281 Z M 9 371 Q 19 380 32 380 L 32 380 Q 44 380 54 371 L 100 326 Q 109 316 109 303 Q 109 290 100 280 Q 90 271 77 271 Q 64 271 54 280 L 9 326 Q 0 336 0 348 Q 0 361 9 371 L 9 371 Z"/>
</svg>
