<svg xmlns="http://www.w3.org/2000/svg" viewBox="0 0 256 464">
    <path d="M 72 73 L 72 0 L 184 0 L 184 73 Q 185 92 201 103 Q 226 121 241 148 Q 256 175 256 208 L 256 400 Q 255 427 237 445 Q 219 463 192 464 L 64 464 Q 37 463 19 445 Q 1 427 0 400 L 0 208 Q 0 175 15 148 Q 30 121 55 103 Q 71 92 72 73 L 72 73 Z M 128 336 Q 148 336 162 324 L 162 324 Q 175 312 176 288 Q 175 271 163 252 Q 150 233 139 220 Q 128 210 117 220 Q 106 233 93 252 Q 81 271 80 288 Q 81 308 94 322 Q 108 335 128 336 L 128 336 Z"/>
</svg>
