<svg xmlns="http://www.w3.org/2000/svg" viewBox="0 0 229 352">
    <path d="M 64 32 Q 64 18 55 9 L 55 9 Q 46 0 32 0 Q 19 0 10 9 Q 1 18 0 32 Q 1 46 10 55 Q 19 64 32 64 Q 46 64 55 55 Q 64 46 64 32 L 64 32 Z M 155 139 Q 165 128 155 117 Q 144 107 133 117 L 54 196 Q 50 199 45 197 Q 40 196 40 190 L 40 170 Q 38 152 20 150 Q 2 152 0 170 L 0 224 L 0 257 Q 1 297 28 324 Q 55 351 95 352 Q 134 351 163 324 L 219 267 Q 229 256 219 245 Q 208 235 197 245 L 177 264 Q 173 268 168 264 Q 164 259 168 255 L 219 203 Q 229 192 219 181 Q 208 171 197 181 L 145 232 Q 141 236 136 232 Q 132 227 136 223 L 203 155 Q 213 144 203 133 Q 192 123 181 133 L 113 200 Q 109 204 104 200 Q 100 195 104 191 L 155 139 L 155 139 Z M 192 64 Q 206 64 215 55 L 215 55 Q 224 46 224 32 Q 224 18 215 9 Q 206 0 192 0 Q 179 0 170 9 Q 161 18 160 32 Q 161 46 170 55 Q 179 64 192 64 L 192 64 Z"/>
</svg>
