<svg xmlns="http://www.w3.org/2000/svg" viewBox="0 0 579 416">
    <path d="M 476 11 L 572 155 Q 579 167 573 179 Q 566 191 552 192 L 408 192 L 360 192 L 280 192 Q 265 191 258 178 Q 252 165 261 153 L 325 73 Q 333 64 344 64 Q 355 64 363 73 L 380 95 L 436 11 Q 443 0 456 0 Q 469 0 476 11 L 476 11 Z M 64 32 L 192 32 L 192 96 Q 178 96 169 105 Q 160 114 160 128 L 160 320 Q 160 334 169 343 Q 178 352 192 352 L 320 352 Q 334 352 343 343 Q 352 334 352 320 L 352 256 L 512 256 L 512 352 Q 511 379 493 397 Q 475 415 448 416 L 64 416 Q 37 415 19 397 Q 1 379 0 352 L 0 96 Q 1 69 19 51 Q 37 33 64 32 L 64 32 Z M 72 96 Q 57 97 56 112 L 56 128 Q 57 143 72 144 L 88 144 Q 103 143 104 128 L 104 112 Q 103 97 88 96 L 72 96 L 72 96 Z M 72 200 Q 57 201 56 216 L 56 232 Q 57 247 72 248 L 88 248 Q 103 247 104 232 L 104 216 Q 103 201 88 200 L 72 200 L 72 200 Z M 72 304 Q 57 305 56 320 L 56 336 Q 57 351 72 352 L 88 352 Q 103 351 104 336 L 104 320 Q 103 305 88 304 L 72 304 L 72 304 Z M 408 320 L 408 336 Q 409 351 424 352 L 440 352 Q 455 351 456 336 L 456 320 Q 455 305 440 304 L 424 304 Q 409 305 408 320 L 408 320 Z"/>
</svg>
