<svg xmlns="http://www.w3.org/2000/svg" viewBox="0 0 558 512">
    <path d="M 483 13 L 541 104 Q 558 133 551 164 Q 537 160 521 160 Q 492 160 467 174 Q 443 187 428 209 Q 419 203 411 195 Q 386 223 346 224 Q 306 223 281 195 Q 256 223 216 224 Q 175 223 150 195 Q 125 223 85 224 Q 79 224 73 223 Q 31 215 15 178 Q 0 141 21 104 L 79 13 Q 87 0 103 0 L 459 0 Q 475 0 483 13 L 483 13 Z M 377 384 L 377 480 Q 377 498 386 512 L 121 512 Q 94 511 76 493 Q 58 475 57 448 L 57 384 L 57 253 Q 63 254 69 255 L 69 255 Q 77 256 85 256 Q 104 256 121 251 L 121 384 L 377 384 L 377 384 Z"/>
</svg>
