<svg xmlns="http://www.w3.org/2000/svg" viewBox="0 0 576 507">
    <path d="M 434 265 L 224 188 L 227 179 Q 254 104 308 44 L 312 39 Q 330 20 355 13 Q 380 7 405 16 Q 406 16 408 17 Q 432 27 446 47 Q 461 68 462 94 L 462 100 Q 465 180 437 256 L 434 265 L 434 265 Z M 288 18 L 284 23 Q 226 87 197 168 L 193 177 L 122 151 Q 109 146 104 133 Q 99 120 107 108 Q 143 58 195 30 Q 248 2 308 0 Q 297 8 288 18 L 288 18 Z M 494 93 Q 494 80 491 68 Q 534 109 555 163 Q 576 217 571 277 Q 570 291 558 298 Q 546 305 532 300 L 464 276 L 467 266 Q 497 185 494 99 L 494 93 L 494 93 Z M 32 443 L 544 443 Q 558 443 567 452 Q 576 461 576 475 Q 576 489 567 498 Q 558 507 544 507 L 32 507 Q 18 507 9 498 Q 0 489 0 475 Q 0 461 9 452 Q 18 443 32 443 L 32 443 Z"/>
</svg>
