<svg xmlns="http://www.w3.org/2000/svg" viewBox="0 0 512 256">
    <path d="M 424 96 Q 420 96 416 96 L 416 96 Q 416 96 416 96 Q 362 97 325 133 Q 289 170 288 224 Q 288 241 292 256 L 240 256 L 240 112 Q 239 97 224 96 Q 209 97 208 112 L 208 249 L 107 149 Q 96 139 85 149 Q 75 160 85 171 L 169 256 L 96 256 Q 55 255 28 228 Q 1 201 0 160 Q 1 119 28 92 Q 55 65 96 64 Q 109 64 121 67 Q 135 37 162 19 Q 189 0 224 0 Q 259 0 286 19 Q 313 37 327 67 Q 339 64 352 64 Q 396 65 424 96 L 424 96 Z M 512 224 Q 512 241 507 256 L 326 256 Q 320 241 320 224 Q 321 183 348 156 Q 375 129 416 128 Q 457 129 484 156 Q 511 183 512 224 L 512 224 Z"/>
</svg>
