<svg xmlns="http://www.w3.org/2000/svg" viewBox="0 0 352 448">
    <path d="M 64 0 Q 37 1 19 19 L 19 19 Q 1 37 0 64 L 0 384 Q 1 411 19 429 Q 37 447 64 448 L 288 448 Q 315 447 333 429 Q 351 411 352 384 L 352 64 Q 351 37 333 19 Q 315 1 288 0 L 64 0 L 64 0 Z M 112 288 Q 139 289 154 312 Q 166 336 154 360 Q 139 383 112 384 Q 85 383 70 360 Q 58 336 70 312 Q 85 289 112 288 L 112 288 Z M 192 304 Q 193 289 208 288 L 272 288 Q 287 289 288 304 Q 287 319 272 320 L 208 320 Q 193 319 192 304 L 192 304 Z M 192 368 Q 193 353 208 352 L 272 352 Q 287 353 288 368 Q 287 383 272 384 L 208 384 Q 193 383 192 368 L 192 368 Z M 96 64 L 256 64 Q 270 64 279 73 Q 288 82 288 96 L 288 192 Q 288 206 279 215 Q 270 224 256 224 L 96 224 Q 82 224 73 215 Q 64 206 64 192 L 64 96 Q 64 82 73 73 Q 82 64 96 64 L 96 64 Z"/>
</svg>
