<svg xmlns="http://www.w3.org/2000/svg" viewBox="0 0 512 384">
    <path d="M 0 352 Q 0 338 9 329 L 9 329 Q 18 320 32 320 L 87 320 Q 80 335 80 352 Q 80 369 87 384 L 32 384 Q 18 384 9 375 Q 0 366 0 352 L 0 352 Z M 233 384 Q 240 369 240 352 Q 240 335 233 320 L 480 320 Q 494 320 503 329 Q 512 338 512 352 Q 512 366 503 375 Q 494 384 480 384 L 233 384 L 233 384 Z M 0 192 Q 0 178 9 169 L 9 169 Q 18 160 32 160 L 279 160 Q 272 175 272 192 Q 272 209 279 224 L 32 224 Q 18 224 9 215 Q 0 206 0 192 L 0 192 Z M 425 224 Q 432 209 432 192 Q 432 175 425 160 L 480 160 Q 494 160 503 169 Q 512 178 512 192 Q 512 206 503 215 Q 494 224 480 224 L 425 224 L 425 224 Z M 32 0 L 119 0 Q 112 15 112 32 Q 112 49 119 64 L 32 64 Q 18 64 9 55 Q 0 46 0 32 Q 0 18 9 9 Q 18 0 32 0 L 32 0 Z M 265 64 Q 272 49 272 32 Q 272 15 265 0 L 480 0 Q 494 0 503 9 Q 512 18 512 32 Q 512 46 503 55 Q 494 64 480 64 L 265 64 L 265 64 Z"/>
</svg>
