<svg xmlns="http://www.w3.org/2000/svg" viewBox="0 0 640 200">
    <path d="M 282 77 L 282 77 L 282 77 L 282 77 Q 285 81 291 80 Q 296 78 296 72 Q 295 44 279 23 Q 264 2 240 0 Q 216 2 201 23 Q 185 44 184 72 Q 184 78 190 80 Q 195 81 198 77 L 198 77 L 198 77 L 198 77 L 199 77 Q 199 76 199 76 Q 199 76 199 76 Q 200 74 202 72 Q 206 68 212 62 Q 226 49 240 48 Q 254 49 268 62 Q 274 68 278 72 Q 280 74 281 76 Q 281 76 281 76 Q 281 76 281 77 L 282 77 L 282 77 L 282 77 Z M 442 77 L 442 77 L 442 77 L 442 77 Q 445 81 451 80 Q 456 78 456 72 Q 455 44 439 23 Q 424 2 400 0 Q 376 2 361 23 Q 345 44 344 72 Q 344 78 350 80 Q 355 81 358 77 L 358 77 L 358 77 L 358 77 L 359 77 Q 359 76 359 76 Q 359 76 359 76 Q 360 74 362 72 Q 366 68 372 62 Q 386 49 400 48 Q 414 49 428 62 Q 434 68 438 72 Q 440 74 441 76 Q 441 76 441 76 Q 441 76 441 77 L 442 77 L 442 77 L 442 77 Z M 626 119 Q 614 108 587 102 L 587 102 Q 560 95 542 93 Q 533 93 533 102 Q 535 120 542 147 Q 548 174 559 187 Q 573 200 592 200 Q 611 200 626 186 Q 640 171 640 152 Q 640 133 626 119 L 626 119 Z M 98 93 Q 80 95 53 102 L 53 102 Q 26 108 14 119 Q 0 133 0 152 Q 0 171 14 186 Q 29 200 48 200 Q 67 200 81 186 Q 92 174 98 147 Q 105 120 107 102 Q 107 93 98 93 L 98 93 Z"/>
</svg>
