<svg xmlns="http://www.w3.org/2000/svg" viewBox="0 0 512 512">
    <path d="M 224 32 Q 224 18 233 9 L 233 9 Q 242 0 256 0 Q 328 1 385 35 Q 443 69 477 127 Q 511 184 512 256 Q 511 328 477 385 Q 443 443 385 477 Q 328 511 256 512 Q 184 511 127 477 Q 69 443 35 385 Q 1 328 0 256 Q 0 202 21 155 Q 41 108 77 73 Q 87 64 100 64 Q 112 64 122 74 Q 131 84 131 96 Q 131 109 122 119 Q 66 173 64 256 Q 66 338 120 392 Q 174 446 256 448 Q 338 446 392 392 Q 446 338 448 256 Q 447 183 402 131 Q 358 80 288 67 L 288 96 Q 288 110 279 119 Q 270 128 256 128 Q 242 128 233 119 Q 224 110 224 96 L 224 32 L 224 32 Z"/>
</svg>
