<svg xmlns="http://www.w3.org/2000/svg" viewBox="0 0 320 448">
    <path d="M 0 32 Q 0 18 9 9 L 9 9 Q 18 0 32 0 Q 46 0 55 9 Q 64 18 64 32 L 64 320 L 0 320 L 0 32 L 0 32 Z M 0 416 L 0 384 L 64 384 L 64 416 Q 64 430 55 439 Q 46 448 32 448 Q 18 448 9 439 Q 0 430 0 416 L 0 416 Z M 320 416 Q 320 430 311 439 L 311 439 Q 302 448 288 448 Q 274 448 265 439 Q 256 430 256 416 L 256 128 L 320 128 L 320 416 L 320 416 Z M 320 32 L 320 64 L 256 64 L 256 32 Q 256 18 265 9 Q 274 0 288 0 Q 302 0 311 9 Q 320 18 320 32 L 320 32 Z"/>
</svg>
