<svg xmlns="http://www.w3.org/2000/svg" viewBox="0 0 416 224">
    <path d="M 244 0 L 202 64 L 32 64 Q 18 64 9 55 Q 0 46 0 32 Q 0 18 9 9 Q 18 0 32 0 L 244 0 L 244 0 Z M 138 160 L 95 224 L 32 224 Q 18 224 9 215 Q 0 206 0 192 Q 0 178 9 169 Q 18 160 32 160 L 138 160 L 138 160 Z M 172 224 L 215 160 L 384 160 Q 398 160 407 169 Q 416 178 416 192 Q 416 206 407 215 Q 398 224 384 224 L 172 224 L 172 224 Z M 279 64 L 321 0 L 384 0 Q 398 0 407 9 Q 416 18 416 32 Q 416 46 407 55 Q 398 64 384 64 L 279 64 L 279 64 Z"/>
</svg>
