<svg xmlns="http://www.w3.org/2000/svg" viewBox="0 0 521 240">
    <path d="M 263 9 Q 253 0 240 0 L 240 0 Q 227 0 217 9 Q 208 19 208 32 Q 208 45 217 55 L 243 80 L 96 80 Q 55 81 28 108 Q 1 135 0 176 L 0 208 Q 0 222 9 231 Q 18 240 32 240 Q 46 240 55 231 Q 64 222 64 208 L 64 176 Q 64 162 73 153 Q 82 144 96 144 L 243 144 L 217 169 Q 208 179 208 192 Q 208 205 217 215 Q 227 224 240 224 Q 253 224 263 215 L 343 135 Q 352 125 352 112 Q 352 99 343 89 L 263 9 L 263 9 Z M 448 176 Q 484 175 503 144 Q 521 112 503 80 Q 484 49 448 48 Q 412 49 393 80 Q 375 112 393 144 Q 412 175 448 176 L 448 176 Z"/>
</svg>
