<svg xmlns="http://www.w3.org/2000/svg" viewBox="0 0 510 191">
    <path d="M 9 102 Q 13 105 16 107 Q 5 121 6 139 Q 7 156 20 170 Q 34 183 51 184 Q 69 185 83 174 Q 85 178 89 181 Q 98 190 111 190 Q 124 190 134 181 Q 149 164 140 144 Q 149 143 156 136 Q 166 126 166 113 Q 166 100 156 90 Q 151 85 144 83 L 189 13 Q 192 8 188 4 Q 184 0 179 3 L 108 48 Q 106 40 100 34 Q 90 24 77 24 Q 64 24 55 34 Q 48 41 46 50 Q 26 42 9 56 Q 0 66 0 79 Q 0 92 9 102 L 9 102 Z M 501 103 Q 510 93 510 80 L 510 80 Q 510 67 501 57 Q 484 43 464 51 Q 463 42 456 35 Q 446 25 433 25 Q 420 25 410 35 Q 405 40 403 48 L 333 3 Q 328 0 324 4 Q 321 8 323 13 L 367 83 Q 360 85 354 91 Q 344 101 344 114 Q 344 127 354 136 Q 361 144 370 145 Q 362 165 376 182 Q 386 191 399 191 Q 412 191 422 182 Q 425 179 427 175 Q 442 186 459 185 Q 477 184 490 171 Q 503 157 504 140 Q 505 122 494 108 Q 498 106 501 103 L 501 103 Z"/>
</svg>
