<svg xmlns="http://www.w3.org/2000/svg" viewBox="0 0 576 512">
    <path d="M 291 0 Q 290 0 289 0 L 289 0 Q 289 0 288 0 Q 208 1 143 24 Q 78 48 39 87 Q 1 127 0 176 Q 1 219 31 256 Q 61 292 114 316 L 114 317 L 161 340 Q 191 357 192 391 Q 191 415 175 431 Q 159 447 135 448 L 64 448 Q 50 448 41 457 Q 32 466 32 480 Q 32 494 41 503 Q 50 512 64 512 L 135 512 Q 186 511 221 477 Q 255 442 256 391 Q 256 370 249 350 Q 268 352 288 352 Q 368 351 433 328 Q 498 305 537 265 Q 575 225 576 176 Q 575 118 522 74 Q 470 29 385 10 L 391 25 L 417 35 Q 446 48 448 80 Q 448 88 445 96 Q 509 128 512 176 Q 510 224 446 255 Q 383 287 288 288 Q 193 287 130 255 Q 66 224 64 176 Q 65 137 110 108 Q 154 79 225 68 Q 232 44 255 35 L 281 25 L 291 0 L 291 0 Z"/>
</svg>
