<svg xmlns="http://www.w3.org/2000/svg" viewBox="0 0 452 514">
    <path d="M 428 64 Q 441 60 447 48 L 447 48 Q 452 37 448 24 Q 444 11 432 5 Q 421 0 408 4 L 295 41 Q 272 4 226 2 Q 192 3 169 25 Q 147 48 146 82 Q 146 86 146 91 L 24 132 Q 11 136 5 148 Q 0 159 4 172 Q 8 185 20 191 Q 31 196 44 192 L 180 147 Q 186 152 194 155 L 194 482 Q 194 496 203 505 Q 212 514 226 514 L 418 514 Q 432 514 441 505 Q 450 496 450 482 Q 450 468 441 459 Q 432 450 418 450 L 258 450 L 258 155 Q 291 140 302 106 L 428 64 L 428 64 Z"/>
</svg>
