<svg xmlns="http://www.w3.org/2000/svg" viewBox="0 0 384 352">
    <path d="M 368 0 Q 383 1 384 16 L 384 80 Q 383 95 368 96 Q 353 95 352 80 L 352 16 Q 353 1 368 0 L 368 0 Z M 368 128 Q 383 129 384 144 L 384 208 Q 383 223 368 224 Q 353 223 352 208 L 352 144 Q 353 129 368 128 L 368 128 Z M 384 272 L 384 336 Q 383 351 368 352 Q 353 351 352 336 L 352 272 Q 353 257 368 256 Q 383 257 384 272 L 384 272 Z M 0 304 Q 1 270 23 247 L 23 247 Q 46 225 80 224 L 144 224 Q 178 225 201 247 Q 223 270 224 304 Q 223 319 208 320 L 16 320 Q 1 319 0 304 L 0 304 Z M 112 64 Q 148 65 167 96 Q 185 128 167 160 Q 148 191 112 192 Q 76 191 57 160 Q 39 128 57 96 Q 76 65 112 64 L 112 64 Z"/>
</svg>
