<svg xmlns="http://www.w3.org/2000/svg" viewBox="0 0 352 491">
    <path d="M 48 400 Q 48 386 57 377 L 57 377 Q 66 368 80 368 Q 94 368 103 377 Q 112 386 112 400 Q 112 414 103 423 Q 94 432 80 432 Q 66 432 57 423 Q 48 414 48 400 L 48 400 Z M 160 400 Q 159 355 120 331 Q 80 309 40 331 Q 1 355 0 400 Q 1 445 40 469 Q 80 491 120 469 Q 159 445 160 400 L 160 400 Z M 240 240 Q 240 226 249 217 L 249 217 Q 258 208 272 208 Q 286 208 295 217 Q 304 226 304 240 Q 304 254 295 263 Q 286 272 272 272 Q 258 272 249 263 Q 240 254 240 240 L 240 240 Z M 352 240 Q 351 195 312 171 Q 272 149 232 171 Q 193 195 192 240 Q 193 285 232 309 Q 272 331 312 309 Q 351 285 352 240 L 352 240 Z M 112 112 Q 98 112 89 103 L 89 103 Q 80 94 80 80 Q 80 66 89 57 Q 98 48 112 48 Q 126 48 135 57 Q 144 66 144 80 Q 144 94 135 103 Q 126 112 112 112 L 112 112 Z M 112 0 Q 67 1 43 40 Q 21 80 43 120 Q 67 159 112 160 Q 157 159 181 120 Q 203 80 181 40 Q 157 1 112 0 L 112 0 Z"/>
</svg>
