<svg xmlns="http://www.w3.org/2000/svg" viewBox="0 0 447 513">
    <path d="M 288 353 Q 288 353 288 352 L 288 352 Q 288 352 288 351 Q 288 324 299 297 Q 309 269 325 244 Q 359 190 413 141 Q 428 128 447 129 L 310 8 Q 300 1 289 1 Q 278 0 267 9 L 10 233 Q 0 243 0 257 Q 0 270 9 279 Q 18 288 32 289 L 64 289 L 64 358 Q 64 360 64 361 Q 64 361 64 361 L 64 473 Q 64 490 76 501 Q 87 513 104 513 L 120 513 Q 122 513 124 513 Q 125 513 126 513 Q 127 513 128 513 L 160 513 L 184 513 Q 201 513 212 501 Q 224 490 224 473 L 224 449 L 224 385 Q 224 371 233 362 Q 242 353 256 353 L 288 353 L 288 353 Z"/>
</svg>
