<svg xmlns="http://www.w3.org/2000/svg" viewBox="0 0 288 160">
    <path d="M 48 96 L 32 96 Q 18 96 9 105 Q 0 114 0 128 Q 0 142 9 151 Q 18 160 32 160 L 60 160 Q 50 130 48 96 L 48 96 Z M 130 160 L 256 160 Q 270 160 279 151 Q 288 142 288 128 Q 288 114 279 105 Q 270 96 256 96 L 112 96 Q 114 131 130 160 L 130 160 Z M 112 64 L 256 64 Q 270 64 279 55 Q 288 46 288 32 Q 288 18 279 9 Q 270 0 256 0 L 130 0 Q 114 29 112 64 L 112 64 Z M 60 0 L 32 0 Q 18 0 9 9 Q 0 18 0 32 Q 0 46 9 55 Q 18 64 32 64 L 48 64 Q 49 30 60 0 L 60 0 Z"/>
</svg>
