<svg xmlns="http://www.w3.org/2000/svg" viewBox="0 0 288 288">
    <path d="M 0 144 Q 0 105 19 72 L 19 72 Q 38 39 72 19 Q 106 0 144 0 Q 182 0 216 19 Q 250 39 269 72 Q 288 105 288 144 Q 288 183 269 216 Q 250 249 216 269 Q 182 288 144 288 Q 106 288 72 269 Q 38 249 19 216 Q 0 183 0 144 L 0 144 Z M 168 72 Q 166 50 144 48 Q 122 50 120 72 Q 122 94 144 96 Q 166 94 168 72 L 168 72 Z M 128 128 Q 113 129 112 144 Q 113 159 128 160 L 128 160 L 128 208 L 128 208 Q 113 209 112 224 Q 113 239 128 240 L 144 240 L 160 240 Q 175 239 176 224 Q 175 209 160 208 L 160 144 Q 159 129 144 128 L 128 128 L 128 128 Z"/>
</svg>
