<svg xmlns="http://www.w3.org/2000/svg" viewBox="0 0 531 480">
    <path d="M 286 104 L 272 110 Q 251 117 240 97 Q 233 76 253 66 L 300 45 Q 328 2 382 0 Q 436 2 464 45 L 511 66 Q 531 76 524 97 Q 513 117 492 110 L 478 104 L 478 176 Q 477 210 455 233 Q 432 255 398 256 L 366 256 Q 332 255 309 233 Q 287 210 286 176 L 286 104 L 286 104 Z M 366 128 Q 381 127 382 112 Q 381 97 366 96 Q 351 97 350 112 Q 351 127 366 128 L 366 128 Z M 446 112 Q 445 97 430 96 Q 415 97 414 112 Q 415 127 430 128 Q 445 127 446 112 L 446 112 Z M 17 454 L 0 360 Q 4 360 8 359 Q 13 381 30 394 Q 47 408 70 408 Q 93 408 110 394 L 110 394 L 110 448 Q 110 462 101 471 Q 92 480 78 480 L 49 480 Q 23 478 17 454 L 17 454 Z M 206 448 L 206 394 L 206 394 Q 223 408 246 408 Q 269 408 286 394 Q 303 381 308 359 Q 312 360 317 360 L 299 454 Q 293 478 267 480 L 238 480 Q 224 480 215 471 Q 206 462 206 448 L 206 448 Z"/>
</svg>
