<svg xmlns="http://www.w3.org/2000/svg" viewBox="0 0 620 357">
    <path d="M 350 45 Q 349 22 330 10 Q 310 0 290 10 Q 271 22 270 45 Q 271 68 290 80 Q 310 90 330 80 Q 349 68 350 45 L 350 45 Z M 174 141 Q 173 118 154 106 Q 134 96 114 106 Q 95 118 94 141 Q 95 164 114 176 Q 134 186 154 176 Q 173 164 174 141 L 174 141 Z M 486 181 Q 509 180 521 161 Q 531 141 521 121 Q 509 102 486 101 Q 463 102 451 121 Q 441 141 451 161 Q 463 180 486 181 L 486 181 Z M 190 287 L 217 336 Q 229 355 249 346 Q 268 334 259 314 L 223 246 Q 225 244 227 240 L 254 191 L 254 245 Q 254 259 263 268 Q 272 277 286 277 L 334 277 Q 348 277 357 268 Q 366 259 366 245 L 366 191 L 393 240 Q 395 244 397 246 L 361 314 Q 352 334 371 346 Q 391 355 403 336 L 430 287 L 430 325 Q 430 339 439 348 Q 448 357 462 357 L 510 357 Q 524 357 533 348 Q 542 339 542 325 L 542 287 L 569 336 Q 581 355 601 346 Q 620 334 611 314 L 573 243 Q 561 222 541 210 Q 520 197 496 197 L 476 197 Q 451 197 431 210 L 397 147 Q 385 126 365 114 Q 344 101 320 101 L 300 101 Q 276 101 255 114 Q 235 126 223 147 L 189 210 Q 169 197 144 197 L 124 197 Q 100 197 79 210 Q 59 222 47 243 L 9 314 Q 0 334 19 346 Q 39 355 51 336 L 78 287 L 78 325 Q 78 339 87 348 Q 96 357 110 357 L 158 357 Q 172 357 181 348 Q 190 339 190 325 L 190 287 L 190 287 Z"/>
</svg>
