<svg xmlns="http://www.w3.org/2000/svg" viewBox="0 0 369 514">
    <path d="M 224 32 Q 224 18 215 9 L 215 9 Q 206 0 192 0 Q 178 0 169 9 Q 160 18 160 32 L 160 42 Q 160 72 144 95 Q 128 119 100 130 Q 54 149 27 189 Q 1 228 0 278 L 0 352 Q 0 366 9 375 Q 18 384 32 384 Q 46 384 55 375 Q 64 366 64 352 L 64 278 Q 64 263 69 249 L 229 497 Q 237 509 249 511 Q 262 514 273 507 Q 285 499 287 487 Q 290 474 283 463 L 191 320 L 192 320 L 272 320 L 310 371 Q 319 382 331 384 Q 344 385 355 378 Q 366 369 368 357 Q 369 344 362 333 L 318 275 Q 304 257 280 256 L 209 256 L 152 176 L 152 176 Q 185 153 205 118 Q 224 83 224 42 L 224 32 L 224 32 Z"/>
</svg>
