<svg xmlns="http://www.w3.org/2000/svg" viewBox="0 0 480 512">
    <path d="M 288 32 Q 288 18 279 9 L 279 9 Q 270 0 256 0 Q 242 0 233 9 Q 224 18 224 32 L 224 240 Q 223 255 208 256 Q 193 255 192 240 L 192 64 Q 192 50 183 41 Q 174 32 160 32 Q 146 32 137 41 Q 128 50 128 64 L 128 336 Q 128 338 128 341 L 68 283 Q 55 272 39 272 Q 23 272 11 284 Q 0 297 0 313 Q 0 329 12 341 L 125 448 Q 192 511 285 512 L 304 512 Q 368 511 415 473 Q 386 463 384 432 Q 386 401 415 391 L 446 382 L 455 351 Q 461 331 480 323 L 480 128 Q 480 114 471 105 Q 462 96 448 96 Q 434 96 425 105 Q 416 114 416 128 L 416 240 Q 415 255 400 256 Q 385 255 384 240 L 384 64 Q 384 50 375 41 Q 366 32 352 32 Q 338 32 329 41 Q 320 50 320 64 L 320 240 Q 319 255 304 256 Q 289 255 288 240 L 288 32 L 288 32 Z M 256 352 L 281 359 Q 288 361 288 368 Q 288 375 281 377 L 256 384 L 249 409 Q 247 416 240 416 Q 233 416 231 409 L 224 384 L 199 377 Q 192 375 192 368 Q 192 361 199 359 L 224 352 L 231 327 Q 233 320 240 320 Q 247 320 249 327 L 256 352 L 256 352 Z"/>
</svg>
