<svg xmlns="http://www.w3.org/2000/svg" viewBox="0 0 256 519">
    <path d="M 32 54 Q 33 27 56 12 Q 80 0 104 12 Q 127 27 128 54 Q 127 81 104 96 Q 80 108 56 96 Q 33 81 32 54 L 32 54 Z M 96 248 L 96 313 L 147 364 Q 158 375 160 390 L 176 481 Q 177 494 170 505 Q 163 515 149 518 Q 136 519 125 512 Q 115 505 112 491 L 98 405 L 19 326 Q 0 307 0 281 L 0 193 Q 1 168 17 151 Q 34 135 59 134 Q 97 135 119 166 L 161 230 L 224 230 Q 238 230 247 239 Q 256 248 256 262 Q 256 276 247 285 Q 238 294 224 294 L 153 294 Q 127 293 113 273 L 96 248 L 96 248 Z M 0 486 L 0 353 L 64 417 L 64 486 L 64 486 Q 64 500 55 509 Q 46 518 32 518 Q 18 518 9 509 Q 0 500 0 486 L 0 486 Z"/>
</svg>
