<svg xmlns="http://www.w3.org/2000/svg" viewBox="0 0 256 240">
    <path d="M 192 32 Q 192 46 201 55 L 201 55 Q 210 64 224 64 Q 237 64 246 55 Q 255 46 256 32 Q 255 18 246 9 Q 237 0 224 0 Q 210 0 201 9 Q 192 18 192 32 L 192 32 Z M 0 193 Q 1 213 14 226 L 14 226 Q 28 240 48 240 Q 68 240 82 226 Q 95 213 96 193 Q 95 177 80 153 Q 66 130 54 115 Q 48 109 42 115 Q 30 130 16 153 Q 1 177 0 193 L 0 193 Z M 64 64 Q 77 64 86 55 L 86 55 Q 95 46 96 32 Q 95 18 86 9 Q 77 0 64 0 Q 50 0 41 9 Q 32 18 32 32 Q 32 46 41 55 Q 50 64 64 64 L 64 64 Z"/>
</svg>
