<svg xmlns="http://www.w3.org/2000/svg" viewBox="0 0 517 170">
    <path d="M 99 39 Q 106 18 87 7 Q 66 0 55 20 L 7 132 Q 0 153 20 163 Q 41 170 51 151 L 99 39 L 99 39 Z M 371 39 Q 378 18 359 7 Q 338 0 327 20 L 279 132 Q 272 153 292 163 Q 313 170 323 151 L 371 39 L 371 39 Z M 197 5 Q 175 7 173 29 L 173 45 L 157 45 Q 135 47 133 69 Q 135 91 157 93 L 173 93 L 173 109 Q 175 131 197 133 Q 219 131 221 109 L 221 93 L 237 93 Q 259 91 261 69 Q 259 47 237 45 L 221 45 L 221 29 Q 219 7 197 5 L 197 5 Z M 453 5 Q 431 7 429 29 L 429 45 L 413 45 Q 391 47 389 69 Q 391 91 413 93 L 429 93 L 429 109 Q 431 131 453 133 Q 475 131 477 109 L 477 93 L 493 93 Q 515 91 517 69 Q 515 47 493 45 L 477 45 L 477 29 Q 475 7 453 5 L 453 5 Z"/>
</svg>
