<svg xmlns="http://www.w3.org/2000/svg" viewBox="0 0 448 512">
    <path d="M 96 0 Q 55 1 28 28 L 28 28 Q 1 55 0 96 L 0 416 Q 1 457 28 484 Q 55 511 96 512 L 384 512 L 416 512 Q 430 512 439 503 Q 448 494 448 480 Q 448 466 439 457 Q 430 448 416 448 L 352 448 L 256 448 L 96 448 Q 82 448 73 439 Q 64 430 64 416 Q 64 402 73 393 Q 82 384 96 384 L 256 384 L 352 384 L 416 384 Q 430 384 439 375 Q 448 366 448 352 L 448 32 Q 448 18 439 9 Q 430 0 416 0 L 384 0 L 96 0 L 96 0 Z M 254 73 L 318 201 L 350 265 Q 356 278 343 286 Q 329 292 322 279 L 294 224 L 186 224 L 158 279 Q 150 292 137 286 Q 124 279 130 265 L 162 201 L 226 73 Q 230 64 240 64 Q 250 64 254 73 L 254 73 Z M 240 116 L 202 192 L 278 192 L 240 116 L 240 116 Z"/>
</svg>
