<svg xmlns="http://www.w3.org/2000/svg" viewBox="0 0 496 512">
    <path d="M 282 14 Q 279 1 266 0 L 230 0 Q 217 1 214 14 L 184 256 L 184 352 L 152 352 L 152 416 Q 152 430 143 439 Q 134 448 120 448 L 88 448 Q 74 448 65 439 Q 56 430 56 416 L 56 352 L 0 352 L 0 444 L 88 470 L 88 480 Q 88 494 97 503 Q 106 512 120 512 Q 134 512 143 503 Q 152 494 152 480 L 200 480 L 296 480 L 344 480 Q 344 494 353 503 Q 362 512 376 512 Q 390 512 399 503 Q 408 494 408 480 L 408 470 L 496 444 L 496 352 L 440 352 L 440 416 Q 440 430 431 439 Q 422 448 408 448 L 376 448 Q 362 448 353 439 Q 344 430 344 416 L 344 352 L 312 352 L 312 256 L 282 14 L 282 14 Z M 216 256 Q 216 242 225 233 L 225 233 Q 234 224 248 224 Q 262 224 271 233 Q 280 242 280 256 L 280 304 Q 279 319 264 320 L 232 320 Q 217 319 216 304 L 216 256 L 216 256 Z"/>
</svg>
