<svg xmlns="http://www.w3.org/2000/svg" viewBox="0 0 576 262">
    <path d="M 80 47 Q 85 34 80 23 L 80 23 Q 75 11 63 5 Q 50 0 38 5 Q 26 11 21 23 Q 0 73 0 131 Q 0 189 21 239 Q 26 251 38 256 Q 50 261 63 257 Q 75 251 80 240 Q 85 228 80 215 Q 64 176 64 131 Q 64 86 80 47 L 80 47 Z M 555 23 Q 550 11 538 6 L 538 6 Q 526 1 513 5 Q 501 11 496 22 Q 491 34 496 47 Q 512 86 512 131 Q 512 176 496 215 Q 491 228 496 239 Q 501 251 513 257 Q 526 262 538 257 Q 550 251 555 239 Q 576 189 576 131 Q 576 73 555 23 L 555 23 Z M 163 77 Q 170 56 151 45 Q 130 38 119 57 Q 104 92 104 131 Q 104 170 119 205 Q 130 224 151 217 Q 170 206 163 185 Q 152 160 152 131 Q 152 102 163 77 L 163 77 Z M 457 57 Q 446 38 425 45 Q 406 56 413 77 Q 424 102 424 131 Q 424 160 413 185 Q 406 206 425 217 Q 446 224 457 205 Q 472 170 472 131 Q 472 92 457 57 L 457 57 Z"/>
</svg>
