<svg xmlns="http://www.w3.org/2000/svg" viewBox="0 0 512 373">
    <path d="M 171 32 L 139 64 Q 128 74 117 64 Q 107 53 117 42 L 149 10 Q 160 0 171 10 Q 181 21 171 32 L 171 32 Z M 395 42 L 427 74 Q 437 85 427 96 Q 416 106 405 96 L 373 64 Q 363 53 373 42 Q 384 32 395 42 L 395 42 Z M 331 192 L 299 224 Q 288 234 277 224 Q 267 213 277 202 L 309 170 Q 320 160 331 170 Q 341 181 331 192 L 331 192 Z M 198 281 Q 226 293 256 293 Q 286 293 314 281 Q 336 272 360 273 Q 388 275 415 263 Q 441 251 458 227 Q 467 214 482 208 Q 500 202 512 188 L 512 213 Q 509 281 437 326 Q 365 371 256 373 Q 147 371 75 326 Q 3 281 0 213 L 0 188 Q 12 202 30 208 Q 45 214 54 227 Q 71 251 97 263 Q 124 275 152 273 Q 176 272 198 281 L 198 281 Z"/>
</svg>
