<svg xmlns="http://www.w3.org/2000/svg" viewBox="0 0 580 217">
    <path d="M 309 13 Q 290 1 272 13 Q 237 38 194 39 Q 152 37 117 13 L 117 13 Q 96 0 77 15 Q 55 33 27 40 Q 14 43 7 54 Q 0 65 3 78 Q 6 91 17 98 Q 28 105 41 102 Q 79 92 100 77 Q 144 102 194 103 Q 243 100 274 84 Q 283 80 290 76 Q 297 80 306 84 Q 337 100 386 103 Q 436 102 481 77 Q 501 92 539 102 Q 552 105 563 98 Q 574 91 577 78 Q 580 65 573 54 Q 566 43 553 40 Q 525 33 503 15 Q 484 0 463 13 L 463 13 Q 428 37 386 39 Q 344 38 309 13 L 309 13 Z M 386 151 Q 344 150 309 125 Q 290 113 272 125 Q 237 150 194 151 Q 152 149 117 125 L 117 125 Q 96 112 77 127 Q 55 145 27 152 Q 14 155 7 166 Q 0 177 3 190 Q 6 203 17 210 Q 28 217 41 214 Q 79 204 100 189 Q 144 214 194 215 Q 243 212 274 196 Q 283 192 290 188 Q 297 192 306 196 Q 337 212 386 215 Q 436 214 481 189 Q 501 204 539 214 Q 552 217 563 210 Q 574 203 577 190 Q 580 177 573 166 Q 566 155 553 152 Q 525 145 503 127 Q 484 113 463 125 L 463 125 Q 428 149 386 151 L 386 151 Z"/>
</svg>
