<svg xmlns="http://www.w3.org/2000/svg" viewBox="0 0 448 320">
    <path d="M 160 0 Q 146 0 137 9 L 137 9 Q 128 18 128 32 L 128 48 Q 129 63 144 64 Q 159 63 160 48 L 160 32 L 288 32 L 288 48 Q 289 63 304 64 Q 319 63 320 48 L 320 32 Q 320 18 311 9 Q 302 0 288 0 L 160 0 L 160 0 Z M 160 256 Q 146 256 137 265 L 137 265 Q 128 274 128 288 L 128 304 Q 129 319 144 320 Q 159 319 160 304 L 160 288 L 288 288 L 288 304 Q 289 319 304 320 Q 319 319 320 304 L 320 288 Q 320 274 311 265 Q 302 256 288 256 L 160 256 L 160 256 Z M 0 176 L 448 176 L 448 144 L 0 144 L 0 176 L 0 176 Z"/>
</svg>
