<svg xmlns="http://www.w3.org/2000/svg" viewBox="0 0 256 352">
    <path d="M 0 128 Q 1 74 37 37 L 37 37 Q 74 1 128 0 Q 182 1 219 37 Q 255 74 256 128 L 256 192 L 0 192 L 0 128 L 0 128 Z M 96 128 Q 110 128 119 119 L 119 119 Q 128 110 128 96 Q 128 82 119 73 Q 110 64 96 64 Q 82 64 73 73 Q 64 82 64 96 Q 64 110 73 119 Q 82 128 96 128 L 96 128 Z M 192 112 Q 191 97 176 96 Q 161 97 160 112 Q 161 127 176 128 Q 191 127 192 112 L 192 112 Z M 80 256 L 176 256 Q 191 257 192 272 Q 191 287 176 288 L 80 288 Q 65 287 64 272 Q 65 257 80 256 L 80 256 Z M 80 320 L 176 320 Q 191 321 192 336 Q 191 351 176 352 L 80 352 Q 65 351 64 336 Q 65 321 80 320 L 80 320 Z"/>
</svg>
