<svg xmlns="http://www.w3.org/2000/svg" viewBox="0 0 478 512">
    <path d="M 256 64 Q 174 66 120 120 L 120 120 Q 66 174 64 256 Q 66 338 120 392 Q 174 446 256 448 Q 309 447 352 422 Q 395 397 421 354 L 421 355 Q 411 380 434 396 Q 446 402 458 399 Q 471 396 478 384 Q 478 384 478 383 L 478 383 Q 444 442 386 476 Q 328 511 256 512 Q 184 511 127 477 Q 69 443 35 385 Q 1 328 0 256 Q 1 184 35 127 Q 69 69 127 35 Q 184 1 256 0 Q 242 0 233 9 Q 224 18 224 32 Q 224 46 233 55 Q 242 64 256 64 L 256 64 Z"/>
</svg>
