<svg xmlns="http://www.w3.org/2000/svg" viewBox="0 0 384 512">
    <path d="M 32 0 Q 18 0 9 9 L 9 9 Q 0 18 0 32 L 0 87 Q 15 80 32 80 Q 49 80 64 87 L 64 32 Q 64 18 55 9 Q 46 0 32 0 L 32 0 Z M 0 233 L 0 480 Q 0 494 9 503 Q 18 512 32 512 Q 46 512 55 503 Q 64 494 64 480 L 64 233 Q 49 240 32 240 Q 15 240 0 233 L 0 233 Z M 192 0 Q 178 0 169 9 L 169 9 Q 160 18 160 32 L 160 279 Q 175 272 192 272 Q 209 272 224 279 L 224 32 Q 224 18 215 9 Q 206 0 192 0 L 192 0 Z M 160 425 L 160 480 Q 160 494 169 503 Q 178 512 192 512 Q 206 512 215 503 Q 224 494 224 480 L 224 425 Q 209 432 192 432 Q 175 432 160 425 L 160 425 Z M 384 32 Q 384 18 375 9 L 375 9 Q 366 0 352 0 Q 338 0 329 9 Q 320 18 320 32 L 320 119 Q 335 112 352 112 Q 369 112 384 119 L 384 32 L 384 32 Z M 320 265 L 320 480 Q 320 494 329 503 Q 338 512 352 512 Q 366 512 375 503 Q 384 494 384 480 L 384 265 Q 369 272 352 272 Q 335 272 320 265 L 320 265 Z"/>
</svg>
