<svg xmlns="http://www.w3.org/2000/svg" viewBox="0 0 384 514">
    <path d="M 110 58 L 93 21 Q 87 8 75 4 Q 63 0 51 5 Q 38 11 34 23 Q 30 35 35 48 L 75 133 L 110 58 L 110 58 Z M 151 274 L 151 274 L 115 274 L 115 274 L 80 274 L 80 274 L 64 274 Q 37 275 19 293 Q 1 311 0 338 L 0 365 Q 1 418 38 456 L 49 467 Q 96 513 162 514 L 224 514 Q 292 512 337 467 Q 382 422 384 354 L 384 345 Q 370 354 352 354 Q 331 354 315 342 Q 298 330 292 311 Q 276 322 256 322 Q 238 322 224 313 Q 224 314 224 314 Q 224 314 224 314 Q 223 345 203 365 Q 183 385 152 386 L 96 386 Q 81 385 80 370 Q 81 355 96 354 L 152 354 Q 169 354 180 342 Q 192 331 192 314 Q 192 297 180 286 Q 169 274 152 274 L 151 274 L 151 274 Z M 192 233 L 181 209 L 165 243 Q 180 246 192 254 L 192 233 L 192 233 Z M 60 242 L 130 242 L 221 48 Q 226 35 222 23 Q 218 11 206 5 Q 193 0 181 4 Q 169 8 163 21 L 60 242 L 60 242 Z"/>
</svg>
