<svg xmlns="http://www.w3.org/2000/svg" viewBox="0 0 576 321">
    <path d="M 32 0 Q 18 0 9 9 L 9 9 Q 0 18 0 32 L 0 68 Q 0 80 8 88 Q 16 96 28 96 Q 57 97 76 116 Q 95 135 96 164 L 96 289 Q 116 289 133 300 Q 162 320 192 321 Q 192 320 192 320 Q 192 320 192 320 L 192 192 Q 193 151 220 124 Q 247 97 288 96 Q 329 97 356 124 Q 383 151 384 192 L 384 320 Q 384 320 384 320 Q 384 320 384 321 Q 384 321 384 321 Q 384 321 384 321 Q 414 320 443 300 Q 460 289 480 289 L 480 164 Q 481 135 500 116 Q 519 97 548 96 Q 560 96 568 88 Q 576 80 576 68 L 576 32 Q 576 18 567 9 Q 558 0 544 0 L 32 0 L 32 0 Z"/>
</svg>
