<svg xmlns="http://www.w3.org/2000/svg" viewBox="0 0 420 420">
    <path d="M 296 3 Q 304 7 306 15 L 320 100 L 405 114 Q 413 116 417 124 Q 420 132 415 139 L 377 194 Q 373 194 370 194 Q 335 194 306 211 Q 306 211 306 210 Q 306 210 306 210 Q 305 169 278 142 Q 251 115 210 114 Q 169 115 142 142 Q 115 169 114 210 Q 115 251 142 278 Q 169 305 210 306 Q 222 306 233 303 Q 206 317 187 342 Q 169 366 164 398 L 139 415 Q 132 420 124 417 Q 116 413 114 405 L 100 320 L 15 306 Q 7 304 3 296 Q 0 288 5 281 L 55 210 L 5 139 Q 0 132 3 124 Q 7 116 15 114 L 100 100 L 114 15 Q 116 7 124 3 Q 132 0 139 5 L 210 55 L 281 5 Q 288 0 296 3 L 296 3 Z M 146 210 Q 147 174 178 155 Q 210 137 242 155 Q 273 174 274 210 Q 273 246 242 265 Q 210 283 178 265 Q 147 246 146 210 L 146 210 Z"/>
</svg>
