<svg xmlns="http://www.w3.org/2000/svg" viewBox="0 0 352 384">
    <path d="M 176 0 Q 198 2 200 24 L 200 49 L 213 37 Q 224 27 235 37 Q 245 48 235 59 L 200 95 L 200 150 L 248 123 L 261 74 Q 266 61 281 63 Q 295 68 292 83 L 288 100 L 310 87 Q 330 78 342 96 Q 351 116 334 129 L 312 142 L 329 146 Q 343 151 340 166 Q 335 179 320 177 L 272 164 L 224 192 L 272 220 L 321 207 Q 335 205 340 218 Q 343 233 329 238 L 312 243 L 334 255 Q 352 268 342 288 Q 330 306 310 297 L 288 284 L 292 301 Q 295 316 281 321 Q 266 323 261 310 L 248 261 L 200 234 L 200 289 L 235 325 Q 245 336 235 347 Q 224 357 213 347 L 200 335 L 200 360 Q 198 382 176 384 Q 154 382 152 360 L 152 335 L 139 347 Q 128 357 117 347 Q 107 336 117 325 L 152 289 L 152 234 L 104 262 L 91 310 Q 86 323 71 321 Q 57 316 60 301 L 64 284 L 42 297 Q 23 306 10 288 Q 0 268 19 255 L 41 243 L 23 238 Q 9 233 12 218 Q 17 205 32 207 L 80 220 L 128 192 L 80 164 L 31 177 Q 17 179 12 166 Q 9 151 23 146 L 40 141 L 18 129 Q 1 116 10 96 Q 22 78 43 87 L 65 100 L 60 83 Q 57 68 71 63 Q 86 61 91 74 L 104 122 L 152 150 L 152 95 L 117 59 Q 107 48 117 37 Q 128 27 139 37 L 152 49 L 152 24 Q 154 2 176 0 L 176 0 Z"/>
</svg>
