<svg xmlns="http://www.w3.org/2000/svg" viewBox="0 0 448 448">
    <path d="M 0 224 Q 0 178 17 138 L 17 138 Q 34 98 64 67 Q 100 75 128 96 Q 98 118 81 151 Q 64 184 64 224 Q 64 264 81 297 Q 98 330 128 352 Q 100 373 64 381 Q 34 350 17 310 Q 0 270 0 224 L 0 224 Z M 192 381 Q 254 318 256 224 Q 254 130 192 67 Q 179 54 164 43 Q 164 43 163 43 Q 163 42 163 42 Q 146 30 128 21 Q 172 0 224 0 Q 287 1 337 31 Q 388 60 417 111 Q 447 161 448 224 Q 447 287 417 337 Q 388 388 337 417 Q 287 447 224 448 Q 172 448 128 426 Q 146 418 163 406 Q 178 395 192 381 L 192 381 Z"/>
</svg>
