<svg xmlns="http://www.w3.org/2000/svg" viewBox="0 0 324 512">
    <path d="M 50 18 Q 86 2 162 0 Q 239 2 274 18 Q 292 26 301 32 Q 323 45 322 69 L 293 240 L 235 240 L 250 73 Q 250 65 243 64 Q 235 64 234 71 L 219 240 L 170 240 L 170 64 Q 169 57 162 56 Q 155 57 154 64 L 154 240 L 105 240 L 90 71 Q 89 64 81 64 Q 74 65 74 73 L 89 240 L 31 240 L 2 69 Q 1 45 23 32 Q 32 26 50 18 L 50 18 Z M 31 272 L 89 272 L 74 439 Q 74 447 81 448 Q 89 448 90 441 L 100 327 Q 102 331 105 333 Q 117 341 127 330 L 154 293 L 154 448 Q 155 455 162 456 Q 169 455 170 448 L 170 293 L 197 330 Q 207 341 220 333 Q 223 331 224 327 L 234 441 Q 235 448 243 448 Q 250 447 250 439 L 235 272 L 293 272 L 322 443 Q 324 459 313 471 L 313 471 Q 296 486 274 494 Q 239 510 162 512 Q 85 510 50 494 Q 28 486 11 471 L 11 471 Q 0 459 2 443 L 31 272 L 31 272 Z M 223 310 L 194 272 L 219 272 L 223 310 L 223 310 Z M 105 272 L 130 272 L 101 310 L 105 272 L 105 272 Z"/>
</svg>
