<svg xmlns="http://www.w3.org/2000/svg" viewBox="0 0 384 512">
    <path d="M 0 64 Q 1 37 19 19 L 19 19 Q 37 1 64 0 L 224 0 L 224 128 Q 224 142 233 151 Q 242 160 256 160 L 384 160 L 384 448 Q 383 475 365 493 Q 347 511 320 512 L 64 512 Q 37 511 19 493 Q 1 475 0 448 L 0 64 L 0 64 Z M 288 224 Q 288 216 281 211 Q 274 206 266 209 L 138 257 Q 129 261 128 272 L 128 304 L 128 386 Q 120 384 112 384 Q 92 384 78 393 Q 65 402 64 416 Q 65 430 78 439 Q 92 448 112 448 Q 132 448 146 439 Q 159 430 160 416 L 160 315 L 256 279 L 256 354 Q 248 352 240 352 Q 220 352 206 361 Q 193 370 192 384 Q 193 398 206 407 Q 220 416 240 416 Q 260 416 274 407 Q 287 398 288 384 L 288 256 L 288 224 L 288 224 Z"/>
</svg>
