<svg xmlns="http://www.w3.org/2000/svg" viewBox="0 0 291 514">
    <path d="M 80 96 Q 107 95 122 72 Q 134 48 122 24 Q 107 1 80 0 Q 53 1 38 24 Q 26 48 38 72 Q 53 95 80 96 L 80 96 Z M 64 128 Q 37 129 19 147 L 19 147 Q 1 165 0 192 L 0 320 Q 0 334 9 343 Q 18 352 32 352 Q 47 352 56 341 L 80 485 Q 83 499 93 506 Q 104 513 117 512 Q 131 509 138 499 Q 145 488 144 475 L 123 352 L 139 352 L 169 487 Q 172 500 183 507 Q 194 514 207 511 Q 220 508 227 497 Q 234 486 231 473 L 173 212 L 276 255 Q 270 243 274 230 L 276 222 Q 282 206 291 192 L 155 135 Q 138 128 118 128 L 64 128 L 64 128 Z"/>
</svg>
