<svg xmlns="http://www.w3.org/2000/svg" viewBox="0 0 640 519">
    <path d="M 53 11 L 101 43 Q 118 57 108 76 Q 94 93 75 83 L 27 51 Q 10 37 20 18 Q 34 1 53 11 L 53 11 Z M 613 51 L 565 83 Q 546 94 532 76 Q 521 57 539 43 L 587 11 Q 606 0 620 18 Q 631 37 613 51 L 613 51 Z M 24 167 L 88 167 Q 110 169 112 191 Q 110 213 88 215 L 24 215 Q 2 213 0 191 Q 2 169 24 167 L 24 167 Z M 552 167 L 616 167 Q 638 169 640 191 Q 638 213 616 215 L 552 215 Q 530 213 528 191 Q 530 169 552 167 L 552 167 Z M 101 339 L 53 371 Q 34 382 20 364 Q 9 345 27 331 L 75 299 Q 94 288 108 306 Q 119 325 101 339 L 101 339 Z M 565 299 L 613 331 Q 630 345 620 364 Q 606 381 587 371 L 539 339 Q 522 325 532 306 Q 546 289 565 299 L 565 299 Z M 224 423 Q 224 409 233 400 L 233 400 Q 242 391 256 391 L 384 391 Q 398 391 407 400 Q 416 409 416 423 L 416 455 Q 416 469 407 478 Q 398 487 384 487 L 352 487 Q 352 501 343 510 Q 334 519 320 519 Q 306 519 297 510 Q 288 501 288 487 L 256 487 Q 242 487 233 478 Q 224 469 224 455 L 224 423 L 224 423 Z"/>
</svg>
