<svg xmlns="http://www.w3.org/2000/svg" viewBox="0 0 384 512">
    <path d="M 0 32 Q 0 18 9 9 L 9 9 Q 18 0 32 0 L 64 0 L 320 0 L 352 0 Q 366 0 375 9 Q 384 18 384 32 Q 384 46 375 55 Q 366 64 352 64 L 352 75 Q 351 141 305 188 L 237 256 L 273 292 Q 256 327 256 368 Q 257 413 277 450 Q 297 488 331 512 L 320 512 L 64 512 L 32 512 Q 18 512 9 503 Q 0 494 0 480 Q 0 466 9 457 Q 18 448 32 448 L 32 437 Q 33 371 79 324 L 147 256 L 79 188 Q 33 141 32 75 L 32 64 Q 18 64 9 55 Q 0 46 0 32 L 0 32 Z M 96 64 L 96 75 Q 96 104 112 128 L 272 128 Q 288 104 288 75 L 288 64 L 96 64 L 96 64 Z"/>
</svg>
