<svg xmlns="http://www.w3.org/2000/svg" viewBox="0 0 516 242">
    <path d="M 373 15 Q 371 7 364 3 Q 356 0 348 5 L 258 67 L 168 5 Q 160 0 153 3 Q 145 7 143 15 L 123 123 L 15 143 Q 7 145 3 153 Q 0 160 5 168 L 56 242 L 131 242 Q 138 194 173 162 Q 208 131 258 130 Q 308 131 343 162 Q 378 194 385 242 L 460 242 L 511 168 Q 516 160 513 153 Q 509 145 501 143 L 393 123 L 373 15 L 373 15 Z M 353 242 Q 346 207 320 185 L 320 185 Q 294 163 258 162 Q 222 163 196 185 Q 170 207 163 242 L 353 242 L 353 242 Z"/>
</svg>
