<svg xmlns="http://www.w3.org/2000/svg" viewBox="0 0 512 512">
    <path d="M 297 9 Q 307 0 320 0 L 320 0 Q 333 0 343 9 L 375 41 L 471 137 L 503 169 Q 512 179 512 192 Q 512 205 503 215 Q 493 224 480 224 Q 467 224 457 215 L 448 205 L 169 484 Q 141 511 101 512 L 96 512 Q 55 511 28 484 Q 1 457 0 416 L 0 411 Q 1 371 28 343 L 307 64 L 297 55 Q 288 45 288 32 Q 288 19 297 9 L 297 9 Z M 352 109 L 73 388 Q 64 397 64 411 L 64 416 Q 64 430 73 439 Q 82 448 96 448 L 102 448 Q 115 448 124 439 L 403 160 L 352 109 L 352 109 Z"/>
</svg>
