<svg xmlns="http://www.w3.org/2000/svg" viewBox="0 0 512 416">
    <path d="M 64 32 L 57 7 Q 55 0 48 0 Q 41 0 39 7 L 32 32 L 7 39 Q 0 41 0 48 Q 0 55 7 57 L 32 64 L 39 89 Q 41 96 48 96 Q 55 96 57 89 L 64 64 L 89 57 Q 96 55 96 48 Q 96 41 89 39 L 64 32 L 64 32 Z M 480 352 L 473 327 Q 471 320 464 320 Q 457 320 455 327 L 448 352 L 423 359 Q 416 361 416 368 Q 416 375 423 377 L 448 384 L 455 409 Q 457 416 464 416 Q 471 416 473 409 L 480 384 L 505 377 Q 512 375 512 368 Q 512 361 505 359 L 480 352 L 480 352 Z M 112 256 Q 97 257 96 272 Q 97 287 112 288 L 400 288 Q 415 287 416 272 Q 415 257 400 256 L 112 256 L 112 256 Z M 176 320 Q 161 321 160 336 Q 161 351 176 352 L 336 352 Q 351 351 352 336 Q 351 321 336 320 L 176 320 L 176 320 Z M 176 384 Q 161 385 160 400 Q 161 415 176 416 L 336 416 Q 351 415 352 400 Q 351 385 336 384 L 176 384 L 176 384 Z"/>
</svg>
