<svg xmlns="http://www.w3.org/2000/svg" viewBox="0 0 512 453">
    <path d="M 511 260 Q 504 261 496 261 Q 426 259 377 215 Q 328 170 321 101 L 224 101 L 224 37 Q 223 17 205 8 Q 186 0 171 13 L 11 157 Q 0 167 0 181 Q 0 195 11 205 L 171 349 Q 186 362 205 354 Q 223 345 224 325 L 224 261 L 320 261 Q 361 262 388 289 Q 415 316 416 357 Q 415 380 408 393 Q 401 407 394 414 Q 385 422 384 433 Q 386 451 404 453 Q 408 453 412 451 Q 422 446 446 427 Q 470 407 490 370 Q 511 333 512 277 Q 512 269 511 260 L 511 260 Z"/>
</svg>
