<svg xmlns="http://www.w3.org/2000/svg" viewBox="0 0 405 405">
    <path d="M 42 359 Q 0 314 0 257 L 0 257 Q 0 199 42 154 L 155 42 Q 199 0 257 0 Q 314 0 359 42 Q 397 81 401 132 Q 405 184 374 228 L 373 230 Q 365 241 353 243 Q 340 245 329 237 Q 318 229 316 216 Q 314 204 321 193 L 322 191 Q 340 166 337 138 Q 335 109 314 87 Q 289 64 257 64 Q 225 64 200 87 L 88 200 Q 64 224 64 257 Q 64 289 88 314 Q 109 334 138 337 Q 166 339 191 322 L 193 321 Q 204 313 217 315 Q 229 318 238 328 Q 245 340 243 352 Q 241 365 230 373 L 229 374 Q 184 405 133 401 Q 81 396 42 359 L 42 359 Z"/>
</svg>
