<svg xmlns="http://www.w3.org/2000/svg" viewBox="0 0 529 528">
    <path d="M 48 398 Q 31 384 14 398 Q 0 415 14 432 Q 73 490 148 509 Q 223 528 298 509 Q 373 490 432 432 Q 490 373 509 298 Q 529 223 509 148 Q 490 73 432 14 Q 415 0 398 14 Q 384 31 398 48 Q 447 97 463 160 Q 479 223 463 286 Q 447 349 398 398 Q 349 447 286 463 Q 223 479 160 463 Q 98 446 48 398 L 48 398 Z M 346 164 Q 335 154 324 164 Q 314 175 324 186 L 340 202 Q 351 212 362 202 Q 372 191 362 180 L 346 164 L 346 164 Z M 266 244 Q 255 234 244 244 Q 234 255 244 266 L 260 282 Q 271 292 282 282 Q 292 271 282 260 L 266 244 L 266 244 Z M 354 252 Q 343 242 332 252 Q 322 263 332 274 L 348 290 Q 359 300 370 290 Q 380 279 370 268 L 354 252 L 354 252 Z M 186 324 Q 175 314 164 324 Q 154 335 164 346 L 180 362 Q 191 372 202 362 Q 212 351 202 340 L 186 324 L 186 324 Z M 274 332 Q 263 322 252 332 Q 242 343 252 354 L 268 370 Q 279 380 290 370 Q 300 359 290 348 L 274 332 L 274 332 Z"/>
</svg>
