<svg xmlns="http://www.w3.org/2000/svg" viewBox="0 0 384 384">
    <path d="M 64 0 Q 37 1 19 19 L 19 19 Q 1 37 0 64 L 0 320 Q 1 347 19 365 Q 37 383 64 384 L 320 384 Q 347 383 365 365 Q 383 347 384 320 L 384 64 Q 383 37 365 19 Q 347 1 320 0 L 64 0 L 64 0 Z M 216 120 L 216 168 L 264 168 Q 286 170 288 192 Q 286 214 264 216 L 216 216 L 216 264 Q 214 286 192 288 Q 170 286 168 264 L 168 216 L 120 216 Q 98 214 96 192 Q 98 170 120 168 L 168 168 L 168 120 Q 170 98 192 96 Q 214 98 216 120 L 216 120 Z"/>
</svg>
