<svg xmlns="http://www.w3.org/2000/svg" viewBox="0 0 320 256">
    <path d="M 272 144 L 221 144 Q 224 152 224 160 Q 223 180 210 194 Q 196 207 176 208 Q 168 208 160 205 L 160 224 Q 160 238 151 247 Q 142 256 128 256 Q 114 256 105 247 Q 96 238 96 224 L 96 205 Q 88 208 80 208 Q 60 207 46 194 Q 33 180 32 160 Q 32 159 32 157 Q 2 145 0 112 Q 1 92 14 78 Q 28 65 48 64 Q 49 44 62 30 Q 76 17 96 16 Q 109 16 120 22 Q 133 1 160 0 Q 187 1 201 22 Q 211 16 224 16 Q 257 18 269 48 Q 270 48 271 48 Q 271 48 272 48 Q 292 49 306 62 Q 319 76 320 96 Q 319 116 306 130 Q 292 143 272 144 L 272 144 Z M 96 115 L 96 115 L 96 112 Q 96 113 96 115 L 96 115 Z"/>
</svg>
