<svg xmlns="http://www.w3.org/2000/svg" viewBox="0 0 384 448">
    <path d="M 113 2 Q 113 2 113 1 L 113 1 Q 114 0 114 0 L 64 0 Q 37 1 19 19 Q 1 37 0 64 L 0 384 Q 1 411 19 429 Q 37 447 64 448 L 320 448 Q 347 447 365 429 Q 383 411 384 384 L 384 64 Q 383 37 365 19 Q 347 1 320 0 L 270 0 Q 271 1 271 2 Q 271 2 271 2 Q 302 14 304 48 L 304 72 Q 302 94 280 96 L 192 96 L 104 96 Q 82 94 80 72 L 80 48 Q 82 14 113 2 L 113 2 Z M 104 132 L 176 132 Q 201 133 218 150 Q 235 167 236 192 Q 236 211 225 226 Q 215 241 198 248 L 241 288 L 275 257 Q 289 246 303 258 Q 314 273 302 287 L 270 316 L 302 345 Q 314 359 303 374 Q 289 386 274 375 L 240 343 L 206 375 Q 191 386 177 374 Q 166 359 178 345 L 211 315 L 146 255 Q 145 253 144 252 Q 144 252 144 252 L 124 252 L 124 296 Q 122 314 104 316 Q 86 314 84 296 L 84 232 L 84 152 Q 86 134 104 132 L 104 132 Z M 176 212 Q 194 210 196 192 Q 194 174 176 172 L 124 172 L 124 212 L 176 212 L 176 212 Z"/>
</svg>
