<svg xmlns="http://www.w3.org/2000/svg" viewBox="0 0 391 409">
    <path d="M 142 14 Q 159 0 176 14 L 300 138 Q 308 145 317 141 Q 326 137 327 126 L 327 87 Q 327 73 336 64 Q 345 55 359 55 Q 373 55 382 64 Q 391 73 391 87 L 391 241 Q 391 284 370 321 Q 349 357 312 380 Q 263 409 209 402 Q 155 395 114 356 L 14 256 Q 0 239 14 222 Q 31 208 48 222 L 101 275 Q 112 284 123 275 Q 132 264 123 253 L 30 160 Q 16 143 30 126 Q 47 112 64 126 L 157 219 Q 168 228 179 219 Q 188 208 179 197 L 62 80 Q 48 63 62 46 Q 79 32 96 46 L 213 163 Q 224 172 235 163 Q 244 152 235 141 L 142 48 Q 128 31 142 14 L 142 14 Z"/>
</svg>
