<svg xmlns="http://www.w3.org/2000/svg" viewBox="0 0 640 352">
    <path d="M 64 72 Q 65 65 72 64 L 160 64 L 160 160 L 64 160 L 64 72 L 64 72 Z M 546 160 L 384 160 L 384 64 L 465 64 L 546 160 L 546 160 Z M 320 160 L 224 160 L 224 64 L 320 64 L 320 160 L 320 160 Z M 72 0 Q 41 1 21 21 L 21 21 Q 1 41 0 72 L 0 304 Q 1 324 14 338 Q 28 351 48 352 L 49 352 Q 56 310 86 284 Q 117 257 160 256 Q 203 257 234 284 Q 264 310 271 352 L 369 352 Q 376 310 406 284 Q 437 257 480 256 Q 523 257 554 284 Q 584 310 591 352 L 592 352 Q 612 351 626 338 Q 639 324 640 304 L 640 196 Q 640 172 625 155 L 514 23 Q 495 1 465 0 L 352 0 L 192 0 L 72 0 L 72 0 Z"/>
</svg>
