<svg xmlns="http://www.w3.org/2000/svg" viewBox="0 0 502 374">
    <path d="M 208 0 Q 179 0 155 16 L 155 16 Q 132 31 120 58 L 91 126 L 16 200 Q 0 218 0 240 Q 0 262 16 280 L 94 358 Q 112 374 134 374 Q 156 374 174 358 L 211 320 Q 212 320 213 320 Q 213 320 214 320 L 374 320 Q 394 320 408 306 Q 421 292 422 272 Q 422 264 419 256 L 422 256 Q 442 256 456 242 Q 469 228 470 208 Q 470 188 457 175 Q 477 171 489 156 Q 502 141 502 120 Q 501 96 486 81 Q 470 65 446 64 L 310 64 L 310 128 Q 309 148 296 162 Q 282 176 262 176 Q 242 176 228 162 Q 215 148 214 128 L 214 0 L 208 0 L 208 0 Z"/>
</svg>
