<svg xmlns="http://www.w3.org/2000/svg" viewBox="0 0 488 450">
    <path d="M 218 0 Q 144 5 87 45 L 87 45 Q 30 85 0 148 L 43 212 Q 56 232 79 238 L 139 256 Q 166 265 168 294 L 168 334 Q 169 352 184 360 Q 199 368 200 386 L 200 425 Q 200 437 209 444 Q 218 450 230 448 Q 255 439 263 414 L 265 403 Q 272 376 296 363 L 304 358 Q 327 344 328 316 L 328 308 Q 328 288 314 274 L 310 270 Q 296 256 276 256 L 233 256 Q 216 256 201 248 L 167 228 Q 160 224 158 217 Q 153 201 168 192 L 174 189 Q 184 184 195 188 L 218 195 Q 232 199 240 188 Q 247 176 239 165 L 225 149 Q 210 128 225 108 L 242 89 Q 255 72 245 53 L 218 0 L 218 0 Z M 457 134 L 387 164 Q 363 177 369 204 L 387 257 Q 392 272 407 277 L 484 303 Q 488 280 488 256 Q 487 189 457 134 L 457 134 Z"/>
</svg>
