<svg xmlns="http://www.w3.org/2000/svg" viewBox="0 0 384 384">
    <path d="M 320 0 L 0 0 L 0 24 Q 2 46 24 48 L 296 48 Q 318 46 320 24 L 320 0 L 320 0 Z M 24 336 Q 2 338 0 360 L 0 384 L 320 384 L 320 360 Q 318 338 296 336 L 24 336 L 24 336 Z M 16 80 Q 1 81 0 96 Q 1 111 16 112 L 304 112 Q 319 111 320 96 Q 319 81 304 80 L 16 80 L 16 80 Z M 16 144 Q 1 145 0 160 Q 1 175 16 176 L 368 176 Q 383 175 384 160 Q 383 145 368 144 L 16 144 L 16 144 Z M 16 208 Q 1 209 0 224 Q 1 239 16 240 L 304 240 Q 319 239 320 224 Q 319 209 304 208 L 16 208 L 16 208 Z M 16 272 Q 1 273 0 288 Q 1 303 16 304 L 304 304 Q 319 303 320 288 Q 319 273 304 272 L 16 272 L 16 272 Z"/>
</svg>
