<svg xmlns="http://www.w3.org/2000/svg" viewBox="0 0 512 512">
    <path d="M 256 0 Q 230 0 208 13 L 208 13 Q 186 26 173 48 Q 160 71 160 96 Q 160 121 173 144 Q 186 166 208 179 Q 230 192 256 192 Q 282 192 304 179 Q 326 166 339 144 Q 352 121 352 96 Q 352 71 339 48 Q 326 26 304 13 Q 282 0 256 0 L 256 0 Z M 240 512 L 240 248 Q 160 193 62 192 L 32 192 Q 18 192 9 201 Q 0 210 0 224 L 0 427 Q 2 454 29 459 L 125 468 Q 160 472 192 488 L 240 512 L 240 512 Z M 272 512 L 320 488 Q 352 472 387 469 L 483 459 Q 510 454 512 427 L 512 224 Q 512 210 503 201 Q 494 192 480 192 L 450 192 Q 352 193 272 248 L 272 512 L 272 512 Z"/>
</svg>
