<svg xmlns="http://www.w3.org/2000/svg" viewBox="0 0 441 320">
    <path d="M 121 160 Q 121 117 142 80 L 142 80 Q 164 43 201 21 Q 239 0 281 0 Q 323 0 361 21 Q 398 43 420 80 Q 441 117 441 160 Q 441 203 420 240 Q 398 277 361 299 Q 323 320 281 320 Q 239 320 201 299 Q 164 277 142 240 Q 121 203 121 160 L 121 160 Z M 185 160 Q 186 201 213 228 L 213 228 Q 240 255 281 256 Q 322 255 349 228 Q 376 201 377 160 L 377 43 Q 376 33 366 32 Q 361 32 358 36 L 318 90 Q 313 96 305 96 L 257 96 Q 249 96 244 90 L 204 36 Q 201 32 196 32 Q 186 33 185 43 L 185 160 L 185 160 Z M 65 12 L 75 41 Q 77 44 80 46 L 109 57 Q 114 59 114 64 Q 114 69 109 72 L 80 82 Q 76 83 75 87 L 65 116 Q 62 121 57 121 Q 52 121 50 116 L 39 87 Q 37 84 34 82 L 5 72 Q 0 69 0 64 Q 0 59 5 57 L 34 46 Q 38 45 39 41 L 50 12 Q 52 7 57 7 Q 62 7 65 12 L 65 12 Z"/>
</svg>
