<svg xmlns="http://www.w3.org/2000/svg" viewBox="0 0 487 502">
    <path d="M 231 0 Q 237 0 243 0 Q 252 1 255 8 Q 259 15 255 23 L 153 200 Q 147 208 139 208 Q 130 208 125 200 L 58 84 Q 52 73 61 65 Q 131 2 231 0 L 231 0 Z M 169 492 Q 162 502 151 499 Q 102 483 65 451 Q 27 418 4 374 Q 0 366 4 359 Q 9 352 17 352 L 222 352 Q 231 352 236 360 Q 240 367 236 376 L 169 492 L 169 492 Z M 447 394 Q 441 401 434 401 L 434 401 Q 426 400 421 393 L 319 216 Q 314 207 319 200 Q 323 192 333 192 L 467 192 Q 478 193 482 204 Q 487 229 487 256 Q 486 333 447 394 L 447 394 Z"/>
</svg>
