<svg xmlns="http://www.w3.org/2000/svg" viewBox="0 0 460 355">
    <path d="M 455 236 Q 444 261 424 292 L 424 292 Q 404 324 375 355 L 295 293 Q 313 262 313 224 Q 311 163 271 122 Q 230 82 169 80 Q 112 81 72 118 L 0 61 Q 33 34 75 17 Q 118 1 169 0 Q 230 1 278 24 Q 326 47 362 81 Q 397 114 420 149 Q 443 184 455 212 Q 460 224 455 236 L 455 236 Z M 265 224 Q 265 245 257 263 L 162 188 Q 169 175 169 160 Q 169 143 161 128 Q 161 128 161 128 Q 165 128 169 128 Q 210 129 237 156 Q 264 183 265 224 L 265 224 Z"/>
</svg>
