<svg xmlns="http://www.w3.org/2000/svg" viewBox="0 0 460 454">
    <path d="M 51 6 Q 25 7 12 28 Q 0 51 12 73 Q 25 95 51 96 Q 76 95 90 73 Q 102 51 90 28 Q 76 7 51 6 L 51 6 Z M 51 245 Q 25 246 12 267 Q 0 290 12 312 Q 25 334 51 335 Q 76 334 90 312 Q 102 290 90 267 Q 76 246 51 245 L 51 245 Z M 126 170 Q 126 196 148 209 Q 170 221 193 209 Q 214 196 215 170 Q 214 145 193 131 Q 170 119 148 131 Q 126 145 126 170 L 126 170 Z M 170 364 Q 145 365 132 387 Q 119 409 132 432 Q 145 453 170 454 Q 196 453 209 432 Q 221 409 209 387 Q 196 365 170 364 L 170 364 Z M 245 51 Q 246 76 267 90 Q 290 102 312 90 Q 334 76 335 51 Q 334 25 312 12 Q 290 0 267 12 Q 246 25 245 51 L 245 51 Z M 290 245 Q 264 246 251 267 Q 239 290 251 312 Q 264 334 290 335 Q 315 334 328 312 Q 341 290 328 267 Q 315 246 290 245 L 290 245 Z M 364 170 Q 365 196 387 209 Q 409 221 432 209 Q 453 196 454 170 Q 453 145 432 131 Q 409 119 387 131 Q 365 145 364 170 L 364 170 Z M 409 364 Q 384 365 370 387 Q 358 409 370 432 Q 384 453 409 454 Q 435 453 448 432 Q 460 409 448 387 Q 435 365 409 364 L 409 364 Z"/>
</svg>
