<svg xmlns="http://www.w3.org/2000/svg" viewBox="0 0 512 352">
    <path d="M 0 109 L 0 144 Q 0 158 9 167 Q 18 176 32 176 L 74 176 Q 95 175 104 156 L 123 107 Q 128 96 139 91 Q 153 85 183 79 Q 213 73 256 72 Q 299 73 329 79 Q 359 85 373 91 Q 384 96 388 107 L 408 156 Q 417 175 438 176 L 480 176 Q 494 176 503 167 Q 512 158 512 144 L 512 109 Q 512 96 502 87 Q 480 66 417 35 Q 354 3 256 0 Q 158 3 95 35 Q 32 66 10 87 Q 0 96 0 109 L 0 109 Z M 256 352 Q 297 351 318 316 Q 338 280 318 244 Q 297 209 256 208 Q 215 209 194 244 Q 174 280 194 316 Q 215 351 256 352 L 256 352 Z"/>
</svg>
