<svg xmlns="http://www.w3.org/2000/svg" viewBox="0 0 439 438">
    <path d="M 348 3 Q 355 6 357 13 L 360 28 Q 378 17 400 17 L 405 17 Q 420 18 421 33 L 421 39 Q 421 60 411 78 L 425 82 Q 432 83 435 90 Q 439 97 436 103 Q 425 127 402 135 L 416 150 Q 426 161 416 172 Q 392 195 361 197 Q 349 169 328 148 L 290 110 Q 269 89 241 77 Q 243 46 266 22 Q 277 12 288 22 L 303 36 Q 311 14 335 2 Q 341 0 348 3 L 348 3 Z M 112 214 L 133 234 L 154 214 Q 165 204 176 214 Q 186 225 176 236 L 144 268 Q 133 278 122 268 L 90 236 Q 80 225 90 214 Q 101 204 112 214 L 112 214 Z M 32 294 L 53 314 L 74 294 Q 85 284 96 294 Q 106 305 96 316 L 64 348 Q 53 358 42 348 L 10 316 Q 0 305 10 294 Q 21 284 32 294 L 32 294 Z M 192 294 L 213 314 L 234 294 Q 245 284 256 294 Q 266 305 256 316 L 224 348 Q 213 358 202 348 L 170 316 Q 160 305 170 294 Q 181 284 192 294 L 192 294 Z M 90 374 Q 101 364 112 374 L 133 394 L 154 374 Q 165 364 176 374 Q 186 385 176 396 L 144 428 Q 133 438 122 428 L 90 396 Q 80 385 90 374 L 90 374 Z"/>
</svg>
