<svg xmlns="http://www.w3.org/2000/svg" viewBox="0 0 512 384">
    <path d="M 370 9 Q 318 0 256 0 Q 147 0 75 26 Q 3 53 0 112 L 0 272 Q 3 320 72 351 L 72 248 Q 74 226 96 224 Q 118 226 120 248 L 120 367 Q 170 381 232 384 L 232 280 Q 234 258 256 256 Q 278 258 280 280 L 280 384 Q 342 381 392 367 L 392 248 Q 394 226 416 224 Q 438 226 440 248 L 440 351 Q 509 320 512 272 L 512 112 Q 509 51 433 25 L 380 59 Q 402 64 420 71 Q 448 82 456 93 Q 465 104 464 112 Q 465 113 457 123 Q 449 133 418 148 Q 357 175 256 176 Q 155 175 94 148 Q 63 133 55 123 Q 47 113 48 112 Q 47 104 56 93 Q 64 82 92 71 Q 152 48 256 48 Q 283 48 307 50 L 370 9 L 370 9 Z"/>
</svg>
