<svg xmlns="http://www.w3.org/2000/svg" viewBox="0 0 512 192">
    <path d="M 0 64 Q 1 37 19 19 L 19 19 Q 37 1 64 0 L 448 0 Q 475 1 493 19 Q 511 37 512 64 L 512 128 Q 511 155 493 173 Q 475 191 448 192 L 64 192 Q 37 191 19 173 Q 1 155 0 128 L 0 64 L 0 64 Z M 352 96 Q 352 82 343 73 L 343 73 Q 334 64 320 64 Q 306 64 297 73 Q 288 82 288 96 Q 288 110 297 119 Q 306 128 320 128 Q 334 128 343 119 Q 352 110 352 96 L 352 96 Z M 416 128 Q 430 128 439 119 L 439 119 Q 448 110 448 96 Q 448 82 439 73 Q 430 64 416 64 Q 402 64 393 73 Q 384 82 384 96 Q 384 110 393 119 Q 402 128 416 128 L 416 128 Z"/>
</svg>
