<svg xmlns="http://www.w3.org/2000/svg" viewBox="0 0 644 324">
    <path d="M 20 5 Q 32 0 44 4 L 44 4 Q 56 8 63 20 L 162 218 L 261 20 Q 268 8 280 4 Q 292 0 304 5 Q 316 12 320 24 Q 324 36 319 48 L 191 304 Q 181 321 162 322 Q 143 321 133 304 L 5 48 Q 0 36 4 24 Q 8 12 20 5 L 20 5 Z M 340 319 Q 328 312 324 300 L 324 300 Q 320 288 325 276 L 453 20 Q 463 3 482 2 Q 501 3 511 20 L 639 276 Q 644 288 640 300 Q 636 312 624 319 Q 612 324 600 320 Q 588 316 581 304 L 558 258 L 406 258 L 383 304 Q 376 316 364 320 Q 352 324 340 319 L 340 319 Z M 526 194 L 482 106 L 438 194 L 526 194 L 526 194 Z"/>
</svg>
