<svg xmlns="http://www.w3.org/2000/svg" viewBox="0 0 328 384">
    <path d="M 0 32 Q 0 18 9 9 L 9 9 Q 18 0 32 0 L 288 0 Q 302 0 311 9 Q 320 18 320 32 Q 320 46 311 55 Q 302 64 288 64 L 32 64 Q 18 64 9 55 Q 0 46 0 32 L 0 32 Z M 0 192 Q 0 178 9 169 L 9 169 Q 18 160 32 160 L 296 160 Q 310 160 319 169 Q 328 178 328 192 Q 328 206 319 215 Q 310 224 296 224 L 32 224 Q 18 224 9 215 Q 0 206 0 192 L 0 192 Z M 32 320 L 288 320 Q 302 320 311 329 Q 320 338 320 352 Q 320 366 311 375 Q 302 384 288 384 L 32 384 Q 18 384 9 375 Q 0 366 0 352 Q 0 338 9 329 Q 18 320 32 320 L 32 320 Z"/>
</svg>
