<svg xmlns="http://www.w3.org/2000/svg" viewBox="0 0 416 416">
    <path d="M 42 83 Q 46 107 57 129 Q 34 131 11 140 Q 22 109 42 82 L 42 83 Z M 0 204 Q 33 197 64 208 Q 65 250 85 284 Q 106 317 141 336 Q 135 368 113 393 Q 62 366 31 318 Q 1 269 0 208 Q 0 207 0 206 Q 0 205 0 204 L 0 204 Z M 284 86 Q 250 65 208 64 Q 166 65 132 86 Q 107 63 98 32 Q 146 1 208 0 Q 270 1 318 32 Q 309 63 284 86 L 284 86 Z M 275 336 Q 310 317 331 284 L 331 284 Q 351 250 352 208 Q 383 197 416 204 Q 416 205 416 206 Q 416 207 416 208 Q 415 269 385 318 Q 354 366 303 393 Q 281 368 275 336 L 275 336 Z M 239 414 Q 224 416 208 416 Q 192 416 177 414 Q 195 400 208 383 Q 221 400 239 414 L 239 414 Z M 405 140 Q 382 131 359 129 Q 370 107 374 83 Q 394 109 405 141 L 405 140 Z"/>
</svg>
