<svg xmlns="http://www.w3.org/2000/svg" viewBox="0 0 384 512">
    <path d="M 0 64 Q 1 37 19 19 L 19 19 Q 37 1 64 0 L 224 0 L 224 128 Q 224 142 233 151 Q 242 160 256 160 L 384 160 L 384 448 Q 383 475 365 493 Q 347 511 320 512 L 64 512 Q 37 511 19 493 Q 1 475 0 448 L 0 64 L 0 64 Z M 80 64 Q 65 65 64 80 Q 65 95 80 96 L 144 96 Q 159 95 160 80 Q 159 65 144 64 L 80 64 L 80 64 Z M 80 128 Q 65 129 64 144 Q 65 159 80 160 L 144 160 Q 159 159 160 144 Q 159 129 144 128 L 80 128 L 80 128 Z M 134 382 L 144 349 L 161 405 Q 164 415 175 416 Q 185 416 190 407 L 199 389 Q 202 384 208 384 Q 214 384 217 389 L 226 407 Q 230 416 240 416 L 304 416 Q 318 414 320 400 Q 318 385 304 384 L 250 384 L 246 375 Q 233 353 208 352 Q 193 352 181 362 L 170 323 Q 163 305 144 304 Q 125 305 118 323 L 104 373 Q 100 383 88 384 L 80 384 Q 65 385 64 400 Q 65 415 80 416 L 88 416 Q 123 414 134 382 L 134 382 Z"/>
</svg>
