<svg xmlns="http://www.w3.org/2000/svg" viewBox="0 0 464 265">
    <path d="M 248 9 Q 270 11 272 33 L 272 38 Q 273 70 296 92 L 312 107 Q 351 143 352 196 L 352 209 Q 350 231 328 233 Q 306 231 304 209 L 304 196 Q 303 164 280 142 L 264 128 Q 225 91 224 38 L 224 33 Q 226 11 248 9 L 248 9 Z M 0 265 Q 1 224 28 197 L 28 197 Q 55 170 96 169 Q 128 169 154 188 L 256 265 L 0 265 L 0 265 Z M 384 33 L 384 38 Q 385 70 408 92 L 424 107 Q 463 143 464 196 L 464 209 Q 462 231 440 233 Q 418 231 416 209 L 416 196 Q 415 164 392 142 L 376 128 Q 337 91 336 38 L 336 33 Q 338 11 360 9 Q 382 11 384 33 L 384 33 Z M 0 73 Q 1 37 32 18 Q 64 0 96 18 Q 127 37 128 73 Q 127 109 96 128 Q 64 146 32 128 Q 1 109 0 73 L 0 73 Z"/>
</svg>
