<svg xmlns="http://www.w3.org/2000/svg" viewBox="0 0 512 512">
    <path d="M 32 0 Q 18 0 9 9 L 9 9 Q 0 18 0 32 L 0 96 L 320 96 Q 334 96 343 87 Q 352 78 352 64 L 352 32 Q 352 18 343 9 Q 334 0 320 0 L 32 0 L 32 0 Z M 0 448 L 0 457 Q 0 480 16 496 Q 32 512 55 512 L 70 512 Q 96 512 115 493 L 122 486 Q 128 481 134 486 L 141 493 Q 160 512 187 512 L 198 512 Q 224 512 243 493 L 251 486 Q 256 481 262 486 L 269 493 Q 288 512 315 512 L 326 512 Q 352 512 371 493 L 379 486 Q 384 481 390 486 L 398 493 Q 416 512 443 512 L 458 512 Q 480 512 496 496 Q 512 480 512 457 L 512 448 L 0 448 L 0 448 Z"/>
</svg>
