<svg xmlns="http://www.w3.org/2000/svg" viewBox="0 0 448 448">
    <path d="M 0 64 Q 1 37 19 19 L 19 19 Q 37 1 64 0 L 384 0 Q 411 1 429 19 Q 447 37 448 64 L 448 203 Q 426 192 400 192 Q 354 193 323 223 Q 291 253 288 299 Q 259 313 242 339 Q 224 366 224 400 Q 224 426 235 448 L 64 448 Q 37 447 19 429 Q 1 411 0 384 L 0 64 L 0 64 Z M 88 64 Q 66 66 64 88 L 64 232 Q 66 254 88 256 Q 110 254 112 232 L 112 88 Q 110 66 88 64 L 88 64 Z M 184 64 Q 162 66 160 88 L 160 232 Q 162 254 184 256 Q 206 254 208 232 L 208 88 Q 206 66 184 64 L 184 64 Z"/>
</svg>
