<svg xmlns="http://www.w3.org/2000/svg" viewBox="0 0 335 288">
    <path d="M 262 128 Q 298 127 317 96 Q 335 64 317 32 Q 298 1 262 0 Q 226 1 207 32 Q 189 64 207 96 Q 226 127 262 128 L 262 128 Z M 166 112 Q 165 85 142 70 Q 118 58 94 70 Q 71 85 70 112 Q 71 139 94 154 Q 118 166 142 154 Q 165 139 166 112 L 166 112 Z M 230 288 Q 266 287 285 256 Q 303 224 285 192 Q 266 161 230 160 Q 194 161 175 192 Q 157 224 175 256 Q 194 287 230 288 L 230 288 Z M 54 288 Q 81 287 96 264 Q 108 240 96 216 Q 81 193 54 192 Q 27 193 12 216 Q 0 240 12 264 Q 27 287 54 288 L 54 288 Z"/>
</svg>
