<svg xmlns="http://www.w3.org/2000/svg" viewBox="0 0 576 448">
    <path d="M 512 64 L 512 176 L 448 176 L 448 144 L 416 144 L 416 176 L 288 176 L 288 144 L 256 144 L 256 176 L 160 176 L 160 144 L 128 144 L 128 176 L 64 176 L 64 64 L 128 64 L 128 96 L 160 96 L 160 64 L 256 64 L 256 96 L 288 96 L 288 64 L 416 64 L 416 96 L 448 96 L 448 64 L 512 64 L 512 64 Z M 64 384 L 64 208 L 128 208 L 128 232 L 160 232 L 160 208 L 256 208 L 256 232 L 288 232 L 288 208 L 416 208 L 416 304 L 448 304 L 448 208 L 512 208 L 512 384 L 448 384 L 448 352 L 416 352 L 416 384 L 288 384 L 288 352 L 256 352 L 256 384 L 160 384 L 160 352 L 128 352 L 128 384 L 64 384 L 64 384 Z M 128 304 L 160 304 L 160 280 L 128 280 L 128 304 L 128 304 Z M 256 304 L 288 304 L 288 280 L 256 280 L 256 304 L 256 304 Z M 64 0 Q 37 1 19 19 L 19 19 Q 1 37 0 64 L 0 384 Q 1 411 19 429 Q 37 447 64 448 L 512 448 Q 539 447 557 429 Q 575 411 576 384 L 576 64 Q 575 37 557 19 Q 539 1 512 0 L 64 0 L 64 0 Z"/>
</svg>
