<svg xmlns="http://www.w3.org/2000/svg" viewBox="0 0 160 448">
    <path d="M 24 0 Q 2 2 0 24 L 0 40 Q 2 62 24 64 L 136 64 Q 158 62 160 40 L 160 24 Q 158 2 136 0 L 24 0 L 24 0 Z M 24 160 Q 2 162 0 184 L 0 200 Q 2 222 24 224 L 136 224 Q 158 222 160 200 L 160 184 Q 158 162 136 160 L 24 160 L 24 160 Z M 0 408 L 0 424 Q 2 446 24 448 L 136 448 Q 158 446 160 424 L 160 408 Q 158 386 136 384 L 24 384 Q 2 386 0 408 L 0 408 Z M 16 96 Q 1 97 0 112 Q 1 127 16 128 L 144 128 Q 159 127 160 112 Q 159 97 144 96 L 16 96 L 16 96 Z M 0 272 Q 1 287 16 288 L 144 288 Q 159 287 160 272 Q 159 257 144 256 L 16 256 Q 1 257 0 272 L 0 272 Z M 16 320 Q 1 321 0 336 Q 1 351 16 352 L 144 352 Q 159 351 160 336 Q 159 321 144 320 L 16 320 L 16 320 Z"/>
</svg>
