<svg xmlns="http://www.w3.org/2000/svg" viewBox="0 0 563 448">
    <path d="M 0 96 L 0 320 Q 1 374 37 411 Q 74 447 128 448 L 314 448 Q 297 418 291 384 L 128 384 Q 101 383 83 365 Q 65 347 64 320 Q 65 293 83 275 Q 101 257 128 256 L 317 256 Q 321 249 325 243 Q 359 189 413 140 Q 428 127 448 128 L 448 96 Q 447 55 420 28 Q 393 1 352 0 L 96 0 Q 55 1 28 28 Q 1 55 0 96 L 0 96 Z M 288 350 Q 289 320 302 288 L 128 288 Q 114 288 105 297 Q 96 306 96 320 Q 96 334 105 343 Q 114 352 128 352 L 288 352 L 288 350 L 288 350 Z M 481 448 Q 508 448 530 433 Q 553 416 558 389 Q 563 363 550 337 Q 549 334 547 331 Q 545 328 543 325 L 507 367 Q 506 366 492 348 Q 478 329 463 311 Q 448 292 445 288 Q 423 315 411 334 Q 400 352 400 370 Q 401 407 424 427 Q 446 448 481 448 L 481 448 Z"/>
</svg>
