<svg xmlns="http://www.w3.org/2000/svg" viewBox="0 0 512 384">
    <path d="M 352 87 Q 367 80 384 80 Q 418 81 441 103 Q 463 126 464 160 Q 464 182 454 200 Q 480 211 496 234 Q 512 258 512 288 Q 511 329 484 356 Q 457 383 416 384 L 288 384 L 288 160 Q 288 146 279 137 Q 270 128 256 128 Q 242 128 233 137 Q 224 146 224 160 L 224 384 L 96 384 Q 55 383 28 356 Q 1 329 0 288 Q 0 258 16 234 Q 32 211 59 200 Q 48 182 48 160 Q 49 126 71 103 Q 94 81 128 80 Q 145 80 160 87 Q 165 49 191 25 Q 218 1 256 0 Q 294 1 321 25 Q 347 49 352 87 L 352 87 Z"/>
</svg>
