<svg xmlns="http://www.w3.org/2000/svg" viewBox="0 0 464 464">
    <path d="M 272 32 Q 271 47 256 48 Q 237 48 223 59 Q 209 69 203 87 L 173 180 Q 171 186 165 189 L 133 206 Q 128 208 126 213 L 93 278 Q 89 288 96 296 L 115 315 L 187 243 L 233 97 Q 239 81 256 80 L 360 80 Q 382 82 384 104 L 384 208 Q 383 225 367 231 L 221 277 L 149 349 L 168 368 Q 176 375 186 371 L 251 338 Q 256 336 259 331 L 275 299 Q 278 293 284 291 L 377 261 Q 395 255 405 241 Q 416 227 416 208 Q 418 193 432 192 L 440 192 Q 462 194 464 216 L 464 268 Q 463 288 446 297 L 202 411 Q 192 416 184 424 L 144 464 L 0 320 L 40 280 Q 48 272 53 262 L 167 18 Q 176 1 196 0 L 248 0 Q 270 2 272 24 L 272 32 L 272 32 Z"/>
</svg>
