<svg xmlns="http://www.w3.org/2000/svg" viewBox="0 0 394 394">
    <path d="M 344 50 Q 332 38 329 26 L 329 26 Q 326 13 332 6 Q 340 0 352 3 Q 364 6 376 18 Q 388 30 391 42 Q 394 54 388 62 Q 381 68 368 65 Q 356 62 344 50 L 344 50 Z M 124 197 L 130 190 Q 137 218 156 238 Q 176 257 204 264 L 197 270 Q 188 280 188 293 Q 187 306 190 320 Q 192 326 192 334 Q 191 359 174 376 Q 157 393 132 394 Q 107 393 90 376 Q 73 359 72 334 Q 71 323 60 322 Q 35 321 18 304 Q 1 287 0 262 Q 1 237 18 220 Q 35 203 60 202 Q 67 202 75 204 Q 88 207 101 206 Q 114 206 124 197 L 124 197 Z"/>
</svg>
