<svg xmlns="http://www.w3.org/2000/svg" viewBox="0 0 288 320">
    <path d="M 0 64 Q 1 37 19 19 L 19 19 Q 37 1 64 0 L 224 0 Q 251 1 269 19 Q 287 37 288 64 L 288 256 Q 287 283 269 301 Q 251 319 224 320 L 64 320 Q 37 319 19 301 Q 1 283 0 256 L 0 64 L 0 64 Z M 48 88 L 48 168 Q 50 190 72 192 L 216 192 Q 238 190 240 168 L 240 88 Q 238 66 216 64 L 72 64 Q 50 66 48 88 L 48 88 Z M 144 288 Q 158 288 167 279 L 167 279 Q 176 270 176 256 Q 176 242 167 233 Q 158 224 144 224 Q 130 224 121 233 Q 112 242 112 256 Q 112 270 121 279 Q 130 288 144 288 L 144 288 Z"/>
</svg>
