<svg xmlns="http://www.w3.org/2000/svg" viewBox="0 0 399 512">
    <path d="M 295 64 Q 281 64 272 73 L 272 73 Q 263 82 263 96 Q 263 110 272 119 Q 281 128 295 128 Q 309 128 318 119 Q 327 110 327 96 Q 327 82 318 73 Q 309 64 295 64 L 295 64 Z M 391 96 Q 389 148 348 176 L 359 176 Q 373 176 382 185 Q 391 194 391 208 Q 391 222 382 231 Q 373 240 359 240 L 327 240 L 327 448 L 375 448 Q 383 448 391 447 L 391 480 Q 391 497 399 510 Q 387 512 375 512 L 295 512 L 215 512 Q 147 510 102 465 Q 57 420 55 352 L 55 346 L 48 353 Q 31 367 14 353 Q 0 336 14 319 L 70 263 Q 87 249 104 263 L 160 319 Q 174 336 160 353 Q 143 367 126 353 L 119 346 L 119 352 Q 120 393 147 420 Q 174 447 215 448 L 263 448 L 263 240 L 231 240 Q 217 240 208 231 Q 199 222 199 208 Q 199 194 208 185 Q 217 176 231 176 L 242 176 Q 201 148 199 96 Q 200 55 227 28 Q 254 1 295 0 Q 336 1 363 28 Q 390 55 391 96 L 391 96 Z"/>
</svg>
