<svg xmlns="http://www.w3.org/2000/svg" viewBox="0 0 512 499">
    <path d="M 175 499 Q 97 472 49 407 L 49 407 Q 1 342 0 256 Q 1 184 35 127 Q 69 69 127 35 Q 184 1 256 0 Q 328 1 385 35 Q 443 69 477 127 Q 511 184 512 256 Q 511 342 463 407 Q 415 472 338 499 Q 352 476 352 448 L 352 401 Q 389 374 407 332 Q 411 322 404 316 Q 398 310 388 313 Q 328 331 256 332 Q 185 331 124 313 Q 115 310 108 316 Q 102 322 105 332 Q 123 374 160 401 L 160 448 Q 160 476 174 499 L 175 499 Z M 134 131 Q 127 128 122 131 L 122 131 Q 116 134 116 141 Q 116 146 119 149 L 155 192 L 119 235 Q 116 238 116 243 Q 116 250 122 253 Q 127 256 134 253 L 223 205 Q 231 201 231 192 Q 231 183 223 179 L 134 131 L 134 131 Z M 396 141 Q 396 134 390 131 L 390 131 Q 385 128 379 131 L 289 179 Q 281 183 281 192 Q 281 200 289 205 L 379 253 Q 385 256 390 253 Q 396 250 396 243 Q 396 238 393 235 L 357 192 L 393 149 Q 396 145 396 141 L 396 141 Z"/>
</svg>
