<svg xmlns="http://www.w3.org/2000/svg" viewBox="0 0 351 471">
    <path d="M 85 94 Q 81 80 87 69 L 87 69 Q 92 58 105 53 L 151 38 L 171 99 L 232 80 L 212 19 L 258 4 Q 271 0 282 6 Q 293 11 298 24 L 347 177 Q 351 190 345 201 Q 340 212 327 217 L 175 266 Q 161 270 150 264 Q 139 259 134 246 L 85 94 L 85 94 Z M 96 279 Q 122 279 144 292 L 144 292 Q 166 305 179 327 Q 192 350 192 375 Q 192 400 179 423 Q 166 445 144 458 Q 122 471 96 471 Q 70 471 48 458 Q 26 445 13 423 Q 0 400 0 375 Q 0 350 13 327 Q 26 305 48 292 Q 70 279 96 279 L 96 279 Z"/>
</svg>
