<svg xmlns="http://www.w3.org/2000/svg" viewBox="0 0 306 520">
    <path d="M 114 54 Q 115 27 138 12 Q 162 0 186 12 Q 209 27 210 54 Q 209 81 186 96 Q 162 108 138 96 Q 115 81 114 54 L 114 54 Z M 165 237 L 146 313 L 196 363 Q 210 377 210 397 L 210 486 Q 210 500 201 509 Q 192 518 178 518 Q 164 518 155 509 Q 146 500 146 486 L 146 403 L 72 329 Q 48 304 55 269 L 76 185 Q 83 159 104 146 Q 126 133 152 139 Q 182 146 199 171 L 227 214 L 274 214 Q 288 214 297 223 Q 306 232 306 246 Q 306 260 297 269 Q 288 278 274 278 L 219 278 Q 193 277 179 257 L 165 237 L 165 237 Z M 3 478 L 39 340 Q 44 346 49 352 L 91 394 L 65 494 Q 61 507 50 514 Q 39 520 26 517 Q 13 513 6 502 Q 0 491 3 478 L 3 478 Z"/>
</svg>
