<svg xmlns="http://www.w3.org/2000/svg" viewBox="0 0 448 64">
    <path d="M 64 32 Q 64 46 55 55 L 55 55 Q 46 64 32 64 Q 18 64 9 55 Q 0 46 0 32 Q 0 18 9 9 Q 18 0 32 0 Q 46 0 55 9 Q 64 18 64 32 L 64 32 Z M 160 32 Q 160 46 151 55 L 151 55 Q 142 64 128 64 Q 114 64 105 55 Q 96 46 96 32 Q 96 18 105 9 Q 114 0 128 0 Q 142 0 151 9 Q 160 18 160 32 L 160 32 Z M 224 64 Q 210 64 201 55 L 201 55 Q 192 46 192 32 Q 192 18 201 9 Q 210 0 224 0 Q 238 0 247 9 Q 256 18 256 32 Q 256 46 247 55 Q 238 64 224 64 L 224 64 Z M 352 32 Q 352 46 343 55 L 343 55 Q 334 64 320 64 Q 306 64 297 55 Q 288 46 288 32 Q 288 18 297 9 Q 306 0 320 0 Q 334 0 343 9 Q 352 18 352 32 L 352 32 Z M 416 64 Q 402 64 393 55 L 393 55 Q 384 46 384 32 Q 384 18 393 9 Q 402 0 416 0 Q 430 0 439 9 Q 448 18 448 32 Q 448 46 439 55 Q 430 64 416 64 L 416 64 Z"/>
</svg>
