<svg xmlns="http://www.w3.org/2000/svg" viewBox="0 0 384 384">
    <path d="M 32 0 Q 18 0 9 9 L 9 9 Q 0 18 0 32 L 0 64 Q 0 78 9 87 Q 18 96 32 96 L 352 96 Q 366 96 375 87 Q 384 78 384 64 L 384 32 Q 384 18 375 9 Q 366 0 352 0 L 32 0 L 32 0 Z M 160 208 L 160 256 L 112 256 Q 97 257 96 272 L 96 304 Q 97 319 112 320 L 160 320 L 160 368 Q 161 383 176 384 L 208 384 Q 223 383 224 368 L 224 320 L 272 320 Q 287 319 288 304 L 288 272 Q 287 257 272 256 L 224 256 L 224 208 Q 223 193 208 192 L 176 192 Q 161 193 160 208 L 160 208 Z"/>
</svg>
