<svg xmlns="http://www.w3.org/2000/svg" viewBox="0 0 384 341">
    <path d="M 384 80 Q 383 107 346 128 Q 300 153 223 159 Q 218 156 212 154 Q 151 129 64 128 Q 52 128 40 129 Q 39 128 39 128 Q 39 128 38 128 Q 1 107 0 80 Q 2 46 56 23 Q 110 1 192 0 Q 274 1 328 23 Q 382 46 384 80 L 384 80 Z M 288 341 L 288 278 Q 317 272 340 262 Q 365 252 384 237 L 384 272 Q 383 294 358 313 Q 332 331 288 341 L 288 341 Z M 288 245 L 288 240 Q 286 207 264 187 Q 307 180 340 166 Q 365 156 384 141 L 384 176 Q 383 203 346 224 Q 344 225 342 226 Q 341 226 340 227 Q 318 238 288 245 L 288 245 Z"/>
</svg>
