<svg xmlns="http://www.w3.org/2000/svg" viewBox="0 0 416 416">
    <path d="M 208 64 Q 247 64 280 83 L 280 83 Q 313 102 333 136 Q 352 170 352 208 Q 352 246 333 280 Q 313 314 280 333 Q 247 352 208 352 Q 169 352 136 333 Q 103 314 83 280 Q 64 246 64 208 Q 64 170 83 136 Q 103 102 136 83 Q 169 64 208 64 L 208 64 Z M 208 416 Q 265 416 312 388 L 312 388 Q 359 361 388 312 Q 416 263 416 208 Q 416 153 388 104 Q 359 55 312 28 Q 265 0 208 0 Q 151 0 104 28 Q 57 55 28 104 Q 0 153 0 208 Q 0 263 28 312 Q 57 361 104 388 Q 151 416 208 416 L 208 416 Z"/>
</svg>
