<svg xmlns="http://www.w3.org/2000/svg" viewBox="0 0 456 456">
    <path d="M 0 369 L 369 0 Q 365 14 375 25 Q 423 75 440 137 Q 456 200 440 263 Q 424 326 375 375 Q 326 424 263 440 Q 200 456 137 440 Q 75 423 25 375 Q 14 365 0 369 L 0 369 Z M 323 141 Q 312 131 301 141 Q 291 152 301 163 L 317 179 Q 328 189 339 179 Q 349 168 339 157 L 323 141 L 323 141 Z M 243 221 Q 232 211 221 221 Q 211 232 221 243 L 237 259 Q 248 269 259 259 Q 269 248 259 237 L 243 221 L 243 221 Z M 331 229 Q 320 219 309 229 Q 299 240 309 251 L 325 267 Q 336 277 347 267 Q 357 256 347 245 L 331 229 L 331 229 Z M 163 301 Q 152 291 141 301 Q 131 312 141 323 L 157 339 Q 168 349 179 339 Q 189 328 179 317 L 163 301 L 163 301 Z M 251 309 Q 240 299 229 309 Q 219 320 229 331 L 245 347 Q 256 357 267 347 Q 277 336 267 325 L 251 309 L 251 309 Z"/>
</svg>
