<svg xmlns="http://www.w3.org/2000/svg" viewBox="0 0 320 64">
    <path d="M 0 32 Q 0 18 9 9 L 9 9 Q 18 0 32 0 Q 46 0 55 9 Q 64 18 64 32 Q 64 46 55 55 Q 46 64 32 64 Q 18 64 9 55 Q 0 46 0 32 L 0 32 Z M 128 32 Q 128 18 137 9 L 137 9 Q 146 0 160 0 Q 174 0 183 9 Q 192 18 192 32 Q 192 46 183 55 Q 174 64 160 64 Q 146 64 137 55 Q 128 46 128 32 L 128 32 Z M 288 0 Q 302 0 311 9 L 311 9 Q 320 18 320 32 Q 320 46 311 55 Q 302 64 288 64 Q 274 64 265 55 Q 256 46 256 32 Q 256 18 265 9 Q 274 0 288 0 L 288 0 Z"/>
</svg>
