<svg xmlns="http://www.w3.org/2000/svg" viewBox="0 0 448 512">
    <path d="M 263 379 Q 244 384 224 384 Q 156 382 111 337 Q 66 292 64 224 Q 64 224 64 223 Q 64 223 64 222 L 5 176 Q 0 199 0 224 Q 1 284 28 333 Q 56 383 104 413 L 46 454 Q 28 468 33 490 Q 41 511 64 512 L 384 512 Q 402 511 412 496 L 263 379 L 263 379 Z M 99 249 Q 108 294 142 323 L 142 323 Q 177 351 224 352 Q 226 352 229 352 L 99 249 L 99 249 Z M 352 224 Q 351 170 315 133 L 315 133 Q 278 97 224 96 Q 160 98 123 146 L 160 176 Q 184 145 224 144 Q 239 145 240 160 Q 239 175 224 176 Q 199 177 186 195 L 324 304 Q 351 270 352 224 L 352 224 Z M 384 224 Q 383 282 349 324 L 400 363 Q 447 304 448 224 Q 447 161 417 111 Q 388 60 337 31 Q 287 1 224 0 Q 170 0 124 24 Q 78 47 47 87 L 97 126 Q 120 98 152 81 Q 185 64 224 64 Q 292 66 337 111 Q 382 156 384 224 L 384 224 Z"/>
</svg>
