<svg xmlns="http://www.w3.org/2000/svg" viewBox="0 0 512 512">
    <path d="M 0 224 Q 1 162 31 111 L 31 111 Q 60 61 111 31 L 111 31 Q 161 1 224 0 L 248 0 Q 321 1 376 46 Q 431 91 445 160 Q 448 180 460 196 L 502 249 Q 512 261 512 276 Q 512 295 499 307 Q 487 320 468 320 L 448 320 L 448 320 L 448 352 L 339 366 Q 321 369 320 387 Q 322 407 341 409 L 448 416 L 448 432 Q 447 452 434 466 Q 420 479 400 480 L 320 480 L 320 488 Q 318 510 296 512 L 256 512 L 256 512 L 96 512 Q 82 512 73 503 Q 64 494 64 480 L 64 407 Q 63 382 47 362 Q 1 301 0 224 L 0 224 Z M 352 224 Q 366 224 375 215 L 375 215 Q 384 206 384 192 Q 384 178 375 169 Q 366 160 352 160 Q 338 160 329 169 Q 320 178 320 192 Q 320 206 329 215 Q 338 224 352 224 L 352 224 Z"/>
</svg>
