<svg xmlns="http://www.w3.org/2000/svg" viewBox="0 0 576 512">
    <path d="M 312 24 Q 310 2 288 0 Q 266 2 264 24 L 264 118 L 166 216 L 91 230 Q 51 239 26 269 Q 1 300 0 341 Q 1 373 22 394 Q 43 415 75 416 Q 114 415 143 393 Q 172 371 183 335 Q 176 325 176 312 Q 177 290 195 278 L 200 250 L 264 186 L 264 258 Q 287 279 288 312 Q 287 343 267 363 Q 247 383 216 384 Q 205 384 195 381 Q 192 394 192 407 L 192 416 Q 193 457 220 484 Q 247 511 288 512 Q 329 511 356 484 Q 383 457 384 416 L 384 407 Q 384 368 359 339 L 312 284 L 312 186 L 376 250 L 391 325 Q 399 365 429 390 Q 460 415 501 416 Q 533 415 554 394 Q 575 373 576 341 Q 575 300 550 269 Q 525 239 485 231 L 410 216 L 312 118 L 312 24 L 312 24 Z"/>
</svg>
