<svg xmlns="http://www.w3.org/2000/svg" viewBox="0 0 378 352">
    <path d="M 139 64 L 277 64 Q 289 65 293 75 L 310 128 L 106 128 L 123 75 Q 127 65 139 64 L 139 64 Z M 63 55 L 36 134 Q 2 152 0 192 L 0 288 L 0 288 L 0 320 Q 0 334 9 343 Q 18 352 32 352 L 48 352 Q 62 352 71 343 Q 80 334 80 320 L 80 288 L 217 288 Q 224 279 234 273 L 256 205 Q 268 170 297 149 Q 326 129 363 128 L 378 128 L 353 55 Q 345 30 324 15 Q 304 0 277 0 L 139 0 Q 112 0 92 15 Q 71 30 63 55 L 63 55 Z M 80 184 Q 102 186 104 208 Q 102 230 80 232 Q 58 230 56 208 Q 58 186 80 184 L 80 184 Z"/>
</svg>
