<svg xmlns="http://www.w3.org/2000/svg" viewBox="0 0 620 388">
    <path d="M 3 84 Q 0 70 6 59 L 6 59 Q 13 48 26 45 L 180 3 Q 193 0 204 6 Q 216 13 219 26 L 261 180 Q 264 193 258 204 Q 251 216 238 219 L 84 261 Q 70 264 59 258 Q 48 251 45 238 L 3 84 L 3 84 Z M 72 32 L 93 109 Q 98 123 112 121 L 143 112 Q 157 107 155 93 L 134 16 L 72 32 L 72 32 Z M 524 196 Q 550 196 572 209 L 572 209 Q 594 222 607 244 Q 620 267 620 292 Q 620 317 607 340 Q 594 362 572 375 Q 550 388 524 388 Q 498 388 476 375 Q 454 362 441 340 Q 428 317 428 292 Q 428 267 441 244 Q 454 222 476 209 Q 498 196 524 196 L 524 196 Z"/>
</svg>
