<svg xmlns="http://www.w3.org/2000/svg" viewBox="0 0 384 512">
    <path d="M 0 64 Q 1 37 19 19 L 19 19 Q 37 1 64 0 L 224 0 L 224 128 Q 224 142 233 151 Q 242 160 256 160 L 384 160 L 384 448 Q 383 475 365 493 Q 347 511 320 512 L 64 512 Q 37 511 19 493 Q 1 475 0 448 L 0 64 L 0 64 Z M 192 240 Q 170 242 168 264 L 168 312 L 120 312 Q 98 314 96 336 Q 98 358 120 360 L 168 360 L 168 408 Q 170 430 192 432 Q 214 430 216 408 L 216 360 L 264 360 Q 286 358 288 336 Q 286 314 264 312 L 216 312 L 216 264 Q 214 242 192 240 L 192 240 Z"/>
</svg>
