<svg xmlns="http://www.w3.org/2000/svg" viewBox="0 0 480 359">
    <path d="M 24 5 Q 16 0 8 5 L 8 5 Q 1 9 0 19 L 0 142 Q 1 148 6 150 Q 11 152 15 147 L 75 55 Q 82 41 70 32 L 24 5 L 24 5 Z M 456 5 L 410 32 Q 398 41 405 55 L 465 147 Q 469 152 474 150 Q 479 148 480 142 L 480 19 Q 479 9 472 5 Q 464 0 456 5 L 456 5 Z M 448 280 Q 446 265 431 265 L 270 284 Q 257 286 256 300 L 256 352 Q 257 358 263 359 Q 264 359 265 359 L 438 295 Q 448 291 448 280 L 448 280 Z M 224 352 L 224 300 Q 223 286 210 284 L 49 265 Q 34 265 32 280 Q 32 291 42 295 L 215 359 Q 216 359 217 359 Q 223 358 224 352 L 224 352 Z M 14 205 Q 10 213 13 221 L 13 221 Q 17 228 26 230 L 197 250 Q 203 250 206 246 Q 209 241 206 236 L 120 86 Q 115 78 107 78 Q 99 78 93 85 L 14 205 L 14 205 Z M 454 230 Q 463 228 466 221 L 466 221 Q 470 213 465 205 L 387 85 Q 381 78 373 78 Q 365 78 360 86 L 274 236 Q 270 248 284 250 L 454 230 L 454 230 Z M 232 216 Q 240 226 248 216 L 327 79 Q 331 70 327 63 Q 322 55 313 55 L 167 55 Q 158 56 153 63 Q 149 70 153 79 L 232 216 L 232 216 Z"/>
</svg>
