<svg xmlns="http://www.w3.org/2000/svg" viewBox="0 0 416 518">
    <path d="M 352 156 Q 367 163 384 163 Q 401 163 416 156 L 416 323 Q 415 377 379 414 Q 342 450 288 451 L 272 451 L 272 491 Q 271 506 258 513 Q 244 518 232 509 L 152 437 Q 144 430 144 419 Q 144 408 152 401 L 232 329 Q 244 320 258 325 Q 271 332 272 347 L 272 387 L 288 387 Q 315 386 333 368 Q 351 350 352 323 L 352 156 L 352 156 Z M 64 362 Q 49 355 32 355 Q 15 355 0 362 L 0 195 Q 1 141 37 104 Q 74 68 128 67 L 144 67 L 144 27 Q 145 12 158 5 Q 172 0 184 9 L 264 81 Q 272 88 272 99 Q 272 110 264 117 L 184 189 Q 172 198 158 193 Q 145 186 144 171 L 144 131 L 128 131 Q 101 132 83 150 Q 65 168 64 195 L 64 362 L 64 362 Z"/>
</svg>
