<svg xmlns="http://www.w3.org/2000/svg" viewBox="0 0 422 512">
    <path d="M 256 0 Q 229 3 211 34 L 211 34 Q 193 65 192 94 L 192 178 L 8 283 Q 0 288 0 297 L 0 363 Q 3 381 20 378 L 192 329 L 192 400 L 134 443 Q 128 448 128 456 L 128 498 Q 129 511 142 512 Q 144 512 146 512 L 256 480 L 366 512 Q 368 512 370 512 Q 383 511 384 498 L 384 480 L 384 456 Q 384 448 378 443 L 320 400 L 320 329 L 384 347 Q 388 313 416 297 L 416 272 Q 416 253 422 236 L 320 178 L 320 94 Q 319 65 302 34 Q 284 3 256 0 L 256 0 Z"/>
</svg>
