<svg xmlns="http://www.w3.org/2000/svg" viewBox="0 0 640 448">
    <path d="M 0 81 Q 1 47 24 24 L 24 24 Q 47 1 81 0 Q 105 0 124 12 Q 143 24 154 45 L 157 50 Q 162 62 158 74 Q 154 86 142 93 Q 130 98 118 94 Q 106 90 99 78 L 97 74 Q 92 64 81 64 Q 66 66 64 81 L 64 367 Q 66 383 81 384 Q 92 384 97 374 L 99 370 Q 106 358 118 354 Q 130 350 142 355 Q 154 362 158 374 Q 162 386 157 398 L 154 403 Q 143 424 124 436 Q 105 448 81 448 Q 47 447 24 424 Q 1 401 0 367 L 0 81 L 0 81 Z M 448 32 Q 448 18 457 9 L 457 9 Q 466 0 480 0 L 608 0 Q 622 0 631 9 Q 640 18 640 32 Q 640 46 631 55 Q 622 64 608 64 L 512 64 L 512 192 L 576 192 Q 590 192 599 201 Q 608 210 608 224 Q 608 238 599 247 Q 590 256 576 256 L 512 256 L 512 416 Q 512 430 503 439 Q 494 448 480 448 Q 466 448 457 439 Q 448 430 448 416 L 448 32 L 448 32 Z"/>
</svg>
