<svg xmlns="http://www.w3.org/2000/svg" viewBox="0 0 208 256">
    <path d="M 24 0 Q 2 2 0 24 L 0 128 L 0 232 Q 2 254 24 256 L 132 256 Q 164 255 186 234 Q 207 212 208 180 Q 207 142 178 120 Q 192 101 192 76 Q 191 44 170 22 Q 148 1 116 0 L 24 0 L 24 0 Z M 116 104 L 48 104 L 48 48 L 116 48 Q 128 48 136 56 Q 144 64 144 76 Q 144 88 136 96 Q 128 104 116 104 L 116 104 Z M 48 152 L 116 152 L 132 152 Q 144 152 152 160 Q 160 168 160 180 Q 160 192 152 200 Q 144 208 132 208 L 48 208 L 48 152 L 48 152 Z"/>
</svg>
