<svg xmlns="http://www.w3.org/2000/svg" viewBox="0 0 590 272">
    <path d="M 263 208 L 263 0 L 327 0 L 327 208 L 375 208 Q 416 207 443 180 Q 470 153 471 112 L 471 106 L 464 113 Q 447 127 430 113 Q 416 96 430 79 L 486 23 Q 503 9 520 23 L 576 79 Q 590 96 576 113 Q 559 127 542 113 L 535 106 L 535 112 Q 533 180 488 225 Q 443 270 375 272 L 295 272 L 215 272 Q 147 270 102 225 Q 57 180 55 112 L 55 106 L 48 113 Q 31 127 14 113 Q 0 96 14 79 L 70 23 Q 87 9 104 23 L 160 79 Q 174 96 160 113 Q 143 127 126 113 L 119 106 L 119 112 Q 120 153 147 180 Q 174 207 215 208 L 263 208 L 263 208 Z"/>
</svg>
