<svg xmlns="http://www.w3.org/2000/svg" viewBox="0 0 448 352">
    <path d="M 327 0 L 262 0 L 272 49 L 224 105 L 176 49 L 186 0 L 121 0 L 70 256 L 32 256 Q 18 256 9 265 Q 0 274 0 288 L 0 304 Q 0 316 2 328 Q 36 311 69 332 Q 98 352 128 352 Q 161 351 187 332 Q 204 320 224 320 Q 244 320 261 332 Q 290 352 320 352 Q 351 352 379 332 Q 412 311 446 328 Q 448 316 448 304 L 448 288 Q 448 274 439 265 Q 430 256 416 256 L 378 256 L 327 0 L 327 0 Z M 284 109 L 301 194 L 256 141 L 284 109 L 284 109 Z M 192 141 L 148 194 L 165 109 L 192 142 L 192 141 Z M 157 256 L 224 178 L 291 256 L 157 256 L 157 256 Z"/>
</svg>
