<svg xmlns="http://www.w3.org/2000/svg" viewBox="0 0 256 512">
    <path d="M 48 0 Q 28 1 14 14 L 14 14 Q 1 28 0 48 L 0 66 Q 8 64 16 64 L 240 64 Q 248 64 256 66 L 256 48 Q 255 28 242 14 Q 228 1 208 0 L 48 0 L 48 0 Z M 0 464 Q 1 484 14 498 L 14 498 Q 28 511 48 512 L 208 512 Q 228 511 242 498 Q 255 484 256 464 L 256 446 Q 248 448 240 448 L 16 448 Q 8 448 0 446 L 0 464 L 0 464 Z M 181 384 Q 195 384 204 375 L 204 375 Q 213 366 213 352 Q 213 338 204 329 Q 195 320 181 320 Q 168 320 159 329 Q 150 338 149 352 Q 150 366 159 375 Q 168 384 181 384 L 181 384 Z M 213 160 Q 213 146 204 137 L 204 137 Q 195 128 181 128 Q 168 128 159 137 Q 150 146 149 160 Q 150 174 159 183 Q 168 192 181 192 Q 195 192 204 183 Q 213 174 213 160 L 213 160 Z M 32 288 Q 46 288 55 279 L 55 279 Q 64 270 64 256 Q 64 242 55 233 Q 46 224 32 224 Q 18 224 9 233 Q 0 242 0 256 Q 0 270 9 279 Q 18 288 32 288 L 32 288 Z"/>
</svg>
