<svg xmlns="http://www.w3.org/2000/svg" viewBox="0 0 612 512">
    <path d="M 108 128 Q 144 127 163 96 Q 181 64 163 32 Q 144 1 108 0 Q 72 1 53 32 Q 35 64 53 96 Q 72 127 108 128 L 108 128 Z M 86 160 Q 54 161 31 181 L 31 181 Q 9 202 6 233 L 2 283 Q 0 305 12 323 Q 24 341 44 348 L 44 464 Q 45 484 58 498 Q 72 511 92 512 L 124 512 Q 144 511 158 498 Q 171 484 172 464 L 172 348 Q 192 341 204 323 Q 216 305 214 283 L 210 233 Q 207 202 185 181 Q 162 161 130 160 L 86 160 L 86 160 Z M 492 128 Q 528 127 547 96 Q 565 64 547 32 Q 528 1 492 0 Q 456 1 437 32 Q 419 64 437 96 Q 456 127 492 128 L 492 128 Z M 476 160 Q 454 160 438 173 L 438 173 Q 421 185 415 206 L 376 343 Q 372 359 381 371 Q 390 383 407 384 L 428 384 L 428 464 Q 429 484 442 498 Q 456 511 476 512 L 508 512 Q 528 511 542 498 Q 555 484 556 464 L 556 384 L 578 384 Q 594 383 603 371 Q 612 359 608 343 L 569 206 Q 563 185 546 173 Q 530 160 508 160 L 476 160 L 476 160 Z"/>
</svg>
