<svg xmlns="http://www.w3.org/2000/svg" viewBox="0 0 512 512">
    <path d="M 256 512 Q 326 511 384 478 L 384 478 Q 442 444 478 384 Q 512 323 512 256 Q 512 189 478 128 Q 442 68 384 34 Q 326 1 256 0 Q 186 1 128 34 Q 70 68 34 128 Q 0 189 0 256 Q 0 323 34 384 Q 70 444 128 478 Q 186 511 256 512 L 256 512 Z M 280 120 L 280 136 Q 296 138 311 143 Q 312 143 312 143 Q 313 143 313 144 Q 316 144 318 145 Q 339 153 335 174 Q 327 195 306 191 Q 303 190 301 190 Q 289 186 277 184 Q 254 179 232 188 Q 222 193 218 200 Q 213 208 223 215 Q 240 225 260 229 Q 264 230 268 231 Q 296 238 324 254 Q 357 278 351 319 Q 342 356 308 368 Q 295 373 280 375 L 280 392 Q 278 414 256 416 Q 234 414 232 392 L 232 373 Q 208 367 186 359 Q 185 359 185 359 Q 164 350 169 329 Q 178 308 200 313 Q 202 314 204 315 Q 206 315 208 316 Q 227 323 246 327 Q 275 330 290 324 Q 301 319 303 310 Q 306 301 297 294 Q 279 283 259 279 Q 259 279 258 279 Q 257 278 255 278 Q 253 277 251 277 Q 223 270 197 256 Q 164 233 169 193 Q 173 175 185 163 Q 197 151 213 144 Q 222 140 232 138 L 232 120 Q 234 98 256 96 Q 278 98 280 120 L 280 120 Z"/>
</svg>
