<svg xmlns="http://www.w3.org/2000/svg" viewBox="0 0 485 518">
    <path d="M 144 112 Q 145 64 177 33 L 177 33 Q 208 1 256 0 L 272 0 Q 287 1 288 16 L 288 32 Q 287 78 257 110 Q 227 141 181 144 Q 145 194 144 256 Q 146 331 196 380 Q 245 430 320 432 L 332 432 Q 398 432 457 462 L 467 467 Q 485 478 477 499 Q 466 518 445 510 L 435 505 Q 386 480 332 480 L 320 480 Q 248 479 192 440 Q 146 461 100 447 Q 54 432 27 388 L 19 374 Q 13 361 25 353 Q 46 341 68 337 Q 37 320 19 291 Q 0 261 0 224 L 0 208 Q 1 193 16 192 Q 40 192 61 200 Q 43 170 42 136 Q 41 101 59 68 L 67 54 Q 75 42 89 49 Q 128 73 144 113 L 144 112 L 144 112 Z"/>
</svg>
