<svg xmlns="http://www.w3.org/2000/svg" viewBox="0 0 448 256">
    <path d="M 64 32 Q 64 18 55 9 L 55 9 Q 46 0 32 0 Q 18 0 9 9 Q 0 18 0 32 L 0 96 Q 0 110 9 119 Q 18 128 32 128 Q 46 128 55 119 Q 64 110 64 96 L 64 32 L 64 32 Z M 448 32 Q 448 18 439 9 L 439 9 Q 430 0 416 0 Q 402 0 393 9 Q 384 18 384 32 L 384 96 Q 384 110 393 119 Q 402 128 416 128 Q 430 128 439 119 Q 448 110 448 96 L 448 32 L 448 32 Z M 80 160 Q 61 161 51 178 L 35 210 Q 28 226 37 241 Q 46 255 64 256 L 384 256 Q 402 256 411 241 Q 420 226 413 210 L 397 178 Q 387 161 368 160 L 80 160 L 80 160 Z"/>
</svg>
