<svg xmlns="http://www.w3.org/2000/svg" viewBox="0 0 512 512">
    <path d="M 338 206 L 386 163 Q 371 141 349 126 L 306 174 Q 326 186 338 206 L 338 206 Z M 414 229 L 349 234 Q 352 244 352 256 Q 352 268 349 278 L 414 283 Q 416 270 416 256 Q 416 242 414 229 L 414 229 Z M 478 287 L 479 287 Q 493 287 502 279 Q 512 270 512 256 Q 512 242 502 233 Q 493 225 479 225 L 478 225 Q 480 240 480 256 Q 480 272 478 287 L 478 287 Z M 386 349 L 338 306 Q 326 326 306 338 L 349 386 Q 371 371 386 349 L 386 349 Z M 391 435 L 392 435 Q 401 446 414 446 Q 427 447 437 437 Q 447 427 446 414 Q 446 401 436 392 L 435 391 Q 416 416 391 435 L 391 435 Z M 283 414 L 278 349 Q 268 352 256 352 Q 244 352 234 349 L 229 414 Q 242 416 256 416 Q 270 416 283 414 L 283 414 Z M 225 478 L 225 479 Q 225 493 233 502 Q 242 512 256 512 Q 270 512 279 502 Q 287 493 287 479 L 287 478 Q 272 480 256 480 Q 240 480 225 478 L 225 478 Z M 163 386 L 206 338 Q 186 326 174 306 L 126 349 Q 141 371 163 386 L 163 386 Z M 77 391 L 77 392 Q 66 401 66 414 Q 65 427 75 437 Q 85 446 98 446 Q 111 446 120 436 L 121 435 Q 96 416 77 391 L 77 391 Z M 98 283 L 163 278 Q 160 268 160 256 Q 160 244 163 234 L 98 229 Q 96 242 96 256 Q 96 270 98 283 L 98 283 Z M 34 225 L 33 225 Q 19 225 10 233 Q 0 242 0 256 Q 0 270 10 279 Q 19 287 33 287 L 34 287 Q 32 272 32 256 Q 32 240 34 225 L 34 225 Z M 126 163 L 174 206 Q 186 186 206 174 L 163 126 Q 141 141 126 163 L 126 163 Z M 121 77 L 120 76 Q 111 66 98 66 Q 85 65 75 75 Q 66 85 66 98 Q 66 111 77 120 L 77 121 Q 96 96 121 77 L 121 77 Z M 229 98 L 234 163 Q 244 160 256 160 Q 268 160 278 163 L 283 98 Q 270 96 256 96 Q 242 96 229 98 L 229 98 Z M 287 34 L 287 33 Q 287 19 279 10 Q 270 0 256 0 Q 242 0 233 10 Q 225 19 225 33 L 225 34 Q 240 32 256 32 Q 272 32 287 34 L 287 34 Z M 435 121 L 435 120 Q 446 111 446 98 Q 447 85 437 75 Q 427 66 414 66 Q 401 66 392 77 L 391 77 Q 416 96 435 121 L 435 121 Z"/>
</svg>
