<svg xmlns="http://www.w3.org/2000/svg" viewBox="0 0 512 336">
    <path d="M 472 128 Q 473 154 482 179 L 482 179 Q 491 204 501 221 Q 512 240 512 262 Q 511 294 490 314 Q 470 335 438 336 L 330 336 Q 298 335 278 314 Q 257 294 256 262 Q 256 240 267 221 Q 277 204 286 179 Q 295 154 296 128 Q 296 111 292 100 Q 291 98 290 96 Q 289 95 289 93 Q 289 92 288 92 Q 281 75 280 57 L 280 16 Q 281 1 296 0 Q 310 1 314 16 Q 317 31 331 47 Q 344 63 376 64 L 392 64 Q 421 63 435 53 Q 449 43 453 32 Q 458 18 472 16 Q 487 17 488 32 L 488 61 Q 487 78 479 94 Q 479 95 479 95 L 478 96 Q 473 108 472 128 L 472 128 Z M 336 144 Q 337 159 352 160 L 416 160 Q 431 159 432 144 Q 431 129 416 128 L 352 128 Q 337 129 336 144 L 336 144 Z M 336 208 Q 337 223 352 224 L 416 224 Q 431 223 432 208 Q 431 193 416 192 L 352 192 Q 337 193 336 208 L 336 208 Z M 231 171 Q 240 180 246 192 Q 243 199 239 206 Q 225 230 224 262 Q 224 280 229 295 Q 192 334 128 336 Q 74 335 37 306 Q 1 276 0 232 Q 1 197 25 171 Q 33 162 33 149 Q 34 137 28 127 Q 16 109 16 88 Q 17 56 41 32 Q 65 9 104 2 L 104 96 Q 89 108 88 128 Q 88 145 100 156 Q 111 168 128 168 Q 145 168 156 156 Q 168 145 168 128 Q 167 108 152 96 L 152 2 Q 191 9 215 32 Q 239 56 240 88 Q 240 109 228 127 Q 222 137 223 149 Q 224 162 231 171 L 231 171 Z"/>
</svg>
