<svg xmlns="http://www.w3.org/2000/svg" viewBox="0 0 640 385">
    <path d="M 496 299 Q 494 282 481 269 L 346 146 L 323 164 L 496 299 L 496 299 Z M 297 143 L 374 83 Q 386 75 397 86 Q 405 98 394 109 L 373 125 L 512 253 L 512 64 L 511 64 L 507 62 L 435 15 Q 411 0 383 0 Q 350 0 323 21 L 234 94 L 297 143 L 297 143 Z M 208 74 L 290 7 Q 272 0 253 0 Q 224 0 200 16 L 165 40 L 208 74 L 208 74 Z M 414 358 L 128 133 L 128 288 L 156 288 L 248 371 Q 263 385 282 384 Q 301 383 315 368 Q 324 359 327 348 L 344 363 Q 359 377 378 376 Q 397 375 411 360 Q 412 359 414 358 L 414 358 Z M 96 108 L 41 64 L 16 64 Q 1 65 0 80 L 0 288 Q 0 302 9 311 Q 18 320 32 320 L 64 320 Q 78 320 87 311 Q 96 302 96 288 L 96 108 L 96 108 Z M 48 256 Q 63 257 64 272 Q 63 287 48 288 Q 33 287 32 272 Q 33 257 48 256 L 48 256 Z M 544 64 L 544 288 Q 544 302 553 311 Q 562 320 576 320 L 608 320 Q 622 320 631 311 Q 640 302 640 288 L 640 80 Q 639 65 624 64 L 544 64 L 544 64 Z M 576 272 Q 577 257 592 256 Q 607 257 608 272 Q 607 287 592 288 Q 577 287 576 272 L 576 272 Z"/>
</svg>
