<svg xmlns="http://www.w3.org/2000/svg" viewBox="0 0 452 514">
    <path d="M 24 64 Q 11 60 5 48 L 5 48 Q 0 37 4 24 Q 8 11 20 5 Q 31 0 44 4 L 157 41 Q 180 4 226 2 Q 260 3 283 25 Q 305 48 306 82 Q 306 86 306 91 L 428 132 Q 441 136 447 148 Q 452 159 448 172 Q 444 185 432 191 Q 421 196 408 192 L 272 147 Q 266 152 258 155 L 258 482 Q 258 496 249 505 Q 240 514 226 514 L 34 514 Q 20 514 11 505 Q 2 496 2 482 Q 2 468 11 459 Q 20 450 34 450 L 194 450 L 194 155 Q 161 140 150 106 L 24 64 L 24 64 Z"/>
</svg>
