<svg xmlns="http://www.w3.org/2000/svg" viewBox="0 0 384 160">
    <path d="M 304 144 L 301 147 Q 288 160 269 160 Q 252 160 240 149 Q 228 139 225 123 Q 195 128 160 128 Q 92 127 47 109 Q 2 91 0 64 Q 0 37 9 13 Q 15 35 57 49 Q 99 63 160 64 Q 196 64 226 59 Q 224 52 224 45 Q 224 26 237 13 Q 250 0 269 0 Q 288 0 301 13 L 304 16 L 307 13 Q 320 0 339 0 Q 358 0 371 13 Q 384 26 384 45 Q 384 64 371 77 L 368 80 L 371 83 Q 384 96 384 115 Q 384 134 371 147 Q 358 160 339 160 Q 320 160 307 147 L 304 144 L 304 144 Z M 304 104 Q 326 102 328 80 Q 326 58 304 56 Q 282 58 280 80 Q 282 102 304 104 L 304 104 Z"/>
</svg>
