<svg xmlns="http://www.w3.org/2000/svg" viewBox="0 0 384 160">
    <path d="M 96 64 Q 110 64 119 55 L 119 55 Q 128 46 128 32 Q 128 18 119 9 Q 110 0 96 0 Q 82 0 73 9 Q 64 18 64 32 Q 64 46 73 55 Q 82 64 96 64 L 96 64 Z M 224 64 Q 238 64 247 55 L 247 55 Q 256 46 256 32 Q 256 18 247 9 Q 238 0 224 0 Q 210 0 201 9 Q 192 18 192 32 Q 192 46 201 55 Q 210 64 224 64 L 224 64 Z M 384 32 Q 384 18 375 9 L 375 9 Q 366 0 352 0 Q 338 0 329 9 Q 320 18 320 32 Q 320 46 329 55 Q 338 64 352 64 Q 366 64 375 55 Q 384 46 384 32 L 384 32 Z M 32 160 Q 46 160 55 151 L 55 151 Q 64 142 64 128 Q 64 114 55 105 Q 46 96 32 96 Q 18 96 9 105 Q 0 114 0 128 Q 0 142 9 151 Q 18 160 32 160 L 32 160 Z M 192 128 Q 192 114 183 105 L 183 105 Q 174 96 160 96 Q 146 96 137 105 Q 128 114 128 128 Q 128 142 137 151 Q 146 160 160 160 Q 174 160 183 151 Q 192 142 192 128 L 192 128 Z M 288 160 Q 302 160 311 151 L 311 151 Q 320 142 320 128 Q 320 114 311 105 Q 302 96 288 96 Q 274 96 265 105 Q 256 114 256 128 Q 256 142 265 151 Q 274 160 288 160 L 288 160 Z"/>
</svg>
