<svg xmlns="http://www.w3.org/2000/svg" viewBox="0 0 544 384">
    <path d="M 64 0 Q 50 0 41 9 L 41 9 Q 32 18 32 32 Q 32 46 41 55 Q 50 64 64 64 L 160 64 Q 174 64 183 55 Q 192 46 192 32 Q 192 18 183 9 Q 174 0 160 0 L 64 0 L 64 0 Z M 448 240 Q 475 241 490 264 Q 502 288 490 312 Q 475 335 448 336 Q 421 335 406 312 Q 394 288 406 264 Q 421 241 448 240 L 448 240 Z M 448 384 Q 474 384 496 371 L 496 371 Q 518 358 531 336 Q 544 313 544 288 Q 544 263 531 240 Q 518 218 496 205 Q 474 192 448 192 Q 422 192 400 205 Q 378 218 365 240 Q 352 263 352 288 Q 352 313 365 336 Q 378 358 400 371 Q 422 384 448 384 L 448 384 Z M 0 288 Q 1 329 28 356 L 28 356 Q 55 383 96 384 Q 137 383 164 356 Q 191 329 192 288 L 144 288 Q 143 308 130 322 Q 116 335 96 336 Q 76 335 62 322 Q 49 308 48 288 L 0 288 L 0 288 Z"/>
</svg>
