<svg xmlns="http://www.w3.org/2000/svg" viewBox="0 0 384 448">
    <path d="M 113 2 Q 113 2 113 1 L 113 1 Q 114 0 114 0 L 64 0 Q 37 1 19 19 Q 1 37 0 64 L 0 384 Q 1 411 19 429 Q 37 447 64 448 L 320 448 Q 347 447 365 429 Q 383 411 384 384 L 384 64 Q 383 37 365 19 Q 347 1 320 0 L 270 0 Q 271 1 271 2 Q 271 2 271 2 Q 302 14 304 48 L 304 72 Q 302 94 280 96 L 192 96 L 104 96 Q 82 94 80 72 L 80 48 Q 82 14 113 2 L 113 2 Z M 72 208 Q 74 186 96 184 Q 118 186 120 208 Q 118 230 96 232 Q 74 230 72 208 L 72 208 Z M 176 192 L 304 192 Q 319 193 320 208 Q 319 223 304 224 L 176 224 Q 161 223 160 208 Q 161 193 176 192 L 176 192 Z M 72 304 Q 74 282 96 280 Q 118 282 120 304 Q 118 326 96 328 Q 74 326 72 304 L 72 304 Z M 160 304 Q 161 289 176 288 L 304 288 Q 319 289 320 304 Q 319 319 304 320 L 176 320 Q 161 319 160 304 L 160 304 Z"/>
</svg>
