<svg xmlns="http://www.w3.org/2000/svg" viewBox="0 0 516 330">
    <path d="M 495 50 Q 516 43 514 21 Q 507 0 485 3 L 253 51 L 21 99 Q 0 105 3 127 Q 9 148 31 146 L 234 104 L 234 146 L 234 170 L 282 170 L 282 146 L 282 94 L 495 50 L 495 50 Z M 98 234 Q 83 235 82 250 L 82 314 Q 83 329 98 330 L 162 330 Q 177 329 178 314 L 178 250 Q 177 235 162 234 L 98 234 L 98 234 Z M 210 250 L 210 314 Q 211 329 226 330 L 290 330 Q 305 329 306 314 L 306 250 Q 305 235 290 234 L 226 234 Q 211 235 210 250 L 210 250 Z M 354 234 Q 339 235 338 250 L 338 314 Q 339 329 354 330 L 418 330 Q 433 329 434 314 L 434 250 Q 433 235 418 234 L 354 234 L 354 234 Z"/>
</svg>
