<svg xmlns="http://www.w3.org/2000/svg" viewBox="0 0 192 512">
    <path d="M 8 85 L 64 64 L 85 8 Q 88 0 96 0 Q 104 0 107 8 L 128 64 L 185 85 Q 192 88 192 96 Q 192 104 185 107 L 128 128 L 107 185 Q 104 192 96 192 Q 88 192 85 185 L 64 128 L 8 107 Q 0 104 0 96 Q 0 88 8 85 L 8 85 Z M 8 405 L 64 384 L 85 328 Q 88 320 96 320 Q 104 320 107 328 L 128 384 L 185 405 Q 192 408 192 416 Q 192 424 185 427 L 128 448 L 107 505 Q 104 512 96 512 Q 88 512 85 505 L 64 448 L 8 427 Q 0 424 0 416 Q 0 408 8 405 L 8 405 Z"/>
</svg>
