<svg xmlns="http://www.w3.org/2000/svg" viewBox="0 0 640 320">
    <path d="M 640 288 Q 640 302 631 311 L 631 311 Q 622 320 608 320 L 575 320 Q 568 278 538 252 Q 507 225 464 224 Q 421 225 390 252 Q 360 278 353 320 L 352 320 L 287 320 Q 281 282 254 256 L 352 256 L 352 32 Q 352 18 361 9 Q 370 0 384 0 L 400 0 L 416 0 L 467 0 Q 493 0 512 19 L 589 96 Q 608 115 608 141 L 608 160 L 608 192 L 608 256 Q 622 256 631 265 Q 640 274 640 288 L 640 288 Z M 98 256 Q 71 282 65 320 L 32 320 Q 18 320 9 311 Q 0 302 0 288 Q 0 274 9 265 Q 18 256 32 256 L 98 256 L 98 256 Z M 544 160 L 544 141 L 467 64 L 416 64 L 416 160 L 544 160 L 544 160 Z"/>
</svg>
