<svg xmlns="http://www.w3.org/2000/svg" viewBox="0 0 466 457">
    <path d="M 9 73 Q 10 37 41 18 Q 73 0 105 18 Q 136 37 137 73 Q 136 109 105 128 Q 73 146 41 128 Q 10 109 9 73 L 9 73 Z M 73 329 Q 109 330 128 361 Q 146 393 128 425 Q 109 456 73 457 Q 37 456 18 425 Q 0 393 18 361 Q 37 330 73 329 L 73 329 Z M 393 329 Q 429 330 448 361 Q 466 393 448 425 Q 429 456 393 457 Q 357 456 338 425 Q 320 393 338 361 Q 357 330 393 329 L 393 329 Z M 393 9 Q 429 10 448 41 Q 466 73 448 105 Q 429 136 393 137 Q 357 136 338 105 Q 320 73 338 41 Q 357 10 393 9 L 393 9 Z"/>
</svg>
