<svg xmlns="http://www.w3.org/2000/svg" viewBox="0 0 640 352">
    <path d="M 96 0 Q 69 1 51 19 L 51 19 Q 33 37 32 64 L 32 96 Q 18 96 9 105 Q 0 114 0 128 L 0 224 Q 0 238 9 247 Q 18 256 32 256 L 32 288 Q 18 288 9 297 Q 0 306 0 320 Q 0 334 9 343 Q 18 352 32 352 L 65 352 Q 72 310 102 284 Q 133 257 176 256 Q 219 257 250 284 Q 280 310 287 352 L 353 352 Q 360 310 390 284 Q 421 257 464 256 Q 507 257 538 284 Q 568 310 575 352 L 608 352 Q 622 352 631 343 Q 640 334 640 320 Q 640 306 631 297 Q 622 288 608 288 L 608 256 Q 607 229 589 211 Q 571 193 544 192 L 540 192 Q 539 191 539 190 Q 539 190 539 189 L 486 70 Q 468 34 427 32 L 375 32 Q 357 2 320 0 L 96 0 L 96 0 Z M 384 96 L 427 96 L 470 192 L 384 192 L 384 96 L 384 96 Z M 253 103 L 288 155 L 288 112 Q 289 97 304 96 Q 319 97 320 112 L 320 208 Q 319 219 309 223 Q 297 226 291 217 L 256 165 L 256 208 Q 255 223 240 224 Q 225 223 224 208 L 224 112 Q 225 101 235 97 Q 247 94 253 103 L 253 103 Z M 128 112 L 128 176 Q 129 191 144 192 Q 159 191 160 176 L 160 112 Q 161 97 176 96 Q 191 97 192 112 L 192 176 Q 191 196 178 210 Q 164 223 144 224 Q 124 223 110 210 Q 97 196 96 176 L 96 112 Q 97 97 112 96 Q 127 97 128 112 L 128 112 Z"/>
</svg>
