<svg xmlns="http://www.w3.org/2000/svg" viewBox="0 0 520 513">
    <path d="M 48 506 L 129 425 Q 144 436 163 442 Q 197 452 245 447 Q 293 443 345 410 Q 354 403 351 395 Q 347 386 336 385 L 320 385 Q 312 384 311 376 Q 311 369 317 367 L 415 338 Q 420 336 423 332 Q 430 322 436 312 Q 440 304 436 297 Q 432 289 423 289 L 384 289 Q 376 288 375 280 Q 375 273 381 271 L 462 247 Q 469 244 472 237 Q 494 181 505 129 Q 516 76 519 38 Q 520 22 509 11 Q 498 0 482 1 Q 439 4 378 18 Q 316 32 254 60 Q 191 87 144 133 Q 86 194 76 255 Q 65 315 78 357 Q 84 376 95 391 L 14 472 Q 0 489 14 506 Q 21 513 31 513 Q 32 513 33 513 Q 38 512 43 510 Q 45 508 48 506 L 48 506 Z"/>
</svg>
