<svg xmlns="http://www.w3.org/2000/svg" viewBox="0 0 640 418">
    <path d="M 25 5 Q 17 0 9 4 Q 0 8 0 18 L 0 73 Q 1 114 34 138 L 64 159 L 64 258 Q 66 326 111 371 Q 156 416 224 418 L 464 418 Q 539 416 588 366 Q 638 317 640 242 Q 638 167 588 118 Q 538 68 463 66 Q 384 67 323 116 L 154 253 Q 146 259 137 255 Q 129 251 128 240 L 128 159 L 158 138 Q 191 114 192 73 L 192 18 Q 192 9 183 4 Q 175 0 167 5 L 96 55 L 25 5 L 25 5 Z M 496 186 Q 518 188 520 210 Q 518 232 496 234 Q 474 232 472 210 Q 474 188 496 186 L 496 186 Z"/>
</svg>
