<svg xmlns="http://www.w3.org/2000/svg" viewBox="0 0 448 448">
    <path d="M 0 32 Q 0 18 9 9 L 9 9 Q 18 0 32 0 L 128 0 Q 142 0 151 9 Q 160 18 160 32 Q 160 46 151 55 Q 142 64 128 64 L 64 64 L 64 128 Q 64 142 55 151 Q 46 160 32 160 Q 18 160 9 151 Q 0 142 0 128 L 0 32 L 0 32 Z M 416 288 Q 430 288 439 297 L 439 297 Q 448 306 448 320 L 448 416 Q 448 430 439 439 Q 430 448 416 448 L 320 448 Q 306 448 297 439 Q 288 430 288 416 Q 288 402 297 393 Q 306 384 320 384 L 384 384 L 384 320 Q 384 306 393 297 Q 402 288 416 288 L 416 288 Z"/>
</svg>
