<svg xmlns="http://www.w3.org/2000/svg" viewBox="0 0 320 512">
    <path d="M 128 0 L 192 0 Q 206 0 215 9 Q 224 18 224 32 L 224 128 L 96 128 L 96 32 Q 96 18 105 9 Q 114 0 128 0 L 128 0 Z M 0 256 Q 1 215 28 188 L 28 188 Q 55 161 96 160 L 224 160 Q 265 161 292 188 Q 319 215 320 256 L 320 464 Q 319 484 306 498 Q 292 511 272 512 L 48 512 Q 28 511 14 498 Q 1 484 0 464 L 0 256 L 0 256 Z M 240 336 Q 239 291 200 267 Q 160 245 120 267 Q 81 291 80 336 Q 81 381 120 405 Q 160 427 200 405 Q 239 381 240 336 L 240 336 Z"/>
</svg>
