<svg xmlns="http://www.w3.org/2000/svg" viewBox="0 0 448 456">
    <path d="M 96 32 Q 96 18 105 9 L 105 9 Q 114 0 128 0 Q 142 0 151 9 Q 160 18 160 32 L 160 64 L 288 64 L 288 32 Q 288 18 297 9 Q 306 0 320 0 Q 334 0 343 9 Q 352 18 352 32 L 352 64 L 400 64 Q 420 65 434 78 Q 447 92 448 112 L 448 192 L 0 192 L 0 112 Q 1 92 14 78 Q 28 65 48 64 L 96 64 L 96 32 L 96 32 Z M 224 248 Q 246 250 248 272 L 248 328 L 304 328 Q 326 330 328 352 Q 326 374 304 376 L 248 376 L 248 432 Q 246 454 224 456 Q 202 454 200 432 L 200 376 L 144 376 Q 122 374 120 352 Q 122 330 144 328 L 200 328 L 200 272 Q 202 250 224 248 L 224 248 Z"/>
</svg>
