<svg xmlns="http://www.w3.org/2000/svg" viewBox="0 0 448 416">
    <path d="M 32 0 Q 18 0 9 9 L 9 9 Q 0 18 0 32 L 0 96 Q 0 110 9 119 Q 18 128 32 128 L 96 128 Q 110 128 119 119 Q 128 110 128 96 L 128 32 Q 128 18 119 9 Q 110 0 96 0 L 32 0 L 32 0 Z M 32 288 Q 18 288 9 297 L 9 297 Q 0 306 0 320 L 0 384 Q 0 398 9 407 Q 18 416 32 416 L 96 416 Q 110 416 119 407 Q 128 398 128 384 L 128 320 Q 128 306 119 297 Q 110 288 96 288 L 32 288 L 32 288 Z M 160 32 L 160 96 Q 160 110 169 119 Q 178 128 192 128 L 256 128 Q 270 128 279 119 Q 288 110 288 96 L 288 32 Q 288 18 279 9 Q 270 0 256 0 L 192 0 Q 178 0 169 9 Q 160 18 160 32 L 160 32 Z M 192 288 Q 178 288 169 297 L 169 297 Q 160 306 160 320 L 160 384 Q 160 398 169 407 Q 178 416 192 416 L 256 416 Q 270 416 279 407 Q 288 398 288 384 L 288 320 Q 288 306 279 297 Q 270 288 256 288 L 192 288 L 192 288 Z M 320 32 L 320 96 Q 320 110 329 119 Q 338 128 352 128 L 416 128 Q 430 128 439 119 Q 448 110 448 96 L 448 32 Q 448 18 439 9 Q 430 0 416 0 L 352 0 Q 338 0 329 9 Q 320 18 320 32 L 320 32 Z M 352 288 Q 338 288 329 297 L 329 297 Q 320 306 320 320 L 320 384 Q 320 398 329 407 Q 338 416 352 416 L 416 416 Q 430 416 439 407 Q 448 398 448 384 L 448 320 Q 448 306 439 297 Q 430 288 416 288 L 352 288 L 352 288 Z"/>
</svg>
