<svg xmlns="http://www.w3.org/2000/svg" viewBox="0 0 576 384">
    <path d="M 306 0 L 64 0 Q 37 1 19 19 Q 1 37 0 64 L 0 279 L 19 259 Q 35 244 56 244 Q 77 244 93 259 Q 113 281 107 308 L 224 308 Q 246 309 261 323 Q 275 338 276 360 Q 276 373 270 384 L 512 384 Q 539 383 557 365 Q 575 347 576 320 L 576 106 L 557 125 Q 541 140 520 140 Q 499 140 483 125 Q 463 103 469 76 L 352 76 Q 330 75 315 61 Q 301 46 300 24 Q 300 11 306 0 L 306 0 Z M 64 128 L 64 64 L 128 64 Q 127 91 109 109 Q 91 127 64 128 L 64 128 Z M 448 320 Q 449 293 467 275 L 467 275 Q 485 257 512 256 L 512 320 L 448 320 L 448 320 Z M 192 192 Q 192 166 205 144 L 205 144 Q 218 122 240 109 Q 263 96 288 96 Q 313 96 336 109 Q 358 122 371 144 Q 384 166 384 192 Q 384 218 371 240 Q 358 262 336 275 Q 313 288 288 288 Q 263 288 240 275 Q 218 262 205 240 Q 192 218 192 192 L 192 192 Z"/>
</svg>
