<svg xmlns="http://www.w3.org/2000/svg" viewBox="0 0 576 384">
    <path d="M 96 64 L 480 64 Q 494 64 503 73 Q 512 82 512 96 L 512 288 Q 512 302 503 311 Q 494 320 480 320 L 411 320 L 461 371 Q 467 377 471 384 L 480 384 Q 521 383 548 356 Q 575 329 576 288 L 576 96 Q 575 55 548 28 Q 521 1 480 0 L 96 0 Q 55 1 28 28 Q 1 55 0 96 L 0 288 Q 1 329 28 356 Q 55 383 96 384 L 105 384 Q 109 377 115 371 L 166 320 L 96 320 Q 82 320 73 311 Q 64 302 64 288 L 64 96 Q 64 82 73 73 Q 82 64 96 64 L 96 64 Z"/>
</svg>
