<svg xmlns="http://www.w3.org/2000/svg" viewBox="0 0 272 81">
    <path d="M 98 77 L 98 77 L 98 77 L 98 77 Q 101 81 107 80 Q 112 78 112 72 Q 111 44 95 23 Q 80 2 56 0 Q 32 2 17 23 Q 1 44 0 72 Q 0 78 6 80 Q 11 81 14 77 L 14 77 L 14 77 L 14 77 L 15 77 Q 15 76 15 76 Q 15 76 15 76 Q 16 74 18 72 Q 22 68 28 62 Q 42 49 56 48 Q 70 49 84 62 Q 90 68 94 72 Q 96 74 97 76 Q 97 76 97 76 Q 97 76 97 77 L 98 77 L 98 77 L 98 77 Z M 258 77 L 258 77 L 258 77 L 258 77 Q 261 81 267 80 Q 272 78 272 72 Q 271 44 255 23 Q 240 2 216 0 Q 192 2 177 23 Q 161 44 160 72 Q 160 78 166 80 Q 171 81 174 77 L 174 77 L 174 77 L 174 77 L 175 77 Q 175 76 175 76 Q 175 76 175 76 Q 176 74 178 72 Q 182 68 188 62 Q 202 49 216 48 Q 230 49 244 62 Q 250 68 254 72 Q 256 74 257 76 Q 257 76 257 76 Q 257 76 257 77 L 258 77 L 258 77 L 258 77 Z"/>
</svg>
