<svg xmlns="http://www.w3.org/2000/svg" viewBox="0 0 576 320">
    <path d="M 32 0 Q 18 0 9 9 L 9 9 Q 0 18 0 32 L 0 64 L 256 64 L 256 32 Q 256 18 247 9 Q 238 0 224 0 L 32 0 L 32 0 Z M 352 0 Q 338 0 329 9 L 329 9 Q 320 18 320 32 L 320 64 L 576 64 L 576 32 Q 576 18 567 9 Q 558 0 544 0 L 352 0 L 352 0 Z M 192 224 Q 177 225 176 240 L 176 304 Q 177 319 192 320 Q 207 319 208 304 L 208 240 Q 207 225 192 224 L 192 224 Z M 528 240 Q 527 225 512 224 Q 497 225 496 240 L 496 304 Q 497 319 512 320 Q 527 319 528 304 L 528 240 L 528 240 Z"/>
</svg>
