<svg xmlns="http://www.w3.org/2000/svg" viewBox="0 0 640 356">
    <path d="M 454 8 Q 444 0 434 8 Q 383 54 352 104 Q 321 153 320 194 Q 322 262 366 308 Q 411 354 480 356 Q 548 354 593 308 Q 638 262 640 194 Q 639 161 616 117 Q 593 72 555 36 Q 545 28 535 36 Q 521 50 509 66 Q 483 35 453 8 L 454 8 Z M 530 277 Q 508 292 481 292 Q 446 292 424 271 Q 401 251 400 214 Q 400 197 411 178 Q 423 159 445 132 Q 448 136 463 155 Q 478 174 492 192 Q 506 210 507 211 L 543 169 Q 545 172 547 175 Q 549 178 550 181 Q 563 207 558 234 Q 553 260 530 277 L 530 277 Z M 32 68 L 36 100 L 32 100 Q 18 100 9 109 Q 0 118 0 132 Q 0 146 9 155 Q 18 164 32 164 L 44 164 L 64 324 Q 64 338 73 347 Q 82 356 96 356 Q 110 356 119 347 Q 128 338 128 324 L 338 324 Q 290 270 288 194 Q 288 167 299 140 Q 309 112 325 87 Q 331 77 338 68 L 32 68 L 32 68 Z"/>
</svg>
