<svg xmlns="http://www.w3.org/2000/svg" viewBox="0 0 341 176">
    <path d="M 32 16 Q 31 1 16 0 Q 1 1 0 16 L 0 40 Q 1 64 16 80 Q 32 95 56 96 L 64 96 L 72 96 L 128 96 Q 143 95 144 80 Q 143 65 128 64 L 123 64 Q 128 53 128 40 L 128 16 Q 127 1 112 0 Q 97 1 96 16 L 96 40 Q 94 62 72 64 L 64 64 L 56 64 Q 34 62 32 40 L 32 16 L 32 16 Z M 248 16 Q 247 1 232 0 Q 217 1 216 16 L 216 40 Q 214 62 192 64 L 176 64 Q 172 64 169 65 Q 197 70 218 90 Q 246 74 248 40 L 248 16 L 248 16 Z M 296 176 Q 319 175 331 156 Q 341 136 331 116 Q 319 97 296 96 Q 273 97 261 116 Q 251 136 261 156 Q 273 175 296 176 L 296 176 Z"/>
</svg>
