<svg xmlns="http://www.w3.org/2000/svg" viewBox="0 0 518 486">
    <path d="M 103 136 L 96 200 L 345 133 L 307 81 Q 294 65 273 69 L 126 109 Q 106 115 103 136 L 103 136 Z M 29 222 L 39 129 Q 43 99 62 77 Q 80 55 110 47 L 257 7 Q 286 0 314 10 Q 341 19 359 43 L 414 119 Q 434 121 449 134 Q 463 146 469 166 L 502 290 L 514 336 Q 518 349 511 360 Q 505 371 492 375 L 461 383 Q 448 387 437 380 Q 426 374 422 361 L 409 314 L 131 389 L 143 435 Q 147 449 140 460 Q 134 471 121 475 L 90 483 Q 77 486 66 480 Q 55 473 51 460 L 38 414 L 5 290 Q 0 270 7 252 Q 13 234 29 222 L 29 222 Z M 137 288 Q 132 270 114 265 Q 97 261 83 273 Q 71 287 75 305 Q 80 322 98 328 Q 116 332 129 319 Q 142 306 137 288 L 137 288 Z M 393 253 Q 410 248 416 230 Q 420 212 407 199 Q 394 186 376 191 Q 358 196 353 213 Q 349 231 361 245 Q 375 257 393 253 L 393 253 Z"/>
</svg>
