<svg xmlns="http://www.w3.org/2000/svg" viewBox="0 0 384 512">
    <path d="M 208 16 Q 207 1 192 0 Q 177 1 176 16 L 176 32 L 208 32 L 208 16 L 208 16 Z M 104 128 Q 97 129 96 136 L 96 160 L 128 160 L 128 128 L 104 128 L 104 128 Z M 128 176 L 96 176 L 96 200 Q 97 207 104 208 L 128 208 L 128 176 L 128 176 Z M 144 128 L 144 160 L 176 160 L 176 136 Q 175 129 168 128 L 144 128 L 144 128 Z M 176 176 L 144 176 L 144 208 L 168 208 Q 175 207 176 200 L 176 176 L 176 176 Z M 24 464 Q 2 466 0 488 Q 2 510 24 512 L 360 512 Q 382 510 384 488 Q 382 466 360 464 L 24 464 L 24 464 Z M 208 136 L 208 160 L 240 160 L 240 128 L 216 128 Q 209 129 208 136 L 208 136 Z M 208 176 L 208 200 Q 209 207 216 208 L 240 208 L 240 176 L 208 176 L 208 176 Z M 280 128 L 256 128 L 256 160 L 288 160 L 288 136 Q 287 129 280 128 L 280 128 Z M 256 176 L 256 208 L 280 208 Q 287 207 288 200 L 288 176 L 256 176 L 256 176 Z"/>
</svg>
