<svg xmlns="http://www.w3.org/2000/svg" viewBox="0 0 448 320">
    <path d="M 448 0 L 0 0 L 0 320 L 448 320 L 448 0 L 448 0 Z M 224 32 Q 239 33 240 48 L 240 64 L 320 64 Q 335 65 336 80 Q 335 95 320 96 L 240 96 L 240 128 L 352 128 Q 367 129 368 144 Q 367 159 352 160 L 240 160 L 240 208 Q 240 208 240 209 Q 240 209 240 209 L 290 188 Q 299 184 308 184 L 315 184 Q 331 184 341 195 Q 352 205 352 221 Q 352 234 344 244 L 325 268 Q 309 287 284 288 L 164 288 Q 139 287 123 268 L 104 244 Q 96 234 96 221 Q 96 205 107 195 Q 117 184 133 184 L 140 184 Q 149 184 158 188 L 208 209 Q 208 209 208 209 Q 208 208 208 208 L 208 160 L 96 160 Q 81 159 80 144 Q 81 129 96 128 L 208 128 L 208 96 L 128 96 Q 113 95 112 80 Q 113 65 128 64 L 208 64 L 208 48 Q 209 33 224 32 L 224 32 Z M 176 256 Q 191 255 192 240 Q 191 225 176 224 Q 161 225 160 240 Q 161 255 176 256 L 176 256 Z M 288 240 Q 287 225 272 224 Q 257 225 256 240 Q 257 255 272 256 Q 287 255 288 240 L 288 240 Z"/>
</svg>
