<svg xmlns="http://www.w3.org/2000/svg" viewBox="0 0 448 384">
    <path d="M 164 0 L 284 0 Q 304 1 313 18 L 320 32 L 416 32 Q 430 32 439 41 Q 448 50 448 64 Q 448 78 439 87 Q 430 96 416 96 L 32 96 Q 18 96 9 87 Q 0 78 0 64 Q 0 50 9 41 Q 18 32 32 32 L 128 32 L 135 18 Q 144 1 164 0 L 164 0 Z M 218 168 Q 231 186 216 202 L 183 232 L 240 232 Q 277 233 302 258 Q 327 283 328 320 L 328 360 Q 326 382 304 384 Q 282 382 280 360 L 280 320 Q 280 303 268 292 Q 257 280 240 280 L 183 280 L 216 310 Q 231 326 218 344 Q 202 359 184 346 L 104 274 Q 96 267 96 256 Q 96 245 104 238 L 184 166 Q 202 153 218 168 L 218 168 Z"/>
</svg>
