<svg xmlns="http://www.w3.org/2000/svg" viewBox="0 0 418 352">
    <path d="M 210 352 Q 298 350 357 300 L 357 300 Q 416 251 418 176 Q 416 101 357 52 Q 298 2 210 0 Q 122 2 63 52 Q 4 101 2 176 Q 3 235 42 279 Q 36 294 27 304 Q 20 313 14 318 Q 11 321 10 322 Q 9 323 9 323 L 8 323 L 8 323 L 8 323 Q 0 330 3 341 Q 7 351 18 352 Q 52 351 80 340 Q 94 334 105 328 Q 152 351 210 352 L 210 352 Z M 230 72 L 230 86 Q 241 88 251 91 Q 268 97 265 115 Q 259 132 241 129 Q 224 125 210 124 Q 197 124 188 129 Q 181 133 182 138 Q 181 141 187 145 Q 196 150 216 156 L 216 156 Q 217 156 217 156 Q 235 161 253 171 Q 275 182 278 212 Q 276 244 253 257 Q 242 264 230 266 L 230 280 Q 228 298 210 300 Q 192 298 190 280 L 190 265 Q 174 262 162 257 L 162 257 L 162 257 Q 159 256 156 255 Q 139 247 143 230 Q 150 213 168 217 Q 170 218 172 218 Q 174 219 176 219 Q 195 227 211 228 Q 224 228 232 223 Q 238 220 238 213 Q 239 209 232 204 Q 223 199 204 194 L 202 193 Q 202 193 202 193 Q 184 189 167 179 Q 145 168 142 139 Q 144 107 168 95 Q 178 89 190 86 L 190 72 Q 192 54 210 52 Q 228 54 230 72 L 230 72 Z"/>
</svg>
