<svg xmlns="http://www.w3.org/2000/svg" viewBox="0 0 640 517">
    <path d="M 302 10 Q 320 0 338 10 L 474 101 L 592 101 Q 612 102 626 115 Q 639 129 640 149 L 640 272 Q 616 237 578 217 Q 541 197 496 197 Q 437 198 393 230 Q 408 209 408 181 Q 407 144 382 119 Q 357 94 320 93 Q 283 94 258 119 Q 233 144 232 181 Q 233 218 258 243 Q 283 268 320 269 Q 344 269 363 258 Q 327 300 321 357 L 320 357 L 320 357 Q 293 358 275 376 Q 257 394 256 421 L 256 517 L 320 517 L 320 517 L 48 517 Q 28 516 14 503 Q 1 489 0 469 L 0 149 Q 1 129 14 115 Q 28 102 48 101 L 166 101 L 302 10 L 302 10 Z M 80 213 L 80 277 Q 81 292 96 293 L 128 293 Q 143 292 144 277 L 144 213 Q 143 198 128 197 L 96 197 Q 81 198 80 213 L 80 213 Z M 80 341 L 80 405 Q 81 420 96 421 L 128 421 Q 143 420 144 405 L 144 341 Q 143 326 128 325 L 96 325 Q 81 326 80 341 L 80 341 Z M 336 149 L 336 165 L 352 165 Q 367 166 368 181 Q 367 196 352 197 L 320 197 Q 305 196 304 181 L 304 149 Q 305 134 320 133 Q 335 134 336 149 L 336 149 Z"/>
</svg>
