<svg xmlns="http://www.w3.org/2000/svg" viewBox="0 0 384 448">
    <path d="M 271 2 Q 302 14 304 48 L 304 72 Q 302 94 280 96 L 192 96 L 104 96 Q 82 94 80 72 L 80 48 Q 82 14 113 2 Q 113 2 113 1 Q 114 0 114 0 L 64 0 Q 37 1 19 19 Q 1 37 0 64 L 0 384 Q 1 411 19 429 Q 37 447 64 448 L 320 448 Q 347 447 365 429 Q 383 411 384 384 L 384 64 Q 383 37 365 19 Q 347 1 320 0 L 270 0 Q 271 1 271 2 Q 271 2 271 2 L 271 2 Z M 106 181 Q 112 164 126 154 L 126 154 Q 140 144 159 144 L 217 144 Q 244 145 262 162 Q 279 180 280 207 Q 279 243 248 262 L 216 280 Q 214 302 192 304 Q 170 302 168 280 L 168 267 Q 168 253 180 246 L 224 220 Q 232 216 232 207 Q 231 193 217 192 L 159 192 Q 153 192 151 197 L 151 199 Q 141 219 120 213 Q 100 204 106 183 L 106 181 L 106 181 Z M 160 368 Q 160 354 169 345 L 169 345 Q 178 336 192 336 Q 206 336 215 345 Q 224 354 224 368 Q 224 382 215 391 Q 206 400 192 400 Q 178 400 169 391 Q 160 382 160 368 L 160 368 Z"/>
</svg>
