<svg xmlns="http://www.w3.org/2000/svg" viewBox="0 0 352 400">
    <path d="M 176 0 Q 190 0 199 9 L 199 9 Q 208 18 208 32 L 208 36 Q 242 45 267 69 Q 291 94 300 128 L 312 128 Q 334 130 336 152 Q 334 174 312 176 L 40 176 Q 18 174 16 152 Q 18 130 40 128 L 52 128 Q 61 94 85 69 Q 110 45 144 36 L 144 32 Q 144 18 153 9 Q 162 0 176 0 L 176 0 Z M 0 304 Q 0 290 9 281 L 9 281 Q 18 272 32 272 L 48 272 L 48 400 L 32 400 Q 18 400 9 391 Q 0 382 0 368 L 0 304 L 0 304 Z M 320 272 Q 334 272 343 281 L 343 281 Q 352 290 352 304 L 352 368 Q 352 382 343 391 Q 334 400 320 400 L 304 400 L 304 272 L 320 272 L 320 272 Z"/>
</svg>
