<svg xmlns="http://www.w3.org/2000/svg" viewBox="0 0 512 512">
    <path d="M 48 256 Q 50 168 109 109 L 109 109 Q 168 50 256 48 Q 344 50 403 109 Q 462 168 464 256 L 464 400 Q 464 417 452 428 Q 441 440 424 440 L 314 440 Q 300 417 272 416 L 240 416 Q 220 417 206 430 Q 193 444 192 464 Q 193 484 206 498 Q 220 511 240 512 L 272 512 Q 300 511 314 488 L 424 488 Q 461 487 486 462 Q 511 437 512 400 L 512 256 Q 511 184 477 127 Q 443 69 385 35 Q 328 1 256 0 Q 184 1 127 35 Q 69 69 35 127 Q 1 184 0 256 L 0 296 Q 2 318 24 320 Q 46 318 48 296 L 48 256 L 48 256 Z"/>
</svg>
