<svg xmlns="http://www.w3.org/2000/svg" viewBox="0 0 528 528">
    <path d="M 390 41 Q 388 48 386 56 Q 379 86 376 106 Q 374 127 388 140 Q 401 154 422 152 Q 442 149 473 142 Q 480 140 487 138 Q 528 213 518 297 Q 507 380 445 445 Q 380 507 297 518 Q 213 528 138 487 Q 140 480 142 473 Q 149 442 151 422 Q 154 401 140 388 Q 127 374 106 376 Q 86 379 55 386 Q 48 388 41 390 Q 0 315 10 231 Q 21 148 83 83 Q 148 21 231 10 Q 315 0 390 41 L 390 41 Z M 425 210 Q 420 201 412 202 L 412 202 Q 403 202 398 211 Q 368 266 318 317 Q 267 368 211 397 Q 203 402 202 411 Q 202 420 211 424 Q 256 442 304 433 Q 352 424 389 388 Q 425 351 434 304 Q 442 256 424 210 L 425 210 Z M 95 293 Q 98 296 102 297 L 159 302 L 164 358 Q 164 362 167 365 Q 172 370 178 368 Q 184 367 187 360 L 217 263 Q 219 254 213 248 Q 207 242 198 244 L 100 273 Q 93 276 92 282 Q 90 288 95 293 L 95 293 Z M 273 100 L 244 197 Q 241 207 247 213 Q 253 219 263 216 L 360 187 Q 367 184 368 178 Q 370 172 365 167 Q 362 164 358 164 L 302 158 L 296 102 Q 296 98 293 95 Q 288 90 282 92 Q 276 93 273 100 L 273 100 Z"/>
</svg>
