<svg xmlns="http://www.w3.org/2000/svg" viewBox="0 0 448 428">
    <path d="M 128 0 Q 114 0 105 9 L 105 9 Q 96 18 96 32 L 96 64 L 48 64 Q 28 65 14 78 Q 1 92 0 112 L 0 192 L 448 192 L 448 112 Q 447 92 434 78 Q 420 65 400 64 L 352 64 L 352 32 Q 352 18 343 9 Q 334 0 320 0 Q 306 0 297 9 Q 288 18 288 32 L 288 64 L 160 64 L 160 32 Q 160 18 151 9 Q 142 0 128 0 L 128 0 Z M 233 251 Q 230 245 224 245 L 224 245 Q 218 245 215 251 L 191 299 L 138 306 Q 132 308 130 313 Q 128 319 132 324 L 171 361 L 162 414 Q 161 420 166 424 Q 171 428 177 425 L 224 400 L 271 425 Q 277 428 282 424 Q 287 420 286 414 L 277 361 L 316 324 Q 320 319 318 313 Q 316 308 310 306 L 257 299 L 233 251 L 233 251 Z"/>
</svg>
