<svg xmlns="http://www.w3.org/2000/svg" viewBox="0 0 446 400">
    <path d="M 213 8 Q 200 20 180 43 L 180 43 Q 160 66 144 96 L 144 96 Q 128 127 127 159 Q 127 183 137 203 Q 113 202 90 215 Q 62 232 44 261 Q 26 290 16 319 Q 5 348 2 366 Q 0 378 12 383 Q 29 388 59 394 Q 89 400 123 398 Q 157 397 186 382 Q 211 367 223 342 Q 235 367 260 382 Q 289 397 323 398 Q 357 400 387 394 Q 417 388 434 383 Q 446 378 444 366 Q 441 348 430 319 Q 420 290 402 261 Q 384 232 356 215 Q 333 202 309 202 Q 319 183 319 159 Q 318 127 302 96 Q 286 66 266 43 Q 246 20 233 8 Q 223 0 213 8 L 213 8 Z M 223 199 Q 246 200 258 219 Q 268 239 258 259 Q 246 278 223 279 Q 200 278 188 259 Q 178 239 188 219 Q 200 200 223 199 L 223 199 Z"/>
</svg>
