<svg xmlns="http://www.w3.org/2000/svg" viewBox="0 0 448 512">
    <path d="M 96 0 Q 55 1 28 28 L 28 28 Q 1 55 0 96 L 0 416 Q 1 457 28 484 Q 55 511 96 512 L 384 512 L 416 512 Q 430 512 439 503 Q 448 494 448 480 Q 448 466 439 457 Q 430 448 416 448 L 352 448 L 256 448 L 96 448 Q 82 448 73 439 Q 64 430 64 416 Q 64 402 73 393 Q 82 384 96 384 L 256 384 L 352 384 L 416 384 Q 430 384 439 375 Q 448 366 448 352 L 448 32 Q 448 18 439 9 Q 430 0 416 0 L 384 0 L 96 0 L 96 0 Z M 154 182 Q 160 186 166 182 Q 170 176 166 170 L 139 144 Q 152 118 175 101 Q 180 100 180 106 Q 168 142 193 171 Q 198 177 194 184 Q 179 206 186 233 Q 197 263 228 271 L 230 238 L 219 245 Q 218 246 217 246 Q 216 246 214 245 Q 213 243 213 242 Q 213 241 214 240 L 222 226 L 204 222 Q 201 221 201 218 Q 201 215 204 214 L 222 210 L 214 196 Q 212 193 214 191 Q 217 189 219 190 L 231 199 L 236 88 Q 237 84 240 84 Q 244 84 244 88 L 249 200 L 263 191 Q 264 190 265 190 Q 265 190 265 190 L 265 190 Q 267 190 269 192 Q 270 194 269 196 L 260 210 L 278 214 Q 281 215 281 218 Q 281 221 278 222 L 260 225 L 269 240 Q 270 242 269 244 Q 267 246 265 246 Q 264 246 263 245 L 250 236 L 252 271 Q 283 263 294 232 Q 301 206 286 184 Q 282 177 287 171 Q 312 142 300 106 Q 299 100 305 101 Q 328 118 341 144 L 314 170 Q 310 176 314 181 Q 320 186 326 181 L 347 160 Q 352 175 352 192 Q 352 192 352 193 Q 352 193 352 193 Q 352 193 352 194 L 315 226 Q 312 229 312 232 Q 312 235 314 237 Q 317 240 320 240 Q 323 240 325 238 L 349 217 Q 339 255 310 279 Q 281 303 240 304 Q 199 303 170 279 Q 141 255 131 217 L 155 238 Q 157 240 160 240 Q 165 240 168 235 Q 169 230 165 226 L 128 194 Q 128 193 128 193 Q 128 192 128 192 Q 128 192 128 192 Q 128 175 133 160 L 154 181 L 154 182 Z"/>
</svg>
