<svg xmlns="http://www.w3.org/2000/svg" viewBox="0 0 352 512">
    <path d="M 160 160 L 32 160 Q 18 160 9 151 Q 0 142 0 128 L 0 0 L 160 160 L 160 160 Z M 64 368 Q 64 329 83 296 L 83 296 Q 102 263 136 243 Q 170 224 208 224 Q 246 224 280 243 Q 314 263 333 296 Q 352 329 352 368 Q 352 407 333 440 Q 314 473 280 493 Q 246 512 208 512 Q 170 512 136 493 Q 102 473 83 440 Q 64 407 64 368 L 64 368 Z M 288 368 Q 287 353 272 352 L 144 352 Q 129 353 128 368 Q 129 383 144 384 L 272 384 Q 287 383 288 368 L 288 368 Z"/>
</svg>
