<svg xmlns="http://www.w3.org/2000/svg" viewBox="0 0 583 360">
    <path d="M 293 16 Q 287 3 274 1 Q 261 0 252 10 L 12 314 Q 0 333 16 348 Q 35 360 50 344 L 129 243 L 172 260 L 132 315 Q 120 334 137 348 Q 156 360 171 343 L 222 273 L 297 273 L 267 315 Q 257 334 273 349 Q 293 360 307 343 L 355 273 L 435 273 L 474 341 Q 487 359 507 350 Q 525 337 516 317 L 491 273 L 503 273 Q 537 272 560 250 Q 582 227 583 193 Q 582 159 560 136 Q 537 114 503 113 L 439 113 L 397 16 Q 391 3 378 1 Q 364 0 356 11 L 315 66 L 293 16 L 293 16 Z M 387 113 L 340 113 L 370 73 L 387 113 L 387 113 Z M 280 113 L 232 113 L 265 72 L 282 111 L 280 113 L 280 113 Z M 134 113 L 96 113 Q 72 114 56 130 Q 40 146 39 170 Q 39 194 56 210 L 134 113 L 134 113 Z M 487 193 Q 488 178 503 177 Q 518 178 519 193 Q 518 208 503 209 Q 488 208 487 193 L 487 193 Z"/>
</svg>
