<svg xmlns="http://www.w3.org/2000/svg" viewBox="0 0 475 384">
    <path d="M 475 288 L 464 288 Q 416 287 385 255 Q 353 224 352 176 L 352 143 Q 322 139 309 110 Q 296 76 319 50 Q 313 28 296 14 Q 279 0 256 0 Q 226 1 208 22 Q 191 8 168 8 Q 145 8 128 22 Q 111 35 106 57 Q 101 56 96 56 Q 69 57 51 75 Q 33 93 32 120 Q 32 128 34 136 Q 2 153 0 192 Q 2 231 34 249 Q 32 256 32 264 Q 33 291 51 309 Q 69 327 96 328 Q 101 328 106 327 Q 111 349 128 362 Q 145 376 168 376 Q 191 376 208 362 Q 226 383 256 384 Q 286 383 304 362 Q 321 376 344 376 Q 367 376 384 362 Q 401 349 406 327 Q 411 328 416 328 Q 436 328 452 317 Q 468 306 475 288 L 475 288 Z"/>
</svg>
