<svg xmlns="http://www.w3.org/2000/svg" viewBox="0 0 454 510">
    <path d="M 149 19 L 305 0 Q 321 0 323 16 L 323 62 Q 322 76 307 78 L 153 78 Q 140 77 132 69 Q 123 61 123 48 Q 125 23 149 18 L 149 19 Z M 85 288 Q 99 265 121 248 L 302 508 Q 297 510 291 510 L 163 510 Q 149 509 140 500 Q 131 491 131 478 L 131 367 L 77 458 Q 68 472 53 476 Q 38 480 23 472 Q 8 463 4 447 Q 0 432 9 417 L 85 288 L 85 288 Z M 323 478 Q 323 479 323 481 L 323 481 Q 323 481 323 481 L 149 233 Q 174 222 202 222 L 252 222 Q 289 222 320 239 Q 350 257 369 288 L 445 417 Q 454 432 450 447 Q 446 463 431 472 Q 416 480 401 476 Q 386 472 377 458 L 323 367 L 323 478 L 323 478 Z M 267 318 Q 289 316 291 294 Q 289 272 267 270 Q 245 272 243 294 Q 245 316 267 318 L 267 318 Z"/>
</svg>
