<svg xmlns="http://www.w3.org/2000/svg" viewBox="0 0 576 512">
    <path d="M 368 0 Q 310 0 269 37 Q 251 54 241 72 Q 230 90 225 104 Q 219 116 215 126 Q 214 128 213 131 Q 213 131 213 131 Q 206 149 200 161 Q 193 173 183 183 Q 160 206 133 220 Q 119 227 106 234 Q 73 249 42 272 Q 3 302 0 360 Q 1 402 20 429 Q 40 456 65 471 Q 91 487 110 493 Q 143 504 178 508 Q 212 512 240 512 Q 302 511 359 491 Q 417 470 463 436 Q 508 403 541 353 Q 574 303 576 240 Q 576 194 560 153 Q 544 112 519 80 Q 494 48 455 25 Q 417 1 368 0 L 368 0 Z M 236 448 Q 201 448 161 441 L 161 441 Q 121 434 93 417 L 93 417 Q 65 400 64 370 Q 64 348 78 337 Q 92 327 116 318 Q 139 308 170 291 Q 201 273 236 239 Q 257 217 269 193 Q 282 168 291 145 Q 291 145 291 145 Q 303 111 320 88 Q 337 65 374 64 Q 409 65 441 90 Q 472 115 492 155 Q 511 194 512 239 Q 511 292 470 339 Q 430 387 368 417 Q 305 447 236 448 L 236 448 Z"/>
</svg>
