<svg xmlns="http://www.w3.org/2000/svg" viewBox="0 0 320 288">
    <path d="M 80 128 Q 46 127 23 105 L 23 105 Q 1 82 0 48 Q 1 28 14 14 Q 28 1 48 0 L 80 0 Q 114 1 137 23 Q 159 46 160 80 Q 161 46 183 23 Q 206 1 240 0 L 272 0 Q 292 1 306 14 Q 319 28 320 48 Q 319 82 297 105 Q 274 127 240 128 L 227 128 Q 232 138 232 149 Q 232 155 230 160 Q 255 163 271 181 Q 287 199 288 224 Q 287 251 269 269 Q 251 287 224 288 L 96 288 Q 69 287 51 269 Q 33 251 32 224 Q 33 199 49 181 Q 65 163 90 160 Q 88 155 88 149 Q 88 138 93 128 L 80 128 L 80 128 Z M 32 48 Q 33 68 46 82 L 46 82 Q 60 95 80 96 L 112 96 Q 127 95 128 80 Q 127 60 114 46 Q 100 33 80 32 L 48 32 Q 33 33 32 48 L 32 48 Z M 120 149 Q 121 159 131 160 L 143 160 L 149 160 L 149 160 L 171 160 L 171 160 L 177 160 L 189 160 Q 199 159 200 149 Q 200 144 197 141 L 189 133 L 184 129 L 184 128 L 174 118 Q 168 112 160 112 Q 152 112 146 118 L 136 128 L 136 128 L 131 133 L 123 141 Q 120 144 120 149 L 120 149 Z M 131 192 L 96 192 Q 82 192 73 201 Q 64 210 64 224 Q 64 238 73 247 Q 82 256 96 256 L 224 256 Q 238 256 247 247 Q 256 238 256 224 Q 256 210 247 201 Q 238 192 224 192 L 189 192 L 131 192 L 131 192 Z M 272 32 L 240 32 Q 220 33 206 46 Q 193 60 192 80 Q 193 95 208 96 L 240 96 Q 260 95 274 82 Q 287 68 288 48 Q 287 33 272 32 L 272 32 Z"/>
</svg>
