<svg xmlns="http://www.w3.org/2000/svg" viewBox="0 0 634 512">
    <path d="M 321 319 Q 321 319 321 319 L 321 319 Q 321 319 321 319 L 241 399 Q 231 388 232 374 L 147 459 Q 142 464 136 464 Q 121 463 120 448 L 120 324 L 110 319 Q 96 312 82 319 L 72 324 L 72 448 Q 73 475 91 493 Q 109 511 136 512 Q 162 512 181 493 L 266 408 Q 269 408 271 407 L 615 327 Q 627 324 634 314 L 480 160 L 631 9 Q 622 0 608 0 L 344 0 Q 334 0 326 6 L 480 160 L 321 319 L 321 319 Z M 24 128 Q 2 130 0 152 Q 2 174 24 176 L 32 176 Q 49 176 60 188 Q 72 199 72 216 L 72 284 L 82 289 Q 96 296 110 289 L 120 284 L 120 216 Q 119 179 94 154 Q 69 129 32 128 L 24 128 L 24 128 Z"/>
</svg>
