<svg xmlns="http://www.w3.org/2000/svg" viewBox="0 0 640 480">
    <path d="M 599 135 Q 608 125 608 112 L 608 112 Q 608 99 599 89 L 519 9 Q 509 0 496 0 Q 483 0 473 9 L 393 89 Q 384 99 384 112 Q 384 125 393 135 Q 403 144 416 144 Q 429 144 439 135 L 464 109 L 464 352 Q 464 366 473 375 Q 482 384 496 384 Q 510 384 519 375 Q 528 366 528 352 L 528 109 L 553 135 Q 563 144 576 144 Q 589 144 599 135 L 599 135 Z M 32 416 Q 18 416 9 425 L 9 425 Q 0 434 0 448 Q 0 462 9 471 Q 18 480 32 480 L 608 480 Q 622 480 631 471 Q 640 462 640 448 Q 640 434 631 425 Q 622 416 608 416 L 32 416 L 32 416 Z"/>
</svg>
