<svg xmlns="http://www.w3.org/2000/svg" viewBox="0 0 576 512">
    <path d="M 403 403 Q 344 462 256 464 Q 168 462 109 403 Q 50 344 48 256 Q 50 168 109 109 Q 168 50 256 48 Q 344 50 403 109 L 414 98 Q 424 88 424 75 Q 423 63 413 54 Q 346 2 256 0 Q 184 1 127 35 Q 69 69 35 127 Q 1 184 0 256 Q 1 328 35 385 Q 69 443 127 477 Q 184 511 256 512 Q 346 510 413 458 Q 423 449 424 437 Q 424 424 414 414 L 403 403 L 403 403 Z M 479 391 L 489 401 Q 499 410 512 410 Q 525 409 533 398 Q 575 336 576 256 Q 575 176 533 115 Q 525 103 512 102 Q 499 102 489 112 L 479 121 Q 526 177 528 256 Q 526 335 479 391 L 479 391 Z M 192 128 Q 192 114 201 105 L 201 105 Q 210 96 224 96 Q 238 96 247 105 Q 256 114 256 128 Q 256 142 247 151 Q 238 160 224 160 Q 210 160 201 151 Q 192 142 192 128 L 192 128 Z M 128 256 Q 128 242 137 233 L 137 233 Q 146 224 160 224 Q 174 224 183 233 Q 192 242 192 256 Q 192 270 183 279 Q 174 288 160 288 Q 146 288 137 279 Q 128 270 128 256 L 128 256 Z M 256 416 Q 270 416 279 407 L 279 407 Q 288 398 288 384 Q 288 370 279 361 Q 270 352 256 352 Q 242 352 233 361 Q 224 370 224 384 Q 224 398 233 407 Q 242 416 256 416 L 256 416 Z M 416 256 Q 416 242 425 233 L 425 233 Q 434 224 448 224 Q 462 224 471 233 Q 480 242 480 256 Q 480 270 471 279 Q 462 288 448 288 Q 434 288 425 279 Q 416 270 416 256 L 416 256 Z"/>
</svg>
