<svg xmlns="http://www.w3.org/2000/svg" viewBox="0 0 515 512">
    <path d="M 393 73 Q 403 64 416 64 L 416 64 Q 429 64 439 73 Q 454 91 444 112 Q 437 124 441 136 Q 444 149 456 156 Q 467 162 480 159 Q 492 156 499 144 Q 515 116 511 84 Q 508 53 484 28 Q 454 0 416 0 Q 378 0 348 28 Q 329 48 323 73 Q 317 98 324 123 Q 326 132 326 138 Q 326 141 325 141 Q 325 141 325 141 L 294 172 L 340 218 L 371 187 Q 389 166 390 143 Q 391 122 385 105 Q 381 88 393 73 L 393 73 Z M 242 316 L 196 270 L 166 300 L 212 346 L 242 316 L 242 316 Z M 114 444 L 68 398 L 9 457 Q 0 467 0 480 Q 0 493 9 503 Q 19 512 32 512 Q 45 512 55 503 L 114 444 L 114 444 Z M 325 142 Q 325 141 325 141 Q 325 141 325 141 Q 325 141 325 141 Q 325 142 325 142 L 325 142 Z"/>
</svg>
