<svg xmlns="http://www.w3.org/2000/svg" viewBox="0 0 448 455">
    <path d="M 16 0 L 48 0 Q 63 1 64 16 L 64 48 Q 63 63 48 64 L 16 64 Q 1 63 0 48 L 0 16 Q 1 1 16 0 L 16 0 Z M 90 303 Q 96 289 112 288 L 336 288 Q 352 289 358 303 Q 364 317 353 329 L 241 441 Q 224 455 207 441 L 95 329 Q 84 317 90 303 L 90 303 Z M 0 112 Q 1 97 16 96 L 48 96 Q 63 97 64 112 L 64 144 Q 63 159 48 160 L 16 160 Q 1 159 0 144 L 0 112 L 0 112 Z M 400 96 L 432 96 Q 447 97 448 112 L 448 144 Q 447 159 432 160 L 400 160 Q 385 159 384 144 L 384 112 Q 385 97 400 96 L 400 96 Z M 96 16 Q 97 1 112 0 L 144 0 Q 159 1 160 16 L 160 48 Q 159 63 144 64 L 112 64 Q 97 63 96 48 L 96 16 L 96 16 Z M 208 0 L 240 0 Q 255 1 256 16 L 256 48 Q 255 63 240 64 L 208 64 Q 193 63 192 48 L 192 16 Q 193 1 208 0 L 208 0 Z M 288 16 Q 289 1 304 0 L 336 0 Q 351 1 352 16 L 352 48 Q 351 63 336 64 L 304 64 Q 289 63 288 48 L 288 16 L 288 16 Z M 400 0 L 432 0 Q 447 1 448 16 L 448 48 Q 447 63 432 64 L 400 64 Q 385 63 384 48 L 384 16 Q 385 1 400 0 L 400 0 Z"/>
</svg>
