<svg xmlns="http://www.w3.org/2000/svg" viewBox="0 0 600 521">
    <path d="M 172 73 Q 171 37 140 18 Q 108 0 76 18 Q 45 37 44 73 Q 45 109 76 128 Q 108 146 140 128 Q 171 109 172 73 L 172 73 Z M 6 242 L 2 292 Q 0 314 12 332 Q 24 350 44 357 L 44 473 Q 45 493 58 507 Q 72 520 92 521 L 124 521 Q 144 520 158 507 Q 171 493 172 473 L 172 357 Q 172 357 173 357 Q 173 357 174 357 L 147 330 Q 133 313 147 296 L 209 234 Q 203 205 182 188 Q 160 170 130 169 L 86 169 Q 54 170 31 190 Q 9 211 6 242 L 6 242 Z M 426 357 Q 427 357 427 357 L 427 357 Q 428 357 428 357 L 428 473 Q 429 493 442 507 Q 456 520 476 521 L 508 521 Q 528 520 542 507 Q 555 493 556 473 L 556 357 Q 576 350 588 332 Q 600 314 598 292 L 594 242 Q 591 211 569 190 Q 546 170 514 169 L 470 169 Q 440 170 418 188 Q 397 205 391 234 L 453 296 Q 467 313 453 330 L 426 357 L 426 357 Z M 556 73 Q 555 37 524 18 Q 492 0 460 18 Q 429 37 428 73 Q 429 109 460 128 Q 492 146 524 128 Q 555 109 556 73 L 556 73 Z"/>
</svg>
