<svg xmlns="http://www.w3.org/2000/svg" viewBox="0 0 448 448">
    <path d="M 96 16 Q 97 1 112 0 L 144 0 Q 159 1 160 16 L 160 48 Q 159 63 144 64 L 112 64 Q 97 63 96 48 L 96 16 L 96 16 Z M 16 96 L 48 96 Q 63 97 64 112 L 64 144 Q 63 159 48 160 L 16 160 Q 1 159 0 144 L 0 112 Q 1 97 16 96 L 16 96 Z M 16 288 L 48 288 Q 63 289 64 304 L 64 336 Q 63 351 48 352 L 16 352 Q 1 351 0 336 L 0 304 Q 1 289 16 288 L 16 288 Z M 112 192 L 144 192 Q 159 193 160 208 L 160 240 Q 159 255 144 256 L 112 256 Q 97 255 96 240 L 96 208 Q 97 193 112 192 L 112 192 Z M 96 400 Q 97 385 112 384 L 144 384 Q 159 385 160 400 L 160 432 Q 159 447 144 448 L 112 448 Q 97 447 96 432 L 96 400 L 96 400 Z M 208 96 L 240 96 Q 255 97 256 112 L 256 144 Q 255 159 240 160 L 208 160 Q 193 159 192 144 L 192 112 Q 193 97 208 96 L 208 96 Z M 192 304 Q 193 289 208 288 L 240 288 Q 255 289 256 304 L 256 336 Q 255 351 240 352 L 208 352 Q 193 351 192 336 L 192 304 L 192 304 Z M 304 0 L 336 0 Q 351 1 352 16 L 352 48 Q 351 63 336 64 L 304 64 Q 289 63 288 48 L 288 16 Q 289 1 304 0 L 304 0 Z M 288 208 Q 289 193 304 192 L 336 192 Q 351 193 352 208 L 352 240 Q 351 255 336 256 L 304 256 Q 289 255 288 240 L 288 208 L 288 208 Z M 304 384 L 336 384 Q 351 385 352 400 L 352 432 Q 351 447 336 448 L 304 448 Q 289 447 288 432 L 288 400 Q 289 385 304 384 L 304 384 Z M 384 112 Q 385 97 400 96 L 432 96 Q 447 97 448 112 L 448 144 Q 447 159 432 160 L 400 160 Q 385 159 384 144 L 384 112 L 384 112 Z M 400 288 L 432 288 Q 447 289 448 304 L 448 336 Q 447 351 432 352 L 400 352 Q 385 351 384 336 L 384 304 Q 385 289 400 288 L 400 288 Z"/>
</svg>
