<svg xmlns="http://www.w3.org/2000/svg" viewBox="0 0 576 512">
    <path d="M 48 56 Q 49 49 56 48 L 136 48 Q 158 46 160 24 Q 158 2 136 0 L 56 0 Q 32 1 16 16 Q 1 32 0 56 L 0 136 Q 2 158 24 160 Q 46 158 48 136 L 48 56 L 48 56 Z M 528 56 L 528 136 Q 530 158 552 160 Q 574 158 576 136 L 576 56 Q 575 32 560 16 Q 544 1 520 0 L 440 0 Q 418 2 416 24 Q 418 46 440 48 L 520 48 Q 527 49 528 56 L 528 56 Z M 56 464 Q 49 463 48 456 L 48 376 Q 46 354 24 352 Q 2 354 0 376 L 0 456 Q 1 480 16 496 Q 32 511 56 512 L 136 512 Q 158 510 160 488 Q 158 466 136 464 L 56 464 L 56 464 Z M 528 456 Q 527 463 520 464 L 440 464 Q 418 466 416 488 Q 418 510 440 512 L 520 512 Q 544 511 560 496 Q 575 480 576 456 L 576 376 Q 574 354 552 352 Q 530 354 528 376 L 528 456 L 528 456 Z"/>
</svg>
