<svg xmlns="http://www.w3.org/2000/svg" viewBox="0 0 576 416">
    <path d="M 255 0 L 166 64 L 64 64 Q 37 65 19 83 Q 1 101 0 128 L 0 352 Q 1 379 19 397 Q 37 415 64 416 L 240 416 L 240 304 Q 241 284 254 270 Q 268 257 288 256 Q 308 257 322 270 Q 335 284 336 304 L 336 416 L 512 416 Q 539 415 557 397 Q 575 379 576 352 L 576 128 Q 575 101 557 83 Q 539 65 512 64 L 410 64 L 321 0 L 255 0 L 255 0 Z M 288 96 Q 315 97 330 120 Q 342 144 330 168 Q 315 191 288 192 Q 261 191 246 168 Q 234 144 246 120 Q 261 97 288 96 L 288 96 Z M 64 144 Q 65 129 80 128 L 112 128 Q 127 129 128 144 L 128 208 Q 127 223 112 224 L 80 224 Q 65 223 64 208 L 64 144 L 64 144 Z M 464 128 L 496 128 Q 511 129 512 144 L 512 208 Q 511 223 496 224 L 464 224 Q 449 223 448 208 L 448 144 Q 449 129 464 128 L 464 128 Z M 64 272 Q 65 257 80 256 L 112 256 Q 127 257 128 272 L 128 336 Q 127 351 112 352 L 80 352 Q 65 351 64 336 L 64 272 L 64 272 Z M 448 272 Q 449 257 464 256 L 496 256 Q 511 257 512 272 L 512 336 Q 511 351 496 352 L 464 352 Q 449 351 448 336 L 448 272 L 448 272 Z"/>
</svg>
