<svg xmlns="http://www.w3.org/2000/svg" viewBox="0 0 576 304">
    <path d="M 60 71 L 288 0 L 516 71 L 288 142 L 60 71 L 60 71 Z M 0 180 L 53 197 Q 66 202 63 217 Q 58 230 43 227 L 0 214 L 0 180 L 0 180 Z M 576 214 L 533 227 Q 518 230 513 217 Q 510 202 523 197 L 576 180 L 576 214 L 576 214 Z M 97 227 Q 102 214 117 217 L 181 237 Q 194 242 191 257 Q 186 270 171 267 L 107 247 Q 94 242 97 227 L 97 227 Z M 479 227 Q 482 242 469 247 L 405 267 Q 390 270 385 257 Q 382 242 395 237 L 459 217 Q 474 214 479 227 L 479 227 Z M 225 267 Q 230 254 245 257 L 283 269 Q 288 270 293 269 L 331 257 Q 346 254 351 267 Q 354 282 341 287 L 302 299 Q 288 304 274 299 L 235 287 Q 222 282 225 267 L 225 267 Z"/>
</svg>
