<svg xmlns="http://www.w3.org/2000/svg" viewBox="0 0 640 352">
    <path d="M 32 64 Q 33 37 51 19 L 51 19 Q 69 1 96 0 L 320 0 Q 357 2 375 32 L 427 32 Q 468 34 486 70 L 539 189 Q 539 190 540 192 L 544 192 Q 571 193 589 211 Q 607 229 608 256 L 608 288 Q 622 288 631 297 Q 640 306 640 320 Q 640 334 631 343 Q 622 352 608 352 L 575 352 Q 568 310 538 284 Q 507 257 464 256 Q 421 257 390 284 Q 360 310 353 352 L 287 352 Q 280 310 250 284 Q 219 257 176 256 Q 133 257 102 284 Q 72 310 65 352 L 32 352 Q 18 352 9 343 Q 0 334 0 320 Q 0 306 9 297 Q 18 288 32 288 L 32 256 Q 18 256 9 247 Q 0 238 0 224 L 0 128 Q 0 114 9 105 Q 18 96 32 96 L 32 64 L 32 64 Z M 384 192 L 470 192 L 427 96 L 384 96 L 384 192 L 384 192 Z"/>
</svg>
