<svg xmlns="http://www.w3.org/2000/svg" viewBox="0 0 576 384">
    <path d="M 158 44 Q 151 47 147 43 L 147 43 Q 143 39 147 34 Q 162 16 180 3 Q 179 3 178 3 Q 165 0 152 0 Q 87 2 45 56 Q 2 110 0 192 Q 2 274 45 328 Q 87 382 152 384 Q 181 384 207 371 Q 220 365 233 371 Q 259 384 288 384 Q 317 384 343 371 Q 356 365 369 371 Q 395 384 424 384 Q 488 382 531 328 Q 574 274 576 192 Q 574 110 531 56 Q 488 2 424 0 Q 410 0 398 3 Q 397 3 396 3 Q 414 16 429 34 Q 432 39 428 43 Q 424 47 418 44 Q 360 9 288 8 Q 216 9 158 44 L 158 44 Z"/>
</svg>
