<svg xmlns="http://www.w3.org/2000/svg" viewBox="0 0 484 352">
    <path d="M 6 73 Q 9 42 31 21 L 31 21 Q 54 1 86 0 L 130 0 Q 162 1 185 21 Q 207 42 210 73 L 214 123 Q 216 145 204 163 Q 192 181 172 188 L 172 304 Q 171 324 158 338 Q 144 351 124 352 L 92 352 Q 72 351 58 338 Q 45 324 44 304 L 44 188 Q 24 181 12 163 Q 0 145 2 123 L 6 73 L 6 73 Z M 287 47 Q 293 26 310 13 L 310 13 Q 326 0 348 0 L 380 0 Q 402 0 418 13 Q 435 26 441 47 L 480 183 Q 484 199 475 211 Q 466 223 450 224 L 428 224 L 428 304 Q 427 324 414 338 Q 400 352 380 352 L 348 352 Q 328 352 314 338 Q 301 324 300 304 L 300 224 L 278 224 Q 262 223 253 211 Q 244 199 248 183 L 287 46 L 287 47 Z"/>
</svg>
