<svg xmlns="http://www.w3.org/2000/svg" viewBox="0 0 304 512">
    <path d="M 162 96 Q 189 95 204 72 Q 216 48 204 24 Q 189 1 162 0 Q 135 1 120 24 Q 108 48 120 72 Q 135 95 162 96 L 162 96 Z M 154 480 L 154 352 L 170 352 L 170 480 Q 170 494 179 503 Q 188 512 202 512 Q 216 512 225 503 Q 234 494 234 480 L 234 257 L 263 304 Q 265 308 268 311 Q 280 276 304 249 L 259 174 Q 246 153 224 140 Q 203 128 177 128 L 147 128 Q 121 128 100 140 Q 78 153 65 174 L 7 272 Q 0 283 3 296 Q 6 308 17 315 Q 29 322 42 319 Q 54 316 61 305 L 90 257 L 90 480 Q 90 494 99 503 Q 108 512 122 512 Q 136 512 145 503 Q 154 494 154 480 L 154 480 Z"/>
</svg>
