<svg xmlns="http://www.w3.org/2000/svg" viewBox="0 0 512 370">
    <path d="M 448 0 L 362 0 L 361 1 L 234 128 L 326 128 L 327 127 L 454 0 Q 451 0 448 0 L 448 0 Z M 512 128 L 512 64 Q 512 41 498 24 L 394 128 L 512 128 L 512 128 Z M 294 0 L 202 0 L 201 1 L 74 128 L 166 128 L 167 127 L 294 0 L 294 0 Z M 64 0 Q 37 1 19 19 L 19 19 Q 1 37 0 64 L 0 128 L 6 128 L 7 127 L 134 0 L 64 0 L 64 0 Z M 217 210 Q 208 215 208 224 L 208 352 Q 208 361 217 366 Q 225 370 233 365 L 329 301 Q 336 296 336 288 Q 336 280 329 275 L 233 211 Q 225 206 217 210 L 217 210 Z"/>
</svg>
