<svg xmlns="http://www.w3.org/2000/svg" viewBox="0 0 492 492">
    <path d="M 145 84 Q 145 65 150 45 L 153 31 Q 155 20 147 12 Q 133 0 118 12 L 110 20 Q 73 58 60 106 Q 48 155 60 203 Q 89 233 129 246 Q 118 215 118 182 Q 119 128 145 84 L 145 84 Z M 84 347 Q 65 347 45 343 L 31 339 Q 20 337 12 345 Q 0 359 12 374 L 20 382 Q 58 419 106 432 Q 155 444 203 432 Q 233 403 246 363 Q 216 374 182 374 Q 128 373 84 347 L 84 347 Z M 347 408 Q 347 427 343 447 L 339 461 Q 337 472 345 480 Q 359 492 374 480 L 382 472 Q 419 434 432 386 Q 444 337 432 289 Q 403 259 363 246 Q 374 276 374 310 Q 373 364 347 408 L 347 408 Z M 408 145 Q 427 145 447 149 L 461 153 Q 472 155 480 147 Q 492 133 480 118 L 472 110 Q 434 73 386 60 Q 337 48 289 60 Q 259 89 247 129 Q 277 118 310 118 Q 364 119 408 145 L 408 145 Z"/>
</svg>
