<svg xmlns="http://www.w3.org/2000/svg" viewBox="0 0 448 448">
    <path d="M 358 403 Q 301 447 224 448 Q 147 447 90 403 L 55 439 Q 45 448 32 448 Q 19 448 9 439 Q 0 429 0 416 Q 0 403 9 393 L 45 358 Q 1 301 0 224 Q 1 161 31 111 Q 60 60 111 31 Q 161 1 224 0 Q 287 1 337 31 Q 388 60 417 111 Q 447 161 448 224 Q 447 301 403 358 L 439 393 Q 448 403 448 416 Q 448 429 439 439 Q 429 448 416 448 Q 403 448 393 439 L 358 404 L 358 403 Z M 224 112 Q 202 114 200 136 L 200 200 L 136 200 Q 114 202 112 224 Q 114 246 136 248 L 200 248 L 200 312 Q 202 334 224 336 Q 246 334 248 312 L 248 248 L 312 248 Q 334 246 336 224 Q 334 202 312 200 L 248 200 L 248 136 Q 246 114 224 112 L 224 112 Z"/>
</svg>
