<svg xmlns="http://www.w3.org/2000/svg" viewBox="0 0 512 384">
    <path d="M 112 93 Q 167 66 256 64 Q 345 66 400 93 Q 427 108 438 121 Q 448 135 448 144 Q 448 153 438 167 Q 427 180 400 195 Q 345 223 256 224 Q 167 223 112 195 Q 85 180 74 167 Q 64 153 64 144 Q 64 135 74 121 Q 85 108 112 93 L 112 93 Z M 83 36 Q 49 53 25 80 L 25 80 Q 1 107 0 144 L 0 240 Q 1 277 25 304 Q 49 331 83 348 Q 155 383 256 384 Q 357 383 429 348 Q 463 331 487 304 Q 511 277 512 240 L 512 144 Q 511 107 487 80 Q 463 53 429 36 Q 357 1 256 0 Q 155 1 83 36 L 83 36 Z"/>
</svg>
