<svg xmlns="http://www.w3.org/2000/svg" viewBox="0 0 320 336">
    <path d="M 315 102 Q 320 117 309 127 L 286 147 Q 288 157 288 168 Q 288 179 286 189 L 309 209 Q 320 219 315 234 Q 311 242 307 249 L 304 255 Q 299 262 294 269 Q 284 281 270 276 L 241 267 Q 225 280 205 288 L 199 317 Q 195 332 181 335 Q 170 336 160 336 Q 150 336 140 335 Q 125 332 121 317 L 115 288 Q 95 280 79 267 L 51 276 Q 36 281 26 269 Q 21 262 16 255 L 13 249 Q 9 242 5 234 Q 0 220 12 209 L 34 189 Q 32 179 32 168 Q 32 157 34 147 L 12 127 Q 0 117 5 102 Q 9 94 13 87 L 16 81 Q 20 74 26 67 Q 36 55 51 60 L 79 69 Q 95 56 115 48 L 121 19 Q 125 4 140 1 Q 150 0 160 0 Q 170 0 180 1 Q 195 4 199 19 L 205 48 Q 225 56 241 69 L 269 60 Q 284 55 294 67 Q 299 74 304 81 L 307 87 Q 311 94 315 102 L 315 102 Z M 160 216 Q 187 215 202 192 Q 214 168 202 144 Q 187 121 160 120 Q 133 121 118 144 Q 106 168 118 192 Q 133 215 160 216 L 160 216 Z"/>
</svg>
