<svg xmlns="http://www.w3.org/2000/svg" viewBox="0 0 640 512">
    <path d="M 440 24 Q 438 2 416 0 Q 394 2 392 24 L 392 104 Q 394 126 416 128 Q 438 126 440 104 L 440 24 L 440 24 Z M 281 39 Q 264 25 247 39 Q 233 56 247 73 L 303 129 Q 320 143 337 129 Q 351 112 337 95 L 281 39 L 281 39 Z M 585 73 Q 599 56 585 39 Q 568 25 551 39 L 495 95 Q 481 112 495 129 Q 512 143 529 129 L 585 73 L 585 73 Z M 576 320 Q 575 369 550 407 L 550 407 Q 526 445 484 465 L 490 488 Q 497 511 521 512 L 535 512 Q 559 511 566 488 L 576 448 Q 603 447 621 429 Q 639 411 640 384 L 640 256 Q 639 229 621 211 Q 603 193 576 192 L 512 192 Q 542 214 559 247 Q 576 280 576 320 L 576 320 Z M 160 448 L 320 448 Q 290 426 273 393 Q 256 360 256 320 Q 256 280 273 247 Q 290 214 320 192 L 64 192 Q 37 193 19 211 Q 1 229 0 256 L 0 384 Q 1 411 19 429 Q 37 447 64 448 L 74 488 Q 81 511 105 512 L 119 512 Q 143 511 150 488 L 160 448 L 160 448 Z M 64 320 Q 64 306 73 297 L 73 297 Q 82 288 96 288 Q 110 288 119 297 Q 128 306 128 320 Q 128 334 119 343 Q 110 352 96 352 Q 82 352 73 343 Q 64 334 64 320 L 64 320 Z M 192 288 Q 206 288 215 297 L 215 297 Q 224 306 224 320 Q 224 334 215 343 Q 206 352 192 352 Q 178 352 169 343 Q 160 334 160 320 Q 160 306 169 297 Q 178 288 192 288 L 192 288 Z"/>
</svg>
