<svg xmlns="http://www.w3.org/2000/svg" viewBox="0 0 448 448">
    <path d="M 64 0 L 128 0 L 128 104 Q 130 126 152 128 Q 174 126 176 104 L 176 0 L 384 0 Q 398 0 407 9 Q 416 18 416 32 Q 416 46 407 55 Q 398 64 384 64 Q 414 86 431 119 Q 448 152 448 192 L 0 192 Q 0 152 17 119 Q 34 86 64 64 Q 50 64 41 55 Q 32 46 32 32 Q 32 18 41 9 Q 50 0 64 0 L 64 0 Z M 26 320 L 423 320 Q 402 366 377 395 Q 352 424 335 437 Q 320 448 302 448 L 146 448 Q 128 448 113 437 Q 96 424 71 395 Q 46 366 26 320 L 26 320 Z"/>
</svg>
