<svg xmlns="http://www.w3.org/2000/svg" viewBox="0 0 256 256">
    <path d="M 128 256 Q 163 256 192 239 L 192 239 Q 221 222 239 192 Q 256 162 256 128 Q 256 94 239 64 Q 221 34 192 17 Q 163 0 128 0 Q 93 0 64 17 Q 35 34 17 64 Q 0 94 0 128 Q 0 162 17 192 Q 35 222 64 239 Q 93 256 128 256 L 128 256 Z M 48 128 Q 33 127 32 112 Q 33 97 48 96 Q 63 97 64 112 Q 63 127 48 128 L 48 128 Z M 128 208 Q 127 223 112 224 Q 97 223 96 208 Q 97 193 112 192 Q 127 193 128 208 L 128 208 Z M 128 144 Q 113 143 112 128 Q 113 113 128 112 Q 143 113 144 128 Q 143 143 128 144 L 128 144 Z M 224 144 Q 223 159 208 160 Q 193 159 192 144 Q 193 129 208 128 Q 223 129 224 144 L 224 144 Z M 144 64 Q 129 63 128 48 Q 129 33 144 32 Q 159 33 160 48 Q 159 63 144 64 L 144 64 Z"/>
</svg>
