<svg xmlns="http://www.w3.org/2000/svg" viewBox="0 0 512 448">
    <path d="M 512 384 Q 511 411 493 429 L 493 429 Q 475 447 448 448 L 64 448 Q 37 447 19 429 Q 1 411 0 384 L 0 64 Q 1 37 19 19 Q 37 1 64 0 L 192 0 Q 224 1 243 26 L 262 51 Q 272 64 288 64 L 448 64 Q 475 65 493 83 Q 511 101 512 128 L 512 384 L 512 384 Z M 280 328 L 280 226 L 311 257 Q 328 271 345 257 Q 359 240 345 223 L 273 151 Q 256 137 239 151 L 167 223 Q 153 240 167 257 Q 184 271 201 257 L 232 226 L 232 328 Q 234 350 256 352 Q 278 350 280 328 L 280 328 Z"/>
</svg>
