<svg xmlns="http://www.w3.org/2000/svg" viewBox="0 0 647 518">
    <path d="M 288 54 Q 287 27 264 12 Q 240 0 216 12 Q 193 27 192 54 Q 193 81 216 96 Q 240 108 264 96 Q 287 81 288 54 L 288 54 Z M 112 294 L 264 294 L 192 262 L 224 214 L 253 243 Q 272 262 299 262 L 312 262 L 360 198 L 304 198 L 242 142 Q 224 126 200 126 L 199 126 Q 161 127 142 160 L 107 227 Q 90 262 112 294 L 112 294 Z M 450 422 L 486 470 L 440 470 Q 418 472 416 494 Q 418 516 440 518 L 576 518 Q 586 518 593 511 L 633 471 Q 647 454 633 437 Q 616 423 599 437 L 566 470 L 546 470 L 500 409 L 480 422 L 450 422 L 450 422 Z M 0 470 Q 1 490 14 504 L 14 504 Q 28 517 48 518 L 272 518 Q 292 517 306 504 Q 319 490 320 470 Q 319 450 306 436 Q 292 423 272 422 L 48 422 Q 28 423 14 436 Q 1 450 0 470 L 0 470 Z"/>
</svg>
