<svg xmlns="http://www.w3.org/2000/svg" viewBox="0 0 448 272">
    <path d="M 256 127 Q 242 128 233 137 L 233 137 Q 224 146 224 160 L 224 192 Q 224 206 215 215 Q 206 224 192 224 Q 178 224 169 215 Q 160 206 160 192 L 160 140 Q 159 126 146 124 Q 130 124 128 140 L 128 240 Q 128 254 119 263 Q 110 272 96 272 Q 82 272 73 263 Q 64 254 64 240 L 64 133 Q 63 110 41 101 Q 1 85 0 64 Q 2 37 66 19 Q 129 1 224 0 Q 319 1 382 19 Q 446 37 448 64 Q 446 89 393 106 Q 339 124 256 127 L 256 127 Z M 176 32 Q 161 33 160 48 Q 161 63 176 64 L 272 64 Q 287 63 288 48 Q 287 33 272 32 L 176 32 L 176 32 Z"/>
</svg>
