<svg xmlns="http://www.w3.org/2000/svg" viewBox="0 0 416 416">
    <path d="M 208 416 Q 265 416 312 388 L 312 388 Q 359 361 388 312 Q 416 263 416 208 Q 416 153 388 104 Q 359 55 312 28 Q 265 0 208 0 Q 151 0 104 28 Q 57 55 28 104 Q 0 153 0 208 Q 0 263 28 312 Q 57 361 104 388 Q 151 416 208 416 L 208 416 Z M 184 296 L 184 232 L 120 232 Q 98 230 96 208 Q 98 186 120 184 L 184 184 L 184 120 Q 186 98 208 96 Q 230 98 232 120 L 232 184 L 296 184 Q 318 186 320 208 Q 318 230 296 232 L 232 232 L 232 296 Q 230 318 208 320 Q 186 318 184 296 L 184 296 Z"/>
</svg>
