<svg xmlns="http://www.w3.org/2000/svg" viewBox="0 0 263 263">
    <path d="M 128 48 Q 162 49 185 71 L 185 71 Q 207 94 208 128 Q 208 148 199 165 L 169 135 Q 152 121 135 135 Q 121 152 135 169 L 165 199 Q 148 208 128 208 Q 94 207 71 185 Q 49 162 48 128 Q 49 94 71 71 Q 94 49 128 48 L 128 48 Z M 234 200 Q 255 169 256 128 Q 255 74 219 37 Q 182 1 128 0 Q 74 1 37 37 Q 1 74 0 128 Q 1 182 37 219 Q 74 255 128 256 Q 169 255 200 234 L 215 249 Q 232 263 249 249 Q 263 232 249 215 L 234 200 L 234 200 Z"/>
</svg>
