<svg xmlns="http://www.w3.org/2000/svg" viewBox="0 0 384 416">
    <path d="M 32 0 Q 18 0 9 9 L 9 9 Q 0 18 0 32 L 0 64 Q 0 78 9 87 Q 18 96 32 96 L 352 96 Q 366 96 375 87 Q 384 78 384 64 L 384 32 Q 384 18 375 9 Q 366 0 352 0 L 32 0 L 32 0 Z M 144 192 L 32 192 L 32 224 L 144 224 Q 159 223 160 208 Q 159 193 144 192 L 144 192 Z M 144 288 L 32 288 L 32 320 L 144 320 Q 159 319 160 304 Q 159 289 144 288 L 144 288 Z M 144 384 L 32 384 L 32 416 L 144 416 Q 159 415 160 400 Q 159 385 144 384 L 144 384 Z"/>
</svg>
