<svg xmlns="http://www.w3.org/2000/svg" viewBox="0 0 334 448">
    <path d="M 0 408 L 137 329 Q 142 326 147 323 Q 161 309 165 290 Q 168 271 158 253 L 19 12 Q 34 0 54 0 L 278 0 Q 302 1 318 16 Q 333 32 334 56 L 334 392 Q 333 416 318 432 Q 302 447 278 448 L 54 448 Q 35 448 20 437 Q 6 426 0 408 L 0 408 Z M 276 124 Q 286 112 286 97 L 286 97 Q 285 82 274 72 Q 263 63 250 64 Q 237 65 227 75 L 222 80 L 217 75 Q 207 65 194 64 Q 181 63 170 72 Q 159 82 158 97 Q 157 112 168 124 L 216 174 Q 222 178 228 174 L 276 124 L 276 124 Z"/>
</svg>
