<svg xmlns="http://www.w3.org/2000/svg" viewBox="0 0 128 448">
    <path d="M 40 448 Q 23 448 12 436 L 12 436 Q 0 425 0 408 L 0 360 Q 0 343 12 332 Q 23 320 40 320 L 88 320 Q 105 320 116 332 Q 128 343 128 360 L 128 408 Q 128 425 116 436 Q 105 448 88 448 L 40 448 L 40 448 Z M 40 288 Q 23 288 12 276 L 12 276 Q 0 265 0 248 L 0 200 Q 0 183 12 172 Q 23 160 40 160 L 88 160 Q 105 160 116 172 Q 128 183 128 200 L 128 248 Q 128 265 116 276 Q 105 288 88 288 L 40 288 L 40 288 Z M 40 0 L 88 0 Q 105 0 116 12 Q 128 23 128 40 L 128 88 Q 128 105 116 116 Q 105 128 88 128 L 40 128 Q 23 128 12 116 Q 0 105 0 88 L 0 40 Q 0 23 12 12 Q 23 0 40 0 L 40 0 Z"/>
</svg>
