<svg xmlns="http://www.w3.org/2000/svg" viewBox="0 0 384 448">
    <path d="M 264 0 Q 242 2 240 24 L 240 200 Q 242 222 264 224 Q 286 222 288 200 L 288 24 Q 286 2 264 0 L 264 0 Z M 48 32 Q 28 33 14 46 L 14 46 Q 1 60 0 80 L 0 144 Q 1 164 14 178 Q 28 191 48 192 L 160 192 L 160 32 L 48 32 L 48 32 Z M 48 256 Q 28 257 14 270 L 14 270 Q 1 284 0 304 L 0 368 Q 1 388 14 402 Q 28 415 48 416 L 256 416 L 256 256 L 48 256 L 48 256 Z M 384 248 Q 382 226 360 224 Q 338 226 336 248 L 336 424 Q 338 446 360 448 Q 382 446 384 424 L 384 248 L 384 248 Z"/>
</svg>
