<svg xmlns="http://www.w3.org/2000/svg" viewBox="0 0 324 450">
    <path d="M 36 0 Q 22 0 13 9 L 13 9 Q 4 18 4 32 Q 4 46 13 55 Q 22 64 36 64 L 100 64 L 116 64 Q 150 65 173 87 Q 195 110 196 144 Q 195 178 173 201 Q 150 223 116 224 L 36 224 Q 14 225 6 246 Q 0 268 17 282 L 241 442 Q 253 450 265 448 Q 278 445 286 435 Q 294 423 291 411 Q 289 398 279 390 L 134 287 Q 189 279 224 240 Q 259 200 260 144 Q 259 99 236 64 L 292 64 Q 306 64 315 55 Q 324 46 324 32 Q 324 18 315 9 Q 306 0 292 0 L 116 0 L 100 0 L 36 0 L 36 0 Z"/>
</svg>
