<svg xmlns="http://www.w3.org/2000/svg" viewBox="0 0 544 352">
    <path d="M 112 0 L 112 51 Q 112 64 103 73 L 73 103 Q 64 112 64 125 L 64 192 Q 64 206 73 215 Q 82 224 96 224 L 160 224 Q 174 224 183 215 Q 192 206 192 192 L 192 125 Q 192 112 183 103 L 153 73 Q 144 64 144 51 L 144 0 L 352 0 L 416 0 Q 470 1 507 37 Q 543 74 544 128 Q 543 182 507 219 Q 470 255 416 256 L 384 256 Q 383 297 356 324 Q 329 351 288 352 L 96 352 Q 55 351 28 324 Q 1 297 0 256 L 0 32 Q 0 18 9 9 Q 18 0 32 0 L 112 0 L 112 0 Z M 384 192 L 416 192 Q 443 191 461 173 Q 479 155 480 128 Q 479 101 461 83 Q 443 65 416 64 L 384 64 L 384 192 L 384 192 Z"/>
</svg>
