<svg xmlns="http://www.w3.org/2000/svg" viewBox="0 0 256 320">
    <path d="M 128 0 Q 74 1 37 37 L 37 37 Q 1 74 0 128 L 0 192 Q 1 246 37 283 Q 74 319 128 320 Q 165 320 195 301 Q 203 319 224 320 Q 238 320 247 311 Q 256 302 256 288 L 256 192 L 256 128 L 256 32 Q 256 18 247 9 Q 238 0 224 0 Q 203 1 195 19 Q 165 0 128 0 L 128 0 Z M 192 128 L 192 192 Q 191 219 173 237 Q 155 255 128 256 Q 101 255 83 237 Q 65 219 64 192 L 64 128 Q 65 101 83 83 Q 101 65 128 64 Q 155 65 173 83 Q 191 101 192 128 L 192 128 Z"/>
</svg>
