<svg xmlns="http://www.w3.org/2000/svg" viewBox="0 0 320 448">
    <path d="M 64 64 L 64 96 Q 64 110 55 119 Q 46 128 32 128 Q 18 128 9 119 Q 0 110 0 96 L 0 48 Q 1 28 14 14 Q 28 1 48 0 L 160 0 L 272 0 Q 292 1 306 14 Q 319 28 320 48 L 320 96 Q 320 110 311 119 Q 302 128 288 128 Q 274 128 265 119 Q 256 110 256 96 L 256 64 L 192 64 L 192 384 L 224 384 Q 238 384 247 393 Q 256 402 256 416 Q 256 430 247 439 Q 238 448 224 448 L 96 448 Q 82 448 73 439 Q 64 430 64 416 Q 64 402 73 393 Q 82 384 96 384 L 128 384 L 128 64 L 64 64 L 64 64 Z"/>
</svg>
