<svg xmlns="http://www.w3.org/2000/svg" viewBox="0 0 509 453">
    <path d="M 5 31 Q 17 2 49 0 L 98 0 Q 120 1 135 16 Q 150 31 150 53 Q 149 83 124 99 L 97 114 Q 95 132 77 134 Q 59 132 57 114 L 57 103 Q 57 91 67 85 L 104 64 Q 110 60 110 53 Q 109 41 98 40 L 49 40 Q 45 41 43 45 L 43 46 Q 35 62 17 58 Q 0 50 5 33 L 5 32 L 5 31 Z M 50 187 Q 50 171 63 163 Q 77 155 91 163 Q 104 171 104 187 Q 104 203 91 211 Q 77 219 63 211 Q 50 203 50 187 L 50 187 Z M 125 323 L 125 291 L 221 291 Q 262 290 289 263 Q 316 236 317 195 L 317 67 L 445 67 Q 472 68 490 86 Q 508 104 509 131 L 509 323 Q 508 350 490 368 Q 472 386 445 387 L 413 387 L 413 435 Q 413 445 404 449 Q 395 453 387 448 L 306 387 L 189 387 Q 162 386 144 368 Q 126 350 125 323 L 125 323 Z"/>
</svg>
