<svg xmlns="http://www.w3.org/2000/svg" viewBox="0 0 512 96">
    <path d="M 136 77 Q 136 77 136 77 L 136 77 Q 127 83 113 89 L 113 89 Q 98 95 80 96 Q 48 95 30 85 Q 21 80 16 76 Q 13 74 12 73 Q 11 72 10 72 L 10 71 L 10 71 L 10 71 L 10 71 L 10 71 Q 9 71 12 68 Q 16 64 32 48 L 9 71 Q 0 61 0 48 Q 0 35 9 25 Q 19 16 32 16 Q 44 16 54 25 Q 54 25 54 25 Q 54 25 54 25 Q 55 26 58 27 Q 64 31 80 32 Q 86 33 106 20 Q 106 20 106 20 Q 106 20 106 20 Q 116 14 132 7 Q 147 0 168 0 Q 189 0 203 7 Q 217 14 226 20 Q 227 21 228 21 Q 244 32 256 32 Q 268 32 282 21 Q 283 21 283 21 Q 283 21 283 21 Q 292 14 307 7 Q 322 0 344 0 Q 366 0 382 7 Q 398 14 408 21 Q 419 27 424 30 Q 429 32 432 32 Q 448 31 454 27 Q 457 26 458 25 Q 458 25 458 25 Q 458 25 458 25 Q 468 16 481 16 Q 493 16 503 25 Q 512 35 512 48 Q 512 61 503 71 L 480 48 Q 496 64 500 68 Q 503 71 503 71 L 503 71 L 503 71 L 503 71 L 502 71 L 502 71 Q 501 72 500 73 Q 500 73 499 73 Q 498 75 496 76 Q 491 80 482 84 Q 464 95 432 96 Q 414 95 400 89 Q 386 83 377 77 Q 377 77 377 77 Q 377 76 376 76 Q 375 76 374 75 Q 358 64 344 64 Q 332 64 318 75 Q 318 75 317 75 Q 317 75 317 75 Q 308 82 293 89 Q 278 95 256 96 Q 234 95 218 89 Q 203 82 194 75 L 193 75 Q 177 63 168 64 Q 157 64 139 76 Q 138 76 137 76 Q 137 77 136 77 L 136 77 Z"/>
</svg>
