<svg xmlns="http://www.w3.org/2000/svg" viewBox="0 0 640 299">
    <path d="M 32 91 Q 33 46 72 22 Q 112 0 152 22 Q 191 46 192 91 Q 191 136 152 160 Q 112 182 72 160 Q 33 136 32 91 L 32 91 Z M 0 267 Q 1 240 19 222 L 19 222 Q 37 204 64 203 L 160 203 Q 187 204 205 222 Q 223 240 224 267 Q 224 281 215 290 Q 206 299 192 299 L 32 299 Q 18 299 9 290 Q 0 281 0 267 L 0 267 Z M 448 91 Q 449 46 488 22 Q 528 0 568 22 Q 607 46 608 91 Q 607 136 568 160 Q 528 182 488 160 Q 449 136 448 91 L 448 91 Z M 416 267 Q 417 240 435 222 L 435 222 Q 453 204 480 203 L 576 203 Q 603 204 621 222 Q 639 240 640 267 Q 640 281 631 290 Q 622 299 608 299 L 448 299 Q 434 299 425 290 Q 416 281 416 267 L 416 267 Z"/>
</svg>
