<svg xmlns="http://www.w3.org/2000/svg" viewBox="0 0 512 288">
    <path d="M 480 32 L 473 7 Q 471 0 464 0 Q 457 0 455 7 L 448 32 L 423 39 Q 416 41 416 48 Q 416 55 423 57 L 448 64 L 455 89 Q 457 96 464 96 Q 471 96 473 89 L 480 64 L 505 57 Q 512 55 512 48 Q 512 41 505 39 L 480 32 L 480 32 Z M 64 224 L 57 199 Q 55 192 48 192 Q 41 192 39 199 L 32 224 L 7 231 Q 0 233 0 240 Q 0 247 7 249 L 32 256 L 39 281 Q 41 288 48 288 Q 55 288 57 281 L 64 256 L 89 249 Q 96 247 96 240 Q 96 233 89 231 L 64 224 L 64 224 Z M 176 192 Q 161 193 160 208 Q 161 223 176 224 L 336 224 Q 351 223 352 208 Q 351 193 336 192 L 176 192 L 176 192 Z M 176 256 Q 161 257 160 272 Q 161 287 176 288 L 336 288 Q 351 287 352 272 Q 351 257 336 256 L 176 256 L 176 256 Z"/>
</svg>
