<svg xmlns="http://www.w3.org/2000/svg" viewBox="0 0 464 274">
    <path d="M 24 0 Q 2 2 0 24 Q 2 46 24 48 L 58 48 L 65 98 L 88 258 Q 90 268 99 271 Q 109 274 116 267 L 168 211 L 220 267 Q 225 272 232 272 Q 239 272 244 267 L 296 211 L 348 267 Q 355 274 365 271 Q 374 268 376 258 L 399 98 L 406 48 L 440 48 Q 462 46 464 24 Q 462 2 440 0 L 24 0 L 24 0 Z M 374 48 L 368 85 L 324 48 L 374 48 L 374 48 Z M 274 48 L 275 49 L 232 95 L 189 49 L 190 48 L 274 48 L 274 48 Z M 140 48 L 96 85 L 90 48 L 140 48 L 140 48 Z M 300 69 L 348 110 L 297 164 L 254 118 L 300 69 L 300 69 Z M 349 221 L 318 188 L 360 144 L 349 221 L 349 221 Z M 232 142 L 275 188 L 232 233 L 189 188 L 232 142 L 232 142 Z M 210 118 L 168 164 L 116 110 L 165 69 L 210 118 L 210 118 Z M 146 188 L 115 221 L 104 144 L 146 188 L 146 188 Z"/>
</svg>
