<svg xmlns="http://www.w3.org/2000/svg" viewBox="0 0 576 320">
    <path d="M 160 0 Q 92 2 47 47 L 47 47 Q 2 92 0 160 Q 2 228 47 273 Q 92 318 160 320 L 224 320 Q 238 320 247 311 Q 256 302 256 288 Q 256 274 247 265 Q 238 256 224 256 L 160 256 Q 119 255 92 228 Q 65 201 64 160 Q 65 119 92 92 Q 119 65 160 64 L 224 64 Q 238 64 247 55 Q 256 46 256 32 Q 256 18 247 9 Q 238 0 224 0 L 160 0 L 160 0 Z M 416 0 L 352 0 Q 338 0 329 9 Q 320 18 320 32 Q 320 46 329 55 Q 338 64 352 64 L 416 64 Q 457 65 484 92 Q 511 119 512 160 Q 511 201 484 228 Q 457 255 416 256 L 352 256 Q 338 256 329 265 Q 320 274 320 288 Q 320 302 329 311 Q 338 320 352 320 L 416 320 Q 484 318 529 273 Q 574 228 576 160 Q 574 92 529 47 Q 484 2 416 0 L 416 0 Z"/>
</svg>
