<svg xmlns="http://www.w3.org/2000/svg" viewBox="0 0 454 214">
    <path d="M 150 96 Q 177 95 192 72 Q 204 48 192 24 Q 177 1 150 0 Q 123 1 108 24 Q 96 48 108 72 Q 123 95 150 96 L 150 96 Z M 310 96 Q 337 95 352 72 Q 364 48 352 24 Q 337 1 310 0 Q 283 1 268 24 Q 256 48 268 72 Q 283 95 310 96 L 310 96 Z M 454 160 Q 453 133 430 118 Q 406 106 382 118 Q 359 133 358 160 Q 359 187 382 202 Q 406 214 430 202 Q 453 187 454 160 L 454 160 Z M 54 208 Q 81 207 96 184 Q 108 160 96 136 Q 81 113 54 112 Q 27 113 12 136 Q 0 160 12 184 Q 27 207 54 208 L 54 208 Z"/>
</svg>
