<svg xmlns="http://www.w3.org/2000/svg" viewBox="0 0 512 493">
    <path d="M 384 45 L 416 77 L 416 141 Q 416 164 430 181 Q 443 197 464 203 L 464 357 Q 462 379 440 381 Q 418 379 416 357 L 416 325 Q 415 288 390 263 Q 365 238 328 237 L 320 237 L 320 285 L 328 285 Q 345 285 356 297 Q 368 308 368 325 L 368 357 Q 369 388 389 408 Q 409 428 440 429 Q 471 428 491 408 Q 511 388 512 357 L 512 205 L 512 173 L 512 149 L 512 136 Q 512 109 493 90 L 416 13 Q 400 0 384 13 Q 371 29 384 45 L 384 45 Z M 0 461 Q 0 475 9 484 L 9 484 Q 18 493 32 493 L 320 493 Q 334 493 343 484 Q 352 475 352 461 Q 352 447 343 438 Q 334 429 320 429 L 32 429 Q 18 429 9 438 Q 0 447 0 461 L 0 461 Z"/>
</svg>
