<svg xmlns="http://www.w3.org/2000/svg" viewBox="0 0 310 347">
    <path d="M 50 21 Q 43 0 21 4 Q 0 11 4 33 L 53 231 Q 28 250 27 283 Q 28 310 46 328 Q 64 346 91 347 Q 116 346 133 331 Q 151 316 154 292 L 289 258 Q 310 251 306 229 Q 299 208 277 212 L 143 245 Q 127 224 100 220 L 50 21 L 50 21 Z M 75 283 Q 76 268 91 267 Q 106 268 107 283 Q 106 298 91 299 Q 76 298 75 283 L 75 283 Z M 160 211 L 252 188 Q 265 185 272 174 Q 278 163 275 150 L 252 58 Q 249 45 238 38 Q 227 32 214 35 L 122 58 Q 109 61 102 72 Q 96 83 99 96 L 122 188 Q 125 201 136 208 Q 147 214 160 211 L 160 211 Z"/>
</svg>
