<svg xmlns="http://www.w3.org/2000/svg" viewBox="0 0 512 416">
    <path d="M 288 373 L 288 256 Q 288 242 279 233 Q 270 224 256 224 Q 242 224 233 233 Q 224 242 224 256 L 224 373 Q 187 414 128 416 Q 74 415 37 379 Q 1 342 0 288 Q 1 234 37 197 Q 74 161 128 160 Q 130 160 132 160 Q 128 145 128 128 Q 129 74 165 37 Q 202 1 256 0 Q 310 1 347 37 Q 383 74 384 128 Q 384 145 380 160 Q 382 160 384 160 Q 438 161 475 197 Q 511 234 512 288 Q 511 342 475 379 Q 438 415 384 416 Q 325 414 288 373 L 288 373 Z"/>
</svg>
