<svg xmlns="http://www.w3.org/2000/svg" viewBox="0 0 482 160">
    <path d="M 426 130 Q 460 115 471 101 L 471 101 Q 482 88 481 80 Q 482 72 471 59 Q 460 45 426 30 Q 398 18 360 11 L 332 54 Q 321 72 321 93 Q 321 120 339 140 L 349 151 Q 394 143 426 130 L 426 130 Z M 241 112 Q 219 112 203 125 L 203 125 Q 186 137 180 157 Q 209 160 241 160 Q 273 160 302 157 Q 296 137 279 125 Q 263 112 241 112 L 241 112 Z M 56 30 Q 22 45 11 59 L 11 59 Q 0 72 1 80 Q 0 88 11 101 Q 22 115 56 130 Q 88 143 133 151 L 143 140 Q 161 120 161 93 Q 161 72 150 54 L 122 11 Q 84 18 56 30 L 56 30 Z M 177 16 Q 178 43 196 61 L 196 61 Q 214 79 241 80 Q 268 79 286 61 Q 304 43 305 16 Q 305 9 304 3 Q 274 0 241 0 Q 208 0 178 3 Q 177 9 177 16 L 177 16 Z"/>
</svg>
