<svg xmlns="http://www.w3.org/2000/svg" viewBox="0 0 514 514">
    <path d="M 277 57 Q 341 40 363 65 Q 388 87 371 152 Q 351 217 285 285 Q 217 351 152 371 Q 87 388 65 363 Q 40 341 57 276 Q 77 211 143 143 Q 212 77 277 57 L 277 57 Z M 397 31 Q 371 6 336 3 L 336 3 Q 300 0 262 12 Q 184 36 109 109 Q 36 184 12 262 Q 0 300 3 336 Q 6 371 31 397 L 72 438 Q 109 475 156 494 Q 203 514 255 514 Q 327 513 386 479 Q 444 444 479 386 Q 513 327 514 255 Q 514 203 494 156 Q 475 109 438 72 L 397 31 L 397 31 Z M 421 207 L 453 239 Q 463 250 453 261 Q 442 271 431 261 L 399 229 Q 389 218 399 207 Q 410 197 421 207 L 421 207 Z M 365 343 L 397 375 Q 407 386 397 397 Q 386 406 375 397 L 343 365 Q 333 354 343 343 Q 354 333 365 343 L 365 343 Z M 229 399 L 261 431 Q 271 442 261 453 Q 250 462 239 453 L 207 421 Q 197 410 207 399 Q 218 389 229 399 L 229 399 Z"/>
</svg>
