<svg xmlns="http://www.w3.org/2000/svg" viewBox="0 0 640 512">
    <path d="M 471 9 Q 461 0 448 0 L 448 0 Q 435 0 425 9 Q 416 19 416 32 Q 416 45 425 55 L 585 215 Q 595 224 608 224 Q 621 224 631 215 Q 640 205 640 192 Q 640 179 631 169 L 471 9 L 471 9 Z M 215 9 Q 205 0 192 0 L 192 0 Q 179 0 169 9 L 9 169 Q 0 179 0 192 Q 0 205 9 215 Q 19 224 32 224 Q 45 224 55 215 L 56 213 L 188 345 Q 192 349 197 353 L 214 336 L 224 290 L 101 168 L 168 101 L 254 188 Q 262 176 272 166 L 297 140 L 213 56 L 215 55 Q 224 45 224 32 Q 224 19 215 9 L 215 9 Z M 457 503 Q 467 512 480 512 L 480 512 Q 493 512 503 503 Q 512 493 512 480 Q 512 467 503 457 L 439 393 Q 426 399 412 402 L 367 412 L 457 503 L 457 503 Z"/>
</svg>
