<svg xmlns="http://www.w3.org/2000/svg" viewBox="0 0 384 512">
    <path d="M 0 64 Q 1 37 19 19 L 19 19 Q 37 1 64 0 L 224 0 L 224 128 Q 224 142 233 151 Q 242 160 256 160 L 384 160 L 384 448 Q 383 475 365 493 Q 347 511 320 512 L 64 512 Q 37 511 19 493 Q 1 475 0 448 L 0 64 L 0 64 Z M 256 256 Q 255 220 224 201 Q 192 183 160 201 Q 129 220 128 256 Q 129 292 160 311 Q 192 329 224 311 Q 255 292 256 256 L 256 256 Z M 80 432 Q 81 447 96 448 L 288 448 Q 303 447 304 432 Q 303 398 281 375 Q 258 353 224 352 L 160 352 Q 126 353 103 375 Q 81 398 80 432 L 80 432 Z"/>
</svg>
