<svg xmlns="http://www.w3.org/2000/svg" viewBox="0 0 576 481">
    <path d="M 288 225 Q 230 224 192 188 L 192 188 Q 153 151 152 97 Q 153 45 192 22 Q 230 0 288 1 Q 346 0 384 22 Q 423 45 424 97 Q 423 151 384 188 Q 346 224 288 225 L 288 225 Z M 240 97 Q 255 96 256 81 Q 255 66 240 65 Q 225 66 224 81 Q 225 96 240 97 L 240 97 Z M 352 81 Q 351 66 336 65 Q 321 66 320 81 Q 321 96 336 97 Q 351 96 352 81 L 352 81 Z M 352 145 Q 351 125 333 111 L 333 111 Q 315 98 288 97 Q 261 98 243 111 Q 225 125 224 145 Q 225 165 243 179 Q 261 192 288 193 Q 315 192 333 179 Q 351 165 352 145 L 352 145 Z M 320 137 Q 320 147 311 154 L 311 154 Q 302 161 288 161 Q 274 161 265 154 Q 256 147 256 137 Q 256 127 265 120 Q 274 113 288 113 Q 302 113 311 120 Q 320 127 320 137 L 320 137 Z M 50 147 Q 67 135 86 137 L 86 137 Q 105 140 118 155 L 144 188 Q 182 235 235 250 Q 288 266 341 250 Q 394 235 433 188 L 458 155 Q 471 140 490 137 Q 509 135 526 147 Q 541 160 544 179 Q 546 198 534 215 L 508 247 Q 481 281 448 304 L 448 369 L 465 369 Q 468 348 483 335 Q 498 321 520 321 Q 544 322 560 337 Q 575 353 576 377 Q 576 381 576 385 L 563 438 Q 558 456 544 468 Q 531 479 512 481 L 512 481 L 508 481 L 480 481 L 96 481 L 68 481 L 64 481 L 64 481 Q 46 479 32 468 Q 18 456 14 438 L 1 385 Q 0 381 0 377 Q 1 353 16 337 Q 32 322 56 321 Q 78 321 93 335 Q 108 348 111 369 L 128 369 L 128 304 Q 95 281 68 247 L 42 215 Q 30 198 32 179 Q 35 160 50 147 L 50 147 Z M 256 321 Q 229 322 211 340 L 211 340 Q 193 358 192 385 L 384 385 Q 383 358 365 340 Q 347 322 320 321 L 256 321 L 256 321 Z"/>
</svg>
