<svg xmlns="http://www.w3.org/2000/svg" viewBox="0 0 576 320">
    <path d="M 393 0 L 426 74 Q 437 93 458 86 Q 477 75 470 54 L 446 0 L 544 0 Q 558 0 567 9 Q 576 18 576 32 Q 576 46 567 55 Q 558 64 544 64 L 492 272 Q 486 293 469 306 Q 453 320 430 320 L 146 320 Q 123 320 107 306 Q 90 293 84 272 L 32 64 Q 18 64 9 55 Q 0 46 0 32 Q 0 18 9 9 Q 18 0 32 0 L 130 0 L 106 54 Q 99 75 118 86 Q 139 93 150 74 L 183 0 L 393 0 L 393 0 Z M 192 128 Q 191 113 176 112 Q 161 113 160 128 L 160 224 Q 161 239 176 240 Q 191 239 192 224 L 192 128 L 192 128 Z M 288 112 Q 273 113 272 128 L 272 224 Q 273 239 288 240 Q 303 239 304 224 L 304 128 Q 303 113 288 112 L 288 112 Z M 416 128 Q 415 113 400 112 Q 385 113 384 128 L 384 224 Q 385 239 400 240 Q 415 239 416 224 L 416 128 L 416 128 Z"/>
</svg>
