<svg xmlns="http://www.w3.org/2000/svg" viewBox="0 0 448 512">
    <path d="M 120 112 Q 108 112 98 107 Q 106 61 141 31 Q 175 1 224 0 Q 270 1 303 27 Q 337 54 348 96 L 312 96 Q 276 95 258 66 Q 245 87 224 99 Q 202 112 176 112 L 120 112 L 120 112 Z M 209 359 L 191 328 Q 186 320 190 312 Q 195 305 204 304 L 224 304 L 244 304 Q 253 305 258 312 Q 262 320 257 328 L 239 359 L 272 483 L 312 322 Q 371 332 409 376 Q 447 420 448 481 Q 448 494 439 503 Q 430 512 417 512 L 265 512 L 183 512 L 31 512 Q 18 512 9 503 Q 0 494 0 481 Q 1 420 39 376 Q 77 332 136 322 L 176 483 L 209 359 L 209 359 Z"/>
</svg>
