<svg xmlns="http://www.w3.org/2000/svg" viewBox="0 0 640 288">
    <path d="M 231 0 Q 182 1 148 36 L 146 39 Q 124 61 95 62 Q 65 62 42 41 L 41 39 Q 37 35 32 34 Q 29 32 24 32 Q 19 32 14 34 Q 11 36 9 37 Q 7 39 5 42 Q 4 42 4 43 Q 3 44 3 45 Q 0 50 0 56 L 0 95 Q 2 177 56 232 Q 111 286 193 288 Q 265 287 320 240 L 320 240 L 321 240 Q 375 287 447 288 Q 529 286 584 232 Q 638 177 640 95 L 640 56 Q 640 50 637 45 Q 637 44 637 44 Q 637 44 637 43 Q 636 43 636 43 Q 636 42 636 42 Q 635 42 635 41 Q 633 39 631 37 Q 625 32 616 32 Q 612 32 608 34 Q 603 35 599 39 L 598 41 Q 575 62 545 62 Q 516 61 494 39 L 492 37 Q 458 1 409 0 Q 357 1 323 40 L 320 43 L 317 40 Q 283 1 231 0 L 231 0 Z M 250 64 Q 292 65 320 95 Q 348 65 390 64 Q 421 64 447 83 L 460 93 Q 486 112 518 112 Q 540 112 561 102 L 569 98 Q 572 96 575 96 Q 578 96 580 97 Q 580 97 580 97 Q 581 97 581 97 Q 584 98 587 100 Q 589 102 590 104 Q 590 104 591 105 Q 591 105 591 106 Q 592 108 592 110 Q 592 113 591 117 Q 574 161 532 191 Q 513 205 491 214 Q 468 223 447 224 Q 422 223 397 212 Q 373 202 357 187 Q 347 176 357 164 Q 368 155 379 164 Q 389 174 410 183 Q 430 191 447 192 Q 477 191 513 165 Q 528 154 539 142 Q 528 144 517 144 Q 475 143 440 118 L 427 108 Q 411 96 390 96 Q 360 96 341 119 L 333 129 Q 332 130 331 131 Q 329 133 327 134 Q 320 137 313 134 Q 311 133 308 131 Q 308 130 307 129 L 299 119 Q 280 96 250 96 Q 229 96 212 108 L 199 118 Q 165 143 122 144 Q 112 144 101 142 Q 112 154 126 165 Q 163 191 192 192 Q 209 191 230 183 Q 251 174 260 164 Q 272 155 283 164 Q 292 176 283 187 Q 267 202 242 212 Q 218 223 193 224 Q 172 224 149 215 Q 127 205 108 191 Q 66 161 49 117 Q 49 117 49 116 Q 48 114 48 111 Q 48 108 50 105 Q 51 102 54 100 Q 56 98 58 97 Q 59 97 59 97 Q 59 97 59 97 Q 65 95 71 97 Q 71 97 71 98 Q 71 98 71 98 L 79 102 Q 100 112 123 112 Q 155 112 180 93 L 193 83 Q 219 64 250 64 L 250 64 Z"/>
</svg>
