<svg xmlns="http://www.w3.org/2000/svg" viewBox="0 0 640 448">
    <path d="M 320 0 Q 308 0 296 4 L 16 105 Q 1 112 0 128 Q 1 144 16 151 L 93 179 Q 119 151 155 138 L 314 78 Q 328 74 335 87 Q 339 101 326 108 L 166 168 Q 144 176 127 191 L 296 252 Q 308 256 320 256 Q 332 256 344 252 L 624 151 Q 639 144 640 128 Q 639 112 624 105 L 344 4 Q 332 0 320 0 L 320 0 Z M 128 376 Q 130 404 184 425 L 184 425 Q 238 447 320 448 Q 402 447 456 425 Q 510 404 512 376 L 497 231 L 355 282 Q 338 288 320 288 Q 302 288 286 282 L 143 231 L 128 376 L 128 376 Z"/>
</svg>
