<svg xmlns="http://www.w3.org/2000/svg" viewBox="0 0 320 516">
    <path d="M 170 8 Q 160 0 150 8 L 29 109 Q 1 133 0 170 L 0 500 L 0 516 L 16 516 L 96 516 L 96 388 Q 97 361 115 343 Q 133 325 160 324 Q 187 325 205 343 Q 223 361 224 388 L 224 516 L 304 516 L 320 516 L 320 500 L 320 170 Q 319 133 291 109 L 170 8 L 170 8 Z M 153 128 Q 160 120 167 128 L 183 156 L 215 156 Q 226 158 222 168 L 206 196 L 222 224 Q 226 234 215 236 L 183 236 L 167 264 Q 160 272 153 264 L 137 236 L 105 236 Q 94 234 98 224 L 114 196 L 98 168 Q 94 158 105 156 L 137 156 L 153 128 L 153 128 Z"/>
</svg>
