<svg xmlns="http://www.w3.org/2000/svg" viewBox="0 0 448 431">
    <path d="M 128 0 Q 114 0 105 9 L 105 9 Q 96 18 96 32 L 96 64 L 48 64 Q 28 65 14 78 Q 1 92 0 112 L 0 192 L 448 192 L 448 112 Q 447 92 434 78 Q 420 65 400 64 L 352 64 L 352 32 Q 352 18 343 9 Q 334 0 320 0 Q 306 0 297 9 Q 288 18 288 32 L 288 64 L 160 64 L 160 32 Q 160 18 151 9 Q 142 0 128 0 L 128 0 Z M 329 305 Q 343 288 329 271 Q 312 257 295 271 L 200 366 L 153 319 Q 136 305 119 319 Q 105 336 119 353 L 183 417 Q 200 431 217 417 L 329 305 L 329 305 Z"/>
</svg>
