<svg xmlns="http://www.w3.org/2000/svg" viewBox="0 0 510 468">
    <path d="M 175 212 Q 177 165 215 143 L 143 18 Q 136 6 124 3 Q 111 0 100 8 Q 60 39 34 83 Q 8 127 1 180 Q 0 194 9 203 Q 17 212 31 212 L 175 212 L 175 212 Z M 215 281 L 143 406 Q 136 418 140 430 Q 143 442 156 448 Q 202 468 255 468 Q 308 468 354 448 Q 367 442 370 430 Q 374 418 367 406 L 295 281 Q 277 292 255 292 Q 233 292 215 281 L 215 281 Z M 335 212 L 479 212 Q 493 212 501 203 Q 510 194 509 180 Q 502 127 476 83 Q 450 39 410 8 Q 399 0 386 3 Q 374 6 367 18 L 295 143 Q 333 165 335 212 L 335 212 Z"/>
</svg>
