<svg xmlns="http://www.w3.org/2000/svg" viewBox="0 0 448 512">
    <path d="M 96 96 L 96 128 L 96 171 Q 107 176 120 176 L 192 176 Q 218 176 240 163 Q 261 151 274 130 Q 292 159 328 160 L 352 160 L 352 128 L 352 96 L 352 70 Q 351 49 331 40 L 235 4 Q 224 0 213 4 L 117 40 Q 97 49 96 70 L 96 96 L 96 96 Z M 141 336 Q 129 323 112 328 Q 62 344 32 385 Q 1 426 0 481 Q 0 494 9 503 Q 18 512 31 512 L 417 512 Q 430 512 439 503 Q 448 494 448 481 Q 447 426 416 385 Q 386 344 336 328 Q 319 323 307 336 L 236 412 Q 224 422 212 412 L 141 336 L 141 336 Z M 208 48 Q 209 41 216 40 L 232 40 Q 239 41 240 48 L 240 64 L 256 64 Q 263 65 264 72 L 264 88 Q 263 95 256 96 L 240 96 L 240 112 Q 239 119 232 120 L 216 120 Q 209 119 208 112 L 208 96 L 192 96 Q 185 95 184 88 L 184 72 Q 185 65 192 64 L 208 64 L 208 48 L 208 48 Z"/>
</svg>
