<svg xmlns="http://www.w3.org/2000/svg" viewBox="0 0 500 512">
    <path d="M 8 496 Q 18 511 36 512 L 306 512 Q 323 512 338 503 Q 353 494 361 476 Q 374 449 388 380 Q 403 310 404 192 Q 405 110 432 56 Q 459 2 500 0 L 148 0 Q 107 2 80 56 Q 53 110 52 192 Q 53 258 46 331 Q 40 404 9 464 Q 0 480 8 496 L 8 496 Z M 116 208 Q 117 193 132 192 Q 147 193 148 208 Q 147 223 132 224 Q 117 223 116 208 L 116 208 Z M 180 208 Q 181 193 196 192 Q 211 193 212 208 Q 211 223 196 224 Q 181 223 180 208 L 180 208 Z M 260 192 Q 275 193 276 208 Q 275 223 260 224 Q 245 223 244 208 Q 245 193 260 192 L 260 192 Z M 308 208 Q 309 193 324 192 Q 339 193 340 208 Q 339 223 324 224 Q 309 223 308 208 L 308 208 Z"/>
</svg>
