<svg xmlns="http://www.w3.org/2000/svg" viewBox="0 0 416 320">
    <path d="M 145 0 L 224 0 Q 238 0 247 9 Q 256 18 256 32 Q 256 46 247 55 Q 238 64 224 64 L 171 64 L 165 98 Q 166 99 167 100 Q 167 100 168 101 L 372 128 Q 386 130 393 141 Q 401 151 400 164 Q 397 180 384 188 L 384 208 Q 383 223 368 224 Q 353 223 352 208 L 352 190 L 159 165 Q 146 176 128 176 Q 108 176 94 162 Q 81 148 80 128 Q 81 101 102 88 L 106 64 L 64 64 Q 50 64 41 55 Q 32 46 32 32 Q 32 18 41 9 Q 50 0 64 0 L 143 0 Q 143 0 144 0 Q 144 0 145 0 L 145 0 Z M 144 128 Q 143 113 128 112 Q 113 113 112 128 Q 113 143 128 144 Q 143 143 144 128 L 144 128 Z M 0 280 Q 2 258 24 256 L 72 256 Q 94 258 96 280 L 96 320 L 0 320 L 0 280 L 0 280 Z M 184 256 L 232 256 Q 254 258 256 280 L 256 320 L 160 320 L 160 280 Q 162 258 184 256 L 184 256 Z M 344 256 L 392 256 Q 414 258 416 280 L 416 320 L 320 320 L 320 280 Q 322 258 344 256 L 344 256 Z"/>
</svg>
