<svg xmlns="http://www.w3.org/2000/svg" viewBox="0 0 448 192">
    <path d="M 144 24 Q 146 2 168 0 L 184 0 Q 206 2 208 24 Q 206 46 184 48 L 168 48 Q 146 46 144 24 L 144 24 Z M 168 72 L 184 72 Q 206 74 208 96 Q 206 118 184 120 L 168 120 Q 146 118 144 96 Q 146 74 168 72 L 168 72 Z M 0 168 Q 2 146 24 144 L 40 144 Q 62 146 64 168 Q 62 190 40 192 L 24 192 Q 2 190 0 168 L 0 168 Z M 192 168 Q 194 146 216 144 L 232 144 Q 254 146 256 168 Q 254 190 232 192 L 216 192 Q 194 190 192 168 L 192 168 Z M 96 168 Q 98 146 120 144 L 136 144 Q 158 146 160 168 Q 158 190 136 192 L 120 192 Q 98 190 96 168 L 96 168 Z M 72 72 L 88 72 Q 110 74 112 96 Q 110 118 88 120 L 72 120 Q 50 118 48 96 Q 50 74 72 72 L 72 72 Z M 288 168 Q 290 146 312 144 L 328 144 Q 350 146 352 168 Q 350 190 328 192 L 312 192 Q 290 190 288 168 L 288 168 Z M 264 72 L 280 72 Q 302 74 304 96 Q 302 118 280 120 L 264 120 Q 242 118 240 96 Q 242 74 264 72 L 264 72 Z M 384 168 Q 386 146 408 144 L 424 144 Q 446 146 448 168 Q 446 190 424 192 L 408 192 Q 386 190 384 168 L 384 168 Z M 360 72 L 376 72 Q 398 74 400 96 Q 398 118 376 120 L 360 120 Q 338 118 336 96 Q 338 74 360 72 L 360 72 Z M 264 0 L 280 0 Q 302 2 304 24 Q 302 46 280 48 L 264 48 Q 242 46 240 24 Q 242 2 264 0 L 264 0 Z"/>
</svg>
