<svg xmlns="http://www.w3.org/2000/svg" viewBox="0 0 366 320">
    <path d="M 198 15 Q 182 0 162 4 L 123 11 Q 112 15 110 25 Q 109 36 120 42 L 163 61 Q 170 64 179 64 L 209 64 Q 220 63 223 54 Q 227 45 220 37 L 198 15 L 198 15 Z M 94 216 L 133 229 Q 136 231 140 233 L 165 249 Q 176 256 189 256 Q 210 256 223 239 L 235 224 Q 244 212 244 198 Q 244 183 235 172 L 217 149 Q 210 140 206 129 L 196 103 Q 193 96 186 96 Q 180 96 177 100 L 166 115 Q 158 125 146 122 Q 141 121 138 117 L 133 111 Q 122 96 103 96 Q 84 96 72 111 L 67 118 Q 64 121 61 123 L 26 140 Q 10 148 5 163 Q 0 179 7 195 L 11 201 Q 18 214 31 219 Q 44 225 58 220 L 74 215 Q 84 212 94 216 L 94 216 Z M 172 304 Q 173 319 188 320 L 204 320 Q 219 319 220 304 Q 219 289 204 288 L 188 288 Q 173 289 172 304 L 172 304 Z M 355 171 Q 349 157 335 161 Q 322 167 325 181 L 333 205 Q 339 218 353 215 Q 366 209 363 195 L 355 171 L 355 171 Z M 335 251 Q 345 240 335 229 Q 324 219 313 229 L 281 261 Q 271 272 281 283 Q 292 293 303 283 L 335 251 L 335 251 Z"/>
</svg>
