<svg xmlns="http://www.w3.org/2000/svg" viewBox="0 0 512 160">
    <path d="M 473 7 L 480 32 L 505 39 Q 512 41 512 48 Q 512 55 505 57 L 480 64 L 473 89 Q 471 96 464 96 Q 457 96 455 89 L 448 64 L 423 57 Q 416 55 416 48 Q 416 41 423 39 L 448 32 L 455 7 Q 457 0 464 0 Q 471 0 473 7 L 473 7 Z M 57 71 L 64 96 L 89 103 Q 96 105 96 112 Q 96 119 89 121 L 64 128 L 57 153 Q 55 160 48 160 Q 41 160 39 153 L 32 128 L 7 121 Q 0 119 0 112 Q 0 105 7 103 L 32 96 L 39 71 Q 41 64 48 64 Q 55 64 57 71 L 57 71 Z"/>
</svg>
