<svg xmlns="http://www.w3.org/2000/svg" viewBox="0 0 638 190">
    <path d="M 176 48 Q 190 31 176 14 Q 159 0 142 14 L 95 61 L 48 14 Q 31 0 14 14 Q 0 31 14 48 L 61 95 L 14 142 Q 0 159 14 176 Q 31 190 48 176 L 95 129 L 142 176 Q 159 190 176 176 Q 190 159 176 142 L 129 95 L 176 48 L 176 48 Z M 272 14 Q 255 0 238 14 Q 224 31 238 48 L 285 95 L 238 142 Q 224 159 238 176 Q 255 190 272 176 L 319 129 L 366 176 Q 383 190 400 176 Q 414 159 400 142 L 353 95 L 400 48 Q 414 31 400 14 Q 383 0 366 14 L 319 61 L 272 14 L 272 14 Z M 462 14 Q 448 31 462 48 L 509 95 L 462 142 Q 448 159 462 176 Q 479 190 496 176 L 543 129 L 590 176 Q 607 190 624 176 Q 638 159 624 142 L 577 95 L 624 48 Q 638 31 624 14 Q 607 0 590 14 L 543 61 L 496 14 Q 479 0 462 14 L 462 14 Z"/>
</svg>
