<svg xmlns="http://www.w3.org/2000/svg" viewBox="0 0 320 448">
    <path d="M 128 11 Q 129 1 139 0 Q 163 1 176 19 Q 189 1 213 0 Q 223 1 224 11 L 224 32 Q 265 33 292 60 Q 319 87 320 128 L 312 140 Q 288 175 245 176 L 224 176 L 224 235 Q 202 224 176 224 Q 156 224 139 230 Q 125 237 129 251 Q 135 264 149 261 Q 162 256 176 256 Q 203 257 224 272 Q 255 295 256 336 Q 256 364 240 384 L 256 384 Q 270 384 279 393 Q 288 402 288 416 Q 288 430 279 439 Q 270 448 256 448 L 184 448 L 160 448 L 128 448 L 113 448 L 112 448 L 112 448 Q 64 446 33 415 Q 1 383 0 335 L 0 331 Q 1 288 31 258 L 38 251 Q 81 207 104 150 Q 128 94 128 32 L 128 11 L 128 11 Z M 224 112 Q 239 111 240 96 Q 239 81 224 80 Q 209 81 208 96 Q 209 111 224 112 L 224 112 Z"/>
</svg>
