<svg xmlns="http://www.w3.org/2000/svg" viewBox="0 0 658 521">
    <path d="M 233 128 Q 269 127 288 96 Q 306 64 288 32 Q 269 1 233 0 Q 197 1 178 32 Q 160 64 178 96 Q 197 127 233 128 L 233 128 Z M 585 192 Q 621 191 640 160 Q 658 128 640 96 Q 621 65 585 64 Q 549 65 530 96 Q 512 128 530 160 Q 549 191 585 192 L 585 192 Z M 649 448 Q 648 412 617 393 Q 585 375 553 393 Q 522 412 521 448 Q 522 484 553 503 Q 585 521 617 503 Q 648 484 649 448 L 649 448 Z M 73 368 Q 109 367 128 336 Q 146 304 128 272 Q 109 241 73 240 Q 37 241 18 272 Q 0 304 18 336 Q 37 367 73 368 L 73 368 Z"/>
</svg>
