<svg xmlns="http://www.w3.org/2000/svg" viewBox="0 0 384 352">
    <path d="M 32 0 Q 18 0 9 9 L 9 9 Q 0 18 0 32 L 0 218 L 173 346 Q 181 352 192 352 Q 203 352 211 346 L 384 218 L 384 32 Q 384 18 375 9 Q 366 0 352 0 L 32 0 L 32 0 Z M 212 72 L 212 86 Q 223 88 233 91 Q 250 97 247 115 Q 241 132 223 129 Q 206 125 192 124 Q 179 124 170 129 Q 163 133 164 138 Q 163 141 169 145 Q 178 150 198 156 L 198 156 Q 199 156 199 156 Q 217 161 235 171 Q 257 182 260 212 Q 258 244 235 257 Q 224 264 212 266 L 212 280 Q 210 298 192 300 Q 174 298 172 280 L 172 265 Q 156 262 144 257 L 144 257 L 144 257 Q 141 256 138 255 Q 121 248 125 230 Q 132 213 150 217 Q 152 218 154 218 Q 156 219 158 219 Q 177 227 193 228 Q 206 228 214 223 Q 220 220 220 213 Q 221 209 214 205 Q 205 199 186 194 L 184 193 Q 184 193 184 193 Q 166 189 149 179 Q 127 168 124 139 Q 126 107 150 95 Q 160 89 172 86 L 172 72 Q 174 54 192 52 Q 210 54 212 72 L 212 72 Z"/>
</svg>
