<svg xmlns="http://www.w3.org/2000/svg" viewBox="0 0 512 416">
    <path d="M 128 64 L 256 48 L 384 64 Q 398 64 407 55 Q 416 46 416 32 Q 416 18 407 9 Q 398 0 384 0 L 256 16 L 128 0 Q 114 0 105 9 Q 96 18 96 32 Q 96 46 105 55 Q 114 64 128 64 L 128 64 Z M 32 96 Q 18 96 9 105 L 9 105 Q 0 114 0 128 L 0 384 Q 0 398 9 407 Q 18 416 32 416 Q 46 416 55 407 Q 64 398 64 384 L 64 128 Q 64 114 55 105 Q 46 96 32 96 L 32 96 Z M 512 128 Q 512 114 503 105 L 503 105 Q 494 96 480 96 Q 466 96 457 105 Q 448 114 448 128 L 448 384 Q 448 398 457 407 Q 466 416 480 416 Q 494 416 503 407 Q 512 398 512 384 L 512 128 L 512 128 Z"/>
</svg>
