<svg xmlns="http://www.w3.org/2000/svg" viewBox="0 0 320 196">
    <path d="M 30 10 Q 23 0 12 3 Q 1 6 0 18 L 0 178 Q 1 193 16 194 Q 31 193 32 178 L 32 76 L 98 186 Q 105 196 116 194 Q 127 190 128 178 L 128 18 Q 127 3 112 2 Q 97 3 96 18 L 96 120 L 30 10 L 30 10 Z M 176 2 Q 161 3 160 18 L 160 82 L 160 178 Q 161 193 176 194 Q 191 193 192 178 L 192 98 L 240 98 Q 255 97 256 82 Q 255 67 240 66 L 192 66 L 192 34 L 240 34 Q 255 33 256 18 Q 255 3 240 2 L 176 2 L 176 2 Z M 320 18 Q 319 3 304 2 Q 289 3 288 18 L 288 178 Q 289 193 304 194 Q 319 193 320 178 L 320 18 L 320 18 Z"/>
</svg>
