<svg xmlns="http://www.w3.org/2000/svg" viewBox="0 0 384 416">
    <path d="M 32 32 Q 32 18 41 9 L 41 9 Q 50 0 64 0 L 320 0 Q 334 0 343 9 Q 352 18 352 32 L 352 160 Q 352 174 343 183 Q 334 192 320 192 L 64 192 Q 50 192 41 183 Q 32 174 32 160 L 32 32 L 32 32 Z M 0 352 L 96 352 L 96 384 Q 96 398 87 407 Q 78 416 64 416 L 32 416 Q 18 416 9 407 Q 0 398 0 384 L 0 352 L 0 352 Z M 384 352 L 384 384 Q 384 398 375 407 Q 366 416 352 416 L 320 416 Q 306 416 297 407 Q 288 398 288 384 L 288 352 L 384 352 L 384 352 Z"/>
</svg>
