<svg xmlns="http://www.w3.org/2000/svg" viewBox="0 0 514 420">
    <path d="M 323 101 Q 322 107 322 114 L 322 261 Q 291 305 290 362 Q 290 390 298 416 Q 297 416 296 417 Q 288 420 281 415 L 210 366 L 139 415 Q 132 420 124 417 Q 116 413 114 405 L 100 320 L 15 306 Q 7 304 3 296 Q 0 288 5 281 L 55 210 L 5 139 Q 0 132 3 124 Q 7 116 15 114 L 100 100 L 114 15 Q 116 7 124 3 Q 132 0 139 5 L 210 55 L 281 5 Q 288 0 296 3 Q 304 7 306 15 L 320 100 L 323 101 L 323 101 Z M 210 146 Q 246 147 265 178 Q 283 210 265 242 Q 246 273 210 274 Q 174 273 155 242 Q 137 210 155 178 Q 174 147 210 146 L 210 146 Z M 210 306 Q 236 306 258 293 L 258 293 Q 280 280 293 258 Q 306 235 306 210 Q 306 185 293 162 Q 280 140 258 127 Q 236 114 210 114 Q 184 114 162 127 Q 140 140 127 162 Q 114 185 114 210 Q 114 235 127 258 Q 140 280 162 293 Q 184 306 210 306 L 210 306 Z M 466 98 Q 481 99 482 114 L 482 325 Q 512 337 514 370 Q 513 390 500 404 Q 486 417 466 418 Q 446 417 432 404 Q 419 390 418 370 Q 420 337 450 325 L 450 114 Q 451 99 466 98 L 466 98 Z"/>
</svg>
