<svg xmlns="http://www.w3.org/2000/svg" viewBox="0 0 416 304">
    <path d="M 32 0 Q 18 0 9 9 L 9 9 Q 0 18 0 32 L 0 208 Q 0 222 9 231 Q 18 240 32 240 L 77 240 L 109 280 Q 128 303 159 304 L 352 304 Q 379 303 397 285 Q 415 267 416 240 L 416 95 Q 415 64 392 45 L 354 14 Q 336 0 314 0 L 112 0 L 64 0 L 32 0 L 32 0 Z M 228 64 L 228 152 Q 226 170 208 172 Q 190 170 188 152 L 188 64 Q 190 46 208 44 Q 226 46 228 64 L 228 64 Z M 208 200 Q 230 202 232 224 Q 230 246 208 248 Q 186 246 184 224 Q 186 202 208 200 L 208 200 Z"/>
</svg>
