<svg xmlns="http://www.w3.org/2000/svg" viewBox="0 0 448 512">
    <path d="M 448 96 Q 447 55 420 28 L 420 28 Q 393 1 352 0 L 64 0 L 32 0 Q 18 0 9 9 Q 0 18 0 32 L 0 352 Q 0 366 9 375 Q 18 384 32 384 L 96 384 L 192 384 L 352 384 Q 366 384 375 393 Q 384 402 384 416 Q 384 430 375 439 Q 366 448 352 448 L 192 448 L 96 448 L 32 448 Q 18 448 9 457 Q 0 466 0 480 Q 0 494 9 503 Q 18 512 32 512 L 64 512 L 352 512 Q 393 511 420 484 Q 447 457 448 416 L 448 96 L 448 96 Z M 274 150 Q 280 142 286 150 L 295 172 L 318 173 Q 327 177 322 185 L 304 200 L 309 222 Q 309 232 300 229 L 280 217 L 260 229 Q 251 232 251 222 L 256 200 L 238 185 Q 233 177 242 174 L 265 172 L 274 150 L 274 150 Z M 96 192 Q 97 138 133 101 L 133 101 Q 170 65 224 64 Q 263 65 294 85 Q 299 88 297 94 Q 294 100 288 99 Q 278 97 269 97 Q 228 98 202 125 Q 175 152 174 192 Q 175 232 202 259 Q 228 286 269 287 Q 278 287 288 285 Q 294 284 297 290 Q 299 296 294 300 Q 263 320 224 320 Q 170 319 133 283 Q 97 246 96 192 L 96 192 Z"/>
</svg>
