<svg xmlns="http://www.w3.org/2000/svg" viewBox="0 0 512 514">
    <path d="M 343 136 Q 352 118 352 96 Q 351 55 324 28 Q 297 1 256 0 Q 215 1 188 28 Q 161 55 160 96 Q 160 118 169 136 L 7 417 Q 0 428 0 441 L 0 496 Q 0 505 8 510 Q 15 514 23 510 L 79 483 Q 91 476 99 464 L 256 192 L 256 192 Q 256 192 256 192 Q 256 192 256 192 L 324 310 Q 375 293 413 256 L 343 136 L 343 136 Z M 224 96 Q 224 82 233 73 L 233 73 Q 242 64 256 64 Q 270 64 279 73 Q 288 82 288 96 Q 288 110 279 119 Q 270 128 256 128 Q 242 128 233 119 Q 224 110 224 96 L 224 96 Z M 357 366 L 413 464 Q 421 476 433 483 L 489 510 Q 497 514 504 510 Q 512 505 512 496 L 512 441 Q 512 428 506 417 L 446 313 Q 406 347 357 366 L 357 366 Z"/>
</svg>
