<svg xmlns="http://www.w3.org/2000/svg" viewBox="0 0 448 384">
    <path d="M 86 6 Q 90 0 96 0 Q 102 0 106 6 L 130 48 Q 136 58 136 69 L 136 72 Q 135 89 124 100 Q 113 112 96 112 Q 79 112 68 100 Q 56 89 56 72 L 56 69 Q 56 58 62 48 L 86 6 L 86 6 Z M 0 288 Q 1 261 19 243 L 19 243 Q 37 225 64 224 L 384 224 Q 411 225 429 243 Q 447 261 448 288 L 448 377 Q 435 384 419 384 Q 391 382 372 368 Q 353 354 352 352 Q 351 354 333 368 Q 316 382 288 384 Q 260 382 243 368 Q 225 354 224 352 Q 223 354 205 368 Q 188 382 160 384 Q 132 382 115 368 Q 97 354 96 352 Q 95 354 76 368 Q 57 382 29 384 Q 13 384 0 377 L 0 288 L 0 288 Z M 190 48 L 214 6 Q 218 0 224 0 Q 230 0 234 6 L 258 48 Q 264 58 264 69 L 264 72 Q 263 89 252 100 Q 241 112 224 112 Q 207 112 196 100 Q 184 89 184 72 L 184 69 Q 184 58 190 48 L 190 48 Z M 342 6 Q 346 0 352 0 Q 358 0 362 6 L 386 48 Q 392 58 392 69 L 392 72 Q 391 89 380 100 Q 369 112 352 112 Q 335 112 324 100 Q 312 89 312 72 L 312 69 Q 312 58 318 48 L 342 6 L 342 6 Z"/>
</svg>
