<svg xmlns="http://www.w3.org/2000/svg" viewBox="0 0 416 384">
    <path d="M 16 0 Q 1 1 0 16 L 0 168 Q 15 156 32 147 L 32 16 Q 31 1 16 0 L 16 0 Z M 112 128 Q 120 128 128 129 L 128 16 Q 127 1 112 0 Q 97 1 96 16 L 96 129 Q 104 128 112 128 L 112 128 Z M 192 147 Q 209 156 224 168 L 224 16 Q 223 1 208 0 Q 193 1 192 16 L 192 147 L 192 147 Z M 304 0 Q 289 1 288 16 L 288 208 Q 289 223 304 224 Q 319 223 320 208 L 320 16 Q 319 1 304 0 L 304 0 Z M 416 16 Q 415 1 400 0 Q 385 1 384 16 L 384 208 Q 385 223 400 224 Q 415 223 416 208 L 416 16 L 416 16 Z M 112 384 Q 157 383 181 344 Q 203 304 181 264 Q 157 225 112 224 Q 67 225 43 264 Q 21 304 43 344 Q 67 383 112 384 L 112 384 Z"/>
</svg>
