<svg xmlns="http://www.w3.org/2000/svg" viewBox="0 0 512 352">
    <path d="M 2 116 Q 5 110 9 105 L 105 9 Q 115 0 128 0 Q 141 0 151 9 Q 160 19 160 32 Q 160 45 151 55 L 109 96 L 224 96 Q 278 97 315 133 Q 351 170 352 224 Q 353 251 371 269 Q 389 287 416 288 L 480 288 Q 494 288 503 297 Q 512 306 512 320 Q 512 334 503 343 Q 494 352 480 352 L 416 352 Q 362 351 325 315 Q 289 278 288 224 Q 287 197 269 179 Q 251 161 224 160 L 109 160 L 151 201 Q 160 211 160 224 Q 160 237 151 247 Q 141 256 128 256 Q 115 256 105 247 L 9 151 Q 9 151 9 151 Q 9 151 9 151 Q 9 151 9 151 Q 0 142 0 128 Q 0 128 0 128 Q 0 128 0 128 Q 0 122 2 116 L 2 116 Z M 0 128 Q 0 128 0 128 L 0 128 Q 0 128 0 128 Q 0 128 0 128 Q 0 128 0 128 Q 0 121 2 116 L 0 128 Z"/>
</svg>
