<svg xmlns="http://www.w3.org/2000/svg" viewBox="0 0 512 518">
    <path d="M 24 0 Q 2 2 0 24 Q 2 46 24 48 L 70 48 Q 76 48 77 55 L 129 326 Q 134 351 154 368 Q 173 384 200 384 L 488 384 Q 510 382 512 360 Q 510 338 488 336 L 200 336 Q 181 335 176 317 L 124 46 Q 120 25 105 13 Q 90 0 70 0 L 24 0 L 24 0 Z M 176 512 Q 203 511 218 488 Q 230 464 218 440 Q 203 417 176 416 Q 149 417 134 440 Q 122 464 134 488 Q 149 511 176 512 L 176 512 Z M 512 464 Q 511 437 488 422 Q 464 410 440 422 Q 417 437 416 464 Q 417 491 440 506 Q 464 518 488 506 Q 511 491 512 464 L 512 464 Z M 312 178 L 312 288 L 360 288 L 360 178 L 383 201 Q 400 215 417 201 Q 431 184 417 167 L 353 103 Q 336 89 319 103 L 255 167 Q 241 184 255 201 Q 272 215 289 201 L 312 178 L 312 178 Z"/>
</svg>
