<svg xmlns="http://www.w3.org/2000/svg" viewBox="0 0 512 384">
    <path d="M 192 352 L 192 160 L 224 160 L 224 0 L 192 0 L 93 0 Q 66 2 61 29 L 52 119 Q 48 160 27 196 Q 0 240 0 292 L 0 352 Q 0 366 9 375 Q 18 384 32 384 L 160 384 Q 174 384 183 375 Q 192 366 192 352 L 192 352 Z M 320 352 Q 320 366 329 375 L 329 375 Q 338 384 352 384 L 480 384 Q 494 384 503 375 Q 512 366 512 352 L 512 292 Q 512 240 486 196 Q 464 160 460 118 L 451 29 Q 446 2 419 0 L 320 0 L 288 0 L 288 160 L 320 160 L 320 352 L 320 352 Z"/>
</svg>
