<svg xmlns="http://www.w3.org/2000/svg" viewBox="0 0 448 464">
    <path d="M 128 55 Q 129 32 144 16 L 144 16 Q 160 1 183 0 Q 191 1 192 9 Q 191 32 176 48 Q 160 63 137 64 Q 129 63 128 55 L 128 55 Z M 0 171 Q 0 137 16 109 L 16 109 Q 31 82 64 80 Q 89 82 111 91 Q 128 97 145 91 Q 166 82 192 80 Q 225 82 240 109 Q 256 137 256 171 Q 256 200 248 224 L 8 224 Q 0 200 0 171 L 0 171 Z M 281 224 Q 288 199 288 171 Q 289 130 268 93 Q 264 86 259 80 Q 283 82 303 91 Q 320 97 337 91 Q 359 82 384 80 Q 417 82 432 109 Q 448 137 448 172 Q 448 200 440 224 L 281 224 L 281 224 Z M 375 0 Q 383 1 384 9 Q 383 32 368 48 Q 352 63 329 64 Q 321 63 320 55 Q 321 32 336 16 Q 352 1 375 0 L 375 0 Z M 16 288 Q 17 273 32 272 Q 47 273 48 288 Q 47 303 32 304 Q 17 303 16 288 L 16 288 Z M 16 448 Q 17 433 32 432 Q 47 433 48 448 Q 47 463 32 464 Q 17 463 16 448 L 16 448 Z M 416 272 Q 431 273 432 288 Q 431 303 416 304 Q 401 303 400 288 Q 401 273 416 272 L 416 272 Z M 400 448 Q 401 433 416 432 Q 431 433 432 448 Q 431 463 416 464 Q 401 463 400 448 L 400 448 Z"/>
</svg>
