<svg xmlns="http://www.w3.org/2000/svg" viewBox="0 0 352 448">
    <path d="M 64 0 Q 37 1 19 19 L 19 19 Q 1 37 0 64 L 0 192 L 64 192 L 64 64 L 259 64 L 288 93 L 288 192 L 352 192 L 352 93 Q 352 67 333 48 L 304 19 Q 285 0 259 0 L 64 0 L 64 0 Z M 160 288 Q 160 274 151 265 L 151 265 Q 142 256 128 256 Q 114 256 105 265 Q 96 274 96 288 Q 96 302 105 311 Q 114 320 128 320 Q 142 320 151 311 Q 160 302 160 288 L 160 288 Z M 288 288 Q 288 274 279 265 L 279 265 Q 270 256 256 256 Q 242 256 233 265 Q 224 274 224 288 Q 224 302 233 311 Q 242 320 256 320 Q 270 320 279 311 Q 288 302 288 288 L 288 288 Z M 256 448 Q 270 448 279 439 L 279 439 Q 288 430 288 416 Q 288 402 279 393 Q 270 384 256 384 Q 242 384 233 393 Q 224 402 224 416 Q 224 430 233 439 Q 242 448 256 448 L 256 448 Z M 160 416 Q 160 402 151 393 L 151 393 Q 142 384 128 384 Q 114 384 105 393 Q 96 402 96 416 Q 96 430 105 439 Q 114 448 128 448 Q 142 448 151 439 Q 160 430 160 416 L 160 416 Z"/>
</svg>
