<svg xmlns="http://www.w3.org/2000/svg" viewBox="0 0 580 247">
    <path d="M 110 10 Q 78 0 49 13 L 49 13 Q 20 27 7 58 Q 0 82 3 115 Q 7 147 17 174 Q 27 200 39 206 Q 51 209 76 195 Q 101 182 125 159 Q 148 136 158 113 Q 169 81 155 52 Q 142 23 110 10 L 110 10 Z M 290 39 Q 256 40 233 62 L 233 62 Q 211 85 210 119 Q 211 144 225 174 Q 240 203 259 224 Q 277 246 290 247 Q 303 246 321 224 Q 340 203 355 174 Q 369 144 370 119 Q 369 85 347 62 Q 324 40 290 39 L 290 39 Z M 573 58 Q 560 27 531 13 L 531 13 Q 502 0 470 10 Q 438 23 425 52 Q 411 81 422 113 Q 432 136 455 159 Q 479 182 504 195 Q 529 209 541 206 Q 553 200 563 174 Q 573 147 577 115 Q 580 82 573 58 L 573 58 Z"/>
</svg>
