<svg xmlns="http://www.w3.org/2000/svg" viewBox="0 0 448 464">
    <path d="M 96 32 Q 96 18 105 9 L 105 9 Q 114 0 128 0 Q 142 0 151 9 Q 160 18 160 32 L 160 64 L 288 64 L 288 32 Q 288 18 297 9 Q 306 0 320 0 Q 334 0 343 9 Q 352 18 352 32 L 352 64 L 400 64 Q 420 65 434 78 Q 447 92 448 112 L 448 192 L 0 192 L 0 112 Q 1 92 14 78 Q 28 65 48 64 L 96 64 L 96 32 L 96 32 Z M 192 432 Q 192 418 201 409 L 201 409 Q 210 400 224 400 Q 238 400 247 409 Q 256 418 256 432 Q 256 446 247 455 Q 238 464 224 464 Q 210 464 201 455 Q 192 446 192 432 L 192 432 Z M 248 256 L 248 352 Q 246 374 224 376 Q 202 374 200 352 L 200 256 Q 202 234 224 232 Q 246 234 248 256 L 248 256 Z"/>
</svg>
