<svg xmlns="http://www.w3.org/2000/svg" viewBox="0 0 288 320">
    <path d="M 111 0 Q 116 0 120 3 Q 147 28 170 56 Q 181 42 194 29 Q 203 22 212 29 Q 246 62 266 103 Q 287 144 288 175 Q 286 236 246 277 Q 205 318 144 320 Q 82 318 42 277 Q 1 236 0 175 Q 1 136 29 91 Q 57 45 102 3 Q 106 0 111 0 L 111 0 Z M 145 262 Q 169 262 189 248 Q 209 233 214 209 Q 219 184 207 161 Q 207 161 207 160 Q 204 155 201 150 L 168 188 Q 167 187 155 171 Q 142 154 129 137 Q 115 120 113 116 Q 92 141 82 158 Q 72 175 72 191 Q 73 225 93 243 Q 114 262 145 262 L 145 262 Z"/>
</svg>
