<svg xmlns="http://www.w3.org/2000/svg" viewBox="0 0 369 196">
    <path d="M 217 2 Q 195 4 193 26 L 193 170 Q 195 192 217 194 L 273 194 Q 314 193 341 166 Q 368 139 369 98 Q 368 57 341 30 Q 314 3 273 2 L 217 2 L 217 2 Z M 241 146 L 241 50 L 273 50 Q 293 51 307 64 Q 320 78 321 98 Q 320 118 307 132 Q 293 145 273 146 L 241 146 L 241 146 Z M 56 50 Q 67 46 92 49 Q 97 50 105 51 Q 114 53 118 54 Q 138 57 145 37 Q 147 16 128 10 Q 122 9 113 7 Q 103 6 98 5 Q 69 0 42 8 Q 12 16 4 50 Q 4 50 4 50 Q 4 51 4 51 Q 1 68 9 83 Q 17 97 29 104 Q 51 115 73 119 Q 74 119 74 120 L 76 120 Q 100 125 110 131 Q 114 133 114 134 L 114 134 Q 114 134 114 139 Q 113 142 112 143 Q 111 144 106 146 Q 95 150 70 147 Q 58 144 40 139 Q 39 139 38 139 Q 38 139 38 139 Q 34 138 31 137 Q 11 133 3 152 Q 0 172 19 180 Q 20 180 22 181 Q 23 181 24 181 L 24 181 L 24 181 Q 33 184 44 187 Q 55 190 63 191 L 63 191 L 64 191 Q 93 196 120 189 Q 134 185 145 174 Q 156 162 158 145 Q 161 128 153 113 Q 145 99 133 92 Q 111 81 88 77 Q 88 77 88 77 L 88 77 L 86 76 Q 62 71 52 66 Q 48 63 48 62 L 48 62 Q 47 62 48 58 Q 48 52 56 50 L 56 50 Z"/>
</svg>
