<svg xmlns="http://www.w3.org/2000/svg" viewBox="0 0 512 384">
    <path d="M 0 128 Q 0 142 9 151 L 9 151 Q 18 160 32 160 Q 46 160 55 151 Q 64 142 64 128 L 64 64 L 128 64 Q 142 64 151 55 Q 160 46 160 32 Q 160 18 151 9 Q 142 0 128 0 L 32 0 Q 18 0 9 9 Q 0 18 0 32 L 0 128 L 0 128 Z M 512 256 Q 512 242 503 233 L 503 233 Q 494 224 480 224 Q 466 224 457 233 Q 448 242 448 256 L 448 320 L 384 320 Q 370 320 361 329 Q 352 338 352 352 Q 352 366 361 375 Q 370 384 384 384 L 480 384 Q 494 384 503 375 Q 512 366 512 352 L 512 256 L 512 256 Z"/>
</svg>
