<svg xmlns="http://www.w3.org/2000/svg" viewBox="0 0 502 446">
    <path d="M 1 280 L 83 301 Q 96 303 106 294 L 120 280 Q 130 271 141 273 Q 153 275 159 286 L 168 304 Q 176 319 193 320 Q 205 320 212 311 Q 218 302 215 291 L 209 271 Q 206 259 213 250 Q 220 240 232 240 L 234 240 Q 256 239 268 222 L 279 206 Q 287 192 278 178 L 262 157 Q 254 146 258 134 Q 262 123 275 119 L 293 115 Q 304 112 309 101 L 346 16 Q 304 0 256 0 Q 184 1 127 35 Q 69 69 35 127 Q 1 184 0 256 Q 0 268 1 280 L 1 280 Z M 502 329 Q 501 328 500 328 L 469 305 Q 459 298 448 301 L 435 305 Q 424 307 417 298 L 415 295 Q 405 281 387 280 Q 370 281 360 295 L 354 305 Q 352 308 348 310 L 312 330 Q 298 338 294 352 Q 289 367 295 381 L 301 394 Q 307 408 322 414 Q 336 420 351 415 L 355 414 Q 370 408 383 417 L 428 446 Q 480 398 502 329 L 502 329 Z M 145 348 Q 142 363 156 368 L 188 376 Q 203 378 208 364 Q 210 349 196 345 L 164 337 Q 149 334 145 348 L 145 348 Z M 237 328 Q 234 343 248 348 Q 263 350 268 336 L 276 304 Q 278 289 264 285 Q 249 282 245 296 L 237 328 L 237 328 Z M 343 114 Q 330 108 322 121 L 306 153 Q 300 167 313 174 Q 327 180 334 167 L 350 135 Q 356 122 343 114 L 343 114 Z"/>
</svg>
