<svg xmlns="http://www.w3.org/2000/svg" viewBox="0 0 494 160">
    <path d="M 155 112 Q 145 113 140 121 Q 117 158 71 160 Q 27 158 4 124 Q 0 116 4 110 Q 8 104 17 104 L 47 104 Q 69 102 71 80 Q 69 58 47 56 L 17 56 Q 8 56 4 50 Q 0 44 4 36 Q 27 2 71 0 Q 117 2 140 39 Q 145 47 155 48 L 339 48 Q 349 47 355 39 Q 377 2 423 0 Q 467 2 490 36 Q 494 44 490 50 Q 486 56 478 56 L 447 56 Q 425 58 423 80 Q 425 102 447 104 L 478 104 Q 486 104 490 110 Q 494 116 490 124 Q 467 158 423 160 Q 377 158 354 121 Q 349 113 339 112 L 155 112 L 155 112 Z"/>
</svg>
