<svg xmlns="http://www.w3.org/2000/svg" viewBox="0 0 430 430">
    <path d="M 0 151 Q 17 96 57 57 L 57 57 Q 96 17 151 0 L 151 55 Q 151 62 153 67 Q 93 93 67 154 Q 61 151 55 151 L 0 151 L 0 151 Z M 0 279 L 55 279 Q 62 279 67 277 Q 93 337 154 363 Q 151 368 151 375 L 151 430 Q 96 413 57 373 Q 17 334 0 279 L 0 279 Z M 430 279 Q 413 334 373 373 L 373 373 Q 334 413 279 430 L 279 375 Q 279 368 277 363 Q 337 337 363 277 Q 368 279 375 279 L 430 279 L 430 279 Z M 430 151 L 375 151 Q 368 151 363 153 Q 337 93 277 67 Q 279 61 279 55 L 279 0 Q 334 17 373 57 Q 413 96 430 151 L 430 151 Z"/>
</svg>
