<svg xmlns="http://www.w3.org/2000/svg" viewBox="0 0 385 449">
    <path d="M 1 29 Q 3 16 13 8 L 13 8 Q 23 0 37 1 L 45 2 Q 82 8 105 34 Q 128 60 129 98 L 129 353 Q 129 367 138 376 Q 147 385 161 385 L 193 385 Q 247 384 284 348 Q 320 311 321 257 L 321 225 Q 321 211 312 202 Q 303 193 289 193 L 273 193 Q 259 193 250 184 Q 241 175 241 161 Q 241 147 250 138 Q 259 129 273 129 L 289 129 Q 330 130 357 157 Q 384 184 385 225 L 385 257 Q 383 339 329 393 Q 275 447 193 449 L 161 449 Q 120 448 93 421 Q 66 394 65 353 L 65 98 Q 63 71 37 66 L 29 65 Q 16 63 8 53 Q 0 43 1 29 L 1 29 Z"/>
</svg>
