<svg xmlns="http://www.w3.org/2000/svg" viewBox="0 0 372 388">
    <path d="M 88 37 L 56 121 Q 54 126 58 130 L 106 178 L 106 229 L 81 221 L 24 164 Q 0 138 11 104 L 44 19 Q 53 0 75 6 Q 94 15 88 37 L 88 37 Z M 348 164 L 291 221 L 266 229 L 266 178 L 314 130 Q 318 126 316 121 L 284 37 Q 278 15 297 6 Q 319 0 328 19 L 361 104 Q 372 138 348 164 L 348 164 Z M 148 311 Q 146 308 146 304 Q 147 293 158 292 L 214 292 Q 225 293 226 304 Q 226 308 224 311 L 202 340 L 224 369 Q 226 372 226 376 Q 225 387 214 388 L 158 388 Q 147 387 146 376 Q 146 372 148 369 L 170 340 L 148 311 L 148 311 Z"/>
</svg>
