<svg xmlns="http://www.w3.org/2000/svg" viewBox="0 0 162 512">
    <path d="M 162 96 L 162 0 Q 162 0 162 0 Q 162 0 162 0 Q 142 1 128 14 Q 115 28 114 48 Q 115 68 128 82 Q 142 95 162 96 Q 162 96 162 96 Q 162 96 162 96 L 162 96 Z M 162 128 L 156 128 Q 126 128 101 143 Q 76 157 60 182 L 7 272 Q 0 283 3 296 Q 6 308 18 315 Q 29 322 42 319 Q 54 316 61 305 L 95 248 L 57 363 Q 55 371 59 377 Q 64 384 72 384 L 90 384 L 90 480 Q 90 494 99 503 Q 108 512 122 512 Q 136 512 145 503 Q 154 494 154 480 L 154 384 L 162 384 L 162 128 L 162 128 Z"/>
</svg>
