<svg xmlns="http://www.w3.org/2000/svg" viewBox="0 0 512 320">
    <path d="M 386 70 Q 415 43 416 0 Q 457 1 484 28 Q 511 55 512 96 L 512 224 Q 511 265 484 292 Q 457 319 416 320 L 96 320 Q 55 319 28 292 Q 1 265 0 224 L 0 96 Q 1 55 28 28 Q 55 1 96 0 L 224 0 Q 225 38 248 64 L 160 64 Q 119 65 92 92 Q 65 119 64 160 Q 65 201 92 228 Q 119 255 160 256 L 352 256 Q 393 255 420 228 Q 447 201 448 160 Q 448 129 430 105 Q 413 81 386 70 L 386 70 Z M 320 96 L 352 96 Q 379 97 397 115 Q 415 133 416 160 Q 415 187 397 205 Q 379 223 352 224 L 160 224 Q 133 223 115 205 Q 97 187 96 160 Q 97 133 115 115 Q 133 97 160 96 L 320 96 L 320 96 Z"/>
</svg>
