<svg xmlns="http://www.w3.org/2000/svg" viewBox="0 0 288 288">
    <path d="M 0 144 Q 0 105 19 72 L 19 72 Q 38 39 72 19 Q 106 0 144 0 Q 182 0 216 19 Q 250 39 269 72 Q 288 105 288 144 Q 288 183 269 216 Q 250 249 216 269 Q 182 288 144 288 Q 106 288 72 269 Q 38 249 19 216 Q 0 183 0 144 L 0 144 Z M 168 216 Q 166 194 144 192 Q 122 194 120 216 Q 122 238 144 240 Q 166 238 168 216 L 168 216 Z M 122 56 Q 104 56 92 68 L 92 68 Q 80 80 80 98 L 80 104 Q 81 119 96 120 Q 111 119 112 104 L 112 98 Q 113 89 122 88 L 162 88 Q 175 89 176 102 Q 176 110 169 114 L 137 131 Q 128 136 128 145 L 128 160 Q 129 175 144 176 Q 159 175 160 160 L 160 155 L 184 143 Q 207 129 208 102 Q 208 82 195 70 Q 182 57 162 56 L 122 56 L 122 56 Z"/>
</svg>
