<svg xmlns="http://www.w3.org/2000/svg" viewBox="0 0 384 368">
    <path d="M 256 197 Q 256 208 262 218 Q 239 208 218 221 L 200 232 Q 192 237 183 232 L 166 221 Q 145 208 122 218 Q 128 208 128 197 L 128 192 Q 128 178 119 169 Q 110 160 96 160 L 56 160 Q 32 159 16 144 Q 1 128 0 104 Q 1 80 16 64 Q 32 49 56 48 Q 69 48 81 54 Q 85 30 102 15 Q 120 1 144 0 Q 174 1 192 22 Q 210 1 240 0 Q 264 1 282 15 Q 299 30 303 54 Q 315 48 328 48 Q 352 49 368 64 Q 383 80 384 104 Q 383 128 368 144 Q 352 159 328 160 L 288 160 Q 274 160 265 169 Q 256 178 256 192 L 256 197 L 256 197 Z M 80 336 Q 81 322 90 313 L 90 313 Q 99 304 112 304 Q 126 304 135 313 Q 144 322 144 336 Q 144 350 135 359 Q 126 368 112 368 Q 99 368 90 359 Q 81 350 80 336 L 80 336 Z M 240 336 Q 241 322 250 313 L 250 313 Q 259 304 272 304 Q 286 304 295 313 Q 304 322 304 336 Q 304 350 295 359 Q 286 368 272 368 Q 259 368 250 359 Q 241 350 240 336 L 240 336 Z"/>
</svg>
