<svg xmlns="http://www.w3.org/2000/svg" viewBox="0 0 513 416">
    <path d="M 116 74 Q 128 64 145 64 Q 165 65 179 78 Q 192 92 193 112 Q 192 132 179 146 Q 165 159 145 160 L 111 160 Q 98 161 97 174 Q 97 176 98 178 L 106 202 Q 114 223 136 224 L 145 224 L 161 224 Q 161 224 161 224 Q 161 224 161 224 Q 188 225 206 243 Q 224 261 225 288 Q 224 315 206 333 Q 188 351 161 352 Q 123 351 98 339 Q 73 326 59 309 Q 44 292 38 280 Q 35 274 33 270 Q 33 269 33 268 Q 32 268 32 267 L 32 267 L 32 267 Q 27 254 14 256 Q 0 260 1 274 L 17 272 Q 6 273 3 274 Q 1 274 1 274 L 1 274 L 1 274 L 1 274 L 1 275 Q 1 275 1 276 Q 2 276 2 277 Q 2 279 2 280 Q 3 286 6 296 Q 11 317 27 344 Q 44 372 76 394 Q 108 415 161 416 Q 215 415 252 379 Q 288 342 289 288 Q 289 253 272 224 L 295 224 Q 334 223 362 196 L 389 169 Q 398 160 412 160 L 417 160 Q 431 160 440 169 Q 449 178 449 192 L 449 288 Q 449 302 440 311 Q 431 320 417 320 Q 379 317 366 294 Q 358 284 355 276 Q 354 272 353 270 Q 353 269 353 269 Q 353 268 353 268 L 352 268 L 352 268 Q 352 268 352 268 Q 352 268 352 268 Q 349 256 336 256 Q 324 257 321 269 L 337 272 Q 326 270 323 270 Q 321 269 321 269 L 321 269 L 321 269 L 321 270 L 321 270 L 321 270 L 321 271 Q 321 271 321 272 Q 321 273 321 275 Q 320 279 320 287 Q 319 303 326 325 Q 332 348 354 366 Q 377 384 417 384 Q 458 383 485 356 Q 512 329 513 288 L 513 192 Q 512 151 485 124 Q 458 97 417 96 L 412 96 Q 372 97 344 124 L 317 151 Q 308 160 295 160 L 246 160 Q 257 138 257 112 Q 256 64 224 33 Q 193 1 145 0 Q 107 1 78 22 Q 67 31 65 43 Q 64 56 71 67 Q 80 78 92 80 Q 105 81 116 74 L 116 74 Z"/>
</svg>
