<svg xmlns="http://www.w3.org/2000/svg" viewBox="0 0 256 192">
    <path d="M 224 128 Q 210 128 201 119 L 201 119 Q 192 110 192 96 L 192 32 Q 192 18 201 9 Q 210 0 224 0 Q 238 0 247 9 Q 256 18 256 32 L 256 96 Q 256 110 247 119 Q 238 128 224 128 L 224 128 Z M 96 128 L 96 64 Q 96 50 105 41 Q 114 32 128 32 Q 142 32 151 41 Q 160 50 160 64 L 160 128 Q 160 142 151 151 Q 142 160 128 160 Q 114 160 105 151 Q 96 142 96 128 L 96 128 Z M 0 160 L 0 112 Q 0 98 9 89 Q 18 80 32 80 Q 46 80 55 89 Q 64 98 64 112 L 64 160 Q 64 174 55 183 Q 46 192 32 192 Q 18 192 9 183 Q 0 174 0 160 L 0 160 Z"/>
</svg>
