<svg xmlns="http://www.w3.org/2000/svg" viewBox="0 0 389 198">
    <path d="M 101 0 Q 116 1 123 13 L 195 157 Q 202 178 184 190 Q 163 197 152 179 L 142 160 L 60 160 L 51 179 Q 39 198 18 190 Q 0 178 8 157 L 80 13 Q 87 1 101 0 L 101 0 Z M 80 120 L 122 120 L 101 78 L 80 120 L 80 120 Z M 213 24 Q 215 2 237 0 L 293 0 Q 334 1 361 28 Q 388 55 389 96 Q 388 137 361 164 Q 334 191 293 192 L 237 192 Q 215 190 213 168 L 213 24 L 213 24 Z M 261 48 L 261 144 L 293 144 Q 313 143 327 130 Q 340 116 341 96 Q 340 76 327 62 Q 313 49 293 48 L 261 48 L 261 48 Z"/>
</svg>
