<svg xmlns="http://www.w3.org/2000/svg" viewBox="0 0 512 512">
    <path d="M 256 0 Q 235 2 232 22 Q 215 10 200 23 Q 186 39 198 56 Q 178 59 176 80 Q 178 101 198 104 Q 186 121 199 137 Q 215 150 232 138 Q 235 158 256 160 Q 277 158 280 138 Q 297 150 313 137 Q 326 121 314 104 Q 334 101 336 80 Q 334 59 314 56 Q 326 39 313 24 Q 297 10 280 22 Q 277 2 256 0 L 256 0 Z M 48 416 Q 28 417 14 430 L 14 430 Q 1 444 0 464 Q 1 484 14 498 Q 28 511 48 512 L 464 512 Q 484 511 498 498 Q 511 484 512 464 Q 511 444 498 430 Q 484 417 464 416 L 48 416 L 48 416 Z"/>
</svg>
