<svg xmlns="http://www.w3.org/2000/svg" viewBox="0 0 428 428">
    <path d="M 0 182 Q 12 110 61 61 L 61 61 Q 110 12 182 0 L 182 65 Q 138 75 107 107 Q 75 138 65 182 L 0 182 L 0 182 Z M 0 246 L 65 246 Q 75 290 107 321 Q 138 353 182 363 L 182 428 Q 110 416 61 367 Q 12 318 0 246 L 0 246 Z M 246 428 L 246 363 Q 290 353 321 321 Q 353 290 363 246 L 428 246 Q 416 318 367 367 Q 317 416 246 428 L 246 428 Z M 428 182 L 363 182 Q 353 138 321 107 Q 290 75 246 65 L 246 0 Q 318 12 367 61 Q 416 111 428 182 L 428 182 Z"/>
</svg>
