<svg xmlns="http://www.w3.org/2000/svg" viewBox="0 0 416 386">
    <path d="M 64 0 Q 37 1 19 19 L 19 19 Q 1 37 0 64 L 0 256 Q 1 283 19 301 Q 37 319 64 320 L 96 320 L 96 368 Q 96 378 105 382 Q 114 386 122 381 L 203 320 L 352 320 Q 379 319 397 301 Q 415 283 416 256 L 416 64 Q 415 37 397 19 Q 379 1 352 0 L 64 0 L 64 0 Z M 136 92 Q 148 63 180 61 L 229 61 Q 251 62 266 77 Q 281 92 281 114 Q 280 144 255 160 L 228 175 Q 226 193 208 195 Q 190 193 188 175 L 188 164 Q 188 152 198 146 L 235 125 Q 241 121 241 114 Q 240 102 229 101 L 180 101 Q 176 102 174 106 L 174 107 Q 166 123 148 119 Q 131 111 136 94 L 136 93 L 136 92 Z M 181 248 Q 181 232 194 224 Q 208 216 222 224 Q 235 232 235 248 Q 235 264 222 272 Q 208 280 194 272 Q 181 264 181 248 L 181 248 Z"/>
</svg>
