<svg xmlns="http://www.w3.org/2000/svg" viewBox="0 0 512 368">
    <path d="M 160 0 Q 175 1 176 16 L 176 32 Q 183 33 189 34 L 194 25 Q 202 12 215 18 Q 228 25 222 39 L 219 46 Q 244 62 256 90 Q 268 62 293 46 L 290 39 Q 284 25 297 18 Q 311 12 318 25 L 323 34 Q 330 33 336 32 L 336 16 Q 338 1 352 0 Q 367 1 368 16 L 368 35 Q 376 37 382 40 L 386 33 Q 394 20 407 26 Q 420 33 415 47 L 409 58 Q 427 74 435 96 L 496 96 Q 511 97 512 112 Q 511 127 496 128 L 440 128 Q 439 166 415 193 Q 390 219 353 224 Q 368 236 368 256 Q 367 281 345 294 L 365 318 Q 373 330 362 341 Q 350 349 340 338 L 316 308 L 308 312 L 319 338 Q 323 352 310 359 Q 296 363 289 350 L 279 325 Q 276 326 272 327 L 272 352 Q 271 367 256 368 Q 241 367 240 352 L 240 327 Q 236 326 233 325 L 223 350 Q 216 363 202 359 Q 189 352 193 338 L 204 312 L 196 308 L 173 338 Q 162 349 150 341 Q 139 330 148 318 L 167 294 Q 145 281 144 256 Q 144 236 159 224 Q 122 219 97 193 Q 73 166 72 128 L 16 128 Q 1 127 0 112 Q 1 97 16 96 L 78 96 Q 86 73 103 58 L 98 47 Q 92 34 105 26 Q 119 20 126 33 L 130 40 Q 137 37 144 35 L 144 16 Q 146 1 160 0 L 160 0 Z M 318 187 Q 330 192 344 192 Q 371 191 389 173 Q 407 155 408 128 Q 407 101 389 83 Q 371 65 344 64 Q 317 65 299 83 Q 281 101 280 128 Q 280 132 280 135 Q 289 141 294 149 L 315 185 Q 317 186 318 186 L 318 187 Z M 232 128 Q 231 101 213 83 L 213 83 Q 195 65 168 64 Q 141 65 123 83 Q 105 101 104 128 Q 105 155 123 173 Q 141 191 168 192 Q 182 192 194 187 Q 194 186 195 186 Q 196 186 197 185 L 218 150 Q 223 141 232 135 Q 232 132 232 128 L 232 128 Z M 256 160 Q 249 160 246 166 L 206 232 L 203 236 L 199 238 L 181 247 Q 176 250 176 256 Q 176 262 181 265 L 235 291 Q 256 301 277 291 L 331 265 Q 336 262 336 256 Q 336 250 331 247 L 313 238 L 309 236 L 306 232 L 267 166 Q 263 160 256 160 L 256 160 Z M 144 136 Q 146 114 168 112 Q 190 114 192 136 Q 190 158 168 160 Q 146 158 144 136 L 144 136 Z M 344 112 Q 366 114 368 136 Q 366 158 344 160 Q 322 158 320 136 Q 322 114 344 112 L 344 112 Z"/>
</svg>
