<svg xmlns="http://www.w3.org/2000/svg" viewBox="0 0 288 288">
    <path d="M 224 234 Q 253 217 270 189 L 270 189 Q 288 162 288 128 Q 286 74 246 37 Q 205 1 144 0 Q 83 1 42 37 Q 2 74 0 128 Q 0 162 18 189 Q 35 217 64 234 L 64 256 Q 64 270 73 279 Q 82 288 96 288 L 192 288 Q 206 288 215 279 Q 224 270 224 256 L 224 234 L 224 234 Z M 56 144 Q 56 130 65 121 L 65 121 Q 74 112 88 112 Q 102 112 111 121 Q 120 130 120 144 Q 120 158 111 167 Q 102 176 88 176 Q 74 176 65 167 Q 56 158 56 144 L 56 144 Z M 200 112 Q 214 112 223 121 L 223 121 Q 232 130 232 144 Q 232 158 223 167 Q 214 176 200 176 Q 186 176 177 167 Q 168 158 168 144 Q 168 130 177 121 Q 186 112 200 112 L 200 112 Z"/>
</svg>
