<svg xmlns="http://www.w3.org/2000/svg" viewBox="0 0 352 256">
    <path d="M 16 0 Q 1 1 0 16 L 0 48 Q 1 63 16 64 L 48 64 Q 63 63 64 48 L 64 16 Q 63 1 48 0 L 16 0 L 16 0 Z M 16 192 Q 1 193 0 208 L 0 240 Q 1 255 16 256 L 48 256 Q 63 255 64 240 L 64 208 Q 63 193 48 192 L 16 192 L 16 192 Z M 48 112 L 48 144 Q 49 159 64 160 L 96 160 Q 111 159 112 144 L 112 112 Q 111 97 96 96 L 64 96 Q 49 97 48 112 L 48 112 Z M 112 0 Q 97 1 96 16 L 96 48 Q 97 63 112 64 L 144 64 Q 159 63 160 48 L 160 16 Q 159 1 144 0 L 112 0 L 112 0 Z M 144 112 L 144 144 Q 145 159 160 160 L 192 160 Q 207 159 208 144 L 208 112 Q 207 97 192 96 L 160 96 Q 145 97 144 112 L 144 112 Z M 208 0 Q 193 1 192 16 L 192 48 Q 193 63 208 64 L 240 64 Q 255 63 256 48 L 256 16 Q 255 1 240 0 L 208 0 L 208 0 Z M 240 112 L 240 144 Q 241 159 256 160 L 288 160 Q 303 159 304 144 L 304 112 Q 303 97 288 96 L 256 96 Q 241 97 240 112 L 240 112 Z M 304 0 Q 289 1 288 16 L 288 48 Q 289 63 304 64 L 336 64 Q 351 63 352 48 L 352 16 Q 351 1 336 0 L 304 0 L 304 0 Z M 288 208 L 288 240 Q 289 255 304 256 L 336 256 Q 351 255 352 240 L 352 208 Q 351 193 336 192 L 304 192 Q 289 193 288 208 L 288 208 Z M 112 192 Q 97 193 96 208 L 96 240 Q 97 255 112 256 L 240 256 Q 255 255 256 240 L 256 208 Q 255 193 240 192 L 112 192 L 112 192 Z"/>
</svg>
