<svg xmlns="http://www.w3.org/2000/svg" viewBox="0 0 556 512">
    <path d="M 321 384 L 115 384 L 115 251 Q 98 256 79 256 Q 71 256 63 255 L 63 255 Q 57 254 51 253 L 51 384 L 51 448 Q 52 475 70 493 Q 88 511 115 512 L 435 512 Q 455 512 470 502 L 321 384 L 321 384 Z M 4 135 Q 0 166 17 192 L 17 192 Q 34 218 67 223 Q 73 224 79 224 Q 96 224 110 218 L 4 135 L 4 135 Z M 435 351 L 499 401 L 499 384 L 499 253 Q 493 254 487 255 L 487 255 Q 479 256 470 256 Q 452 256 435 251 L 435 351 L 435 351 Z M 50 49 L 256 211 Q 267 204 275 195 Q 300 223 340 224 Q 381 223 405 195 Q 430 223 471 224 Q 477 224 483 223 Q 525 215 541 178 Q 556 141 535 104 L 477 13 Q 469 0 453 0 L 97 0 Q 81 0 73 13 L 50 49 L 50 49 Z"/>
</svg>
