<svg xmlns="http://www.w3.org/2000/svg" viewBox="0 0 512 453">
    <path d="M 15 0 L 1 42 Q 0 45 0 48 Q 2 67 21 69 L 128 69 L 128 5 L 32 5 Q 22 5 15 0 L 15 0 Z M 160 5 L 160 69 L 491 69 Q 510 67 512 48 Q 512 45 511 42 L 497 0 Q 489 5 480 5 L 160 5 L 160 5 Z M 24 101 L 1 170 Q 0 173 0 176 Q 2 195 21 197 L 99 197 Q 107 176 128 168 L 128 101 L 24 101 L 24 101 Z M 144 261 Q 111 259 99 229 L 24 229 L 1 298 Q 0 301 0 304 Q 2 323 21 325 L 491 325 Q 510 323 512 304 Q 512 301 511 298 L 488 229 L 189 229 Q 177 259 144 261 L 144 261 Z M 160 168 Q 181 176 189 197 L 491 197 Q 510 195 512 176 Q 512 173 511 170 L 488 101 L 160 101 L 160 168 L 160 168 Z M 21 453 L 491 453 Q 510 451 512 432 Q 512 429 511 426 L 488 357 L 24 357 L 1 426 Q 0 429 0 432 Q 2 451 21 453 L 21 453 Z"/>
</svg>
