<svg xmlns="http://www.w3.org/2000/svg" viewBox="0 0 416 416">
    <path d="M 320 64 Q 334 64 343 73 L 343 73 Q 352 82 352 96 Q 352 110 343 119 Q 334 128 320 128 Q 306 128 297 119 Q 288 110 288 96 Q 288 82 297 73 Q 306 64 320 64 L 320 64 Z M 320 192 Q 346 192 368 179 L 368 179 Q 390 166 403 144 Q 416 121 416 96 Q 416 71 403 48 Q 390 26 368 13 Q 346 0 320 0 Q 294 0 272 13 Q 250 26 237 48 Q 224 71 224 96 Q 224 121 237 144 Q 250 166 272 179 Q 294 192 320 192 L 320 192 Z M 48 96 Q 33 97 32 112 L 32 323 Q 2 335 0 368 Q 1 388 14 402 Q 28 415 48 416 Q 68 415 82 402 Q 95 388 96 368 Q 94 335 64 323 L 64 112 Q 63 97 48 96 L 48 96 Z"/>
</svg>
