<svg xmlns="http://www.w3.org/2000/svg" viewBox="0 0 320 384">
    <path d="M 64 160 L 176 160 Q 196 159 210 146 Q 223 132 224 112 Q 223 92 210 78 Q 196 65 176 64 L 64 64 L 64 160 L 64 160 Z M 0 202 L 0 160 L 0 38 Q 0 22 11 11 Q 22 0 38 0 L 176 0 Q 224 1 255 33 Q 287 64 288 112 Q 287 149 267 177 Q 291 192 306 217 Q 320 242 320 272 Q 319 320 287 351 Q 256 383 208 384 L 42 384 Q 24 384 12 372 Q 0 360 0 342 L 0 224 L 0 202 L 0 202 Z M 176 224 L 64 224 L 64 320 L 208 320 Q 228 319 242 306 Q 255 292 256 272 Q 255 252 242 238 Q 228 225 208 224 L 176 224 L 176 224 Z"/>
</svg>
