<svg xmlns="http://www.w3.org/2000/svg" viewBox="0 0 320 512">
    <path d="M 0 48 Q 1 28 14 14 L 14 14 Q 28 1 48 0 L 272 0 Q 292 1 306 14 Q 319 28 320 48 L 320 464 Q 319 484 306 498 Q 292 511 272 512 L 55 512 Q 64 498 64 480 L 64 128 Q 63 101 45 83 Q 27 65 0 64 L 0 48 L 0 48 Z M 168 80 Q 153 81 152 96 L 152 120 L 128 120 Q 113 121 112 136 L 112 152 Q 113 167 128 168 L 152 168 L 152 192 Q 153 207 168 208 L 184 208 Q 199 207 200 192 L 200 168 L 224 168 Q 239 167 240 152 L 240 136 Q 239 121 224 120 L 200 120 L 200 96 Q 199 81 184 80 L 168 80 L 168 80 Z M 320 288 L 176 288 Q 161 287 160 272 Q 161 257 176 256 L 320 256 L 320 288 L 320 288 Z M 320 384 L 320 352 L 176 352 Q 161 353 160 368 Q 161 383 176 384 L 320 384 L 320 384 Z"/>
</svg>
