<svg xmlns="http://www.w3.org/2000/svg" viewBox="0 0 507 512">
    <path d="M 480 230 L 507 203 Q 486 114 418 58 Q 350 2 256 0 Q 184 1 127 35 Q 69 69 35 127 Q 1 184 0 256 Q 1 328 35 385 Q 69 443 127 477 Q 184 511 256 512 Q 328 511 386 477 Q 444 442 478 384 Q 454 383 435 365 L 371 301 Q 352 282 352 256 Q 352 231 371 211 Q 391 192 416 192 Q 442 192 461 211 L 480 230 L 480 230 Z M 256 128 Q 278 130 280 152 L 280 264 Q 278 286 256 288 Q 234 286 232 264 L 232 152 Q 234 130 256 128 L 256 128 Z M 224 352 Q 224 338 233 329 L 233 329 Q 242 320 256 320 Q 270 320 279 329 Q 288 338 288 352 Q 288 366 279 375 Q 270 384 256 384 Q 242 384 233 375 Q 224 366 224 352 L 224 352 Z"/>
</svg>
