<svg xmlns="http://www.w3.org/2000/svg" viewBox="0 0 320 320">
    <path d="M 184 24 Q 182 2 160 0 Q 138 2 136 24 Q 134 46 116 54 Q 98 62 81 47 Q 64 33 47 47 Q 33 64 47 81 Q 62 98 54 116 Q 46 134 24 136 Q 2 138 0 160 Q 2 182 24 184 Q 46 186 54 204 Q 62 222 47 239 Q 33 256 47 273 Q 64 287 81 273 Q 98 259 116 266 Q 134 274 136 296 Q 138 318 160 320 Q 182 318 184 296 Q 186 274 204 266 Q 222 259 239 273 Q 256 287 273 273 Q 287 256 273 239 Q 258 222 266 204 Q 274 186 296 184 Q 318 182 320 160 Q 318 138 296 136 Q 274 134 266 116 Q 259 98 273 81 Q 287 64 273 47 Q 256 33 239 47 Q 222 62 204 54 Q 186 46 184 24 L 184 24 Z M 97 129 Q 97 116 106 107 L 106 107 Q 115 98 129 98 Q 142 98 151 107 Q 160 116 160 129 Q 160 143 151 152 Q 142 161 129 161 Q 115 161 106 152 Q 97 143 97 129 L 97 129 Z M 192 169 Q 214 171 216 193 Q 214 215 192 217 Q 170 215 168 193 Q 170 171 192 169 L 192 169 Z"/>
</svg>
