<svg xmlns="http://www.w3.org/2000/svg" viewBox="0 0 64 256">
    <path d="M 32 256 Q 18 256 9 247 L 9 247 Q 0 238 0 224 Q 0 210 9 201 Q 18 192 32 192 Q 46 192 55 201 Q 64 210 64 224 Q 64 238 55 247 Q 46 256 32 256 L 32 256 Z M 32 160 Q 18 160 9 151 L 9 151 Q 0 142 0 128 Q 0 114 9 105 Q 18 96 32 96 Q 46 96 55 105 Q 64 114 64 128 Q 64 142 55 151 Q 46 160 32 160 L 32 160 Z M 0 32 Q 0 18 9 9 L 9 9 Q 18 0 32 0 Q 46 0 55 9 Q 64 18 64 32 Q 64 46 55 55 Q 46 64 32 64 Q 18 64 9 55 Q 0 46 0 32 L 0 32 Z"/>
</svg>
