<svg xmlns="http://www.w3.org/2000/svg" viewBox="0 0 640 385">
    <path d="M 88 25 Q 118 0 152 1 L 155 1 Q 186 1 211 18 L 215 20 Q 255 49 256 98 Q 256 133 233 160 L 214 180 Q 194 204 196 235 L 201 276 Q 204 321 175 352 Q 147 384 102 385 Q 66 384 40 362 Q 13 341 7 304 Q 1 265 0 225 Q 3 147 32 97 Q 62 47 88 25 L 88 25 Z M 552 25 Q 578 47 608 97 L 608 97 Q 637 147 640 225 Q 639 265 633 304 Q 627 341 600 363 Q 573 384 538 385 Q 493 384 464 353 Q 436 321 439 277 L 444 235 Q 446 204 426 180 L 407 160 Q 384 133 384 98 Q 385 49 426 20 L 429 18 Q 454 1 485 1 L 488 1 Q 522 0 552 25 L 552 25 Z"/>
</svg>
