<svg xmlns="http://www.w3.org/2000/svg" viewBox="0 0 576 416">
    <path d="M 110 163 L 121 104 Q 129 65 167 53 L 360 2 Q 368 0 376 0 L 379 0 Q 403 0 420 15 Q 437 29 442 52 L 471 201 L 474 216 L 477 236 L 495 240 Q 548 255 571 304 Q 576 315 576 328 L 576 336 Q 575 356 562 370 Q 548 383 528 384 L 527 384 Q 517 384 509 378 L 241 191 Q 197 160 143 160 Q 126 160 110 163 L 110 163 Z M 85 416 Q 49 415 25 391 L 25 391 Q 1 367 0 331 Q 0 308 11 287 L 20 268 Q 38 233 71 213 Q 103 192 143 192 Q 187 192 223 217 L 490 404 Q 507 416 527 416 L 512 416 L 85 416 L 85 416 Z M 528 416 Q 530 416 532 416 L 532 416 Q 534 416 536 416 L 536 416 L 528 416 L 528 416 Z"/>
</svg>
