<svg xmlns="http://www.w3.org/2000/svg" viewBox="0 0 578 516">
    <path d="M 353 120 L 352 115 L 352 130 L 224 130 L 224 98 L 352 98 L 352 23 Q 355 21 360 20 L 421 3 Q 434 0 445 6 Q 456 13 460 26 L 476 87 L 353 120 L 353 120 Z M 362 151 L 484 118 L 550 365 L 428 398 L 362 151 L 362 151 Z M 436 429 L 559 396 L 575 457 Q 578 470 572 481 Q 565 492 552 496 L 491 513 Q 478 516 467 510 Q 456 503 452 490 L 436 429 L 436 429 Z M 192 98 L 192 130 L 64 130 L 64 98 L 192 98 L 192 98 Z M 64 418 L 64 386 L 192 386 L 192 418 L 64 418 L 64 418 Z M 224 386 L 352 386 L 352 418 L 224 418 L 224 386 L 224 386 Z M 64 178 Q 65 163 80 162 L 112 162 Q 127 163 128 178 L 128 226 L 176 226 Q 191 227 192 242 L 192 274 Q 191 289 176 290 L 128 290 L 128 338 Q 127 353 112 354 L 80 354 Q 65 353 64 338 L 64 290 L 16 290 Q 1 289 0 274 L 0 242 Q 1 227 16 226 L 64 226 L 64 178 L 64 178 Z"/>
</svg>
