<svg xmlns="http://www.w3.org/2000/svg" viewBox="0 0 640 448">
    <path d="M 158 64 Q 118 65 92 92 L 92 92 Q 65 118 64 158 L 64 416 Q 64 430 55 439 Q 46 448 32 448 Q 18 448 9 439 Q 0 430 0 416 L 0 158 Q 2 91 46 46 Q 91 2 158 0 Q 197 0 231 18 Q 265 36 288 68 L 417 254 Q 441 287 483 288 L 496 288 Q 530 287 553 265 Q 575 242 576 208 Q 576 183 563 164 Q 550 144 528 135 L 528 232 Q 526 254 504 256 Q 482 254 480 232 L 480 129 Q 459 131 439 141 L 432 145 L 432 219 L 358 112 L 409 85 Q 448 64 492 64 L 496 64 Q 557 66 598 106 Q 638 147 640 208 Q 640 212 640 216 L 640 216 L 640 416 Q 640 430 631 439 Q 622 448 608 448 Q 594 448 585 439 Q 576 430 576 416 L 576 328 Q 541 351 496 352 L 483 352 Q 447 352 416 336 Q 385 319 364 290 L 235 104 Q 207 65 158 64 L 158 64 Z"/>
</svg>
