<svg xmlns="http://www.w3.org/2000/svg" viewBox="0 0 480 256">
    <path d="M 176 0 Q 156 1 142 14 L 142 14 Q 129 28 128 48 L 128 104 Q 130 126 152 128 L 200 128 Q 222 126 224 104 L 224 48 Q 223 28 210 14 Q 196 1 176 0 L 176 0 Z M 304 0 Q 284 1 270 14 L 270 14 Q 257 28 256 48 L 256 104 Q 258 126 280 128 L 328 128 Q 350 126 352 104 L 352 48 Q 351 28 338 14 Q 324 1 304 0 L 304 0 Z M 0 80 L 0 104 Q 2 126 24 128 L 72 128 Q 94 126 96 104 L 96 80 Q 95 60 82 46 Q 68 33 48 32 Q 28 33 14 46 Q 1 60 0 80 L 0 80 Z M 48 256 Q 68 255 82 242 L 82 242 Q 95 228 96 208 L 96 184 Q 94 162 72 160 L 24 160 Q 2 162 0 184 L 0 208 Q 1 228 14 242 Q 28 255 48 256 L 48 256 Z M 128 208 Q 129 228 142 242 L 142 242 Q 156 255 176 256 Q 196 255 210 242 Q 223 228 224 208 L 224 184 Q 222 162 200 160 L 152 160 Q 130 162 128 184 L 128 208 L 128 208 Z M 304 256 Q 324 255 338 242 L 338 242 Q 351 228 352 208 L 352 184 Q 350 162 328 160 L 280 160 Q 258 162 256 184 L 256 208 Q 257 228 270 242 Q 284 255 304 256 L 304 256 Z M 384 80 L 384 104 Q 386 126 408 128 L 456 128 Q 478 126 480 104 L 480 80 Q 479 60 466 46 Q 452 33 432 32 Q 412 33 398 46 Q 385 60 384 80 L 384 80 Z M 432 256 Q 452 255 466 242 L 466 242 Q 479 228 480 208 L 480 184 Q 478 162 456 160 L 408 160 Q 386 162 384 184 L 384 208 Q 385 228 398 242 Q 412 255 432 256 L 432 256 Z"/>
</svg>
