<svg xmlns="http://www.w3.org/2000/svg" viewBox="0 0 640 384">
    <path d="M 574 361 Q 604 341 622 309 L 622 309 Q 640 278 640 239 Q 639 185 606 146 Q 572 107 519 97 L 517 97 Q 504 95 493 102 Q 483 109 481 123 Q 479 136 486 147 Q 493 157 507 160 L 509 160 Q 538 165 557 187 Q 576 209 576 239 Q 576 267 560 288 Q 544 309 518 317 L 574 361 L 574 361 Z M 415 236 Q 447 197 448 145 Q 446 83 406 42 Q 365 2 303 0 L 145 0 Q 131 0 117 3 L 196 64 L 303 64 Q 338 65 360 88 Q 383 110 384 145 Q 383 175 365 197 L 415 236 L 415 236 Z M 447 384 L 366 320 L 337 320 Q 302 319 280 296 Q 257 274 256 239 Q 256 237 256 234 L 201 190 Q 192 213 192 239 Q 194 301 234 342 Q 275 382 337 384 L 447 384 L 447 384 Z M 30 56 Q 1 94 0 145 Q 1 199 34 238 Q 68 277 121 287 L 123 288 Q 136 289 147 282 Q 157 275 160 261 Q 161 248 154 237 Q 147 227 133 224 L 131 224 Q 102 219 83 197 Q 65 175 64 145 Q 64 116 81 96 L 30 56 L 30 56 Z"/>
</svg>
