<svg xmlns="http://www.w3.org/2000/svg" viewBox="0 0 512 320">
    <path d="M 473 7 L 480 32 L 505 39 Q 512 41 512 48 Q 512 55 505 57 L 480 64 L 473 89 Q 471 96 464 96 Q 457 96 455 89 L 448 64 L 423 57 Q 416 55 416 48 Q 416 41 423 39 L 448 32 L 455 7 Q 457 0 464 0 Q 471 0 473 7 L 473 7 Z M 57 231 L 64 256 L 89 263 Q 96 265 96 272 Q 96 279 89 281 L 64 288 L 57 313 Q 55 320 48 320 Q 41 320 39 313 L 32 288 L 7 281 Q 0 279 0 272 Q 0 265 7 263 L 32 256 L 39 231 Q 41 224 48 224 Q 55 224 57 231 L 57 231 Z"/>
</svg>
