<svg xmlns="http://www.w3.org/2000/svg" viewBox="0 0 638 510">
    <path d="M 48 14 Q 31 0 14 14 Q 0 31 14 48 L 77 111 L 39 111 Q 17 113 15 135 Q 17 157 39 159 L 135 159 Q 157 157 159 135 L 159 39 Q 157 17 135 15 Q 113 17 111 39 L 111 77 L 48 14 L 48 14 Z M 590 14 L 527 77 L 527 39 Q 525 17 503 15 Q 481 17 479 39 L 479 135 Q 481 157 503 159 L 599 159 Q 621 157 623 135 Q 621 113 599 111 L 561 111 L 624 48 Q 638 31 624 14 Q 607 0 590 14 L 590 14 Z M 14 496 Q 31 510 48 496 L 111 433 L 111 471 Q 113 493 135 495 Q 157 493 159 471 L 159 375 Q 157 353 135 351 L 39 351 Q 17 353 15 375 Q 17 397 39 399 L 77 399 L 14 462 Q 0 479 14 496 L 14 496 Z M 590 496 Q 607 510 624 496 Q 638 479 624 462 L 561 399 L 599 399 Q 621 397 623 375 Q 621 353 599 351 L 503 351 Q 481 353 479 375 L 479 471 Q 481 493 503 495 Q 525 493 527 471 L 527 433 L 590 496 L 590 496 Z"/>
</svg>
