<svg xmlns="http://www.w3.org/2000/svg" viewBox="0 0 512 448">
    <path d="M 224 0 Q 209 1 208 16 Q 209 31 224 32 L 288 32 Q 303 31 304 16 Q 303 1 288 0 L 224 0 L 224 0 Z M 224 64 Q 209 65 208 80 Q 209 95 224 96 L 288 96 Q 303 95 304 80 Q 303 65 288 64 L 224 64 L 224 64 Z M 176 128 Q 161 129 160 144 Q 161 159 176 160 L 336 160 Q 351 159 352 144 Q 351 129 336 128 L 176 128 L 176 128 Z M 144 192 Q 129 193 128 208 Q 129 223 144 224 L 368 224 Q 383 223 384 208 Q 383 193 368 192 L 144 192 L 144 192 Z M 112 256 Q 97 257 96 272 Q 97 287 112 288 L 400 288 Q 415 287 416 272 Q 415 257 400 256 L 112 256 L 112 256 Z M 176 320 Q 161 321 160 336 Q 161 351 176 352 L 336 352 Q 351 351 352 336 Q 351 321 336 320 L 176 320 L 176 320 Z M 176 384 Q 161 385 160 400 Q 161 415 176 416 L 336 416 Q 351 415 352 400 Q 351 385 336 384 L 176 384 L 176 384 Z M 480 160 L 473 135 Q 471 128 464 128 Q 457 128 455 135 L 448 160 L 423 167 Q 416 169 416 176 Q 416 183 423 185 L 448 192 L 455 217 Q 457 224 464 224 Q 471 224 473 217 L 480 192 L 505 185 Q 512 183 512 176 Q 512 169 505 167 L 480 160 L 480 160 Z M 57 359 Q 55 352 48 352 Q 41 352 39 359 L 32 384 L 7 391 Q 0 393 0 400 Q 0 407 7 409 L 32 416 L 39 441 Q 41 448 48 448 Q 55 448 57 441 L 64 416 L 89 409 Q 96 407 96 400 Q 96 393 89 391 L 64 384 L 57 359 L 57 359 Z"/>
</svg>
