<svg xmlns="http://www.w3.org/2000/svg" viewBox="0 0 192 240">
    <path d="M 128 96 Q 128 110 119 119 L 119 119 Q 110 128 96 128 Q 82 128 73 119 Q 64 110 64 96 Q 64 82 73 73 Q 82 64 96 64 Q 110 64 119 73 Q 128 82 128 96 L 128 96 Z M 96 0 Q 55 1 28 28 L 28 28 Q 1 55 0 96 Q 2 148 43 176 L 32 176 Q 18 176 9 185 Q 0 194 0 208 Q 0 222 9 231 Q 18 240 32 240 L 160 240 Q 174 240 183 231 Q 192 222 192 208 Q 192 194 183 185 Q 174 176 160 176 L 149 176 Q 190 148 192 96 Q 191 55 164 28 Q 137 1 96 0 L 96 0 Z"/>
</svg>
