<svg xmlns="http://www.w3.org/2000/svg" viewBox="0 0 512 288">
    <path d="M 320 0 L 480 0 Q 494 0 503 9 Q 512 18 512 32 L 512 96 Q 512 110 503 119 Q 494 128 480 128 L 320 128 Q 306 128 297 119 Q 288 110 288 96 L 288 32 Q 288 18 297 9 Q 306 0 320 0 L 320 0 Z M 0 192 Q 0 178 9 169 L 9 169 Q 18 160 32 160 L 128 160 Q 142 160 151 169 Q 160 178 160 192 L 160 256 Q 160 270 151 279 Q 142 288 128 288 L 32 288 Q 18 288 9 279 Q 0 270 0 256 L 0 192 L 0 192 Z M 192 192 Q 192 178 201 169 L 201 169 Q 210 160 224 160 L 480 160 Q 494 160 503 169 Q 512 178 512 192 L 512 256 Q 512 270 503 279 Q 494 288 480 288 L 224 288 Q 210 288 201 279 Q 192 270 192 256 L 192 192 L 192 192 Z"/>
</svg>
