<svg xmlns="http://www.w3.org/2000/svg" viewBox="0 0 448 384">
    <path d="M 224 0 Q 182 0 148 23 L 111 48 Q 86 64 57 64 L 32 64 Q 18 64 9 73 Q 0 82 0 96 L 0 160 Q 1 223 31 273 Q 60 324 111 353 Q 161 383 224 384 Q 287 383 337 353 Q 388 324 417 273 Q 447 223 448 160 L 448 96 Q 448 82 439 73 Q 430 64 416 64 L 391 64 Q 362 64 338 48 L 300 23 Q 266 0 224 0 L 224 0 Z M 96 144 Q 97 129 112 128 L 336 128 Q 351 129 352 144 Q 351 159 336 160 L 112 160 Q 97 159 96 144 L 96 144 Z M 112 192 L 336 192 Q 351 193 352 208 Q 351 223 336 224 L 112 224 Q 97 223 96 208 Q 97 193 112 192 L 112 192 Z M 128 272 Q 129 257 144 256 L 304 256 Q 319 257 320 272 Q 319 287 304 288 L 144 288 Q 129 287 128 272 L 128 272 Z"/>
</svg>
