<svg xmlns="http://www.w3.org/2000/svg" viewBox="0 0 320 356">
    <path d="M 114 8 Q 124 0 134 8 Q 163 34 189 65 Q 201 50 216 36 Q 226 28 236 36 Q 273 72 296 117 Q 319 161 320 194 Q 319 262 273 308 Q 228 354 160 356 Q 91 354 47 308 Q 2 261 0 194 Q 2 153 33 103 Q 63 53 114 7 L 114 8 Z M 161 292 Q 188 292 210 277 Q 233 260 238 233 Q 243 207 230 181 Q 227 175 223 169 L 187 211 Q 186 210 172 192 Q 158 173 143 155 Q 128 136 125 132 Q 103 159 91 178 Q 80 196 80 214 Q 81 251 104 271 Q 126 292 161 292 L 161 292 Z"/>
</svg>
