<svg xmlns="http://www.w3.org/2000/svg" viewBox="0 0 640 160">
    <path d="M 215 6 Q 223 5 230 8 Q 245 15 257 29 L 359 152 Q 362 158 355 160 L 288 160 Q 243 160 195 151 Q 148 142 108 131 Q 67 120 42 112 Q 30 108 23 105 Q 22 105 21 105 Q 19 104 18 103 L 16 103 Q 1 97 0 80 Q 1 63 16 57 L 18 57 Q 18 57 19 56 Q 21 56 23 55 Q 30 53 42 49 Q 67 40 108 29 Q 157 15 215 6 L 215 6 Z M 464 160 L 445 160 Q 408 159 384 131 L 281 8 Q 278 2 285 0 Q 285 0 286 0 Q 287 0 288 0 L 336 0 L 355 0 Q 392 1 417 29 L 519 152 Q 522 158 515 160 L 464 160 L 464 160 Z M 445 0 L 600 0 Q 617 0 628 12 Q 640 23 640 40 L 640 120 Q 640 136 629 148 Q 618 159 602 160 Q 567 158 544 131 L 441 8 Q 438 2 445 0 L 445 0 Z"/>
</svg>
