<svg xmlns="http://www.w3.org/2000/svg" viewBox="0 0 256 192">
    <path d="M 0 32 Q 0 18 9 9 L 9 9 Q 18 0 32 0 Q 46 0 55 9 Q 64 18 64 32 L 64 80 Q 64 94 55 103 Q 46 112 32 112 Q 18 112 9 103 Q 0 94 0 80 L 0 32 L 0 32 Z M 96 64 Q 96 50 105 41 L 105 41 Q 114 32 128 32 Q 142 32 151 41 Q 160 50 160 64 L 160 128 Q 160 142 151 151 Q 142 160 128 160 Q 114 160 105 151 Q 96 142 96 128 L 96 64 L 96 64 Z M 224 64 Q 238 64 247 73 L 247 73 Q 256 82 256 96 L 256 160 Q 256 174 247 183 Q 238 192 224 192 Q 210 192 201 183 Q 192 174 192 160 L 192 96 Q 192 82 201 73 Q 210 64 224 64 L 224 64 Z"/>
</svg>
