<svg xmlns="http://www.w3.org/2000/svg" viewBox="0 0 512 512">
    <path d="M 0 224 Q 1 162 31 111 L 31 111 Q 60 61 111 31 L 111 31 Q 161 1 224 0 L 248 0 Q 321 1 376 46 Q 431 91 445 160 Q 448 180 460 196 L 502 249 Q 512 261 512 276 Q 512 295 499 307 Q 487 320 468 320 L 448 320 L 448 384 Q 447 411 429 429 Q 411 447 384 448 L 320 448 L 320 480 Q 320 494 311 503 Q 302 512 288 512 L 96 512 Q 82 512 73 503 Q 64 494 64 480 L 64 407 Q 63 382 47 362 Q 1 301 0 224 L 0 224 Z M 128 189 Q 128 214 146 233 L 229 315 Q 240 325 251 315 L 334 233 Q 351 214 352 189 Q 351 163 334 146 Q 317 129 291 128 Q 265 128 247 146 L 240 153 L 232 146 Q 214 128 189 128 Q 163 129 146 146 Q 128 163 128 189 L 128 189 Z"/>
</svg>
