<svg xmlns="http://www.w3.org/2000/svg" viewBox="0 0 154 341">
    <path d="M 13 24 Q 15 2 37 0 Q 59 2 61 24 Q 59 46 37 48 Q 15 46 13 24 L 13 24 Z M 10 149 Q 21 139 32 149 L 53 169 Q 69 185 69 208 Q 69 231 53 247 L 44 256 Q 37 263 37 272 Q 37 281 44 288 L 64 309 Q 74 320 64 331 Q 53 341 42 331 L 21 311 Q 5 295 5 272 Q 5 249 21 233 L 30 224 Q 37 217 37 208 Q 37 199 30 192 L 10 171 Q 0 160 10 149 L 10 149 Z M 112 149 L 133 169 Q 149 185 149 208 Q 149 231 133 247 L 124 256 Q 117 263 117 272 Q 117 281 124 288 L 144 309 Q 154 320 144 331 Q 133 341 122 331 L 101 311 Q 85 295 85 272 Q 85 249 101 233 L 110 224 Q 117 217 117 208 Q 117 199 110 192 L 90 171 Q 80 160 90 149 Q 101 139 112 149 L 112 149 Z"/>
</svg>
