<svg xmlns="http://www.w3.org/2000/svg" viewBox="0 0 288 288">
    <path d="M 0 144 Q 0 105 19 72 L 19 72 Q 38 39 72 19 Q 106 0 144 0 Q 182 0 216 19 Q 250 39 269 72 Q 288 105 288 144 Q 288 183 269 216 Q 250 249 216 269 Q 182 288 144 288 Q 106 288 72 269 Q 38 249 19 216 Q 0 183 0 144 L 0 144 Z M 144 64 Q 129 65 128 80 L 128 128 L 80 128 Q 65 129 64 144 Q 65 159 80 160 L 128 160 L 128 208 Q 129 223 144 224 Q 159 223 160 208 L 160 160 L 208 160 Q 223 159 224 144 Q 223 129 208 128 L 160 128 L 160 80 Q 159 65 144 64 L 144 64 Z"/>
</svg>
