<svg xmlns="http://www.w3.org/2000/svg" viewBox="0 0 504 512">
    <path d="M 192 210 L 192 206 Q 192 192 202 182 L 220 164 Q 224 160 224 154 Q 224 144 234 141 L 260 132 Q 272 128 281 119 L 301 99 Q 304 96 304 91 Q 303 81 293 80 L 292 80 Q 288 80 285 82 L 243 110 Q 240 112 236 112 Q 225 111 224 100 L 224 91 Q 224 80 233 74 L 328 10 Q 294 0 256 0 Q 184 1 127 35 Q 69 69 35 127 Q 1 184 0 256 Q 1 328 35 385 Q 69 443 127 477 Q 184 511 256 512 Q 264 512 272 512 L 272 477 Q 272 458 259 445 Q 246 432 227 432 Q 208 432 195 419 L 179 403 Q 160 384 160 357 L 160 354 Q 161 320 189 301 L 216 283 Q 232 272 251 272 L 272 272 Q 296 272 314 287 L 341 310 Q 352 320 367 320 Q 384 320 396 332 L 400 336 Q 416 352 439 352 L 494 352 Q 500 336 504 320 L 447 320 Q 424 320 408 304 L 390 286 Q 384 280 384 272 Q 384 264 390 258 L 397 251 Q 400 248 400 244 Q 400 240 397 237 L 391 231 Q 384 224 375 224 L 363 224 Q 353 223 352 213 Q 352 208 355 205 L 360 200 Q 368 192 379 192 L 400 192 Q 415 191 416 176 Q 415 161 400 160 L 371 160 Q 354 162 352 179 Q 351 192 339 196 L 318 203 Q 306 209 311 221 L 312 224 Q 316 237 302 240 Q 296 240 292 236 L 276 214 Q 272 208 265 208 Q 256 208 252 216 L 248 224 Q 240 239 222 240 Q 209 240 201 231 Q 192 223 192 210 L 192 210 Z M 187 123 L 155 155 Q 144 165 133 155 Q 123 144 133 133 L 165 101 Q 176 91 187 101 Q 197 112 187 123 L 187 123 Z"/>
</svg>
