<svg xmlns="http://www.w3.org/2000/svg" viewBox="0 0 320 224">
    <path d="M 21 7 L 3 50 Q 0 56 0 63 L 0 64 Q 0 78 9 87 Q 18 96 32 96 Q 46 96 55 87 Q 64 78 64 64 L 64 63 Q 64 56 61 50 L 43 7 Q 40 0 32 0 Q 24 0 21 7 L 21 7 Z M 131 50 Q 128 56 128 63 L 128 64 Q 128 78 137 87 Q 146 96 160 96 Q 174 96 183 87 Q 192 78 192 64 L 192 63 Q 192 56 189 50 L 171 7 Q 168 0 160 0 Q 152 0 149 7 L 130 50 L 131 50 Z M 195 178 Q 192 184 192 191 L 192 192 Q 192 206 201 215 Q 210 224 224 224 Q 238 224 247 215 Q 256 206 256 192 L 256 191 Q 256 184 253 178 L 235 135 Q 232 128 224 128 Q 216 128 213 135 L 194 178 L 195 178 Z M 277 7 L 259 50 Q 256 56 256 63 L 256 64 Q 256 78 265 87 Q 274 96 288 96 Q 302 96 311 87 Q 320 78 320 64 L 320 63 Q 320 56 317 50 L 299 7 Q 296 0 288 0 Q 280 0 277 7 L 277 7 Z M 67 178 Q 64 184 64 191 L 64 192 Q 64 206 73 215 Q 82 224 96 224 Q 110 224 119 215 Q 128 206 128 192 L 128 191 Q 128 184 125 178 L 107 135 Q 104 128 96 128 Q 88 128 85 135 L 67 178 L 67 178 Z"/>
</svg>
