<svg xmlns="http://www.w3.org/2000/svg" viewBox="0 0 512 416">
    <path d="M 48 256 Q 50 168 109 109 L 109 109 Q 168 50 256 48 Q 304 48 344 68 Q 385 87 414 121 Q 430 136 448 123 Q 463 107 450 89 Q 415 48 365 24 Q 315 0 256 0 Q 184 1 127 35 Q 69 69 35 127 Q 1 184 0 256 L 0 296 Q 2 318 24 320 Q 46 318 48 296 L 48 256 L 48 256 Z M 507 203 Q 500 182 478 185 Q 457 191 460 213 Q 464 234 464 256 L 464 296 Q 466 318 488 320 Q 510 318 512 296 L 512 256 Q 512 229 507 203 L 507 203 Z M 352 256 Q 351 215 324 188 L 324 188 Q 297 161 256 160 Q 215 161 188 188 Q 161 215 160 256 L 160 281 Q 160 335 146 387 Q 144 398 150 407 Q 156 416 168 416 Q 183 415 188 401 Q 204 342 204 281 L 204 256 Q 205 234 219 219 Q 234 205 256 204 Q 278 205 293 219 Q 307 234 308 256 L 308 281 Q 308 335 298 389 Q 296 400 302 408 Q 309 416 319 416 Q 336 415 340 399 Q 352 341 352 281 L 352 256 L 352 256 Z"/>
</svg>
