<svg xmlns="http://www.w3.org/2000/svg" viewBox="0 0 499 512">
    <path d="M 468 400 Q 432 451 378 481 L 378 481 Q 323 511 256 512 Q 184 511 127 477 Q 69 443 35 385 Q 1 328 0 256 Q 1 184 35 127 Q 69 69 127 35 Q 184 1 256 0 Q 342 1 408 50 Q 473 98 499 176 L 496 176 Q 462 177 439 199 Q 417 222 416 256 Q 417 283 432 304 L 352 304 Q 351 304 351 304 Q 350 304 349 304 Q 347 301 345 298 Q 338 290 328 284 Q 307 273 280 272 Q 274 272 272 278 Q 271 284 276 287 L 276 287 L 276 287 L 276 287 L 276 287 Q 276 287 277 287 Q 277 287 277 288 Q 278 288 278 288 Q 279 289 281 290 Q 285 293 291 297 Q 297 302 300 307 Q 304 313 304 316 Q 304 319 300 325 Q 297 330 291 335 Q 285 339 281 342 Q 279 343 278 344 Q 278 344 277 344 Q 277 345 277 345 Q 276 345 276 345 L 276 345 L 276 345 L 276 345 L 276 345 L 276 345 L 276 345 Q 272 347 272 352 Q 272 357 276 359 L 276 359 L 276 359 L 276 359 L 276 359 Q 276 359 277 359 Q 277 359 277 360 Q 278 360 278 360 Q 279 361 281 362 Q 285 365 291 369 Q 297 374 300 379 Q 304 385 304 388 Q 304 391 300 397 Q 297 402 291 407 Q 285 411 281 414 Q 279 415 278 416 Q 278 416 277 416 Q 277 417 277 417 Q 276 417 276 417 L 276 417 L 276 417 L 276 417 L 276 417 L 276 417 Q 271 420 272 426 Q 274 432 280 432 Q 307 431 328 420 Q 338 414 345 406 Q 347 403 349 400 Q 350 400 352 400 L 468 400 L 468 400 Z M 211 234 Q 221 245 234 237 Q 245 227 237 214 Q 212 184 176 184 Q 140 184 115 214 Q 108 227 118 237 Q 131 244 141 234 Q 155 216 176 216 Q 197 216 211 234 L 211 234 Z M 301 234 Q 315 216 336 216 L 336 216 Q 357 216 371 234 Q 381 245 394 237 Q 405 227 397 214 Q 372 184 336 184 Q 300 184 275 214 Q 268 227 278 237 Q 291 244 301 234 L 301 234 Z"/>
</svg>
