<svg xmlns="http://www.w3.org/2000/svg" viewBox="0 0 384 512">
    <path d="M 128 32 L 128 128 L 64 128 L 64 32 Q 64 18 73 9 Q 82 0 96 0 Q 110 0 119 9 Q 128 18 128 32 L 128 32 Z M 320 32 L 320 128 L 256 128 L 256 32 Q 256 18 265 9 Q 274 0 288 0 Q 302 0 311 9 Q 320 18 320 32 L 320 32 Z M 0 192 Q 0 178 9 169 L 9 169 Q 18 160 32 160 L 352 160 Q 366 160 375 169 Q 384 178 384 192 Q 384 195 383 199 Q 327 216 292 261 Q 257 307 256 368 Q 256 385 259 401 Q 242 409 224 413 L 224 480 Q 224 494 215 503 Q 206 512 192 512 Q 178 512 169 503 Q 160 494 160 480 L 160 413 Q 104 401 69 358 Q 33 315 32 256 L 32 224 Q 18 224 9 215 Q 0 206 0 192 L 0 192 Z"/>
</svg>
