<svg xmlns="http://www.w3.org/2000/svg" viewBox="0 0 512 512">
    <path d="M 489 137 Q 512 112 512 80 L 512 80 Q 512 48 489 24 Q 464 0 432 0 Q 400 0 376 24 L 24 376 Q 0 400 0 432 Q 0 464 24 489 Q 48 512 80 512 Q 112 512 137 489 L 489 137 L 489 137 Z M 443 115 Q 429 129 415 135 L 415 135 Q 401 140 389 142 L 388 142 Q 388 142 388 142 Q 368 144 355 155 Q 343 169 340 191 L 339 192 Q 337 204 332 217 Q 327 231 315 243 Q 303 255 289 260 Q 276 265 264 267 L 263 268 Q 241 271 227 283 Q 215 297 212 319 L 211 320 Q 209 332 204 345 Q 199 359 187 371 Q 175 383 163 387 Q 150 392 140 393 Q 139 393 139 393 L 137 394 Q 117 395 99 411 Q 88 421 77 411 Q 67 400 77 389 Q 91 375 105 369 Q 119 364 131 362 L 132 362 L 132 362 Q 132 362 132 362 Q 152 360 165 349 Q 177 335 180 313 L 181 312 Q 183 300 188 287 Q 193 273 205 261 Q 217 249 231 244 Q 244 239 256 237 L 257 236 Q 279 233 293 221 Q 305 207 308 185 L 309 184 L 309 184 Q 311 172 316 159 Q 321 145 333 133 Q 345 121 357 117 Q 370 112 380 111 Q 381 111 381 111 L 383 110 Q 403 109 421 93 Q 432 83 443 93 Q 453 104 443 115 L 443 115 Z"/>
</svg>
