<svg xmlns="http://www.w3.org/2000/svg" viewBox="0 0 498 274">
    <path d="M 273 153 Q 271 153 270 153 Q 278 136 274 117 L 268 93 Q 266 80 268 68 L 274 33 Q 277 15 270 1 Q 275 0 279 1 L 309 9 Q 337 17 364 8 L 377 4 Q 389 0 399 7 Q 408 14 409 26 L 409 58 Q 409 85 427 103 Q 445 120 472 121 Q 484 122 491 131 Q 498 140 494 153 L 490 166 Q 481 193 489 221 L 494 241 Q 497 255 488 264 Q 478 273 464 270 L 445 265 Q 417 257 389 266 L 377 270 Q 364 274 355 267 Q 346 260 345 248 L 345 225 Q 344 194 324 174 Q 304 154 273 153 L 273 153 Z M 89 26 Q 90 14 99 7 L 99 7 Q 108 0 121 3 L 133 8 Q 161 17 189 9 L 208 4 Q 222 1 232 10 Q 241 19 238 34 L 233 53 Q 225 81 234 109 L 238 121 Q 242 134 235 143 Q 228 152 216 153 Q 189 154 171 171 Q 154 189 153 216 L 153 248 Q 152 260 143 267 Q 134 274 121 271 L 109 266 Q 81 257 53 265 L 34 270 Q 19 273 10 264 Q 1 255 4 241 L 9 221 Q 17 193 8 165 L 4 153 Q 0 140 7 131 Q 14 122 26 121 Q 53 120 71 103 Q 88 85 89 58 L 89 26 L 89 26 Z"/>
</svg>
