<svg xmlns="http://www.w3.org/2000/svg" viewBox="0 0 416 384">
    <path d="M 96 384 Q 55 382 28 328 L 28 328 Q 1 274 0 192 Q 1 110 28 56 Q 55 2 96 0 L 416 0 Q 375 2 348 56 Q 321 110 320 192 Q 321 274 348 328 Q 375 382 416 384 L 128 384 L 96 384 L 96 384 Z M 80 208 Q 79 193 64 192 Q 49 193 48 208 Q 49 223 64 224 Q 79 223 80 208 L 80 208 Z M 144 208 Q 143 193 128 192 Q 113 193 112 208 Q 113 223 128 224 Q 143 223 144 208 L 144 208 Z M 192 224 Q 207 223 208 208 Q 207 193 192 192 Q 177 193 176 208 Q 177 223 192 224 L 192 224 Z M 272 208 Q 271 193 256 192 Q 241 193 240 208 Q 241 223 256 224 Q 271 223 272 208 L 272 208 Z"/>
</svg>
