<svg xmlns="http://www.w3.org/2000/svg" viewBox="0 0 448 352">
    <path d="M 320 16 Q 319 1 304 0 L 272 0 Q 257 1 256 16 L 256 48 Q 257 63 272 64 L 304 64 Q 319 63 320 48 L 320 16 L 320 16 Z M 48 256 Q 63 255 64 240 L 64 208 Q 63 193 48 192 L 16 192 Q 1 193 0 208 L 0 240 Q 1 255 16 256 L 48 256 L 48 256 Z M 320 240 L 320 208 Q 319 193 304 192 L 272 192 Q 257 193 256 208 L 256 240 Q 257 255 272 256 L 304 256 Q 319 255 320 240 L 320 240 Z M 448 336 L 448 304 Q 447 289 432 288 L 400 288 Q 385 289 384 304 L 384 336 Q 385 351 400 352 L 432 352 Q 447 351 448 336 L 448 336 Z M 64 336 L 64 304 Q 63 289 48 288 L 16 288 Q 1 289 0 304 L 0 336 Q 1 351 16 352 L 48 352 Q 63 351 64 336 L 64 336 Z M 176 256 Q 191 255 192 240 L 192 208 Q 191 193 176 192 L 144 192 Q 129 193 128 208 L 128 240 Q 129 255 144 256 L 176 256 L 176 256 Z M 176 0 L 144 0 Q 129 1 128 16 L 128 48 Q 129 63 144 64 L 176 64 Q 191 63 192 48 L 192 16 Q 191 1 176 0 L 176 0 Z M 320 144 L 320 112 Q 319 97 304 96 L 272 96 Q 257 97 256 112 L 256 144 Q 257 159 272 160 L 304 160 Q 319 159 320 144 L 320 144 Z M 432 256 Q 447 255 448 240 L 448 208 Q 447 193 432 192 L 400 192 Q 385 193 384 208 L 384 240 Q 385 255 400 256 L 432 256 L 432 256 Z M 64 144 L 64 112 Q 63 97 48 96 L 16 96 Q 1 97 0 112 L 0 144 Q 1 159 16 160 L 48 160 Q 63 159 64 144 L 64 144 Z M 176 160 Q 191 159 192 144 L 192 112 Q 191 97 176 96 L 144 96 Q 129 97 128 112 L 128 144 Q 129 159 144 160 L 176 160 L 176 160 Z"/>
</svg>
