<svg xmlns="http://www.w3.org/2000/svg" viewBox="0 0 508 448">
    <path d="M 0 64 Q 1 37 19 19 L 19 19 Q 37 1 64 0 L 464 0 Q 479 1 480 16 Q 479 31 464 32 L 64 32 Q 50 32 41 41 Q 32 50 32 64 Q 32 78 41 87 Q 50 96 64 96 L 64 128 Q 37 127 19 109 Q 1 91 0 64 L 0 64 Z M 288 288 L 288 96 L 320 96 L 320 288 L 288 288 L 288 288 Z M 365 297 L 498 204 Q 505 219 508 236 L 383 323 Q 378 306 365 297 L 365 297 Z M 382 347 L 473 383 Q 462 397 448 408 L 362 373 Q 377 364 382 347 L 382 347 Z M 352 377 L 352 447 Q 344 448 336 448 L 320 448 L 320 376 L 323 377 Q 338 382 352 377 L 352 377 Z"/>
</svg>
