<svg xmlns="http://www.w3.org/2000/svg" viewBox="0 0 485 516">
    <path d="M 387 0 Q 393 0 398 1 Q 409 2 412 13 Q 414 24 405 31 Q 384 42 372 62 Q 360 82 360 107 Q 361 144 386 168 Q 410 193 448 194 Q 456 194 463 193 Q 475 191 480 201 Q 485 212 477 220 Q 441 255 387 256 Q 386 256 385 256 Q 380 227 364 205 Q 347 183 322 171 Q 320 142 306 118 Q 291 94 268 80 Q 282 44 314 22 Q 346 1 387 0 L 387 0 Z M 188 228 Q 197 236 192 247 L 140 352 L 210 352 Q 221 353 225 363 Q 228 373 220 381 L 60 509 Q 50 516 40 508 Q 31 500 36 489 L 88 384 L 18 384 Q 7 383 3 373 Q 0 363 8 356 L 168 228 Q 178 220 188 228 L 188 228 Z"/>
</svg>
