<svg xmlns="http://www.w3.org/2000/svg" viewBox="0 0 512 512">
    <path d="M 512 203 Q 509 174 486 157 L 448 129 L 448 208 L 448 250 L 512 203 L 512 203 Z M 512 448 L 512 242 L 294 403 Q 277 416 256 416 Q 235 416 218 403 L 0 242 L 0 448 L 0 448 Q 1 475 19 493 Q 37 511 64 512 L 448 512 Q 475 511 493 493 Q 511 475 512 448 L 512 448 L 512 448 Z M 64 250 L 64 208 L 64 129 L 26 157 Q 3 174 0 203 L 64 250 L 64 250 Z M 290 11 Q 275 0 256 0 Q 237 0 223 11 L 194 32 L 318 32 L 290 11 L 290 11 Z M 276 104 Q 274 86 256 84 Q 238 86 236 104 L 236 118 Q 224 120 214 127 Q 190 139 188 170 Q 191 200 213 211 Q 231 221 248 225 L 250 226 Q 269 231 278 236 Q 285 241 284 244 Q 284 252 278 255 Q 270 260 257 260 Q 241 259 222 251 Q 218 250 214 249 Q 196 245 189 261 Q 185 279 202 287 Q 205 288 208 289 L 208 289 L 208 289 Q 220 294 236 297 L 236 312 Q 238 330 256 332 Q 274 330 276 312 L 276 298 Q 288 296 299 289 Q 322 276 324 244 Q 321 214 299 203 Q 281 192 262 188 L 262 187 Q 243 182 233 177 Q 227 173 228 170 Q 227 165 234 161 Q 243 156 256 156 Q 270 156 287 161 Q 305 164 311 147 Q 314 129 297 122 Q 287 120 276 118 L 276 104 L 276 104 Z"/>
</svg>
