<svg xmlns="http://www.w3.org/2000/svg" viewBox="0 0 384 320">
    <path d="M 64 0 L 320 0 Q 334 0 343 9 Q 352 18 352 32 L 352 96 Q 352 110 343 119 Q 334 128 320 128 L 64 128 Q 50 128 41 119 Q 32 110 32 96 L 32 32 Q 32 18 41 9 Q 50 0 64 0 L 64 0 Z M 0 192 Q 0 178 9 169 L 9 169 Q 18 160 32 160 L 352 160 Q 366 160 375 169 Q 384 178 384 192 Q 384 206 375 215 Q 366 224 352 224 L 352 288 Q 352 302 343 311 Q 334 320 320 320 Q 306 320 297 311 Q 288 302 288 288 L 288 224 L 96 224 L 96 288 Q 96 302 87 311 Q 78 320 64 320 Q 50 320 41 311 Q 32 302 32 288 L 32 224 Q 18 224 9 215 Q 0 206 0 192 L 0 192 Z"/>
</svg>
