<svg xmlns="http://www.w3.org/2000/svg" viewBox="0 0 576 512">
    <path d="M 224 64 L 352 64 L 352 128 L 224 128 L 224 64 L 224 64 Z M 208 0 Q 188 1 174 14 L 174 14 Q 161 28 160 48 L 160 144 Q 161 164 174 178 Q 188 191 208 192 L 368 192 Q 388 191 402 178 Q 415 164 416 144 L 416 48 Q 415 28 402 14 Q 388 1 368 0 L 208 0 L 208 0 Z M 64 384 L 192 384 L 192 448 L 64 448 L 64 384 L 64 384 Z M 48 320 Q 28 321 14 334 L 14 334 Q 1 348 0 368 L 0 464 Q 1 484 14 498 Q 28 511 48 512 L 208 512 Q 228 511 242 498 Q 255 484 256 464 L 256 368 Q 255 348 242 334 Q 228 321 208 320 L 48 320 L 48 320 Z M 384 448 L 384 384 L 512 384 L 512 448 L 384 448 L 384 448 Z M 320 368 L 320 464 Q 321 484 334 498 Q 348 511 368 512 L 528 512 Q 548 511 562 498 Q 575 484 576 464 L 576 368 Q 575 348 562 334 Q 548 321 528 320 L 368 320 Q 348 321 334 334 Q 321 348 320 368 L 320 368 Z"/>
</svg>
