<svg xmlns="http://www.w3.org/2000/svg" viewBox="0 0 516 258">
    <path d="M 373 15 Q 371 7 364 3 Q 356 0 348 5 L 258 67 L 168 5 Q 160 0 153 3 Q 145 7 143 15 L 123 123 L 15 143 Q 7 145 3 153 Q 0 160 5 168 L 67 258 L 130 258 Q 131 204 167 167 Q 204 131 258 130 Q 312 131 349 167 Q 385 204 386 258 L 449 258 L 511 168 Q 516 160 513 153 Q 509 145 501 143 L 393 123 L 373 15 L 373 15 Z M 354 258 Q 353 217 326 190 L 326 190 Q 299 163 258 162 Q 217 163 190 190 Q 163 217 162 258 L 354 258 L 354 258 Z"/>
</svg>
