<svg xmlns="http://www.w3.org/2000/svg" viewBox="0 0 176 448">
    <path d="M 102 117 Q 114 111 118 99 L 118 99 Q 122 87 117 74 Q 111 62 99 58 Q 87 53 74 59 Q 62 65 58 77 Q 54 89 59 102 Q 65 114 77 118 Q 89 122 102 117 L 102 117 Z M 61 172 Q 34 163 17 140 L 17 140 Q 0 118 0 88 Q 1 51 26 26 Q 51 1 88 0 Q 125 1 150 26 Q 175 51 176 88 Q 176 124 155 153 L 106 219 Q 97 230 85 232 Q 72 234 61 226 Q 50 217 48 205 Q 46 192 54 181 L 61 172 L 61 172 Z M 120 288 L 120 384 L 136 384 Q 150 384 159 393 Q 168 402 168 416 Q 168 430 159 439 Q 150 448 136 448 L 88 448 L 40 448 Q 26 448 17 439 Q 8 430 8 416 Q 8 402 17 393 Q 26 384 40 384 L 56 384 L 56 332 L 50 334 Q 37 338 26 333 Q 14 327 10 314 Q 6 301 11 290 Q 17 278 30 274 L 78 258 Q 93 253 107 262 Q 119 272 120 288 L 120 288 Z"/>
</svg>
