<svg xmlns="http://www.w3.org/2000/svg" viewBox="0 0 486 448">
    <path d="M 181 0 L 256 0 L 256 64 Q 256 78 265 87 Q 274 96 288 96 Q 302 96 311 87 Q 320 78 320 64 L 320 0 L 395 0 Q 416 0 432 12 Q 448 23 455 43 L 486 129 Q 442 133 413 164 Q 385 195 384 240 L 384 265 Q 354 283 352 320 L 352 448 L 320 448 L 320 384 Q 320 370 311 361 Q 302 352 288 352 Q 274 352 265 361 Q 256 370 256 384 L 256 448 L 55 448 Q 31 447 16 432 Q 1 417 0 393 Q 0 384 3 375 L 121 43 Q 128 23 144 12 Q 161 0 181 0 L 181 0 Z M 288 160 Q 274 160 265 169 L 265 169 Q 256 178 256 192 L 256 256 Q 256 270 265 279 Q 274 288 288 288 Q 302 288 311 279 Q 320 270 320 256 L 320 192 Q 320 178 311 169 Q 302 160 288 160 L 288 160 Z"/>
</svg>
