<svg xmlns="http://www.w3.org/2000/svg" viewBox="0 0 384 512">
    <path d="M 64 0 Q 37 1 19 19 L 19 19 Q 1 37 0 64 L 0 160 Q 1 187 19 205 Q 37 223 64 224 L 128 224 Q 155 223 173 205 Q 191 187 192 160 L 192 64 Q 191 37 173 19 Q 155 1 128 0 L 64 0 L 64 0 Z M 64 64 L 128 64 L 128 160 L 64 160 L 64 64 L 64 64 Z M 256 288 Q 229 289 211 307 L 211 307 Q 193 325 192 352 L 192 448 Q 193 475 211 493 Q 229 511 256 512 L 320 512 Q 347 511 365 493 Q 383 475 384 448 L 384 352 Q 383 325 365 307 Q 347 289 320 288 L 256 288 L 256 288 Z M 256 352 L 320 352 L 320 448 L 256 448 L 256 352 L 256 352 Z"/>
</svg>
