<svg xmlns="http://www.w3.org/2000/svg" viewBox="0 0 384 512">
    <path d="M 0 48 Q 1 28 14 14 L 14 14 Q 28 1 48 0 L 336 0 Q 356 1 370 14 Q 383 28 384 48 L 384 464 Q 383 484 370 498 Q 356 511 336 512 L 240 512 L 240 432 Q 239 412 226 398 Q 212 385 192 384 Q 172 385 158 398 Q 145 412 144 432 L 144 512 L 48 512 Q 28 511 14 498 Q 1 484 0 464 L 0 48 L 0 48 Z M 80 224 Q 65 225 64 240 L 64 272 Q 65 287 80 288 L 112 288 Q 127 287 128 272 L 128 240 Q 127 225 112 224 L 80 224 L 80 224 Z M 160 240 L 160 272 Q 161 287 176 288 L 208 288 Q 223 287 224 272 L 224 240 Q 223 225 208 224 L 176 224 Q 161 225 160 240 L 160 240 Z M 272 224 Q 257 225 256 240 L 256 272 Q 257 287 272 288 L 304 288 Q 319 287 320 272 L 320 240 Q 319 225 304 224 L 272 224 L 272 224 Z M 64 112 L 64 144 Q 65 159 80 160 L 112 160 Q 127 159 128 144 L 128 112 Q 127 97 112 96 L 80 96 Q 65 97 64 112 L 64 112 Z M 176 96 Q 161 97 160 112 L 160 144 Q 161 159 176 160 L 208 160 Q 223 159 224 144 L 224 112 Q 223 97 208 96 L 176 96 L 176 96 Z M 256 112 L 256 144 Q 257 159 272 160 L 304 160 Q 319 159 320 144 L 320 112 Q 319 97 304 96 L 272 96 Q 257 97 256 112 L 256 112 Z"/>
</svg>
