<svg xmlns="http://www.w3.org/2000/svg" viewBox="0 0 268 389">
    <path d="M 174 45 Q 173 22 154 10 Q 134 0 114 10 Q 95 22 94 45 Q 95 68 114 80 Q 134 90 154 80 Q 173 68 174 45 L 174 45 Z M 126 365 L 126 277 L 142 277 L 142 365 Q 144 387 166 389 Q 188 387 190 365 L 190 191 L 217 240 Q 229 259 249 250 Q 268 238 259 218 L 221 147 Q 209 126 189 114 Q 168 101 144 101 L 124 101 Q 100 101 79 114 Q 59 126 47 147 L 9 218 Q 0 238 19 250 Q 39 259 51 240 L 78 191 L 78 365 Q 80 387 102 389 Q 124 387 126 365 L 126 365 Z"/>
</svg>
