<svg xmlns="http://www.w3.org/2000/svg" viewBox="0 0 256 256">
    <path d="M 256 24 Q 254 2 232 0 Q 167 1 115 32 Q 63 63 32 115 Q 1 167 0 232 Q 2 254 24 256 Q 46 254 48 232 Q 50 154 102 102 Q 154 50 232 48 Q 254 46 256 24 L 256 24 Z M 192 224 Q 192 238 201 247 L 201 247 Q 210 256 224 256 Q 238 256 247 247 Q 256 238 256 224 Q 256 210 247 201 Q 238 192 224 192 Q 210 192 201 201 Q 192 210 192 224 L 192 224 Z M 232 96 Q 174 97 136 136 L 136 136 Q 97 174 96 232 Q 98 254 120 256 Q 142 254 144 232 Q 145 195 170 170 Q 195 145 232 144 Q 254 142 256 120 Q 254 98 232 96 L 232 96 Z"/>
</svg>
