<svg xmlns="http://www.w3.org/2000/svg" viewBox="0 0 640 224">
    <path d="M 640 24 Q 638 2 616 0 L 504 0 Q 482 2 480 24 Q 482 46 504 48 L 616 48 Q 638 46 640 24 L 640 24 Z M 432 24 Q 430 2 408 0 L 88 0 Q 66 2 64 24 Q 66 46 88 48 L 408 48 Q 430 46 432 24 L 432 24 Z M 576 112 Q 574 90 552 88 L 24 88 Q 2 90 0 112 Q 2 134 24 136 L 552 136 Q 574 134 576 112 L 576 112 Z M 88 176 Q 66 178 64 200 Q 66 222 88 224 L 200 224 Q 222 222 224 200 Q 222 178 200 176 L 88 176 L 88 176 Z M 296 176 Q 274 178 272 200 Q 274 222 296 224 L 616 224 Q 638 222 640 200 Q 638 178 616 176 L 296 176 L 296 176 Z"/>
</svg>
