<svg xmlns="http://www.w3.org/2000/svg" viewBox="0 0 320 448">
    <path d="M 160 0 Q 228 2 273 47 L 273 47 Q 318 92 320 160 Q 319 207 296 247 Q 274 288 246 317 Q 219 346 202 360 Q 193 368 198 380 L 223 429 Q 224 432 224 435 Q 223 447 211 448 L 109 448 Q 97 447 96 435 Q 96 432 97 429 L 122 380 Q 127 368 118 360 Q 101 346 74 317 Q 46 288 24 247 Q 1 207 0 160 Q 2 92 47 47 Q 92 2 160 0 L 160 0 Z M 96 144 Q 97 124 110 110 L 110 110 Q 124 97 144 96 Q 159 95 160 80 Q 159 65 144 64 Q 110 65 87 87 Q 65 110 64 144 Q 65 159 80 160 Q 95 159 96 144 L 96 144 Z"/>
</svg>
