<svg xmlns="http://www.w3.org/2000/svg" viewBox="0 0 640 512">
    <path d="M 128 0 Q 91 2 73 32 L 64 32 Q 37 33 19 51 Q 1 69 0 96 Q 1 123 19 141 Q 37 159 64 160 L 224 160 Q 251 159 269 141 Q 287 123 288 96 Q 287 69 269 51 Q 251 33 224 32 Q 204 32 188 43 Q 182 24 165 12 Q 149 0 128 0 L 128 0 Z M 416 288 Q 382 289 359 311 L 359 311 Q 337 334 336 368 L 328 368 Q 297 369 277 389 Q 257 409 256 440 Q 257 471 277 491 Q 297 511 328 512 L 568 512 Q 599 511 619 491 Q 639 471 640 440 Q 639 409 619 389 Q 599 369 568 368 L 567 368 Q 568 364 568 360 Q 567 340 554 326 Q 540 313 520 312 Q 499 313 485 327 Q 462 290 416 288 L 416 288 Z"/>
</svg>
