<svg xmlns="http://www.w3.org/2000/svg" viewBox="0 0 320 352">
    <path d="M 124 0 Q 129 0 134 4 Q 163 30 189 62 Q 201 46 216 32 Q 226 24 236 32 Q 273 68 296 113 Q 307 135 313 156 Q 320 177 320 192 Q 318 260 273 305 Q 228 350 160 352 Q 91 350 46 305 Q 2 260 0 192 Q 1 150 32 100 Q 63 50 114 4 Q 118 0 124 0 L 124 0 Z M 161 288 Q 188 288 210 273 Q 233 256 238 230 Q 243 203 230 177 Q 229 174 227 171 Q 225 168 223 165 L 187 207 Q 186 206 172 188 Q 158 170 143 151 Q 128 132 125 128 Q 103 155 91 174 Q 80 193 80 210 Q 81 247 104 267 Q 126 288 161 288 L 161 288 Z"/>
</svg>
