<svg xmlns="http://www.w3.org/2000/svg" viewBox="0 0 576 448">
    <path d="M 320 64 L 448 64 L 448 416 Q 448 430 457 439 Q 466 448 480 448 L 544 448 Q 558 448 567 439 Q 576 430 576 416 Q 576 402 567 393 Q 558 384 544 384 L 512 384 L 512 64 Q 511 37 493 19 Q 475 1 448 0 L 320 0 L 320 64 L 320 64 Z M 32 384 Q 18 384 9 393 L 9 393 Q 0 402 0 416 Q 0 430 9 439 Q 18 448 32 448 L 64 448 L 64 384 L 32 384 L 32 384 Z M 232 224 Q 242 224 249 215 L 249 215 Q 256 206 256 192 Q 256 178 249 169 Q 242 160 232 160 Q 222 160 215 169 Q 208 178 208 192 Q 208 206 215 215 Q 222 224 232 224 L 232 224 Z"/>
</svg>
