<svg xmlns="http://www.w3.org/2000/svg" viewBox="0 0 640 288">
    <path d="M 473 9 Q 464 19 464 32 L 464 32 Q 464 45 473 55 L 563 144 L 473 233 Q 464 243 464 256 Q 464 269 473 279 Q 483 288 496 288 Q 509 288 519 279 L 631 167 Q 640 157 640 144 Q 640 131 631 121 L 519 9 Q 509 0 496 0 Q 483 0 473 9 L 473 9 Z M 167 9 Q 157 0 144 0 L 144 0 Q 131 0 121 9 L 9 121 Q 0 131 0 144 Q 0 157 9 167 L 121 279 Q 131 288 144 288 Q 157 288 167 279 Q 176 269 176 256 Q 176 243 167 233 L 77 144 L 167 55 Q 176 45 176 32 Q 176 19 167 9 L 167 9 Z"/>
</svg>
