<svg xmlns="http://www.w3.org/2000/svg" viewBox="0 0 512 448">
    <path d="M 0 24 Q 2 2 24 0 L 40 0 Q 62 2 64 24 L 64 160 L 0 160 L 0 24 L 0 24 Z M 0 288 L 64 288 L 64 424 Q 62 446 40 448 L 24 448 Q 2 446 0 424 L 0 288 L 0 288 Z M 96 288 L 128 288 L 128 432 Q 127 447 112 448 Q 97 447 96 432 L 96 288 L 96 288 Z M 160 288 L 224 288 L 224 424 Q 222 446 200 448 L 184 448 Q 162 446 160 424 L 160 288 L 160 288 Z M 224 160 L 160 160 L 160 24 Q 162 2 184 0 L 200 0 Q 222 2 224 24 L 224 160 L 224 160 Z M 256 288 L 320 288 L 320 424 Q 318 446 296 448 L 280 448 Q 258 446 256 424 L 256 288 L 256 288 Z M 320 160 L 256 160 L 256 24 Q 258 2 280 0 L 296 0 Q 318 2 320 24 L 320 160 L 320 160 Z M 384 288 L 416 288 L 416 432 Q 415 447 400 448 Q 385 447 384 432 L 384 288 L 384 288 Z M 416 160 L 384 160 L 384 16 Q 385 1 400 0 Q 415 1 416 16 L 416 160 L 416 160 Z M 448 288 L 512 288 L 512 424 Q 510 446 488 448 L 472 448 Q 450 446 448 424 L 448 288 L 448 288 Z M 512 160 L 448 160 L 448 24 Q 450 2 472 0 L 488 0 Q 510 2 512 24 L 512 160 L 512 160 Z M 128 160 L 96 160 L 96 16 Q 97 1 112 0 Q 127 1 128 16 L 128 160 L 128 160 Z"/>
</svg>
