<svg xmlns="http://www.w3.org/2000/svg" viewBox="0 0 448 512">
    <path d="M 96 0 L 352 0 Q 393 1 420 28 Q 447 55 448 96 L 448 160 L 0 160 L 0 96 Q 1 55 28 28 Q 55 1 96 0 L 96 0 Z M 80 104 Q 102 102 104 80 Q 102 58 80 56 Q 58 58 56 80 Q 58 102 80 104 L 80 104 Z M 200 80 Q 198 58 176 56 Q 154 58 152 80 Q 154 102 176 104 Q 198 102 200 80 L 200 80 Z M 272 104 Q 294 102 296 80 Q 294 58 272 56 Q 250 58 248 80 Q 250 102 272 104 L 272 104 Z M 392 80 Q 390 58 368 56 Q 346 58 344 80 Q 346 102 368 104 Q 390 102 392 80 L 392 80 Z M 64 256 L 64 448 L 384 448 L 384 256 L 64 256 L 64 256 Z M 0 192 L 64 192 L 384 192 L 448 192 L 448 256 L 448 448 Q 447 475 429 493 Q 411 511 384 512 L 64 512 Q 37 511 19 493 Q 1 475 0 448 L 0 256 L 0 192 L 0 192 Z"/>
</svg>
