<svg xmlns="http://www.w3.org/2000/svg" viewBox="0 0 512 499">
    <path d="M 512 256 Q 511 342 463 407 L 463 407 Q 415 472 337 499 L 386 450 Q 399 436 400 417 Q 400 399 388 384 Q 400 369 400 351 Q 399 332 386 318 Q 384 317 383 315 Q 388 290 370 270 Q 350 252 325 257 Q 324 256 322 254 Q 307 240 288 240 Q 269 240 254 254 L 207 301 Q 192 279 164 278 Q 142 279 127 294 Q 113 308 112 330 L 112 384 L 112 417 Q 112 450 127 477 Q 69 443 35 385 Q 1 328 0 256 Q 1 184 35 127 Q 69 69 127 35 Q 184 1 256 0 Q 328 1 385 35 Q 443 69 477 127 Q 511 184 512 256 L 512 256 Z M 208 192 Q 208 178 199 169 L 199 169 Q 190 160 176 160 Q 163 160 154 169 Q 145 178 144 192 Q 145 206 154 215 Q 163 224 176 224 Q 190 224 199 215 Q 208 206 208 192 L 208 192 Z M 336 224 Q 350 224 359 215 L 359 215 Q 368 206 368 192 Q 368 178 359 169 Q 350 160 336 160 Q 323 160 314 169 Q 305 178 304 192 Q 305 206 314 215 Q 323 224 336 224 L 336 224 Z"/>
</svg>
