<svg xmlns="http://www.w3.org/2000/svg" viewBox="0 0 418 353">
    <path d="M 32 0 Q 46 0 55 9 L 55 9 Q 64 18 64 32 L 64 64 Q 65 104 87 136 Q 110 167 148 180 Q 209 199 272 185 L 377 161 Q 390 158 401 165 Q 412 172 415 185 Q 418 198 411 209 Q 404 220 391 223 L 286 247 Q 270 251 254 253 L 237 350 Q 216 345 197 332 Q 180 321 160 321 Q 140 321 123 332 Q 97 351 64 353 Q 53 352 41 349 L 62 203 Q 33 176 17 141 Q 0 105 0 64 L 0 32 Q 0 18 9 9 Q 18 0 32 0 L 32 0 Z M 128 96 Q 129 60 160 41 Q 192 23 224 41 Q 255 60 256 96 Q 255 132 224 151 Q 192 169 160 151 Q 129 132 128 96 L 128 96 Z"/>
</svg>
