<svg xmlns="http://www.w3.org/2000/svg" viewBox="0 0 320 416">
    <path d="M 109 37 Q 95 2 56 0 Q 32 1 16 16 Q 1 32 0 56 Q 1 88 27 104 Q 34 75 56 59 Q 77 43 109 37 L 109 37 Z M 320 56 Q 319 32 304 16 L 304 16 Q 288 1 264 0 Q 225 2 211 37 Q 243 43 265 59 Q 286 75 293 104 Q 319 88 320 56 L 320 56 Z M 160 224 Q 187 223 205 210 L 205 210 Q 223 196 224 176 Q 223 156 205 142 Q 187 129 160 128 Q 133 129 115 142 Q 97 156 96 176 Q 97 196 115 210 Q 133 223 160 224 L 160 224 Z M 160 192 Q 146 192 137 185 L 137 185 Q 128 178 128 168 Q 128 158 137 151 Q 146 144 160 144 Q 174 144 183 151 Q 192 158 192 168 Q 192 178 183 185 Q 174 192 160 192 L 160 192 Z M 64 416 L 256 416 Q 255 389 237 371 Q 219 353 192 352 L 128 352 Q 101 353 83 371 Q 65 389 64 416 L 64 416 Z"/>
</svg>
