<svg xmlns="http://www.w3.org/2000/svg" viewBox="0 0 226 512">
    <path d="M 114 0 Q 128 0 137 9 L 137 9 Q 146 18 146 32 L 146 50 Q 165 54 182 62 L 192 67 Q 204 74 208 86 Q 212 98 207 110 Q 200 122 188 126 Q 176 130 164 125 L 154 120 Q 138 112 122 112 L 120 112 Q 97 113 82 128 Q 66 143 66 166 Q 67 201 100 216 L 152 237 Q 186 251 206 280 Q 225 309 226 346 L 226 350 Q 225 389 203 418 Q 181 447 146 459 L 146 480 Q 146 494 137 503 Q 128 512 114 512 Q 100 512 91 503 Q 82 494 82 480 L 82 461 Q 59 455 40 442 L 16 427 Q 5 419 3 406 Q 0 394 7 382 Q 15 371 28 369 Q 40 366 52 373 L 75 389 Q 92 400 112 400 Q 133 399 147 385 Q 161 371 162 350 L 162 346 Q 160 311 128 296 L 76 275 Q 42 261 22 232 Q 2 203 2 166 Q 3 126 25 97 Q 46 67 82 54 L 82 32 Q 82 18 91 9 Q 100 0 114 0 L 114 0 Z"/>
</svg>
