<svg xmlns="http://www.w3.org/2000/svg" viewBox="0 0 578 515">
    <path d="M 528 64 Q 519 32 491 16 L 491 16 Q 463 0 430 8 L 415 12 Q 402 16 395 27 Q 389 38 392 51 L 417 142 L 96 226 L 96 187 Q 94 165 72 163 Q 50 165 48 187 L 48 451 L 32 451 Q 18 451 9 460 Q 0 469 0 483 Q 0 497 9 506 Q 18 515 32 515 L 544 515 Q 558 515 567 506 Q 576 497 576 483 Q 576 469 567 460 Q 558 451 544 451 L 96 451 L 96 292 L 433 204 L 459 298 Q 462 311 474 318 Q 485 324 498 321 L 513 317 Q 546 307 562 280 Q 578 252 570 219 L 528 64 L 528 64 Z"/>
</svg>
