<svg xmlns="http://www.w3.org/2000/svg" viewBox="0 0 456 456">
    <path d="M 243 9 Q 254 0 265 9 L 277 21 Q 302 47 310 80 Q 319 113 309 147 Q 342 137 376 145 Q 409 153 435 179 L 446 190 Q 456 202 446 213 L 435 224 Q 406 252 367 252 Q 329 252 299 224 L 277 202 L 277 202 L 231 156 Q 203 127 203 88 Q 203 50 231 21 L 243 9 L 243 9 Z M 164 111 L 175 123 Q 201 149 209 182 Q 217 215 208 248 Q 241 239 274 247 Q 307 255 333 281 L 345 292 Q 354 303 345 315 L 333 326 Q 304 354 266 354 Q 227 354 198 326 L 175 304 L 175 304 L 130 258 Q 102 229 102 190 Q 102 152 130 122 L 141 111 Q 152 102 164 111 L 164 111 Z M 39 213 Q 50 204 62 213 L 73 224 Q 99 250 107 284 Q 115 317 106 350 Q 139 341 172 349 Q 205 357 232 383 L 243 394 Q 252 405 243 417 L 232 428 Q 202 456 164 456 Q 125 456 96 428 L 73 405 Q 73 405 73 405 Q 73 405 73 405 L 28 360 Q 0 330 0 292 Q 0 254 28 224 L 39 213 L 39 213 Z"/>
</svg>
