<svg xmlns="http://www.w3.org/2000/svg" viewBox="0 0 576 384">
    <path d="M 576 192 Q 573 165 542 147 L 542 147 Q 511 129 482 128 L 112 128 L 69 70 Q 64 64 56 64 L 14 64 Q 1 65 0 78 Q 0 80 1 82 L 23 161 Q 2 168 0 192 Q 2 216 23 223 L 1 302 Q 0 304 0 306 Q 1 319 14 320 L 56 320 Q 64 320 69 314 L 112 256 L 482 256 Q 511 255 542 238 Q 573 220 576 192 L 576 192 Z M 330 63 Q 351 55 352 32 Q 352 18 343 9 Q 334 0 320 0 L 293 0 L 330 63 L 330 63 Z M 330 322 L 293 384 L 320 384 Q 334 384 343 375 Q 352 366 352 352 Q 351 329 330 322 L 330 322 Z"/>
</svg>
