<svg xmlns="http://www.w3.org/2000/svg" viewBox="0 0 456 396">
    <path d="M 135 25 Q 132 37 132 49 Q 132 73 142 93 Q 118 92 95 105 Q 85 111 77 118 Q 42 93 26 70 Q 9 46 4 33 Q 0 22 5 13 Q 10 4 22 2 Q 36 0 65 3 Q 95 6 135 25 L 135 25 Z M 379 118 Q 371 111 361 105 Q 338 93 314 93 Q 324 73 324 49 Q 324 37 321 25 Q 361 6 391 3 Q 420 0 434 2 Q 446 4 451 13 Q 456 23 452 33 Q 447 47 430 70 Q 413 93 379 118 L 379 118 Z M 173 280 Q 182 276 191 272 Q 216 257 228 232 Q 240 257 265 272 Q 274 276 283 280 Q 279 320 267 347 Q 256 374 247 386 Q 240 396 228 396 Q 217 396 209 386 Q 200 374 189 347 Q 178 320 173 280 L 173 280 Z"/>
</svg>
