<svg xmlns="http://www.w3.org/2000/svg" viewBox="0 0 416 304">
    <path d="M 0 32 Q 0 18 9 9 L 9 9 Q 18 0 32 0 L 64 0 L 112 0 L 314 0 Q 336 0 354 14 L 392 45 Q 415 64 416 95 L 416 240 Q 415 267 397 285 Q 379 303 352 304 L 159 304 Q 128 303 109 280 L 77 240 L 32 240 Q 18 240 9 231 Q 0 222 0 208 L 0 32 L 0 32 Z M 192 144 Q 206 144 215 135 L 215 135 Q 224 126 224 112 Q 224 98 215 89 Q 206 80 192 80 Q 178 80 169 89 Q 160 98 160 112 Q 160 126 169 135 Q 178 144 192 144 L 192 144 Z M 128 112 Q 128 98 119 89 L 119 89 Q 110 80 96 80 Q 82 80 73 89 Q 64 98 64 112 Q 64 126 73 135 Q 82 144 96 144 Q 110 144 119 135 Q 128 126 128 112 L 128 112 Z M 288 144 Q 302 144 311 135 L 311 135 Q 320 126 320 112 Q 320 98 311 89 Q 302 80 288 80 Q 274 80 265 89 Q 256 98 256 112 Q 256 126 265 135 Q 274 144 288 144 L 288 144 Z"/>
</svg>
