<svg xmlns="http://www.w3.org/2000/svg" viewBox="0 0 231 263">
    <path d="M 88 48 L 107 48 Q 119 49 120 61 Q 120 68 115 72 L 91 89 L 77 75 Q 72 70 72 64 Q 73 49 88 48 L 88 48 Z M 125 123 L 143 111 Q 167 92 168 61 Q 167 35 150 18 Q 133 1 107 0 L 88 0 Q 61 1 43 19 Q 25 37 24 64 Q 24 90 43 109 L 52 118 L 27 136 Q 1 156 0 190 Q 1 218 19 237 Q 38 255 66 256 L 99 256 Q 136 255 161 227 L 183 249 Q 200 263 217 249 Q 231 232 217 215 L 189 187 L 220 142 Q 230 123 214 108 Q 194 97 180 114 L 154 152 L 125 124 L 125 123 Z M 86 152 L 126 192 L 125 194 Q 115 208 99 208 L 67 208 Q 50 206 48 190 Q 48 180 56 175 L 86 152 L 86 152 Z"/>
</svg>
