<svg xmlns="http://www.w3.org/2000/svg" viewBox="0 0 512 512">
    <path d="M 512 256 Q 512 300 498 339 Q 490 337 482 336 Q 480 334 478 332 Q 460 315 436 313 Q 413 312 393 327 L 336 293 Q 315 282 297 298 Q 281 316 293 337 L 326 394 Q 311 413 312 437 Q 314 461 331 479 Q 333 481 335 483 Q 336 491 338 499 Q 299 512 256 512 Q 212 512 172 498 Q 175 490 175 482 Q 177 480 179 478 Q 197 460 198 436 Q 199 413 184 393 L 218 336 Q 229 315 213 297 Q 195 281 174 292 L 117 326 Q 98 311 74 312 Q 50 314 32 331 L 36 335 L 32 331 Q 30 333 28 335 Q 21 336 13 338 Q 0 299 0 256 Q 1 184 35 127 Q 69 69 127 35 Q 184 1 256 0 Q 328 1 385 35 Q 443 69 477 127 Q 511 184 512 256 L 512 256 Z M 96 240 Q 97 255 112 256 L 208 256 Q 223 255 224 240 Q 223 225 208 224 L 112 224 Q 97 225 96 240 L 96 240 Z M 400 256 Q 415 255 416 240 Q 415 225 400 224 L 304 224 Q 289 225 288 240 Q 289 255 304 256 L 400 256 L 400 256 Z M 389 143 Q 403 137 399 123 Q 393 110 379 113 Q 348 124 325 140 Q 302 155 293 165 Q 283 176 293 187 Q 304 197 315 187 Q 323 180 342 166 Q 362 153 389 143 L 389 143 Z M 123 143 Q 150 153 170 166 L 170 166 Q 189 180 197 187 Q 208 197 219 187 Q 229 176 219 165 Q 210 155 187 139 Q 164 124 133 113 Q 119 109 113 123 Q 109 137 123 143 L 123 143 Z"/>
</svg>
