<svg xmlns="http://www.w3.org/2000/svg" viewBox="0 0 650 360">
    <path d="M 287 77 L 287 77 L 287 77 Q 290 81 296 80 Q 301 78 301 72 Q 300 44 284 23 Q 269 2 245 0 Q 221 2 206 23 Q 190 44 189 72 Q 189 78 195 80 Q 200 81 203 77 L 203 77 L 203 77 L 203 77 L 204 77 Q 204 76 204 76 Q 204 76 204 76 Q 205 74 207 72 Q 211 68 217 62 Q 231 49 245 48 Q 259 49 273 62 Q 279 68 283 72 Q 285 74 286 76 Q 286 76 286 76 Q 286 76 286 77 L 287 77 L 287 77 L 287 77 L 287 77 Z M 74 125 Q 64 136 74 147 L 125 199 Q 129 203 125 208 Q 120 212 116 208 L 48 141 Q 37 131 26 141 Q 16 152 26 163 L 93 231 Q 97 235 93 240 Q 88 244 84 240 L 32 189 Q 21 179 10 189 Q 0 200 10 211 L 61 263 Q 65 267 61 272 Q 56 276 52 272 L 32 253 Q 21 243 10 253 Q 0 264 10 275 L 67 332 Q 95 359 134 360 Q 174 359 201 332 Q 228 305 229 265 L 229 232 L 229 178 Q 227 160 209 158 Q 191 160 189 178 L 189 198 Q 189 204 184 205 Q 180 207 175 204 L 96 125 Q 85 116 74 125 L 74 125 Z M 576 125 Q 565 115 554 125 L 475 204 Q 471 207 466 205 Q 461 204 461 198 L 461 178 Q 459 160 441 158 Q 423 160 421 178 L 421 232 L 421 265 Q 422 305 449 332 Q 476 359 516 360 Q 555 359 584 332 L 640 275 Q 650 264 640 253 Q 629 243 618 253 L 598 272 Q 594 276 589 272 Q 585 267 589 263 L 640 211 Q 650 200 640 189 Q 629 179 618 189 L 566 240 Q 562 244 557 240 Q 553 235 557 231 L 624 163 Q 634 152 624 141 Q 613 131 602 141 L 534 208 Q 530 212 525 208 Q 521 203 525 199 L 576 147 Q 586 136 576 125 L 576 125 Z M 447 77 L 447 77 L 447 77 L 447 77 Q 450 81 456 80 Q 461 78 461 72 Q 460 44 444 23 Q 429 2 405 0 Q 381 2 366 23 Q 350 44 349 72 Q 349 78 355 80 Q 360 81 363 77 L 363 77 L 363 77 L 363 77 L 364 77 Q 364 76 364 76 Q 364 76 364 76 Q 365 74 367 72 Q 371 68 377 62 Q 391 49 405 48 Q 419 49 433 62 Q 439 68 443 72 Q 445 74 446 76 Q 446 76 446 76 Q 446 76 446 77 L 447 77 L 447 77 L 447 77 Z"/>
</svg>
