<svg xmlns="http://www.w3.org/2000/svg" viewBox="0 0 598 523">
    <path d="M 299 160 Q 344 159 368 120 Q 390 80 368 40 Q 344 1 299 0 Q 254 1 230 40 Q 208 80 230 120 Q 254 159 299 160 L 299 160 Z M 91 512 Q 136 511 160 472 Q 182 432 160 392 Q 136 353 91 352 Q 46 353 22 392 Q 0 432 22 472 Q 46 511 91 512 L 91 512 Z M 379 432 Q 378 387 339 363 Q 299 341 259 363 Q 220 387 219 432 Q 220 477 259 501 Q 299 523 339 501 Q 378 477 379 432 L 379 432 Z M 507 512 Q 552 511 576 472 Q 598 432 576 392 Q 552 353 507 352 Q 462 353 438 392 Q 416 432 438 472 Q 462 511 507 512 L 507 512 Z"/>
</svg>
