<svg xmlns="http://www.w3.org/2000/svg" viewBox="0 0 416 448">
    <path d="M 64 64 L 64 152 L 64 153 Q 64 160 69 165 L 90 186 Q 95 192 90 198 L 69 219 Q 64 224 64 231 L 64 232 L 64 368 Q 65 402 87 425 Q 110 447 144 448 Q 178 447 201 425 Q 223 402 224 368 L 224 352 Q 224 338 233 329 Q 242 320 256 320 L 280 320 L 281 320 Q 288 320 293 325 L 314 346 Q 320 351 326 346 L 347 325 Q 352 320 359 320 L 360 320 L 416 320 L 416 264 L 416 263 Q 416 256 411 251 L 390 230 Q 385 224 390 218 L 411 197 Q 416 192 416 185 L 416 184 L 416 168 L 416 167 Q 416 160 411 155 L 390 134 Q 385 128 390 122 L 411 101 Q 416 96 416 89 L 416 88 L 416 64 Q 415 37 397 19 Q 379 1 352 0 L 0 0 Q 27 1 45 19 Q 63 37 64 64 L 64 64 Z"/>
</svg>
