<svg xmlns="http://www.w3.org/2000/svg" viewBox="0 0 352 384">
    <path d="M 0 32 Q 0 18 9 9 L 9 9 Q 18 0 32 0 L 64 0 Q 80 0 90 14 L 176 136 L 262 14 Q 272 0 288 0 L 320 0 Q 334 0 343 9 Q 352 18 352 32 Q 352 46 343 55 Q 334 64 320 64 L 305 64 L 215 192 L 305 320 L 320 320 Q 334 320 343 329 Q 352 338 352 352 Q 352 366 343 375 Q 334 384 320 384 L 288 384 Q 272 384 262 370 L 176 248 L 90 370 Q 80 384 64 384 L 32 384 Q 18 384 9 375 Q 0 366 0 352 Q 0 338 9 329 Q 18 320 32 320 L 47 320 L 137 192 L 47 64 L 32 64 Q 18 64 9 55 Q 0 46 0 32 L 0 32 Z"/>
</svg>
