<svg xmlns="http://www.w3.org/2000/svg" viewBox="0 0 482 515">
    <path d="M 254 3 Q 248 0 241 0 Q 234 0 228 3 L 39 83 Q 22 90 12 105 Q 1 120 1 140 Q 0 191 18 260 Q 36 329 83 394 Q 129 460 215 503 Q 241 515 267 503 Q 353 460 399 394 Q 446 329 464 260 Q 482 191 481 140 Q 481 120 470 105 Q 460 90 443 83 L 254 3 L 254 3 Z M 241 112 Q 256 113 257 128 Q 259 153 280 162 Q 301 171 320 154 Q 332 145 343 154 Q 352 166 343 177 Q 326 196 335 217 Q 344 238 369 240 Q 384 241 385 256 Q 384 271 369 272 Q 344 274 335 295 Q 326 316 343 335 Q 352 347 343 358 Q 331 367 320 358 Q 301 341 280 350 Q 259 359 257 384 Q 256 399 241 400 Q 226 399 225 384 Q 223 359 202 350 Q 181 341 162 358 Q 151 367 139 358 Q 130 346 139 335 Q 156 316 147 295 Q 138 274 113 272 Q 98 271 97 256 Q 98 241 113 240 Q 138 238 147 217 Q 156 196 139 177 Q 130 166 139 154 Q 151 145 162 154 Q 181 171 202 162 Q 223 153 225 128 Q 226 113 241 112 L 241 112 Z"/>
</svg>
