<svg xmlns="http://www.w3.org/2000/svg" viewBox="0 0 448 512">
    <path d="M 448 224 Q 447 284 420 333 L 420 333 Q 392 383 344 413 L 402 454 Q 420 468 415 490 Q 407 511 384 512 L 64 512 Q 41 511 34 490 Q 28 468 46 454 L 104 413 Q 56 383 29 333 Q 1 284 0 224 Q 1 161 31 111 Q 60 60 111 31 Q 161 1 224 0 Q 287 1 337 31 Q 388 60 417 111 Q 447 161 448 224 L 448 224 Z M 224 384 Q 267 384 304 363 L 304 363 Q 341 341 363 304 Q 384 266 384 224 Q 384 182 363 144 Q 341 107 304 85 Q 267 64 224 64 Q 181 64 144 85 Q 107 107 85 144 Q 64 182 64 224 Q 64 266 85 304 Q 107 341 144 363 Q 181 384 224 384 L 224 384 Z"/>
</svg>
