<svg xmlns="http://www.w3.org/2000/svg" viewBox="0 0 448 288">
    <path d="M 88 0 L 104 0 Q 126 2 128 24 L 128 64 L 64 64 L 64 24 Q 66 2 88 0 L 88 0 Z M 248 0 L 264 0 Q 286 2 288 24 L 288 64 L 224 64 L 224 24 Q 226 2 248 0 L 248 0 Z M 160 16 Q 161 1 176 0 Q 191 1 192 16 L 192 64 L 160 64 L 160 16 L 160 16 Z M 336 0 Q 351 1 352 16 L 352 272 Q 351 287 336 288 Q 321 287 320 272 L 320 16 Q 321 1 336 0 L 336 0 Z M 384 24 Q 386 2 408 0 L 424 0 Q 446 2 448 24 L 448 264 Q 446 286 424 288 L 408 288 Q 386 286 384 264 L 384 24 L 384 24 Z M 24 160 L 200 160 Q 222 162 224 184 L 224 200 Q 222 222 200 224 L 24 224 Q 2 222 0 200 L 0 184 Q 2 162 24 160 L 24 160 Z"/>
</svg>
