<svg xmlns="http://www.w3.org/2000/svg" viewBox="0 0 640 400">
    <path d="M 352 32 Q 352 18 343 9 L 343 9 Q 334 0 320 0 Q 306 0 297 9 Q 288 18 288 32 L 288 208 L 96 208 Q 82 208 73 199 Q 64 190 64 176 L 64 80 Q 64 66 55 57 Q 46 48 32 48 Q 18 48 9 57 Q 0 66 0 80 L 0 176 Q 1 217 28 244 Q 55 271 96 272 L 288 272 L 288 336 L 160 336 Q 146 336 137 345 Q 128 354 128 368 Q 128 382 137 391 Q 146 400 160 400 L 320 400 L 480 400 Q 494 400 503 391 Q 512 382 512 368 Q 512 354 503 345 Q 494 336 480 336 L 352 336 L 352 272 L 544 272 Q 585 271 612 244 Q 639 217 640 176 L 640 80 Q 640 66 631 57 Q 622 48 608 48 Q 594 48 585 57 Q 576 66 576 80 L 576 176 Q 576 190 567 199 Q 558 208 544 208 L 352 208 L 352 32 L 352 32 Z M 128 64 Q 127 49 112 48 Q 97 49 96 64 L 96 160 L 96 176 L 128 176 L 128 160 L 128 64 L 128 64 Z M 192 64 Q 191 49 176 48 Q 161 49 160 64 L 160 160 L 160 176 L 192 176 L 192 160 L 192 64 L 192 64 Z M 256 64 Q 255 49 240 48 Q 225 49 224 64 L 224 160 L 224 176 L 256 176 L 256 160 L 256 64 L 256 64 Z M 416 64 Q 415 49 400 48 Q 385 49 384 64 L 384 160 L 384 176 L 416 176 L 416 160 L 416 64 L 416 64 Z M 480 64 Q 479 49 464 48 Q 449 49 448 64 L 448 160 L 448 176 L 480 176 L 480 160 L 480 64 L 480 64 Z M 544 64 Q 543 49 528 48 Q 513 49 512 64 L 512 160 L 512 176 L 544 176 L 544 160 L 544 64 L 544 64 Z"/>
</svg>
