<svg xmlns="http://www.w3.org/2000/svg" viewBox="0 0 583 256">
    <path d="M 247 0 L 279 0 Q 294 1 295 16 L 295 48 Q 294 63 279 64 L 247 64 Q 232 63 231 48 L 231 16 Q 232 1 247 0 L 247 0 Z M 247 96 L 279 96 Q 294 97 295 112 L 295 144 Q 294 159 279 160 L 247 160 Q 232 159 231 144 L 231 112 Q 232 97 247 96 L 247 96 Z M 231 208 Q 232 193 247 192 L 279 192 Q 294 193 295 208 L 295 240 Q 294 255 279 256 L 247 256 Q 232 255 231 240 L 231 208 L 231 208 Z M 343 0 L 375 0 Q 390 1 391 16 L 391 48 Q 390 63 375 64 L 343 64 Q 328 63 327 48 L 327 16 Q 328 1 343 0 L 343 0 Z M 327 112 Q 328 97 343 96 L 375 96 Q 390 97 391 112 L 391 144 Q 390 159 375 160 L 343 160 Q 328 159 327 144 L 327 112 L 327 112 Z M 439 0 L 471 0 Q 486 1 487 16 L 487 48 Q 486 63 471 64 L 439 64 Q 424 63 423 48 L 423 16 Q 424 1 439 0 L 439 0 Z M 423 112 Q 424 97 439 96 L 471 96 Q 486 97 487 112 L 487 144 Q 486 159 471 160 L 439 160 Q 424 159 423 144 L 423 112 L 423 112 Z M 535 0 L 567 0 Q 582 1 583 16 L 583 48 Q 582 63 567 64 L 535 64 Q 520 63 519 48 L 519 16 Q 520 1 535 0 L 535 0 Z M 519 112 Q 520 97 535 96 L 567 96 Q 582 97 583 112 L 583 144 Q 582 159 567 160 L 535 160 Q 520 159 519 144 L 519 112 L 519 112 Z M 535 192 L 567 192 Q 582 193 583 208 L 583 240 Q 582 255 567 256 L 535 256 Q 520 255 519 240 L 519 208 Q 520 193 535 192 L 535 192 Z M 120 26 Q 134 32 135 48 L 135 208 Q 134 224 120 230 Q 106 236 94 225 L 14 145 Q 0 128 14 111 L 94 31 Q 106 21 120 26 L 120 26 Z"/>
</svg>
