<svg xmlns="http://www.w3.org/2000/svg" viewBox="0 0 512 512">
    <path d="M 0 32 Q 0 18 9 9 L 9 9 Q 18 0 32 0 L 416 0 Q 430 0 439 9 Q 448 18 448 32 Q 448 46 439 55 Q 430 64 416 64 L 256 64 L 256 128 L 192 128 L 192 64 L 32 64 Q 18 64 9 55 Q 0 46 0 32 L 0 32 Z M 503 425 Q 512 435 512 448 L 512 448 Q 512 461 503 471 L 499 475 Q 461 511 408 512 L 128 512 Q 114 512 105 503 Q 96 494 96 480 Q 96 466 105 457 Q 114 448 128 448 L 408 448 Q 435 448 454 429 L 457 425 Q 467 416 480 416 Q 493 416 503 425 L 503 425 Z"/>
</svg>
