<svg xmlns="http://www.w3.org/2000/svg" viewBox="0 0 641 416">
    <path d="M 129 68 L 57 192 L 201 192 L 129 68 L 129 68 Z M 255 209 Q 246 243 212 265 L 212 265 Q 177 287 129 288 Q 81 287 46 265 Q 12 243 3 209 Q 0 192 10 177 L 105 14 Q 113 0 129 0 Q 145 1 153 14 L 248 177 Q 258 192 255 209 L 255 209 Z M 512 196 L 439 320 L 584 320 L 512 196 L 512 196 Z M 638 337 Q 629 371 594 393 L 594 393 Q 560 415 512 416 Q 464 415 429 393 Q 395 371 386 337 Q 383 320 393 305 L 488 142 Q 496 128 512 128 Q 528 129 536 142 L 631 305 Q 641 320 638 337 L 638 337 Z"/>
</svg>
