<svg xmlns="http://www.w3.org/2000/svg" viewBox="0 0 480 433">
    <path d="M 132 13 Q 140 23 139 36 L 139 36 Q 138 49 128 58 Q 98 82 81 117 Q 64 152 64 193 Q 66 268 116 317 Q 165 367 240 369 Q 315 367 364 317 Q 414 268 416 193 Q 416 152 399 117 Q 382 82 353 58 Q 342 49 341 36 Q 340 23 348 13 Q 357 2 370 1 Q 383 0 394 8 Q 433 42 457 89 Q 480 137 480 193 Q 479 260 447 314 Q 415 368 361 400 Q 307 432 240 433 Q 173 432 119 400 Q 65 368 33 314 Q 1 260 0 193 Q 0 137 23 89 Q 46 42 87 8 Q 97 0 110 1 Q 123 2 132 12 L 132 13 Z"/>
</svg>
