<svg xmlns="http://www.w3.org/2000/svg" viewBox="0 0 448 406">
    <path d="M 195 0 L 197 1 L 215 48 Q 218 54 224 54 Q 230 54 233 48 L 251 1 L 253 0 L 419 208 Q 424 214 424 222 Q 422 244 400 246 L 368 246 L 444 368 Q 448 374 448 381 Q 446 404 423 406 L 25 406 Q 2 404 0 381 Q 0 374 4 368 L 80 246 L 48 246 Q 26 244 24 222 Q 24 214 29 208 L 195 0 L 195 0 Z M 160 206 Q 182 204 184 182 Q 182 160 160 158 Q 138 160 136 182 Q 138 204 160 206 L 160 206 Z M 312 310 Q 310 288 288 286 Q 266 288 264 310 Q 266 332 288 334 Q 310 332 312 310 L 312 310 Z"/>
</svg>
