<svg xmlns="http://www.w3.org/2000/svg" viewBox="0 0 640 448">
    <path d="M 148 0 Q 128 1 119 18 L 112 32 L 32 32 Q 18 32 9 41 Q 0 50 0 64 Q 0 78 9 87 Q 18 96 32 96 L 384 96 Q 398 96 407 87 Q 416 78 416 64 Q 416 50 407 41 Q 398 32 384 32 L 304 32 L 297 18 Q 288 1 268 0 L 148 0 L 148 0 Z M 448 160 Q 448 174 457 183 L 457 183 Q 466 192 480 192 L 608 192 Q 622 192 631 183 Q 640 174 640 160 Q 640 146 631 137 Q 622 128 608 128 L 480 128 Q 466 128 457 137 Q 448 146 448 160 L 448 160 Z M 448 288 Q 448 302 457 311 L 457 311 Q 466 320 480 320 L 576 320 Q 590 320 599 311 Q 608 302 608 288 Q 608 274 599 265 Q 590 256 576 256 L 480 256 Q 466 256 457 265 Q 448 274 448 288 L 448 288 Z M 480 384 Q 466 384 457 393 L 457 393 Q 448 402 448 416 Q 448 430 457 439 Q 466 448 480 448 L 512 448 Q 526 448 535 439 Q 544 430 544 416 Q 544 402 535 393 Q 526 384 512 384 L 480 384 L 480 384 Z"/>
</svg>
