<svg xmlns="http://www.w3.org/2000/svg" viewBox="0 0 464 432">
    <path d="M 0 112 Q 1 64 33 33 L 33 33 Q 64 1 112 0 Q 160 1 191 33 Q 223 64 224 112 L 224 256 L 0 256 L 0 112 L 0 112 Z M 121 65 Q 112 57 103 65 Q 85 88 55 95 Q 49 96 48 103 Q 51 124 67 141 Q 87 160 112 160 Q 138 160 157 141 Q 173 125 176 103 Q 176 96 169 95 Q 139 88 121 65 L 121 65 Z M 375 321 Q 384 313 393 321 Q 416 351 456 352 Q 463 353 464 360 Q 461 387 441 409 Q 416 432 384 432 Q 352 432 327 409 Q 307 387 304 360 Q 305 353 312 352 Q 352 351 375 321 L 375 321 Z"/>
</svg>
