<svg xmlns="http://www.w3.org/2000/svg" viewBox="0 0 370 306">
    <path d="M 64 32 Q 64 18 55 9 L 55 9 Q 46 0 32 0 Q 19 0 10 9 Q 1 18 0 32 Q 1 46 10 55 Q 19 64 32 64 Q 46 64 55 55 Q 64 46 64 32 L 64 32 Z M 245 218 L 274 276 Q 287 299 310 302 Q 333 306 351 289 L 353 287 Q 370 268 366 245 Q 363 222 341 210 L 282 181 Q 272 177 264 184 L 248 200 Q 241 208 245 218 L 245 218 Z M 337 257 L 321 273 Q 312 280 304 273 Q 296 264 304 256 L 320 240 Q 328 232 337 240 Q 344 248 337 257 L 337 257 Z M 192 64 Q 206 64 215 55 L 215 55 Q 224 46 224 32 Q 224 18 215 9 Q 206 0 192 0 Q 179 0 170 9 Q 161 18 160 32 Q 161 46 170 55 Q 179 64 192 64 L 192 64 Z"/>
</svg>
