<svg xmlns="http://www.w3.org/2000/svg" viewBox="0 0 576 448">
    <path d="M 0 89 L 0 384 Q 1 411 19 429 Q 37 447 64 448 L 455 448 L 263 296 Q 237 319 200 320 Q 159 319 132 292 Q 105 265 104 224 Q 104 200 115 180 L 0 89 L 0 89 Z M 224 266 L 154 211 Q 152 217 152 224 Q 153 244 166 258 Q 180 271 200 272 Q 213 272 224 266 L 224 266 Z M 272 160 Q 281 171 276 184 L 299 202 Q 307 169 332 149 Q 357 129 392 128 Q 436 129 464 160 Q 477 178 462 194 Q 444 207 428 192 Q 414 177 392 176 Q 372 177 358 190 Q 344 204 344 224 Q 344 232 346 239 L 388 272 Q 390 272 392 272 Q 414 272 428 256 Q 444 241 462 254 Q 477 270 464 288 Q 452 301 436 310 L 569 414 Q 576 400 576 384 L 576 64 Q 575 37 557 19 Q 539 1 512 0 L 64 0 Q 54 0 45 3 L 205 128 Q 246 131 272 160 L 272 160 Z"/>
</svg>
