<svg xmlns="http://www.w3.org/2000/svg" viewBox="0 0 432 395">
    <path d="M 176 32 Q 176 18 185 9 L 185 9 Q 194 0 208 0 Q 222 0 231 9 Q 240 18 240 32 Q 240 46 231 55 Q 222 64 208 64 Q 194 64 185 55 Q 176 46 176 32 L 176 32 Z M 0 304 Q 1 259 40 235 Q 80 213 120 235 Q 159 259 160 304 Q 159 349 120 373 Q 80 395 40 373 Q 1 349 0 304 L 0 304 Z M 304 0 Q 318 0 327 9 L 327 9 Q 336 18 336 32 Q 336 46 327 55 Q 318 64 304 64 Q 290 64 281 55 Q 272 46 272 32 Q 272 18 281 9 Q 290 0 304 0 L 304 0 Z M 368 32 Q 368 18 377 9 L 377 9 Q 386 0 400 0 Q 414 0 423 9 Q 432 18 432 32 Q 432 46 423 55 Q 414 64 400 64 Q 386 64 377 55 Q 368 46 368 32 L 368 32 Z M 400 96 Q 414 96 423 105 L 423 105 Q 432 114 432 128 Q 432 142 423 151 Q 414 160 400 160 Q 386 160 377 151 Q 368 142 368 128 Q 368 114 377 105 Q 386 96 400 96 L 400 96 Z M 368 224 Q 368 210 377 201 L 377 201 Q 386 192 400 192 Q 414 192 423 201 Q 432 210 432 224 Q 432 238 423 247 Q 414 256 400 256 Q 386 256 377 247 Q 368 238 368 224 L 368 224 Z M 304 96 Q 318 96 327 105 L 327 105 Q 336 114 336 128 Q 336 142 327 151 Q 318 160 304 160 Q 290 160 281 151 Q 272 142 272 128 Q 272 114 281 105 Q 290 96 304 96 L 304 96 Z"/>
</svg>
