<svg xmlns="http://www.w3.org/2000/svg" viewBox="0 0 512 320">
    <path d="M 256 0 Q 191 2 154 51 Q 129 33 96 32 Q 85 32 74 35 Q 41 43 21 69 Q 0 94 0 128 Q 0 139 3 150 Q 10 188 24 227 Q 39 266 51 292 Q 63 319 64 320 Q 64 320 64 320 L 138 320 L 112 163 Q 111 148 125 144 Q 140 143 144 157 L 171 320 L 240 320 L 240 160 Q 241 145 256 144 Q 271 145 272 160 L 272 320 L 341 320 L 368 157 Q 372 143 387 144 Q 401 148 400 163 L 374 320 L 448 320 Q 449 319 461 292 Q 473 266 488 227 Q 502 188 510 150 Q 512 139 512 128 Q 512 94 491 69 Q 471 43 438 35 Q 427 32 416 32 Q 383 33 358 51 Q 321 2 256 0 L 256 0 Z"/>
</svg>
