<svg xmlns="http://www.w3.org/2000/svg" viewBox="0 0 640 512">
    <path d="M 192 64 L 64 64 L 64 192 L 160 192 L 160 256 L 64 256 Q 37 255 19 237 Q 1 219 0 192 L 0 64 Q 1 37 19 19 Q 37 1 64 0 L 192 0 Q 219 1 237 19 Q 255 37 256 64 L 256 96 L 224 96 Q 206 96 192 105 L 192 64 L 192 64 Z M 384 416 L 416 416 Q 434 416 448 407 L 448 448 L 576 448 L 576 320 L 480 320 L 480 256 L 576 256 Q 603 257 621 275 Q 639 293 640 320 L 640 448 Q 639 475 621 493 Q 603 511 576 512 L 448 512 Q 421 511 403 493 Q 385 475 384 448 L 384 416 L 384 416 Z"/>
</svg>
