<svg xmlns="http://www.w3.org/2000/svg" viewBox="0 0 448 256">
    <path d="M 151 9 Q 160 19 160 32 L 160 32 Q 160 45 151 55 L 109 96 L 339 96 L 297 55 Q 288 45 288 32 Q 288 19 297 9 Q 307 0 320 0 Q 333 0 343 9 L 439 105 Q 448 115 448 128 Q 448 141 439 151 L 343 247 Q 333 256 320 256 Q 307 256 297 247 Q 288 237 288 224 Q 288 211 297 201 L 339 160 L 109 160 L 151 201 Q 160 211 160 224 Q 160 237 151 247 Q 141 256 128 256 Q 115 256 105 247 L 9 151 Q 0 141 0 128 Q 0 115 9 105 L 105 9 Q 115 0 128 0 Q 141 0 151 9 L 151 9 Z"/>
</svg>
