<svg xmlns="http://www.w3.org/2000/svg" viewBox="0 0 448 512">
    <path d="M 120 112 L 176 112 Q 202 112 224 99 Q 245 87 258 66 Q 276 95 312 96 L 348 96 Q 337 54 303 27 Q 270 1 224 0 Q 175 1 141 31 Q 106 61 98 107 Q 108 112 120 112 L 120 112 Z M 146 315 Q 140 307 130 308 Q 73 322 37 367 Q 1 411 0 472 L 0 480 Q 0 494 9 503 Q 18 512 32 512 L 416 512 Q 430 512 439 503 Q 448 494 448 480 L 448 472 Q 447 411 411 367 Q 375 322 318 308 Q 308 307 302 315 L 237 412 Q 232 419 224 419 Q 216 419 211 412 L 146 315 L 146 315 Z"/>
</svg>
