<svg xmlns="http://www.w3.org/2000/svg" viewBox="0 0 512 512">
    <path d="M 448 256 Q 448 204 422 160 L 422 160 Q 397 116 352 90 Q 307 64 256 64 Q 205 64 160 90 Q 115 116 90 160 Q 64 204 64 256 Q 64 308 90 352 Q 115 396 160 422 Q 205 448 256 448 Q 307 448 352 422 Q 397 396 422 352 Q 448 308 448 256 L 448 256 Z M 0 256 Q 1 186 34 128 L 34 128 Q 68 70 128 34 Q 189 0 256 0 Q 323 0 384 34 Q 444 70 478 128 Q 511 186 512 256 Q 511 326 478 384 Q 444 442 384 478 Q 323 512 256 512 Q 189 512 128 478 Q 68 442 34 384 Q 1 326 0 256 L 0 256 Z M 256 224 Q 270 224 279 233 L 279 233 Q 288 242 288 256 Q 288 270 279 279 Q 270 288 256 288 Q 242 288 233 279 Q 224 270 224 256 Q 224 242 233 233 Q 242 224 256 224 L 256 224 Z"/>
</svg>
