<svg xmlns="http://www.w3.org/2000/svg" viewBox="0 0 416 192">
    <path d="M 128 32 Q 128 18 137 9 L 137 9 Q 146 0 160 0 L 192 0 Q 206 0 215 9 Q 224 18 224 32 L 224 64 Q 224 78 215 87 Q 206 96 192 96 L 192 128 Q 191 155 173 173 Q 155 191 128 192 Q 101 191 83 173 Q 65 155 64 128 L 64 112 Q 63 92 50 78 Q 36 65 16 64 L 0 64 L 0 32 L 16 32 Q 50 33 73 55 Q 95 78 96 112 L 96 128 Q 96 142 105 151 Q 114 160 128 160 Q 142 160 151 151 Q 160 142 160 128 L 160 96 Q 146 96 137 87 Q 128 78 128 64 L 128 32 L 128 32 Z M 320 0 L 384 0 Q 398 0 407 9 Q 416 18 416 32 L 416 160 Q 416 174 407 183 Q 398 192 384 192 L 320 192 Q 306 192 297 183 Q 288 174 288 160 L 288 32 Q 288 18 297 9 Q 306 0 320 0 L 320 0 Z"/>
</svg>
