<svg xmlns="http://www.w3.org/2000/svg" viewBox="0 0 416 448">
    <path d="M 416 208 Q 414 288 365 344 L 365 344 Q 316 400 240 414 L 240 448 L 176 448 L 176 414 Q 100 400 51 344 Q 2 288 0 208 Q 2 120 61 61 Q 120 2 208 0 Q 296 2 355 61 Q 414 120 416 208 L 416 208 Z M 208 166 L 169 69 Q 162 55 148 60 Q 114 75 100 107 Q 86 139 99 174 Q 109 198 128 212 Q 148 226 172 229 L 107 312 Q 99 324 110 334 Q 140 356 174 352 Q 209 348 233 319 Q 248 299 251 275 Q 254 251 244 229 L 348 244 Q 363 244 367 230 Q 371 193 350 165 Q 328 137 292 131 Q 266 128 244 137 Q 223 147 208 166 L 208 166 Z"/>
</svg>
