<svg xmlns="http://www.w3.org/2000/svg" viewBox="0 0 352 384">
    <path d="M 0 0 L 0 64 L 80 64 L 80 0 L 0 0 L 0 0 Z M 288 96 L 128 96 L 128 160 L 304 160 Q 324 159 338 146 Q 351 132 352 112 L 352 48 Q 351 28 338 14 Q 324 1 304 0 L 128 0 L 128 64 L 288 64 L 288 96 L 288 96 Z M 0 96 L 0 160 L 80 160 L 80 96 L 0 96 L 0 96 Z M 224 320 L 224 384 L 304 384 Q 324 383 338 370 Q 351 356 352 336 L 352 272 Q 351 252 338 238 Q 324 225 304 224 L 224 224 L 224 288 L 288 288 L 288 320 L 224 320 L 224 320 Z M 176 288 L 176 224 L 96 224 L 96 288 L 176 288 L 176 288 Z M 176 320 L 96 320 L 96 384 L 176 384 L 176 320 L 176 320 Z"/>
</svg>
