<svg xmlns="http://www.w3.org/2000/svg" viewBox="0 0 517 512">
    <path d="M 32 0 Q 18 0 9 9 L 9 9 Q 0 18 0 32 Q 0 46 9 55 Q 18 64 32 64 L 192 64 Q 206 64 215 55 Q 224 46 224 32 Q 224 18 215 9 Q 206 0 192 0 L 32 0 L 32 0 Z M 503 343 Q 512 333 512 320 L 512 320 Q 512 307 503 297 Q 493 288 480 288 Q 467 288 457 297 L 297 457 Q 288 467 288 480 Q 288 493 297 503 Q 307 512 320 512 Q 333 512 343 503 L 503 343 L 503 343 Z M 0 128 Q 0 142 9 151 L 9 151 Q 18 160 32 160 L 80 160 L 80 192 Q 80 206 89 215 Q 98 224 112 224 Q 126 224 135 215 Q 144 206 144 192 L 144 160 L 192 160 Q 206 160 215 151 Q 224 142 224 128 Q 224 114 215 105 Q 206 96 192 96 L 112 96 L 32 96 Q 18 96 9 105 Q 0 114 0 128 L 0 128 Z M 368 328 Q 367 305 348 293 Q 328 283 308 293 Q 289 305 288 328 Q 289 351 308 363 Q 328 373 348 363 Q 367 351 368 328 L 368 328 Z M 472 512 Q 495 511 507 492 Q 517 472 507 452 Q 495 433 472 432 Q 449 433 437 452 Q 427 472 437 492 Q 449 511 472 512 L 472 512 Z"/>
</svg>
