<svg xmlns="http://www.w3.org/2000/svg" viewBox="0 0 416 416">
    <path d="M 0 208 Q 0 151 28 104 L 28 104 Q 55 57 104 28 Q 153 0 208 0 Q 263 0 312 28 Q 361 57 388 104 Q 416 151 416 208 Q 416 265 388 312 Q 361 359 312 388 Q 263 416 208 416 Q 153 416 104 388 Q 55 359 28 312 Q 0 265 0 208 L 0 208 Z M 208 32 Q 179 33 158 50 L 158 50 Q 137 67 131 95 L 131 98 Q 130 110 142 112 L 274 112 Q 286 110 285 98 L 285 95 Q 279 67 258 50 Q 237 33 208 32 L 208 32 Z M 131 221 Q 120 211 109 221 L 101 229 L 93 237 Q 83 248 93 259 Q 96 262 100 264 Q 103 264 105 265 Q 105 265 106 265 Q 114 266 120 271 L 123 274 Q 128 279 128 285 L 128 312 Q 129 336 144 352 Q 160 367 184 368 Q 208 367 223 352 Q 239 336 240 312 Q 239 288 223 272 Q 208 257 184 256 L 157 256 Q 151 256 146 251 L 143 248 Q 138 242 137 234 Q 137 233 137 233 Q 136 231 136 228 Q 135 224 131 221 L 131 221 Z M 328 336 Q 326 314 304 312 Q 282 314 280 336 Q 282 358 304 360 Q 326 358 328 336 L 328 336 Z M 118 166 Q 130 152 118 138 Q 104 126 90 138 L 58 170 Q 46 184 58 198 Q 72 210 86 198 L 118 166 L 118 166 Z M 232 176 Q 230 154 208 152 Q 186 154 184 176 Q 186 198 208 200 Q 230 198 232 176 L 232 176 Z M 264 216 Q 257 224 264 232 L 267 235 Q 288 256 318 256 L 323 256 Q 344 256 361 242 Q 384 224 384 194 L 384 190 Q 384 160 363 139 L 360 136 Q 352 129 344 136 L 264 216 L 264 216 Z"/>
</svg>
