<svg xmlns="http://www.w3.org/2000/svg" viewBox="0 0 304 433">
    <path d="M 79 43 Q 97 33 117 35 L 117 35 Q 137 37 152 50 L 166 61 Q 178 70 188 60 Q 197 48 187 37 L 173 26 Q 149 6 120 3 Q 90 0 63 15 L 56 19 Q 44 28 50 41 Q 58 53 72 47 L 79 43 L 79 43 Z M 112 129 Q 126 129 135 120 L 135 120 Q 144 111 144 97 Q 144 83 135 74 Q 126 65 112 65 Q 99 65 90 74 Q 81 83 80 97 Q 81 111 90 120 Q 99 129 112 129 L 112 129 Z M 48 273 Q 46 251 24 249 Q 2 251 0 273 L 0 385 Q 1 405 14 419 Q 28 432 48 433 L 95 433 Q 128 431 140 401 L 166 330 L 216 312 Q 236 302 231 281 Q 221 261 200 266 L 48 322 L 48 273 L 48 273 Z M 304 113 Q 304 99 295 90 L 295 90 Q 286 81 272 81 Q 259 81 250 90 Q 241 99 240 113 Q 241 127 250 136 Q 259 145 272 145 Q 286 145 295 136 Q 304 127 304 113 L 304 113 Z"/>
</svg>
