<svg xmlns="http://www.w3.org/2000/svg" viewBox="0 0 259 456">
    <path d="M 259 160 L 99 0 L 99 128 Q 99 142 108 151 Q 117 160 131 160 L 259 160 L 259 160 Z M 83 232 Q 82 217 67 216 Q 52 217 51 232 L 51 249 Q 38 251 27 258 Q 5 269 3 299 Q 6 326 26 336 Q 43 345 61 350 L 61 350 L 62 350 Q 81 355 91 361 Q 99 366 99 373 Q 99 382 91 387 Q 82 392 67 392 Q 51 391 31 383 Q 31 383 31 383 L 31 383 L 31 383 L 31 383 Q 28 382 24 381 Q 10 378 4 391 Q 0 405 14 411 Q 17 412 20 413 L 20 413 Q 34 419 51 422 L 51 440 Q 52 455 67 456 Q 82 455 83 440 L 83 423 Q 96 421 108 414 Q 130 401 131 372 Q 129 345 108 334 Q 90 324 72 319 L 72 319 L 72 319 L 71 319 Q 53 314 42 308 Q 34 303 35 298 Q 35 290 43 285 Q 53 280 67 280 Q 82 281 99 285 Q 113 288 118 274 Q 121 260 107 254 Q 96 251 83 249 L 83 232 L 83 232 Z"/>
</svg>
