<svg xmlns="http://www.w3.org/2000/svg" viewBox="0 0 544 256">
    <path d="M 160 0 Q 92 2 47 47 L 47 47 Q 2 92 0 160 L 0 256 L 544 256 L 544 160 Q 542 92 497 47 Q 452 2 384 0 L 160 0 L 160 0 Z M 422 99 L 434 124 L 463 128 Q 466 129 468 132 Q 469 136 466 139 L 446 158 L 451 185 Q 451 189 448 191 Q 445 193 441 191 L 416 179 L 391 191 Q 387 193 384 191 Q 381 188 382 185 L 386 158 L 366 139 Q 363 136 364 132 Q 366 129 370 128 L 398 124 L 411 99 Q 412 96 416 96 Q 420 96 422 99 L 422 99 Z M 272 96 Q 276 96 278 99 L 290 124 L 318 128 Q 322 129 324 132 Q 325 136 322 139 L 302 158 L 306 185 Q 307 189 304 191 Q 301 193 297 191 L 272 179 L 247 191 Q 243 193 240 191 Q 237 188 238 185 L 242 158 L 222 139 Q 219 136 220 132 Q 222 129 226 128 L 254 124 L 266 99 Q 268 96 272 96 L 272 96 Z M 134 99 L 146 124 L 174 128 Q 178 129 180 132 Q 181 136 178 139 L 158 158 L 162 185 Q 163 189 160 191 Q 157 193 153 191 L 128 179 L 103 191 Q 99 193 96 191 Q 93 188 94 185 L 98 158 L 78 139 Q 75 136 76 132 Q 78 129 82 128 L 110 124 L 122 99 Q 124 96 128 96 Q 132 96 134 99 L 134 99 Z"/>
</svg>
