<svg xmlns="http://www.w3.org/2000/svg" viewBox="0 0 416 448">
    <path d="M 32 0 Q 18 0 9 9 L 9 9 Q 0 18 0 32 L 0 384 Q 0 398 9 407 Q 18 416 32 416 L 96 416 Q 110 416 119 407 Q 128 398 128 384 L 128 32 Q 128 18 119 9 Q 110 0 96 0 L 32 0 L 32 0 Z M 224 288 Q 224 302 233 311 L 233 311 Q 242 320 256 320 Q 270 320 279 311 Q 288 302 288 288 Q 288 274 279 265 Q 270 256 256 256 Q 242 256 233 265 Q 224 274 224 288 L 224 288 Z M 352 288 Q 352 302 361 311 L 361 311 Q 370 320 384 320 Q 398 320 407 311 Q 416 302 416 288 Q 416 274 407 265 Q 398 256 384 256 Q 370 256 361 265 Q 352 274 352 288 L 352 288 Z M 384 384 Q 370 384 361 393 L 361 393 Q 352 402 352 416 Q 352 430 361 439 Q 370 448 384 448 Q 398 448 407 439 Q 416 430 416 416 Q 416 402 407 393 Q 398 384 384 384 L 384 384 Z M 224 416 Q 224 430 233 439 L 233 439 Q 242 448 256 448 Q 270 448 279 439 Q 288 430 288 416 Q 288 402 279 393 Q 270 384 256 384 Q 242 384 233 393 Q 224 402 224 416 L 224 416 Z"/>
</svg>
