<svg xmlns="http://www.w3.org/2000/svg" viewBox="0 0 640 416">
    <path d="M 48 0 Q 28 1 14 14 L 14 14 Q 1 28 0 48 L 0 368 Q 1 388 14 402 Q 28 415 48 416 L 65 416 Q 72 374 102 348 Q 133 321 176 320 Q 219 321 250 348 Q 280 374 287 416 L 353 416 Q 360 374 390 348 Q 421 321 464 320 Q 507 321 538 348 Q 568 374 575 416 L 576 416 L 608 416 Q 622 416 631 407 Q 640 398 640 384 Q 640 370 631 361 Q 622 352 608 352 L 608 288 L 608 256 L 608 237 Q 608 211 589 192 L 512 115 Q 493 96 467 96 L 416 96 L 416 48 Q 415 28 402 14 Q 388 1 368 0 L 48 0 L 48 0 Z M 416 160 L 467 160 L 544 237 L 544 256 L 416 256 L 416 160 L 416 160 Z"/>
</svg>
