<svg xmlns="http://www.w3.org/2000/svg" viewBox="0 0 512 384">
    <path d="M 160 32 Q 160 18 151 9 L 151 9 Q 142 0 128 0 Q 114 0 105 9 Q 96 18 96 32 L 96 96 L 32 96 Q 18 96 9 105 Q 0 114 0 128 Q 0 142 9 151 Q 18 160 32 160 L 128 160 Q 142 160 151 151 Q 160 142 160 128 L 160 32 L 160 32 Z M 352 352 Q 352 366 361 375 L 361 375 Q 370 384 384 384 Q 398 384 407 375 Q 416 366 416 352 L 416 288 L 480 288 Q 494 288 503 279 Q 512 270 512 256 Q 512 242 503 233 Q 494 224 480 224 L 384 224 Q 370 224 361 233 Q 352 242 352 256 L 352 352 L 352 352 Z"/>
</svg>
