<svg xmlns="http://www.w3.org/2000/svg" viewBox="0 0 256 512">
    <path d="M 0 48 Q 1 28 14 14 L 14 14 Q 28 1 48 0 L 208 0 Q 228 1 242 14 Q 255 28 256 48 L 256 113 Q 203 66 128 64 Q 53 66 0 113 L 0 48 L 0 48 Z M 128 448 Q 203 446 256 399 L 256 464 Q 255 484 242 498 Q 228 511 208 512 L 48 512 Q 28 511 14 498 Q 1 484 0 464 L 0 399 Q 53 446 128 448 L 128 448 Z M 152 176 L 152 243 L 189 268 Q 206 282 196 301 Q 182 318 163 308 L 115 276 Q 104 269 104 256 L 104 176 Q 106 154 128 152 Q 150 154 152 176 L 152 176 Z"/>
</svg>
