<svg xmlns="http://www.w3.org/2000/svg" viewBox="0 0 448 448">
    <path d="M 16 0 Q 1 1 0 16 L 0 74 Q 1 88 16 90 L 74 90 Q 88 88 90 74 L 90 16 Q 88 1 74 0 L 16 0 L 16 0 Z M 16 239 Q 1 240 0 255 L 0 313 Q 1 327 16 329 L 74 329 Q 88 327 90 313 L 90 255 Q 88 240 74 239 L 16 239 L 16 239 Z M 120 136 L 120 193 Q 121 208 136 209 L 193 209 Q 208 208 209 193 L 209 136 Q 208 121 193 120 L 136 120 Q 121 121 120 136 L 120 136 Z M 136 358 Q 121 360 120 374 L 120 432 Q 121 447 136 448 L 193 448 Q 208 447 209 432 L 209 374 Q 208 360 193 358 L 136 358 L 136 358 Z M 239 16 L 239 74 Q 240 88 255 90 L 313 90 Q 327 88 329 74 L 329 16 Q 327 1 313 0 L 255 0 Q 240 1 239 16 L 239 16 Z M 255 239 Q 240 240 239 255 L 239 313 Q 240 327 255 329 L 313 329 Q 327 327 329 313 L 329 255 Q 327 240 313 239 L 255 239 L 255 239 Z M 358 136 L 358 193 Q 360 208 374 209 L 432 209 Q 447 208 448 193 L 448 136 Q 447 121 432 120 L 374 120 Q 360 121 358 136 L 358 136 Z M 374 358 Q 360 360 358 374 L 358 432 Q 360 447 374 448 L 432 448 Q 447 447 448 432 L 448 374 Q 447 360 432 358 L 374 358 L 374 358 Z"/>
</svg>
