<svg xmlns="http://www.w3.org/2000/svg" viewBox="0 0 273 472">
    <path d="M 133 16 Q 148 0 167 13 Q 216 53 244 110 Q 272 168 273 236 Q 272 304 244 362 Q 216 419 167 460 Q 148 472 133 456 Q 121 438 136 422 Q 177 389 201 341 Q 225 293 225 236 Q 225 179 201 131 Q 177 83 136 50 Q 121 34 133 16 L 133 16 Z M 72 91 Q 88 75 106 87 Q 139 114 158 152 Q 177 191 177 236 Q 177 281 158 320 Q 139 358 106 385 Q 88 397 72 382 Q 60 363 76 348 Q 127 306 129 236 Q 127 166 76 124 Q 60 109 72 90 L 72 91 Z M 12 165 Q 27 149 46 162 Q 79 189 81 236 Q 79 283 46 311 Q 27 323 12 307 Q 0 289 15 273 Q 32 259 33 236 Q 32 213 15 199 Q 0 183 12 165 L 12 165 Z"/>
</svg>
