<svg xmlns="http://www.w3.org/2000/svg" viewBox="0 0 256 160">
    <path d="M 48 0 L 48 64 L 32 64 Q 18 64 9 55 Q 0 46 0 32 Q 0 18 9 9 Q 18 0 32 0 L 48 0 L 48 0 Z M 48 96 L 48 141 Q 48 150 46 160 L 32 160 Q 18 160 9 151 Q 0 142 0 128 Q 0 114 9 105 Q 18 96 32 96 L 48 96 L 48 96 Z M 111 160 Q 112 150 112 141 L 112 96 L 224 96 Q 238 96 247 105 Q 256 114 256 128 Q 256 142 247 151 Q 238 160 224 160 L 111 160 L 111 160 Z M 112 64 L 112 0 L 224 0 Q 238 0 247 9 Q 256 18 256 32 Q 256 46 247 55 Q 238 64 224 64 L 112 64 L 112 64 Z"/>
</svg>
