<svg xmlns="http://www.w3.org/2000/svg" viewBox="0 0 345 384">
    <path d="M 120 16 Q 113 0 96 0 Q 79 2 74 18 L 2 290 Q 2 290 2 290 Q 2 290 2 291 Q 0 296 1 300 Q 2 305 5 309 Q 8 315 15 318 Q 17 319 19 319 Q 24 321 29 320 Q 34 319 38 316 Q 38 316 38 316 Q 39 315 39 315 Q 121 260 184 249 Q 246 238 280 246 Q 288 247 293 255 Q 297 262 297 270 Q 296 284 287 294 Q 277 303 263 304 L 153 304 Q 134 305 129 323 Q 129 325 129 328 L 129 384 L 177 384 L 177 352 L 264 352 Q 298 351 321 328 Q 344 305 345 271 L 345 270 L 345 270 Q 345 252 337 235 Q 323 208 297 195 Q 245 168 210 137 Q 175 106 155 78 Q 135 50 127 33 Q 123 24 121 20 Q 121 19 120 18 Q 120 17 120 17 L 120 16 L 120 16 L 120 16 Z"/>
</svg>
