<svg xmlns="http://www.w3.org/2000/svg" viewBox="0 0 288 512">
    <path d="M 88 72 L 102 72 Q 116 95 144 96 L 208 96 Q 228 95 242 82 Q 255 68 256 48 Q 255 28 242 14 Q 228 1 208 0 L 144 0 Q 116 1 102 24 L 88 24 Q 51 25 26 50 Q 1 75 0 112 L 0 160 L 48 160 L 48 112 Q 48 95 60 84 Q 71 72 88 72 L 88 72 Z M 64 448 Q 50 448 41 457 L 41 457 Q 32 466 32 480 Q 32 494 41 503 Q 50 512 64 512 L 160 512 L 256 512 Q 270 512 279 503 Q 288 494 288 480 Q 288 466 279 457 Q 270 448 256 448 L 192 448 L 192 352 L 128 352 L 128 448 L 64 448 L 64 448 Z"/>
</svg>
