<svg xmlns="http://www.w3.org/2000/svg" viewBox="0 0 409 457">
    <path d="M 166 453 Q 122 444 87 407 L 87 407 Q 51 370 29 333 Q 0 283 9 225 L 33 61 Q 35 46 46 36 Q 60 22 104 11 Q 148 0 231 11 Q 314 25 353 49 Q 392 73 401 90 Q 409 102 406 118 L 382 282 Q 374 340 332 379 Q 300 408 256 433 Q 211 457 166 453 L 166 453 Z M 183 175 Q 183 175 184 174 L 184 174 Q 184 174 184 173 Q 186 157 176 144 Q 167 131 151 128 Q 134 126 121 135 Q 109 145 106 162 Q 106 162 106 162 Q 106 163 106 163 Q 107 172 116 170 Q 130 165 145 168 Q 160 170 171 178 Q 180 183 183 175 L 183 175 Z M 296 197 Q 304 202 308 194 Q 308 194 308 193 Q 308 193 308 192 Q 310 175 301 163 Q 291 150 275 147 Q 258 145 246 154 Q 233 164 230 180 Q 230 181 230 181 Q 230 182 230 182 Q 231 191 240 189 Q 254 184 269 186 Q 284 189 296 197 L 296 197 Z M 285 282 Q 241 302 190 295 Q 139 287 103 255 Q 97 251 92 253 Q 87 255 87 262 Q 92 299 117 325 Q 142 352 180 358 Q 219 363 250 345 Q 282 328 297 293 Q 299 287 295 284 Q 291 280 285 283 L 285 282 Z"/>
</svg>
