<svg xmlns="http://www.w3.org/2000/svg" viewBox="0 0 512 512">
    <path d="M 0 256 Q 1 186 34 128 L 34 128 Q 68 70 128 34 Q 189 0 256 0 Q 323 0 384 34 Q 444 70 478 128 Q 511 186 512 256 Q 511 326 478 384 Q 444 442 384 478 Q 323 512 256 512 Q 189 512 128 478 Q 68 442 34 384 Q 1 326 0 256 L 0 256 Z M 345 368 Q 333 359 322 370 Q 312 381 296 390 Q 279 399 256 400 Q 233 399 216 390 Q 200 381 190 370 Q 179 359 168 368 Q 157 379 166 391 Q 179 406 201 419 Q 224 431 256 432 Q 288 431 311 419 Q 333 406 346 391 Q 355 379 345 368 L 345 368 Z M 240 272 L 240 240 Q 239 208 219 186 Q 199 164 168 160 Q 183 144 190 122 L 191 116 Q 194 102 180 97 Q 166 94 161 108 L 159 113 Q 146 152 105 159 L 94 160 Q 80 163 80 178 Q 83 191 96 192 Q 81 213 80 240 Q 81 267 96 288 L 96 320 Q 97 335 112 336 Q 127 335 128 320 L 128 313 Q 143 320 160 320 Q 187 320 208 304 Q 209 319 224 320 Q 239 319 240 304 L 240 288 L 240 272 L 240 272 Z M 384 313 L 384 320 Q 385 335 400 336 Q 415 335 416 320 L 416 288 Q 432 267 432 240 Q 432 213 416 192 Q 429 191 432 178 Q 432 163 418 160 L 407 159 Q 366 152 353 113 L 351 108 Q 346 94 332 97 Q 318 102 321 116 L 322 122 Q 329 144 344 160 Q 313 164 293 186 Q 273 208 272 240 Q 273 274 295 297 Q 318 319 352 320 Q 369 320 384 313 L 384 313 Z"/>
</svg>
