<svg xmlns="http://www.w3.org/2000/svg" viewBox="0 0 384 512">
    <path d="M 0 64 Q 1 37 19 19 L 19 19 Q 37 1 64 0 L 224 0 L 224 128 Q 224 142 233 151 Q 242 160 256 160 L 384 160 L 384 448 Q 383 475 365 493 Q 347 511 320 512 L 64 512 Q 37 511 19 493 Q 1 475 0 448 L 0 64 L 0 64 Z M 208 208 Q 207 193 192 192 Q 177 193 176 208 L 176 256 L 128 256 Q 113 257 112 272 Q 113 287 128 288 L 176 288 L 176 336 Q 177 351 192 352 Q 207 351 208 336 L 208 288 L 256 288 Q 271 287 272 272 Q 271 257 256 256 L 208 256 L 208 208 L 208 208 Z M 128 384 Q 113 385 112 400 Q 113 415 128 416 L 256 416 Q 271 415 272 400 Q 271 385 256 384 L 128 384 L 128 384 Z"/>
</svg>
