<svg xmlns="http://www.w3.org/2000/svg" viewBox="0 0 320 256">
    <path d="M 32 0 Q 18 0 9 9 L 9 9 Q 0 18 0 32 Q 0 46 9 55 Q 18 64 32 64 L 224 64 Q 238 64 247 55 Q 256 46 256 32 Q 256 18 247 9 Q 238 0 224 0 L 32 0 L 32 0 Z M 32 96 Q 18 96 9 105 L 9 105 Q 0 114 0 128 Q 0 142 9 151 Q 18 160 32 160 L 160 160 Q 174 160 183 151 Q 192 142 192 128 Q 192 114 183 105 Q 174 96 160 96 L 32 96 L 32 96 Z M 32 192 Q 18 192 9 201 L 9 201 Q 0 210 0 224 Q 0 238 9 247 Q 18 256 32 256 L 288 256 Q 302 256 311 247 Q 320 238 320 224 Q 320 210 311 201 Q 302 192 288 192 L 32 192 L 32 192 Z"/>
</svg>
