<svg xmlns="http://www.w3.org/2000/svg" viewBox="0 0 512 384">
    <path d="M 192 32 L 192 44 L 224 48 L 256 44 L 256 32 Q 256 18 247 9 Q 238 0 224 0 Q 210 0 201 9 Q 192 18 192 32 L 192 32 Z M 192 84 L 192 160 L 173 160 Q 160 160 151 169 L 128 192 L 32 192 Q 18 192 9 201 Q 0 210 0 224 L 0 288 Q 0 302 9 311 Q 18 320 32 320 L 132 320 Q 165 366 224 368 Q 283 366 316 320 L 352 320 Q 366 320 375 329 Q 384 338 384 352 Q 384 366 393 375 Q 402 384 416 384 L 480 384 Q 494 384 503 375 Q 512 366 512 352 Q 510 284 465 239 Q 420 194 352 192 L 320 192 L 297 169 Q 288 160 275 160 L 256 160 L 256 84 L 224 80 L 192 84 L 192 84 Z"/>
</svg>
