<svg xmlns="http://www.w3.org/2000/svg" viewBox="0 0 448 448">
    <path d="M 200 0 L 0 0 L 0 224 L 448 224 L 448 0 L 248 0 L 248 110 L 287 71 Q 304 57 321 71 Q 335 88 321 105 L 241 185 Q 224 199 207 185 L 127 105 Q 113 88 127 71 Q 144 57 161 71 L 200 110 L 200 0 L 200 0 Z M 283 384 L 272 352 L 176 352 L 165 384 L 96 384 Q 82 384 73 393 Q 64 402 64 416 Q 64 430 73 439 Q 82 448 96 448 L 352 448 Q 366 448 375 439 Q 384 430 384 416 Q 384 402 375 393 Q 366 384 352 384 L 283 384 L 283 384 Z"/>
</svg>
