<svg xmlns="http://www.w3.org/2000/svg" viewBox="0 0 453 170">
    <path d="M 214 39 Q 221 18 202 7 Q 181 0 170 20 L 122 132 Q 115 153 135 163 Q 156 170 166 151 L 214 39 L 214 39 Z M 446 39 Q 453 18 434 7 Q 413 0 402 20 L 354 132 Q 347 153 367 163 Q 388 170 398 151 L 446 39 L 446 39 Z M 314 7 Q 293 0 282 20 L 272 44 Q 265 65 284 75 Q 305 82 316 62 L 326 38 Q 333 17 314 7 L 314 7 Z M 94 39 Q 101 18 82 7 Q 61 0 50 20 L 40 44 Q 33 65 52 75 Q 73 82 84 63 L 94 39 L 94 39 Z M 64 133 Q 64 119 55 110 L 55 110 Q 46 101 32 101 Q 18 101 9 110 Q 0 119 0 133 Q 0 147 9 156 Q 18 165 32 165 Q 46 165 55 156 Q 64 147 64 133 L 64 133 Z M 256 165 Q 270 165 279 156 L 279 156 Q 288 147 288 133 Q 288 119 279 110 Q 270 101 256 101 Q 242 101 233 110 Q 224 119 224 133 Q 224 147 233 156 Q 242 165 256 165 L 256 165 Z"/>
</svg>
