<svg xmlns="http://www.w3.org/2000/svg" viewBox="0 0 309 514">
    <path d="M 194 96 Q 221 95 236 72 Q 248 48 236 24 Q 221 1 194 0 Q 167 1 152 24 Q 140 48 152 72 Q 167 95 194 96 L 194 96 Z M 110 201 Q 110 200 111 200 L 111 200 Q 112 200 113 199 L 96 263 Q 88 296 110 323 L 181 400 L 203 488 Q 207 501 218 507 Q 229 514 242 511 Q 255 507 262 496 Q 268 485 265 472 L 242 380 Q 239 368 231 359 L 181 305 L 201 240 L 210 263 Q 217 279 233 287 L 260 301 Q 272 306 284 302 Q 296 298 303 286 Q 309 274 305 262 Q 301 250 289 243 L 267 233 L 252 196 Q 238 165 211 147 Q 184 128 150 128 Q 115 128 84 142 L 76 146 Q 25 169 6 222 L 4 230 Q 0 243 5 254 Q 11 266 24 270 Q 37 274 48 269 Q 60 263 64 250 L 67 242 Q 76 216 102 204 L 110 201 L 110 201 Z"/>
</svg>
