<svg xmlns="http://www.w3.org/2000/svg" viewBox="0 0 232 408">
    <path d="M 192 0 Q 206 0 215 9 L 215 9 Q 224 18 224 32 Q 224 46 215 55 Q 206 64 192 64 Q 178 64 169 55 Q 160 46 160 32 Q 160 18 169 9 Q 178 0 192 0 L 192 0 Z M 0 120 Q 2 98 24 96 Q 46 98 48 120 Q 46 142 24 144 Q 2 142 0 120 L 0 120 Z M 232 299 L 232 344 Q 231 371 213 389 Q 195 407 168 408 Q 141 407 123 389 Q 105 371 104 344 L 104 299 Q 106 274 131 272 L 133 272 Q 151 273 156 291 Q 159 300 168 300 Q 177 300 180 291 Q 185 273 204 272 L 206 272 Q 230 274 232 299 L 232 299 Z"/>
</svg>
