<svg xmlns="http://www.w3.org/2000/svg" viewBox="0 0 640 384">
    <path d="M 455 0 Q 469 23 481 48 L 584 48 Q 591 49 592 56 L 592 141 Q 592 166 577 185 Q 562 204 538 211 L 506 219 Q 497 250 478 275 L 549 258 Q 590 247 615 215 Q 639 183 640 141 L 640 56 Q 639 32 624 16 Q 608 1 584 0 L 455 0 L 455 0 Z M 162 275 Q 143 250 134 219 L 103 211 Q 78 204 63 185 Q 48 166 48 141 L 48 56 Q 49 49 56 48 L 159 48 Q 170 23 185 0 L 56 0 Q 32 1 16 16 Q 1 32 0 56 L 0 141 Q 1 183 25 215 Q 50 247 91 257 L 162 275 L 162 275 Z M 320 160 Q 306 160 297 169 L 297 169 Q 288 178 288 192 L 288 384 L 352 384 L 352 192 Q 352 178 343 169 Q 334 160 320 160 L 320 160 Z"/>
</svg>
