<svg xmlns="http://www.w3.org/2000/svg" viewBox="0 0 576 448">
    <path d="M 416 0 Q 402 0 393 9 L 393 9 Q 384 18 384 32 L 384 64 L 448 64 L 544 64 Q 558 64 567 55 Q 576 46 576 32 Q 576 18 567 9 Q 558 0 544 0 L 416 0 L 416 0 Z M 384 128 L 288 128 Q 274 128 265 137 Q 256 146 256 160 L 256 192 L 320 192 L 416 192 Q 430 192 439 183 Q 448 174 448 160 L 448 128 L 384 128 L 384 128 Z M 160 256 Q 146 256 137 265 L 137 265 Q 128 274 128 288 L 128 320 L 192 320 L 288 320 Q 302 320 311 311 Q 320 302 320 288 L 320 256 L 256 256 L 160 256 L 160 256 Z M 192 384 L 128 384 L 32 384 Q 18 384 9 393 Q 0 402 0 416 Q 0 430 9 439 Q 18 448 32 448 L 160 448 Q 174 448 183 439 Q 192 430 192 416 L 192 384 L 192 384 Z"/>
</svg>
