<svg xmlns="http://www.w3.org/2000/svg" viewBox="0 0 320 480">
    <path d="M 0 48 Q 1 28 14 14 L 14 14 Q 28 1 48 0 L 272 0 Q 292 1 306 14 Q 319 28 320 48 L 320 136 Q 274 156 256 205 L 256 206 Q 253 193 240 192 L 208 192 Q 193 193 192 208 L 192 240 Q 193 255 208 256 L 239 256 L 234 273 Q 194 301 192 352 L 192 448 L 192 480 L 48 480 Q 28 479 14 466 Q 1 452 0 432 L 0 48 L 0 48 Z M 64 208 L 64 240 Q 65 255 80 256 L 112 256 Q 127 255 128 240 L 128 208 Q 127 193 112 192 L 80 192 Q 65 193 64 208 L 64 208 Z M 64 112 L 64 144 Q 65 159 80 160 L 112 160 Q 127 159 128 144 L 128 112 Q 127 97 112 96 L 80 96 Q 65 97 64 112 L 64 112 Z M 208 96 Q 193 97 192 112 L 192 144 Q 193 159 208 160 L 240 160 Q 255 159 256 144 L 256 112 Q 255 97 240 96 L 208 96 L 208 96 Z M 64 304 L 64 336 Q 65 351 80 352 L 112 352 Q 127 351 128 336 L 128 304 Q 127 289 112 288 L 80 288 Q 65 289 64 304 L 64 304 Z"/>
</svg>
