<svg xmlns="http://www.w3.org/2000/svg" viewBox="0 0 640 240">
    <path d="M 456 0 Q 434 2 432 24 L 432 112 L 432 144 L 432 160 L 32 160 Q 18 160 9 169 Q 0 178 0 192 L 0 208 Q 0 222 9 231 Q 21 206 44 191 Q 67 176 96 176 Q 148 178 176 219 Q 204 178 256 176 Q 288 177 312 194 Q 336 212 347 240 L 432 240 L 454 240 Q 464 212 488 194 Q 512 177 544 176 Q 573 176 596 191 Q 619 206 631 231 Q 640 222 640 208 L 640 144 L 640 128 L 640 118 Q 640 103 631 92 L 572 21 Q 555 1 529 0 L 456 0 L 456 0 Z M 585 112 L 480 112 L 480 48 L 529 48 Q 533 48 535 51 L 585 112 L 585 112 Z"/>
</svg>
