<svg xmlns="http://www.w3.org/2000/svg" viewBox="0 0 192 256">
    <path d="M 32 0 Q 18 0 9 9 L 9 9 Q 0 18 0 32 Q 0 46 9 55 Q 18 64 32 64 L 80 64 Q 94 64 103 55 Q 112 46 112 32 Q 112 18 103 9 Q 94 0 80 0 L 32 0 L 32 0 Z M 64 96 Q 50 96 41 105 L 41 105 Q 32 114 32 128 Q 32 142 41 151 Q 50 160 64 160 L 128 160 Q 142 160 151 151 Q 160 142 160 128 Q 160 114 151 105 Q 142 96 128 96 L 64 96 L 64 96 Z M 64 224 Q 64 238 73 247 L 73 247 Q 82 256 96 256 L 160 256 Q 174 256 183 247 Q 192 238 192 224 Q 192 210 183 201 Q 174 192 160 192 L 96 192 Q 82 192 73 201 Q 64 210 64 224 L 64 224 Z"/>
</svg>
