<svg xmlns="http://www.w3.org/2000/svg" viewBox="0 0 256 512">
    <path d="M 48 0 Q 28 1 14 14 L 14 14 Q 1 28 0 48 L 0 66 Q 8 64 16 64 L 240 64 Q 248 64 256 66 L 256 48 Q 255 28 242 14 Q 228 1 208 0 L 48 0 L 48 0 Z M 0 464 Q 1 484 14 498 L 14 498 Q 28 511 48 512 L 208 512 Q 228 511 242 498 Q 255 484 256 464 L 256 446 Q 248 448 240 448 L 16 448 Q 8 448 0 446 L 0 464 L 0 464 Z M 152 160 Q 150 138 128 136 Q 106 138 104 160 L 104 256 Q 104 266 111 273 L 159 321 Q 176 335 193 321 Q 207 304 193 287 L 152 246 L 152 160 L 152 160 Z"/>
</svg>
