<svg xmlns="http://www.w3.org/2000/svg" viewBox="0 0 512 288">
    <path d="M 224 32 Q 224 18 233 9 L 233 9 Q 242 0 256 0 Q 270 0 279 9 Q 288 18 288 32 Q 288 46 279 55 Q 270 64 256 64 Q 242 64 233 55 Q 224 46 224 32 L 224 32 Z M 64 96 Q 64 82 73 73 L 73 73 Q 82 64 96 64 Q 110 64 119 73 Q 128 82 128 96 Q 128 110 119 119 Q 110 128 96 128 Q 82 128 73 119 Q 64 110 64 96 L 64 96 Z M 416 64 Q 430 64 439 73 L 439 73 Q 448 82 448 96 Q 448 110 439 119 Q 430 128 416 128 Q 402 128 393 119 Q 384 110 384 96 Q 384 82 393 73 Q 402 64 416 64 L 416 64 Z M 448 256 Q 448 242 457 233 L 457 233 Q 466 224 480 224 Q 494 224 503 233 Q 512 242 512 256 Q 512 270 503 279 Q 494 288 480 288 Q 466 288 457 279 Q 448 270 448 256 L 448 256 Z M 32 224 Q 46 224 55 233 L 55 233 Q 64 242 64 256 Q 64 270 55 279 Q 46 288 32 288 Q 18 288 9 279 Q 0 270 0 256 Q 0 242 9 233 Q 18 224 32 224 L 32 224 Z"/>
</svg>
