<svg xmlns="http://www.w3.org/2000/svg" viewBox="0 0 433 376">
    <path d="M 87 0 Q 90 0 94 3 Q 114 21 132 43 Q 141 32 151 22 Q 158 17 165 22 Q 191 48 207 79 Q 223 111 224 134 Q 224 156 216 176 L 161 176 Q 174 151 161 124 Q 159 120 156 115 L 131 145 Q 130 144 120 131 Q 110 119 100 105 Q 90 92 88 89 Q 72 109 64 122 Q 56 135 56 147 Q 56 164 64 176 L 8 176 Q 0 157 0 135 Q 1 105 23 70 Q 44 35 80 3 Q 83 0 87 0 L 87 0 Z M 337 223 L 303 257 L 295 249 Q 281 232 295 215 Q 312 201 329 215 L 337 223 L 337 223 Z M 385 175 L 351 209 L 343 201 Q 329 184 343 167 Q 360 153 377 167 L 385 175 L 385 175 Z M 433 127 L 399 161 L 391 153 Q 377 136 391 119 Q 408 105 425 119 L 433 127 L 433 127 Z M 112 232 Q 134 234 136 256 Q 134 278 112 280 Q 90 278 88 256 Q 90 234 112 232 L 112 232 Z M 80 328 Q 102 330 104 352 Q 102 374 80 376 Q 58 374 56 352 Q 58 330 80 328 L 80 328 Z"/>
</svg>
