<svg xmlns="http://www.w3.org/2000/svg" viewBox="0 0 448 448">
    <path d="M 128 0 Q 114 0 105 9 L 105 9 Q 96 18 96 32 L 96 64 L 48 64 Q 28 65 14 78 Q 1 92 0 112 L 0 192 L 448 192 L 448 112 Q 447 92 434 78 Q 420 65 400 64 L 352 64 L 352 32 Q 352 18 343 9 Q 334 0 320 0 Q 306 0 297 9 Q 288 18 288 32 L 288 64 L 160 64 L 160 32 Q 160 18 151 9 Q 142 0 128 0 L 128 0 Z M 100 422 Q 94 431 98 439 L 98 439 Q 102 447 113 448 L 339 448 Q 349 447 353 440 Q 357 432 352 423 L 269 292 Q 264 285 256 285 Q 248 285 242 292 L 184 376 L 173 361 Q 160 348 147 361 L 100 422 L 100 422 Z"/>
</svg>
