<svg xmlns="http://www.w3.org/2000/svg" viewBox="0 0 640 448">
    <path d="M 64 224 Q 66 152 100 107 Q 133 64 176 64 Q 219 64 252 107 Q 286 152 288 224 Q 286 296 252 341 Q 219 384 176 384 Q 133 384 100 341 Q 66 296 64 224 L 64 224 Z M 320 95 Q 313 81 303 69 Q 280 38 248 19 Q 215 0 176 0 Q 137 0 104 19 Q 72 38 49 69 Q 1 133 0 224 Q 1 315 49 379 Q 72 410 104 429 Q 137 448 176 448 Q 215 448 248 429 Q 280 410 303 379 Q 312 367 320 353 Q 327 367 337 379 Q 360 410 392 429 Q 425 448 464 448 Q 503 448 536 429 Q 568 410 591 379 Q 639 315 640 224 Q 639 133 591 69 Q 568 38 536 19 Q 503 0 464 0 Q 425 0 392 19 Q 360 38 337 69 Q 328 81 320 95 L 320 95 Z M 352 224 Q 354 152 388 107 Q 421 64 464 64 Q 507 64 540 107 Q 574 152 576 224 Q 574 296 540 341 Q 507 384 464 384 Q 421 384 388 341 Q 354 296 352 224 L 352 224 Z"/>
</svg>
