<svg xmlns="http://www.w3.org/2000/svg" viewBox="0 0 450 418">
    <path d="M 307 3 Q 322 9 319 25 L 315 41 Q 335 52 347 73 L 363 69 Q 379 66 385 81 Q 388 97 373 103 L 358 108 Q 359 133 348 154 L 357 163 Q 367 176 357 189 Q 344 199 331 189 L 324 182 Q 310 192 293 196 Q 287 197 281 199 L 283 207 Q 286 223 271 230 Q 255 233 248 217 L 247 213 Q 219 230 210 246 L 219 250 Q 233 258 228 273 Q 220 288 205 283 L 198 280 Q 196 305 181 324 L 189 332 Q 199 344 189 357 Q 176 368 163 357 L 154 348 Q 135 359 111 358 Q 109 358 108 358 Q 108 358 107 358 L 103 373 Q 97 389 81 386 Q 66 379 69 363 L 73 347 Q 52 336 41 315 L 25 319 Q 9 322 3 307 Q 0 291 15 285 L 30 280 Q 30 276 30 271 L 59 272 L 59 272 Q 38 271 34 271 Q 29 271 30 271 L 30 271 L 30 271 L 30 270 L 30 269 Q 30 268 30 267 Q 30 267 30 266 Q 31 266 31 265 Q 31 262 31 259 Q 32 249 35 235 Q 35 235 36 235 Q 36 234 36 233 L 25 229 Q 11 221 15 205 Q 23 191 39 195 L 47 199 Q 53 183 63 166 Q 65 162 67 159 Q 67 158 68 157 L 57 148 Q 45 137 54 123 Q 66 111 79 120 L 89 128 Q 105 110 125 93 L 119 84 Q 111 69 124 59 Q 139 51 149 64 L 155 72 Q 175 60 200 50 L 196 39 Q 190 23 205 16 Q 221 10 229 25 L 234 38 Q 244 35 255 32 Q 268 29 280 30 L 285 15 Q 291 0 307 3 L 307 3 Z M 114 274 Q 98 273 86 273 L 86 273 Q 74 273 66 272 L 66 272 L 114 274 L 114 274 Z M 130 258 Q 144 258 153 249 L 153 249 Q 162 240 162 226 Q 162 212 153 203 Q 144 194 130 194 Q 116 194 107 203 Q 98 212 98 226 Q 98 240 107 249 Q 116 258 130 258 L 130 258 Z M 226 146 Q 225 131 210 130 Q 195 131 194 146 Q 195 161 210 162 Q 225 161 226 146 L 226 146 Z M 418 418 Q 404 418 395 409 L 395 409 Q 386 400 386 386 Q 386 372 395 363 Q 404 354 418 354 Q 432 354 441 363 Q 450 372 450 386 Q 450 400 441 409 Q 432 418 418 418 L 418 418 Z"/>
</svg>
