<svg xmlns="http://www.w3.org/2000/svg" viewBox="0 0 416 416">
    <path d="M 281 9 Q 291 0 304 0 L 304 0 Q 317 0 327 9 L 407 89 Q 416 99 416 112 Q 416 125 407 135 L 404 138 Q 416 171 416 208 Q 414 297 355 355 Q 296 414 208 416 Q 120 414 61 355 Q 2 296 0 208 Q 2 120 61 61 Q 120 2 208 0 Q 245 0 279 12 L 281 9 L 281 9 Z M 96 200 Q 97 156 126 126 L 126 126 Q 156 97 200 96 L 208 96 Q 223 95 224 80 Q 223 65 208 64 L 200 64 Q 142 65 104 104 Q 65 142 64 200 L 64 208 Q 65 223 80 224 Q 95 223 96 208 L 96 200 L 96 200 Z"/>
</svg>
