<svg xmlns="http://www.w3.org/2000/svg" viewBox="0 0 387 448">
    <path d="M 0 352 Q 31 396 79 422 L 79 422 Q 126 447 184 448 Q 252 447 305 412 Q 359 378 387 320 Q 349 315 333 282 Q 315 327 276 355 Q 236 383 184 384 Q 116 382 71 337 Q 26 292 24 224 Q 24 224 24 224 Q 24 224 24 223 Q 13 231 0 235 L 0 352 L 0 352 Z M 69 112 Q 115 66 184 64 Q 232 65 270 89 Q 308 114 328 154 L 328 128 Q 328 91 339 63 Q 277 2 184 0 Q 109 1 53 42 L 69 112 Q 69 112 69 112 Q 69 112 69 112 L 69 112 Z M 312 224 Q 312 189 295 160 L 295 160 Q 278 131 248 113 Q 218 96 184 96 Q 150 96 120 113 Q 90 131 73 160 Q 56 189 56 224 Q 56 259 73 288 Q 90 317 120 335 Q 150 352 184 352 Q 218 352 248 335 Q 278 317 295 288 Q 312 259 312 224 L 312 224 Z"/>
</svg>
