<svg xmlns="http://www.w3.org/2000/svg" viewBox="0 0 215 416">
    <path d="M 132 24 Q 130 2 108 0 Q 86 2 84 24 Q 86 46 108 48 Q 130 46 132 24 L 132 24 Z M 48 192 Q 29 197 28 216 Q 30 237 51 240 L 28 416 L 188 416 L 165 240 Q 186 237 188 216 Q 187 197 168 192 L 210 125 Q 215 115 208 106 Q 200 98 190 102 Q 185 104 180 104 Q 161 103 156 84 Q 154 74 144 71 Q 134 70 127 78 Q 121 88 108 88 Q 95 88 88 78 Q 82 70 72 72 Q 62 74 60 84 Q 55 103 36 104 Q 31 104 26 102 Q 16 98 8 106 Q 0 115 6 125 L 48 192 L 48 192 Z"/>
</svg>
