<svg xmlns="http://www.w3.org/2000/svg" viewBox="0 0 448 418">
    <path d="M 436 9 Q 448 19 448 34 L 448 130 Q 448 145 436 155 Q 424 164 410 161 L 250 129 Q 226 123 224 98 L 224 66 Q 226 41 250 35 L 410 3 Q 424 0 436 9 L 436 9 Z M 64 34 Q 64 20 73 11 L 73 11 Q 82 2 96 2 L 128 2 Q 142 2 151 11 Q 160 20 160 34 L 160 141 Q 189 155 206 181 Q 224 208 224 242 L 224 418 L 0 418 L 0 242 Q 0 208 18 181 Q 35 155 64 141 L 64 34 L 64 34 Z M 112 98 Q 127 97 128 82 Q 127 67 112 66 Q 97 67 96 82 Q 97 97 112 98 L 112 98 Z"/>
</svg>
