<svg xmlns="http://www.w3.org/2000/svg" viewBox="0 0 640 256">
    <path d="M 431 29 Q 386 66 384 128 Q 385 182 421 219 Q 458 255 512 256 Q 566 255 603 219 Q 639 182 640 128 Q 639 74 603 37 Q 566 1 512 0 Q 492 0 473 6 L 501 57 Q 506 56 512 56 Q 543 57 563 77 Q 583 97 584 128 Q 583 159 563 179 Q 543 199 512 200 Q 481 199 461 179 Q 441 159 440 128 Q 441 99 459 80 L 431 29 L 431 29 Z M 128 0 Q 74 1 37 37 L 37 37 Q 1 74 0 128 Q 1 182 37 219 Q 74 255 128 256 Q 178 255 213 224 Q 248 192 255 144 L 198 144 Q 192 169 173 184 Q 154 200 128 200 Q 97 199 77 179 Q 57 159 56 128 Q 57 97 77 77 Q 97 57 128 56 Q 131 56 133 56 Q 133 56 133 56 L 159 4 Q 144 0 128 0 L 128 0 Z"/>
</svg>
