<svg xmlns="http://www.w3.org/2000/svg" viewBox="0 0 268 328">
    <path d="M 244 0 Q 266 2 268 24 Q 266 46 244 48 Q 222 46 220 24 Q 222 2 244 0 L 244 0 Z M 103 50 Q 89 32 68 32 L 68 32 Q 47 32 33 50 Q 23 61 10 53 Q 0 43 7 30 Q 32 0 68 0 Q 104 0 129 30 Q 137 43 126 53 Q 113 60 103 50 L 103 50 Z M 228 219 L 228 264 Q 227 291 209 309 Q 191 327 164 328 Q 137 327 119 309 Q 101 291 100 264 L 100 219 Q 102 194 127 192 L 129 192 Q 147 193 152 211 Q 155 220 164 220 Q 173 220 176 211 Q 181 193 199 192 L 201 192 Q 226 194 228 219 L 228 219 Z"/>
</svg>
