<svg xmlns="http://www.w3.org/2000/svg" viewBox="0 0 640 406">
    <path d="M 197 22 L 212 52 Q 181 73 161 98 Q 152 109 144 119 Q 143 121 141 122 L 140 124 Q 131 136 123 145 Q 108 160 104 158 Q 101 158 97 155 Q 92 150 84 137 L 84 136 Q 77 124 64 111 Q 50 95 24 94 Q 2 96 0 118 Q 2 140 24 142 Q 27 142 31 145 Q 36 150 44 163 L 44 164 L 44 164 Q 51 176 64 189 Q 78 205 104 206 Q 131 204 148 187 Q 153 193 159 200 Q 158 201 158 203 Q 156 208 155 213 Q 154 214 154 216 Q 153 219 152 221 Q 152 222 151 224 Q 148 237 144 247 Q 138 261 133 266 Q 130 270 120 270 Q 109 270 86 257 Q 75 250 59 244 Q 44 238 24 238 Q 2 240 0 262 Q 2 284 24 286 Q 43 287 64 299 Q 65 300 66 300 Q 66 300 67 301 L 67 301 Q 77 307 90 312 Q 104 318 120 318 Q 148 318 166 301 Q 182 284 188 265 Q 194 251 198 236 Q 222 255 257 268 Q 251 284 242 304 Q 231 328 216 344 Q 202 359 192 358 Q 170 360 168 382 Q 170 404 192 406 Q 230 403 252 377 Q 273 353 286 324 Q 298 298 304 277 Q 312 278 320 278 Q 328 278 336 277 Q 342 298 354 324 Q 367 353 389 377 Q 410 403 448 406 Q 470 404 472 382 Q 470 360 448 358 Q 438 359 424 344 Q 409 328 398 304 Q 389 284 383 268 Q 418 255 442 236 Q 442 237 442 237 Q 447 251 452 265 Q 458 284 474 301 Q 492 318 520 318 Q 553 315 573 301 Q 573 301 573 301 Q 575 300 576 299 Q 597 287 616 286 Q 638 284 640 262 Q 638 240 616 238 Q 596 238 581 244 Q 565 250 554 257 Q 531 270 520 270 Q 510 270 507 266 Q 502 261 496 247 Q 492 236 488 221 Q 487 219 486 217 Q 486 215 485 213 Q 484 208 482 203 Q 482 201 481 200 Q 487 193 492 187 Q 509 204 536 206 Q 562 205 576 189 Q 589 176 596 164 L 596 163 Q 604 150 609 145 Q 613 142 616 142 Q 638 140 640 118 Q 638 96 616 94 Q 590 95 576 111 Q 563 124 556 136 L 556 137 Q 548 150 543 155 Q 539 158 536 158 Q 532 160 517 145 Q 509 136 500 124 L 498 122 Q 497 121 496 119 Q 488 109 479 98 Q 459 73 428 52 L 443 22 Q 417 19 400 0 L 384 31 Q 357 22 320 22 Q 283 22 256 31 L 240 0 Q 223 19 197 22 L 197 22 Z"/>
</svg>
