<svg xmlns="http://www.w3.org/2000/svg" viewBox="0 0 448 448">
    <path d="M 64 0 Q 37 1 19 19 L 19 19 Q 1 37 0 64 L 0 384 Q 1 411 19 429 Q 37 447 64 448 L 384 448 Q 411 447 429 429 Q 447 411 448 384 L 448 64 Q 447 37 429 19 Q 411 1 384 0 L 64 0 L 64 0 Z M 112 64 L 144 64 Q 159 65 160 80 Q 159 95 144 96 L 211 96 Q 223 66 256 64 L 336 64 Q 356 65 370 78 Q 383 92 384 112 L 384 336 Q 383 356 370 370 Q 356 383 336 384 L 112 384 Q 92 383 78 370 Q 65 356 64 336 L 64 112 Q 65 92 78 78 Q 92 65 112 64 L 112 64 Z"/>
</svg>
