<svg xmlns="http://www.w3.org/2000/svg" viewBox="0 0 320 448">
    <path d="M 320 160 L 160 0 L 160 128 Q 160 142 169 151 Q 178 160 192 160 L 320 160 L 320 160 Z M 224 224 Q 224 216 217 211 Q 210 206 202 209 L 74 257 Q 65 261 64 272 L 64 304 L 64 386 Q 56 384 48 384 Q 28 384 14 393 Q 1 402 0 416 Q 1 430 14 439 Q 28 448 48 448 Q 68 448 82 439 Q 95 430 96 416 L 96 315 L 192 279 L 192 354 Q 184 352 176 352 Q 156 352 142 361 Q 129 370 128 384 Q 129 398 142 407 Q 156 416 176 416 Q 196 416 210 407 Q 223 398 224 384 L 224 256 L 224 224 L 224 224 Z"/>
</svg>
