<svg xmlns="http://www.w3.org/2000/svg" viewBox="0 0 512 450">
    <path d="M 303 37 Q 345 46 379 69 Q 389 64 400 64 Q 420 65 434 78 Q 447 92 448 112 Q 448 123 443 133 Q 466 167 475 209 Q 491 213 501 226 Q 512 239 512 256 Q 512 273 502 286 Q 491 299 475 303 Q 466 345 443 379 Q 448 389 448 400 Q 447 420 434 434 Q 420 447 400 448 Q 389 448 379 443 Q 374 447 369 450 L 342 391 Q 349 386 356 381 Q 364 364 381 356 Q 407 323 414 280 L 298 280 Q 304 269 304 256 Q 303 236 290 222 Q 276 208 256 208 Q 236 208 222 222 Q 209 236 208 256 Q 208 269 214 280 L 98 280 Q 105 323 131 356 Q 148 363 156 381 Q 163 386 171 391 L 143 450 Q 138 446 133 443 Q 123 448 112 448 Q 92 447 78 434 Q 65 420 64 400 Q 64 389 69 379 Q 46 345 37 303 Q 21 299 11 286 Q 0 273 0 256 Q 0 239 11 226 Q 21 213 37 209 Q 46 168 69 133 Q 64 123 64 112 Q 65 92 78 78 Q 92 65 112 64 Q 123 64 133 69 Q 167 46 209 37 Q 213 21 226 11 Q 239 0 256 0 Q 273 0 286 11 Q 299 21 303 37 L 303 37 Z M 127 161 Q 104 192 98 232 L 198 232 L 127 161 L 127 161 Z M 161 127 L 232 198 L 232 98 Q 192 104 161 127 L 161 127 Z M 280 98 L 280 198 L 351 127 Q 320 104 280 98 L 280 98 Z M 385 161 L 314 232 L 414 232 Q 408 192 385 161 L 385 161 Z"/>
</svg>
