<svg xmlns="http://www.w3.org/2000/svg" viewBox="0 0 416 320">
    <path d="M 263 0 Q 276 20 288 35 L 288 35 Q 300 50 307 58 Q 312 64 320 64 L 224 64 Q 210 64 201 73 Q 192 82 192 96 Q 192 110 201 119 Q 210 128 224 128 L 320 128 Q 361 129 388 156 Q 415 183 416 224 Q 415 265 388 292 Q 361 319 320 320 L 0 320 Q 8 320 13 314 Q 20 306 32 291 Q 44 276 57 256 L 320 256 Q 334 256 343 247 Q 352 238 352 224 Q 352 210 343 201 Q 334 192 320 192 L 224 192 Q 183 191 156 164 Q 129 137 128 96 Q 129 55 156 28 Q 183 1 224 0 L 263 0 L 263 0 Z"/>
</svg>
