<svg xmlns="http://www.w3.org/2000/svg" viewBox="0 0 522 240">
    <path d="M 10 112 L 122 0 L 144 22 L 32 134 Q 21 144 10 134 Q 0 123 10 112 L 10 112 Z M 58 160 L 170 48 L 192 70 L 80 182 Q 69 192 58 182 Q 48 171 58 160 L 58 160 Z M 106 208 L 218 96 L 240 118 L 128 230 Q 117 240 106 230 Q 96 219 106 208 L 106 208 Z M 394 230 L 293 130 L 316 107 L 416 208 Q 426 219 416 230 Q 405 240 394 230 L 394 230 Z M 442 182 L 341 82 L 352 70 L 364 59 L 464 160 Q 474 171 464 182 Q 453 192 442 182 L 442 182 Z M 490 134 L 389 34 L 412 11 L 512 112 Q 522 123 512 134 Q 501 144 490 134 L 490 134 Z"/>
</svg>
