<svg xmlns="http://www.w3.org/2000/svg" viewBox="0 0 325 464">
    <path d="M 67 120 Q 72 94 101 81 Q 134 67 190 75 Q 200 77 220 81 Q 240 84 250 87 Q 263 90 274 84 Q 285 77 289 64 Q 292 51 286 40 Q 279 29 266 25 Q 254 22 232 18 Q 211 13 200 12 Q 131 0 76 23 Q 18 46 4 110 Q 4 110 4 110 Q 4 111 4 112 Q 0 147 14 176 Q 21 190 31 200 L 176 200 Q 176 200 176 200 Q 176 200 176 200 L 175 200 Q 120 185 89 167 Q 76 157 71 147 Q 66 139 67 120 L 67 120 Z M 255 313 Q 260 322 257 343 Q 253 370 223 383 Q 190 397 134 389 Q 120 387 100 380 Q 80 374 61 367 Q 60 367 60 367 Q 57 366 55 365 Q 49 363 44 362 Q 31 358 20 363 Q 8 369 4 382 Q 0 395 5 406 Q 11 418 24 423 Q 26 423 29 424 Q 33 426 37 427 L 37 427 L 37 427 Q 56 434 81 441 Q 105 449 124 452 L 124 452 L 124 452 Q 193 464 248 442 Q 306 418 320 354 Q 325 323 317 296 L 241 296 Q 251 304 255 313 L 255 313 Z"/>
</svg>
