<svg xmlns="http://www.w3.org/2000/svg" viewBox="0 0 640 512">
    <path d="M 300 112 L 352 125 L 352 182 L 352 227 Q 353 293 399 340 L 443 385 Q 448 389 448 396 Q 447 410 433 412 L 30 448 Q 24 449 20 450 Q 6 456 1 471 Q 0 476 0 481 Q 0 487 2 492 Q 8 506 23 511 Q 27 512 32 512 L 432 512 L 496 512 L 530 512 Q 577 511 608 480 Q 639 449 640 402 Q 640 373 626 349 Q 613 325 588 309 L 482 243 Q 449 221 448 181 L 448 160 L 480 160 L 493 173 Q 512 192 539 192 L 560 192 Q 580 191 594 178 Q 607 164 608 144 Q 608 128 598 115 L 541 38 Q 511 1 464 0 L 448 0 L 416 0 L 304 0 Q 293 1 289 11 Q 286 22 294 29 L 338 61 L 297 82 Q 287 87 288 98 Q 290 109 300 112 L 300 112 Z M 511 80 Q 505 95 488 96 Q 466 94 464 72 Q 464 70 464 68 L 511 80 L 511 80 Z M 512 72 L 512 72 Q 512 72 512 72 Q 512 72 512 72 Q 512 72 512 72 Q 512 72 512 72 L 512 72 Z"/>
</svg>
