<svg xmlns="http://www.w3.org/2000/svg" viewBox="0 0 320 416">
    <path d="M 320 160 L 160 0 L 160 128 Q 160 142 169 151 Q 178 160 192 160 L 320 160 L 320 160 Z M 48 256 Q 28 257 14 270 L 14 270 Q 1 284 0 304 L 0 368 Q 1 388 14 402 Q 28 415 48 416 L 80 416 Q 100 415 114 402 Q 127 388 128 368 L 128 304 Q 127 284 114 270 Q 100 257 80 256 L 48 256 L 48 256 Z M 32 304 Q 33 289 48 288 L 80 288 Q 95 289 96 304 L 96 368 Q 95 383 80 384 L 48 384 Q 33 383 32 368 L 32 304 L 32 304 Z M 176 256 Q 161 257 160 272 Q 161 287 176 288 L 192 288 L 192 384 L 176 384 Q 161 385 160 400 Q 161 415 176 416 L 208 416 L 240 416 Q 255 415 256 400 Q 255 385 240 384 L 224 384 L 224 272 Q 223 257 208 256 L 176 256 L 176 256 Z"/>
</svg>
