<svg xmlns="http://www.w3.org/2000/svg" viewBox="0 0 576 448">
    <path d="M 504 0 Q 526 2 528 24 L 528 32 L 544 32 Q 558 32 567 41 Q 576 50 576 64 L 576 144 Q 576 158 567 167 Q 558 176 544 176 L 477 176 L 455 199 Q 445 208 432 208 L 245 208 L 191 424 Q 184 447 160 448 L 64 448 Q 48 448 39 436 Q 30 423 33 408 L 73 248 Q 76 232 67 220 Q 58 209 42 208 L 32 208 Q 18 208 9 199 Q 0 190 0 176 L 0 64 Q 0 50 9 41 Q 18 32 32 32 L 480 32 L 480 24 Q 482 2 504 0 L 504 0 Z M 80 96 Q 65 97 64 112 Q 65 127 80 128 L 464 128 Q 479 127 480 112 Q 479 97 464 96 L 80 96 L 80 96 Z"/>
</svg>
