<svg xmlns="http://www.w3.org/2000/svg" viewBox="0 0 143 448">
    <path d="M 47 0 Q 25 2 23 24 Q 25 46 47 48 L 55 48 L 55 144 L 39 144 Q 17 146 15 168 Q 17 190 39 192 L 119 192 Q 141 190 143 168 Q 141 146 119 144 L 103 144 L 103 24 Q 101 2 79 0 L 47 0 L 47 0 Z M 62 310 Q 73 298 86 309 Q 93 320 85 330 L 13 408 Q 3 419 9 434 Q 16 447 31 448 L 119 448 Q 141 446 143 424 Q 141 402 119 400 L 86 400 L 121 362 Q 137 344 137 320 Q 138 297 122 278 Q 100 255 71 256 Q 42 257 23 282 L 12 298 Q 0 317 17 332 Q 36 343 51 326 L 62 310 L 62 310 Z"/>
</svg>
