<svg xmlns="http://www.w3.org/2000/svg" viewBox="0 0 544 427">
    <path d="M 288 16 Q 287 31 272 32 L 16 32 Q 1 31 0 16 Q 1 1 16 0 L 272 0 Q 287 1 288 16 L 288 16 Z M 240 64 Q 255 65 256 80 Q 255 95 240 96 L 48 96 Q 33 95 32 80 Q 33 65 48 64 L 240 64 L 240 64 Z M 208 128 Q 223 129 224 144 Q 223 159 208 160 L 16 160 Q 1 159 0 144 Q 1 129 16 128 L 208 128 L 208 128 Z M 96 336 Q 97 291 136 267 Q 176 245 216 267 Q 255 291 256 336 Q 255 381 216 405 Q 176 427 136 405 Q 97 381 96 336 L 96 336 Z M 384 336 Q 385 291 424 267 Q 464 245 504 267 Q 543 291 544 336 Q 543 381 504 405 Q 464 427 424 405 Q 385 381 384 336 L 384 336 Z"/>
</svg>
