<svg xmlns="http://www.w3.org/2000/svg" viewBox="0 0 513 480">
    <path d="M 321 11 Q 322 1 332 0 Q 337 0 340 4 L 380 58 Q 385 64 393 64 L 441 64 Q 449 64 454 58 L 494 4 Q 497 0 502 0 Q 512 1 513 11 L 513 128 Q 512 169 485 196 Q 458 223 417 224 Q 376 223 349 196 Q 322 169 321 128 L 321 11 L 321 11 Z M 385 144 Q 400 143 401 128 Q 400 113 385 112 Q 370 113 369 128 Q 370 143 385 144 L 385 144 Z M 465 128 Q 464 113 449 112 Q 434 113 433 128 Q 434 143 449 144 Q 464 143 465 128 L 465 128 Z M 129 246 Q 151 212 185 190 L 185 190 Q 219 168 261 162 Q 273 217 316 252 Q 358 287 417 288 Q 434 288 449 285 L 449 320 L 449 448 Q 449 462 440 471 Q 431 480 417 480 Q 403 480 394 471 Q 385 462 385 448 L 385 354 L 269 416 L 305 416 Q 319 416 328 425 Q 337 434 337 448 Q 337 462 328 471 Q 319 480 305 480 L 161 480 Q 120 479 93 452 Q 66 425 65 384 L 65 161 Q 63 134 37 129 L 29 128 Q 16 126 8 116 Q 0 106 1 92 Q 3 79 13 71 Q 23 63 37 64 L 45 65 Q 82 71 105 97 Q 128 123 129 161 L 129 246 L 129 246 Z"/>
</svg>
