<svg xmlns="http://www.w3.org/2000/svg" viewBox="0 0 432 464">
    <path d="M 384 16 L 384 48 L 416 48 Q 431 49 432 64 Q 431 79 416 80 L 384 80 L 384 112 Q 383 127 368 128 Q 353 127 352 112 L 352 80 L 320 80 Q 305 79 304 64 Q 305 49 320 48 L 352 48 L 352 16 Q 353 1 368 0 Q 383 1 384 16 L 384 16 Z M 0 288 Q 0 240 24 200 L 24 200 Q 47 160 88 136 Q 130 112 176 112 Q 222 112 264 136 Q 305 160 328 200 Q 352 240 352 288 Q 352 336 328 376 Q 305 416 264 440 Q 222 464 176 464 Q 130 464 88 440 Q 47 416 24 376 Q 0 336 0 288 L 0 288 Z M 176 160 Q 161 161 160 176 L 160 208 L 128 208 Q 113 209 112 224 Q 113 239 128 240 L 160 240 L 160 272 Q 161 287 176 288 Q 191 287 192 272 L 192 240 L 224 240 Q 239 239 240 224 Q 239 209 224 208 L 192 208 L 192 176 Q 191 161 176 160 L 176 160 Z"/>
</svg>
