<svg xmlns="http://www.w3.org/2000/svg" viewBox="0 0 512 512">
    <path d="M 457 9 Q 467 0 480 0 L 480 0 Q 493 0 503 9 Q 512 19 512 32 Q 512 45 503 55 L 397 160 L 448 160 Q 462 160 471 169 Q 480 178 480 192 Q 480 206 471 215 Q 462 224 448 224 L 320 224 Q 306 224 297 215 Q 288 206 288 192 L 288 64 Q 288 50 297 41 Q 306 32 320 32 Q 334 32 343 41 Q 352 50 352 64 L 352 115 L 457 9 L 457 9 Z M 32 320 Q 32 306 41 297 L 41 297 Q 50 288 64 288 L 192 288 Q 206 288 215 297 Q 224 306 224 320 L 224 448 Q 224 462 215 471 Q 206 480 192 480 Q 178 480 169 471 Q 160 462 160 448 L 160 397 L 55 503 Q 45 512 32 512 Q 19 512 9 503 Q 0 493 0 480 Q 0 467 9 457 L 115 352 L 64 352 Q 50 352 41 343 Q 32 334 32 320 L 32 320 Z"/>
</svg>
