<svg xmlns="http://www.w3.org/2000/svg" viewBox="0 0 416 416">
    <path d="M 208 416 Q 265 416 312 388 L 312 388 Q 359 361 388 312 Q 416 263 416 208 Q 416 153 388 104 Q 359 55 312 28 Q 265 0 208 0 Q 151 0 104 28 Q 57 55 28 104 Q 0 153 0 208 Q 0 263 28 312 Q 57 361 104 388 Q 151 416 208 416 L 208 416 Z M 228 104 L 228 118 Q 239 120 249 123 Q 266 129 263 147 Q 257 164 239 161 Q 222 157 208 156 Q 195 156 186 161 Q 179 165 180 170 Q 179 173 185 177 Q 194 182 214 188 L 214 188 Q 215 188 215 188 Q 233 193 251 203 Q 273 214 276 244 Q 274 276 251 289 Q 240 296 228 298 L 228 312 Q 226 330 208 332 Q 190 330 188 312 L 188 297 Q 172 294 160 289 L 160 289 L 160 289 Q 157 288 154 287 Q 137 280 141 262 Q 148 245 166 249 Q 168 250 170 250 Q 172 251 174 251 Q 193 259 209 260 Q 222 260 230 255 Q 236 252 236 245 Q 237 241 230 237 Q 221 231 202 226 L 200 225 Q 200 225 200 225 Q 182 221 165 211 Q 143 200 140 171 Q 142 139 166 127 Q 176 121 188 118 L 188 104 Q 190 86 208 84 Q 226 86 228 104 L 228 104 Z"/>
</svg>
