<svg xmlns="http://www.w3.org/2000/svg" viewBox="0 0 512 512">
    <path d="M 105 503 Q 115 512 128 512 L 128 512 Q 141 512 151 503 L 247 407 Q 256 397 256 384 Q 256 371 247 361 Q 237 352 224 352 Q 211 352 201 361 L 160 403 L 160 288 L 96 288 L 96 403 L 55 361 Q 45 352 32 352 Q 19 352 9 361 Q 0 371 0 384 Q 0 397 9 407 L 105 503 L 105 503 Z M 96 224 L 160 224 L 160 64 Q 160 50 151 41 Q 142 32 128 32 Q 114 32 105 41 Q 96 50 96 64 L 96 224 L 96 224 Z M 361 9 L 265 105 Q 256 115 256 128 Q 256 141 265 151 Q 275 160 288 160 Q 301 160 311 151 L 352 109 L 352 224 L 416 224 L 416 109 L 457 151 Q 467 160 480 160 Q 493 160 503 151 Q 512 141 512 128 Q 512 115 503 105 L 407 9 Q 397 0 384 0 Q 371 0 361 9 L 361 9 Z M 416 448 L 416 288 L 352 288 L 352 448 Q 352 462 361 471 Q 370 480 384 480 Q 398 480 407 471 Q 416 462 416 448 L 416 448 Z"/>
</svg>
