<svg xmlns="http://www.w3.org/2000/svg" viewBox="0 0 448 352">
    <path d="M 0 0 L 25 0 L 192 0 L 224 0 L 224 192 L 192 192 L 168 192 L 168 192 Q 97 190 49 143 Q 2 95 0 24 L 0 0 L 0 0 Z M 256 192 L 256 0 L 272 0 Q 328 1 371 30 Q 414 60 434 108 L 301 201 Q 289 192 274 192 L 256 192 L 256 192 Z M 319 227 L 444 140 Q 448 158 448 176 Q 447 240 409 287 L 318 251 Q 320 245 320 238 Q 320 232 319 227 L 319 227 Z M 298 277 L 384 312 Q 343 346 288 351 L 288 281 Q 293 280 298 277 L 298 277 Z M 256 280 L 256 352 L 184 352 Q 162 350 160 328 Q 162 308 181 304 L 176 303 Q 156 293 161 272 Q 171 252 192 257 L 256 280 L 256 280 Z M 128 88 Q 150 86 152 64 Q 150 42 128 40 Q 106 42 104 64 Q 106 86 128 88 L 128 88 Z"/>
</svg>
