<svg xmlns="http://www.w3.org/2000/svg" viewBox="0 0 576 520">
    <path d="M 355 144 L 320 112 L 320 216 Q 320 230 311 239 Q 302 248 288 248 Q 274 248 265 239 Q 256 230 256 216 L 256 112 L 222 144 Q 211 153 198 152 Q 186 151 176 141 Q 167 131 168 118 Q 169 106 179 96 L 267 16 Q 288 0 310 16 L 398 96 Q 407 106 408 118 Q 409 131 400 141 Q 390 151 378 152 Q 365 152 355 144 L 355 144 Z M 24 472 L 552 472 Q 574 474 576 496 Q 574 518 552 520 L 24 520 Q 2 518 0 496 Q 2 474 24 472 L 24 472 Z"/>
</svg>
