<svg xmlns="http://www.w3.org/2000/svg" viewBox="0 0 512 384">
    <path d="M 0 64 Q 1 37 19 19 L 19 19 Q 37 1 64 0 L 448 0 Q 475 1 493 19 Q 511 37 512 64 L 512 320 Q 511 347 493 365 Q 475 383 448 384 L 64 384 Q 37 383 19 365 Q 1 347 0 320 L 0 64 L 0 64 Z M 448 192 Q 447 147 408 123 Q 368 101 328 123 Q 289 147 288 192 Q 289 237 328 261 Q 368 283 408 261 Q 447 237 448 192 L 448 192 Z M 96 112 Q 81 113 80 128 Q 81 143 96 144 L 192 144 Q 207 143 208 128 Q 207 113 192 112 L 96 112 L 96 112 Z M 80 176 Q 65 177 64 192 Q 65 207 80 208 L 208 208 Q 223 207 224 192 Q 223 177 208 176 L 80 176 L 80 176 Z M 96 240 Q 81 241 80 256 Q 81 271 96 272 L 192 272 Q 207 271 208 256 Q 207 241 192 240 L 96 240 L 96 240 Z"/>
</svg>
