<svg xmlns="http://www.w3.org/2000/svg" viewBox="0 0 640 448">
    <path d="M 345 336 L 306 336 Q 296 360 284 384 L 406 384 L 345 336 L 345 336 Z M 181 207 L 164 212 Q 133 221 115 246 Q 96 271 96 304 L 96 376 Q 97 406 117 427 Q 138 447 169 448 Q 210 447 231 412 L 245 387 Q 272 341 288 291 L 181 207 L 181 207 Z M 398 208 L 386 245 L 441 288 L 544 288 Q 558 288 567 279 Q 576 270 576 256 Q 576 242 567 233 Q 558 224 544 224 L 460 224 L 478 170 Q 484 152 471 138 Q 457 125 439 129 L 316 166 Q 320 135 320 104 L 320 96 Q 319 55 292 28 Q 265 1 224 0 Q 196 0 174 14 Q 151 28 139 52 L 192 93 Q 193 81 202 73 Q 211 64 224 64 Q 238 64 247 73 Q 256 82 256 96 L 256 104 Q 256 123 255 142 L 355 221 L 398 208 L 398 208 Z M 502 336 L 563 384 L 616 384 Q 638 382 640 360 Q 638 338 616 336 L 502 336 L 502 336 Z M 232 258 Q 216 309 190 356 L 176 380 Q 173 384 168 384 Q 161 383 160 376 L 160 304 Q 161 281 183 273 L 232 258 L 232 258 Z M 64 336 L 24 336 Q 2 338 0 360 Q 2 382 24 384 L 64 384 Q 64 380 64 376 L 64 336 L 64 336 Z"/>
</svg>
