<svg xmlns="http://www.w3.org/2000/svg" viewBox="0 0 176 453">
    <path d="M 120 35 L 120 131 L 136 131 Q 150 131 159 140 Q 168 149 168 163 Q 168 177 159 186 Q 150 195 136 195 L 88 195 L 40 195 Q 26 195 17 186 Q 8 177 8 163 Q 8 149 17 140 Q 26 131 40 131 L 56 131 L 56 79 L 50 81 Q 37 85 26 80 Q 14 74 10 61 Q 6 48 11 37 Q 17 25 30 21 L 78 5 Q 93 0 107 9 Q 119 19 120 35 L 120 35 Z M 102 336 Q 114 330 118 318 L 118 318 Q 122 306 117 293 Q 111 281 99 277 Q 87 272 74 278 Q 62 284 58 296 Q 54 308 59 321 Q 65 333 77 337 Q 89 341 102 336 L 102 336 Z M 61 391 Q 34 382 17 359 L 17 359 Q 0 337 0 307 Q 1 270 26 245 Q 51 220 88 219 Q 125 220 150 245 Q 175 270 176 307 Q 176 343 155 372 L 106 438 Q 97 449 85 451 Q 72 453 61 445 Q 50 436 48 424 Q 46 411 54 400 L 61 391 L 61 391 Z"/>
</svg>
