<svg xmlns="http://www.w3.org/2000/svg" viewBox="0 0 448 448">
    <path d="M 224 64 Q 267 64 304 85 L 304 85 Q 341 107 363 144 Q 384 182 384 224 Q 384 266 363 304 Q 341 341 304 363 Q 267 384 224 384 Q 181 384 144 363 Q 107 341 85 304 Q 64 266 64 224 Q 64 182 85 144 Q 107 107 144 85 Q 181 64 224 64 L 224 64 Z M 224 448 Q 285 447 336 418 L 336 418 Q 387 388 418 336 Q 448 283 448 224 Q 448 165 418 112 Q 387 60 336 30 Q 285 1 224 0 Q 163 1 112 30 Q 61 60 30 112 Q 0 165 0 224 Q 0 283 30 336 Q 61 388 112 418 Q 163 447 224 448 L 224 448 Z M 320 224 Q 320 198 307 176 L 307 176 Q 294 154 272 141 Q 249 128 224 128 Q 199 128 176 141 Q 154 154 141 176 Q 128 198 128 224 Q 128 250 141 272 Q 154 294 176 307 Q 199 320 224 320 Q 249 320 272 307 Q 294 294 307 272 Q 320 250 320 224 L 320 224 Z M 224 192 Q 238 192 247 201 L 247 201 Q 256 210 256 224 Q 256 238 247 247 Q 238 256 224 256 Q 210 256 201 247 Q 192 238 192 224 Q 192 210 201 201 Q 210 192 224 192 L 224 192 Z"/>
</svg>
