<svg xmlns="http://www.w3.org/2000/svg" viewBox="0 0 293 368">
    <path d="M 50 46 Q 62 33 83 32 Q 98 31 99 16 Q 98 1 83 0 Q 47 2 28 22 Q 9 42 4 59 Q 0 73 14 79 Q 28 82 34 69 Q 37 59 50 45 L 50 46 Z M 244 46 Q 257 59 260 69 Q 266 83 280 79 Q 293 73 290 59 Q 285 42 266 23 Q 247 2 211 0 Q 196 1 195 16 Q 196 31 211 32 Q 232 33 244 46 L 244 46 Z M 179 304 Q 180 319 195 320 Q 210 319 211 304 L 211 244 Q 196 250 179 253 L 179 304 L 179 304 Z M 243 352 Q 244 367 259 368 Q 274 367 275 352 L 275 200 Q 261 214 243 227 L 243 352 L 243 352 Z"/>
</svg>
