<svg xmlns="http://www.w3.org/2000/svg" viewBox="0 0 368 192">
    <path d="M 48 24 Q 46 2 24 0 Q 2 2 0 24 L 0 96 L 0 168 Q 2 190 24 192 Q 46 190 48 168 L 48 120 L 112 120 L 112 168 Q 114 190 136 192 Q 158 190 160 168 L 160 96 L 160 24 Q 158 2 136 0 Q 114 2 112 24 L 112 72 L 48 72 L 48 24 L 48 24 Z M 216 0 Q 194 2 192 24 L 192 168 Q 194 190 216 192 L 272 192 Q 313 191 340 164 Q 367 137 368 96 Q 367 55 340 28 Q 313 1 272 0 L 216 0 L 216 0 Z M 272 144 L 240 144 L 240 48 L 272 48 Q 292 49 306 62 Q 319 76 320 96 Q 319 116 306 130 Q 292 143 272 144 L 272 144 Z"/>
</svg>
