<svg xmlns="http://www.w3.org/2000/svg" viewBox="0 0 448 448">
    <path d="M 0 96 Q 1 55 28 28 L 28 28 Q 55 1 96 0 L 352 0 Q 393 1 420 28 Q 447 55 448 96 L 448 352 Q 447 393 420 420 Q 393 447 352 448 L 96 448 Q 55 447 28 420 Q 1 393 0 352 L 0 96 L 0 96 Z M 64 96 L 64 192 Q 64 206 73 215 Q 82 224 96 224 L 352 224 Q 366 224 375 215 Q 384 206 384 192 L 384 96 Q 384 82 375 73 Q 366 64 352 64 L 96 64 Q 82 64 73 73 Q 64 82 64 96 L 64 96 Z M 224 384 Q 251 383 266 360 Q 278 336 266 312 Q 251 289 224 288 Q 197 289 182 312 Q 170 336 182 360 Q 197 383 224 384 L 224 384 Z"/>
</svg>
