<svg xmlns="http://www.w3.org/2000/svg" viewBox="0 0 352 416">
    <path d="M 64 0 Q 37 1 19 19 L 19 19 Q 1 37 0 64 L 0 352 Q 1 379 19 397 Q 37 415 64 416 L 288 416 Q 315 415 333 397 Q 351 379 352 352 L 352 64 Q 351 37 333 19 Q 315 1 288 0 L 64 0 L 64 0 Z M 88 64 L 264 64 Q 286 66 288 88 L 288 104 Q 286 126 264 128 L 88 128 Q 66 126 64 104 L 64 88 Q 66 66 88 64 L 88 64 Z M 80 192 L 144 192 Q 159 193 160 208 L 160 240 Q 159 255 144 256 L 80 256 Q 65 255 64 240 L 64 208 Q 65 193 80 192 L 80 192 Z M 64 304 Q 65 289 80 288 L 144 288 Q 159 289 160 304 L 160 336 Q 159 351 144 352 L 80 352 Q 65 351 64 336 L 64 304 L 64 304 Z M 208 192 L 272 192 Q 287 193 288 208 L 288 240 Q 287 255 272 256 L 208 256 Q 193 255 192 240 L 192 208 Q 193 193 208 192 L 208 192 Z M 192 304 Q 193 289 208 288 L 272 288 Q 287 289 288 304 L 288 336 Q 287 351 272 352 L 208 352 Q 193 351 192 336 L 192 304 L 192 304 Z"/>
</svg>
