<svg xmlns="http://www.w3.org/2000/svg" viewBox="0 0 384 352">
    <path d="M 0 32 Q 0 18 9 9 L 9 9 Q 18 0 32 0 L 352 0 Q 366 0 375 9 Q 384 18 384 32 Q 384 46 375 55 Q 366 64 352 64 L 352 288 Q 366 288 375 297 Q 384 306 384 320 Q 384 334 375 343 Q 366 352 352 352 L 32 352 Q 18 352 9 343 Q 0 334 0 320 Q 0 306 9 297 Q 18 288 32 288 L 32 64 Q 18 64 9 55 Q 0 46 0 32 L 0 32 Z M 233 67 Q 223 61 214 68 L 102 164 Q 94 171 97 182 Q 101 191 112 192 L 170 192 L 145 267 Q 142 278 151 285 Q 161 291 170 284 L 282 188 Q 290 181 287 170 Q 283 160 272 160 L 214 160 L 239 85 Q 242 74 233 67 L 233 67 Z"/>
</svg>
