<svg xmlns="http://www.w3.org/2000/svg" viewBox="0 0 640 272">
    <path d="M 240 36 L 122 36 Q 104 2 64 0 Q 37 1 19 19 Q 1 37 0 64 Q 1 91 19 109 Q 37 127 64 128 Q 104 126 122 92 L 189 92 Q 144 122 116 169 Q 89 215 85 272 L 141 272 Q 146 221 175 182 Q 203 143 248 123 Q 240 111 240 96 L 240 36 L 240 36 Z M 392 123 Q 437 143 465 182 L 465 182 Q 494 221 499 272 L 556 272 Q 551 215 524 169 Q 496 122 452 92 L 518 92 Q 536 126 576 128 Q 603 127 621 109 Q 639 91 640 64 Q 639 37 621 19 Q 603 1 576 0 Q 536 2 518 36 L 400 36 L 400 96 Q 400 111 392 123 L 392 123 Z"/>
</svg>
