<svg xmlns="http://www.w3.org/2000/svg" viewBox="0 0 324 384">
    <path d="M 90 129 L 61 177 Q 54 188 42 191 Q 29 194 18 187 Q 6 180 3 168 Q 0 155 7 144 L 65 47 Q 78 25 100 12 Q 122 0 147 0 L 177 0 Q 203 0 224 12 Q 246 25 259 47 L 318 144 Q 324 155 321 168 Q 318 180 307 187 Q 295 194 282 191 Q 270 188 263 177 L 234 129 L 234 352 Q 234 366 225 375 Q 216 384 202 384 Q 188 384 179 375 Q 170 366 170 352 L 170 224 L 154 224 L 154 352 Q 154 366 145 375 Q 136 384 122 384 Q 108 384 99 375 Q 90 366 90 352 L 90 129 L 90 129 Z"/>
</svg>
