<svg xmlns="http://www.w3.org/2000/svg" viewBox="0 0 516 516">
    <path d="M 373 15 Q 371 7 364 3 Q 356 0 348 5 L 258 67 L 168 5 Q 160 0 153 3 Q 145 7 143 15 L 123 123 L 15 143 Q 7 145 3 153 Q 0 160 5 168 L 67 258 L 5 348 Q 0 356 3 364 Q 7 371 15 373 L 123 393 L 143 501 Q 145 509 152 513 Q 160 516 168 511 L 258 449 L 348 511 Q 356 516 364 513 Q 371 509 373 501 L 383 450 Q 350 448 327 429 Q 303 411 294 381 Q 277 386 258 386 Q 204 385 167 349 Q 131 312 130 258 Q 131 204 167 167 Q 204 131 258 130 Q 305 131 339 159 Q 373 187 383 231 Q 415 195 466 194 Q 479 194 491 197 L 511 168 Q 516 160 513 153 Q 509 145 501 143 L 393 123 L 373 15 L 373 15 Z M 290 349 Q 292 319 309 296 L 309 296 Q 327 273 354 264 Q 354 261 354 258 Q 353 217 326 190 Q 299 163 258 162 Q 217 163 190 190 Q 163 217 162 258 Q 163 299 190 326 Q 217 353 258 354 Q 275 354 290 349 L 290 349 Z"/>
</svg>
