<svg xmlns="http://www.w3.org/2000/svg" viewBox="0 0 448 64">
    <path d="M 0 32 Q 0 46 9 55 L 9 55 Q 18 64 32 64 Q 46 64 55 55 Q 64 46 64 32 Q 64 18 55 9 Q 46 0 32 0 Q 18 0 9 9 Q 0 18 0 32 L 0 32 Z M 96 32 Q 96 46 105 55 L 105 55 Q 114 64 128 64 Q 142 64 151 55 Q 160 46 160 32 Q 160 18 151 9 Q 142 0 128 0 Q 114 0 105 9 Q 96 18 96 32 L 96 32 Z M 224 64 Q 238 64 247 55 L 247 55 Q 256 46 256 32 Q 256 18 247 9 Q 238 0 224 0 Q 210 0 201 9 Q 192 18 192 32 Q 192 46 201 55 Q 210 64 224 64 L 224 64 Z M 288 32 Q 288 46 297 55 L 297 55 Q 306 64 320 64 Q 334 64 343 55 Q 352 46 352 32 Q 352 18 343 9 Q 334 0 320 0 Q 306 0 297 9 Q 288 18 288 32 L 288 32 Z M 416 64 Q 430 64 439 55 L 439 55 Q 448 46 448 32 Q 448 18 439 9 Q 430 0 416 0 Q 402 0 393 9 Q 384 18 384 32 Q 384 46 393 55 Q 402 64 416 64 L 416 64 Z"/>
</svg>
