<svg xmlns="http://www.w3.org/2000/svg" viewBox="0 0 448 448">
    <path d="M 160 0 Q 174 0 183 9 L 183 9 Q 192 18 192 32 Q 192 46 183 55 Q 174 64 160 64 L 109 64 L 224 179 L 179 224 L 64 109 L 64 160 Q 64 174 55 183 Q 46 192 32 192 Q 18 192 9 183 Q 0 174 0 160 L 0 32 Q 0 18 9 9 Q 18 0 32 0 L 160 0 L 160 0 Z M 224 269 L 269 224 L 384 339 L 384 288 Q 384 274 393 265 Q 402 256 416 256 Q 430 256 439 265 Q 448 274 448 288 L 448 416 Q 448 430 439 439 Q 430 448 416 448 L 288 448 Q 274 448 265 439 Q 256 430 256 416 Q 256 402 265 393 Q 274 384 288 384 L 339 384 L 224 269 L 224 269 Z"/>
</svg>
