<svg xmlns="http://www.w3.org/2000/svg" viewBox="0 0 422 422">
    <path d="M 160 21 Q 182 0 211 0 L 211 0 Q 240 0 262 21 L 401 160 Q 422 182 422 211 Q 422 240 401 262 L 262 401 Q 240 422 211 422 Q 182 422 160 401 L 21 262 Q 0 240 0 211 Q 0 182 21 160 L 160 21 L 160 21 Z M 211 235 Q 233 233 235 211 Q 233 189 211 187 Q 189 189 187 211 Q 189 233 211 235 L 211 235 Z M 107 211 Q 105 189 83 187 Q 61 189 59 211 Q 61 233 83 235 Q 105 233 107 211 L 107 211 Z M 235 339 Q 233 317 211 315 Q 189 317 187 339 Q 189 361 211 363 Q 233 361 235 339 L 235 339 Z M 363 211 Q 361 189 339 187 Q 317 189 315 211 Q 317 233 339 235 Q 361 233 363 211 L 363 211 Z M 235 83 Q 233 61 211 59 Q 189 61 187 83 Q 189 105 211 107 Q 233 105 235 83 L 235 83 Z"/>
</svg>
