<svg xmlns="http://www.w3.org/2000/svg" viewBox="0 0 484 512">
    <path d="M 484 256 Q 483 328 449 385 L 449 385 Q 415 443 357 477 L 357 477 Q 300 511 228 512 Q 152 511 92 473 Q 33 435 0 372 Q 4 366 7 362 Q 9 357 11 354 Q 55 289 116 240 Q 117 254 126 263 Q 135 272 148 272 Q 162 272 171 263 Q 180 254 180 240 Q 179 217 158 210 Q 172 201 186 193 Q 207 192 228 192 Q 353 192 468 227 L 483 232 Q 484 244 484 256 L 484 256 Z M 151 67 Q 94 72 40 83 Q 75 44 124 22 Q 172 0 228 0 Q 270 0 308 13 Q 225 30 151 67 L 151 67 Z M 313 398 Q 325 406 336 396 Q 345 385 335 374 Q 319 359 294 348 Q 269 337 236 336 Q 211 336 191 343 Q 178 348 181 363 Q 186 376 201 373 Q 216 368 236 368 Q 262 369 281 377 Q 301 386 313 398 L 313 398 Z M 308 272 Q 322 272 331 263 L 331 263 Q 340 254 340 240 Q 340 226 331 217 Q 322 208 308 208 Q 295 208 286 217 Q 277 226 276 240 Q 277 254 286 263 Q 295 272 308 272 L 308 272 Z"/>
</svg>
