<svg xmlns="http://www.w3.org/2000/svg" viewBox="0 0 448 512">
    <path d="M 224 0 Q 274 1 313 27 L 313 27 Q 352 53 371 96 Q 383 97 392 106 Q 400 115 400 128 L 400 192 Q 400 205 392 214 Q 383 223 371 224 Q 352 267 313 293 Q 274 319 224 320 Q 174 319 135 293 Q 96 267 77 224 Q 65 223 57 214 Q 48 205 48 192 L 48 128 Q 48 115 57 106 Q 65 97 77 96 Q 96 53 135 27 Q 174 1 224 0 L 224 0 Z M 336 160 L 336 144 Q 335 124 322 110 Q 308 97 288 96 L 160 96 Q 140 97 126 110 Q 113 124 112 144 L 112 160 Q 113 201 140 228 Q 167 255 208 256 L 240 256 Q 281 255 308 228 Q 335 201 336 160 L 336 160 Z M 113 317 Q 161 351 224 352 Q 287 351 335 317 Q 386 337 416 381 Q 447 425 448 482 Q 448 495 439 503 Q 431 512 418 512 L 320 512 L 320 448 Q 320 434 311 425 Q 302 416 288 416 L 160 416 Q 146 416 137 425 Q 128 434 128 448 L 128 512 L 30 512 Q 17 512 9 503 Q 0 495 0 482 Q 1 425 32 381 Q 62 337 113 317 L 113 317 Z"/>
</svg>
