<svg xmlns="http://www.w3.org/2000/svg" viewBox="0 0 539 354">
    <path d="M 90 64 Q 103 60 109 48 L 109 48 Q 114 37 110 24 Q 106 11 94 5 Q 83 0 70 4 L 44 12 Q 24 19 12 36 Q 0 52 0 73 L 0 194 Q 2 262 47 307 Q 92 352 160 354 Q 228 352 273 307 Q 318 262 320 194 L 320 73 Q 320 52 308 36 Q 296 19 276 12 L 250 4 Q 237 0 226 5 Q 214 11 210 24 Q 206 37 211 48 Q 217 60 230 64 L 256 73 L 256 194 Q 255 235 228 262 Q 201 289 160 290 Q 119 289 92 262 Q 65 235 64 194 L 64 73 L 90 64 L 90 64 Z M 480 194 Q 480 208 471 217 L 471 217 Q 462 226 448 226 Q 434 226 425 217 Q 416 208 416 194 Q 416 180 425 171 Q 434 162 448 162 Q 462 162 471 171 Q 480 180 480 194 L 480 194 Z M 448 114 Q 403 115 379 154 Q 357 194 379 234 Q 403 273 448 274 Q 493 273 517 234 Q 539 194 517 154 Q 493 115 448 114 L 448 114 Z"/>
</svg>
