<svg xmlns="http://www.w3.org/2000/svg" viewBox="0 0 418 322">
    <path d="M 255 42 L 231 138 Q 226 156 209 161 L 193 226 L 160 226 Q 160 224 161 222 L 178 153 Q 165 140 169 122 L 193 26 Q 197 13 208 7 Q 218 0 232 3 Q 245 7 252 18 Q 258 29 255 42 L 255 42 Z M 318 162 L 275 226 L 240 226 Q 240 221 243 217 L 291 144 Q 284 128 293 112 L 357 16 Q 365 5 378 3 Q 390 0 402 7 Q 413 15 415 28 Q 418 40 411 52 L 347 148 Q 336 163 318 162 L 318 162 Z M 0 242 L 0 226 L 48 226 L 96 226 L 96 242 L 96 274 Q 95 289 80 290 Q 65 289 64 274 Q 63 259 48 258 Q 33 259 32 274 L 32 306 Q 31 321 16 322 Q 1 321 0 306 L 0 242 L 0 242 Z"/>
</svg>
