<svg xmlns="http://www.w3.org/2000/svg" viewBox="0 0 576 512">
    <path d="M 135 18 Q 144 1 164 0 L 284 0 Q 304 1 313 18 L 320 32 L 416 32 Q 430 32 439 41 Q 448 50 448 64 Q 448 78 439 87 Q 430 96 416 96 L 32 96 Q 18 96 9 87 Q 0 78 0 64 Q 0 50 9 41 Q 18 32 32 32 L 128 32 L 135 18 L 135 18 Z M 288 368 Q 288 329 307 296 L 307 296 Q 326 263 360 243 Q 394 224 432 224 Q 470 224 504 243 Q 538 263 557 296 Q 576 329 576 368 Q 576 407 557 440 Q 538 473 504 493 Q 470 512 432 512 Q 394 512 360 493 Q 326 473 307 440 Q 288 407 288 368 L 288 368 Z M 432 288 Q 417 289 416 304 L 416 368 Q 417 383 432 384 L 480 384 Q 495 383 496 368 Q 495 353 480 352 L 448 352 L 448 304 Q 447 289 432 288 L 432 288 Z"/>
</svg>
