<svg xmlns="http://www.w3.org/2000/svg" viewBox="0 0 512 288">
    <path d="M 464 0 L 496 0 Q 511 1 512 16 L 512 48 Q 511 63 496 64 L 464 64 Q 449 63 448 48 L 448 16 Q 449 1 464 0 L 464 0 Z M 0 64 Q 0 50 9 41 L 9 41 Q 18 32 32 32 L 288 32 Q 302 32 311 41 Q 320 50 320 64 L 320 77 L 165 192 Q 163 193 160 194 Q 157 193 155 192 L 0 77 L 0 64 L 0 64 Z M 184 218 L 320 117 L 320 256 Q 320 270 311 279 Q 302 288 288 288 L 32 288 Q 18 288 9 279 Q 0 270 0 256 L 0 117 L 136 218 Q 147 225 160 226 Q 173 225 184 218 L 184 218 Z"/>
</svg>
