<svg xmlns="http://www.w3.org/2000/svg" viewBox="0 0 482 386">
    <path d="M 321 0 L 319 0 Q 320 0 320 0 Q 320 0 321 0 L 321 0 Z M 416 64 L 96 64 Q 73 62 65 41 Q 73 62 96 64 L 145 64 L 106 160 L 175 160 L 214 64 L 298 64 L 337 160 L 406 160 L 367 64 L 416 64 L 416 64 Z M 0 192 Q 0 206 9 215 L 9 215 Q 18 224 32 224 L 81 224 L 34 340 Q 30 353 35 365 Q 40 376 52 382 Q 65 386 77 381 Q 88 376 94 364 L 150 224 L 362 224 L 418 364 Q 424 376 435 381 Q 447 386 460 382 Q 472 376 477 365 Q 482 353 478 340 L 431 224 L 480 224 L 32 224 Q 18 224 9 215 Q 0 206 0 192 L 0 192 Z M 191 0 Q 192 0 192 0 L 192 0 Q 192 0 193 0 L 191 0 L 191 0 Z M 64 32 Q 64 32 64 32 L 64 32 Q 64 32 64 32 L 64 32 Z"/>
</svg>
