<svg xmlns="http://www.w3.org/2000/svg" viewBox="0 0 256 256">
    <path d="M 87 215 Q 76 189 72 144 L 33 144 Q 43 193 87 215 L 87 215 Z M 128 224 Q 132 219 137 208 Q 148 187 152 144 L 105 144 Q 108 187 119 208 Q 124 219 128 224 Q 128 224 128 224 Q 128 224 128 224 Q 128 224 128 224 Q 128 224 128 224 L 128 224 Z M 169 215 Q 213 193 223 144 L 184 144 Q 180 189 169 215 L 169 215 Z M 184 112 L 223 112 Q 213 63 169 41 Q 180 67 184 112 L 184 112 Z M 128 32 Q 124 37 119 49 Q 108 69 104 112 L 152 112 Q 148 69 137 49 Q 132 37 128 32 Q 128 32 128 32 Q 128 32 128 32 Q 128 32 128 32 Q 128 32 128 32 L 128 32 Z M 87 41 Q 43 63 33 112 L 72 112 Q 76 67 87 41 L 87 41 Z M 0 128 Q 0 93 17 64 L 17 64 Q 34 35 64 17 Q 94 0 128 0 Q 162 0 192 17 Q 222 35 239 64 Q 256 93 256 128 Q 256 163 239 192 Q 222 221 192 239 Q 162 256 128 256 Q 94 256 64 239 Q 34 221 17 192 Q 0 163 0 128 L 0 128 Z"/>
</svg>
