<svg xmlns="http://www.w3.org/2000/svg" viewBox="0 0 448 256">
    <path d="M 384 0 L 64 0 Q 63 27 45 45 Q 27 63 0 64 L 0 192 Q 27 193 45 211 Q 63 229 64 256 L 384 256 Q 385 229 403 211 Q 421 193 448 192 L 448 64 Q 421 63 403 45 Q 385 27 384 0 L 384 0 Z M 224 32 Q 250 32 272 45 L 272 45 Q 294 58 307 80 Q 320 103 320 128 Q 320 153 307 176 Q 294 198 272 211 Q 250 224 224 224 Q 198 224 176 211 Q 154 198 141 176 Q 128 153 128 128 Q 128 103 141 80 Q 154 58 176 45 Q 198 32 224 32 L 224 32 Z"/>
</svg>
