<svg xmlns="http://www.w3.org/2000/svg" viewBox="0 0 510 510">
    <path d="M 86 63 L 171 148 Q 206 106 207 47 Q 207 25 201 5 Q 217 1 233 0 Q 239 23 239 47 Q 238 119 194 171 L 255 232 L 424 63 Q 436 74 447 86 L 278 255 L 339 316 Q 391 272 463 271 Q 487 271 510 277 Q 509 293 505 309 Q 485 303 463 303 Q 404 304 362 339 L 447 424 Q 436 436 424 447 L 339 362 Q 304 404 303 463 Q 303 485 309 505 Q 293 509 277 510 Q 271 487 271 463 Q 272 391 316 339 L 255 278 L 86 447 Q 74 436 63 424 L 232 255 L 171 194 Q 119 238 47 239 Q 23 239 0 233 Q 1 217 5 201 Q 25 207 47 207 Q 106 206 148 171 L 63 86 Q 74 74 86 63 L 86 63 Z"/>
</svg>
