<svg xmlns="http://www.w3.org/2000/svg" viewBox="0 0 432 384">
    <path d="M 224 224 L 224 288 Q 224 302 233 311 Q 242 320 256 320 L 260 320 Q 272 320 281 312 L 420 187 Q 432 176 432 160 Q 432 144 420 133 L 282 9 Q 272 0 259 0 Q 244 0 234 10 Q 224 20 224 35 L 224 96 L 144 96 Q 83 98 42 138 Q 2 179 0 240 Q 1 287 22 317 Q 43 347 67 363 Q 90 379 101 383 Q 104 384 108 384 L 110 384 Q 126 382 128 366 Q 127 353 115 346 Q 99 338 96 305 Q 97 271 120 248 Q 143 225 178 224 L 224 224 L 224 224 Z"/>
</svg>
