<svg xmlns="http://www.w3.org/2000/svg" viewBox="0 0 522 416">
    <path d="M 197 0 Q 183 0 174 9 L 174 9 Q 165 18 165 32 L 165 64 L 117 64 Q 97 65 83 78 Q 70 92 69 112 L 69 240 L 25 255 Q 7 262 3 278 Q 0 295 13 309 L 114 401 Q 140 416 165 416 Q 198 415 224 396 Q 241 384 261 384 Q 281 384 298 396 Q 327 416 357 416 Q 383 416 408 401 L 509 309 Q 522 295 519 278 Q 515 262 498 255 L 453 240 L 453 112 Q 452 92 439 78 Q 425 65 405 64 L 357 64 L 357 32 Q 357 18 348 9 Q 339 0 325 0 L 197 0 L 197 0 Z M 241 183 L 133 219 L 133 128 L 389 128 L 389 219 L 281 183 Q 261 176 241 183 L 241 183 Z"/>
</svg>
