<svg xmlns="http://www.w3.org/2000/svg" viewBox="0 0 512 390">
    <path d="M 112 166 Q 160 167 192 200 L 192 356 Q 160 389 112 390 Q 64 389 33 357 Q 1 326 0 278 Q 1 230 33 199 Q 64 167 112 166 L 112 166 Z M 112 6 Q 139 7 154 30 Q 166 54 154 78 Q 139 101 112 102 Q 85 101 70 78 Q 58 54 70 30 Q 85 7 112 6 L 112 6 Z M 176 278 Q 175 242 144 223 Q 112 205 80 223 Q 49 242 48 278 Q 49 314 80 333 Q 112 351 144 333 Q 175 314 176 278 L 176 278 Z M 352 54 Q 353 27 376 12 Q 400 0 424 12 Q 447 27 448 54 Q 447 81 424 96 Q 400 108 376 96 Q 353 81 352 54 L 352 54 Z M 288 278 Q 288 248 303 222 L 303 222 Q 318 196 344 181 Q 370 166 400 166 Q 430 166 456 181 Q 482 196 497 222 Q 512 248 512 278 Q 512 308 497 334 Q 482 360 456 375 Q 430 390 400 390 Q 370 390 344 375 Q 318 360 303 334 Q 288 308 288 278 L 288 278 Z M 400 342 Q 436 341 455 310 Q 473 278 455 246 Q 436 215 400 214 Q 364 215 345 246 Q 327 278 345 310 Q 364 341 400 342 L 400 342 Z"/>
</svg>
