<svg xmlns="http://www.w3.org/2000/svg" viewBox="0 0 640 416">
    <path d="M 48 0 Q 28 1 14 14 L 14 14 Q 1 28 0 48 L 0 368 Q 1 388 14 402 Q 28 415 48 416 L 201 416 Q 192 402 192 384 L 192 160 Q 192 137 206 120 Q 219 104 240 98 Q 244 50 280 22 Q 266 1 240 0 L 48 0 L 48 0 Z M 364 90 L 393 128 L 344 128 Q 322 126 320 104 Q 322 82 344 80 Q 356 80 364 90 L 364 90 Z M 344 176 L 400 176 L 416 176 L 416 256 L 224 256 L 224 288 L 416 288 L 416 416 L 448 416 L 448 288 L 640 288 L 640 256 L 448 256 L 448 176 L 520 176 Q 551 175 571 155 Q 591 135 592 104 Q 591 73 571 53 Q 550 33 520 32 Q 485 33 463 60 L 432 100 L 402 60 Q 379 33 344 32 Q 314 33 293 53 Q 273 73 272 104 Q 273 135 293 155 Q 313 175 344 176 L 344 176 Z M 520 80 Q 542 82 544 104 Q 542 126 520 128 L 471 128 L 501 90 Q 508 80 520 80 L 520 80 Z"/>
</svg>
