<svg xmlns="http://www.w3.org/2000/svg" viewBox="0 0 276 516">
    <path d="M 177 42 L 171 68 Q 158 66 146 66 Q 124 66 104 71 L 115 26 Q 119 13 130 7 Q 140 0 154 3 Q 167 7 174 18 Q 180 29 177 42 L 177 42 Z M 155 130 L 94 375 Q 60 360 39 329 L 85 145 Q 113 130 146 130 Q 151 130 155 130 L 155 130 Z M 122 384 L 184 136 Q 205 142 223 156 Q 232 162 243 162 L 189 379 Q 169 386 146 386 Q 134 386 122 384 L 122 384 Z M 78 438 L 65 490 Q 61 503 51 509 Q 40 516 26 513 Q 13 509 7 498 Q 0 488 3 474 L 21 404 Q 46 425 78 438 L 78 438 Z M 106 446 Q 125 450 146 450 Q 159 450 171 448 L 161 490 Q 157 503 146 509 Q 135 516 122 513 Q 109 509 103 498 Q 96 488 99 474 L 106 446 L 106 446 Z M 258 102 Q 231 83 199 73 L 211 26 Q 215 13 226 7 Q 236 0 250 3 Q 263 7 270 18 Q 276 29 273 42 L 258 102 L 258 102 Z"/>
</svg>
