<svg xmlns="http://www.w3.org/2000/svg" viewBox="0 0 576 448">
    <path d="M 224 224 L 224 192 L 224 112 Q 223 64 191 33 Q 160 1 112 0 Q 64 1 33 33 Q 1 64 0 112 L 0 192 L 0 224 L 32 224 L 192 224 L 224 224 L 224 224 Z M 555 367 Q 575 332 576 288 Q 574 220 529 175 Q 484 130 416 128 Q 372 128 337 149 Q 327 155 327 165 Q 326 175 334 183 L 521 371 Q 529 378 539 377 Q 549 377 555 367 L 555 367 Z M 495 427 Q 505 421 505 411 L 505 411 Q 506 401 499 393 L 311 206 Q 303 198 293 199 Q 283 199 277 209 Q 257 244 256 288 Q 258 356 303 401 Q 348 446 416 448 Q 460 447 495 427 L 495 427 Z"/>
</svg>
