<svg xmlns="http://www.w3.org/2000/svg" viewBox="0 0 384 512">
    <path d="M 0 64 Q 1 37 19 19 L 19 19 Q 37 1 64 0 L 224 0 L 224 128 Q 224 142 233 151 Q 242 160 256 160 L 384 160 L 384 448 Q 383 475 365 493 Q 347 511 320 512 L 64 512 Q 37 511 19 493 Q 1 475 0 448 L 0 64 L 0 64 Z M 258 226 Q 245 220 236 232 Q 230 245 241 254 Q 263 267 275 288 Q 288 310 288 336 Q 288 362 275 384 Q 263 405 242 418 Q 230 427 236 440 Q 245 452 258 446 Q 286 429 303 400 Q 320 371 320 336 Q 320 301 303 272 Q 286 243 258 226 L 258 226 Z M 166 257 Q 156 254 149 261 L 113 296 L 80 296 Q 65 297 64 312 L 64 360 Q 65 375 80 376 L 113 376 L 149 411 Q 156 418 166 415 Q 175 410 176 400 L 176 272 Q 176 262 166 257 L 166 257 Z M 217 292 Q 207 303 216 315 Q 224 323 224 336 Q 224 349 216 357 Q 207 369 217 380 Q 229 389 240 379 Q 255 361 256 336 Q 255 311 240 293 Q 229 283 217 292 L 217 292 Z"/>
</svg>
