<svg xmlns="http://www.w3.org/2000/svg" viewBox="0 0 448 512">
    <path d="M 96 155 L 96 70 Q 97 49 117 40 L 213 4 Q 224 0 235 4 L 331 40 Q 351 49 352 70 L 352 155 Q 353 207 390 245 L 393 249 Q 400 256 400 265 Q 398 286 377 288 L 71 288 Q 50 286 48 265 Q 48 256 55 249 L 59 245 Q 95 207 96 155 L 96 155 Z M 212 411 Q 224 421 236 411 L 307 336 Q 319 323 336 327 Q 386 344 416 385 Q 447 426 448 481 Q 448 494 439 503 Q 430 511 417 512 L 31 512 Q 18 511 9 503 Q 0 494 0 481 Q 1 426 32 385 Q 62 344 112 328 Q 129 323 141 336 L 212 412 L 212 411 Z M 216 42 Q 209 43 208 50 L 208 66 L 192 66 Q 185 67 184 74 L 184 90 Q 185 97 192 98 L 208 98 L 208 114 Q 209 121 216 122 L 232 122 Q 239 121 240 114 L 240 98 L 256 98 Q 263 97 264 90 L 264 74 Q 263 67 256 66 L 240 66 L 240 50 Q 239 43 232 42 L 216 42 L 216 42 Z M 176 162 L 128 162 Q 129 203 156 230 Q 183 257 224 258 Q 265 257 292 230 Q 319 203 320 162 L 320 146 L 312 146 Q 276 145 258 116 Q 245 137 224 149 Q 202 162 176 162 L 176 162 Z"/>
</svg>
