<svg xmlns="http://www.w3.org/2000/svg" viewBox="0 0 448 448">
    <path d="M 393 9 Q 403 0 416 0 L 416 0 Q 429 0 439 9 Q 448 19 448 32 Q 448 45 439 55 L 382 112 Q 371 77 337 66 L 393 9 L 393 9 Z M 320 128 L 320 173 L 109 384 L 320 384 L 320 448 L 64 448 Q 37 447 19 429 Q 1 411 0 384 L 0 32 Q 0 18 9 9 Q 18 0 32 0 Q 46 0 55 9 Q 64 18 64 32 L 64 339 L 275 128 L 320 128 L 320 128 Z M 384 448 L 384 384 L 416 384 Q 430 384 439 393 Q 448 402 448 416 Q 448 430 439 439 Q 430 448 416 448 L 384 448 L 384 448 Z"/>
</svg>
