<svg xmlns="http://www.w3.org/2000/svg" viewBox="0 0 160 256">
    <path d="M 32 0 Q 18 0 9 9 L 9 9 Q 0 18 0 32 L 0 81 Q 30 68 64 65 L 64 32 Q 64 18 55 9 Q 46 0 32 0 L 32 0 Z M 0 156 L 0 224 Q 0 238 9 247 Q 18 256 32 256 Q 46 256 55 247 Q 64 238 64 224 L 64 129 Q 28 134 0 156 L 0 156 Z M 96 129 L 96 224 Q 96 238 105 247 Q 114 256 128 256 Q 142 256 151 247 Q 160 238 160 224 L 160 156 Q 133 134 96 129 L 96 129 Z M 160 81 L 160 32 Q 160 18 151 9 Q 142 0 128 0 Q 114 0 105 9 Q 96 18 96 32 L 96 65 Q 130 68 160 82 L 160 81 Z"/>
</svg>
