<svg xmlns="http://www.w3.org/2000/svg" viewBox="0 0 448 512">
    <path d="M 0 32 Q 0 18 9 9 L 9 9 Q 18 0 32 0 L 176 0 Q 224 1 255 33 Q 287 64 288 112 Q 287 152 264 182 Q 240 211 202 221 L 288 307 L 243 352 L 115 224 L 64 224 L 64 288 Q 64 302 55 311 Q 46 320 32 320 Q 18 320 9 311 Q 0 302 0 288 L 0 192 L 0 32 L 0 32 Z M 288 397 L 333 352 L 439 457 Q 448 467 448 480 Q 448 493 439 503 Q 429 512 416 512 Q 403 512 393 503 L 288 397 L 288 397 Z M 64 160 L 176 160 Q 196 159 210 146 Q 223 132 224 112 Q 223 92 210 78 Q 196 65 176 64 L 64 64 L 64 160 L 64 160 Z"/>
</svg>
