<svg xmlns="http://www.w3.org/2000/svg" viewBox="0 0 261 346">
    <path d="M 67 102 Q 70 85 88 77 Q 109 66 149 72 Q 157 73 172 76 Q 186 80 193 81 Q 206 85 218 79 Q 229 72 233 59 Q 236 46 230 35 Q 224 24 211 20 Q 201 17 185 14 Q 168 10 160 9 Q 106 0 62 18 Q 15 39 4 93 Q 3 93 3 94 Q 0 124 12 148 Q 24 172 44 185 Q 61 197 81 205 Q 101 212 119 218 Q 119 218 119 218 L 119 218 L 123 219 Q 164 231 182 244 Q 190 250 192 256 Q 195 262 193 277 Q 191 300 156 308 L 144 311 Q 162 316 183 323 Q 203 331 221 343 Q 221 344 222 345 Q 223 345 224 346 Q 249 325 256 287 Q 261 258 251 232 Q 241 207 221 193 Q 204 180 183 172 Q 162 164 144 158 L 142 158 Q 101 146 81 133 Q 72 126 69 120 Q 66 115 67 102 L 67 102 Z"/>
</svg>
