<svg xmlns="http://www.w3.org/2000/svg" viewBox="0 0 512 288">
    <path d="M 0 144 Q 3 205 75 246 L 75 246 Q 147 286 256 288 Q 365 286 437 246 Q 509 205 512 144 Q 509 83 437 42 Q 365 2 256 0 Q 147 2 75 42 Q 3 83 0 144 L 0 144 Z M 64 136 Q 66 105 87 88 Q 105 71 131 61 Q 183 40 256 40 Q 329 40 381 61 Q 407 71 425 88 Q 446 105 448 136 Q 446 167 425 184 Q 407 201 381 211 Q 329 232 256 232 Q 183 232 131 211 Q 105 201 87 184 Q 66 167 64 136 L 64 136 Z M 256 200 Q 324 199 369 181 L 369 181 Q 414 163 416 136 Q 414 109 369 91 Q 324 73 256 72 Q 188 73 143 91 Q 98 109 96 136 Q 98 163 143 181 Q 188 199 256 200 L 256 200 Z"/>
</svg>
