<svg xmlns="http://www.w3.org/2000/svg" viewBox="0 0 544 458">
    <path d="M 51 134 L 320 346 L 320 421 Q 319 441 301 450 Q 282 458 267 445 L 132 325 L 64 325 Q 37 324 19 306 Q 1 288 0 261 L 0 197 Q 0 173 15 156 Q 29 139 51 134 L 51 134 Z M 379 270 Q 380 268 382 266 Q 399 252 400 229 Q 399 206 382 192 Q 367 176 379 158 Q 394 142 413 154 Q 446 182 448 229 Q 447 272 417 300 L 379 270 L 379 270 Z M 455 330 Q 495 289 496 229 Q 494 159 443 117 Q 427 102 439 83 Q 455 68 473 80 Q 506 107 525 145 Q 544 183 544 229 Q 542 306 493 359 L 455 329 L 455 330 Z M 166 103 L 267 13 Q 282 0 301 8 Q 319 17 320 37 L 320 224 L 166 103 L 166 103 Z"/>
</svg>
