<svg xmlns="http://www.w3.org/2000/svg" viewBox="0 0 512 384">
    <path d="M 0 144 Q 2 83 42 42 L 42 42 Q 83 2 144 0 Q 205 2 246 42 Q 286 83 288 144 L 288 320 Q 287 347 269 365 Q 251 383 224 384 L 64 384 Q 37 383 19 365 Q 1 347 0 320 L 0 144 L 0 144 Z M 64 144 Q 65 159 80 160 L 208 160 Q 223 159 224 144 Q 223 129 208 128 L 80 128 Q 65 129 64 144 L 64 144 Z M 400 128 L 464 128 L 496 128 Q 511 129 512 144 L 512 208 Q 511 223 496 224 L 464 224 Q 449 223 448 208 L 448 160 L 400 160 Q 385 159 384 144 Q 385 129 400 128 L 400 128 Z"/>
</svg>
