<svg xmlns="http://www.w3.org/2000/svg" viewBox="0 0 512 512">
    <path d="M 256 0 Q 270 0 279 9 L 279 9 Q 288 18 288 32 L 288 128 Q 288 142 279 151 Q 270 160 256 160 Q 242 160 233 151 Q 224 142 224 128 L 224 32 Q 224 18 233 9 Q 242 0 256 0 L 256 0 Z M 224 256 Q 224 242 233 233 L 233 233 Q 242 224 256 224 Q 270 224 279 233 Q 288 242 288 256 Q 288 270 279 279 Q 270 288 256 288 Q 242 288 233 279 Q 224 270 224 256 L 224 256 Z M 480 288 L 384 288 Q 370 288 361 279 Q 352 270 352 256 Q 352 242 361 233 Q 370 224 384 224 L 480 224 Q 494 224 503 233 Q 512 242 512 256 Q 512 270 503 279 Q 494 288 480 288 L 480 288 Z M 256 352 Q 270 352 279 361 L 279 361 Q 288 370 288 384 L 288 480 Q 288 494 279 503 Q 270 512 256 512 Q 242 512 233 503 Q 224 494 224 480 L 224 384 Q 224 370 233 361 Q 242 352 256 352 L 256 352 Z M 128 288 L 32 288 Q 18 288 9 279 Q 0 270 0 256 Q 0 242 9 233 Q 18 224 32 224 L 128 224 Q 142 224 151 233 Q 160 242 160 256 Q 160 270 151 279 Q 142 288 128 288 L 128 288 Z"/>
</svg>
