<svg xmlns="http://www.w3.org/2000/svg" viewBox="0 0 320 512">
    <path d="M 246 153 Q 242 147 245 141 Q 256 120 256 96 Q 255 55 228 28 Q 201 1 160 0 Q 119 1 92 28 Q 65 55 64 96 Q 64 120 75 141 Q 78 147 74 153 Q 49 183 48 224 Q 48 241 53 257 Q 55 263 50 268 Q 2 313 0 384 Q 2 453 48 498 Q 64 512 85 512 L 235 512 Q 257 512 272 498 Q 318 453 320 384 Q 318 313 270 268 Q 265 263 267 257 Q 272 241 272 224 Q 271 183 246 153 L 246 153 Z M 112 80 Q 113 65 128 64 Q 143 65 144 80 Q 143 95 128 96 Q 113 95 112 80 L 112 80 Z M 160 208 Q 175 209 176 224 Q 175 239 160 240 Q 145 239 144 224 Q 145 209 160 208 L 160 208 Z M 144 288 Q 145 273 160 272 Q 175 273 176 288 Q 175 303 160 304 Q 145 303 144 288 L 144 288 Z M 160 336 Q 175 337 176 352 Q 175 367 160 368 Q 145 367 144 352 Q 145 337 160 336 L 160 336 Z M 176 80 Q 177 65 192 64 Q 207 65 208 80 Q 207 95 192 96 Q 177 95 176 80 L 176 80 Z M 144 123 L 144 120 Q 145 105 160 104 Q 175 105 176 120 L 176 123 Q 176 128 174 132 L 165 149 Q 163 152 160 152 Q 157 152 155 149 L 146 132 Q 144 128 144 123 L 144 123 Z"/>
</svg>
