<svg xmlns="http://www.w3.org/2000/svg" viewBox="0 0 576 320">
    <path d="M 192 32 L 192 96 Q 192 110 183 119 Q 174 128 160 128 Q 146 128 137 119 Q 128 110 128 96 L 128 32 Q 128 18 137 9 Q 146 0 160 0 Q 174 0 183 9 Q 192 18 192 32 L 192 32 Z M 320 32 L 320 96 Q 320 110 311 119 Q 302 128 288 128 Q 274 128 265 119 Q 256 110 256 96 L 256 32 Q 256 18 265 9 Q 274 0 288 0 Q 302 0 311 9 Q 320 18 320 32 L 320 32 Z M 448 32 L 448 96 Q 448 110 439 119 Q 430 128 416 128 Q 402 128 393 119 Q 384 110 384 96 L 384 32 Q 384 18 393 9 Q 402 0 416 0 Q 430 0 439 9 Q 448 18 448 32 L 448 32 Z M 0 288 L 0 192 L 576 192 L 576 288 Q 576 302 567 311 Q 558 320 544 320 L 496 320 L 496 288 Q 495 273 480 272 Q 465 273 464 288 L 464 320 L 368 320 L 368 288 Q 367 273 352 272 Q 337 273 336 288 L 336 320 L 240 320 L 240 288 Q 239 273 224 272 Q 209 273 208 288 L 208 320 L 112 320 L 112 288 Q 111 273 96 272 Q 81 273 80 288 L 80 320 L 32 320 Q 18 320 9 311 Q 0 302 0 288 L 0 288 Z"/>
</svg>
