<svg xmlns="http://www.w3.org/2000/svg" viewBox="0 0 448 448">
    <path d="M 310 384 L 391 448 L 32 448 Q 18 448 9 439 Q 0 430 0 416 Q 0 402 9 393 Q 18 384 32 384 L 310 384 L 310 384 Z M 148 256 L 229 320 L 32 320 Q 18 320 9 311 Q 0 302 0 288 Q 0 274 9 265 Q 18 256 32 256 L 148 256 L 148 256 Z M 5 143 L 67 192 L 32 192 Q 18 192 9 183 Q 0 174 0 160 Q 0 151 5 143 L 5 143 Z M 304 256 L 416 256 Q 430 256 439 265 Q 448 274 448 288 Q 448 302 439 311 Q 430 320 416 320 L 385 320 L 304 256 L 304 256 Z M 140 128 L 416 128 Q 430 128 439 137 Q 448 146 448 160 Q 448 174 439 183 Q 430 192 416 192 L 222 192 L 140 128 L 140 128 Z M 416 64 L 59 64 L 2 20 Q 11 1 32 0 L 416 0 Q 430 0 439 9 Q 448 18 448 32 Q 448 46 439 55 Q 430 64 416 64 L 416 64 Z"/>
</svg>
