<svg xmlns="http://www.w3.org/2000/svg" viewBox="0 0 368 448">
    <path d="M 172 10 L 131 104 Q 156 96 184 96 Q 218 96 248 107 L 248 35 Q 248 24 238 20 L 195 1 Q 192 0 189 0 L 187 0 Q 176 0 172 10 L 172 10 Z M 117 215 Q 112 208 104 208 Q 96 208 91 215 L 59 263 Q 54 271 58 280 Q 63 288 72 288 L 136 288 Q 145 288 150 280 Q 154 271 149 263 L 117 215 L 117 215 Z M 277 215 Q 272 208 264 208 Q 256 208 251 215 L 219 263 Q 214 271 218 280 Q 223 288 232 288 L 296 288 Q 305 288 310 280 Q 314 271 309 263 L 277 215 L 277 215 Z M 312 415 Q 339 396 351 376 L 351 376 Q 363 356 366 344 Q 368 336 362 330 Q 352 322 340 328 Q 322 339 282 353 Q 243 367 184 368 L 184 384 Q 183 399 168 400 L 152 400 Q 137 399 136 384 L 136 365 Q 97 358 69 347 Q 42 336 28 328 Q 16 321 6 330 Q 0 336 2 344 Q 5 356 17 376 Q 29 396 56 415 Q 58 401 72 400 L 88 400 Q 103 401 104 416 L 104 437 Q 137 448 184 448 Q 232 448 264 437 L 264 416 Q 265 401 280 400 L 296 400 Q 310 401 312 415 L 312 415 Z"/>
</svg>
