<svg xmlns="http://www.w3.org/2000/svg" viewBox="0 0 352 448">
    <path d="M 32 384 Q 18 384 9 393 L 9 393 Q 0 402 0 416 Q 0 430 9 439 Q 18 448 32 448 Q 46 448 55 439 Q 64 430 64 416 Q 64 402 55 393 Q 46 384 32 384 L 32 384 Z M 32 0 Q 18 0 9 9 L 9 9 Q 0 18 0 32 Q 0 46 9 55 Q 18 64 32 64 Q 46 64 55 55 Q 64 46 64 32 Q 64 18 55 9 Q 46 0 32 0 L 32 0 Z M 32 256 Q 46 256 55 247 L 55 247 Q 64 238 64 224 Q 64 210 55 201 Q 46 192 32 192 Q 18 192 9 201 Q 0 210 0 224 Q 0 238 9 247 Q 18 256 32 256 L 32 256 Z M 224 384 Q 210 384 201 393 L 201 393 Q 192 402 192 416 Q 192 430 201 439 Q 210 448 224 448 Q 238 448 247 439 Q 256 430 256 416 Q 256 402 247 393 Q 238 384 224 384 L 224 384 Z M 224 64 Q 238 64 247 55 L 247 55 Q 256 46 256 32 Q 256 18 247 9 Q 238 0 224 0 Q 210 0 201 9 Q 192 18 192 32 Q 192 46 201 55 Q 210 64 224 64 L 224 64 Z M 224 192 Q 210 192 201 201 L 201 201 Q 192 210 192 224 Q 192 238 201 247 Q 210 256 224 256 Q 238 256 247 247 Q 256 238 256 224 Q 256 210 247 201 Q 238 192 224 192 L 224 192 Z M 128 448 Q 142 448 151 439 L 151 439 Q 160 430 160 416 Q 160 402 151 393 Q 142 384 128 384 Q 114 384 105 393 Q 96 402 96 416 Q 96 430 105 439 Q 114 448 128 448 L 128 448 Z M 128 0 Q 114 0 105 9 L 105 9 Q 96 18 96 32 Q 96 46 105 55 Q 114 64 128 64 Q 142 64 151 55 Q 160 46 160 32 Q 160 18 151 9 Q 142 0 128 0 L 128 0 Z M 128 256 Q 142 256 151 247 L 151 247 Q 160 238 160 224 Q 160 210 151 201 Q 142 192 128 192 Q 114 192 105 201 Q 96 210 96 224 Q 96 238 105 247 Q 114 256 128 256 L 128 256 Z M 320 384 Q 306 384 297 393 L 297 393 Q 288 402 288 416 Q 288 430 297 439 Q 306 448 320 448 Q 334 448 343 439 Q 352 430 352 416 Q 352 402 343 393 Q 334 384 320 384 L 320 384 Z M 320 64 Q 334 64 343 55 L 343 55 Q 352 46 352 32 Q 352 18 343 9 Q 334 0 320 0 Q 306 0 297 9 Q 288 18 288 32 Q 288 46 297 55 Q 306 64 320 64 L 320 64 Z M 320 192 Q 306 192 297 201 L 297 201 Q 288 210 288 224 Q 288 238 297 247 Q 306 256 320 256 Q 334 256 343 247 Q 352 238 352 224 Q 352 210 343 201 Q 334 192 320 192 L 320 192 Z M 128 352 Q 142 352 151 343 L 151 343 Q 160 334 160 320 Q 160 306 151 297 Q 142 288 128 288 Q 114 288 105 297 Q 96 306 96 320 Q 96 334 105 343 Q 114 352 128 352 L 128 352 Z M 320 288 Q 306 288 297 297 L 297 297 Q 288 306 288 320 Q 288 334 297 343 Q 306 352 320 352 Q 334 352 343 343 Q 352 334 352 320 Q 352 306 343 297 Q 334 288 320 288 L 320 288 Z M 320 160 Q 334 160 343 151 L 343 151 Q 352 142 352 128 Q 352 114 343 105 Q 334 96 320 96 Q 306 96 297 105 Q 288 114 288 128 Q 288 142 297 151 Q 306 160 320 160 L 320 160 Z M 128 96 Q 114 96 105 105 L 105 105 Q 96 114 96 128 Q 96 142 105 151 Q 114 160 128 160 Q 142 160 151 151 Q 160 142 160 128 Q 160 114 151 105 Q 142 96 128 96 L 128 96 Z"/>
</svg>
