<svg xmlns="http://www.w3.org/2000/svg" viewBox="0 0 512 512">
    <path d="M 256 512 Q 326 511 384 478 L 384 478 Q 442 444 478 384 Q 512 323 512 256 Q 512 189 478 128 Q 442 68 384 34 Q 326 1 256 0 Q 186 1 128 34 Q 70 68 34 128 Q 0 189 0 256 Q 0 323 34 384 Q 70 444 128 478 Q 186 511 256 512 L 256 512 Z M 192 368 L 320 368 Q 335 369 336 384 Q 335 399 320 400 L 192 400 Q 177 399 176 384 Q 177 369 192 368 L 192 368 Z M 88 224 Q 89 183 124 162 Q 160 142 196 162 Q 231 183 232 224 Q 231 265 196 286 Q 160 306 124 286 Q 89 265 88 224 L 88 224 Z M 352 152 Q 393 153 414 188 Q 434 224 414 260 Q 393 295 352 296 Q 311 295 290 260 Q 270 224 290 188 Q 311 153 352 152 L 352 152 Z"/>
</svg>
