<svg xmlns="http://www.w3.org/2000/svg" viewBox="0 0 510 387">
    <path d="M 96 16 L 96 16 L 96 16 Q 94 6 85 3 Q 75 0 68 8 L 80 18 Q 71 11 69 9 Q 67 7 68 8 L 68 8 L 68 8 L 68 8 L 68 8 L 67 9 Q 67 9 66 10 Q 65 11 65 12 Q 62 16 57 22 Q 47 36 34 61 Q 21 86 11 120 Q 1 154 0 194 Q 1 234 11 268 Q 21 302 34 327 Q 47 352 57 366 Q 62 373 65 376 Q 65 377 66 378 Q 66 379 67 379 L 67 380 L 68 380 L 68 380 L 68 380 L 68 380 Q 67 381 69 379 Q 71 377 80 370 L 68 380 Q 74 387 84 386 Q 93 383 96 374 L 96 374 L 96 374 L 96 373 Q 96 372 96 371 Q 96 370 97 369 Q 98 365 102 356 Q 109 339 126 316 Q 141 298 165 282 Q 188 267 224 260 L 224 128 Q 183 122 159 106 Q 134 91 121 72 Q 105 50 100 33 Q 98 25 97 20 Q 96 18 96 17 Q 96 16 96 16 Q 96 16 96 16 L 96 16 Z M 288 128 L 288 260 Q 324 267 347 282 Q 371 298 386 316 Q 407 342 417 374 Q 419 383 428 386 Q 438 387 445 380 Q 496 316 509 233 Q 510 228 504 225 L 449 201 Q 439 194 449 187 L 504 163 Q 510 160 509 155 Q 499 99 478 61 Q 464 33 444 8 Q 437 0 428 3 Q 418 6 416 16 Q 410 47 391 72 Q 378 91 353 106 Q 329 122 288 128 L 288 128 Z"/>
</svg>
