<svg xmlns="http://www.w3.org/2000/svg" viewBox="0 0 640 512">
    <path d="M 302 64 L 512 64 Q 539 65 557 83 Q 575 101 576 128 Q 575 162 548 181 Q 572 203 587 232 Q 611 214 625 187 Q 640 160 640 128 Q 639 74 603 37 Q 566 1 512 0 L 302 0 Q 255 1 221 28 Q 187 56 176 101 L 150 224 L 216 224 L 239 115 Q 244 92 261 78 Q 278 64 302 64 L 302 64 Z M 209 256 L 143 256 L 109 416 L 84 416 Q 58 416 37 429 Q 16 442 4 465 Q 0 472 0 480 Q 0 494 9 503 Q 18 512 32 512 L 127 512 Q 128 512 128 512 Q 128 512 129 512 L 176 512 Q 196 511 210 498 Q 223 484 224 464 Q 223 444 210 430 Q 196 417 176 416 L 174 416 L 209 256 L 209 256 Z M 384 512 Q 410 512 432 499 L 432 499 Q 454 486 467 464 Q 480 441 480 416 Q 480 391 467 368 Q 454 346 432 333 Q 410 320 384 320 Q 358 320 336 333 Q 314 346 301 368 Q 288 391 288 416 Q 288 441 301 464 Q 314 486 336 499 Q 358 512 384 512 L 384 512 Z M 384 384 Q 398 384 407 393 L 407 393 Q 416 402 416 416 Q 416 430 407 439 Q 398 448 384 448 Q 370 448 361 439 Q 352 430 352 416 Q 352 402 361 393 Q 370 384 384 384 L 384 384 Z"/>
</svg>
