<svg xmlns="http://www.w3.org/2000/svg" viewBox="0 0 386 274">
    <path d="M 184 4 Q 176 0 169 4 Q 161 9 161 18 L 161 209 L 161 209 L 161 272 Q 175 274 193 274 Q 211 274 225 272 L 225 34 Q 224 24 216 20 L 184 4 L 184 4 Z M 129 17 L 129 15 Q 127 8 120 4 Q 113 0 106 4 L 74 20 Q 64 25 65 37 L 97 229 Q 98 230 99 232 Q 100 243 117 256 Q 122 260 129 263 L 129 17 L 129 17 Z M 41 88 L 21 83 Q 13 81 6 86 Q 0 92 1 101 L 18 194 Q 18 194 18 194 Q 20 194 22 194 L 49 194 Q 54 194 59 195 L 41 88 L 41 88 Z M 385 101 Q 386 92 380 86 Q 374 81 365 83 L 347 87 L 328 195 Q 332 194 337 194 L 364 194 Q 366 194 368 194 L 385 101 L 385 101 Z M 321 53 Q 322 44 316 38 Q 310 33 301 35 L 269 43 Q 259 45 257 55 L 257 57 L 257 263 Q 264 260 269 256 Q 286 243 288 232 Q 289 229 290 225 L 321 53 L 321 53 Z"/>
</svg>
