<svg xmlns="http://www.w3.org/2000/svg" viewBox="0 0 448 480">
    <path d="M 64 144 Q 65 110 87 87 L 87 87 Q 110 65 144 64 L 288 64 L 288 0 L 144 0 Q 83 2 42 42 Q 2 83 0 144 Q 2 205 42 246 Q 83 286 144 288 L 416 288 Q 430 288 439 279 Q 448 270 448 256 Q 448 242 439 233 Q 430 224 416 224 L 144 224 Q 110 223 87 201 Q 65 178 64 144 L 64 144 Z M 32 320 Q 18 320 9 329 L 9 329 Q 0 338 0 352 Q 0 366 9 375 Q 18 384 32 384 L 416 384 Q 430 384 439 375 Q 448 366 448 352 Q 448 338 439 329 Q 430 320 416 320 L 32 320 L 32 320 Z M 32 416 Q 18 416 9 425 L 9 425 Q 0 434 0 448 Q 0 462 9 471 Q 18 480 32 480 L 416 480 Q 430 480 439 471 Q 448 462 448 448 Q 448 434 439 425 Q 430 416 416 416 L 32 416 L 32 416 Z"/>
</svg>
