<svg xmlns="http://www.w3.org/2000/svg" viewBox="0 0 312 448">
    <path d="M 200 0 Q 227 1 242 24 Q 254 48 242 72 Q 227 95 200 96 Q 173 95 158 72 Q 146 48 158 24 Q 173 1 200 0 L 200 0 Z M 165 111 L 227 160 L 280 160 Q 294 160 303 169 Q 312 178 312 192 Q 312 206 303 215 Q 294 224 280 224 L 216 224 Q 205 224 196 217 L 155 184 L 95 233 L 138 261 Q 151 271 152 288 L 152 416 Q 152 430 143 439 Q 134 448 120 448 Q 106 448 97 439 Q 88 430 88 416 L 88 305 L 27 267 Q 3 250 1 222 Q 0 194 23 175 L 106 111 Q 120 101 136 101 Q 152 101 165 111 L 165 111 Z"/>
</svg>
