<svg xmlns="http://www.w3.org/2000/svg" viewBox="0 0 448 320">
    <path d="M 0 0 L 448 0 L 448 272 Q 447 292 434 306 Q 420 319 400 320 L 48 320 Q 28 319 14 306 Q 1 292 0 272 L 0 0 L 0 0 Z M 147 169 L 100 230 Q 94 239 98 247 Q 102 255 113 256 L 339 256 Q 349 255 353 248 Q 357 240 352 231 L 269 100 Q 264 93 256 93 Q 248 93 242 100 L 184 184 L 173 169 Q 160 156 147 169 L 147 169 Z M 128 128 Q 142 128 151 119 L 151 119 Q 160 110 160 96 Q 160 82 151 73 Q 142 64 128 64 Q 114 64 105 73 Q 96 82 96 96 Q 96 110 105 119 Q 114 128 128 128 L 128 128 Z"/>
</svg>
