<svg xmlns="http://www.w3.org/2000/svg" viewBox="0 0 448 160">
    <path d="M 123 0 L 96 64 L 32 64 Q 18 64 9 55 Q 0 46 0 32 Q 0 18 9 9 Q 18 0 32 0 L 123 0 L 123 0 Z M 83 96 L 56 160 L 32 160 Q 18 160 9 151 Q 0 142 0 128 Q 0 114 9 105 Q 18 96 32 96 L 83 96 L 83 96 Z M 125 160 L 152 96 L 296 96 L 323 160 L 125 160 L 125 160 Z M 392 160 L 365 96 L 416 96 Q 430 96 439 105 Q 448 114 448 128 Q 448 142 439 151 Q 430 160 416 160 L 392 160 L 392 160 Z M 352 64 L 325 0 L 416 0 Q 430 0 439 9 Q 448 18 448 32 Q 448 46 439 55 Q 430 64 416 64 L 352 64 L 352 64 Z M 192 0 L 256 0 L 283 64 L 165 64 L 192 0 L 192 0 Z"/>
</svg>
