<svg xmlns="http://www.w3.org/2000/svg" viewBox="0 0 320 308">
    <path d="M 209 2 Q 195 0 185 13 Q 176 25 160 26 Q 144 25 135 13 Q 125 0 111 2 Q 62 18 31 59 Q 1 100 0 154 Q 1 208 31 249 Q 62 290 111 306 Q 125 308 135 295 Q 144 283 160 282 Q 176 283 185 295 Q 195 308 209 306 Q 258 290 289 249 Q 319 208 320 154 Q 319 100 289 59 Q 258 18 209 2 L 209 2 Z M 80 90 Q 81 75 96 74 Q 111 75 112 90 Q 111 105 96 106 Q 81 105 80 90 L 80 90 Z M 80 154 Q 81 139 96 138 Q 111 139 112 154 Q 111 169 96 170 Q 81 169 80 154 L 80 154 Z M 112 218 Q 111 233 96 234 Q 81 233 80 218 Q 81 203 96 202 Q 111 203 112 218 L 112 218 Z M 160 74 Q 175 75 176 90 Q 175 105 160 106 Q 145 105 144 90 Q 145 75 160 74 L 160 74 Z M 160 138 Q 175 139 176 154 Q 175 169 160 170 Q 145 169 144 154 Q 145 139 160 138 L 160 138 Z M 160 202 Q 175 203 176 218 Q 175 233 160 234 Q 145 233 144 218 Q 145 203 160 202 L 160 202 Z M 240 90 Q 239 105 224 106 Q 209 105 208 90 Q 209 75 224 74 Q 239 75 240 90 L 240 90 Z M 208 154 Q 209 139 224 138 Q 239 139 240 154 Q 239 169 224 170 Q 209 169 208 154 L 208 154 Z M 240 218 Q 239 233 224 234 Q 209 233 208 218 Q 209 203 224 202 Q 239 203 240 218 L 240 218 Z"/>
</svg>
