<svg xmlns="http://www.w3.org/2000/svg" viewBox="0 0 512 512">
    <path d="M 445 288 Q 439 324 421 355 L 370 315 Q 384 288 384 256 Q 383 202 346 165 Q 310 129 256 128 Q 207 129 172 159 L 121 119 Q 163 78 224 67 L 224 32 Q 224 18 233 9 Q 242 0 256 0 Q 270 0 279 9 Q 288 18 288 32 L 288 67 Q 349 78 392 120 Q 434 163 445 224 L 480 224 Q 494 224 503 233 Q 512 242 512 256 Q 512 270 503 279 Q 494 288 480 288 L 445 288 L 445 288 Z M 336 256 Q 336 271 331 284 L 211 190 Q 230 176 256 176 Q 290 177 313 199 Q 335 222 336 256 L 336 256 Z M 294 378 L 351 423 Q 322 439 288 445 L 288 480 Q 288 494 279 503 Q 270 512 256 512 Q 242 512 233 503 Q 224 494 224 480 L 224 445 Q 163 434 120 392 Q 78 349 67 288 L 32 288 Q 18 288 9 279 Q 0 270 0 256 Q 0 242 9 233 Q 18 224 32 224 L 67 224 Q 68 213 72 203 L 128 247 Q 128 252 128 256 Q 129 310 165 346 Q 202 383 256 384 Q 276 384 294 378 L 294 378 Z"/>
</svg>
