<svg xmlns="http://www.w3.org/2000/svg" viewBox="0 0 160 160">
    <path d="M 96 32 Q 96 18 105 9 L 105 9 Q 114 0 128 0 Q 142 0 151 9 Q 160 18 160 32 Q 160 46 151 55 Q 142 64 128 64 Q 114 64 105 55 Q 96 46 96 32 L 96 32 Z M 96 128 Q 96 114 105 105 L 105 105 Q 114 96 128 96 Q 142 96 151 105 Q 160 114 160 128 Q 160 142 151 151 Q 142 160 128 160 Q 114 160 105 151 Q 96 142 96 128 L 96 128 Z M 32 64 Q 46 64 55 73 L 55 73 Q 64 82 64 96 Q 64 110 55 119 Q 46 128 32 128 Q 18 128 9 119 Q 0 110 0 96 Q 0 82 9 73 Q 18 64 32 64 L 32 64 Z"/>
</svg>
