<svg xmlns="http://www.w3.org/2000/svg" viewBox="0 0 531 512">
    <path d="M 302 0 Q 275 1 257 19 L 257 19 Q 239 37 238 64 L 238 72 Q 240 94 262 96 Q 284 94 286 72 L 286 64 Q 287 49 302 48 Q 317 49 318 64 L 318 88 Q 308 98 300 109 L 253 130 Q 233 140 240 161 Q 251 181 272 174 L 286 168 L 286 240 Q 287 274 309 297 Q 332 319 366 320 L 398 320 Q 432 319 455 297 Q 477 274 478 240 L 478 168 L 493 174 Q 514 181 524 161 Q 531 140 511 130 L 464 109 Q 456 98 446 88 L 446 64 Q 447 49 462 48 Q 477 49 478 64 L 478 72 Q 480 94 502 96 Q 524 94 526 72 L 526 64 Q 525 37 507 19 Q 489 1 462 0 Q 435 1 417 19 Q 399 37 398 64 L 398 65 Q 390 64 382 64 Q 374 64 366 65 L 366 64 Q 365 37 347 19 Q 329 1 302 0 L 302 0 Z M 366 160 Q 381 161 382 176 Q 381 191 366 192 Q 351 191 350 176 Q 351 161 366 160 L 366 160 Z M 414 176 Q 415 161 430 160 Q 445 161 446 176 Q 445 191 430 192 Q 415 191 414 176 L 414 176 Z M 17 486 Q 23 510 49 512 L 78 512 Q 92 512 101 503 Q 110 494 110 480 L 110 426 L 110 426 Q 93 440 70 440 Q 47 440 30 426 Q 13 413 8 391 Q 4 392 0 392 L 17 486 L 17 486 Z M 206 480 Q 206 494 215 503 L 215 503 Q 224 512 238 512 L 267 512 Q 293 510 299 486 L 317 392 Q 312 392 308 391 Q 303 413 286 426 Q 269 440 246 440 Q 223 440 206 426 L 206 426 L 206 480 L 206 480 Z"/>
</svg>
