<svg xmlns="http://www.w3.org/2000/svg" viewBox="0 0 448 416">
    <path d="M 0 416 L 105 181 Q 128 128 177 97 L 320 5 Q 328 0 337 0 L 340 0 Q 352 0 361 8 L 438 79 Q 448 88 448 102 L 448 109 Q 448 112 447 115 L 435 176 Q 431 191 416 192 Q 401 191 396 177 L 390 152 Q 383 129 359 128 L 339 128 Q 320 129 311 144 L 292 177 Q 288 184 288 193 L 288 193 Q 288 200 291 206 L 384 416 L 256 416 L 256 368 Q 255 348 242 334 Q 228 321 208 320 L 176 320 Q 156 321 142 334 Q 129 348 128 368 L 128 416 L 0 416 L 0 416 Z M 160 416 L 160 368 Q 161 353 176 352 L 208 352 Q 223 353 224 368 L 224 416 L 160 416 L 160 416 Z"/>
</svg>
