<svg xmlns="http://www.w3.org/2000/svg" viewBox="0 0 448 512">
    <path d="M 448 32 Q 448 18 439 9 L 439 9 Q 430 0 416 0 Q 402 0 393 9 Q 384 18 384 32 Q 383 82 339 128 L 109 128 Q 132 152 165 176 L 283 176 Q 248 202 206 229 L 205 230 L 205 230 L 205 230 Q 169 254 134 279 Q 99 305 69 333 Q 39 363 20 399 Q 1 435 0 480 Q 0 494 9 503 Q 18 512 32 512 Q 46 512 55 503 Q 64 494 64 480 L 384 480 Q 384 446 364 416 L 84 416 Q 96 397 115 379 Q 167 330 242 283 L 243 282 L 243 282 Q 279 258 314 233 Q 349 207 379 179 Q 409 149 428 113 Q 447 77 448 32 L 448 32 Z"/>
</svg>
