<svg xmlns="http://www.w3.org/2000/svg" viewBox="0 0 512 512">
    <path d="M 512 256 Q 511 328 477 385 L 477 385 Q 443 443 385 477 L 385 477 Q 328 511 256 512 Q 184 511 127 477 Q 69 443 35 385 Q 1 328 0 256 Q 0 231 5 208 L 72 208 Q 73 246 97 273 Q 122 299 159 304 Q 144 316 144 336 Q 145 361 167 374 L 148 398 Q 139 410 150 421 Q 162 429 173 418 L 196 388 L 204 392 L 193 418 Q 189 432 202 439 Q 216 443 223 430 L 233 405 Q 236 406 240 407 L 240 432 Q 242 447 256 448 Q 271 447 272 432 L 272 407 Q 276 406 279 405 L 289 430 Q 296 443 310 439 Q 323 432 319 418 L 308 392 L 316 388 L 340 418 Q 350 429 362 421 Q 373 410 365 398 L 345 374 Q 367 361 368 336 Q 368 316 353 304 Q 390 299 415 273 Q 439 246 440 208 L 508 208 Q 512 231 512 256 L 512 256 Z M 256 0 Q 342 1 408 50 L 408 50 Q 473 98 499 176 L 435 176 Q 426 153 409 138 L 414 127 Q 420 114 407 106 Q 393 100 386 113 L 382 120 Q 375 117 368 115 L 368 96 Q 366 81 352 80 Q 337 81 336 96 L 336 112 Q 329 113 323 114 L 318 105 Q 310 92 297 98 Q 284 105 289 119 L 293 126 Q 268 142 256 170 Q 244 142 218 126 L 222 119 Q 227 105 215 98 Q 201 92 193 105 L 189 114 Q 182 113 176 112 L 176 96 Q 174 81 160 80 Q 145 81 144 96 L 144 115 Q 136 117 129 120 L 126 113 Q 118 100 104 106 Q 92 113 97 127 L 102 138 Q 86 153 78 176 L 13 176 Q 39 98 104 50 Q 170 1 256 0 L 256 0 Z"/>
</svg>
