<svg xmlns="http://www.w3.org/2000/svg" viewBox="0 0 512 160">
    <path d="M 88 24 Q 86 2 64 0 Q 42 2 40 24 L 40 40 L 24 40 Q 2 42 0 64 Q 2 86 24 88 L 40 88 L 40 104 Q 42 126 64 128 Q 86 126 88 104 L 88 88 L 104 88 Q 126 86 128 64 Q 126 42 104 40 L 88 40 L 88 24 L 88 24 Z M 280 56 Q 278 34 256 32 Q 234 34 232 56 L 232 72 L 216 72 Q 194 74 192 96 Q 194 118 216 120 L 232 120 L 232 136 Q 234 158 256 160 Q 278 158 280 136 L 280 120 L 296 120 Q 318 118 320 96 Q 318 74 296 72 L 280 72 L 280 56 L 280 56 Z M 448 0 Q 426 2 424 24 L 424 40 L 408 40 Q 386 42 384 64 Q 386 86 408 88 L 424 88 L 424 104 Q 426 126 448 128 Q 470 126 472 104 L 472 88 L 488 88 Q 510 86 512 64 Q 510 42 488 40 L 472 40 L 472 24 Q 470 2 448 0 L 448 0 Z"/>
</svg>
