<svg xmlns="http://www.w3.org/2000/svg" viewBox="0 0 448 512">
    <path d="M 96 0 Q 55 1 28 28 L 28 28 Q 1 55 0 96 L 0 416 Q 1 457 28 484 Q 55 511 96 512 L 384 512 L 416 512 Q 430 512 439 503 Q 448 494 448 480 Q 448 466 439 457 Q 430 448 416 448 L 352 448 L 256 448 L 96 448 Q 82 448 73 439 Q 64 430 64 416 Q 64 402 73 393 Q 82 384 96 384 L 256 384 L 352 384 L 416 384 Q 430 384 439 375 Q 448 366 448 352 L 448 32 Q 448 18 439 9 Q 430 0 416 0 L 384 0 L 96 0 L 96 0 Z M 176 128 Q 177 92 208 73 Q 240 55 272 73 Q 303 92 304 128 Q 303 164 272 183 Q 240 201 208 183 Q 177 164 176 128 L 176 128 Z M 128 304 Q 129 270 151 247 L 151 247 Q 174 225 208 224 L 272 224 Q 306 225 329 247 Q 351 270 352 304 Q 351 319 336 320 L 144 320 Q 129 319 128 304 L 128 304 Z"/>
</svg>
