<svg xmlns="http://www.w3.org/2000/svg" viewBox="0 0 352 384">
    <path d="M 48 0 Q 28 1 14 14 L 14 14 Q 1 28 0 48 L 0 272 Q 2 305 32 317 L 32 360 Q 34 382 56 384 L 72 384 Q 94 382 96 360 L 96 320 L 256 320 L 256 360 Q 258 382 280 384 L 296 384 Q 318 382 320 360 L 320 317 Q 350 305 352 272 L 352 48 Q 351 28 338 14 Q 324 1 304 0 L 48 0 L 48 0 Z M 64 176 L 80 127 Q 86 113 100 112 L 252 112 Q 266 113 272 127 L 288 176 L 64 176 L 64 176 Z M 256 248 Q 258 226 280 224 Q 302 226 304 248 Q 302 270 280 272 Q 258 270 256 248 L 256 248 Z M 72 224 Q 94 226 96 248 Q 94 270 72 272 Q 50 270 48 248 Q 50 226 72 224 L 72 224 Z"/>
</svg>
