<svg xmlns="http://www.w3.org/2000/svg" viewBox="0 0 292 304">
    <path d="M 113 3 Q 103 7 102 18 L 102 36 Q 101 48 90 54 Q 79 61 68 55 L 55 47 Q 44 42 36 50 Q 25 62 16 77 Q 7 92 3 108 Q 0 119 10 125 L 24 133 Q 34 140 34 152 Q 34 164 24 170 L 10 179 Q 0 185 3 196 Q 8 212 16 227 Q 25 242 36 254 Q 45 262 55 256 L 68 249 Q 79 243 90 249 Q 101 256 102 268 L 102 285 Q 102 297 113 300 Q 129 304 146 304 Q 163 304 179 300 Q 189 297 190 285 L 190 268 Q 191 255 201 249 Q 212 243 223 248 L 237 256 Q 247 262 256 254 Q 267 242 276 227 Q 284 212 289 196 Q 292 185 282 179 L 268 170 Q 258 164 258 152 Q 258 140 268 133 L 282 125 Q 292 119 289 108 Q 284 92 276 77 Q 267 62 256 50 Q 247 42 237 47 L 223 55 Q 212 61 201 55 Q 191 48 190 36 L 190 18 Q 189 7 179 3 Q 163 0 146 0 Q 129 0 113 3 L 113 3 Z M 146 104 Q 173 105 188 128 Q 200 152 188 176 Q 173 199 146 200 Q 119 199 104 176 Q 92 152 104 128 Q 119 105 146 104 L 146 104 Z"/>
</svg>
