<svg xmlns="http://www.w3.org/2000/svg" viewBox="0 0 512 512">
    <path d="M 9 9 Q 19 0 32 0 L 32 0 Q 45 0 55 9 L 160 115 L 160 64 Q 160 50 169 41 Q 178 32 192 32 Q 206 32 215 41 Q 224 50 224 64 L 224 192 Q 224 206 215 215 Q 206 224 192 224 L 64 224 Q 50 224 41 215 Q 32 206 32 192 Q 32 178 41 169 Q 50 160 64 160 L 115 160 L 9 55 Q 0 45 0 32 Q 0 19 9 9 L 9 9 Z M 288 320 Q 288 306 297 297 L 297 297 Q 306 288 320 288 L 448 288 Q 462 288 471 297 Q 480 306 480 320 Q 480 334 471 343 Q 462 352 448 352 L 397 352 L 503 457 Q 512 467 512 480 Q 512 493 503 503 Q 493 512 480 512 Q 467 512 457 503 L 352 397 L 352 448 Q 352 462 343 471 Q 334 480 320 480 Q 306 480 297 471 Q 288 462 288 448 L 288 320 L 288 320 Z"/>
</svg>
