<svg xmlns="http://www.w3.org/2000/svg" viewBox="0 0 384 512">
    <path d="M 0 64 Q 1 37 19 19 L 19 19 Q 37 1 64 0 L 224 0 L 224 128 Q 224 142 233 151 Q 242 160 256 160 L 384 160 L 384 448 Q 383 475 365 493 Q 347 511 320 512 L 64 512 Q 37 511 19 493 Q 1 475 0 448 L 0 64 L 0 64 Z M 156 250 Q 141 233 122 244 Q 106 259 116 278 L 163 344 L 116 410 Q 105 429 122 444 Q 141 455 156 438 L 192 386 L 228 438 Q 243 455 262 444 Q 278 429 268 410 L 221 344 L 268 278 Q 279 259 262 244 Q 243 233 228 250 L 192 302 L 156 250 L 156 250 Z"/>
</svg>
