<svg xmlns="http://www.w3.org/2000/svg" viewBox="0 0 448 512">
    <path d="M 320 0 Q 306 0 297 9 L 297 9 Q 288 18 288 32 Q 288 46 297 55 Q 306 64 320 64 L 352 64 Q 366 64 375 73 Q 384 82 384 96 Q 384 110 375 119 Q 366 128 352 128 L 32 128 Q 18 128 9 137 Q 0 146 0 160 Q 0 174 9 183 Q 18 192 32 192 L 352 192 Q 393 191 420 164 Q 447 137 448 96 Q 447 55 420 28 Q 393 1 352 0 L 320 0 L 320 0 Z M 128 512 L 160 512 Q 201 511 228 484 Q 255 457 256 416 Q 255 375 228 348 Q 201 321 160 320 L 32 320 Q 18 320 9 329 Q 0 338 0 352 Q 0 366 9 375 Q 18 384 32 384 L 160 384 Q 174 384 183 393 Q 192 402 192 416 Q 192 430 183 439 Q 174 448 160 448 L 128 448 Q 114 448 105 457 Q 96 466 96 480 Q 96 494 105 503 Q 114 512 128 512 L 128 512 Z"/>
</svg>
