<svg xmlns="http://www.w3.org/2000/svg" viewBox="0 0 480 224">
    <path d="M 160 16 Q 161 1 176 0 Q 210 1 233 23 Q 255 46 256 80 Q 255 95 240 96 Q 206 95 183 73 Q 161 50 160 16 L 160 16 Z M 32 40 Q 34 18 56 16 L 104 16 Q 126 18 128 40 Q 126 62 104 64 L 56 64 Q 34 62 32 40 L 32 40 Z M 0 112 Q 2 90 24 88 L 136 88 Q 158 90 160 112 Q 158 134 136 136 L 24 136 Q 2 134 0 112 L 0 112 Z M 56 160 L 104 160 Q 126 162 128 184 Q 126 206 104 208 L 56 208 Q 34 206 32 184 Q 34 162 56 160 L 56 160 Z M 288 0 Q 322 1 345 23 L 345 23 Q 367 46 368 80 Q 367 95 352 96 Q 318 95 295 73 Q 273 50 272 16 Q 273 1 288 0 L 288 0 Z M 384 16 Q 385 1 400 0 Q 434 1 457 23 Q 479 46 480 80 Q 479 95 464 96 Q 430 95 407 73 Q 385 50 384 16 L 384 16 Z M 464 128 Q 479 129 480 144 Q 479 178 457 201 Q 434 223 400 224 Q 385 223 384 208 Q 385 174 407 151 Q 430 129 464 128 L 464 128 Z M 368 144 Q 367 178 345 201 L 345 201 Q 322 223 288 224 Q 273 223 272 208 Q 273 174 295 151 Q 318 129 352 128 Q 367 129 368 144 L 368 144 Z M 240 128 Q 255 129 256 144 Q 255 178 233 201 Q 210 223 176 224 Q 161 223 160 208 Q 161 174 183 151 Q 206 129 240 128 L 240 128 Z"/>
</svg>
