<svg xmlns="http://www.w3.org/2000/svg" viewBox="0 0 640 352">
    <path d="M 96 24 Q 98 2 120 0 L 200 0 Q 222 2 224 24 L 224 40 Q 224 43 224 45 Q 267 64 293 103 Q 319 142 320 192 Q 318 260 273 305 Q 228 350 160 352 Q 92 350 47 305 Q 2 260 0 192 Q 1 142 27 103 Q 53 64 97 45 Q 96 43 96 40 L 96 24 L 96 24 Z M 160 288 Q 186 288 208 275 L 208 275 Q 230 262 243 240 Q 256 217 256 192 Q 256 167 243 144 Q 230 122 208 109 Q 186 96 160 96 Q 134 96 112 109 Q 90 122 77 144 Q 64 167 64 192 Q 64 217 77 240 Q 90 262 112 275 Q 134 288 160 288 L 160 288 Z M 352 192 Q 352 153 338 119 Q 364 68 417 45 Q 416 43 416 40 L 416 24 Q 418 2 440 0 L 520 0 Q 542 2 544 24 L 544 40 Q 544 43 544 45 Q 587 64 613 103 Q 639 142 640 192 Q 638 260 593 305 Q 548 350 480 352 Q 433 351 396 328 Q 358 304 338 265 Q 352 231 352 192 L 352 192 Z M 576 192 Q 576 166 563 144 L 563 144 Q 550 122 528 109 Q 505 96 480 96 Q 455 96 432 109 Q 410 122 397 144 Q 384 166 384 192 Q 384 218 397 240 Q 410 262 432 275 Q 455 288 480 288 Q 505 288 528 275 Q 550 262 563 240 Q 576 218 576 192 L 576 192 Z"/>
</svg>
