<svg xmlns="http://www.w3.org/2000/svg" viewBox="0 0 512 514">
    <path d="M 500 9 Q 512 19 512 34 L 512 178 Q 511 198 493 212 Q 475 225 448 226 Q 421 225 403 212 Q 385 198 384 178 Q 385 158 403 144 Q 421 131 448 130 L 448 73 L 352 92 L 352 210 Q 351 230 333 244 Q 315 257 288 258 Q 261 257 243 244 Q 225 230 224 210 Q 225 190 243 176 Q 261 163 288 162 L 288 66 Q 290 41 314 35 L 474 3 Q 488 0 500 9 L 500 9 Z M 126 366 L 146 387 L 169 363 Q 179 354 192 354 Q 205 354 215 363 Q 224 373 224 386 Q 224 399 215 409 L 190 433 L 215 460 Q 224 470 224 483 Q 224 496 214 505 Q 204 514 191 514 Q 178 514 169 504 L 145 479 L 132 491 Q 109 514 77 514 Q 44 513 23 491 Q 1 470 0 437 L 0 436 Q 0 406 20 383 L 35 367 Q 17 349 16 322 Q 17 295 35 277 Q 53 259 80 258 Q 107 259 125 277 Q 143 295 144 322 Q 143 348 126 366 L 126 366 Z M 68 426 Q 64 430 64 436 L 64 437 Q 65 449 77 450 Q 83 450 87 446 L 101 432 L 81 412 L 68 426 L 68 426 Z M 96 322 Q 95 307 80 306 Q 65 307 64 322 Q 65 337 80 338 Q 95 337 96 322 L 96 322 Z"/>
</svg>
