<svg xmlns="http://www.w3.org/2000/svg" viewBox="0 0 608 327">
    <path d="M 112 192 Q 68 192 31 212 Q 1 177 0 128 Q 1 74 37 37 Q 74 1 128 0 Q 190 2 227 47 Q 255 32 288 32 Q 322 32 349 48 Q 377 63 394 89 Q 377 100 363 115 Q 329 96 288 96 Q 237 97 198 124 Q 159 150 140 194 Q 126 192 112 192 L 112 192 Z M 432 256 Q 424 256 417 257 Q 394 227 361 210 Q 328 192 288 192 Q 240 193 202 217 Q 188 208 172 202 Q 187 169 218 149 Q 249 129 288 128 Q 336 129 370 158 Q 387 130 416 113 Q 445 96 480 96 Q 534 97 571 133 Q 607 170 608 224 Q 608 256 594 283 Q 580 309 556 327 Q 537 295 505 276 Q 472 256 432 256 L 432 256 Z"/>
</svg>
