<svg xmlns="http://www.w3.org/2000/svg" viewBox="0 0 511 512">
    <path d="M 58 0 L 458 0 Q 480 2 482 24 Q 480 46 458 48 L 58 48 Q 36 46 34 24 Q 36 2 58 0 L 58 0 Z M 14 176 Q 28 160 50 160 L 466 160 Q 488 160 502 176 Q 508 183 511 193 Q 505 192 498 192 Q 426 194 377 240 Q 327 209 258 208 Q 180 209 128 248 Q 76 286 74 344 Q 76 402 128 440 Q 180 479 258 480 Q 308 480 349 462 Q 368 492 397 512 L 82 512 Q 63 512 50 500 Q 37 488 34 470 L 2 214 Q 0 193 14 176 L 14 176 Z M 290 352 Q 290 362 281 369 L 281 369 Q 272 376 258 376 Q 244 376 235 369 Q 226 362 226 352 Q 226 342 235 335 Q 244 328 258 328 Q 272 328 281 335 Q 290 342 290 352 L 290 352 Z M 18 104 Q 20 82 42 80 L 474 80 Q 496 82 498 104 Q 496 126 474 128 L 42 128 Q 20 126 18 104 L 18 104 Z"/>
</svg>
