<svg xmlns="http://www.w3.org/2000/svg" viewBox="0 0 512 516">
    <path d="M 417 7 Q 436 15 444 32 L 444 32 Q 452 50 445 69 L 418 142 L 256 163 L 249 162 Q 256 148 256 132 Q 255 105 237 87 Q 219 69 192 68 Q 165 69 147 87 Q 129 105 128 132 Q 128 140 130 147 L 64 139 Q 64 138 64 138 Q 64 135 64 132 Q 65 78 101 41 Q 138 5 192 4 Q 246 5 281 40 Q 317 76 320 129 L 355 35 Q 363 16 380 8 Q 398 0 417 7 L 417 7 Z M 173 335 L 256 196 L 339 335 Q 353 354 376 349 L 512 310 L 512 415 Q 512 431 502 444 Q 492 457 476 461 L 271 512 Q 256 516 240 512 L 36 461 Q 20 457 10 444 Q 0 431 0 415 L 0 310 L 136 349 Q 159 354 173 335 L 173 335 Z"/>
</svg>
