<svg xmlns="http://www.w3.org/2000/svg" viewBox="0 0 368 512">
    <path d="M 224 0 Q 251 1 266 24 Q 278 48 266 72 Q 251 95 224 96 Q 197 95 182 72 Q 170 48 182 24 Q 197 1 224 0 L 224 0 Z M 115 160 Q 93 160 78 176 L 55 199 Q 45 208 32 208 Q 19 208 9 199 Q 0 189 0 176 Q 0 163 9 153 L 32 130 Q 67 97 115 96 Q 133 96 150 101 L 198 116 Q 255 135 279 189 L 285 204 Q 294 223 315 224 L 336 224 Q 350 224 359 233 Q 368 242 368 256 Q 368 270 359 279 Q 350 288 336 288 L 315 288 Q 285 288 261 272 Q 238 256 226 229 L 221 217 L 190 299 L 247 334 Q 260 343 266 358 Q 272 372 267 388 L 246 464 L 179 464 L 203 382 L 116 329 Q 97 316 90 296 Q 83 276 90 254 L 121 160 Q 118 160 115 160 L 115 160 Z M 91 464 L 20 464 L 79 338 Q 88 348 100 356 L 132 376 L 91 464 L 91 464 Z M 49 512 Q 48 512 48 512 L 48 512 Q 48 512 47 512 L 49 512 L 49 512 Z M 209 512 Q 208 512 208 512 L 208 512 Q 208 512 207 512 L 209 512 L 209 512 Z"/>
</svg>
