<svg xmlns="http://www.w3.org/2000/svg" viewBox="0 0 352 448">
    <path d="M 65 164 Q 70 121 101 93 L 101 93 Q 132 65 176 64 Q 224 65 255 97 Q 287 128 288 176 Q 287 221 258 252 Q 245 266 235 285 Q 225 305 224 330 L 224 336 Q 223 356 210 370 Q 196 383 176 384 Q 162 384 153 393 Q 144 402 144 416 Q 144 430 153 439 Q 162 448 176 448 Q 224 447 255 415 Q 287 384 288 336 L 288 330 Q 288 315 305 295 Q 350 247 352 176 Q 350 101 300 52 Q 251 2 176 0 Q 107 2 58 45 Q 10 89 1 157 Q 0 170 8 180 Q 16 190 29 192 Q 43 193 53 185 Q 63 177 65 164 L 65 164 Z M 144 176 Q 144 162 153 153 L 153 153 Q 162 144 176 144 Q 190 144 199 153 Q 208 162 208 176 Q 210 198 232 200 Q 254 198 256 176 Q 255 142 233 119 Q 210 97 176 96 Q 142 97 119 119 Q 97 142 96 176 Q 98 198 120 200 Q 142 198 144 176 L 144 176 Z"/>
</svg>
