<svg xmlns="http://www.w3.org/2000/svg" viewBox="0 0 433 434">
    <path d="M 433 320 L 433 322 L 21 432 Q 12 434 6 427 Q 0 421 2 412 L 111 0 L 113 0 Q 202 1 274 44 Q 347 86 389 159 Q 432 231 433 320 L 433 320 Z M 209 160 Q 209 146 200 137 L 200 137 Q 191 128 177 128 Q 163 128 154 137 Q 145 146 145 160 Q 145 174 154 183 Q 163 192 177 192 Q 191 192 200 183 Q 209 174 209 160 L 209 160 Z M 273 288 Q 287 288 296 279 L 296 279 Q 305 270 305 256 Q 305 242 296 233 Q 287 224 273 224 Q 259 224 250 233 Q 241 242 241 256 Q 241 270 250 279 Q 259 288 273 288 L 273 288 Z M 129 336 Q 143 336 152 327 L 152 327 Q 161 318 161 304 Q 161 290 152 281 Q 143 272 129 272 Q 115 272 106 281 Q 97 290 97 304 Q 97 318 106 327 Q 115 336 129 336 L 129 336 Z"/>
</svg>
