<svg xmlns="http://www.w3.org/2000/svg" viewBox="0 0 512 500">
    <path d="M 8 192 Q 0 223 0 256 Q 1 343 51 409 Q 100 474 179 500 Q 161 474 160 440 Q 161 401 184 373 Q 207 346 244 338 Q 255 302 284 279 Q 313 257 352 256 Q 397 257 428 285 Q 441 280 456 280 Q 487 281 508 300 Q 512 278 512 256 Q 511 184 477 127 Q 443 69 385 35 Q 328 1 256 0 Q 225 0 196 7 Q 223 18 239 42 Q 256 65 256 96 Q 256 126 240 149 Q 224 173 198 184 Q 208 194 208 208 Q 208 222 199 231 Q 190 240 176 240 Q 163 240 154 231 Q 145 222 144 208 Q 144 199 149 192 L 8 192 L 8 192 Z M 336 176 Q 350 176 359 185 L 359 185 Q 368 194 368 208 Q 368 222 359 231 Q 350 240 336 240 Q 323 240 314 231 Q 305 222 304 208 Q 305 194 314 185 Q 323 176 336 176 L 336 176 Z"/>
</svg>
