<svg xmlns="http://www.w3.org/2000/svg" viewBox="0 0 592 275">
    <path d="M 208 114 Q 223 113 224 98 Q 223 83 208 82 L 94 82 Q 89 82 87 77 Q 85 73 89 68 L 117 40 Q 129 25 117 11 Q 103 0 89 11 L 28 72 L 27 73 Q 0 103 0 140 Q 0 178 28 207 Q 56 234 95 235 L 160 235 Q 175 233 176 219 Q 175 204 160 203 L 146 203 Q 142 203 142 198 Q 142 194 146 194 L 208 194 Q 223 192 224 178 Q 223 163 208 162 L 146 162 Q 142 162 142 158 Q 142 154 146 154 L 224 154 Q 239 153 240 138 Q 239 123 224 122 L 146 122 Q 142 122 142 118 Q 142 114 146 114 L 208 114 L 208 114 Z M 391 95 Q 380 85 387 73 Q 397 62 409 69 L 491 127 Q 495 130 499 129 Q 506 128 508 122 Q 510 116 505 110 L 491 96 Q 479 81 491 67 Q 505 56 519 67 L 564 112 L 565 113 Q 592 143 592 180 Q 592 218 564 247 Q 536 274 497 275 L 432 275 Q 417 273 416 259 Q 417 244 432 243 L 452 243 Q 456 243 456 238 Q 456 234 452 234 L 384 234 Q 369 233 368 218 Q 369 203 384 202 L 452 202 Q 456 202 456 198 Q 456 194 452 194 L 368 194 Q 353 193 352 178 Q 353 163 368 162 L 443 162 Q 455 161 456 149 Q 456 142 450 138 L 391 95 L 391 95 Z"/>
</svg>
