<svg xmlns="http://www.w3.org/2000/svg" viewBox="0 0 384 512">
    <path d="M 32 0 Q 18 0 9 9 L 9 9 Q 0 18 0 32 L 0 64 Q 0 78 9 87 Q 18 96 32 96 L 352 96 Q 366 96 375 87 Q 384 78 384 64 L 384 32 Q 384 18 375 9 Q 366 0 352 0 L 32 0 L 32 0 Z M 352 128 L 32 128 L 32 192 L 144 192 Q 159 193 160 208 Q 159 223 144 224 L 32 224 L 32 288 L 144 288 Q 159 289 160 304 Q 159 319 144 320 L 32 320 L 32 384 L 144 384 Q 159 385 160 400 Q 159 415 144 416 L 32 416 L 32 448 Q 33 475 51 493 Q 69 511 96 512 L 288 512 Q 306 512 320 504 Q 290 479 273 444 Q 256 409 256 368 Q 257 316 283 275 Q 309 234 352 211 L 352 128 L 352 128 Z"/>
</svg>
