<svg xmlns="http://www.w3.org/2000/svg" viewBox="0 0 448 416">
    <path d="M 241 128 Q 253 158 255 192 L 352 192 Q 393 191 420 164 Q 447 137 448 96 Q 447 55 420 28 Q 393 1 352 0 L 320 0 Q 306 0 297 9 Q 288 18 288 32 Q 288 46 297 55 Q 306 64 320 64 L 352 64 Q 366 64 375 73 Q 384 82 384 96 Q 384 110 375 119 Q 366 128 352 128 L 241 128 L 241 128 Z M 280 384 Q 280 398 289 407 L 289 407 Q 298 416 312 416 L 344 416 Q 385 415 412 388 Q 439 361 440 320 Q 439 279 412 252 Q 385 225 344 224 L 192 224 Q 178 224 169 233 Q 160 242 160 256 Q 160 270 169 279 Q 178 288 192 288 L 344 288 Q 358 288 367 297 Q 376 306 376 320 Q 376 334 367 343 Q 358 352 344 352 L 312 352 Q 298 352 289 361 Q 280 370 280 384 L 280 384 Z M 32 80 Q 10 82 8 104 L 8 216 Q 10 238 32 240 Q 54 238 56 216 L 56 104 Q 54 82 32 80 L 32 80 Z M 64 304 Q 64 290 55 281 L 55 281 Q 46 272 32 272 Q 18 272 9 281 Q 0 290 0 304 Q 0 318 9 327 Q 18 336 32 336 Q 46 336 55 327 Q 64 318 64 304 L 64 304 Z"/>
</svg>
