<svg xmlns="http://www.w3.org/2000/svg" viewBox="0 0 505 460">
    <path d="M 91 20 Q 89 2 71 0 Q 53 2 51 20 L 51 34 Q 39 36 29 43 Q 5 55 3 86 Q 6 116 28 127 Q 46 137 63 141 L 65 142 Q 84 147 93 152 Q 100 157 99 160 Q 99 168 93 171 Q 85 176 72 176 Q 56 175 37 167 Q 33 166 29 165 Q 11 161 4 177 Q 0 195 17 203 Q 20 204 23 205 L 23 205 L 23 205 Q 35 210 51 213 L 51 228 Q 53 246 71 248 Q 89 246 91 228 L 91 214 Q 103 212 114 205 Q 137 192 139 160 Q 136 130 114 119 Q 96 108 77 104 L 76 103 Q 58 98 48 93 Q 42 89 43 86 Q 42 81 49 77 Q 58 72 71 72 Q 85 72 102 77 Q 120 80 126 63 Q 129 45 112 38 Q 102 36 91 34 L 91 20 L 91 20 Z M 311 124 Q 308 210 247 266 L 247 266 Q 185 322 95 331 Q 114 388 168 423 Q 222 459 295 460 Q 353 459 400 436 Q 411 442 425 448 Q 453 459 487 460 Q 498 459 502 449 Q 505 438 496 431 L 496 431 L 496 431 L 496 431 Q 496 431 496 430 Q 495 430 495 430 Q 494 429 491 426 Q 485 421 478 412 Q 469 401 463 387 Q 502 343 503 284 Q 501 213 447 164 Q 393 115 310 108 Q 311 116 311 124 L 311 124 Z"/>
</svg>
