<svg xmlns="http://www.w3.org/2000/svg" viewBox="0 0 578 418">
    <path d="M 0 32 Q 0 18 9 9 L 9 9 Q 18 0 32 0 L 105 0 Q 126 0 142 12 Q 159 24 166 44 L 258 320 Q 257 320 257 320 Q 256 320 256 320 Q 222 321 197 340 L 105 64 L 32 64 Q 18 64 9 55 Q 0 46 0 32 L 0 32 Z M 352 416 Q 351 382 332 357 L 534 290 Q 547 286 558 291 Q 570 297 574 310 Q 578 323 573 334 Q 567 346 554 350 L 352 418 Q 352 417 352 417 Q 352 416 352 416 L 352 416 Z M 372 60 L 392 121 L 331 140 L 311 79 L 372 60 L 372 60 Z"/>
</svg>
