<svg xmlns="http://www.w3.org/2000/svg" viewBox="0 0 512 512">
    <path d="M 256 512 Q 326 511 384 478 L 384 478 Q 442 444 478 384 Q 512 323 512 256 Q 512 189 478 128 Q 442 68 384 34 Q 326 1 256 0 Q 186 1 128 34 Q 70 68 34 128 Q 0 189 0 256 Q 0 323 34 384 Q 70 444 128 478 Q 186 511 256 512 L 256 512 Z M 144 120 Q 171 121 189 139 L 189 139 Q 207 157 208 184 L 208 194 Q 208 207 199 215 Q 191 224 178 224 L 110 224 Q 97 224 89 215 Q 80 207 80 194 L 80 184 Q 81 157 99 139 Q 117 121 144 120 L 144 120 Z M 272 192 Q 273 161 293 141 L 293 141 Q 313 121 344 120 Q 375 121 395 141 Q 415 161 416 192 L 416 200 Q 414 222 392 224 L 297 224 Q 274 222 272 200 L 272 192 L 272 192 Z M 116 288 L 396 288 Q 413 290 412 308 Q 398 363 356 397 Q 313 431 256 432 Q 199 431 156 397 Q 114 363 100 308 Q 99 290 116 288 L 116 288 Z"/>
</svg>
