<svg xmlns="http://www.w3.org/2000/svg" viewBox="0 0 443 416">
    <path d="M 315 48 Q 315 46 313 44 L 283 32 L 271 2 Q 269 0 267 0 Q 265 0 263 2 L 251 32 L 221 44 Q 219 46 219 48 Q 219 50 221 52 L 251 64 L 263 94 Q 265 96 267 96 Q 269 96 271 94 L 283 64 L 313 52 Q 315 50 315 48 L 315 48 Z M 391 94 Q 393 96 395 96 Q 397 96 399 94 L 411 64 L 441 52 Q 443 50 443 48 Q 443 46 441 44 L 411 32 L 399 2 Q 397 0 395 0 Q 393 0 391 2 L 379 32 L 349 44 Q 347 46 347 48 Q 347 50 349 52 L 379 64 L 391 94 L 391 94 Z M 399 194 Q 397 192 395 192 Q 393 192 391 194 L 379 224 L 349 236 Q 347 238 347 240 Q 347 242 349 244 L 379 256 L 391 286 Q 393 288 395 288 Q 397 288 399 286 L 411 256 L 441 244 Q 443 242 443 240 Q 443 238 441 236 L 411 224 L 399 194 L 399 194 Z M 379 144 Q 379 142 377 140 L 347 128 L 335 98 Q 333 96 331 96 Q 329 96 327 98 L 315 128 L 285 140 Q 283 142 283 144 Q 283 146 285 148 L 315 160 L 327 190 Q 329 192 331 192 Q 333 192 335 190 L 347 160 L 377 148 Q 379 146 379 144 L 379 144 Z M 91 416 Q 136 415 160 376 Q 182 336 160 296 Q 136 257 91 256 Q 46 257 22 296 Q 0 336 22 376 Q 46 415 91 416 L 91 416 Z"/>
</svg>
