<svg xmlns="http://www.w3.org/2000/svg" viewBox="0 0 384 384">
    <path d="M 192 32 Q 235 32 272 53 L 272 53 Q 309 75 331 112 Q 352 150 352 192 Q 352 234 331 272 Q 309 309 272 331 Q 235 352 192 352 Q 149 352 112 331 Q 75 309 53 272 Q 32 234 32 192 Q 32 150 53 112 Q 75 75 112 53 Q 149 32 192 32 L 192 32 Z M 192 384 Q 244 384 288 358 L 288 358 Q 332 333 358 288 Q 384 243 384 192 Q 384 141 358 96 Q 332 51 288 26 Q 244 0 192 0 Q 140 0 96 26 Q 52 51 26 96 Q 0 141 0 192 Q 0 243 26 288 Q 52 333 96 358 Q 140 384 192 384 L 192 384 Z"/>
</svg>
