<svg xmlns="http://www.w3.org/2000/svg" viewBox="0 0 416 416">
    <path d="M 74 1 Q 56 0 43 10 L 43 10 Q 31 20 26 36 L 14 80 L 16 80 Q 105 81 177 124 Q 250 166 292 239 Q 335 311 336 400 L 336 402 L 380 390 Q 396 385 406 373 Q 416 360 415 342 Q 408 250 362 175 Q 315 101 241 54 Q 166 8 74 1 L 74 1 Z M 112 240 Q 112 226 103 217 L 103 217 Q 94 208 80 208 Q 66 208 57 217 Q 48 226 48 240 Q 48 254 57 263 Q 66 272 80 272 Q 94 272 103 263 Q 112 254 112 240 L 112 240 Z M 176 368 Q 190 368 199 359 L 199 359 Q 208 350 208 336 Q 208 322 199 313 Q 190 304 176 304 Q 162 304 153 313 Q 144 322 144 336 Q 144 350 153 359 Q 162 368 176 368 L 176 368 Z M 32 416 Q 46 416 55 407 L 55 407 Q 64 398 64 384 Q 64 370 55 361 Q 46 352 32 352 Q 18 352 9 361 Q 0 370 0 384 Q 0 398 9 407 Q 18 416 32 416 L 32 416 Z"/>
</svg>
