<svg xmlns="http://www.w3.org/2000/svg" viewBox="0 0 400 351">
    <path d="M 239 351 Q 308 344 353 295 L 353 295 Q 398 247 400 176 Q 398 101 348 52 Q 299 2 224 0 Q 153 2 105 47 Q 56 92 49 161 Q 56 160 64 160 Q 139 162 188 212 Q 238 261 240 336 Q 240 344 239 351 L 239 351 Z M 256 48 Q 271 49 272 64 L 272 96 L 304 96 Q 319 97 320 112 Q 319 127 304 128 L 272 128 L 272 160 Q 271 175 256 176 Q 241 175 240 160 L 240 128 L 208 128 Q 193 127 192 112 Q 193 97 208 96 L 240 96 L 240 64 Q 241 49 256 48 L 256 48 Z M 80 224 Q 79 209 64 208 Q 49 209 48 224 L 48 256 L 16 256 Q 1 257 0 272 Q 1 287 16 288 L 48 288 L 48 320 Q 49 335 64 336 Q 79 335 80 320 L 80 288 L 112 288 Q 127 287 128 272 Q 127 257 112 256 L 80 256 L 80 224 L 80 224 Z"/>
</svg>
