<svg xmlns="http://www.w3.org/2000/svg" viewBox="0 0 322 352">
    <path d="M 87 126 L 59 163 Q 50 174 37 176 Q 25 177 14 170 Q 3 161 1 148 Q 0 136 8 125 L 66 47 Q 103 1 161 0 Q 219 1 256 47 L 315 125 Q 322 136 321 148 Q 319 161 308 170 Q 297 177 285 176 Q 272 174 264 163 L 235 126 L 266 219 Q 268 227 264 233 Q 259 240 251 240 L 233 240 L 233 320 Q 233 334 224 343 Q 215 352 201 352 Q 187 352 178 343 Q 169 334 169 320 L 169 240 L 153 240 L 153 320 Q 153 334 144 343 Q 135 352 121 352 Q 107 352 98 343 Q 89 334 89 320 L 89 240 L 71 240 Q 63 240 58 233 Q 54 227 56 219 L 87 126 L 87 126 Z"/>
</svg>
