<svg xmlns="http://www.w3.org/2000/svg" viewBox="0 0 192 512">
    <path d="M 96 192 Q 122 192 144 179 L 144 179 Q 166 166 179 144 Q 192 121 192 96 Q 192 71 179 48 Q 166 26 144 13 Q 122 0 96 0 Q 70 0 48 13 Q 26 26 13 48 Q 0 71 0 96 Q 0 121 13 144 Q 26 166 48 179 Q 70 192 96 192 L 96 192 Z M 64 64 Q 79 65 80 80 Q 79 95 64 96 Q 49 95 48 80 Q 49 65 64 64 L 64 64 Z M 112 96 Q 113 81 128 80 Q 143 81 144 96 Q 143 111 128 112 Q 113 111 112 96 L 112 96 Z M 64 400 L 64 480 Q 64 494 73 503 Q 82 512 96 512 Q 110 512 119 503 Q 128 494 128 480 L 128 400 L 104 414 Q 96 418 88 414 L 64 400 L 64 400 Z"/>
</svg>
