<svg xmlns="http://www.w3.org/2000/svg" viewBox="0 0 512 512">
    <path d="M 192 24 Q 194 2 216 0 L 296 0 Q 318 2 320 24 Q 318 46 296 48 L 280 48 L 280 74 Q 330 81 368 110 L 386 92 L 375 81 Q 361 64 375 47 Q 392 33 409 47 L 465 103 Q 479 120 465 137 Q 448 151 431 137 L 420 126 L 402 144 Q 431 182 439 232 L 464 232 L 464 216 Q 466 194 488 192 Q 510 194 512 216 L 512 296 Q 510 318 488 320 Q 466 318 464 296 L 464 280 L 438 280 Q 431 330 402 368 L 420 386 L 431 375 Q 448 361 465 375 Q 479 392 465 409 L 409 465 Q 392 479 375 465 Q 361 448 375 431 L 386 420 L 368 402 Q 330 431 280 439 L 280 464 L 296 464 Q 318 466 320 488 Q 318 510 296 512 L 216 512 Q 194 510 192 488 Q 194 466 216 464 L 232 464 L 232 438 Q 182 431 144 402 L 126 420 L 137 431 Q 151 448 137 465 Q 120 479 103 465 L 47 409 Q 33 392 47 375 Q 64 361 81 375 L 92 386 L 110 368 Q 81 330 74 280 L 48 280 L 48 296 Q 46 318 24 320 Q 2 318 0 296 L 0 216 Q 2 194 24 192 Q 46 194 48 216 L 48 232 L 74 232 Q 81 182 110 144 L 92 126 L 81 137 Q 64 151 47 137 Q 33 120 47 103 L 103 47 Q 120 33 137 47 Q 151 64 137 81 L 126 92 L 144 110 Q 182 81 232 74 L 232 48 L 216 48 Q 194 46 192 24 L 192 24 Z M 240 224 Q 239 197 216 182 Q 192 170 168 182 Q 145 197 144 224 Q 145 251 168 266 Q 192 278 216 266 Q 239 251 240 224 L 240 224 Z M 304 328 Q 326 326 328 304 Q 326 282 304 280 Q 282 282 280 304 Q 282 326 304 328 L 304 328 Z"/>
</svg>
