<svg xmlns="http://www.w3.org/2000/svg" viewBox="0 0 640 512">
    <path d="M 256 64 Q 257 26 280 0 L 64 0 Q 37 1 19 19 Q 1 37 0 64 L 0 448 Q 1 475 19 493 Q 37 511 64 512 L 280 512 Q 257 486 256 448 L 256 414 Q 224 447 176 448 Q 128 447 97 415 Q 65 384 64 336 Q 65 288 97 257 Q 128 225 176 224 Q 224 225 256 258 L 256 64 L 256 64 Z M 128 112 Q 129 85 152 70 Q 176 58 200 70 Q 223 85 224 112 Q 223 139 200 154 Q 176 166 152 154 Q 129 139 128 112 L 128 112 Z M 352 0 Q 325 1 307 19 L 307 19 Q 289 37 288 64 L 288 448 Q 289 475 307 493 Q 325 511 352 512 L 576 512 Q 603 511 621 493 Q 639 475 640 448 L 640 64 Q 639 37 621 19 Q 603 1 576 0 L 352 0 L 352 0 Z M 464 224 Q 494 224 520 239 L 520 239 Q 546 254 561 280 Q 576 306 576 336 Q 576 366 561 392 Q 546 418 520 433 Q 494 448 464 448 Q 434 448 408 433 Q 382 418 367 392 Q 352 366 352 336 Q 352 306 367 280 Q 382 254 408 239 Q 434 224 464 224 L 464 224 Z M 416 112 Q 417 85 440 70 Q 464 58 488 70 Q 511 85 512 112 Q 511 139 488 154 Q 464 166 440 154 Q 417 139 416 112 L 416 112 Z"/>
</svg>
