<svg xmlns="http://www.w3.org/2000/svg" viewBox="0 0 512 448">
    <path d="M 320 32 L 352 32 Q 367 31 368 16 Q 368 7 361 3 Q 369 0 377 0 Q 416 1 444 27 L 499 83 Q 512 96 512 115 Q 512 134 499 147 Q 486 160 467 160 L 416 160 L 411 160 L 384 240 L 384 304 L 384 416 Q 384 430 375 439 Q 366 448 352 448 L 320 448 Q 306 448 297 439 Q 288 430 288 416 L 288 304 L 252 304 Q 208 303 175 278 Q 172 304 154 322 L 143 333 Q 136 341 139 351 L 158 405 Q 163 422 154 435 Q 145 447 128 448 L 94 448 Q 72 447 64 427 L 48 383 Q 32 332 58 286 Q 69 268 56 252 Q 52 247 48 242 Q 44 264 22 264 Q 0 260 0 238 L 2 208 Q 7 166 35 140 Q 64 113 106 112 L 114 112 L 128 112 L 192 112 Q 192 112 193 112 Q 193 112 194 112 Q 194 112 195 112 Q 196 112 196 112 L 302 112 L 312 80 L 274 80 Q 258 79 256 62 Q 257 49 270 45 L 320 32 L 320 32 Z M 416 80 Q 415 65 400 64 Q 385 65 384 80 Q 385 95 400 96 Q 415 95 416 80 L 416 80 Z"/>
</svg>
