<svg xmlns="http://www.w3.org/2000/svg" viewBox="0 0 448 448">
    <path d="M 0 0 L 0 64 L 64 64 L 64 0 L 0 0 L 0 0 Z M 109 409 Q 118 404 126 396 L 371 150 Q 381 141 381 128 Q 381 115 371 105 L 281 15 Q 271 5 258 5 Q 245 5 235 15 L 128 122 L 128 352 Q 128 382 112 406 Q 110 407 109 409 L 109 409 Z M 416 448 Q 430 448 439 439 L 439 439 Q 448 430 448 416 L 448 288 Q 448 274 439 265 Q 430 256 416 256 L 311 256 L 119 448 L 416 448 L 416 448 Z M 64 128 L 0 128 L 0 192 L 64 192 L 64 128 L 64 128 Z"/>
</svg>
