<svg xmlns="http://www.w3.org/2000/svg" viewBox="0 0 520 519">
    <path d="M 416 327 Q 390 327 368 340 L 368 340 Q 346 353 333 375 Q 320 398 320 423 Q 320 448 333 471 Q 346 493 368 506 Q 390 519 416 519 Q 442 519 464 506 Q 486 493 499 471 Q 512 448 512 423 Q 512 398 499 375 Q 486 353 464 340 Q 442 327 416 327 L 416 327 Z M 301 366 Q 318 334 348 315 L 348 315 Q 378 295 416 295 Q 460 296 493 321 Q 520 258 508 191 Q 497 124 446 73 Q 402 29 345 14 Q 288 0 231 14 Q 174 29 130 73 L 70 133 L 69 133 L 301 366 L 301 366 Z M 290 400 L 49 159 Q 32 189 32 223 L 32 226 Q 33 279 70 317 L 79 326 Q 89 337 89 350 Q 88 363 78 373 L 11 431 Q 1 440 0 454 Q 0 468 9 478 L 41 510 Q 51 519 65 519 Q 79 518 88 508 L 146 441 Q 156 431 169 430 Q 182 430 193 440 L 203 450 Q 240 486 293 487 L 296 487 Q 300 487 305 487 Q 288 458 288 423 Q 288 411 290 400 L 290 400 Z"/>
</svg>
