<svg xmlns="http://www.w3.org/2000/svg" viewBox="0 0 458 512">
    <path d="M 264 412 Q 251 437 242 443 L 242 443 Q 232 449 229 448 Q 226 449 216 443 Q 207 437 194 412 Q 211 406 229 399 Q 247 407 264 412 L 264 412 Z M 443 384 Q 458 356 451 323 L 451 323 Q 444 290 419 256 Q 444 222 451 189 Q 458 156 443 128 Q 409 75 327 85 Q 311 45 286 23 Q 261 0 229 0 Q 197 0 172 23 Q 147 45 131 85 Q 49 75 15 128 Q 0 156 7 189 Q 14 222 39 256 Q 14 290 7 323 Q 0 356 15 384 Q 49 437 131 427 Q 147 467 172 489 Q 197 512 229 512 Q 261 512 286 489 Q 311 467 327 427 Q 409 437 443 384 L 443 384 Z M 375 305 Q 388 327 389 339 L 389 339 Q 389 350 387 353 Q 386 356 378 360 Q 370 365 346 365 Q 351 345 353 323 Q 365 314 375 305 L 375 305 Z M 387 159 Q 389 162 389 173 L 389 173 Q 388 185 375 207 Q 365 198 353 189 Q 351 167 346 147 Q 370 147 378 152 Q 386 156 387 159 L 387 159 Z M 229 64 Q 232 63 242 69 L 242 69 Q 251 75 264 100 Q 247 106 229 113 Q 211 105 194 100 Q 207 75 216 69 Q 226 63 229 64 L 229 64 Z M 112 148 Q 107 167 105 189 Q 93 198 83 207 Q 70 185 69 173 Q 69 162 71 159 Q 72 156 80 152 Q 88 147 112 147 L 112 148 Z M 71 353 Q 69 350 69 339 L 69 339 Q 70 327 83 305 Q 93 314 105 323 Q 107 345 112 365 Q 88 365 80 360 Q 72 356 71 353 L 71 353 Z M 229 176 Q 274 177 298 216 Q 320 256 298 296 Q 274 335 229 336 Q 184 335 160 296 Q 138 256 160 216 Q 184 177 229 176 L 229 176 Z"/>
</svg>
