<svg xmlns="http://www.w3.org/2000/svg" viewBox="0 0 576 512">
    <path d="M 32 0 Q 46 0 55 9 L 55 9 Q 64 18 64 32 L 64 96 L 64 145 L 133 237 Q 144 249 158 242 Q 173 231 163 215 L 135 180 Q 127 169 128 157 Q 129 144 139 136 Q 150 127 162 128 Q 175 129 184 139 L 231 191 Q 256 220 256 258 L 256 320 L 256 352 L 100 352 L 14 253 Q 0 236 0 214 L 0 192 L 0 156 L 0 155 L 0 96 L 0 32 Q 0 18 9 9 Q 18 0 32 0 L 32 0 Z M 128 480 L 256 480 L 256 512 L 128 512 L 128 480 L 128 480 Z M 320 480 L 448 480 L 448 512 L 320 512 L 320 480 L 320 480 Z M 476 352 L 320 352 L 320 320 L 320 258 Q 320 220 345 191 L 392 139 Q 401 129 414 128 Q 426 127 437 136 Q 447 144 448 157 Q 449 169 441 180 L 413 215 Q 403 231 419 242 Q 432 249 443 237 L 512 145 L 512 96 L 512 32 Q 512 18 521 9 Q 530 0 544 0 Q 558 0 567 9 Q 576 18 576 32 L 576 96 L 576 155 L 576 156 L 576 192 L 576 214 Q 576 236 562 253 L 476 352 L 476 352 Z"/>
</svg>
