<svg xmlns="http://www.w3.org/2000/svg" viewBox="0 0 640 288">
    <path d="M 288 64 L 288 128 L 416 128 L 368 64 L 288 64 L 288 64 Z M 419 26 L 496 128 L 576 128 Q 590 128 599 137 Q 608 146 608 160 L 608 224 Q 622 224 631 233 Q 640 242 640 256 Q 640 270 631 279 Q 622 288 608 288 Q 586 258 553 241 Q 520 224 480 224 Q 440 224 407 241 Q 374 258 352 288 L 288 288 Q 266 258 233 241 Q 200 224 160 224 Q 120 224 87 241 Q 54 258 32 288 Q 18 288 9 279 Q 0 270 0 256 Q 0 242 9 233 Q 18 224 32 224 L 32 160 Q 32 146 41 137 Q 50 128 64 128 L 224 128 L 224 48 Q 225 28 238 14 Q 252 1 272 0 L 368 0 Q 400 1 419 26 L 419 26 Z"/>
</svg>
