<svg xmlns="http://www.w3.org/2000/svg" viewBox="0 0 384 368">
    <path d="M 0 93 Q 22 88 41 80 L 41 80 Q 41 80 41 80 Q 70 66 115 64 Q 160 66 190 80 Q 220 94 265 96 Q 293 96 320 87 L 320 295 Q 293 304 265 304 Q 220 302 190 288 Q 160 274 115 272 Q 85 273 64 280 L 64 344 Q 85 337 115 336 Q 160 338 190 352 Q 220 366 265 368 Q 287 368 306 363 Q 326 357 357 346 Q 357 346 358 346 Q 367 342 377 339 Q 380 337 384 336 L 384 0 Q 380 1 377 3 Q 367 6 358 10 Q 358 10 357 10 Q 326 21 307 27 Q 287 32 265 32 Q 220 30 190 16 Q 160 2 115 0 Q 71 2 42 16 Q 41 16 41 16 Q 22 24 0 29 L 0 93 L 0 93 Z"/>
</svg>
