<svg xmlns="http://www.w3.org/2000/svg" viewBox="0 0 479 520">
    <path d="M 32 123 Q 12 135 6 157 L 6 157 Q 0 178 12 199 L 179 488 Q 191 508 212 514 Q 234 520 255 509 L 447 397 Q 468 385 473 363 Q 479 342 468 321 L 301 32 Q 288 12 267 6 Q 245 0 225 12 L 32 123 L 32 123 Z M 175 178 Q 182 160 201 164 L 228 171 L 304 191 Q 324 197 334 214 Q 343 231 338 251 Q 333 271 316 280 Q 299 290 279 285 L 270 283 Q 269 283 269 283 L 287 313 L 299 306 Q 310 301 318 311 Q 323 323 313 330 L 264 358 Q 253 363 245 353 Q 240 341 250 334 L 263 327 L 245 296 Q 245 297 245 297 Q 245 297 245 297 L 242 306 Q 236 326 219 336 Q 203 345 182 341 Q 163 335 153 318 Q 143 301 148 281 L 168 205 L 176 178 L 175 178 Z"/>
</svg>
