<svg xmlns="http://www.w3.org/2000/svg" viewBox="0 0 402 518">
    <path d="M 114 54 Q 115 27 138 12 Q 162 0 186 12 Q 209 27 210 54 Q 209 81 186 96 Q 162 108 138 96 Q 115 81 114 54 L 114 54 Z M 154 358 L 154 486 Q 154 500 145 509 Q 136 518 122 518 Q 108 518 99 509 Q 90 500 90 486 L 90 263 L 61 311 Q 54 322 42 325 Q 29 328 18 321 Q 6 314 3 302 Q 0 289 7 278 L 65 181 Q 78 159 100 146 Q 122 134 147 134 L 213 134 L 370 134 Q 384 134 393 143 Q 402 152 402 166 Q 402 180 393 189 Q 384 198 370 198 L 234 198 L 234 486 Q 234 500 225 509 Q 216 518 202 518 Q 188 518 179 509 Q 170 500 170 486 L 170 358 L 154 358 L 154 358 Z"/>
</svg>
