<svg xmlns="http://www.w3.org/2000/svg" viewBox="0 0 512 512">
    <path d="M 56 224 L 200 224 Q 222 222 224 200 L 224 56 Q 223 40 209 34 Q 195 28 183 39 L 143 79 L 70 6 Q 64 0 56 0 Q 48 0 42 6 L 6 42 Q 0 48 0 56 Q 0 64 6 70 L 79 143 L 39 183 Q 28 195 34 209 Q 40 223 56 224 L 56 224 Z M 456 288 L 312 288 Q 290 290 288 312 L 288 456 Q 289 472 303 478 Q 317 484 329 473 L 369 433 L 442 506 Q 448 512 456 512 Q 464 512 470 506 L 507 470 Q 512 464 512 456 Q 512 448 507 442 L 433 369 L 473 329 Q 484 317 478 303 Q 472 289 456 288 L 456 288 Z"/>
</svg>
