<svg xmlns="http://www.w3.org/2000/svg" viewBox="0 0 576 416">
    <path d="M 0 48 Q 1 28 14 14 L 14 14 Q 28 1 48 0 L 304 0 Q 324 1 338 14 Q 351 28 352 48 L 352 96 L 403 96 Q 429 96 448 115 L 525 192 Q 544 211 544 237 L 544 256 L 544 288 L 544 352 Q 558 352 567 361 Q 576 370 576 384 Q 576 398 567 407 Q 558 416 544 416 L 512 416 L 511 416 Q 504 374 474 348 Q 443 321 400 320 Q 357 321 326 348 Q 296 374 289 416 L 223 416 Q 216 374 186 348 Q 155 321 112 320 Q 75 321 47 341 Q 19 360 7 393 Q 0 382 0 368 L 0 256 L 144 256 Q 159 255 160 240 Q 159 225 144 224 L 0 224 L 0 192 L 176 192 Q 191 191 192 176 Q 191 161 176 160 L 0 160 L 0 128 L 208 128 Q 223 127 224 112 Q 223 97 208 96 L 0 96 L 0 48 L 0 48 Z M 352 256 L 480 256 L 480 237 L 403 160 L 352 160 L 352 256 L 352 256 Z"/>
</svg>
