<svg xmlns="http://www.w3.org/2000/svg" viewBox="0 0 384 512">
    <path d="M 195 43 Q 200 24 215 12 L 215 12 Q 229 0 249 0 L 280 0 Q 302 2 304 24 Q 302 46 280 48 L 249 48 Q 243 48 242 54 L 224 128 L 352 128 Q 366 128 375 137 Q 384 146 384 160 Q 384 166 382 171 Q 354 180 333 192 L 32 192 Q 18 192 9 183 Q 0 174 0 160 Q 0 146 9 137 Q 18 128 32 128 L 175 128 L 195 43 L 195 43 Z M 293 224 Q 266 255 260 271 Q 256 283 256 293 Q 257 320 276 337 Q 257 355 256 384 Q 257 410 273 427 Q 257 441 256 464 Q 257 491 272 512 L 108 512 Q 89 512 76 499 Q 62 487 60 468 L 40 224 L 293 224 L 293 224 Z"/>
</svg>
