<svg xmlns="http://www.w3.org/2000/svg" viewBox="0 0 512 495">
    <path d="M 163 495 Q 90 466 46 402 L 46 402 Q 1 339 0 256 Q 1 184 35 127 Q 69 69 127 35 Q 184 1 256 0 Q 328 1 385 35 Q 443 69 477 127 Q 511 184 512 256 Q 511 339 466 402 Q 422 466 349 495 Q 367 467 368 432 L 368 422 Q 402 391 415 346 Q 418 335 411 328 Q 405 320 394 320 L 118 320 Q 107 320 101 328 Q 94 335 97 346 Q 110 391 144 422 L 144 432 Q 145 467 163 495 L 163 495 Z M 176 88 Q 161 89 160 104 L 160 113 Q 151 115 143 120 Q 132 129 129 144 Q 127 155 131 165 Q 136 175 143 180 Q 157 188 170 191 L 172 191 Q 186 195 190 198 Q 194 202 190 206 L 190 206 Q 188 208 181 208 Q 164 207 149 201 Q 135 197 129 211 Q 125 225 139 231 Q 139 231 139 231 Q 147 234 160 237 L 160 248 Q 161 263 176 264 Q 191 263 192 248 L 192 239 Q 199 238 206 234 Q 220 225 223 208 Q 225 197 221 187 Q 216 177 209 172 Q 198 165 185 163 Q 184 163 184 163 Q 172 160 162 154 Q 158 150 162 147 Q 163 145 169 144 Q 182 144 196 148 Q 210 150 215 136 Q 218 122 204 117 Q 199 115 192 114 L 192 104 Q 191 89 176 88 L 176 88 Z M 352 104 Q 351 89 336 88 Q 321 89 320 104 L 320 113 Q 311 115 303 120 Q 292 129 289 144 Q 287 155 291 165 Q 296 175 303 180 Q 317 188 330 191 L 332 191 Q 345 195 350 198 Q 354 202 350 206 L 350 206 Q 348 208 341 208 Q 324 207 309 201 Q 295 197 289 211 Q 285 225 299 231 Q 299 231 299 231 Q 307 234 320 237 L 320 248 Q 321 263 336 264 Q 351 263 352 248 L 352 239 Q 359 238 366 234 Q 380 225 383 208 Q 385 197 381 187 Q 376 177 369 172 Q 358 165 345 163 Q 345 163 345 163 Q 344 163 344 163 Q 332 160 322 154 Q 318 150 322 147 Q 323 145 329 144 Q 342 144 356 148 Q 370 150 375 136 Q 378 122 364 117 Q 359 115 352 114 L 352 104 L 352 104 Z"/>
</svg>
