<svg xmlns="http://www.w3.org/2000/svg" viewBox="0 0 448 291">
    <path d="M 134 0 L 32 0 Q 23 0 18 9 Q 14 17 19 25 L 26 36 L 6 51 Q 0 56 0 64 Q 0 72 6 77 L 26 92 L 19 103 Q 14 111 18 119 Q 23 128 32 128 L 105 128 Q 122 130 121 147 L 96 269 Q 95 279 103 285 Q 111 290 120 286 L 160 263 Q 168 259 176 263 L 216 286 Q 224 290 232 286 L 272 263 Q 280 259 288 263 L 328 286 Q 337 291 345 285 Q 353 279 352 269 L 327 147 Q 326 130 343 128 L 416 128 Q 425 128 430 120 Q 434 111 429 103 L 422 92 L 442 77 Q 448 72 448 64 Q 448 56 442 51 L 422 36 L 429 25 Q 434 17 430 9 Q 425 0 416 0 L 315 0 Q 304 28 280 46 Q 256 63 224 64 Q 192 63 168 46 Q 144 28 134 0 L 134 0 Z"/>
</svg>
