<svg xmlns="http://www.w3.org/2000/svg" viewBox="0 0 256 256">
    <path d="M 192 224 Q 192 238 201 247 L 201 247 Q 210 256 224 256 Q 238 256 247 247 Q 256 238 256 224 L 256 32 Q 256 18 247 9 Q 238 0 224 0 Q 210 0 201 9 Q 192 18 192 32 L 192 224 L 192 224 Z M 0 160 Q 0 174 9 183 L 9 183 Q 18 192 32 192 Q 46 192 55 183 Q 64 174 64 160 L 64 32 Q 64 18 55 9 Q 46 0 32 0 Q 18 0 9 9 Q 0 18 0 32 L 0 160 L 0 160 Z M 128 128 Q 142 128 151 119 L 151 119 Q 160 110 160 96 L 160 32 Q 160 18 151 9 Q 142 0 128 0 Q 114 0 105 9 Q 96 18 96 32 L 96 96 Q 96 110 105 119 Q 114 128 128 128 L 128 128 Z"/>
</svg>
