<svg xmlns="http://www.w3.org/2000/svg" viewBox="0 0 529 524">
    <path d="M 427 117 Q 394 108 357 86 L 357 86 Q 319 65 295 40 Q 257 2 206 1 Q 154 0 114 37 Q 79 72 76 118 Q 72 156 62 198 Q 51 240 32 273 Q 0 333 16 394 Q 33 456 91 492 Q 151 524 212 508 Q 274 491 310 433 Q 325 408 354 390 Q 384 372 413 368 Q 444 364 471 344 Q 514 310 522 260 Q 529 209 498 165 Q 469 128 427 117 L 427 117 Z M 235 129 Q 265 129 291 144 L 291 144 Q 317 159 332 185 Q 347 211 347 241 Q 347 271 332 297 Q 317 323 291 338 Q 265 353 235 353 Q 205 353 179 338 Q 153 323 138 297 Q 123 271 123 241 Q 123 211 138 185 Q 153 159 179 144 Q 205 129 235 129 L 235 129 Z"/>
</svg>
