<svg xmlns="http://www.w3.org/2000/svg" viewBox="0 0 320 256">
    <path d="M 256 32 Q 256 18 265 9 L 265 9 Q 274 0 288 0 Q 302 0 311 9 Q 320 18 320 32 Q 320 46 311 55 Q 302 64 288 64 Q 274 64 265 55 Q 256 46 256 32 L 256 32 Z M 32 64 Q 32 50 41 41 L 41 41 Q 50 32 64 32 Q 78 32 87 41 Q 96 50 96 64 Q 96 78 87 87 Q 78 96 64 96 Q 50 96 41 87 Q 32 78 32 64 L 32 64 Z M 128 160 Q 128 146 137 137 L 137 137 Q 146 128 160 128 Q 174 128 183 137 Q 192 146 192 160 Q 192 174 183 183 Q 174 192 160 192 Q 146 192 137 183 Q 128 174 128 160 L 128 160 Z M 256 192 Q 270 192 279 201 L 279 201 Q 288 210 288 224 Q 288 238 279 247 Q 270 256 256 256 Q 242 256 233 247 Q 224 238 224 224 Q 224 210 233 201 Q 242 192 256 192 L 256 192 Z M 32 192 Q 46 192 55 201 L 55 201 Q 64 210 64 224 Q 64 238 55 247 Q 46 256 32 256 Q 18 256 9 247 Q 0 238 0 224 Q 0 210 9 201 Q 18 192 32 192 L 32 192 Z"/>
</svg>
