<svg xmlns="http://www.w3.org/2000/svg" viewBox="0 0 576 384">
    <path d="M 64 0 Q 37 1 19 19 L 19 19 Q 1 37 0 64 L 0 128 L 576 128 L 576 64 Q 575 37 557 19 Q 539 1 512 0 L 64 0 L 64 0 Z M 192 288 Q 192 302 183 311 L 183 311 Q 174 320 160 320 Q 146 320 137 311 Q 128 302 128 288 Q 128 274 137 265 Q 146 256 160 256 Q 174 256 183 265 Q 192 274 192 288 L 192 288 Z M 160 192 Q 134 192 112 205 L 112 205 Q 90 218 77 240 Q 64 263 64 288 Q 64 313 77 336 Q 90 358 112 371 Q 134 384 160 384 Q 186 384 208 371 Q 230 358 243 336 Q 256 313 256 288 Q 256 263 243 240 Q 230 218 208 205 Q 186 192 160 192 L 160 192 Z"/>
</svg>
