<svg xmlns="http://www.w3.org/2000/svg" viewBox="0 0 448 400">
    <path d="M 363 400 Q 402 369 425 323 L 425 323 Q 448 278 448 224 Q 447 161 417 111 Q 388 60 337 31 Q 287 1 224 0 Q 161 1 111 31 Q 60 60 31 111 Q 1 161 0 224 Q 0 278 23 323 Q 46 369 85 400 L 363 400 L 363 400 Z M 153 84 Q 155 79 160 79 L 160 79 Q 165 79 168 84 L 177 111 L 204 121 Q 209 123 209 128 Q 209 133 204 136 L 177 145 L 168 172 Q 165 177 160 177 Q 155 177 153 172 L 143 145 L 116 136 Q 111 133 111 128 Q 111 123 116 121 L 143 111 L 153 84 L 153 84 Z M 312 132 L 330 182 L 380 201 Q 385 203 385 208 Q 385 213 380 216 L 330 234 L 312 284 Q 309 289 304 289 Q 299 289 297 284 L 278 234 L 228 215 Q 223 213 223 208 Q 223 203 228 200 L 278 182 L 297 132 Q 299 127 304 127 Q 309 127 312 132 L 312 132 Z"/>
</svg>
