<svg xmlns="http://www.w3.org/2000/svg" viewBox="0 0 384 512">
    <path d="M 0 32 Q 0 46 9 55 L 9 55 Q 18 64 32 64 L 352 64 Q 366 64 375 55 Q 384 46 384 32 Q 384 18 375 9 Q 366 0 352 0 L 32 0 Q 18 0 9 9 Q 0 18 0 32 L 0 32 Z M 0 480 Q 0 494 9 503 L 9 503 Q 18 512 32 512 L 352 512 Q 366 512 375 503 Q 384 494 384 480 Q 384 466 375 457 Q 366 448 352 448 L 288 448 L 288 437 Q 288 408 272 384 L 112 384 Q 96 408 96 437 L 96 448 L 32 448 Q 18 448 9 457 Q 0 466 0 480 L 0 480 Z M 260 143 Q 267 136 272 128 L 112 128 Q 117 136 124 143 L 192 211 L 260 143 L 260 143 Z"/>
</svg>
