<svg xmlns="http://www.w3.org/2000/svg" viewBox="0 0 448 448">
    <path d="M 64 0 Q 37 1 19 19 L 19 19 Q 1 37 0 64 L 0 384 Q 1 411 19 429 Q 37 447 64 448 L 320 448 L 320 384 L 112 384 Q 92 383 78 370 Q 65 356 64 336 L 64 112 Q 65 92 78 78 Q 92 65 112 64 L 144 64 Q 159 65 160 80 Q 159 95 144 96 L 112 96 Q 97 97 96 112 L 96 336 Q 97 351 112 352 L 320 352 L 320 320 Q 322 283 352 265 L 352 240 L 352 112 Q 351 97 336 96 L 256 96 Q 241 97 240 112 L 240 179 Q 270 191 272 224 Q 271 244 258 258 Q 244 271 224 272 Q 204 271 190 258 Q 177 244 176 224 Q 178 191 208 179 L 208 112 Q 209 92 222 78 Q 236 65 256 64 L 336 64 Q 356 65 370 78 Q 383 92 384 112 L 384 162 Q 410 135 448 129 L 448 64 Q 447 37 429 19 Q 411 1 384 0 L 64 0 L 64 0 Z"/>
</svg>
