<svg xmlns="http://www.w3.org/2000/svg" viewBox="0 0 492 512">
    <path d="M 351 494 Q 307 512 256 512 Q 184 511 127 477 Q 69 443 35 385 Q 1 328 0 256 Q 1 184 35 127 Q 69 69 127 35 Q 184 1 256 0 Q 336 1 399 43 Q 461 86 492 156 Q 483 148 475 140 Q 461 128 444 128 Q 426 128 412 140 Q 398 153 384 167 L 384 160 Q 384 146 375 137 Q 366 128 352 128 Q 338 128 329 137 Q 320 146 320 160 L 320 192 Q 321 213 339 221 Q 332 232 325 243 Q 309 268 299 296 Q 288 323 288 350 Q 288 393 305 430 Q 322 467 351 494 L 351 494 Z M 160 128 Q 146 128 137 137 L 137 137 Q 128 146 128 160 L 128 192 Q 128 206 137 215 Q 146 224 160 224 Q 174 224 183 215 Q 192 206 192 192 L 192 160 Q 192 146 183 137 Q 174 128 160 128 L 160 128 Z M 256 128 Q 242 128 233 137 L 233 137 Q 224 146 224 160 L 224 192 Q 224 206 233 215 Q 242 224 256 224 Q 270 224 279 215 Q 288 206 288 192 L 288 160 Q 288 146 279 137 Q 270 128 256 128 L 256 128 Z"/>
</svg>
