<svg xmlns="http://www.w3.org/2000/svg" viewBox="0 0 320 416">
    <path d="M 320 160 L 160 0 L 160 128 Q 160 142 169 151 Q 178 160 192 160 L 320 160 L 320 160 Z M 32 48 Q 33 63 48 64 L 80 64 Q 95 63 96 48 Q 95 33 80 32 L 48 32 Q 33 33 32 48 L 32 48 Z M 32 112 Q 33 127 48 128 L 80 128 Q 95 127 96 112 Q 95 97 80 96 L 48 96 Q 33 97 32 112 L 32 112 Z M 32 176 Q 33 191 48 192 L 80 192 Q 95 191 96 176 Q 95 161 80 160 L 48 160 Q 33 161 32 176 L 32 176 Z M 26 248 L 2 336 Q 0 344 0 352 Q 1 379 19 397 Q 37 415 64 416 Q 91 415 109 397 Q 127 379 128 352 Q 128 344 126 336 L 102 248 Q 95 225 72 224 L 57 224 Q 33 225 26 248 L 26 248 Z M 48 336 L 80 336 Q 95 337 96 352 Q 95 367 80 368 L 48 368 Q 33 367 32 352 Q 33 337 48 336 L 48 336 Z"/>
</svg>
