<svg xmlns="http://www.w3.org/2000/svg" viewBox="0 0 384 416">
    <path d="M 384 352 L 384 0 L 0 0 L 0 352 Q 1 379 19 397 Q 37 415 64 416 L 320 416 Q 347 415 365 397 Q 383 379 384 352 L 384 352 Z M 64 288 Q 91 289 109 307 L 109 307 Q 127 325 128 352 L 64 352 L 64 288 L 64 288 Z M 256 352 Q 257 325 275 307 L 275 307 Q 293 289 320 288 L 320 352 L 256 352 L 256 352 Z M 96 176 Q 97 142 124 119 L 124 119 Q 151 97 192 96 Q 233 97 260 119 Q 287 142 288 176 Q 287 210 260 233 Q 233 255 192 256 Q 151 255 124 233 Q 97 210 96 176 L 96 176 Z"/>
</svg>
