<svg xmlns="http://www.w3.org/2000/svg" viewBox="0 0 288 288">
    <path d="M 0 144 Q 0 105 19 72 L 19 72 Q 38 39 72 19 Q 106 0 144 0 Q 182 0 216 19 Q 250 39 269 72 Q 288 105 288 144 Q 288 183 269 216 Q 250 249 216 269 Q 182 288 144 288 Q 106 288 72 269 Q 38 249 19 216 Q 0 183 0 144 L 0 144 Z M 203 85 Q 192 75 181 85 L 144 121 L 107 85 Q 96 75 85 85 Q 75 96 85 107 L 121 144 L 85 181 Q 75 192 85 203 Q 96 213 107 203 L 144 167 L 181 203 Q 192 213 203 203 Q 213 192 203 181 L 167 144 L 203 107 Q 213 96 203 85 L 203 85 Z"/>
</svg>
