<svg xmlns="http://www.w3.org/2000/svg" viewBox="0 0 544 512">
    <path d="M 279 9 Q 269 0 256 0 L 256 0 Q 243 0 233 9 Q 224 19 224 32 Q 224 45 233 55 L 256 77 L 256 128 Q 256 142 265 151 Q 274 160 288 160 L 339 160 L 384 205 L 384 256 Q 384 270 393 279 Q 402 288 416 288 L 467 288 L 489 311 Q 499 320 512 320 Q 525 320 535 311 Q 544 301 544 288 Q 544 275 535 265 L 503 233 L 439 169 L 375 105 L 311 41 L 279 9 L 279 9 Z M 55 233 Q 45 224 32 224 L 32 224 Q 19 224 9 233 Q 0 243 0 256 Q 0 269 9 279 L 64 333 L 64 416 Q 64 430 73 439 Q 82 448 96 448 L 179 448 L 233 503 Q 243 512 256 512 Q 269 512 279 503 Q 288 493 288 480 Q 288 467 279 457 L 215 393 L 119 297 L 55 233 L 55 233 Z"/>
</svg>
