<svg xmlns="http://www.w3.org/2000/svg" viewBox="0 0 336 512">
    <path d="M 224 160 L 64 0 L 64 128 Q 64 142 73 151 Q 82 160 96 160 L 224 160 L 224 160 Z M 16 352 Q 1 353 0 368 L 0 448 L 0 496 Q 1 511 16 512 Q 31 511 32 496 L 32 464 L 48 464 Q 72 463 88 448 Q 103 432 104 408 Q 103 384 88 368 Q 72 353 48 352 L 16 352 L 16 352 Z M 48 432 L 32 432 L 32 384 L 48 384 Q 70 386 72 408 Q 70 430 48 432 L 48 432 Z M 144 352 Q 129 353 128 368 L 128 496 Q 129 511 144 512 L 176 512 Q 196 511 210 498 Q 223 484 224 464 L 224 400 Q 223 380 210 366 Q 196 353 176 352 L 144 352 L 144 352 Z M 176 480 L 160 480 L 160 384 L 176 384 Q 191 385 192 400 L 192 464 Q 191 479 176 480 L 176 480 Z M 256 368 L 256 432 L 256 496 Q 257 511 272 512 Q 287 511 288 496 L 288 448 L 320 448 Q 335 447 336 432 Q 335 417 320 416 L 288 416 L 288 384 L 320 384 Q 335 383 336 368 Q 335 353 320 352 L 272 352 Q 257 353 256 368 L 256 368 Z"/>
</svg>
