<svg xmlns="http://www.w3.org/2000/svg" viewBox="0 0 256 256">
    <path d="M 96 32 Q 96 18 105 9 L 105 9 Q 114 0 128 0 Q 142 0 151 9 Q 160 18 160 32 L 160 224 Q 160 238 151 247 Q 142 256 128 256 Q 114 256 105 247 Q 96 238 96 224 L 96 32 L 96 32 Z M 0 128 Q 0 114 9 105 L 9 105 Q 18 96 32 96 Q 46 96 55 105 Q 64 114 64 128 L 64 224 Q 64 238 55 247 Q 46 256 32 256 Q 18 256 9 247 Q 0 238 0 224 L 0 128 L 0 128 Z M 224 160 Q 238 160 247 169 L 247 169 Q 256 178 256 192 L 256 224 Q 256 238 247 247 Q 238 256 224 256 Q 210 256 201 247 Q 192 238 192 224 L 192 192 Q 192 178 201 169 Q 210 160 224 160 L 224 160 Z"/>
</svg>
