<svg xmlns="http://www.w3.org/2000/svg" viewBox="0 0 428 428">
    <path d="M 300 14 Q 317 0 334 14 L 414 94 Q 428 111 414 128 L 383 159 Q 359 182 326 183 Q 305 183 288 174 L 205 257 L 171 223 L 254 140 Q 245 123 245 102 Q 245 69 269 45 L 300 14 L 300 14 Z M 317 65 L 303 79 Q 293 89 293 102 Q 293 116 303 125 Q 312 135 326 135 Q 339 135 349 126 L 363 111 L 317 65 L 317 65 Z M 112 274 L 32 354 Q 21 364 10 354 Q 0 343 10 332 L 90 252 Q 101 242 112 252 Q 122 263 112 274 L 112 274 Z M 176 338 L 96 418 Q 85 428 74 418 Q 64 407 74 396 L 154 316 Q 165 306 176 316 Q 186 327 176 338 L 176 338 Z"/>
</svg>
