<svg xmlns="http://www.w3.org/2000/svg" viewBox="0 0 638 272">
    <path d="M 523 256 L 235 256 L 189 14 Q 187 6 184 0 L 595 0 Q 615 1 627 16 Q 638 31 634 50 L 593 203 Q 586 227 567 241 Q 548 256 523 256 L 523 256 Z M 24 64 L 104 64 Q 126 66 128 88 Q 126 110 104 112 L 24 112 Q 2 110 0 88 Q 2 66 24 64 L 24 64 Z M 24 144 L 120 144 Q 142 146 144 168 Q 142 190 120 192 L 24 192 Q 2 190 0 168 Q 2 146 24 144 L 24 144 Z M 24 224 L 136 224 Q 158 226 160 248 Q 158 270 136 272 L 24 272 Q 2 270 0 248 Q 2 226 24 224 L 24 224 Z"/>
</svg>
