<svg xmlns="http://www.w3.org/2000/svg" viewBox="0 0 512 384">
    <path d="M 160 64 L 494 64 Q 510 62 512 46 Q 512 40 508 35 L 490 12 Q 480 0 465 0 L 160 0 L 160 64 L 160 64 Z M 128 0 L 47 0 Q 32 0 22 12 L 4 35 Q 0 40 0 46 Q 2 62 18 64 L 128 64 L 128 0 L 128 0 Z M 99 160 L 47 160 Q 32 160 22 172 L 4 195 Q 0 200 0 206 Q 2 222 18 224 L 144 224 L 494 224 Q 510 222 512 206 Q 512 200 508 195 L 490 172 Q 480 160 465 160 L 189 160 Q 192 168 192 176 Q 191 196 178 210 Q 164 223 144 224 Q 124 223 110 210 Q 97 196 96 176 Q 96 168 99 160 L 99 160 Z M 494 384 Q 510 382 512 366 Q 512 360 508 355 L 490 332 Q 480 320 465 320 L 47 320 Q 32 320 22 332 L 4 355 Q 0 360 0 366 Q 2 382 18 384 L 494 384 L 494 384 Z"/>
</svg>
