<svg xmlns="http://www.w3.org/2000/svg" viewBox="0 0 448 448">
    <path d="M 173 0 Q 147 1 130 18 L 130 18 Q 113 35 112 61 L 112 66 Q 112 84 121 100 L 153 153 L 100 122 Q 84 112 66 112 L 61 112 Q 35 113 18 130 Q 1 147 0 173 Q 0 198 18 217 L 25 224 L 18 231 Q 0 250 0 275 Q 1 301 18 318 Q 35 335 61 336 L 66 336 Q 84 336 100 327 L 153 295 L 121 348 Q 112 364 112 382 L 112 387 Q 113 413 130 430 Q 147 447 173 448 Q 199 448 217 430 L 224 423 L 231 430 Q 250 448 275 448 Q 301 447 318 430 Q 335 413 336 387 L 336 382 Q 336 364 327 348 L 295 295 L 348 327 Q 364 336 382 336 L 387 336 Q 413 335 430 318 Q 448 301 448 275 Q 448 250 430 231 L 423 224 L 430 217 Q 448 198 448 173 Q 448 147 430 130 Q 413 113 387 112 L 382 112 Q 364 112 348 121 L 295 153 L 327 100 Q 336 84 336 66 L 336 61 Q 335 35 318 18 Q 301 1 275 0 Q 250 0 231 18 L 224 25 L 217 18 Q 198 0 173 0 L 173 0 Z"/>
</svg>
