<svg xmlns="http://www.w3.org/2000/svg" viewBox="0 0 448 512">
    <path d="M 247 407 L 151 503 Q 141 512 128 512 Q 115 512 105 503 L 9 407 Q 0 397 0 384 Q 0 371 9 361 Q 19 352 32 352 Q 45 352 55 361 L 96 403 L 96 288 L 32 288 Q 18 288 9 279 Q 0 270 0 256 Q 0 242 9 233 Q 18 224 32 224 L 96 224 L 160 224 L 288 224 L 288 109 L 247 151 Q 237 160 224 160 Q 211 160 201 151 Q 192 141 192 128 Q 192 115 201 105 L 297 9 Q 307 0 320 0 Q 333 0 343 9 L 439 105 Q 448 115 448 128 Q 448 141 439 151 Q 429 160 416 160 Q 403 160 393 151 L 352 109 L 352 224 L 427 224 Q 416 246 416 272 L 416 288 L 160 288 L 160 403 L 201 361 Q 211 352 224 352 Q 237 352 247 361 Q 256 371 256 384 Q 256 397 247 407 L 247 407 Z M 160 64 L 160 192 L 96 192 L 96 64 Q 96 50 105 41 Q 114 32 128 32 Q 142 32 151 41 Q 160 50 160 64 L 160 64 Z M 288 448 L 288 320 L 352 320 L 352 448 Q 352 462 343 471 Q 334 480 320 480 Q 306 480 297 471 Q 288 462 288 448 L 288 448 Z"/>
</svg>
