<svg xmlns="http://www.w3.org/2000/svg" viewBox="0 0 288 288">
    <path d="M 144 288 Q 183 288 216 269 L 216 269 Q 249 250 269 216 Q 288 182 288 144 Q 288 106 269 72 Q 249 38 216 19 Q 183 0 144 0 Q 105 0 72 19 Q 39 38 19 72 Q 0 106 0 144 Q 0 182 19 216 Q 39 250 72 269 Q 105 288 144 288 L 144 288 Z M 169 119 Q 155 103 134 108 Q 114 114 108 134 Q 103 155 119 169 Q 133 185 154 180 Q 174 174 180 154 Q 185 133 169 119 L 169 119 Z M 109 202 L 91 219 Q 80 229 69 219 Q 60 208 69 197 L 86 179 Q 66 144 86 109 L 69 91 Q 59 80 69 69 Q 80 59 91 69 L 109 86 Q 144 66 179 86 L 197 69 Q 208 59 219 69 Q 229 80 219 91 L 202 109 Q 222 144 202 179 L 219 197 Q 229 208 219 219 Q 208 229 197 219 L 179 202 Q 144 222 109 202 L 109 202 Z"/>
</svg>
