<svg xmlns="http://www.w3.org/2000/svg" viewBox="0 0 352 512">
    <path d="M 257 412 L 214 378 Q 196 384 176 384 Q 122 383 85 347 Q 49 310 48 256 L 48 247 L 1 210 Q 0 213 0 216 L 0 256 Q 1 324 44 372 Q 86 420 152 430 L 152 464 L 104 464 Q 82 466 80 488 Q 82 510 104 512 L 176 512 L 248 512 Q 270 510 272 488 Q 270 466 248 464 L 200 464 L 200 430 Q 231 426 257 412 L 257 412 Z M 328 345 Q 351 305 352 256 L 352 216 Q 350 194 328 192 Q 306 194 304 216 L 304 256 Q 304 288 290 315 L 328 345 L 328 345 Z M 264 295 Q 272 277 272 256 L 272 96 Q 271 55 244 28 Q 217 1 176 0 Q 135 1 108 28 Q 81 55 80 96 L 80 150 L 264 295 L 264 295 Z"/>
</svg>
