<svg xmlns="http://www.w3.org/2000/svg" viewBox="0 0 320 448">
    <path d="M 64 0 Q 37 1 19 19 L 19 19 Q 1 37 0 64 L 0 384 Q 1 411 19 429 Q 37 447 64 448 L 256 448 Q 283 447 301 429 Q 319 411 320 384 L 320 64 Q 319 37 301 19 Q 283 1 256 0 L 64 0 L 64 0 Z M 176 160 L 122 160 Q 97 159 81 143 Q 65 127 64 102 Q 64 97 70 96 L 112 96 Q 142 97 160 118 Q 178 97 208 96 L 250 96 Q 255 97 256 102 Q 255 127 239 143 Q 223 159 198 160 L 176 160 L 176 160 Z M 250 192 Q 255 193 256 198 Q 255 223 239 239 Q 223 255 198 256 L 176 256 L 144 256 L 122 256 Q 97 255 81 239 Q 65 223 64 198 Q 64 192 70 192 L 112 192 Q 142 193 160 214 Q 178 193 208 192 L 250 192 L 250 192 Z M 250 288 Q 255 289 256 294 Q 255 319 239 335 Q 223 351 198 352 L 176 352 L 176 384 Q 175 399 160 400 Q 145 399 144 384 L 144 352 L 122 352 Q 97 351 81 335 Q 65 319 64 294 Q 64 288 70 288 L 112 288 Q 142 289 160 310 Q 178 289 208 288 L 250 288 L 250 288 Z"/>
</svg>
