<svg xmlns="http://www.w3.org/2000/svg" viewBox="0 0 352 352">
    <path d="M 0 24 Q 2 2 24 0 Q 46 2 48 24 Q 46 46 24 48 Q 2 46 0 24 L 0 24 Z M 304 24 Q 306 2 328 0 Q 350 2 352 24 Q 350 46 328 48 Q 306 46 304 24 L 304 24 Z M 24 304 Q 46 306 48 328 Q 46 350 24 352 Q 2 350 0 328 Q 2 306 24 304 L 24 304 Z M 304 328 Q 306 306 328 304 Q 350 306 352 328 Q 350 350 328 352 Q 306 350 304 328 L 304 328 Z M 90 93 Q 96 76 110 66 L 110 66 Q 124 56 143 56 L 201 56 Q 228 57 246 75 Q 263 92 264 119 Q 263 155 232 174 L 200 192 Q 198 214 176 216 Q 154 214 152 192 L 152 179 Q 152 165 164 158 L 208 132 Q 216 128 216 119 Q 215 105 201 104 L 143 104 Q 137 104 135 109 L 135 111 Q 125 131 104 125 Q 84 116 90 95 L 90 93 L 90 93 Z M 144 280 Q 144 266 153 257 L 153 257 Q 162 248 176 248 Q 190 248 199 257 Q 208 266 208 280 Q 208 294 199 303 Q 190 312 176 312 Q 162 312 153 303 Q 144 294 144 280 L 144 280 Z"/>
</svg>
