<svg xmlns="http://www.w3.org/2000/svg" viewBox="0 0 640 416">
    <path d="M 536 48 Q 522 48 513 57 L 513 57 Q 504 66 504 80 L 504 176 L 504 184 L 504 352 L 608 352 Q 622 352 631 361 Q 640 370 640 384 Q 640 398 631 407 Q 622 416 608 416 L 32 416 Q 18 416 9 407 Q 0 398 0 384 Q 0 370 9 361 Q 18 352 32 352 L 456 352 L 456 184 L 456 176 Q 456 162 447 153 Q 438 144 424 144 Q 410 144 401 153 Q 392 162 392 176 L 392 197 Q 415 209 416 242 Q 416 255 405 273 Q 395 291 379 309 Q 368 318 357 309 Q 341 291 331 273 Q 320 255 320 242 Q 321 209 344 197 L 344 176 Q 345 142 367 119 Q 390 97 424 96 Q 441 96 456 103 L 456 80 Q 457 46 479 23 Q 502 1 536 0 Q 570 1 593 23 Q 615 46 616 80 L 616 133 Q 639 145 640 178 Q 640 191 629 209 Q 619 227 603 245 Q 592 254 581 245 Q 565 227 555 209 Q 544 191 544 178 Q 545 145 568 133 L 568 80 Q 568 66 559 57 Q 550 48 536 48 L 536 48 Z"/>
</svg>
