<svg xmlns="http://www.w3.org/2000/svg" viewBox="0 0 272 376">
    <path d="M 98 77 L 98 77 L 98 77 Q 101 81 107 80 Q 112 78 112 72 Q 111 44 95 23 Q 80 2 56 0 Q 32 2 17 23 Q 1 44 0 72 Q 0 78 6 80 Q 11 81 14 77 L 14 77 L 14 77 L 14 77 L 15 77 Q 15 76 15 76 Q 15 76 15 76 Q 16 74 18 72 Q 22 68 28 62 Q 42 49 56 48 Q 70 49 84 62 Q 90 68 94 72 Q 96 74 97 76 Q 97 76 97 76 Q 97 76 97 77 L 98 77 L 98 77 L 98 77 L 98 77 Z M 179 163 Q 189 152 179 141 Q 168 131 157 141 L 78 220 Q 74 223 69 221 Q 64 220 64 214 L 64 194 Q 62 176 44 174 Q 26 176 24 194 L 24 248 L 24 281 Q 25 321 52 348 Q 79 375 119 376 Q 158 375 187 348 L 243 291 Q 253 280 243 269 Q 232 259 221 269 L 201 288 Q 197 292 192 288 Q 188 283 192 279 L 243 227 Q 253 216 243 205 Q 232 195 221 205 L 169 256 Q 165 260 160 256 Q 156 251 160 247 L 227 179 Q 237 168 227 157 Q 216 147 205 157 L 137 224 Q 133 228 128 224 Q 124 219 128 215 L 179 163 L 179 163 Z M 258 77 L 258 77 L 258 77 L 258 77 Q 261 81 266 80 Q 272 78 272 72 Q 271 44 255 23 Q 240 2 216 0 Q 192 2 177 23 Q 161 44 160 72 Q 160 78 166 80 Q 171 81 174 77 L 174 77 L 174 77 L 174 77 L 175 77 Q 175 76 175 76 Q 175 76 175 76 Q 176 74 178 72 Q 182 68 188 62 Q 202 49 216 48 Q 230 49 244 62 Q 250 68 254 72 Q 256 74 257 76 Q 257 76 257 76 Q 257 76 257 77 L 258 77 L 258 77 L 258 77 Z"/>
</svg>
