<svg xmlns="http://www.w3.org/2000/svg" viewBox="0 0 324 384">
    <path d="M 90 256 L 72 256 Q 64 256 59 249 Q 55 243 57 235 L 95 120 L 61 177 Q 54 188 42 191 Q 29 194 18 187 Q 6 180 3 168 Q 0 155 7 144 L 60 54 Q 76 29 101 15 Q 126 0 156 0 L 168 0 Q 198 0 223 15 Q 248 29 264 54 L 317 144 Q 324 155 321 168 Q 318 180 307 187 Q 295 194 282 191 Q 270 188 263 177 L 229 120 L 267 235 Q 269 243 265 249 Q 260 256 252 256 L 234 256 L 234 352 Q 234 366 225 375 Q 216 384 202 384 Q 188 384 179 375 Q 170 366 170 352 L 170 256 L 154 256 L 154 352 Q 154 366 145 375 Q 136 384 122 384 Q 108 384 99 375 Q 90 366 90 352 L 90 256 L 90 256 Z"/>
</svg>
