<svg xmlns="http://www.w3.org/2000/svg" viewBox="0 0 640 512">
    <path d="M 487 9 L 503 25 Q 512 35 512 48 Q 512 61 503 71 L 469 104 L 408 43 L 441 9 Q 451 0 464 0 Q 477 0 487 9 L 487 9 Z M 267 184 L 328 245 L 71 503 Q 61 512 48 512 Q 35 512 25 503 L 9 487 Q 0 477 0 464 Q 0 451 9 441 L 267 184 L 267 184 Z M 576 160 L 608 160 Q 622 160 631 169 Q 640 178 640 192 Q 639 255 609 305 Q 580 356 529 385 Q 479 415 416 416 Q 402 416 393 407 Q 384 398 384 384 L 384 352 L 416 352 Q 433 352 448 349 Q 496 339 529 305 Q 563 272 573 224 Q 576 209 576 192 L 576 160 L 576 160 Z"/>
</svg>
