<svg xmlns="http://www.w3.org/2000/svg" viewBox="0 0 256 396">
    <path d="M 128 0 Q 87 1 60 28 L 60 28 Q 33 55 32 96 L 32 160 Q 33 198 56 224 Q 80 250 116 255 L 116 224 Q 117 213 128 212 Q 139 213 140 224 L 140 255 Q 176 250 200 224 Q 223 198 224 160 L 224 96 Q 223 55 196 28 Q 169 1 128 0 L 128 0 Z M 96 112 Q 111 113 112 128 Q 111 143 96 144 Q 81 143 80 128 Q 81 113 96 112 L 96 112 Z M 144 128 Q 145 113 160 112 Q 175 113 176 128 Q 175 143 160 144 Q 145 143 144 128 L 144 128 Z M 137 168 Q 140 171 147 176 Q 155 180 160 180 Q 171 181 172 192 Q 171 203 160 204 Q 145 203 135 196 Q 131 194 128 192 Q 108 205 96 204 Q 85 203 84 192 Q 85 181 96 180 Q 101 182 120 168 Q 128 160 137 168 L 137 168 Z M 0 336 L 0 373 Q 1 385 10 391 Q 20 396 30 391 Q 69 370 112 368 L 112 288 L 48 288 Q 28 289 14 302 Q 1 316 0 336 L 0 336 Z M 226 391 Q 236 396 246 391 L 246 391 Q 255 385 256 373 L 256 336 Q 255 316 242 302 Q 228 289 208 288 L 144 288 L 144 368 Q 188 370 226 391 L 226 391 Z"/>
</svg>
