<svg xmlns="http://www.w3.org/2000/svg" viewBox="0 0 464 464">
    <path d="M 368 16 L 368 48 L 400 48 Q 415 49 416 64 Q 415 79 400 80 L 368 80 L 368 112 Q 367 127 352 128 Q 337 127 336 112 L 336 80 L 304 80 Q 289 79 288 64 Q 289 49 304 48 L 336 48 L 336 16 Q 337 1 352 0 Q 367 1 368 16 L 368 16 Z M 16 48 L 112 48 Q 127 49 128 64 Q 127 79 112 80 L 16 80 Q 1 79 0 64 Q 1 49 16 48 L 16 48 Z M 35 301 L 64 329 L 93 301 Q 104 291 115 301 Q 125 312 115 323 L 87 352 L 115 381 Q 125 392 115 403 Q 104 413 93 403 L 64 375 L 35 403 Q 24 413 13 403 Q 3 392 13 381 L 41 352 L 13 323 Q 3 312 13 301 Q 24 291 35 301 L 35 301 Z M 240 288 Q 241 268 254 254 L 254 254 Q 268 241 288 240 L 416 240 Q 436 241 450 254 Q 463 268 464 288 L 464 416 Q 463 436 450 450 Q 436 463 416 464 L 288 464 Q 268 463 254 450 Q 241 436 240 416 L 240 288 L 240 288 Z M 288 320 Q 289 335 304 336 L 400 336 Q 415 335 416 320 Q 415 305 400 304 L 304 304 Q 289 305 288 320 L 288 320 Z M 288 384 Q 289 399 304 400 L 400 400 Q 415 399 416 384 Q 415 369 400 368 L 304 368 Q 289 369 288 384 L 288 384 Z"/>
</svg>
