<svg xmlns="http://www.w3.org/2000/svg" viewBox="0 0 432 160">
    <path d="M 24 0 Q 46 2 48 24 L 48 72 Q 46 94 24 96 Q 2 94 0 72 L 0 24 Q 2 2 24 0 L 24 0 Z M 120 64 Q 142 66 144 88 L 144 136 Q 142 158 120 160 Q 98 158 96 136 L 96 88 Q 98 66 120 64 L 120 64 Z M 336 88 L 336 136 Q 334 158 312 160 Q 290 158 288 136 L 288 88 Q 290 66 312 64 Q 334 66 336 88 L 336 88 Z M 216 0 Q 238 2 240 24 L 240 72 Q 238 94 216 96 Q 194 94 192 72 L 192 24 Q 194 2 216 0 L 216 0 Z M 432 24 L 432 72 Q 430 94 408 96 Q 386 94 384 72 L 384 24 Q 386 2 408 0 Q 430 2 432 24 L 432 24 Z"/>
</svg>
