<svg xmlns="http://www.w3.org/2000/svg" viewBox="0 0 472 352">
    <path d="M 6 73 Q 9 42 31 21 L 31 21 Q 54 1 86 0 L 130 0 Q 162 1 185 21 Q 207 42 210 73 L 214 123 Q 216 145 204 163 Q 192 181 172 188 L 172 304 Q 171 324 158 338 Q 144 351 124 352 L 92 352 Q 72 351 58 338 Q 45 324 44 304 L 44 188 Q 24 181 12 163 Q 0 145 2 123 L 6 73 L 6 73 Z M 262 73 Q 265 42 287 21 L 287 21 Q 310 1 342 0 L 386 0 Q 418 1 441 21 Q 463 42 466 73 L 470 123 Q 472 145 460 163 Q 448 181 428 188 L 428 304 Q 427 324 414 338 Q 400 351 380 352 L 348 352 Q 328 351 314 338 Q 301 324 300 304 L 300 188 Q 280 181 268 163 Q 256 145 258 123 L 262 73 L 262 73 Z"/>
</svg>
