<svg xmlns="http://www.w3.org/2000/svg" viewBox="0 0 448 376">
    <path d="M 64 32 Q 64 18 55 9 L 55 9 Q 46 0 32 0 Q 18 0 9 9 Q 0 18 0 32 Q 0 46 9 55 Q 18 64 32 64 Q 46 64 55 55 Q 64 46 64 32 L 64 32 Z M 124 56 Q 120 64 124 72 L 151 120 Q 156 128 165 128 L 219 128 Q 228 128 232 120 L 259 72 Q 264 64 259 56 L 232 8 Q 228 0 219 0 L 165 0 Q 156 0 152 8 L 125 56 L 124 56 Z M 376 372 Q 384 376 392 372 L 440 345 Q 448 340 448 331 L 448 277 Q 448 268 440 264 L 392 237 Q 384 232 376 237 L 328 264 Q 320 268 320 277 L 320 331 Q 320 340 328 345 L 376 372 L 376 372 Z M 256 256 Q 270 256 279 247 L 279 247 Q 288 238 288 224 Q 288 210 279 201 Q 270 192 256 192 Q 242 192 233 201 Q 224 210 224 224 Q 224 238 233 247 Q 242 256 256 256 L 256 256 Z"/>
</svg>
