<svg xmlns="http://www.w3.org/2000/svg" viewBox="0 0 386 514">
    <path d="M 169 4 Q 176 0 184 4 L 216 20 Q 225 24 225 34 L 225 272 Q 211 274 193 274 Q 175 274 161 272 L 161 209 L 161 209 L 161 18 Q 161 9 169 4 L 169 4 Z M 129 263 Q 122 260 117 256 Q 100 243 99 232 Q 98 231 98 230 Q 98 230 97 229 L 65 37 Q 64 25 74 20 L 106 4 Q 113 0 120 4 Q 127 8 129 15 L 129 17 L 129 263 L 129 263 Z M 59 195 Q 54 194 49 194 L 22 194 Q 20 194 18 194 L 1 101 Q 0 92 6 86 Q 13 81 21 83 L 41 88 L 59 195 L 59 195 Z M 371 177 Q 351 184 334 194 Q 331 194 328 195 L 347 87 L 365 83 Q 373 81 380 86 Q 386 92 385 101 L 371 177 L 371 177 Z M 257 297 Q 259 323 277 339 Q 258 357 257 386 Q 258 412 274 429 Q 258 443 257 466 Q 258 493 273 514 L 90 514 Q 66 513 59 490 L 2 253 Q 1 250 1 247 Q 3 228 22 226 L 49 226 Q 63 227 68 242 Q 72 261 99 283 Q 126 304 193 306 Q 232 306 257 297 L 257 297 Z M 271 255 Q 271 255 271 255 L 271 255 Q 270 256 269 256 Q 264 260 257 263 L 257 57 L 257 55 Q 259 45 269 43 L 301 35 Q 309 33 316 38 Q 322 44 321 53 L 290 225 Q 289 229 288 232 Q 287 232 287 233 Q 277 245 271 255 L 271 255 Z"/>
</svg>
