<svg xmlns="http://www.w3.org/2000/svg" viewBox="0 0 224 448">
    <path d="M 64 0 Q 37 1 19 19 L 19 19 Q 1 37 0 64 L 0 384 Q 1 411 19 429 Q 37 447 64 448 L 224 448 L 224 0 L 64 0 L 64 0 Z M 88 64 L 136 64 Q 158 66 160 88 Q 158 110 136 112 L 88 112 Q 66 110 64 88 Q 66 66 88 64 L 88 64 Z M 64 184 Q 66 162 88 160 L 136 160 Q 158 162 160 184 Q 158 206 136 208 L 88 208 Q 66 206 64 184 L 64 184 Z M 88 256 L 136 256 Q 158 258 160 280 Q 158 302 136 304 L 88 304 Q 66 302 64 280 Q 66 258 88 256 L 88 256 Z"/>
</svg>
