<svg xmlns="http://www.w3.org/2000/svg" viewBox="0 0 640 416">
    <path d="M 0 48 Q 1 28 14 14 L 14 14 Q 28 1 48 0 L 368 0 Q 388 1 402 14 Q 415 28 416 48 L 416 96 L 467 96 Q 493 96 512 115 L 589 192 Q 608 211 608 237 L 608 256 L 608 288 L 608 352 Q 622 352 631 361 Q 640 370 640 384 Q 640 398 631 407 Q 622 416 608 416 L 576 416 L 575 416 Q 568 374 538 348 Q 507 321 464 320 Q 421 321 390 348 Q 360 374 353 416 L 287 416 Q 280 374 250 348 Q 219 321 176 320 Q 133 321 102 348 Q 72 374 65 416 L 48 416 Q 28 415 14 402 Q 1 388 0 368 L 0 48 L 0 48 Z M 416 256 L 544 256 L 544 237 L 467 160 L 416 160 L 416 256 L 416 256 Z M 176 80 L 176 128 L 128 128 Q 113 129 112 144 L 112 176 Q 113 191 128 192 L 176 192 L 176 240 Q 177 255 192 256 L 224 256 Q 239 255 240 240 L 240 192 L 288 192 Q 303 191 304 176 L 304 144 Q 303 129 288 128 L 240 128 L 240 80 Q 239 65 224 64 L 192 64 Q 177 65 176 80 L 176 80 Z"/>
</svg>
