<svg xmlns="http://www.w3.org/2000/svg" viewBox="0 0 576 512">
    <path d="M 0 64 Q 2 101 32 119 L 32 393 Q 2 411 0 448 Q 1 475 19 493 Q 37 511 64 512 Q 101 510 119 480 L 457 480 Q 475 510 512 512 Q 539 511 557 493 Q 575 475 576 448 Q 574 411 544 393 L 544 119 Q 574 101 576 64 Q 575 37 557 19 Q 539 1 512 0 Q 475 2 457 32 L 119 32 Q 101 2 64 0 Q 37 1 19 19 Q 1 37 0 64 L 0 64 Z M 480 393 Q 465 401 457 416 L 119 416 Q 111 401 96 393 L 96 119 Q 111 111 119 96 L 457 96 Q 465 111 480 119 L 480 393 L 480 393 Z"/>
</svg>
