<svg xmlns="http://www.w3.org/2000/svg" viewBox="0 0 576 262">
    <path d="M 80 47 Q 85 34 80 23 L 80 23 Q 75 11 63 5 Q 50 0 38 5 Q 26 11 21 23 Q 0 73 0 131 Q 0 189 21 239 Q 26 251 38 256 Q 50 261 63 257 Q 75 251 80 240 Q 85 228 80 215 Q 64 176 64 131 Q 64 86 80 47 L 80 47 Z M 555 23 Q 550 11 538 6 L 538 6 Q 526 1 513 5 Q 501 11 496 22 Q 491 34 496 47 Q 512 86 512 131 Q 512 176 496 215 Q 491 228 496 239 Q 501 251 513 257 Q 526 262 538 257 Q 550 251 555 239 Q 576 189 576 131 Q 576 73 555 23 L 555 23 Z M 171 80 Q 176 67 171 55 L 171 55 Q 166 43 154 38 Q 141 33 130 37 Q 118 42 112 54 Q 96 90 96 131 Q 96 172 112 208 Q 118 220 130 225 Q 142 229 154 224 Q 166 219 171 207 Q 176 195 171 182 Q 160 159 160 131 Q 160 103 171 80 L 171 80 Z M 464 54 Q 458 42 446 37 L 446 37 Q 434 33 422 38 Q 410 43 405 55 Q 400 67 405 80 Q 416 103 416 131 Q 416 159 405 182 Q 400 195 405 207 Q 410 219 422 224 Q 435 229 446 225 Q 458 220 464 208 Q 480 172 480 131 Q 480 90 464 54 L 464 54 Z"/>
</svg>
