<svg xmlns="http://www.w3.org/2000/svg" viewBox="0 0 576 240">
    <path d="M 544 176 Q 532 175 527 164 Q 498 91 435 46 Q 371 1 288 0 Q 205 1 142 46 Q 78 91 49 164 Q 44 175 32 176 Q 18 176 9 185 Q 0 194 0 208 Q 0 221 9 230 Q 18 239 31 240 Q 58 238 79 226 Q 90 220 96 216 Q 98 215 99 214 Q 100 213 101 213 Q 101 212 102 212 L 102 212 L 102 212 L 123 212 L 123 212 L 123 212 Q 123 212 123 212 Q 123 213 124 213 Q 124 213 124 213 Q 126 214 128 216 Q 133 220 144 226 Q 165 238 200 240 Q 235 238 256 226 Q 267 220 272 216 Q 275 214 276 213 Q 276 213 276 213 Q 277 213 277 212 Q 277 212 277 212 L 277 212 Q 288 204 299 212 L 299 212 L 299 212 Q 299 212 299 212 Q 299 213 300 213 Q 300 213 300 213 Q 301 214 304 216 Q 309 220 320 226 Q 341 238 376 240 Q 410 238 432 226 Q 442 220 448 216 Q 450 214 452 213 Q 452 213 452 213 Q 452 213 453 212 Q 453 212 453 212 L 453 212 Q 463 204 474 212 L 474 212 L 474 212 L 474 212 L 474 212 L 474 212 L 474 212 L 474 212 Q 474 212 475 213 Q 476 213 476 213 Q 478 214 480 216 Q 486 220 496 226 Q 518 238 545 240 Q 558 239 567 230 Q 575 221 576 208 Q 575 194 566 185 Q 557 176 544 176 L 544 176 Z M 123 212 Q 112 204 102 212 L 102 212 L 123 212 Q 123 212 123 212 Q 123 212 123 212 L 123 212 Z M 199 66 Q 212 74 206 87 L 190 119 Q 183 132 169 126 Q 156 119 162 105 L 178 73 Q 186 60 199 66 L 199 66 Z M 377 66 Q 391 60 398 73 L 414 105 Q 420 119 407 126 Q 394 132 386 119 L 370 87 Q 364 74 377 66 L 377 66 Z M 288 64 Q 303 65 304 80 L 304 112 Q 303 127 288 128 Q 273 127 272 112 L 272 80 Q 273 65 288 64 L 288 64 Z"/>
</svg>
