<svg xmlns="http://www.w3.org/2000/svg" viewBox="0 0 512 512">
    <path d="M 0 256 Q 1 326 34 384 L 34 384 Q 68 442 128 478 Q 189 512 256 512 Q 323 512 384 478 Q 444 442 478 384 Q 511 326 512 256 Q 511 186 478 128 Q 444 70 384 34 Q 323 0 256 0 Q 189 0 128 34 Q 68 70 34 128 Q 1 186 0 256 L 0 256 Z M 288 96 Q 288 110 279 119 L 279 119 Q 270 128 256 128 Q 242 128 233 119 Q 224 110 224 96 Q 224 82 233 73 Q 242 64 256 64 Q 270 64 279 73 Q 288 82 288 96 L 288 96 Z M 256 416 Q 229 415 211 397 L 211 397 Q 193 379 192 352 Q 193 325 211 307 Q 229 289 256 288 Q 278 288 294 300 L 411 228 Q 431 218 444 235 Q 454 255 437 268 L 319 341 Q 320 346 320 352 Q 319 379 301 397 Q 283 415 256 416 L 256 416 Z M 400 144 Q 400 158 391 167 L 391 167 Q 382 176 368 176 Q 354 176 345 167 Q 336 158 336 144 Q 336 130 345 121 Q 354 112 368 112 Q 382 112 391 121 Q 400 130 400 144 L 400 144 Z M 96 224 Q 110 224 119 233 L 119 233 Q 128 242 128 256 Q 128 270 119 279 Q 110 288 96 288 Q 82 288 73 279 Q 64 270 64 256 Q 64 242 73 233 Q 82 224 96 224 L 96 224 Z M 176 144 Q 176 158 167 167 L 167 167 Q 158 176 144 176 Q 130 176 121 167 Q 112 158 112 144 Q 112 130 121 121 Q 130 112 144 112 Q 158 112 167 121 Q 176 130 176 144 L 176 144 Z"/>
</svg>
