<svg xmlns="http://www.w3.org/2000/svg" viewBox="0 0 576 448">
    <path d="M 480 16 Q 479 1 464 0 Q 449 1 448 16 L 448 64 L 432 64 Q 417 65 416 80 L 416 112 Q 416 139 432 160 Q 447 180 472 188 L 472 312 Q 470 334 448 336 Q 426 334 424 312 L 424 280 Q 423 243 398 218 Q 373 193 336 192 L 320 192 L 320 240 L 336 240 Q 353 240 364 252 Q 376 263 376 280 L 376 312 Q 377 343 397 363 Q 417 383 448 384 Q 479 383 499 363 Q 519 343 520 312 L 520 188 Q 545 180 560 160 Q 576 139 576 112 L 576 80 Q 575 65 560 64 L 544 64 L 544 16 Q 543 1 528 0 Q 513 1 512 16 L 512 64 L 480 64 L 480 16 L 480 16 Z M 0 416 Q 0 430 9 439 L 9 439 Q 18 448 32 448 L 320 448 Q 334 448 343 439 Q 352 430 352 416 Q 352 402 343 393 Q 334 384 320 384 L 32 384 Q 18 384 9 393 Q 0 402 0 416 L 0 416 Z"/>
</svg>
