<svg xmlns="http://www.w3.org/2000/svg" viewBox="0 0 240 448">
    <path d="M 48 24 Q 50 2 72 0 L 152 0 Q 174 2 176 24 L 176 64 L 48 64 L 48 24 L 48 24 Z M 16 329 Q 16 328 17 328 L 17 328 Q 17 328 17 328 Q 17 328 17 328 Q 16 328 16 327 L 16 192 Q 16 155 0 123 Q 8 115 18 110 L 32 104 Q 48 96 67 96 L 157 96 Q 176 96 192 104 L 205 110 Q 238 127 240 164 Q 238 200 208 217 Q 238 235 240 272 Q 238 310 207 328 Q 238 346 240 384 Q 239 411 221 429 Q 203 447 176 448 L 48 448 Q 22 447 4 431 Q 16 410 16 384 L 16 329 L 16 329 Z"/>
</svg>
