<svg xmlns="http://www.w3.org/2000/svg" viewBox="0 0 224 480">
    <path d="M 224 176 L 224 160 L 208 160 Q 174 161 151 183 Q 129 206 128 240 L 128 256 L 144 256 Q 178 255 201 233 Q 223 210 224 176 L 224 176 Z M 224 272 L 208 272 Q 174 273 151 295 Q 129 318 128 352 L 128 368 L 144 368 Q 178 367 201 345 Q 223 322 224 288 L 224 272 L 224 272 Z M 224 384 L 208 384 Q 174 385 151 407 Q 129 430 128 464 L 128 480 L 144 480 Q 178 479 201 457 Q 223 434 224 400 L 224 384 L 224 384 Z M 96 480 L 96 464 Q 95 430 73 407 Q 50 385 16 384 L 0 384 L 0 400 Q 1 434 23 457 Q 46 479 80 480 L 96 480 L 96 480 Z M 96 352 Q 95 318 73 295 L 73 295 Q 50 273 16 272 L 0 272 L 0 288 Q 1 322 23 345 Q 46 367 80 368 L 96 368 L 96 352 L 96 352 Z M 96 256 L 96 240 Q 95 206 73 183 Q 50 161 16 160 L 0 160 L 0 176 Q 1 210 23 233 Q 46 255 80 256 L 96 256 L 96 256 Z M 136 24 Q 134 2 112 0 Q 90 2 88 24 L 88 128 Q 90 150 112 152 Q 134 150 136 128 L 136 24 L 136 24 Z M 184 40 Q 162 42 160 64 L 160 96 Q 162 118 184 120 Q 206 118 208 96 L 208 64 Q 206 42 184 40 L 184 40 Z M 64 64 Q 62 42 40 40 Q 18 42 16 64 L 16 96 Q 18 118 40 120 Q 62 118 64 96 L 64 64 L 64 64 Z"/>
</svg>
