<svg xmlns="http://www.w3.org/2000/svg" viewBox="0 0 320 240">
    <path d="M 0 48 Q 1 28 14 14 L 14 14 Q 28 1 48 0 L 96 0 Q 116 1 130 14 Q 143 28 144 48 L 144 72 L 144 96 L 144 152 Q 143 189 118 214 Q 93 239 56 240 L 48 240 Q 34 240 25 231 Q 16 222 16 208 Q 16 194 25 185 Q 34 176 48 176 L 56 176 Q 78 174 80 152 L 80 144 L 48 144 Q 28 143 14 130 Q 1 116 0 96 L 0 48 L 0 48 Z M 232 240 L 224 240 Q 210 240 201 231 Q 192 222 192 208 Q 192 194 201 185 Q 210 176 224 176 L 232 176 Q 254 174 256 152 L 256 144 L 224 144 Q 204 143 190 130 Q 177 116 176 96 L 176 48 Q 177 28 190 14 Q 204 1 224 0 L 272 0 Q 292 1 306 14 Q 319 28 320 48 L 320 72 L 320 96 L 320 152 Q 319 189 294 214 Q 269 239 232 240 L 232 240 Z"/>
</svg>
