<svg xmlns="http://www.w3.org/2000/svg" viewBox="0 0 508 508">
    <path d="M 247 101 L 202 56 Q 202 57 202 57 Q 202 57 201 57 L 137 121 Q 126 131 115 121 Q 105 110 115 99 L 179 35 Q 179 34 179 34 Q 179 34 180 34 L 160 14 Q 145 0 126 0 Q 107 0 92 14 L 14 92 Q 0 107 0 126 Q 0 145 14 160 L 101 247 L 247 101 L 247 101 Z M 407 261 L 261 407 L 348 494 Q 363 508 382 508 Q 401 508 416 494 L 494 416 Q 508 401 508 382 Q 508 363 494 348 L 474 328 Q 474 328 474 329 Q 474 329 473 329 L 409 393 Q 398 402 387 393 Q 377 382 387 371 L 451 307 Q 451 306 451 306 Q 451 306 452 306 L 407 261 L 407 261 Z"/>
</svg>
