<svg xmlns="http://www.w3.org/2000/svg" viewBox="0 0 405 405">
    <path d="M 363 46 Q 405 91 405 148 L 405 148 Q 405 206 363 251 L 251 363 Q 206 405 148 405 Q 91 405 46 363 Q 8 324 4 273 Q 0 221 31 177 L 32 175 Q 40 164 53 162 Q 65 160 76 168 Q 87 176 89 189 Q 91 201 84 212 L 83 214 Q 65 239 68 267 Q 70 296 91 318 Q 116 341 148 341 Q 180 341 205 318 L 318 206 Q 341 181 341 149 Q 341 116 318 92 Q 296 71 267 68 Q 239 66 214 83 L 212 84 Q 201 92 188 90 Q 176 87 168 77 Q 160 65 162 53 Q 164 40 175 32 L 177 31 Q 221 0 272 4 Q 324 9 363 46 L 363 46 Z"/>
</svg>
