<svg xmlns="http://www.w3.org/2000/svg" viewBox="0 0 519 385">
    <path d="M 48 288 L 156 288 L 248 371 Q 263 385 282 384 Q 301 383 315 368 Q 324 359 327 348 L 344 363 Q 359 377 378 376 Q 397 375 411 360 Q 422 348 424 332 L 432 339 Q 447 353 466 352 Q 485 351 499 336 Q 519 313 509 286 Q 505 276 496 269 L 354 138 L 341 126 L 284 167 Q 267 179 248 175 Q 229 172 217 156 Q 205 139 209 120 Q 212 101 228 89 L 317 25 L 315 23 Q 288 0 253 0 Q 224 0 200 16 L 128 64 L 48 64 Q 28 65 14 78 Q 1 92 0 112 L 0 240 Q 1 260 14 274 Q 28 287 48 288 L 48 288 Z"/>
</svg>
