<svg xmlns="http://www.w3.org/2000/svg" viewBox="0 0 448 312">
    <path d="M 384 122 Q 418 129 448 148 L 448 184 Q 447 238 411 275 Q 374 311 320 312 L 224 312 L 128 312 Q 74 311 37 275 Q 1 238 0 184 Q 0 149 17 120 L 160 120 L 160 248 L 200 248 L 200 120 L 248 120 L 248 248 L 288 248 L 288 120 L 336 120 L 336 246 Q 357 240 370 224 Q 384 207 384 184 L 384 122 L 384 122 Z M 336 56 L 288 56 L 288 24 Q 290 2 312 0 Q 334 2 336 24 L 336 56 L 336 56 Z M 248 56 L 200 56 L 200 24 Q 202 2 224 0 Q 246 2 248 24 L 248 56 L 248 56 Z M 160 56 L 112 56 L 112 24 Q 114 2 136 0 Q 158 2 160 24 L 160 56 Q 160 56 160 56 Q 160 56 160 56 L 160 56 Z M 112 122 Q 91 128 78 144 L 78 144 Q 64 161 64 184 Q 64 207 78 224 Q 91 240 112 246 L 112 122 L 112 122 Z"/>
</svg>
