<svg xmlns="http://www.w3.org/2000/svg" viewBox="0 0 224 448">
    <path d="M 224 32 Q 224 18 215 9 L 215 9 Q 206 0 192 0 L 32 0 Q 18 0 9 9 Q 0 18 0 32 Q 0 46 9 55 Q 18 64 32 64 L 192 64 Q 206 64 215 55 Q 224 46 224 32 L 224 32 Z M 224 160 Q 224 146 215 137 L 215 137 Q 206 128 192 128 L 32 128 Q 18 128 9 137 Q 0 146 0 160 Q 0 174 9 183 Q 18 192 32 192 L 192 192 Q 206 192 215 183 Q 224 174 224 160 L 224 160 Z M 0 288 Q 0 302 9 311 L 9 311 Q 18 320 32 320 L 192 320 Q 206 320 215 311 Q 224 302 224 288 Q 224 274 215 265 Q 206 256 192 256 L 32 256 Q 18 256 9 265 Q 0 274 0 288 L 0 288 Z M 224 416 Q 224 402 215 393 L 215 393 Q 206 384 192 384 L 32 384 Q 18 384 9 393 Q 0 402 0 416 Q 0 430 9 439 Q 18 448 32 448 L 192 448 Q 206 448 215 439 Q 224 430 224 416 L 224 416 Z"/>
</svg>
