<svg xmlns="http://www.w3.org/2000/svg" viewBox="0 0 332 133">
    <path d="M 77 5 Q 75 0 70 0 Q 65 0 63 5 L 46 39 L 8 44 Q 3 45 2 50 Q 0 55 4 58 L 32 85 L 25 122 Q 24 127 28 130 Q 32 133 36 131 L 70 113 L 104 131 Q 108 133 112 130 Q 116 127 116 122 L 109 85 L 136 58 Q 140 55 139 50 Q 137 45 132 44 L 94 39 L 77 5 L 77 5 Z M 269 5 Q 267 0 262 0 Q 257 0 255 5 L 238 39 L 200 44 Q 195 45 193 50 Q 192 55 196 58 L 223 85 L 216 122 Q 216 127 220 130 Q 224 133 228 131 L 262 113 L 296 131 Q 300 133 304 130 Q 308 127 308 122 L 301 85 L 328 58 Q 332 55 331 50 Q 329 45 324 44 L 286 39 L 269 5 L 269 5 Z"/>
</svg>
