<svg xmlns="http://www.w3.org/2000/svg" viewBox="0 0 420 277">
    <path d="M 103 11 Q 89 29 68 29 L 68 29 Q 47 29 33 11 Q 23 0 10 8 Q 0 18 7 31 Q 32 61 68 61 Q 104 61 129 31 Q 137 18 126 8 Q 113 1 103 11 L 103 11 Z M 295 11 Q 281 29 260 29 L 260 29 Q 239 29 225 11 Q 215 0 202 8 Q 192 18 199 31 Q 224 61 260 61 Q 296 61 321 31 Q 329 18 318 8 Q 305 1 295 11 L 295 11 Z M 420 229 Q 418 189 389 160 L 389 160 Q 360 132 323 116 L 323 116 Q 286 101 260 101 Q 306 123 316 163 Q 326 202 324 229 Q 325 249 338 263 Q 352 276 372 277 Q 392 276 406 263 Q 419 249 420 229 L 420 229 Z"/>
</svg>
