<svg xmlns="http://www.w3.org/2000/svg" viewBox="0 0 174 334">
    <path d="M 94 14 Q 111 0 128 14 Q 142 31 128 48 L 105 71 L 128 94 Q 142 111 128 128 Q 111 142 94 128 L 71 105 L 48 128 Q 31 142 14 128 Q 0 111 14 94 L 37 71 L 14 48 Q 0 31 14 14 Q 31 0 48 14 L 71 37 L 94 14 L 94 14 Z M 46 206 Q 63 192 80 206 L 103 229 L 126 206 Q 143 192 160 206 Q 174 223 160 240 L 137 263 L 160 286 Q 174 303 160 320 Q 143 334 126 320 L 103 297 L 80 320 Q 63 334 46 320 Q 32 303 46 286 L 69 263 L 46 240 Q 32 223 46 206 L 46 206 Z"/>
</svg>
