<svg xmlns="http://www.w3.org/2000/svg" viewBox="0 0 580 514">
    <path d="M 553 135 Q 562 125 562 112 L 562 112 Q 562 99 553 89 L 473 9 Q 463 0 450 0 Q 437 0 427 9 L 347 89 Q 338 99 338 112 Q 338 125 347 135 Q 357 144 370 144 Q 383 144 393 135 L 418 109 L 418 256 L 482 256 L 482 109 L 507 135 Q 517 144 530 144 Q 543 144 553 135 L 553 135 Z M 309 422 Q 290 410 272 422 Q 237 447 194 448 Q 152 446 117 422 L 117 422 Q 96 409 77 424 Q 55 442 27 449 Q 14 452 7 463 Q 0 474 3 487 Q 6 500 17 507 Q 28 514 41 511 Q 79 501 100 486 Q 144 511 194 512 Q 243 509 274 493 Q 283 489 290 485 Q 297 489 306 493 Q 337 509 386 512 Q 436 511 481 486 Q 501 501 539 511 Q 552 514 563 507 Q 574 500 577 487 Q 580 474 573 463 Q 566 452 553 449 Q 525 442 503 424 Q 484 410 463 422 L 463 422 Q 428 446 386 448 Q 344 447 309 422 L 309 422 Z"/>
</svg>
