<svg xmlns="http://www.w3.org/2000/svg" viewBox="0 0 512 448">
    <path d="M 208 0 Q 202 0 200 6 L 193 33 L 166 40 Q 160 42 160 48 Q 160 54 166 56 L 193 63 L 200 90 Q 202 96 208 96 Q 214 96 216 90 L 223 63 L 250 56 Q 256 54 256 48 Q 256 42 250 40 L 223 33 L 216 6 Q 214 0 208 0 L 208 0 Z M 88 70 Q 86 64 80 64 Q 74 64 72 70 L 58 122 L 6 136 Q 0 138 0 144 Q 0 150 6 152 L 58 167 L 72 218 Q 74 224 80 224 Q 86 224 88 218 L 103 167 L 154 152 Q 160 150 160 144 Q 160 138 154 136 L 103 122 L 88 70 L 88 70 Z M 440 294 Q 438 288 432 288 Q 426 288 424 294 L 410 346 L 358 360 Q 352 362 352 368 Q 352 374 358 376 L 410 391 L 424 442 Q 426 448 432 448 Q 438 448 440 442 L 455 391 L 506 376 Q 512 374 512 368 Q 512 362 506 360 L 455 346 L 440 294 L 440 294 Z"/>
</svg>
