<svg xmlns="http://www.w3.org/2000/svg" viewBox="0 0 512 384">
    <path d="M 512 128 Q 512 142 503 151 L 503 151 Q 494 160 480 160 Q 466 160 457 151 Q 448 142 448 128 L 448 64 L 384 64 Q 370 64 361 55 Q 352 46 352 32 Q 352 18 361 9 Q 370 0 384 0 L 480 0 Q 494 0 503 9 Q 512 18 512 32 L 512 128 L 512 128 Z M 0 256 Q 0 242 9 233 L 9 233 Q 18 224 32 224 Q 46 224 55 233 Q 64 242 64 256 L 64 320 L 128 320 Q 142 320 151 329 Q 160 338 160 352 Q 160 366 151 375 Q 142 384 128 384 L 32 384 Q 18 384 9 375 Q 0 366 0 352 L 0 256 L 0 256 Z"/>
</svg>
