<svg xmlns="http://www.w3.org/2000/svg" viewBox="0 0 320 448">
    <path d="M 160 208 Q 188 208 212 194 L 212 194 Q 236 180 250 156 Q 264 131 264 104 Q 264 77 250 52 Q 236 28 212 14 Q 188 0 160 0 Q 132 0 108 14 Q 84 28 70 52 Q 56 77 56 104 Q 56 131 70 156 Q 84 180 108 194 Q 132 208 160 208 L 160 208 Z M 128 256 Q 74 257 37 293 L 37 293 Q 1 330 0 384 L 0 400 Q 1 420 14 434 Q 28 447 48 448 L 272 448 Q 292 447 306 434 Q 319 420 320 400 L 320 384 Q 319 330 283 293 Q 246 257 192 256 L 128 256 L 128 256 Z"/>
</svg>
