<svg xmlns="http://www.w3.org/2000/svg" viewBox="0 0 352 512">
    <path d="M 256 384 Q 216 382 189 329 L 189 329 Q 162 276 160 196 Q 160 195 160 194 Q 160 193 160 192 Q 161 110 188 56 Q 215 2 256 0 Q 297 2 324 56 Q 351 110 352 192 L 352 464 Q 351 484 338 498 Q 324 511 304 512 L 48 512 Q 28 511 14 498 Q 1 484 0 464 L 0 384 L 256 384 L 256 384 Z M 256 256 Q 270 255 279 237 L 279 237 Q 288 219 288 192 Q 288 165 279 147 Q 270 129 256 128 Q 242 129 233 147 Q 224 165 224 192 Q 224 219 233 237 Q 242 255 256 256 L 256 256 Z"/>
</svg>
