<svg xmlns="http://www.w3.org/2000/svg" viewBox="0 0 352 384">
    <path d="M 0 32 Q 0 18 9 9 L 9 9 Q 18 0 32 0 L 320 0 Q 334 0 343 9 Q 352 18 352 32 Q 352 46 343 55 Q 334 64 320 64 L 32 64 Q 18 64 9 55 Q 0 46 0 32 L 0 32 Z M 128 192 Q 128 178 137 169 L 137 169 Q 146 160 160 160 L 320 160 Q 334 160 343 169 Q 352 178 352 192 Q 352 206 343 215 Q 334 224 320 224 L 160 224 Q 146 224 137 215 Q 128 206 128 192 L 128 192 Z M 160 320 L 320 320 Q 334 320 343 329 Q 352 338 352 352 Q 352 366 343 375 Q 334 384 320 384 L 160 384 Q 146 384 137 375 Q 128 366 128 352 Q 128 338 137 329 Q 146 320 160 320 L 160 320 Z"/>
</svg>
