<svg xmlns="http://www.w3.org/2000/svg" viewBox="0 0 456 288">
    <path d="M 256 96 Q 256 82 265 73 L 265 73 Q 274 64 288 64 Q 302 64 311 73 Q 320 82 320 96 Q 320 110 329 119 Q 338 128 352 128 Q 366 128 375 119 Q 384 110 384 96 Q 383 55 356 28 Q 329 1 288 0 Q 247 1 220 28 Q 193 55 192 96 L 192 288 L 256 288 L 256 96 L 256 96 Z M 24 208 Q 2 210 0 232 Q 2 254 24 256 L 72 256 Q 79 257 80 264 L 80 288 L 128 288 L 128 264 Q 127 240 112 224 Q 96 209 72 208 L 24 208 L 24 208 Z M 368 264 Q 369 257 376 256 L 432 256 Q 454 254 456 232 Q 454 210 432 208 L 376 208 Q 352 209 336 224 Q 321 240 320 264 L 320 288 L 368 288 L 368 264 L 368 264 Z"/>
</svg>
