<svg xmlns="http://www.w3.org/2000/svg" viewBox="0 0 448 400">
    <path d="M 448 224 Q 448 278 425 323 L 425 323 Q 402 369 363 400 L 256 400 L 256 352 L 320 352 Q 330 352 335 342 Q 338 332 331 325 L 263 256 L 288 256 Q 298 256 303 246 Q 306 236 299 229 L 235 165 Q 224 155 213 165 L 149 229 Q 142 236 145 246 Q 150 255 160 256 L 185 256 L 117 325 Q 110 332 113 342 Q 118 351 128 352 L 192 352 L 192 400 L 85 400 Q 46 369 23 323 Q 0 278 0 224 Q 1 161 31 111 Q 60 60 111 31 Q 161 1 224 0 Q 287 1 337 31 Q 388 60 417 111 Q 447 161 448 224 L 448 224 Z M 256 80 Q 255 65 240 64 Q 225 65 224 80 Q 225 95 240 96 Q 255 95 256 80 L 256 80 Z M 336 192 Q 351 191 352 176 Q 351 161 336 160 Q 321 161 320 176 Q 321 191 336 192 L 336 192 Z M 96 208 Q 95 193 80 192 Q 65 193 64 208 Q 65 223 80 224 Q 95 223 96 208 L 96 208 Z"/>
</svg>
