<svg xmlns="http://www.w3.org/2000/svg" viewBox="0 0 640 514">
    <path d="M 149 9 Q 138 0 126 1 L 126 1 Q 113 2 104 12 L 15 115 Q 0 133 0 157 L 0 357 Q 0 381 15 399 L 104 502 Q 113 512 126 513 Q 138 514 149 505 Q 159 496 160 484 Q 161 471 152 460 L 64 357 L 64 157 L 152 54 Q 161 43 160 31 Q 159 18 149 9 L 149 9 Z M 415 273 Q 411 295 398 313 L 375 290 Q 380 282 382 273 L 415 273 L 415 273 Z M 376 335 Q 358 348 336 352 L 336 319 Q 345 317 353 312 L 376 335 L 376 335 Z M 304 352 Q 282 348 264 335 L 288 312 Q 295 317 304 319 L 304 352 L 304 352 Z M 242 313 Q 229 295 225 273 L 258 273 Q 260 282 265 290 L 242 313 L 242 313 Z M 415 241 L 382 241 Q 380 232 375 225 L 398 201 Q 411 219 415 241 L 415 241 Z M 376 179 L 353 202 Q 345 197 336 195 L 336 162 Q 358 166 376 179 L 376 179 Z M 304 195 Q 295 197 288 202 L 264 179 Q 282 166 304 162 L 304 195 L 304 195 Z M 265 225 Q 260 232 258 241 L 225 241 Q 229 219 242 201 L 265 225 L 265 225 Z M 320 417 Q 363 417 400 396 L 400 396 Q 437 374 459 337 Q 480 299 480 257 Q 480 215 459 177 Q 437 140 400 118 Q 363 97 320 97 Q 277 97 240 118 Q 203 140 181 177 Q 160 215 160 257 Q 160 299 181 337 Q 203 374 240 396 Q 277 417 320 417 L 320 417 Z M 343 280 L 343 280 Q 334 289 320 289 Q 306 289 297 280 Q 288 271 288 257 Q 288 243 297 234 Q 306 225 320 225 Q 334 225 343 234 Q 352 243 352 257 Q 352 271 343 280 L 343 280 Z M 489 55 L 576 150 L 576 350 L 487 461 Q 479 472 480 485 Q 482 497 492 506 Q 503 514 516 513 Q 528 511 537 501 L 626 390 Q 640 372 640 350 L 640 150 Q 640 125 623 106 L 536 11 Q 526 2 513 1 Q 501 1 490 10 Q 481 19 480 32 Q 480 44 489 55 L 489 55 Z"/>
</svg>
