<svg xmlns="http://www.w3.org/2000/svg" viewBox="0 0 328 309">
    <path d="M 103 50 Q 89 32 68 32 L 68 32 Q 47 32 33 50 Q 23 61 10 53 Q 0 43 7 30 Q 32 0 68 0 Q 104 0 129 30 Q 137 43 126 53 Q 113 60 103 50 L 103 50 Z M 36 294 L 36 104 Q 37 89 52 88 Q 67 89 68 104 L 68 309 Q 51 303 36 294 L 36 294 Z M 260 309 L 260 104 Q 261 89 276 88 Q 291 89 292 104 L 292 294 Q 277 303 260 309 L 260 309 Z M 225 50 Q 215 61 202 53 Q 192 43 199 30 Q 224 0 260 0 Q 296 0 321 30 Q 328 43 318 53 Q 305 60 295 50 Q 281 32 260 32 Q 239 32 225 50 L 225 50 Z"/>
</svg>
