<svg xmlns="http://www.w3.org/2000/svg" viewBox="0 0 497 512">
    <path d="M 401 467 Q 338 511 256 512 Q 184 511 127 477 Q 69 443 35 385 Q 1 328 0 256 Q 1 184 35 127 Q 69 69 127 35 Q 184 1 256 0 Q 340 1 405 48 Q 469 94 497 169 Q 484 177 476 191 L 401 332 Q 384 364 384 400 Q 384 437 401 467 L 401 467 Z M 160 128 Q 146 128 137 137 L 137 137 Q 128 146 128 160 L 128 192 Q 128 206 137 215 Q 146 224 160 224 Q 174 224 183 215 Q 192 206 192 192 L 192 160 Q 192 146 183 137 Q 174 128 160 128 L 160 128 Z M 256 128 Q 242 128 233 137 L 233 137 Q 224 146 224 160 L 224 192 Q 224 206 233 215 Q 242 224 256 224 Q 270 224 279 215 Q 288 206 288 192 L 288 160 Q 288 146 279 137 Q 270 128 256 128 L 256 128 Z M 352 128 Q 338 128 329 137 L 329 137 Q 320 146 320 160 L 320 192 Q 320 206 329 215 Q 338 224 352 224 Q 366 224 375 215 Q 384 206 384 192 L 384 160 Q 384 146 375 137 Q 366 128 352 128 L 352 128 Z"/>
</svg>
