<svg xmlns="http://www.w3.org/2000/svg" viewBox="0 0 640 324">
    <path d="M 640 18 Q 639 7 629 3 Q 618 0 611 9 L 611 9 L 611 9 L 611 9 L 610 10 Q 610 10 609 11 Q 608 12 607 14 Q 603 19 596 28 Q 582 46 555 70 Q 529 94 495 112 Q 462 129 424 130 L 47 130 Q 41 115 24 114 Q 2 116 0 138 L 0 186 Q 2 208 24 210 Q 41 209 47 194 L 424 194 Q 462 195 495 212 Q 529 230 555 254 Q 582 278 596 296 Q 603 305 607 310 Q 608 311 609 312 Q 610 313 610 314 L 611 315 L 611 315 L 611 315 L 611 315 Q 618 324 629 321 Q 639 317 640 306 L 640 18 L 640 18 Z"/>
</svg>
