<svg xmlns="http://www.w3.org/2000/svg" viewBox="0 0 512 448">
    <path d="M 320 32 L 270 45 Q 257 49 256 62 Q 258 78 274 80 L 312 80 L 302 112 L 196 112 Q 196 112 195 112 Q 194 112 194 112 Q 193 112 193 112 Q 192 112 192 112 L 128 112 L 114 112 L 106 112 Q 64 113 35 140 Q 7 166 2 208 L 0 238 Q 0 260 22 264 Q 44 264 48 243 Q 52 247 56 252 Q 69 268 58 286 Q 32 332 48 383 L 64 427 Q 72 447 94 448 L 128 448 Q 145 447 154 435 Q 163 422 158 405 L 139 351 Q 136 341 143 333 L 154 322 Q 172 304 175 278 Q 208 303 252 304 L 288 304 L 288 416 Q 288 430 297 439 Q 306 448 320 448 L 352 448 Q 366 448 375 439 Q 384 430 384 416 L 384 304 L 384 240 L 411 160 L 416 160 L 467 160 Q 486 160 499 147 Q 512 134 512 115 Q 512 113 512 111 Q 498 108 489 97 Q 480 87 480 72 Q 480 68 481 65 L 443 27 Q 416 1 377 0 Q 369 0 361 3 Q 368 7 368 16 Q 367 31 352 32 L 320 32 L 320 32 Z M 400 64 Q 415 65 416 80 Q 415 95 400 96 Q 385 95 384 80 Q 385 65 400 64 L 400 64 Z"/>
</svg>
