<svg xmlns="http://www.w3.org/2000/svg" viewBox="0 0 352 256">
    <path d="M 160 32 Q 160 18 169 9 L 169 9 Q 178 0 192 0 Q 206 0 215 9 Q 224 18 224 32 Q 224 46 215 55 Q 206 64 192 64 Q 178 64 169 55 Q 160 46 160 32 L 160 32 Z M 64 64 Q 78 64 87 73 L 87 73 Q 96 82 96 96 Q 96 110 87 119 Q 78 128 64 128 Q 50 128 41 119 Q 32 110 32 96 Q 32 82 41 73 Q 50 64 64 64 L 64 64 Z M 32 192 Q 46 192 55 201 L 55 201 Q 64 210 64 224 Q 64 238 55 247 Q 46 256 32 256 Q 18 256 9 247 Q 0 238 0 224 Q 0 210 9 201 Q 18 192 32 192 L 32 192 Z M 320 64 Q 334 64 343 73 L 343 73 Q 352 82 352 96 Q 352 110 343 119 Q 334 128 320 128 Q 306 128 297 119 Q 288 110 288 96 Q 288 82 297 73 Q 306 64 320 64 L 320 64 Z"/>
</svg>
