<svg xmlns="http://www.w3.org/2000/svg" viewBox="0 0 442 447">
    <path d="M 412 7 Q 431 17 424 38 Q 414 62 398 82 Q 383 102 368 117 Q 393 119 410 128 Q 428 137 436 144 Q 442 149 442 157 Q 442 165 436 170 Q 427 178 410 187 Q 393 196 370 197 Q 341 197 324 186 Q 307 176 290 157 Q 290 157 290 157 Q 271 140 261 123 Q 250 106 250 77 Q 251 54 260 37 Q 269 20 277 11 Q 282 5 290 5 Q 298 5 303 11 Q 311 20 320 39 Q 329 58 330 85 Q 330 86 330 86 Q 330 87 330 87 Q 330 87 331 86 Q 331 86 332 85 Q 362 57 380 20 Q 390 0 411 7 L 412 7 Z M 112 144 Q 116 148 114 158 L 114 158 Q 112 168 103 178 Q 93 187 83 189 Q 73 191 69 187 Q 64 182 66 172 Q 68 162 77 152 Q 87 143 97 141 Q 107 139 112 144 L 112 144 Z M 167 242 Q 157 251 147 253 L 147 253 Q 137 255 133 251 Q 128 246 130 236 Q 132 226 141 216 Q 151 207 161 205 Q 171 203 176 208 Q 180 212 178 222 Q 176 232 167 242 L 167 242 Z M 135 338 Q 125 347 115 349 L 115 349 Q 105 351 101 347 Q 96 342 98 332 Q 100 322 109 312 Q 119 303 129 301 Q 139 299 144 304 Q 148 308 146 318 Q 144 328 135 338 L 135 338 Z M 103 434 Q 93 443 83 445 L 83 445 Q 73 447 69 443 Q 64 438 66 428 Q 68 418 77 408 Q 87 399 97 397 Q 107 395 112 400 Q 116 404 114 414 Q 112 424 103 434 L 103 434 Z M 208 368 Q 212 372 210 382 L 210 382 Q 208 392 199 402 Q 189 411 179 413 Q 169 415 164 411 Q 160 406 162 396 Q 164 386 173 376 Q 183 367 193 365 Q 203 363 207 368 L 208 368 Z M 240 272 Q 244 276 242 286 L 242 286 Q 240 296 231 306 Q 221 315 211 317 Q 201 319 197 315 Q 192 310 194 300 Q 196 290 205 280 Q 215 271 225 269 Q 235 267 240 272 L 240 272 Z M 295 370 Q 285 379 275 381 L 275 381 Q 265 383 261 379 Q 256 374 258 364 Q 260 354 269 344 Q 279 335 289 333 Q 299 331 304 336 Q 308 340 306 350 Q 304 360 295 370 L 295 370 Z M 71 274 Q 61 283 51 285 L 51 285 Q 41 287 36 283 Q 32 278 34 268 Q 36 258 45 248 Q 55 239 65 237 Q 75 235 79 240 Q 84 244 82 254 Q 80 264 71 274 L 71 274 Z M 47 336 Q 52 340 50 350 L 50 350 Q 48 360 39 370 Q 29 379 19 381 Q 9 383 4 379 Q 0 374 2 364 Q 4 354 13 344 Q 23 335 33 333 Q 43 331 47 336 L 47 336 Z"/>
</svg>
