<svg xmlns="http://www.w3.org/2000/svg" viewBox="0 0 448 416">
    <path d="M 72 0 Q 41 1 21 21 L 21 21 Q 1 41 0 72 L 0 344 Q 1 375 21 395 Q 41 415 72 416 L 376 416 Q 407 415 427 395 Q 447 375 448 344 L 448 72 Q 447 41 427 21 Q 407 1 376 0 L 72 0 L 72 0 Z M 112 288 L 144 288 Q 159 289 160 304 Q 159 319 144 320 L 112 320 Q 97 319 96 304 Q 97 289 112 288 L 112 288 Z M 208 288 L 240 288 Q 255 289 256 304 Q 255 319 240 320 L 208 320 Q 193 319 192 304 Q 193 289 208 288 L 208 288 Z M 304 288 L 336 288 Q 351 289 352 304 Q 351 319 336 320 L 304 320 Q 289 319 288 304 Q 289 289 304 288 L 304 288 Z M 88 160 Q 89 137 108 125 Q 128 115 148 125 Q 167 137 168 160 Q 167 183 148 195 Q 128 205 108 195 Q 89 183 88 160 L 88 160 Z M 320 120 Q 343 121 355 140 Q 365 160 355 180 Q 343 199 320 200 Q 297 199 285 180 Q 275 160 285 140 Q 297 121 320 120 L 320 120 Z"/>
</svg>
