<svg xmlns="http://www.w3.org/2000/svg" viewBox="0 0 512 512">
    <path d="M 80 288 L 35 288 Q 20 288 10 298 Q 0 308 0 323 Q 0 336 9 346 L 95 441 Q 127 475 168 493 Q 210 512 256 512 Q 302 512 344 493 Q 385 475 417 441 L 503 346 Q 512 336 512 323 Q 512 308 502 298 Q 492 288 477 288 L 432 288 Q 417 287 416 272 L 416 72 Q 416 55 404 44 Q 393 32 376 32 Q 359 32 348 44 Q 336 55 336 72 L 336 204 Q 334 222 316 224 Q 298 222 296 204 L 296 40 Q 296 23 284 12 Q 273 0 256 0 Q 239 0 228 12 Q 216 23 216 40 L 216 204 Q 214 222 196 224 Q 178 222 176 204 L 176 72 Q 176 55 164 44 Q 153 32 136 32 Q 119 32 108 44 Q 96 55 96 72 L 96 272 Q 95 287 80 288 L 80 288 Z M 165 338 Q 177 326 201 308 L 201 308 Q 226 290 256 288 Q 286 290 311 308 Q 335 326 347 338 Q 352 344 352 352 Q 352 360 347 366 Q 335 378 311 396 Q 286 414 256 416 Q 226 414 201 396 Q 177 378 165 366 Q 160 360 160 352 Q 160 344 165 338 L 165 338 Z"/>
</svg>
