<svg xmlns="http://www.w3.org/2000/svg" viewBox="0 0 288 288">
    <path d="M 0 144 Q 0 183 19 216 L 19 216 Q 38 249 72 269 Q 106 288 144 288 Q 182 288 216 269 Q 250 249 269 216 Q 288 183 288 144 Q 288 105 269 72 Q 250 39 216 19 Q 182 0 144 0 Q 106 0 72 19 Q 38 39 19 72 Q 0 105 0 144 L 0 144 Z M 211 163 L 155 219 Q 144 229 133 219 L 77 163 Q 67 152 77 141 Q 88 131 99 141 L 128 169 L 128 80 Q 129 65 144 64 Q 159 65 160 80 L 160 169 L 189 141 Q 200 131 211 141 Q 221 152 211 163 L 211 163 Z"/>
</svg>
