<svg xmlns="http://www.w3.org/2000/svg" viewBox="0 0 384 512">
    <path d="M 0 64 Q 1 37 19 19 L 19 19 Q 37 1 64 0 L 224 0 L 224 128 Q 224 142 233 151 Q 242 160 256 160 L 384 160 L 384 448 Q 383 475 365 493 Q 347 511 320 512 L 64 512 Q 37 511 19 493 Q 1 475 0 448 L 0 64 L 0 64 Z M 296 320 Q 311 319 311 304 Q 305 263 277 235 Q 249 207 208 201 Q 193 201 192 216 L 192 304 Q 193 318 208 320 L 296 320 L 296 320 Z M 160 230 Q 158 213 141 216 Q 107 229 86 259 Q 65 289 64 328 Q 65 379 99 413 Q 133 447 184 448 Q 223 447 253 426 Q 283 405 296 371 Q 299 354 282 352 L 176 352 Q 161 351 160 336 L 160 230 L 160 230 Z"/>
</svg>
