<svg xmlns="http://www.w3.org/2000/svg" viewBox="0 0 422 488">
    <path d="M 282 16 L 421 135 L 421 488 L 422 488 L 422 488 L 101 488 Q 87 488 78 479 Q 69 470 69 456 L 69 264 L 37 264 Q 15 263 7 243 Q 0 222 16 208 L 240 16 Q 261 0 282 16 L 282 16 Z M 229 184 L 229 232 L 181 232 Q 166 233 165 248 L 165 280 Q 166 295 181 296 L 229 296 L 229 344 Q 230 359 245 360 L 277 360 Q 292 359 293 344 L 293 296 L 341 296 Q 356 295 357 280 L 357 248 Q 356 233 341 232 L 293 232 L 293 184 Q 292 169 277 168 L 245 168 Q 230 169 229 184 L 229 184 Z"/>
</svg>
