<svg xmlns="http://www.w3.org/2000/svg" viewBox="0 0 448 283">
    <path d="M 167 0 Q 167 0 167 0 L 167 0 Q 167 0 167 1 Q 183 14 200 2 Q 203 22 224 24 Q 245 22 248 2 Q 265 14 281 1 Q 281 1 281 0 Q 281 0 281 0 Q 340 20 374 66 Q 408 111 424 162 L 423 163 Q 416 166 409 163 L 373 145 Q 352 135 330 145 L 295 163 Q 288 166 281 163 L 245 145 Q 224 135 202 145 L 167 163 Q 160 166 153 163 L 117 145 Q 96 135 74 145 L 39 163 Q 32 166 25 163 L 24 162 Q 40 111 74 66 Q 108 20 167 0 L 167 0 Z M 15 193 Q 35 200 54 191 L 89 174 Q 96 170 103 174 L 139 191 Q 160 201 182 191 L 217 174 Q 224 170 231 174 L 267 191 Q 288 201 309 191 L 345 174 Q 352 170 359 174 L 395 191 Q 414 200 433 193 Q 442 230 445 255 Q 448 279 448 280 L 448 283 Q 440 280 432 280 L 16 280 Q 8 280 0 283 L 0 280 Q 0 279 3 255 Q 6 230 15 193 L 15 193 Z"/>
</svg>
