<svg xmlns="http://www.w3.org/2000/svg" viewBox="0 0 586 320">
    <path d="M 188 54 Q 218 32 256 16 L 256 16 Q 295 1 342 0 Q 389 1 428 16 Q 466 32 496 54 Q 525 77 546 101 Q 567 125 578 144 Q 586 160 578 176 Q 567 195 546 219 Q 525 243 496 266 Q 466 288 428 304 Q 389 319 342 320 Q 295 319 256 304 Q 218 288 188 266 Q 165 248 147 229 L 54 284 Q 33 294 15 279 Q 0 261 10 240 L 56 160 L 10 80 Q 0 59 16 41 Q 33 26 54 36 L 147 91 Q 165 72 188 54 L 188 54 Z M 454 160 Q 454 146 445 137 L 445 137 Q 436 128 422 128 Q 408 128 399 137 Q 390 146 390 160 Q 390 174 399 183 Q 408 192 422 192 Q 436 192 445 183 Q 454 174 454 160 L 454 160 Z"/>
</svg>
