<svg xmlns="http://www.w3.org/2000/svg" viewBox="0 0 512 320">
    <path d="M 0 0 L 224 0 L 224 224 L 0 224 L 0 0 L 0 0 Z M 384 32 Q 384 18 393 9 L 393 9 Q 402 0 416 0 Q 430 0 439 9 Q 448 18 448 32 Q 448 46 439 55 Q 430 64 416 64 Q 402 64 393 55 Q 384 46 384 32 L 384 32 Z M 464 224 Q 463 197 440 182 Q 416 170 392 182 Q 369 197 368 224 Q 369 251 392 266 Q 416 278 440 266 Q 463 251 464 224 L 464 224 Z M 320 224 Q 320 198 333 176 L 333 176 Q 346 154 368 141 Q 391 128 416 128 Q 441 128 464 141 Q 486 154 499 176 Q 512 198 512 224 Q 512 250 499 272 Q 486 294 464 307 Q 441 320 416 320 Q 391 320 368 307 Q 346 294 333 272 Q 320 250 320 224 L 320 224 Z"/>
</svg>
