<svg xmlns="http://www.w3.org/2000/svg" viewBox="0 0 576 416">
    <path d="M 507 20 L 493 75 Q 517 98 531 128 L 544 128 Q 558 128 567 137 Q 576 146 576 160 L 576 256 Q 576 270 567 279 Q 558 288 544 288 L 512 288 Q 498 306 480 320 L 480 384 Q 480 398 471 407 Q 462 416 448 416 L 416 416 Q 402 416 393 407 Q 384 398 384 384 L 384 352 L 256 352 L 256 384 Q 256 398 247 407 Q 238 416 224 416 L 192 416 Q 178 416 169 407 Q 160 398 160 384 L 160 320 Q 106 279 97 208 L 68 208 Q 39 207 20 188 Q 1 169 0 140 Q 1 111 20 92 Q 39 73 68 72 L 72 72 Q 94 74 96 96 Q 94 118 72 120 L 68 120 Q 50 122 48 140 Q 50 158 68 160 L 99 160 Q 111 104 154 69 Q 197 33 256 32 L 384 32 Q 396 32 407 34 Q 435 1 480 0 L 492 0 Q 509 2 507 20 L 507 20 Z M 424 192 Q 446 190 448 168 Q 446 146 424 144 Q 402 146 400 168 Q 402 190 424 192 L 424 192 Z"/>
</svg>
