<svg xmlns="http://www.w3.org/2000/svg" viewBox="0 0 288 288">
    <path d="M 0 144 Q 0 105 19 72 L 19 72 Q 38 39 72 19 Q 106 0 144 0 Q 182 0 216 19 Q 250 39 269 72 Q 288 105 288 144 Q 288 183 269 216 Q 250 249 216 269 Q 182 288 144 288 Q 106 288 72 269 Q 38 249 19 216 Q 0 183 0 144 L 0 144 Z M 195 78 Q 199 69 192 63 Q 185 57 177 62 L 81 134 Q 74 140 77 148 Q 80 155 88 156 L 124 156 L 94 210 Q 89 218 96 225 Q 104 231 111 226 L 207 154 Q 214 148 211 140 Q 208 132 200 132 L 164 132 L 195 78 L 195 78 Z"/>
</svg>
