<svg xmlns="http://www.w3.org/2000/svg" viewBox="0 0 640 320">
    <path d="M 80 0 Q 121 1 144 32 Q 160 55 186 52 L 257 38 Q 270 36 281 43 Q 291 50 294 63 L 320 192 L 211 214 Q 193 220 192 240 Q 191 274 169 297 Q 146 319 112 320 Q 78 319 55 297 Q 33 274 32 240 Q 33 202 61 179 Q 66 174 65 166 Q 63 159 56 156 Q 31 148 16 128 Q 0 107 0 80 Q 1 46 23 23 Q 46 1 80 0 L 80 0 Z M 496 32 Q 519 1 560 0 Q 594 1 617 23 Q 639 46 640 80 Q 640 107 624 128 Q 609 148 584 156 Q 577 159 575 166 Q 574 174 580 179 Q 607 202 608 240 Q 607 274 585 297 Q 562 319 528 320 Q 494 319 471 297 Q 449 274 448 240 Q 447 220 429 214 L 320 192 L 346 63 Q 349 50 359 43 Q 370 36 383 38 L 454 52 Q 480 55 496 32 L 496 32 Z"/>
</svg>
