<svg xmlns="http://www.w3.org/2000/svg" viewBox="0 0 512 416">
    <path d="M 87 9 Q 77 0 64 0 L 64 0 Q 51 0 41 9 Q 32 19 32 32 Q 32 45 41 55 L 105 119 Q 106 120 107 121 Q 98 139 96 160 L 32 160 Q 18 160 9 169 Q 0 178 0 192 Q 0 206 9 215 Q 18 224 32 224 L 96 224 Q 96 261 111 293 Q 108 295 105 297 L 41 361 Q 32 371 32 384 Q 32 397 41 407 Q 51 416 64 416 Q 77 416 87 407 L 150 344 Q 187 377 240 383 L 240 144 Q 242 129 256 128 Q 271 129 272 144 L 272 383 Q 325 377 362 344 L 425 407 Q 435 416 448 416 Q 461 416 471 407 Q 480 397 480 384 Q 480 371 471 361 L 407 297 Q 404 295 401 293 Q 416 261 416 224 L 480 224 Q 494 224 503 215 Q 512 206 512 192 Q 512 178 503 169 Q 494 160 480 160 L 416 160 Q 414 139 405 121 Q 406 120 407 119 L 471 55 Q 480 45 480 32 Q 480 19 471 9 Q 461 0 448 0 Q 435 0 425 9 L 361 73 Q 360 74 360 75 Q 338 64 312 64 L 200 64 Q 174 64 153 75 Q 152 74 151 73 L 87 9 L 87 9 Z"/>
</svg>
