<svg xmlns="http://www.w3.org/2000/svg" viewBox="0 0 448 352">
    <path d="M 384 320 Q 384 334 393 343 L 393 343 Q 402 352 416 352 Q 430 352 439 343 Q 448 334 448 320 Q 448 306 439 297 Q 430 288 416 288 Q 402 288 393 297 Q 384 306 384 320 L 384 320 Z M 0 320 Q 0 334 9 343 L 9 343 Q 18 352 32 352 Q 46 352 55 343 Q 64 334 64 320 Q 64 306 55 297 Q 46 288 32 288 Q 18 288 9 297 Q 0 306 0 320 L 0 320 Z M 256 320 Q 256 306 247 297 L 247 297 Q 238 288 224 288 Q 210 288 201 297 Q 192 306 192 320 Q 192 334 201 343 Q 210 352 224 352 Q 238 352 247 343 Q 256 334 256 320 L 256 320 Z M 384 128 Q 384 142 393 151 L 393 151 Q 402 160 416 160 Q 430 160 439 151 Q 448 142 448 128 Q 448 114 439 105 Q 430 96 416 96 Q 402 96 393 105 Q 384 114 384 128 L 384 128 Z M 64 128 Q 64 114 55 105 L 55 105 Q 46 96 32 96 Q 18 96 9 105 Q 0 114 0 128 Q 0 142 9 151 Q 18 160 32 160 Q 46 160 55 151 Q 64 142 64 128 L 64 128 Z M 192 128 Q 192 142 201 151 L 201 151 Q 210 160 224 160 Q 238 160 247 151 Q 256 142 256 128 Q 256 114 247 105 Q 238 96 224 96 Q 210 96 201 105 Q 192 114 192 128 L 192 128 Z M 448 224 Q 448 210 439 201 L 439 201 Q 430 192 416 192 Q 402 192 393 201 Q 384 210 384 224 Q 384 238 393 247 Q 402 256 416 256 Q 430 256 439 247 Q 448 238 448 224 L 448 224 Z M 0 224 Q 0 238 9 247 L 9 247 Q 18 256 32 256 Q 46 256 55 247 Q 64 238 64 224 Q 64 210 55 201 Q 46 192 32 192 Q 18 192 9 201 Q 0 210 0 224 L 0 224 Z M 256 224 Q 256 210 247 201 L 247 201 Q 238 192 224 192 Q 210 192 201 201 Q 192 210 192 224 Q 192 238 201 247 Q 210 256 224 256 Q 238 256 247 247 Q 256 238 256 224 L 256 224 Z M 384 32 Q 384 46 393 55 L 393 55 Q 402 64 416 64 Q 430 64 439 55 Q 448 46 448 32 Q 448 18 439 9 Q 430 0 416 0 Q 402 0 393 9 Q 384 18 384 32 L 384 32 Z M 64 32 Q 64 18 55 9 L 55 9 Q 46 0 32 0 Q 18 0 9 9 Q 0 18 0 32 Q 0 46 9 55 Q 18 64 32 64 Q 46 64 55 55 Q 64 46 64 32 L 64 32 Z M 192 32 Q 192 46 201 55 L 201 55 Q 210 64 224 64 Q 238 64 247 55 Q 256 46 256 32 Q 256 18 247 9 Q 238 0 224 0 Q 210 0 201 9 Q 192 18 192 32 L 192 32 Z M 352 224 Q 352 210 343 201 L 343 201 Q 334 192 320 192 Q 306 192 297 201 Q 288 210 288 224 Q 288 238 297 247 Q 306 256 320 256 Q 334 256 343 247 Q 352 238 352 224 L 352 224 Z M 288 32 Q 288 46 297 55 L 297 55 Q 306 64 320 64 Q 334 64 343 55 Q 352 46 352 32 Q 352 18 343 9 Q 334 0 320 0 Q 306 0 297 9 Q 288 18 288 32 L 288 32 Z M 160 32 Q 160 18 151 9 L 151 9 Q 142 0 128 0 Q 114 0 105 9 Q 96 18 96 32 Q 96 46 105 55 Q 114 64 128 64 Q 142 64 151 55 Q 160 46 160 32 L 160 32 Z M 96 224 Q 96 238 105 247 L 105 247 Q 114 256 128 256 Q 142 256 151 247 Q 160 238 160 224 Q 160 210 151 201 Q 142 192 128 192 Q 114 192 105 201 Q 96 210 96 224 L 96 224 Z"/>
</svg>
