<svg xmlns="http://www.w3.org/2000/svg" viewBox="0 0 384 512">
    <path d="M 0 64 Q 1 37 19 19 L 19 19 Q 37 1 64 0 L 224 0 L 224 128 Q 224 142 233 151 Q 242 160 256 160 L 384 160 L 384 448 Q 383 475 365 493 Q 347 511 320 512 L 64 512 Q 37 511 19 493 Q 1 475 0 448 L 0 64 L 0 64 Z M 64 80 Q 65 95 80 96 L 144 96 Q 159 95 160 80 Q 159 65 144 64 L 80 64 Q 65 65 64 80 L 64 80 Z M 64 144 Q 65 159 80 160 L 144 160 Q 159 159 160 144 Q 159 129 144 128 L 80 128 Q 65 129 64 144 L 64 144 Z M 192 216 Q 177 217 176 232 L 176 249 Q 163 251 152 258 Q 130 269 128 299 Q 131 326 151 336 Q 168 345 186 350 L 186 350 L 187 350 Q 206 355 216 361 Q 224 366 224 373 Q 224 382 216 387 Q 207 392 192 392 Q 176 391 156 383 Q 156 383 156 383 L 156 383 L 156 383 L 156 383 Q 153 382 149 381 Q 135 378 129 391 Q 125 405 139 411 Q 142 412 145 413 L 145 413 Q 159 419 176 422 L 176 440 Q 177 455 192 456 Q 207 455 208 440 L 208 423 Q 221 421 233 414 Q 255 401 256 372 Q 254 345 233 334 Q 215 324 197 319 L 197 319 L 197 319 L 196 319 Q 178 314 167 308 Q 159 303 160 298 Q 160 290 168 285 Q 178 280 192 280 Q 207 281 224 285 Q 238 288 243 274 Q 246 260 232 254 Q 221 251 208 249 L 208 232 Q 207 217 192 216 L 192 216 Z"/>
</svg>
