<svg xmlns="http://www.w3.org/2000/svg" viewBox="0 0 329 227">
    <path d="M 115 14 Q 119 28 105 34 L 99 36 Q 63 49 41 80 L 33 92 Q 24 103 11 96 Q 0 87 7 74 L 14 63 Q 42 22 89 6 L 95 4 Q 109 0 115 14 L 115 14 Z M 33 177 Q 47 195 68 195 L 68 195 Q 89 195 103 177 Q 113 166 126 174 Q 137 184 129 197 Q 104 227 68 227 Q 32 227 7 197 Q 0 184 10 174 Q 23 167 33 177 L 33 177 Z M 225 177 Q 239 195 260 195 L 260 195 Q 281 195 295 177 Q 305 166 318 174 Q 329 184 321 197 Q 296 227 260 227 Q 224 227 199 197 Q 191 184 202 174 Q 215 167 225 177 L 225 177 Z M 223 34 Q 209 28 213 14 Q 219 1 233 4 L 239 6 Q 286 22 314 63 L 321 74 Q 328 87 317 96 Q 304 103 295 92 L 287 80 Q 266 49 229 36 L 223 34 L 223 34 Z"/>
</svg>
