<svg xmlns="http://www.w3.org/2000/svg" viewBox="0 0 460 454">
    <path d="M 126 51 Q 126 76 148 90 Q 170 102 193 90 Q 214 76 215 51 Q 214 25 193 12 Q 170 0 148 12 Q 126 25 126 51 L 126 51 Z M 51 126 Q 25 126 12 148 Q 0 170 12 193 Q 25 214 51 215 Q 76 214 90 193 Q 102 170 90 148 Q 76 126 51 126 L 51 126 Z M 51 364 Q 25 365 12 387 Q 0 409 12 432 Q 25 453 51 454 Q 76 453 90 432 Q 102 409 90 387 Q 76 365 51 364 L 51 364 Z M 170 245 Q 145 246 132 267 Q 119 290 132 312 Q 145 334 170 335 Q 196 334 209 312 Q 221 290 209 267 Q 196 246 170 245 L 170 245 Z M 245 170 Q 246 196 267 209 Q 290 221 312 209 Q 334 196 335 170 Q 334 145 312 131 Q 290 119 267 131 Q 246 145 245 170 L 245 170 Z M 290 364 Q 264 365 251 387 Q 239 409 251 432 Q 264 453 290 454 Q 315 453 329 432 Q 341 409 329 387 Q 315 365 290 364 L 290 364 Z M 364 51 Q 365 76 387 90 Q 409 102 432 90 Q 453 76 454 51 Q 453 25 432 12 Q 409 0 387 12 Q 365 25 364 51 L 364 51 Z M 409 245 Q 384 246 370 267 Q 358 290 370 312 Q 384 334 409 335 Q 435 334 448 312 Q 460 290 448 267 Q 435 246 409 245 L 409 245 Z"/>
</svg>
