<svg xmlns="http://www.w3.org/2000/svg" viewBox="0 0 296 288">
    <path d="M 160 0 Q 169 0 174 8 L 202 60 L 258 43 Q 267 40 273 47 Q 280 54 277 63 L 261 118 L 296 137 L 231 197 Q 240 181 240 161 Q 239 127 217 104 Q 194 82 160 81 Q 126 82 103 104 Q 81 127 80 161 Q 81 195 103 217 Q 126 240 160 241 Q 176 241 191 235 L 149 273 L 133 288 L 119 261 L 63 278 Q 54 280 47 274 Q 40 267 43 258 L 60 202 L 8 174 Q 0 170 0 160 Q 0 151 8 146 L 60 118 L 43 63 Q 40 54 47 47 Q 54 40 63 43 L 118 60 L 146 8 Q 151 0 160 0 L 160 0 Z M 160 112 Q 187 113 202 136 Q 214 160 202 184 Q 187 207 160 208 Q 133 207 118 184 Q 106 160 118 136 Q 133 113 160 112 L 160 112 Z"/>
</svg>
