<svg xmlns="http://www.w3.org/2000/svg" viewBox="0 0 512 384">
    <path d="M 32 0 Q 18 0 9 9 L 9 9 Q 0 18 0 32 Q 0 46 9 55 Q 18 64 32 64 L 480 64 Q 494 64 503 55 Q 512 46 512 32 Q 512 18 503 9 Q 494 0 480 0 L 32 0 L 32 0 Z M 112 96 Q 97 97 96 112 L 96 144 Q 97 159 112 160 L 144 160 Q 159 159 160 144 L 160 112 Q 159 97 144 96 L 112 96 L 112 96 Z M 240 96 Q 225 97 224 112 L 224 144 Q 225 159 240 160 L 272 160 Q 287 159 288 144 L 288 112 Q 287 97 272 96 L 240 96 L 240 96 Z M 352 112 L 352 144 Q 353 159 368 160 L 400 160 Q 415 159 416 144 L 416 112 Q 415 97 400 96 L 368 96 Q 353 97 352 112 L 352 112 Z M 112 192 Q 97 193 96 208 L 96 240 Q 97 255 112 256 L 144 256 Q 159 255 160 240 L 160 208 Q 159 193 144 192 L 112 192 L 112 192 Z M 224 208 L 224 240 Q 225 255 240 256 L 272 256 Q 287 255 288 240 L 288 208 Q 287 193 272 192 L 240 192 Q 225 193 224 208 L 224 208 Z M 368 192 Q 353 193 352 208 L 352 240 Q 353 255 368 256 L 400 256 Q 415 255 416 240 L 416 208 Q 415 193 400 192 L 368 192 L 368 192 Z M 328 384 Q 338 384 345 377 L 345 377 Q 351 370 349 360 Q 340 328 315 309 Q 290 289 256 288 Q 222 289 197 309 Q 172 328 163 360 Q 161 370 167 377 Q 174 384 184 384 L 328 384 L 328 384 Z"/>
</svg>
