<svg xmlns="http://www.w3.org/2000/svg" viewBox="0 0 644 384">
    <path d="M 72 256 L 90 256 L 90 352 Q 90 366 99 375 Q 108 384 122 384 Q 136 384 145 375 Q 154 366 154 352 L 154 256 L 170 256 L 170 352 Q 170 366 179 375 Q 188 384 202 384 Q 216 384 225 375 Q 234 366 234 352 L 234 256 L 252 256 Q 260 256 265 249 Q 269 243 267 235 L 229 120 L 263 176 Q 270 188 282 191 Q 295 194 307 187 Q 321 177 322 160 Q 323 177 338 187 Q 349 194 362 191 Q 374 188 381 176 L 415 120 L 377 235 Q 375 243 379 249 Q 384 256 392 256 L 410 256 L 410 352 Q 410 366 419 375 Q 428 384 442 384 Q 456 384 465 375 Q 474 366 474 352 L 474 256 L 490 256 L 490 352 Q 490 366 499 375 Q 508 384 522 384 Q 536 384 545 375 Q 554 366 554 352 L 554 256 L 572 256 Q 580 256 585 249 Q 589 243 587 235 L 549 120 L 583 176 Q 590 188 602 191 Q 615 194 627 187 Q 638 180 641 168 Q 644 155 637 143 L 584 54 Q 568 29 543 14 Q 518 0 488 0 L 476 0 Q 446 0 421 14 Q 396 29 380 54 L 327 143 Q 322 151 322 159 Q 322 151 317 143 L 264 54 Q 248 29 223 14 Q 198 0 168 0 L 156 0 Q 126 0 101 14 Q 76 29 60 54 L 7 144 Q 0 155 3 168 Q 6 180 18 187 Q 29 194 42 191 Q 54 188 61 177 L 95 120 L 57 235 Q 55 243 59 249 Q 64 256 72 256 L 72 256 Z"/>
</svg>
