<svg xmlns="http://www.w3.org/2000/svg" viewBox="0 0 580 233">
    <path d="M 309 13 Q 290 1 272 13 Q 237 38 194 39 Q 152 37 117 13 L 117 13 Q 96 0 77 15 Q 55 33 27 40 Q 14 43 7 54 Q 0 65 3 78 Q 6 91 17 98 Q 28 105 41 102 Q 79 92 100 77 Q 144 102 194 103 Q 243 100 274 84 Q 283 80 290 76 Q 297 80 306 84 Q 337 100 386 103 Q 436 102 481 77 Q 501 92 539 102 Q 552 105 563 98 Q 574 91 577 78 Q 580 65 573 54 Q 566 43 553 40 Q 525 33 503 15 Q 484 0 463 13 L 463 13 Q 428 37 386 39 Q 344 38 309 13 L 309 13 Z M 386 167 Q 344 166 309 141 Q 290 129 272 141 Q 237 166 194 167 Q 152 165 117 141 L 117 141 Q 96 128 77 143 Q 55 161 27 168 Q 14 171 7 182 Q 0 193 3 206 Q 6 219 17 226 Q 28 233 41 230 Q 79 220 100 205 Q 144 230 194 231 Q 243 228 274 212 Q 283 208 290 204 Q 297 208 306 212 Q 337 228 386 231 Q 436 230 481 205 Q 501 220 539 230 Q 552 233 563 226 Q 574 219 577 206 Q 580 193 573 182 Q 566 171 553 168 Q 525 161 503 143 Q 484 129 463 141 L 463 141 Q 428 165 386 167 L 386 167 Z"/>
</svg>
