<svg xmlns="http://www.w3.org/2000/svg" viewBox="0 0 643 288">
    <path d="M 129 68 L 201 192 L 56 192 L 129 68 L 129 68 Z M 3 209 Q 12 243 46 265 L 46 265 Q 81 287 129 288 Q 177 287 211 265 Q 246 243 255 209 Q 258 192 248 177 L 153 14 Q 145 0 129 0 Q 113 1 105 14 L 10 177 Q 0 192 3 209 L 3 209 Z M 514 68 L 586 192 L 442 192 L 514 68 L 514 68 Z M 388 209 Q 397 243 431 265 L 431 265 Q 466 287 514 288 Q 562 287 597 265 Q 631 243 640 209 Q 643 192 633 177 L 538 14 Q 530 0 514 0 Q 498 1 490 14 L 395 177 Q 385 192 388 209 L 388 209 Z"/>
</svg>
