<svg xmlns="http://www.w3.org/2000/svg" viewBox="0 0 388 416">
    <path d="M 34 32 L 34 128 Q 34 142 43 151 Q 52 160 66 160 L 146 160 Q 160 160 169 151 Q 178 142 178 128 L 178 32 Q 178 18 169 9 Q 160 0 146 0 L 66 0 Q 52 0 43 9 Q 34 18 34 32 L 34 32 Z M 51 351 L 5 397 Q 0 403 3 409 Q 5 415 13 416 L 53 416 Q 66 416 75 407 L 130 352 L 66 352 Q 58 352 51 351 L 51 351 Z M 258 352 L 313 407 Q 322 416 335 416 L 375 416 Q 383 415 385 409 Q 388 403 383 397 L 337 351 Q 330 352 322 352 L 258 352 L 258 352 Z M 242 0 Q 228 0 219 9 L 219 9 Q 210 18 210 32 L 210 128 Q 210 142 219 151 Q 228 160 242 160 L 322 160 Q 336 160 345 151 Q 354 142 354 128 L 354 32 Q 354 18 345 9 Q 336 0 322 0 L 242 0 L 242 0 Z"/>
</svg>
