<svg xmlns="http://www.w3.org/2000/svg" viewBox="0 0 640 416">
    <path d="M 48 0 Q 28 1 14 14 L 14 14 Q 1 28 0 48 L 0 96 L 80 96 Q 95 97 96 112 Q 95 127 80 128 L 0 128 L 0 192 L 80 192 Q 95 193 96 208 Q 95 223 80 224 L 0 224 L 0 368 Q 1 388 14 402 Q 28 415 48 416 L 160 416 L 160 0 L 48 0 L 48 0 Z M 592 0 L 480 0 L 480 416 L 592 416 Q 612 415 626 402 Q 639 388 640 368 L 640 224 L 560 224 Q 545 223 544 208 Q 545 193 560 192 L 640 192 L 640 128 L 560 128 Q 545 127 544 112 Q 545 97 560 96 L 640 96 L 640 48 Q 639 28 626 14 Q 612 1 592 0 L 592 0 Z"/>
</svg>
