<svg xmlns="http://www.w3.org/2000/svg" viewBox="0 0 240 208">
    <path d="M 88 32 Q 88 18 79 9 L 79 9 Q 70 0 56 0 Q 42 0 33 9 Q 24 18 24 32 Q 24 46 33 55 Q 42 64 56 64 Q 70 64 79 55 Q 88 46 88 32 L 88 32 Z M 216 32 Q 216 18 207 9 L 207 9 Q 198 0 184 0 Q 170 0 161 9 Q 152 18 152 32 Q 152 46 161 55 Q 170 64 184 64 Q 198 64 207 55 Q 216 46 216 32 L 216 32 Z M 48 128 Q 32 113 15 126 Q 0 142 13 160 Q 54 206 120 208 Q 186 206 227 160 Q 240 142 225 126 Q 208 113 191 128 Q 164 159 120 160 Q 76 159 48 128 L 48 128 Z"/>
</svg>
