<svg xmlns="http://www.w3.org/2000/svg" viewBox="0 0 512 512">
    <path d="M 497 15 Q 512 30 512 50 L 512 50 Q 512 70 498 85 Q 485 96 457 103 Q 428 110 410 112 Q 400 112 400 102 Q 402 84 409 55 Q 416 27 427 14 Q 442 0 462 0 Q 482 0 497 15 L 497 15 Z M 87 285 Q 82 280 84 274 L 84 274 Q 86 268 92 265 L 189 236 Q 199 233 205 239 Q 211 245 208 255 L 179 352 Q 176 359 170 360 Q 164 362 159 357 Q 156 354 156 350 L 150 294 L 94 288 Q 90 288 87 285 L 87 285 Z M 265 92 Q 268 85 274 84 L 274 84 Q 280 82 285 87 Q 288 90 288 94 L 294 151 L 350 156 Q 354 156 357 159 Q 362 164 360 170 Q 359 176 352 179 L 255 209 Q 246 211 240 205 Q 234 199 236 190 L 265 92 L 265 92 Z M 15 497 Q 0 482 0 462 L 0 462 Q 0 442 14 427 Q 27 416 55 409 Q 83 402 102 400 Q 112 400 112 410 Q 110 428 103 457 Q 96 485 85 498 Q 70 512 50 512 Q 30 512 15 497 L 15 497 Z"/>
</svg>
