<svg xmlns="http://www.w3.org/2000/svg" viewBox="0 0 371 302">
    <path d="M 64 32 Q 64 18 55 9 L 55 9 Q 46 0 32 0 Q 19 0 10 9 Q 1 18 0 32 Q 1 46 10 55 Q 19 64 32 64 Q 46 64 55 55 Q 64 46 64 32 L 64 32 Z M 227 58 Q 237 69 250 61 Q 261 51 253 38 Q 228 8 192 8 Q 156 8 131 38 Q 124 51 134 61 Q 147 68 157 58 Q 171 40 192 40 Q 213 40 227 58 L 227 58 Z M 290 176 Q 285 159 271 150 L 271 150 Q 256 141 239 146 Q 222 151 214 166 Q 205 181 209 199 L 232 288 Q 237 302 252 300 L 337 276 Q 354 271 362 256 Q 371 240 366 222 Q 362 205 347 196 Q 333 187 315 192 L 295 197 L 290 176 L 290 176 Z"/>
</svg>
