<svg xmlns="http://www.w3.org/2000/svg" viewBox="0 0 512 512">
    <path d="M 256 512 Q 326 511 384 478 L 384 478 Q 442 444 478 384 Q 512 323 512 256 Q 512 189 478 128 Q 442 68 384 34 Q 326 1 256 0 Q 186 1 128 34 Q 70 68 34 128 Q 0 189 0 256 Q 0 323 34 384 Q 70 444 128 478 Q 186 511 256 512 L 256 512 Z M 223 169 L 199 187 Q 180 199 165 183 Q 153 164 169 149 L 194 131 Q 218 112 249 113 L 252 113 Q 288 114 311 138 Q 335 162 336 198 Q 335 234 309 260 L 245 320 L 328 320 Q 350 322 352 344 Q 350 366 328 368 L 184 368 Q 168 367 162 353 Q 157 338 168 327 L 276 225 Q 288 214 288 198 Q 288 182 277 171 Q 267 161 251 160 L 248 160 Q 234 160 223 169 L 223 169 Z"/>
</svg>
