<svg xmlns="http://www.w3.org/2000/svg" viewBox="0 0 320 512">
    <path d="M 288 0 L 32 0 Q 18 0 9 9 Q 0 18 0 32 L 0 480 Q 0 494 9 503 Q 18 512 32 512 L 288 512 Q 302 512 311 503 Q 320 494 320 480 L 320 32 Q 320 18 311 9 Q 302 0 288 0 L 288 0 Z M 184 224 L 184 288 Q 182 310 160 312 Q 138 310 136 288 L 136 224 Q 138 202 160 200 Q 182 202 184 224 L 184 224 Z M 160 360 Q 182 362 184 384 L 184 448 Q 182 470 160 472 Q 138 470 136 448 L 136 384 Q 138 362 160 360 L 160 360 Z M 184 64 L 184 128 Q 182 150 160 152 Q 138 150 136 128 L 136 64 Q 138 42 160 40 Q 182 42 184 64 L 184 64 Z"/>
</svg>
