<svg xmlns="http://www.w3.org/2000/svg" viewBox="0 0 448 448">
    <path d="M 448 128 L 240 128 L 240 0 L 208 0 L 208 128 L 0 128 L 0 384 Q 1 411 19 429 Q 37 447 64 448 L 384 448 Q 411 447 429 429 Q 447 411 448 384 L 448 128 L 448 128 Z M 244 184 L 244 198 Q 255 200 265 203 Q 282 209 279 227 Q 273 244 255 241 Q 238 237 224 236 Q 211 236 202 241 Q 195 245 196 250 Q 195 253 201 257 Q 210 262 230 268 L 230 268 L 230 268 Q 231 268 231 268 Q 249 273 267 283 Q 289 294 292 324 Q 290 356 267 369 Q 256 376 244 378 L 244 392 Q 242 410 224 412 Q 206 410 204 392 L 204 377 Q 188 374 176 369 L 176 369 L 176 369 Q 173 368 170 367 Q 153 360 157 342 Q 164 325 182 329 Q 184 330 186 330 Q 188 331 190 331 L 190 331 Q 209 339 225 340 Q 238 340 246 335 Q 252 332 252 325 Q 253 321 246 316 Q 237 311 218 306 L 216 305 Q 216 305 216 305 Q 198 301 181 291 Q 159 280 156 251 Q 158 219 182 207 Q 192 201 204 198 L 204 184 Q 206 166 224 164 Q 242 166 244 184 L 244 184 Z"/>
</svg>
