<svg xmlns="http://www.w3.org/2000/svg" viewBox="0 0 192 192">
    <path d="M 0 176 L 0 16 Q 1 1 16 0 L 80 0 Q 95 1 96 16 Q 97 31 112 32 L 144 32 Q 159 31 160 16 Q 161 1 176 0 Q 191 1 192 16 L 192 112 Q 191 127 176 128 L 112 128 Q 97 127 96 112 Q 95 97 80 96 Q 65 97 64 112 L 64 176 Q 63 191 48 192 L 16 192 Q 1 191 0 176 L 0 176 Z M 128 176 Q 127 191 112 192 Q 97 191 96 176 Q 97 161 112 160 Q 127 161 128 176 L 128 176 Z M 192 176 Q 191 191 176 192 Q 161 191 160 176 Q 161 161 176 160 Q 191 161 192 176 L 192 176 Z"/>
</svg>
