<svg xmlns="http://www.w3.org/2000/svg" viewBox="0 0 512 512">
    <path d="M 0 256 Q 1 186 34 128 L 34 128 Q 68 70 128 34 Q 189 0 256 0 Q 323 0 384 34 Q 444 70 478 128 Q 511 186 512 256 Q 511 326 478 384 Q 444 442 384 478 Q 323 512 256 512 Q 189 512 128 478 Q 68 442 34 384 Q 1 326 0 256 L 0 256 Z M 416 256 Q 416 213 395 176 L 395 176 Q 373 139 336 117 Q 298 96 256 96 Q 214 96 176 117 Q 139 139 117 176 Q 96 213 96 256 Q 96 299 117 336 Q 139 373 176 395 Q 214 416 256 416 Q 298 416 336 395 Q 373 373 395 336 Q 416 299 416 256 L 416 256 Z M 256 224 Q 270 224 279 233 L 279 233 Q 288 242 288 256 Q 288 270 279 279 Q 270 288 256 288 Q 242 288 233 279 Q 224 270 224 256 Q 224 242 233 233 Q 242 224 256 224 L 256 224 Z"/>
</svg>
