<svg xmlns="http://www.w3.org/2000/svg" viewBox="0 0 512 400">
    <path d="M 15 146 L 160 25 Q 134 1 95 0 Q 55 1 28 28 Q 1 55 0 95 Q 0 124 15 146 L 15 146 Z M 280 200 Q 278 178 256 176 Q 234 178 232 200 L 232 264 L 168 264 Q 146 266 144 288 Q 146 310 168 312 L 232 312 L 232 376 Q 234 398 256 400 Q 278 398 280 376 L 280 312 L 344 312 Q 366 310 368 288 Q 366 266 344 264 L 280 264 L 280 200 L 280 200 Z M 352 25 L 497 146 Q 512 124 512 95 Q 511 55 484 28 Q 457 1 417 0 Q 378 1 352 25 L 352 25 Z"/>
</svg>
