<svg xmlns="http://www.w3.org/2000/svg" viewBox="0 0 192 256">
    <path d="M 160 0 Q 174 0 183 9 L 183 9 Q 192 18 192 32 Q 192 46 183 55 Q 174 64 160 64 L 112 64 Q 98 64 89 55 Q 80 46 80 32 Q 80 18 89 9 Q 98 0 112 0 L 160 0 L 160 0 Z M 128 96 Q 142 96 151 105 L 151 105 Q 160 114 160 128 Q 160 142 151 151 Q 142 160 128 160 L 64 160 Q 50 160 41 151 Q 32 142 32 128 Q 32 114 41 105 Q 50 96 64 96 L 128 96 L 128 96 Z M 128 224 Q 128 238 119 247 L 119 247 Q 110 256 96 256 L 32 256 Q 18 256 9 247 Q 0 238 0 224 Q 0 210 9 201 Q 18 192 32 192 L 96 192 Q 110 192 119 201 Q 128 210 128 224 L 128 224 Z"/>
</svg>
