<svg xmlns="http://www.w3.org/2000/svg" viewBox="0 0 469 320">
    <path d="M 113 110 Q 124 73 146 38 L 146 38 Q 167 3 195 0 Q 209 0 221 11 Q 235 20 249 11 Q 261 0 275 0 Q 303 3 324 38 Q 346 73 357 110 Q 408 94 446 67 Q 450 64 454 64 Q 469 66 467 81 Q 445 144 383 183 Q 320 223 235 224 Q 150 223 87 183 Q 25 144 3 81 Q 0 66 16 64 Q 20 64 24 67 Q 62 94 113 110 L 113 110 Z M 147 296 Q 149 274 171 272 Q 193 274 195 296 Q 193 318 171 320 Q 149 318 147 296 L 147 296 Z M 299 272 Q 321 274 323 296 Q 321 318 299 320 Q 277 318 275 296 Q 277 274 299 272 L 299 272 Z"/>
</svg>
