<svg xmlns="http://www.w3.org/2000/svg" viewBox="0 0 512 512">
    <path d="M 448 93 L 448 96 L 384 96 Q 370 96 361 87 Q 352 78 352 64 L 352 0 L 355 0 Q 381 0 400 19 L 429 48 Q 448 67 448 93 L 448 93 Z M 0 256 L 0 224 Q 0 210 9 201 Q 18 192 32 192 L 147 192 Q 160 192 169 201 L 183 215 Q 192 224 205 224 L 307 224 Q 320 224 329 215 L 343 201 Q 352 192 365 192 L 480 192 Q 494 192 503 201 Q 512 210 512 224 L 512 256 Q 512 270 503 279 Q 494 288 480 288 L 480 448 Q 479 475 461 493 Q 443 511 416 512 L 96 512 Q 69 511 51 493 Q 33 475 32 448 L 32 288 Q 18 288 9 279 Q 0 270 0 256 L 0 256 Z M 176 304 Q 175 289 160 288 Q 145 289 144 304 Q 145 319 160 320 Q 175 319 176 304 L 176 304 Z M 208 304 Q 209 319 224 320 Q 239 319 240 304 Q 239 289 224 288 Q 209 289 208 304 L 208 304 Z M 304 304 Q 303 289 288 288 Q 273 289 272 304 Q 273 319 288 320 Q 303 319 304 304 L 304 304 Z M 336 304 Q 337 319 352 320 Q 367 319 368 304 Q 367 289 352 288 Q 337 289 336 304 L 336 304 Z M 432 304 Q 431 289 416 288 Q 401 289 400 304 Q 401 319 416 320 Q 431 319 432 304 L 432 304 Z M 80 304 Q 81 319 96 320 Q 111 319 112 304 Q 111 289 96 288 Q 81 289 80 304 L 80 304 Z M 144 432 Q 145 447 160 448 L 352 448 Q 367 447 368 432 Q 367 417 352 416 L 160 416 Q 145 417 144 432 L 144 432 Z M 144 368 Q 143 353 128 352 Q 113 353 112 368 Q 113 383 128 384 Q 143 383 144 368 L 144 368 Z M 208 368 Q 207 353 192 352 Q 177 353 176 368 Q 177 383 192 384 Q 207 383 208 368 L 208 368 Z M 256 384 Q 271 383 272 368 Q 271 353 256 352 Q 241 353 240 368 Q 241 383 256 384 L 256 384 Z M 336 368 Q 335 353 320 352 Q 305 353 304 368 Q 305 383 320 384 Q 335 383 336 368 L 336 368 Z M 384 384 Q 399 383 400 368 Q 399 353 384 352 Q 369 353 368 368 Q 369 383 384 384 L 384 384 Z"/>
</svg>
