<svg xmlns="http://www.w3.org/2000/svg" viewBox="0 0 388 453">
    <path d="M 71 10 Q 82 0 93 10 L 157 74 Q 164 81 161 91 Q 156 100 146 101 L 18 101 Q 8 101 3 91 Q 0 81 7 74 L 71 10 L 71 10 Z M 295 96 L 231 32 Q 224 25 227 15 Q 232 6 242 5 L 370 5 Q 380 5 385 15 Q 388 25 381 32 L 317 96 Q 306 106 295 96 L 295 96 Z M 98 229 Q 125 230 140 253 Q 152 277 140 301 Q 125 324 98 325 Q 71 324 56 301 Q 44 277 56 253 Q 71 230 98 229 L 98 229 Z M 18 405 Q 19 385 32 371 L 32 371 Q 46 358 66 357 L 130 357 Q 150 358 164 371 Q 177 385 178 405 L 178 421 Q 178 435 169 444 Q 160 453 146 453 L 50 453 Q 36 453 27 444 Q 18 435 18 421 L 18 405 L 18 405 Z M 210 405 Q 211 385 224 371 L 224 371 Q 238 358 258 357 L 322 357 Q 342 358 356 371 Q 369 385 370 405 L 370 421 Q 370 435 361 444 Q 352 453 338 453 L 242 453 Q 228 453 219 444 Q 210 435 210 421 L 210 405 L 210 405 Z M 242 277 Q 243 250 266 235 Q 290 223 314 235 Q 337 250 338 277 Q 337 304 314 319 Q 290 331 266 319 Q 243 304 242 277 L 242 277 Z"/>
</svg>
