<svg xmlns="http://www.w3.org/2000/svg" viewBox="0 0 288 400">
    <path d="M 128 216 L 128 400 L 160 400 L 160 328 L 195 328 Q 207 358 240 360 Q 260 359 274 346 Q 287 332 288 312 Q 287 292 274 278 Q 260 265 240 264 Q 207 266 195 296 L 160 296 L 160 104 L 208 104 Q 223 105 224 120 L 224 123 Q 194 135 192 168 Q 193 188 206 202 Q 220 215 240 216 Q 260 215 274 202 Q 287 188 288 168 Q 286 135 256 123 L 256 120 Q 255 100 242 86 Q 228 73 208 72 L 160 72 L 160 0 L 128 0 L 128 72 L 93 72 Q 81 42 48 40 Q 28 41 14 54 Q 1 68 0 88 Q 1 108 14 122 Q 28 135 48 136 Q 81 134 93 104 L 128 104 L 128 184 L 80 184 Q 60 185 46 198 Q 33 212 32 232 L 32 267 Q 2 279 0 312 Q 1 332 14 346 Q 28 359 48 360 Q 68 359 82 346 Q 95 332 96 312 Q 94 279 64 267 L 64 232 Q 65 217 80 216 L 128 216 L 128 216 Z M 64 88 Q 63 103 48 104 Q 33 103 32 88 Q 33 73 48 72 Q 63 73 64 88 L 64 88 Z M 240 184 Q 225 183 224 168 Q 225 153 240 152 Q 255 153 256 168 Q 255 183 240 184 L 240 184 Z M 64 312 Q 63 327 48 328 Q 33 327 32 312 Q 33 297 48 296 Q 63 297 64 312 L 64 312 Z M 256 312 Q 255 327 240 328 Q 225 327 224 312 Q 225 297 240 296 Q 255 297 256 312 L 256 312 Z"/>
</svg>
