<svg xmlns="http://www.w3.org/2000/svg" viewBox="0 0 496 512">
    <path d="M 384 238 L 384 160 L 394 180 Q 404 199 423 206 Q 442 213 462 206 Q 494 191 496 156 L 496 80 Q 495 50 474 32 L 480 32 Q 495 31 496 16 Q 495 1 480 0 L 416 0 L 400 0 L 384 0 Q 330 1 295 36 Q 259 72 256 125 L 121 35 Q 113 30 105 34 Q 96 39 96 48 Q 96 85 101 121 Q 106 157 122 188 Q 136 213 160 231 Q 149 227 140 222 Q 107 203 90 172 Q 79 152 74 129 Q 42 134 21 157 Q 1 180 0 213 Q 0 238 14 260 L 42 302 Q 54 323 41 344 Q 16 388 31 438 L 49 490 Q 57 511 79 512 L 113 512 Q 130 511 139 499 Q 148 486 143 470 L 122 407 Q 119 397 127 389 L 139 377 Q 160 356 160 327 Q 160 323 160 320 L 244 344 Q 250 346 256 347 L 256 480 Q 256 494 265 503 Q 274 512 288 512 L 320 512 Q 334 512 343 503 Q 352 494 352 480 L 352 316 Q 382 286 384 240 L 384 240 L 384 238 L 384 238 Z M 432 64 Q 447 65 448 80 Q 447 95 432 96 Q 417 95 416 80 Q 417 65 432 64 L 432 64 Z"/>
</svg>
