<svg xmlns="http://www.w3.org/2000/svg" viewBox="0 0 512 320">
    <path d="M 96 320 Q 55 319 28 292 L 28 292 Q 1 265 0 224 Q 1 192 19 167 Q 37 143 66 133 Q 64 123 64 112 Q 65 64 97 33 Q 128 1 176 0 Q 209 0 235 17 Q 261 33 275 60 Q 298 33 336 32 Q 370 33 393 55 Q 415 78 416 112 Q 416 120 414 128 Q 415 128 415 128 Q 416 128 416 128 Q 457 129 484 156 Q 511 183 512 224 Q 511 265 484 292 Q 457 319 416 320 L 371 320 Q 364 302 348 291 Q 332 280 312 280 Q 309 280 306 280 Q 287 257 256 256 Q 225 257 206 280 Q 203 280 200 280 Q 180 280 164 291 Q 148 302 141 320 L 96 320 L 96 320 Z"/>
</svg>
