<svg xmlns="http://www.w3.org/2000/svg" viewBox="0 0 292 521">
    <path d="M 210 73 Q 209 37 178 18 Q 146 0 114 18 Q 83 37 82 73 Q 83 109 114 128 Q 146 146 178 128 Q 209 109 210 73 L 210 73 Z M 138 489 L 138 393 L 154 393 L 154 489 Q 154 503 163 512 Q 172 521 186 521 Q 200 521 209 512 Q 218 503 218 489 L 218 310 L 231 330 Q 238 341 251 344 Q 263 347 275 340 Q 286 332 289 320 Q 292 308 285 296 L 233 214 Q 204 170 152 169 L 140 169 Q 88 170 59 214 L 7 296 Q 0 308 3 320 Q 6 333 17 340 Q 29 347 41 344 Q 53 341 61 330 L 74 310 L 74 489 Q 74 503 83 512 Q 92 521 106 521 Q 120 521 129 512 Q 138 503 138 489 L 138 489 Z"/>
</svg>
