<svg xmlns="http://www.w3.org/2000/svg" viewBox="0 0 256 320">
    <path d="M 80 48 Q 81 28 94 14 L 94 14 Q 108 1 128 0 Q 148 1 162 14 Q 175 28 176 48 L 144 48 Q 129 49 128 64 Q 129 79 144 80 L 176 80 L 176 112 L 144 112 Q 129 113 128 128 Q 129 143 144 144 L 176 144 L 176 160 Q 175 180 162 194 Q 148 207 128 208 Q 108 207 94 194 Q 81 180 80 160 L 80 48 L 80 48 Z M 16 128 Q 31 129 32 144 L 32 160 Q 33 201 60 228 Q 87 255 128 256 Q 169 255 196 228 Q 223 201 224 160 L 224 144 Q 225 129 240 128 Q 255 129 256 144 L 256 160 Q 255 210 224 245 Q 192 280 144 287 L 144 304 Q 143 319 128 320 Q 113 319 112 304 L 112 287 Q 64 280 32 245 Q 1 210 0 160 L 0 144 Q 1 129 16 128 L 16 128 Z"/>
</svg>
