<svg xmlns="http://www.w3.org/2000/svg" viewBox="0 0 416 512">
    <path d="M 0 64 Q 1 37 19 19 L 19 19 Q 37 1 64 0 L 352 0 Q 379 1 397 19 Q 415 37 416 64 L 416 448 Q 415 475 397 493 Q 379 511 352 512 L 64 512 Q 37 511 19 493 Q 1 475 0 448 L 0 64 L 0 64 Z M 96 368 Q 97 383 112 384 L 304 384 Q 319 383 320 368 Q 319 334 297 311 Q 274 289 240 288 L 176 288 Q 142 289 119 311 Q 97 334 96 368 L 96 368 Z M 208 256 Q 244 255 263 224 Q 281 192 263 160 Q 244 129 208 128 Q 172 129 153 160 Q 135 192 153 224 Q 172 255 208 256 L 208 256 Z"/>
</svg>
