<svg xmlns="http://www.w3.org/2000/svg" viewBox="0 0 512 448">
    <path d="M 128 0 Q 76 1 40 35 L 40 35 Q 5 69 0 120 Q 0 120 0 121 L 0 128 L 8 128 L 8 128 L 0 128 L 0 161 Q 0 183 11 200 Q 22 218 42 227 L 99 253 Q 80 283 80 320 L 80 336 L 192 448 L 320 448 L 432 336 L 432 320 Q 432 283 413 253 L 470 227 Q 490 218 501 200 Q 512 183 512 161 L 512 128 L 504 128 Q 504 128 504 128 Q 504 128 504 128 L 512 128 L 512 121 Q 512 120 512 120 Q 512 120 512 120 L 512 120 L 512 120 Q 507 69 472 35 Q 436 1 384 0 L 339 0 Q 334 0 332 5 Q 330 9 334 14 L 370 50 Q 374 55 372 59 Q 370 64 365 64 L 328 64 Q 321 65 321 72 Q 324 96 341 112 Q 359 128 384 128 L 464 128 L 464 161 Q 463 176 450 183 L 379 216 Q 347 193 304 192 L 208 192 Q 165 193 133 216 L 62 183 Q 49 176 48 161 L 48 128 L 128 128 Q 153 127 171 112 Q 188 96 192 72 Q 191 65 184 64 L 147 64 Q 142 64 140 59 Q 138 55 142 50 L 178 14 Q 182 9 180 5 Q 178 0 173 0 L 128 0 L 128 0 Z"/>
</svg>
