<svg xmlns="http://www.w3.org/2000/svg" viewBox="0 0 512 384">
    <path d="M 74 0 Q 85 22 105 35 L 105 35 Q 126 48 152 48 L 216 48 L 224 48 L 224 128 L 32 128 Q 18 128 9 119 Q 0 110 0 96 L 0 32 Q 0 18 9 9 Q 18 0 32 0 L 74 0 L 74 0 Z M 480 128 L 288 128 L 288 48 L 360 48 Q 386 48 407 35 Q 427 22 438 0 L 480 0 Q 494 0 503 9 Q 512 18 512 32 L 512 96 Q 512 110 503 119 Q 494 128 480 128 L 480 128 Z M 32 160 L 224 160 L 224 384 L 80 384 Q 60 383 46 370 Q 33 356 32 336 L 32 160 L 32 160 Z M 288 384 L 288 160 L 480 160 L 480 336 Q 479 356 466 370 Q 452 383 432 384 L 288 384 L 288 384 Z"/>
</svg>
