<svg xmlns="http://www.w3.org/2000/svg" viewBox="0 0 512 512">
    <path d="M 64 256 Q 66 174 120 120 L 120 120 Q 174 66 256 64 Q 338 66 392 120 Q 446 174 448 256 L 448 352 Q 448 366 457 375 Q 466 384 480 384 Q 494 384 503 375 Q 512 366 512 352 L 512 256 Q 511 184 477 127 Q 443 69 385 35 Q 328 1 256 0 Q 184 1 127 35 Q 69 69 35 127 Q 1 184 0 256 Q 1 328 35 385 Q 69 443 127 477 Q 184 511 256 512 Q 339 511 402 466 Q 413 458 415 445 Q 418 433 410 422 Q 402 411 390 408 Q 377 406 366 414 Q 318 447 256 448 Q 174 446 120 392 Q 66 338 64 256 L 64 256 Z M 256 352 Q 230 352 208 339 L 208 339 Q 186 326 173 304 Q 160 281 160 256 Q 160 231 173 208 Q 186 186 208 173 Q 230 160 256 160 Q 282 160 304 173 Q 326 186 339 208 Q 352 231 352 256 Q 352 281 339 304 Q 326 326 304 339 Q 282 352 256 352 L 256 352 Z M 96 256 Q 96 299 117 336 L 117 336 Q 139 373 176 395 Q 214 416 256 416 Q 298 416 336 395 Q 373 373 395 336 Q 416 299 416 256 Q 416 213 395 176 Q 373 139 336 117 Q 298 96 256 96 Q 214 96 176 117 Q 139 139 117 176 Q 96 213 96 256 L 96 256 Z M 320 256 Q 319 220 288 201 Q 256 183 224 201 Q 193 220 192 256 Q 193 292 224 311 Q 256 329 288 311 Q 319 292 320 256 L 320 256 Z"/>
</svg>
