<svg xmlns="http://www.w3.org/2000/svg" viewBox="0 0 384 160">
    <path d="M 261 0 L 32 0 Q 18 0 9 9 Q 0 18 0 32 Q 0 46 9 55 Q 18 64 32 64 L 156 64 L 247 12 Q 255 7 261 0 L 261 0 Z M 100 96 L 32 96 Q 18 96 9 105 Q 0 114 0 128 Q 0 142 9 151 Q 18 160 32 160 L 52 160 Q 64 120 100 96 L 100 96 Z M 123 160 L 352 160 Q 366 160 375 151 Q 384 142 384 128 Q 384 114 375 105 Q 366 96 352 96 L 229 96 L 137 149 Q 129 153 123 160 L 123 160 Z M 284 64 L 352 64 Q 366 64 375 55 Q 384 46 384 32 Q 384 18 375 9 Q 366 0 352 0 L 332 0 Q 320 40 284 64 L 284 64 Z"/>
</svg>
