<svg xmlns="http://www.w3.org/2000/svg" viewBox="0 0 256 416">
    <path d="M 128 0 Q 114 0 105 9 L 105 9 Q 96 18 96 32 Q 96 46 105 55 Q 114 64 128 64 L 160 64 Q 174 64 183 73 Q 192 82 192 96 Q 192 110 183 119 Q 174 128 160 128 L 32 128 Q 18 128 9 137 Q 0 146 0 160 Q 0 174 9 183 Q 18 192 32 192 L 160 192 Q 201 191 228 164 Q 255 137 256 96 Q 255 55 228 28 Q 201 1 160 0 L 128 0 L 128 0 Z M 128 416 L 152 416 Q 193 415 220 388 Q 247 361 248 320 Q 247 279 220 252 Q 193 225 152 224 L 32 224 Q 18 224 9 233 Q 0 242 0 256 Q 0 270 9 279 Q 18 288 32 288 L 152 288 Q 166 288 175 297 Q 184 306 184 320 Q 184 334 175 343 Q 166 352 152 352 L 128 352 Q 114 352 105 361 Q 96 370 96 384 Q 96 398 105 407 Q 114 416 128 416 L 128 416 Z"/>
</svg>
