<svg xmlns="http://www.w3.org/2000/svg" viewBox="0 0 388 448">
    <path d="M 66 0 Q 52 0 43 9 L 43 9 Q 34 18 34 32 L 34 128 Q 34 142 43 151 Q 52 160 66 160 L 322 160 Q 336 160 345 151 Q 354 142 354 128 L 354 32 Q 354 18 345 9 Q 336 0 322 0 L 66 0 L 66 0 Z M 5 429 Q 0 435 3 441 L 3 441 Q 5 447 13 448 L 53 448 Q 66 448 75 439 L 130 384 L 66 384 Q 58 384 51 383 L 5 429 L 5 429 Z M 313 439 Q 322 448 335 448 L 375 448 Q 383 447 385 441 Q 388 435 383 429 L 337 383 Q 330 384 322 384 L 258 384 L 313 439 L 313 439 Z"/>
</svg>
