<svg xmlns="http://www.w3.org/2000/svg" viewBox="0 0 458 512">
    <path d="M 450 398 Q 450 398 450 398 L 450 398 Q 450 397 450 397 Q 458 378 445 363 L 437 354 Q 390 300 389 227 L 389 208 Q 388 149 352 106 Q 317 63 261 51 L 261 32 Q 261 18 252 9 Q 243 0 229 0 Q 215 0 206 9 Q 197 18 197 32 L 197 51 Q 131 66 95 121 L 450 398 L 450 398 Z M 315 416 L 69 222 L 69 227 Q 68 300 21 355 L 13 363 Q 0 378 8 397 Q 17 415 37 416 L 315 416 L 315 416 Z M 274 493 Q 293 474 293 448 L 229 448 L 165 448 Q 165 474 184 493 Q 203 512 229 512 Q 255 512 274 493 L 274 493 Z"/>
</svg>
