<svg xmlns="http://www.w3.org/2000/svg" viewBox="0 0 640 380">
    <path d="M 91 43 Q 101 23 84 10 Q 64 0 51 17 Q 1 93 0 190 Q 1 287 51 363 Q 64 380 84 370 Q 101 357 91 337 Q 49 272 48 190 Q 49 108 91 43 L 91 43 Z M 589 17 Q 576 0 556 10 Q 539 23 549 43 Q 591 108 592 190 Q 591 272 549 337 Q 539 357 556 370 Q 576 380 589 363 Q 639 287 640 190 Q 639 93 589 17 L 589 17 Z M 320 62 Q 298 64 296 86 L 296 198 Q 298 220 320 222 Q 342 220 344 198 L 344 86 Q 342 64 320 62 L 320 62 Z M 352 286 Q 352 272 343 263 L 343 263 Q 334 254 320 254 Q 306 254 297 263 Q 288 272 288 286 Q 288 300 297 309 Q 306 318 320 318 Q 334 318 343 309 Q 352 300 352 286 L 352 286 Z"/>
</svg>
