<svg xmlns="http://www.w3.org/2000/svg" viewBox="0 0 134 516">
    <path d="M 77 8 Q 67 0 57 8 L 9 48 Q 0 56 5 68 L 5 68 L 5 68 L 5 68 L 5 68 L 5 68 Q 6 69 7 71 Q 7 72 8 74 Q 9 76 11 79 Q 17 91 24 109 Q 32 127 37 146 Q 43 165 43 180 Q 43 195 37 214 Q 32 233 24 251 Q 17 269 11 281 Q 8 286 7 289 Q 6 291 5 292 L 5 292 L 5 292 L 5 292 L 5 292 L 5 292 Q 0 304 9 312 L 51 348 L 51 367 L 68 378 L 83 367 L 83 348 L 125 312 Q 134 304 129 292 L 129 292 L 129 292 L 129 292 L 129 292 Q 128 291 127 289 Q 127 288 126 286 Q 125 284 123 281 Q 117 269 110 251 Q 102 233 97 214 Q 91 195 91 180 Q 91 165 97 146 Q 102 127 110 109 Q 117 91 123 79 Q 126 74 127 71 Q 128 69 129 68 L 129 68 L 129 68 L 129 68 L 129 68 L 129 68 L 129 68 Q 134 56 125 48 L 77 8 L 77 8 Z M 99 484 Q 98 465 83 456 L 83 427 L 68 417 L 51 428 L 51 456 Q 36 465 35 484 Q 35 498 44 507 Q 53 516 67 516 Q 81 516 90 507 Q 99 498 99 484 L 99 484 Z"/>
</svg>
