<svg xmlns="http://www.w3.org/2000/svg" viewBox="0 0 256 240">
    <path d="M 0 32 Q 1 18 10 9 L 10 9 Q 19 0 32 0 Q 46 0 55 9 Q 64 18 64 32 Q 64 46 55 55 Q 46 64 32 64 Q 19 64 10 55 Q 1 46 0 32 L 0 32 Z M 256 193 Q 255 213 242 226 L 242 226 Q 228 240 208 240 Q 188 240 174 226 Q 161 213 160 193 Q 161 177 176 153 Q 190 130 202 115 Q 208 109 214 115 Q 226 130 240 153 Q 255 177 256 193 L 256 193 Z M 192 0 Q 206 0 215 9 L 215 9 Q 224 18 224 32 Q 224 46 215 55 Q 206 64 192 64 Q 179 64 170 55 Q 161 46 160 32 Q 161 18 170 9 Q 179 0 192 0 L 192 0 Z"/>
</svg>
