<svg xmlns="http://www.w3.org/2000/svg" viewBox="0 0 416 512">
    <path d="M 184 48 L 264 48 Q 271 49 272 56 L 272 96 L 176 96 L 176 56 Q 177 49 184 48 L 184 48 Z M 128 56 L 128 96 L 128 320 L 320 320 L 320 96 L 320 56 Q 319 32 304 16 Q 288 1 264 0 L 184 0 Q 160 1 144 16 Q 129 32 128 56 L 128 56 Z M 352 320 L 368 320 Q 388 319 402 306 Q 415 292 416 272 L 416 144 Q 415 124 402 110 Q 388 97 368 96 L 352 96 L 352 320 L 352 320 Z M 80 96 Q 60 97 46 110 L 46 110 Q 33 124 32 144 L 32 272 Q 33 292 46 306 Q 60 319 80 320 L 96 320 L 96 96 L 80 96 L 80 96 Z M 0 464 Q 1 484 14 498 L 14 498 Q 28 511 48 512 Q 68 511 82 498 Q 95 484 96 464 Q 96 456 93 448 L 3 448 Q 0 456 0 464 L 0 464 Z M 288 464 Q 289 484 302 498 L 302 498 Q 316 511 336 512 Q 356 511 370 498 Q 383 484 384 464 Q 384 456 381 448 L 291 448 Q 288 456 288 464 L 288 464 Z"/>
</svg>
