<svg xmlns="http://www.w3.org/2000/svg" viewBox="0 0 224 464">
    <path d="M 191 66 Q 222 78 224 112 L 224 136 Q 222 158 200 160 L 112 160 L 24 160 Q 2 158 0 136 L 0 112 Q 2 78 33 66 Q 39 37 60 19 Q 82 1 112 0 Q 142 1 164 19 Q 185 37 191 66 L 191 66 Z M 136 80 Q 134 58 112 56 Q 90 58 88 80 Q 90 102 112 104 Q 134 102 136 80 L 136 80 Z M 26 245 Q 32 228 46 218 L 46 218 Q 60 208 79 208 L 137 208 Q 164 209 182 227 Q 199 244 200 271 Q 199 307 168 326 L 136 344 Q 134 366 112 368 Q 90 366 88 344 L 88 331 Q 88 317 100 310 L 144 284 Q 152 280 152 271 Q 151 257 137 256 L 79 256 Q 73 256 71 261 L 71 263 Q 61 283 40 277 Q 20 268 26 247 L 26 245 L 26 245 Z M 80 432 Q 80 418 89 409 L 89 409 Q 98 400 112 400 Q 126 400 135 409 Q 144 418 144 432 Q 144 446 135 455 Q 126 464 112 464 Q 98 464 89 455 Q 80 446 80 432 L 80 432 Z"/>
</svg>
