<svg xmlns="http://www.w3.org/2000/svg" viewBox="0 0 516 516">
    <path d="M 292 19 Q 288 21 285 23 L 258 40 Q 235 55 230 80 Q 224 104 238 128 Q 253 151 278 156 Q 302 162 326 148 L 334 143 L 333 141 L 293 21 L 292 19 L 292 19 Z M 362 128 Q 364 128 365 128 Q 365 128 365 128 Q 365 128 365 128 L 365 128 L 377 117 L 457 37 L 460 33 Q 420 1 365 0 Q 343 0 322 6 L 323 11 L 362 128 L 362 128 Z M 483 56 L 479 59 L 399 139 L 388 151 L 388 151 Q 388 151 388 151 Q 388 151 388 151 L 388 151 L 393 153 L 512 192 Q 516 175 516 157 L 516 151 Q 515 96 483 56 L 483 56 Z M 501 223 L 383 183 L 375 181 Q 375 181 375 181 Q 375 181 375 181 L 304 225 L 421 299 L 424 301 L 442 290 Q 482 264 501 223 L 501 223 Z M 394 320 L 276 246 L 273 244 L 196 292 L 309 362 L 317 368 L 394 320 L 394 320 Z M 287 387 L 166 311 L 93 357 L 205 426 L 214 432 L 287 387 L 287 387 Z M 184 451 L 63 376 L 34 394 Q 11 409 6 434 Q 0 458 14 482 Q 29 505 54 510 Q 78 516 102 502 L 184 451 L 184 451 Z"/>
</svg>
