<svg xmlns="http://www.w3.org/2000/svg" viewBox="0 0 272 272">
    <path d="M 24 0 Q 2 2 0 24 Q 2 46 24 48 Q 109 50 165 107 Q 222 163 224 248 Q 226 270 248 272 Q 270 270 272 248 Q 271 179 238 123 Q 205 67 149 34 Q 93 1 24 0 L 24 0 Z M 24 96 Q 2 98 0 120 Q 2 142 24 144 Q 68 145 98 174 Q 127 204 128 248 Q 130 270 152 272 Q 174 270 176 248 Q 174 183 131 141 Q 89 98 24 96 L 24 96 Z M 32 272 Q 46 272 55 263 L 55 263 Q 64 254 64 240 Q 64 226 55 217 Q 46 208 32 208 Q 18 208 9 217 Q 0 226 0 240 Q 0 254 9 263 Q 18 272 32 272 L 32 272 Z"/>
</svg>
