<svg xmlns="http://www.w3.org/2000/svg" viewBox="0 0 640 480">
    <path d="M 496 0 Q 482 0 473 9 L 473 9 Q 464 18 464 32 L 464 275 L 439 249 Q 429 240 416 240 Q 403 240 393 249 Q 384 259 384 272 Q 384 285 393 295 L 473 375 Q 483 384 496 384 Q 509 384 519 375 L 599 295 Q 608 285 608 272 Q 608 259 599 249 Q 589 240 576 240 Q 563 240 553 249 L 528 275 L 528 32 Q 528 18 519 9 Q 510 0 496 0 L 496 0 Z M 32 416 Q 18 416 9 425 L 9 425 Q 0 434 0 448 Q 0 462 9 471 Q 18 480 32 480 L 608 480 Q 622 480 631 471 Q 640 462 640 448 Q 640 434 631 425 Q 622 416 608 416 L 32 416 L 32 416 Z"/>
</svg>
