<svg xmlns="http://www.w3.org/2000/svg" viewBox="0 0 578 519">
    <path d="M 169 2 Q 171 0 174 0 Q 183 1 181 10 Q 168 46 176 84 Q 184 122 212 149 Q 240 175 289 176 Q 338 175 366 149 Q 394 122 402 84 Q 410 46 397 10 Q 395 1 404 0 Q 407 0 409 2 Q 455 49 457 120 Q 457 160 440 193 Q 474 197 505 214 Q 557 244 577 296 Q 578 299 576 301 Q 572 307 566 303 Q 523 265 467 266 Q 410 266 372 324 Q 339 385 367 433 Q 395 481 450 497 Q 456 500 454 507 Q 452 509 449 510 Q 393 519 340 491 Q 309 473 289 447 Q 269 473 239 491 Q 185 519 129 510 Q 126 509 124 507 Q 122 500 128 497 Q 183 481 211 433 Q 239 385 206 324 Q 168 266 111 266 Q 55 265 13 303 Q 6 307 2 301 Q 0 299 1 296 Q 21 244 74 214 Q 104 197 138 193 Q 121 160 121 120 Q 123 49 169 2 L 169 2 Z M 289 320 Q 316 319 331 296 Q 343 272 331 248 Q 316 225 289 224 Q 262 225 247 248 Q 235 272 247 296 Q 262 319 289 320 L 289 320 Z"/>
</svg>
