<svg xmlns="http://www.w3.org/2000/svg" viewBox="0 0 224 384">
    <path d="M 112 96 Q 139 95 154 72 Q 166 48 154 24 Q 139 1 112 0 Q 85 1 70 24 Q 58 48 70 72 Q 85 95 112 96 L 112 96 Z M 112 384 Q 142 384 168 369 L 168 369 Q 194 354 209 328 Q 224 302 224 272 Q 224 242 209 216 Q 194 190 168 175 Q 142 160 112 160 Q 82 160 56 175 Q 30 190 15 216 Q 0 242 0 272 Q 0 302 15 328 Q 30 354 56 369 Q 82 384 112 384 L 112 384 Z M 48 272 Q 49 236 80 217 Q 112 199 144 217 Q 175 236 176 272 Q 175 308 144 327 Q 112 345 80 327 Q 49 308 48 272 L 48 272 Z"/>
</svg>
