<svg xmlns="http://www.w3.org/2000/svg" viewBox="0 0 432 432">
    <path d="M 222 199 Q 216 193 219 185 Q 223 177 231 176 L 416 176 Q 431 177 432 192 Q 430 269 381 335 Q 370 346 358 336 L 222 199 L 222 199 Z M 176 231 Q 177 223 185 219 Q 192 216 199 221 L 336 358 Q 345 370 335 381 Q 269 430 192 432 Q 177 431 176 416 L 176 231 L 176 231 Z M 219 134 Q 214 124 221 116 L 334 3 Q 338 0 347 3 Q 355 5 359 9 Q 409 60 425 126 Q 426 142 410 144 L 233 144 Q 223 143 219 134 L 219 134 Z M 116 221 Q 124 214 134 219 Q 143 223 144 233 L 144 410 Q 142 426 126 425 Q 60 409 9 359 Q 5 355 3 347 Q 0 338 3 334 L 116 221 L 116 221 Z"/>
</svg>
