<svg xmlns="http://www.w3.org/2000/svg" viewBox="0 0 256 384">
    <path d="M 32 0 L 224 0 Q 238 0 247 9 Q 256 18 256 32 L 256 96 Q 256 110 247 119 Q 238 128 224 128 L 32 128 Q 18 128 9 119 Q 0 110 0 96 L 0 32 Q 0 18 9 9 Q 18 0 32 0 L 32 0 Z M 160 288 Q 160 274 151 265 L 151 265 Q 142 256 128 256 Q 114 256 105 265 Q 96 274 96 288 Q 96 302 105 311 Q 114 320 128 320 Q 142 320 151 311 Q 160 302 160 288 L 160 288 Z M 32 288 Q 32 262 45 240 L 45 240 Q 58 218 80 205 Q 103 192 128 192 Q 153 192 176 205 Q 198 218 211 240 Q 224 262 224 288 Q 224 314 211 336 Q 198 358 176 371 Q 153 384 128 384 Q 103 384 80 371 Q 58 358 45 336 Q 32 314 32 288 L 32 288 Z"/>
</svg>
