<svg xmlns="http://www.w3.org/2000/svg" viewBox="0 0 512 344">
    <path d="M 464 291 Q 511 258 512 216 L 512 186 Q 492 210 464 227 L 464 291 L 464 291 Z M 336 273 L 336 338 Q 391 328 432 309 L 432 244 Q 389 264 336 273 L 336 273 Z M 208 342 Q 231 344 256 344 Q 281 344 304 342 L 304 278 Q 280 280 256 280 Q 232 280 208 278 L 208 342 L 208 342 Z M 80 244 L 80 309 Q 121 328 176 338 L 176 273 Q 123 264 80 244 L 80 244 Z M 48 227 Q 20 210 0 186 L 0 216 Q 1 258 48 291 L 48 227 L 48 227 Z M 64 96 Q 66 127 87 144 Q 105 161 131 171 Q 183 192 256 192 Q 329 192 381 171 Q 407 161 425 144 Q 446 127 448 96 Q 446 65 425 48 Q 407 31 381 21 Q 329 0 256 0 Q 183 0 131 21 Q 105 31 87 48 Q 66 65 64 96 L 64 96 Z M 256 160 Q 188 159 143 141 L 143 141 Q 98 123 96 96 Q 98 69 143 51 Q 188 33 256 32 Q 324 33 369 51 Q 414 69 416 96 Q 414 123 369 141 Q 324 159 256 160 L 256 160 Z"/>
</svg>
