<svg xmlns="http://www.w3.org/2000/svg" viewBox="0 0 522 513">
    <path d="M 496 193 Q 426 195 377 239 L 377 239 Q 328 284 321 353 L 320 353 L 256 353 Q 242 353 233 362 Q 224 371 224 385 L 224 449 L 224 473 Q 224 490 212 501 Q 201 513 184 513 L 160 513 L 128 513 Q 127 513 126 513 Q 125 513 124 513 Q 122 513 120 513 L 104 513 Q 87 513 76 501 Q 64 490 64 473 L 64 361 Q 64 360 64 358 L 64 289 L 32 289 Q 18 288 9 279 Q 0 270 0 257 Q 0 243 10 233 L 266 9 Q 277 0 288 1 Q 300 1 309 8 L 522 195 Q 509 193 496 193 L 496 193 Z"/>
</svg>
