<svg xmlns="http://www.w3.org/2000/svg" viewBox="0 0 422 288">
    <path d="M 324 16 Q 325 31 340 32 L 365 32 L 329 69 Q 322 76 325 86 Q 330 95 340 96 L 404 96 Q 419 95 420 80 Q 419 65 404 64 L 379 64 L 415 27 Q 422 20 419 10 Q 414 1 404 0 L 340 0 Q 325 1 324 16 L 324 16 Z M 164 80 Q 165 95 180 96 L 205 96 L 169 133 Q 162 140 165 150 Q 170 159 180 160 L 244 160 Q 259 159 260 144 Q 259 129 244 128 L 219 128 L 255 91 Q 262 84 259 74 Q 254 65 244 64 L 180 64 Q 165 65 164 80 L 164 80 Z M 295 238 Q 281 256 260 256 L 260 256 Q 239 256 225 238 Q 215 227 202 235 Q 192 245 199 258 Q 224 288 260 288 Q 296 288 321 258 Q 329 245 318 235 Q 305 228 295 238 L 295 238 Z M 33 238 Q 23 227 10 235 Q 0 245 7 258 Q 32 288 68 288 Q 104 288 129 258 Q 137 245 126 235 Q 113 228 103 238 Q 89 256 68 256 Q 47 256 33 238 L 33 238 Z"/>
</svg>
