<svg xmlns="http://www.w3.org/2000/svg" viewBox="0 0 256 256">
    <path d="M 0 128 Q 0 93 17 64 L 17 64 Q 34 35 64 17 Q 94 0 128 0 Q 162 0 192 17 Q 222 35 239 64 Q 256 93 256 128 Q 256 163 239 192 Q 222 221 192 239 Q 162 256 128 256 Q 94 256 64 239 Q 34 221 17 192 Q 0 163 0 128 L 0 128 Z M 128 96 Q 128 82 119 73 L 119 73 Q 110 64 96 64 Q 82 64 73 73 Q 64 82 64 96 Q 64 110 73 119 Q 82 128 96 128 Q 110 128 119 119 Q 128 110 128 96 L 128 96 Z M 144 192 Q 159 191 160 176 Q 159 161 144 160 Q 129 161 128 176 Q 129 191 144 192 L 144 192 Z"/>
</svg>
