<svg xmlns="http://www.w3.org/2000/svg" viewBox="0 0 576 352">
    <path d="M 576 0 L 0 0 L 0 288 Q 1 315 19 333 Q 37 351 64 352 L 512 352 Q 539 351 557 333 Q 575 315 576 288 L 576 0 L 576 0 Z M 108 256 Q 81 222 80 176 Q 81 130 108 96 L 160 96 L 160 256 L 108 256 L 108 256 Z M 468 256 L 416 256 L 416 96 L 468 96 Q 495 130 496 176 Q 495 222 468 256 L 468 256 Z M 256 96 L 320 96 Q 334 96 343 105 Q 352 114 352 128 L 352 224 Q 352 238 343 247 Q 334 256 320 256 L 256 256 Q 242 256 233 247 Q 224 238 224 224 L 224 128 Q 224 114 233 105 Q 242 96 256 96 L 256 96 Z"/>
</svg>
