<svg xmlns="http://www.w3.org/2000/svg" viewBox="0 0 512 512">
    <path d="M 288 32 Q 288 18 279 9 L 279 9 Q 270 0 256 0 Q 242 0 233 9 Q 224 18 224 32 L 224 83 L 215 73 Q 205 64 192 64 Q 179 64 169 73 Q 160 83 160 96 Q 160 109 169 119 L 233 183 Q 243 192 256 192 Q 269 192 279 183 L 343 119 Q 352 109 352 96 Q 352 83 343 73 Q 333 64 320 64 Q 307 64 297 73 L 288 83 L 288 32 L 288 32 Z M 393 343 Q 403 352 416 352 L 416 352 Q 429 352 439 343 Q 448 333 448 320 Q 448 307 439 297 L 429 288 L 480 288 Q 494 288 503 279 Q 512 270 512 256 Q 512 242 503 233 Q 494 224 480 224 L 429 224 L 439 215 Q 448 205 448 192 Q 448 179 439 169 Q 429 160 416 160 Q 403 160 393 169 L 329 233 Q 320 243 320 256 Q 320 269 329 279 L 393 343 L 393 343 Z M 119 169 Q 109 160 96 160 L 96 160 Q 83 160 73 169 Q 64 179 64 192 Q 64 205 73 215 L 83 224 L 32 224 Q 18 224 9 233 Q 0 242 0 256 Q 0 270 9 279 Q 18 288 32 288 L 83 288 L 73 297 Q 64 307 64 320 Q 64 333 73 343 Q 83 352 96 352 Q 109 352 119 343 L 183 279 Q 192 269 192 256 Q 192 243 183 233 L 119 169 L 119 169 Z M 169 439 Q 179 448 192 448 L 192 448 Q 205 448 215 439 L 224 429 L 224 480 Q 224 494 233 503 Q 242 512 256 512 Q 270 512 279 503 Q 288 494 288 480 L 288 429 L 297 439 Q 307 448 320 448 Q 333 448 343 439 Q 352 429 352 416 Q 352 403 343 393 L 279 329 Q 269 320 256 320 Q 243 320 233 329 L 169 393 Q 160 403 160 416 Q 160 429 169 439 L 169 439 Z M 256 224 Q 242 224 233 233 L 233 233 Q 224 242 224 256 Q 224 270 233 279 Q 242 288 256 288 Q 270 288 279 279 Q 288 270 288 256 Q 288 242 279 233 Q 270 224 256 224 L 256 224 Z"/>
</svg>
