<svg xmlns="http://www.w3.org/2000/svg" viewBox="0 0 576 480">
    <path d="M 64 0 L 96 0 L 96 352 Q 96 366 105 375 Q 114 384 128 384 L 192 384 Q 206 384 215 375 Q 224 366 224 352 L 224 0 L 512 0 Q 539 1 557 19 Q 575 37 576 64 L 576 416 Q 575 443 557 461 Q 539 479 512 480 L 64 480 Q 37 479 19 461 Q 1 443 0 416 L 0 64 Q 1 37 19 19 Q 37 1 64 0 L 64 0 Z M 352 64 Q 338 64 329 73 L 329 73 Q 320 82 320 96 L 320 128 Q 320 142 329 151 Q 338 160 352 160 L 480 160 Q 494 160 503 151 Q 512 142 512 128 L 512 96 Q 512 82 503 73 Q 494 64 480 64 L 352 64 L 352 64 Z M 320 256 Q 320 270 329 279 L 329 279 Q 338 288 352 288 Q 366 288 375 279 Q 384 270 384 256 Q 384 242 375 233 Q 366 224 352 224 Q 338 224 329 233 Q 320 242 320 256 L 320 256 Z M 480 224 Q 466 224 457 233 L 457 233 Q 448 242 448 256 Q 448 270 457 279 Q 466 288 480 288 Q 494 288 503 279 Q 512 270 512 256 Q 512 242 503 233 Q 494 224 480 224 L 480 224 Z M 448 384 Q 448 398 457 407 L 457 407 Q 466 416 480 416 Q 494 416 503 407 Q 512 398 512 384 Q 512 370 503 361 Q 494 352 480 352 Q 466 352 457 361 Q 448 370 448 384 L 448 384 Z M 352 352 Q 338 352 329 361 L 329 361 Q 320 370 320 384 Q 320 398 329 407 Q 338 416 352 416 Q 366 416 375 407 Q 384 398 384 384 Q 384 370 375 361 Q 366 352 352 352 L 352 352 Z"/>
</svg>
