<svg xmlns="http://www.w3.org/2000/svg" viewBox="0 0 512 448">
    <path d="M 80 0 Q 46 1 23 23 L 23 23 Q 1 46 0 80 L 0 368 Q 1 402 23 425 Q 46 447 80 448 L 432 448 Q 466 447 489 425 Q 511 402 512 368 L 512 80 Q 511 46 489 23 Q 466 1 432 0 L 80 0 L 80 0 Z M 112 224 L 130 152 Q 137 129 161 128 L 351 128 Q 375 129 382 152 L 400 224 L 112 224 L 112 224 Z M 64 320 Q 64 306 73 297 L 73 297 Q 82 288 96 288 Q 110 288 119 297 Q 128 306 128 320 Q 128 334 119 343 Q 110 352 96 352 Q 82 352 73 343 Q 64 334 64 320 L 64 320 Z M 416 288 Q 430 288 439 297 L 439 297 Q 448 306 448 320 Q 448 334 439 343 Q 430 352 416 352 Q 402 352 393 343 Q 384 334 384 320 Q 384 306 393 297 Q 402 288 416 288 L 416 288 Z"/>
</svg>
