<svg xmlns="http://www.w3.org/2000/svg" viewBox="0 0 288 448">
    <path d="M 0 32 Q 0 18 9 9 L 9 9 Q 18 0 32 0 L 64 0 Q 78 0 87 9 Q 96 18 96 32 Q 96 46 87 55 Q 78 64 64 64 L 32 64 Q 18 64 9 55 Q 0 46 0 32 L 0 32 Z M 0 160 Q 0 146 9 137 L 9 137 Q 18 128 32 128 L 128 128 Q 142 128 151 137 Q 160 146 160 160 Q 160 174 151 183 Q 142 192 128 192 L 32 192 Q 18 192 9 183 Q 0 174 0 160 L 0 160 Z M 0 288 Q 0 274 9 265 L 9 265 Q 18 256 32 256 L 192 256 Q 206 256 215 265 Q 224 274 224 288 Q 224 302 215 311 Q 206 320 192 320 L 32 320 Q 18 320 9 311 Q 0 302 0 288 L 0 288 Z M 0 416 Q 0 402 9 393 L 9 393 Q 18 384 32 384 L 256 384 Q 270 384 279 393 Q 288 402 288 416 Q 288 430 279 439 Q 270 448 256 448 L 32 448 Q 18 448 9 439 Q 0 430 0 416 L 0 416 Z"/>
</svg>
