<svg xmlns="http://www.w3.org/2000/svg" viewBox="0 0 586 517">
    <path d="M 293 192 Q 348 191 380 178 L 380 178 Q 411 165 424 153 L 424 153 Q 437 140 437 139 L 437 139 Q 437 139 437 139 Q 437 88 402 45 Q 366 3 293 0 Q 220 3 184 45 Q 149 88 149 139 Q 149 140 162 153 Q 175 165 206 178 Q 238 191 293 192 L 293 192 Z M 7 478 Q 0 498 19 510 Q 39 517 51 498 L 143 304 Q 118 298 96 290 L 7 478 L 7 478 Z M 535 498 Q 547 517 567 510 Q 586 498 579 478 L 490 290 Q 468 298 443 304 L 535 498 L 535 498 Z"/>
</svg>
