<svg xmlns="http://www.w3.org/2000/svg" viewBox="0 0 512 384">
    <path d="M 64 0 Q 37 1 19 19 L 19 19 Q 1 37 0 64 L 0 320 Q 1 347 19 365 Q 37 383 64 384 L 448 384 Q 475 383 493 365 Q 511 347 512 320 L 512 64 Q 511 37 493 19 Q 475 1 448 0 L 64 0 L 64 0 Z M 384 192 Q 420 193 439 224 Q 457 256 439 288 Q 420 319 384 320 Q 348 319 329 288 Q 311 256 329 224 Q 348 193 384 192 L 384 192 Z M 64 224 Q 65 209 80 208 L 208 208 Q 223 209 224 224 Q 223 239 208 240 L 80 240 Q 65 239 64 224 L 64 224 Z M 80 288 Q 81 273 96 272 L 192 272 Q 207 273 208 288 Q 207 303 192 304 L 96 304 Q 81 303 80 288 L 80 288 Z M 96 64 L 416 64 Q 430 64 439 73 Q 448 82 448 96 Q 448 110 439 119 Q 430 128 416 128 L 96 128 Q 82 128 73 119 Q 64 110 64 96 Q 64 82 73 73 Q 82 64 96 64 L 96 64 Z"/>
</svg>
