<svg xmlns="http://www.w3.org/2000/svg" viewBox="0 0 324 448">
    <path d="M 162 96 Q 189 95 204 72 Q 216 48 204 24 Q 189 1 162 0 Q 135 1 120 24 Q 108 48 120 72 Q 135 95 162 96 L 162 96 Z M 154 448 L 154 352 L 170 352 L 170 448 L 234 448 L 234 257 L 263 304 Q 270 316 282 319 Q 295 322 307 315 Q 318 308 321 296 Q 324 283 317 271 L 259 174 Q 246 153 224 140 Q 202 128 177 128 L 147 128 Q 121 128 100 140 Q 78 153 65 174 L 7 271 Q 0 283 3 296 Q 6 308 17 315 Q 29 322 42 319 Q 54 316 61 304 L 90 257 L 90 448 L 154 448 L 154 448 Z"/>
</svg>
