<svg xmlns="http://www.w3.org/2000/svg" viewBox="0 0 449 387">
    <path d="M 312 370 Q 338 387 369 385 L 369 385 Q 399 382 423 359 Q 449 332 449 297 Q 449 262 423 235 Q 396 209 361 209 Q 326 209 299 235 L 333 269 Q 345 257 361 257 Q 377 257 389 269 Q 401 281 401 297 Q 401 313 389 325 Q 377 337 361 337 Q 345 337 333 325 L 251 244 Q 286 220 288 176 Q 288 150 274 130 Q 260 111 237 102 Q 240 91 240 80 Q 239 46 217 23 Q 194 1 160 0 Q 117 2 94 35 Q 83 2 48 0 Q 28 1 14 14 Q 1 28 0 48 Q 0 54 1 60 L 312 370 L 312 370 Z M 352 32 Q 352 18 343 9 L 343 9 Q 334 0 320 0 Q 306 0 297 9 Q 288 18 288 32 Q 288 46 297 55 Q 306 64 320 64 Q 334 64 343 55 Q 352 46 352 32 L 352 32 Z M 352 160 Q 366 160 375 151 L 375 151 Q 384 142 384 128 Q 384 114 375 105 Q 366 96 352 96 Q 338 96 329 105 Q 320 114 320 128 Q 320 142 329 151 Q 338 160 352 160 L 352 160 Z"/>
</svg>
