<svg xmlns="http://www.w3.org/2000/svg" viewBox="0 0 466 457">
    <path d="M 233 0 Q 197 1 178 32 Q 160 64 178 96 Q 197 127 233 128 Q 269 127 288 96 Q 306 64 288 32 Q 269 1 233 0 L 233 0 Z M 73 160 Q 37 161 18 192 Q 0 224 18 256 Q 37 287 73 288 Q 109 287 128 256 Q 146 224 128 192 Q 109 161 73 160 L 73 160 Z M 169 384 Q 170 420 201 439 Q 233 457 265 439 Q 296 420 297 384 Q 296 348 265 329 Q 233 311 201 329 Q 170 348 169 384 L 169 384 Z M 393 160 Q 357 161 338 192 Q 320 224 338 256 Q 357 287 393 288 Q 429 287 448 256 Q 466 224 448 192 Q 429 161 393 160 L 393 160 Z"/>
</svg>
