<svg xmlns="http://www.w3.org/2000/svg" viewBox="0 0 512 512">
    <path d="M 327 125 L 358 49 Q 362 39 371 36 Q 380 32 390 38 Q 422 57 447 85 Q 453 93 452 103 Q 450 112 442 118 L 374 163 Q 356 173 341 160 Q 340 159 339 159 Q 338 158 337 157 Q 322 144 327 125 L 327 125 Z M 313 6 Q 323 9 327 18 L 327 18 Q 332 27 328 37 L 298 113 Q 289 130 269 129 Q 262 128 256 128 Q 250 128 243 129 Q 223 130 214 113 L 184 37 Q 180 27 184 18 Q 189 9 199 6 Q 227 0 256 0 Q 285 0 313 6 L 313 6 Z M 71 119 Q 62 112 60 103 L 60 103 Q 59 93 66 85 Q 90 57 122 38 Q 132 32 141 36 Q 150 39 154 49 L 185 125 Q 190 144 175 157 Q 174 157 173 158 Q 172 159 171 160 Q 156 173 138 164 L 71 119 L 71 119 Z M 390 192 L 458 146 Q 467 140 477 143 Q 487 145 491 155 Q 507 191 511 232 Q 510 254 488 256 L 408 256 Q 387 254 382 232 Q 381 227 380 222 Q 375 203 390 192 L 390 192 Z M 21 155 Q 25 145 35 143 L 35 143 Q 45 140 54 146 L 123 192 Q 137 203 133 222 Q 131 227 130 232 Q 125 254 104 256 L 24 256 Q 2 254 1 232 Q 5 191 21 155 L 21 155 Z M 128 312 L 128 360 Q 126 382 104 384 L 24 384 Q 2 382 0 360 L 0 312 Q 2 290 24 288 L 104 288 Q 126 290 128 312 L 128 312 Z M 384 312 Q 386 290 408 288 L 488 288 Q 510 290 512 312 L 512 360 Q 510 382 488 384 L 408 384 Q 386 382 384 360 L 384 312 L 384 312 Z M 0 440 Q 2 418 24 416 L 104 416 Q 126 418 128 440 L 128 488 Q 126 510 104 512 L 24 512 Q 2 510 0 488 L 0 440 L 0 440 Z M 384 440 Q 386 418 408 416 L 488 416 Q 510 418 512 440 L 512 488 Q 510 510 488 512 L 408 512 Q 386 510 384 488 L 384 440 L 384 440 Z"/>
</svg>
