<svg xmlns="http://www.w3.org/2000/svg" viewBox="0 0 578 451">
    <path d="M 430 4 Q 408 0 401 21 L 377 111 Q 381 112 384 115 L 524 255 L 575 65 Q 578 56 573 47 Q 568 38 558 36 L 430 4 L 430 4 Z M 32 259 Q 46 259 55 250 L 55 250 Q 64 241 64 227 Q 64 213 55 204 Q 46 195 32 195 Q 18 195 9 204 Q 0 213 0 227 Q 0 241 9 250 Q 18 259 32 259 L 32 259 Z M 32 355 Q 46 355 55 346 L 55 346 Q 64 337 64 323 Q 64 309 55 300 Q 46 291 32 291 Q 18 291 9 300 Q 0 309 0 323 Q 0 337 9 346 Q 18 355 32 355 L 32 355 Z M 160 275 Q 160 261 151 252 L 151 252 Q 142 243 128 243 Q 114 243 105 252 Q 96 261 96 275 Q 96 289 105 298 Q 114 307 128 307 Q 142 307 151 298 Q 160 289 160 275 L 160 275 Z M 32 451 Q 46 451 55 442 L 55 442 Q 64 433 64 419 Q 64 405 55 396 Q 46 387 32 387 Q 18 387 9 396 Q 0 405 0 419 Q 0 433 9 442 Q 18 451 32 451 L 32 451 Z M 160 371 Q 160 357 151 348 L 151 348 Q 142 339 128 339 Q 114 339 105 348 Q 96 357 96 371 Q 96 385 105 394 Q 114 403 128 403 Q 142 403 151 394 Q 160 385 160 371 L 160 371 Z"/>
</svg>
