<svg xmlns="http://www.w3.org/2000/svg" viewBox="0 0 328 461">
    <path d="M 168 88 Q 121 86 95 70 L 76 11 Q 72 1 61 0 Q 61 0 62 0 Q 62 0 62 0 Q 91 3 106 19 Q 113 26 128 33 Q 143 39 168 40 Q 193 39 208 33 Q 223 26 230 19 Q 245 3 274 0 Q 274 0 274 0 Q 275 0 275 0 Q 264 1 260 11 L 241 70 Q 215 86 168 88 L 168 88 Z M 248 288 L 248 280 Q 250 258 272 256 Q 294 258 296 280 L 296 288 L 304 288 Q 326 290 328 312 Q 326 334 304 336 L 296 336 L 264 336 Q 249 335 248 320 L 248 288 L 248 288 Z M 0 416 Q 1 393 20 381 Q 40 371 60 381 Q 79 393 80 416 Q 79 439 60 451 Q 40 461 20 451 Q 1 439 0 416 L 0 416 Z"/>
</svg>
