<svg xmlns="http://www.w3.org/2000/svg" viewBox="0 0 512 448">
    <path d="M 0 32 Q 0 18 9 9 L 9 9 Q 18 0 32 0 L 96 0 Q 110 0 119 9 Q 128 18 128 32 L 128 178 L 128 183 L 128 233 L 320 124 L 320 178 L 320 183 L 320 233 L 512 124 L 512 272 L 512 400 Q 511 420 498 434 Q 484 447 464 448 L 48 448 Q 28 447 14 434 Q 1 420 0 400 L 0 320 L 0 272 L 0 32 L 0 32 Z M 104 280 Q 89 281 88 296 L 88 344 Q 89 359 104 360 L 152 360 Q 167 359 168 344 L 168 296 Q 167 281 152 280 L 104 280 L 104 280 Z M 232 280 Q 217 281 216 296 L 216 344 Q 217 359 232 360 L 280 360 Q 295 359 296 344 L 296 296 Q 295 281 280 280 L 232 280 L 232 280 Z M 344 296 L 344 344 Q 345 359 360 360 L 408 360 Q 423 359 424 344 L 424 296 Q 423 281 408 280 L 360 280 Q 345 281 344 296 L 344 296 Z"/>
</svg>
