<svg xmlns="http://www.w3.org/2000/svg" viewBox="0 0 448 293">
    <path d="M 160 24 Q 158 2 136 0 L 24 0 Q 2 2 0 24 Q 2 46 24 48 L 56 48 L 56 96 L 104 96 L 104 48 L 136 48 Q 158 46 160 24 L 160 24 Z M 288 80 L 288 96 L 448 96 L 448 80 Q 447 65 432 64 L 304 64 Q 289 65 288 80 L 288 80 Z M 427 213 Q 416 203 405 213 L 357 261 Q 347 272 357 283 Q 368 293 379 283 L 427 235 Q 437 224 427 213 L 427 213 Z M 64 208 L 64 272 Q 65 287 80 288 Q 95 287 96 272 L 96 208 Q 95 193 80 192 Q 65 193 64 208 L 64 208 Z"/>
</svg>
