<svg xmlns="http://www.w3.org/2000/svg" viewBox="0 0 488 512">
    <path d="M 478 191 Q 488 181 484 167 Q 477 149 468 132 L 464 124 Q 454 108 441 93 Q 431 82 417 86 L 377 99 Q 361 103 347 94 Q 340 89 332 86 Q 318 78 314 62 L 305 21 Q 301 7 286 4 Q 266 0 244 0 Q 222 0 202 4 Q 187 7 183 21 L 174 62 Q 170 78 156 85 Q 148 89 141 94 Q 127 103 111 99 L 71 86 Q 57 82 47 93 Q 34 108 25 124 L 20 132 Q 11 149 4 167 Q 0 181 10 191 L 41 219 Q 53 231 52 247 Q 52 251 52 256 Q 52 260 52 265 Q 52 265 52 265 Q 53 281 41 293 L 10 321 Q 0 331 4 345 Q 11 363 20 380 L 25 388 Q 34 404 47 419 Q 57 430 71 426 L 111 413 Q 126 409 141 418 Q 148 423 156 427 Q 170 434 174 450 L 183 491 Q 187 505 202 508 Q 222 512 244 512 Q 266 512 287 508 Q 301 505 305 491 L 314 450 Q 318 434 332 427 Q 340 422 348 418 Q 361 409 377 413 L 417 426 Q 431 430 441 419 Q 454 404 464 388 L 468 380 Q 477 363 484 345 Q 488 331 478 321 L 447 293 Q 435 281 436 265 Q 436 260 436 256 Q 436 252 436 247 Q 435 231 447 219 L 478 191 L 478 191 Z M 244 160 Q 270 160 292 173 L 292 173 Q 314 186 327 208 Q 340 231 340 256 Q 340 281 327 304 Q 314 326 292 339 Q 270 352 244 352 Q 218 352 196 339 Q 174 326 161 304 Q 148 281 148 256 Q 148 231 161 208 Q 174 186 196 173 Q 218 160 244 160 L 244 160 Z"/>
</svg>
