<svg xmlns="http://www.w3.org/2000/svg" viewBox="0 0 322 518">
    <path d="M 113 54 Q 114 27 137 12 Q 161 0 185 12 Q 208 27 209 54 Q 208 81 185 96 Q 161 108 137 96 Q 114 81 113 54 L 113 54 Z M 153 326 L 153 422 L 89 422 L 89 243 L 58 282 Q 49 292 37 294 Q 24 295 13 287 Q 3 278 1 266 Q 0 253 8 242 L 66 170 Q 95 135 141 134 L 181 134 Q 227 135 256 170 L 314 242 Q 322 253 321 266 Q 319 278 309 287 Q 298 295 285 294 Q 273 292 264 282 L 233 243 L 233 422 L 169 422 L 169 326 L 153 326 L 153 326 Z M 121 518 L 33 518 Q 19 518 10 509 Q 1 500 1 486 Q 1 472 10 463 Q 19 454 33 454 L 289 454 Q 303 454 312 463 Q 321 472 321 486 Q 321 500 312 509 Q 303 518 289 518 L 201 518 L 121 518 L 121 518 Z"/>
</svg>
