<svg xmlns="http://www.w3.org/2000/svg" viewBox="0 0 320 320">
    <path d="M 160 320 Q 203 320 240 299 L 240 299 Q 277 277 299 240 Q 320 202 320 160 Q 320 118 299 80 Q 277 43 240 21 Q 203 0 160 0 Q 117 0 80 21 Q 43 43 21 80 Q 0 118 0 160 Q 0 202 21 240 Q 43 277 80 299 Q 117 320 160 320 L 160 320 Z M 160 64 Q 186 64 208 77 L 208 77 Q 230 90 243 112 Q 256 135 256 160 Q 256 185 243 208 Q 230 230 208 243 Q 186 256 160 256 Q 134 256 112 243 Q 90 230 77 208 Q 64 185 64 160 Q 64 135 77 112 Q 90 90 112 77 Q 134 64 160 64 L 160 64 Z"/>
</svg>
