<svg xmlns="http://www.w3.org/2000/svg" viewBox="0 0 384 320">
    <path d="M 263 39 L 281 57 L 192 147 L 135 89 Q 125 80 112 80 Q 99 80 89 89 L 9 169 Q 0 179 0 192 Q 0 205 9 215 Q 19 224 32 224 Q 45 224 55 215 L 112 157 L 169 215 Q 179 224 192 224 Q 205 224 215 215 L 327 103 L 345 121 Q 352 128 361 128 Q 382 126 384 105 L 384 32 L 384 32 L 384 16 Q 383 1 368 0 L 279 0 Q 258 2 256 23 Q 256 32 263 39 L 263 39 Z M 327 217 L 292 183 L 247 228 L 281 263 L 263 281 Q 256 288 256 297 Q 258 318 279 320 L 368 320 Q 383 319 384 304 L 384 215 Q 382 194 361 192 Q 352 192 345 199 L 327 217 L 327 217 Z"/>
</svg>
