<svg xmlns="http://www.w3.org/2000/svg" viewBox="0 0 604 478">
    <path d="M 203 253 L 389 399 Q 351 410 313 401 Q 275 392 245 363 Q 200 315 203 253 L 203 253 Z M 99 171 L 149 211 L 87 273 Q 64 297 64 330 Q 64 362 88 387 Q 109 407 138 410 Q 166 412 191 395 L 193 394 Q 204 386 217 388 Q 229 391 238 401 Q 245 413 243 425 Q 241 438 230 446 L 229 447 Q 184 478 133 474 Q 81 469 42 432 Q 0 387 0 330 Q 0 272 42 227 L 99 171 L 99 171 Z M 314 160 Q 294 141 269 138 L 269 138 Q 244 134 221 145 L 168 103 Q 212 70 265 73 Q 318 76 359 115 Q 391 148 399 192 Q 407 235 389 277 L 336 235 Q 344 193 314 160 L 314 160 Z M 562 251 L 471 341 L 421 302 L 517 206 Q 540 181 540 149 Q 540 116 517 92 Q 495 71 466 68 Q 438 66 413 83 L 411 84 Q 400 92 387 90 Q 375 87 367 77 Q 359 65 361 53 Q 363 40 374 32 L 376 31 Q 420 0 471 4 Q 523 9 562 46 Q 604 91 604 148 Q 604 206 562 251 L 562 251 Z"/>
</svg>
