<svg xmlns="http://www.w3.org/2000/svg" viewBox="0 0 362 428">
    <path d="M 186 0 Q 261 2 310 52 L 310 52 Q 360 101 362 176 L 362 201 Q 362 242 357 284 Q 353 303 334 304 Q 322 304 315 295 Q 309 287 310 276 Q 314 239 314 201 L 314 176 Q 313 122 276 85 Q 240 49 186 48 Q 168 48 153 52 Q 135 57 123 44 Q 115 35 118 24 Q 120 13 131 9 Q 157 0 186 0 L 186 0 Z M 81 69 Q 92 85 81 103 Q 59 135 58 176 L 58 201 Q 58 244 48 287 Q 43 303 26 304 Q 14 304 7 294 Q 0 285 2 273 Q 10 237 10 201 L 10 176 Q 11 114 47 68 Q 54 60 64 60 Q 73 61 81 69 L 81 69 Z M 210 176 L 210 201 Q 210 300 174 393 L 168 409 Q 159 428 137 422 Q 118 413 124 391 L 130 376 Q 162 292 162 201 L 162 176 Q 164 154 186 152 Q 208 154 210 176 L 210 176 Z"/>
</svg>
