<svg xmlns="http://www.w3.org/2000/svg" viewBox="0 0 578 461">
    <path d="M 310 16 Q 289 0 268 16 L 12 240 Q 2 249 1 262 Q 0 275 9 285 Q 18 295 31 296 Q 44 297 54 288 L 289 83 L 524 288 Q 534 297 547 296 Q 560 295 569 285 Q 578 275 577 262 Q 576 249 566 240 L 310 16 L 310 16 Z M 177 325 Q 177 350 195 369 L 278 451 Q 289 461 300 451 L 383 369 Q 400 350 401 325 Q 400 299 383 282 Q 366 265 339 264 Q 314 264 296 282 L 289 289 L 281 282 Q 263 264 238 264 Q 212 265 195 282 Q 177 299 177 325 L 177 325 Z"/>
</svg>
