<svg xmlns="http://www.w3.org/2000/svg" viewBox="0 0 256 512">
    <path d="M 48 0 Q 28 1 14 14 L 14 14 Q 1 28 0 48 L 0 66 Q 8 64 16 64 L 240 64 Q 248 64 256 66 L 256 48 Q 255 28 242 14 Q 228 1 208 0 L 48 0 L 48 0 Z M 0 464 Q 1 484 14 498 L 14 498 Q 28 511 48 512 L 208 512 Q 228 511 242 498 Q 255 484 256 464 L 256 446 Q 248 448 240 448 L 16 448 Q 8 448 0 446 L 0 464 L 0 464 Z M 0 272 Q 2 294 24 296 Q 46 294 48 272 Q 46 250 24 248 Q 2 250 0 272 L 0 272 Z M 104 272 Q 106 294 128 296 Q 150 294 152 272 Q 150 250 128 248 Q 106 250 104 272 L 104 272 Z M 232 248 Q 210 250 208 272 Q 210 294 232 296 Q 254 294 256 272 Q 254 250 232 248 L 232 248 Z M 0 360 Q 2 382 24 384 Q 46 382 48 360 Q 46 338 24 336 Q 2 338 0 360 L 0 360 Z M 128 336 Q 106 338 104 360 Q 106 382 128 384 Q 150 382 152 360 Q 150 338 128 336 L 128 336 Z M 208 360 Q 210 382 232 384 Q 254 382 256 360 Q 254 338 232 336 Q 210 338 208 360 L 208 360 Z"/>
</svg>
