<svg xmlns="http://www.w3.org/2000/svg" viewBox="0 0 352 352">
    <path d="M 218 21 Q 197 0 168 0 Q 139 1 120 19 Q 100 36 96 64 L 32 64 Q 18 64 9 73 Q 0 82 0 96 Q 0 110 9 119 Q 18 128 32 128 L 128 128 L 144 128 Q 159 127 160 112 L 160 96 L 160 72 Q 161 65 168 64 Q 171 64 173 66 L 283 176 L 173 286 Q 171 288 168 288 Q 161 287 160 280 L 160 256 L 160 240 Q 159 225 144 224 L 128 224 L 32 224 L 32 288 L 96 288 Q 100 316 120 334 Q 139 351 168 352 Q 197 352 218 331 L 337 212 Q 352 197 352 176 Q 352 155 337 140 L 218 21 L 218 21 Z"/>
</svg>
