<svg xmlns="http://www.w3.org/2000/svg" viewBox="0 0 640 512">
    <path d="M 320 112 Q 368 111 399 79 L 399 79 Q 431 48 432 0 L 460 0 L 476 0 L 480 0 Q 481 0 482 0 Q 482 0 483 0 Q 534 5 560 50 L 626 171 Q 640 196 640 225 L 640 384 Q 640 398 631 407 Q 622 416 608 416 L 576 416 Q 562 416 553 407 Q 544 398 544 384 L 544 224 Q 544 220 542 217 L 496 133 L 496 448 Q 495 475 477 493 Q 459 511 432 512 L 208 512 Q 181 511 163 493 Q 145 475 144 448 L 144 133 L 98 217 Q 96 220 96 224 L 96 384 Q 96 398 87 407 Q 78 416 64 416 L 32 416 Q 18 416 9 407 Q 0 398 0 384 L 0 224 Q 0 196 14 170 L 80 50 Q 106 6 157 0 Q 158 0 159 0 Q 159 0 160 0 L 164 0 L 180 0 L 208 0 Q 209 48 241 79 Q 272 111 320 112 L 320 112 Z"/>
</svg>
