<svg xmlns="http://www.w3.org/2000/svg" viewBox="0 0 640 64">
    <path d="M 60 48 Q 51 63 32 64 Q 18 64 9 55 Q 0 46 0 32 Q 0 18 9 9 Q 18 0 32 0 Q 51 1 60 16 L 96 16 L 96 48 L 60 48 L 60 48 Z M 192 32 Q 192 18 201 9 L 201 9 Q 210 0 224 0 Q 238 0 247 9 Q 256 18 256 32 Q 256 46 247 55 Q 238 64 224 64 Q 210 64 201 55 Q 192 46 192 32 L 192 32 Z M 416 0 Q 430 0 439 9 L 439 9 Q 448 18 448 32 Q 448 46 439 55 Q 430 64 416 64 Q 402 64 393 55 Q 384 46 384 32 Q 384 18 393 9 Q 402 0 416 0 L 416 0 Z M 640 32 Q 640 46 631 55 L 631 55 Q 622 64 608 64 Q 589 63 580 48 L 544 48 L 544 16 L 580 16 Q 589 1 608 0 Q 622 0 631 9 Q 640 18 640 32 L 640 32 Z"/>
</svg>
