<svg xmlns="http://www.w3.org/2000/svg" viewBox="0 0 384 416">
    <path d="M 252 133 Q 257 128 266 127 L 266 127 Q 275 126 281 131 Q 298 144 320 144 Q 347 143 365 125 Q 383 107 384 80 Q 383 53 365 35 Q 347 17 320 16 Q 298 16 281 29 Q 275 34 266 33 Q 257 32 252 27 Q 229 1 192 0 Q 155 1 132 27 Q 127 32 118 33 Q 109 34 103 29 Q 86 16 64 16 Q 37 17 19 35 Q 1 53 0 80 Q 1 107 19 125 Q 37 143 64 144 Q 86 144 103 131 Q 109 126 118 127 Q 127 128 132 133 Q 155 159 192 160 Q 229 159 252 133 L 252 133 Z M 144 240 Q 143 225 128 224 Q 113 225 112 240 L 112 400 Q 113 415 128 416 Q 143 415 144 400 L 144 240 L 144 240 Z M 208 240 Q 207 225 192 224 Q 177 225 176 240 L 176 400 Q 177 415 192 416 Q 207 415 208 400 L 208 240 L 208 240 Z M 272 240 Q 271 225 256 224 Q 241 225 240 240 L 240 400 Q 241 415 256 416 Q 271 415 272 400 L 272 240 L 272 240 Z"/>
</svg>
