<svg xmlns="http://www.w3.org/2000/svg" viewBox="0 0 448 512">
    <path d="M 224 48 Q 259 49 286 68 L 286 68 Q 312 88 323 120 L 125 120 Q 136 88 162 68 Q 189 49 224 48 L 224 48 Z M 248 172 L 329 156 L 335 253 L 248 270 L 248 172 L 248 172 Z M 200 172 L 200 270 L 113 253 L 120 156 L 200 172 L 200 172 Z M 224 0 Q 162 1 120 41 L 120 41 Q 78 81 72 142 L 65 257 Q 64 272 73 283 Q 82 295 97 298 L 198 319 Q 206 320 214 320 L 234 320 Q 242 320 250 319 L 351 298 Q 366 295 375 283 Q 384 272 383 257 L 376 142 Q 370 81 328 41 Q 286 1 224 0 L 224 0 Z M 0 486 Q 2 510 26 512 L 160 512 L 160 472 Q 160 464 166 459 L 214 423 Q 224 417 234 423 L 282 459 Q 288 464 288 472 L 288 512 L 422 512 Q 446 510 448 486 Q 447 429 409 391 Q 371 353 314 352 L 134 352 Q 77 353 39 391 Q 1 429 0 486 L 0 486 Z"/>
</svg>
