<svg xmlns="http://www.w3.org/2000/svg" viewBox="0 0 564 522">
    <path d="M 163 33 L 214 11 Q 239 0 264 9 Q 288 19 300 44 L 323 95 Q 341 138 328 180 Q 323 187 317 193 Q 289 218 251 223 Q 235 226 221 232 Q 194 243 172 264 Q 151 286 140 312 Q 129 339 129 369 L 129 437 Q 130 473 155 496 L 121 511 Q 95 522 71 513 Q 46 503 34 478 L 12 427 Q 2 404 1 381 Q 0 358 9 334 Q 18 311 34 294 Q 43 285 54 278 Q 81 261 94 233 Q 103 203 94 173 Q 91 160 91 147 Q 90 124 99 101 L 99 100 Q 108 77 124 61 Q 140 44 163 33 L 163 33 Z M 526 133 Q 527 115 545 114 Q 563 115 564 133 Q 563 151 545 152 Q 527 151 526 133 L 526 133 Z M 526 197 Q 527 179 545 178 Q 563 179 564 197 Q 563 215 545 216 Q 527 215 526 197 L 526 197 Z M 462 197 Q 462 186 471 180 Q 481 175 491 180 Q 500 186 500 197 Q 500 208 491 214 Q 481 219 471 214 Q 462 208 462 197 L 462 197 Z M 238 421 Q 238 410 247 404 Q 257 399 267 404 Q 276 410 276 421 Q 276 432 267 438 Q 257 443 247 438 Q 238 432 238 421 L 238 421 Z M 321 402 Q 332 402 338 411 Q 343 421 338 431 Q 332 440 321 440 Q 310 440 304 431 Q 299 421 304 411 Q 310 402 321 402 L 321 402 Z M 321 338 Q 332 338 338 347 Q 343 357 338 367 Q 332 376 321 376 Q 310 376 304 367 Q 299 357 304 347 Q 310 338 321 338 L 321 338 Z"/>
</svg>
