<svg xmlns="http://www.w3.org/2000/svg" viewBox="0 0 384 512">
    <path d="M 192 512 Q 274 510 328 455 L 30 220 Q 2 277 0 320 Q 2 402 56 456 Q 110 510 192 512 L 192 512 Z M 78 136 L 377 371 Q 384 346 384 320 Q 382 273 349 210 Q 316 147 277 92 Q 238 37 217 12 Q 208 0 193 0 L 191 0 Q 176 0 167 12 Q 153 28 129 61 Q 105 94 78 136 L 78 136 Z M 96 336 Q 97 370 119 393 L 119 393 Q 142 415 176 416 Q 191 417 192 432 Q 191 447 176 448 Q 128 447 97 415 Q 65 384 64 336 Q 65 321 80 320 Q 95 321 96 336 L 96 336 Z"/>
</svg>
