<svg xmlns="http://www.w3.org/2000/svg" viewBox="0 0 512 376">
    <path d="M 416 48 Q 438 46 440 24 Q 438 2 416 0 Q 394 2 392 24 Q 394 46 416 48 L 416 48 Z M 64 184 Q 37 185 19 203 L 19 203 Q 1 221 0 248 L 0 312 Q 1 339 19 357 Q 37 375 64 376 L 448 376 Q 475 375 493 357 Q 511 339 512 312 L 512 248 Q 511 221 493 203 Q 475 185 448 184 L 64 184 L 64 184 Z M 344 256 Q 366 258 368 280 Q 366 302 344 304 Q 322 302 320 280 Q 322 258 344 256 L 344 256 Z M 400 280 Q 402 258 424 256 Q 446 258 448 280 Q 446 302 424 304 Q 402 302 400 280 L 400 280 Z"/>
</svg>
