<svg xmlns="http://www.w3.org/2000/svg" viewBox="0 0 512 384">
    <path d="M 0 64 Q 0 78 9 87 L 9 87 Q 18 96 32 96 L 240 96 L 240 32 L 32 32 Q 18 32 9 41 Q 0 50 0 64 L 0 64 Z M 312 224 L 311 224 Q 320 238 320 256 Q 320 276 309 292 Q 328 298 340 315 Q 352 331 352 352 Q 352 370 343 384 L 352 384 Q 420 382 465 337 Q 510 292 512 224 L 512 162 Q 511 96 465 49 L 454 38 Q 416 1 363 0 L 336 0 Q 309 1 291 19 Q 273 37 272 64 L 272 152 Q 272 169 284 180 Q 295 192 312 192 Q 329 192 340 180 Q 352 169 352 152 L 352 96 Q 353 81 368 80 Q 383 81 384 96 L 384 152 Q 383 183 363 203 Q 343 223 312 224 L 312 224 Z"/>
</svg>
