<svg xmlns="http://www.w3.org/2000/svg" viewBox="0 0 512 400">
    <path d="M 48 48 L 96 48 L 96 48 L 448 48 Q 448 48 449 48 Q 449 48 449 48 Q 466 49 480 57 L 480 57 Q 510 75 512 112 L 512 336 Q 511 363 493 381 Q 475 399 448 400 L 64 400 Q 37 399 19 381 Q 1 363 0 336 L 0 160 L 0 112 L 0 0 Q 1 20 14 34 Q 28 47 48 48 L 48 48 Z M 416 256 Q 430 256 439 247 L 439 247 Q 448 238 448 224 Q 448 210 439 201 Q 430 192 416 192 Q 402 192 393 201 Q 384 210 384 224 Q 384 238 393 247 Q 402 256 416 256 L 416 256 Z"/>
</svg>
