<svg xmlns="http://www.w3.org/2000/svg" viewBox="0 0 266 340">
    <path d="M 133 0 Q 156 1 168 20 Q 178 40 168 60 Q 156 79 133 80 Q 110 79 98 60 Q 88 40 98 20 Q 110 1 133 0 L 133 0 Z M 7 103 Q 17 83 38 90 L 50 95 Q 90 112 133 112 Q 176 112 216 95 L 228 90 Q 249 83 259 103 Q 266 124 246 134 L 235 139 Q 209 150 181 155 L 181 206 Q 181 212 183 218 L 212 304 Q 217 326 197 335 Q 175 340 166 319 L 142 246 Q 139 240 133 240 Q 126 240 124 246 L 100 319 Q 91 340 69 335 Q 49 326 54 304 L 83 218 Q 85 212 85 206 L 85 156 Q 57 150 31 139 L 20 134 Q 0 124 7 103 L 7 103 Z"/>
</svg>
