<svg xmlns="http://www.w3.org/2000/svg" viewBox="0 0 512 450">
    <path d="M 0 139 Q 1 80 41 41 L 41 41 Q 80 1 139 0 L 148 0 Q 214 2 256 47 Q 298 2 364 0 L 373 0 Q 432 1 471 41 Q 511 80 512 139 Q 511 201 484 253 Q 456 305 408 339 L 441 385 Q 450 399 447 415 Q 445 431 431 441 Q 417 450 401 447 Q 385 445 375 431 L 335 374 Q 302 384 267 384 L 256 384 L 245 384 Q 209 384 177 374 L 137 431 Q 127 445 111 447 Q 95 450 81 441 Q 67 431 65 415 Q 62 399 71 385 L 104 339 Q 56 305 28 253 Q 1 201 0 139 L 0 139 Z M 148 80 L 139 80 Q 114 81 97 97 Q 81 114 80 139 Q 80 181 99 216 Q 118 251 150 274 L 202 199 Q 216 179 216 155 L 216 148 Q 215 119 196 100 Q 177 81 148 80 L 148 80 Z M 227 303 Q 236 304 245 304 L 256 304 L 267 304 Q 276 304 285 303 L 256 262 L 227 303 L 227 303 Z M 362 274 Q 394 251 413 216 L 413 216 Q 432 181 432 139 Q 431 114 415 97 Q 398 81 373 80 L 364 80 Q 335 81 316 100 Q 297 119 296 148 L 296 156 Q 296 179 310 199 L 362 274 L 362 274 Z M 112 64 Q 127 63 128 48 Q 127 33 112 32 Q 97 33 96 48 Q 97 63 112 64 L 112 64 Z M 448 272 Q 447 257 432 256 Q 417 257 416 272 Q 417 287 432 288 Q 447 287 448 272 L 448 272 Z M 176 352 Q 191 351 192 336 Q 191 321 176 320 Q 161 321 160 336 Q 161 351 176 352 L 176 352 Z M 288 112 Q 287 97 272 96 Q 257 97 256 112 Q 257 127 272 128 Q 287 127 288 112 L 288 112 Z M 400 416 Q 415 415 416 400 Q 415 385 400 384 Q 385 385 384 400 Q 385 415 400 416 L 400 416 Z M 64 176 Q 63 161 48 160 Q 33 161 32 176 Q 33 191 48 192 Q 63 191 64 176 L 64 176 Z M 464 96 Q 479 95 480 80 Q 479 65 464 64 Q 449 65 448 80 Q 449 95 464 96 L 464 96 Z"/>
</svg>
