<svg xmlns="http://www.w3.org/2000/svg" viewBox="0 0 384 512">
    <path d="M 64 0 Q 37 1 19 19 L 19 19 Q 1 37 0 64 L 0 448 Q 1 475 19 493 Q 37 511 64 512 L 320 512 Q 325 512 330 511 Q 296 487 276 450 Q 256 413 256 368 Q 257 306 292 261 Q 328 215 384 199 L 384 64 Q 383 37 365 19 Q 347 1 320 0 L 64 0 L 64 0 Z M 80 128 L 304 128 Q 319 129 320 144 Q 319 159 304 160 L 80 160 Q 65 159 64 144 Q 65 129 80 128 L 80 128 Z M 64 240 Q 65 225 80 224 L 240 224 Q 255 225 256 240 Q 255 255 240 256 L 80 256 Q 65 255 64 240 L 64 240 Z M 64 336 Q 65 321 80 320 L 176 320 Q 191 321 192 336 Q 191 351 176 352 L 80 352 Q 65 351 64 336 L 64 336 Z"/>
</svg>
