<svg xmlns="http://www.w3.org/2000/svg" viewBox="0 0 448 320">
    <path d="M 416 0 Q 430 0 439 9 L 439 9 Q 448 18 448 32 Q 448 46 439 55 Q 430 64 416 64 L 128 64 L 128 0 L 416 0 L 416 0 Z M 32 0 L 64 0 L 64 64 L 32 64 Q 18 64 9 55 Q 0 46 0 32 Q 0 18 9 9 Q 18 0 32 0 L 32 0 Z M 32 320 Q 18 320 9 311 L 9 311 Q 0 302 0 288 Q 0 274 9 265 Q 18 256 32 256 L 320 256 L 320 320 L 32 320 L 32 320 Z M 416 320 L 384 320 L 384 256 L 416 256 Q 430 256 439 265 Q 448 274 448 288 Q 448 302 439 311 Q 430 320 416 320 L 416 320 Z"/>
</svg>
