<svg xmlns="http://www.w3.org/2000/svg" viewBox="0 0 323 520">
    <path d="M 98 54 Q 99 27 122 12 Q 146 0 170 12 Q 193 27 194 54 Q 193 81 170 96 Q 146 108 122 96 Q 99 81 98 54 L 98 54 Z M 52 187 Q 64 162 87 148 L 87 148 Q 110 134 138 134 L 162 134 Q 209 135 239 172 L 316 275 Q 323 286 322 299 Q 320 311 309 320 Q 298 327 285 326 Q 273 324 264 313 L 194 219 L 194 313 L 244 363 Q 258 377 258 397 L 258 486 Q 258 500 249 509 Q 240 518 226 518 Q 212 518 203 509 Q 194 500 194 486 L 194 403 L 117 326 Q 98 307 98 281 L 98 238 L 63 308 Q 56 320 44 324 Q 32 328 20 323 Q 8 316 4 304 Q 0 292 5 280 L 52 187 L 52 187 Z M 67 478 L 98 353 L 151 406 L 129 494 Q 126 507 115 513 Q 104 520 90 517 Q 77 513 71 502 Q 64 492 67 478 L 67 478 Z"/>
</svg>
