<svg xmlns="http://www.w3.org/2000/svg" viewBox="0 0 448 400">
    <path d="M 164 0 Q 144 1 135 18 L 128 32 L 32 32 Q 18 32 9 41 Q 0 50 0 64 Q 0 78 9 87 Q 18 96 32 96 L 416 96 Q 430 96 439 87 Q 448 78 448 64 Q 448 50 439 41 Q 430 32 416 32 L 320 32 L 313 18 Q 304 1 284 0 L 164 0 L 164 0 Z M 248 242 L 287 281 Q 304 295 321 281 Q 335 264 321 247 L 241 167 Q 234 160 224 160 Q 214 160 207 167 L 127 247 Q 113 264 127 281 Q 144 295 161 281 L 200 242 L 200 376 Q 202 398 224 400 Q 246 398 248 376 L 248 242 L 248 242 Z"/>
</svg>
