<svg xmlns="http://www.w3.org/2000/svg" viewBox="0 0 644 508">
    <path d="M 7 53 Q 0 32 12 16 L 12 16 Q 25 0 47 0 L 196 10 Q 209 11 217 20 Q 226 29 226 42 L 226 220 L 66 220 L 7 53 L 7 53 Z M 290 12 L 354 12 Q 368 12 377 21 Q 386 30 386 44 L 386 220 L 258 220 L 258 44 Q 258 30 267 21 Q 276 12 290 12 L 290 12 Z M 66 396 Q 66 366 81 340 L 81 340 Q 96 314 122 299 Q 148 284 178 284 Q 208 284 234 299 Q 260 314 275 340 Q 290 366 290 396 Q 290 426 275 452 Q 260 478 234 493 Q 208 508 178 508 Q 148 508 122 493 Q 96 478 81 452 Q 66 426 66 396 L 66 396 Z M 162 458 L 162 412 L 116 412 Q 126 448 162 458 L 162 458 Z M 116 380 L 162 380 L 162 334 Q 126 344 116 380 L 116 380 Z M 240 412 L 194 412 L 194 458 Q 230 448 240 412 L 240 412 Z M 240 380 Q 230 344 194 334 L 194 380 L 240 380 L 240 380 Z M 354 396 Q 354 366 369 340 L 369 340 Q 384 314 410 299 Q 436 284 466 284 Q 496 284 522 299 Q 548 314 563 340 Q 578 366 578 396 Q 578 426 563 452 Q 548 478 522 493 Q 496 508 466 508 Q 436 508 410 493 Q 384 478 369 452 Q 354 426 354 396 L 354 396 Z M 450 458 L 450 412 L 404 412 Q 414 448 450 458 L 450 458 Z M 404 380 L 450 380 L 450 334 Q 414 344 404 380 L 404 380 Z M 528 412 L 482 412 L 482 458 Q 518 448 528 412 L 528 412 Z M 528 380 Q 518 344 482 334 L 482 380 L 528 380 L 528 380 Z M 597 0 Q 619 0 632 16 L 632 16 Q 644 32 638 54 L 578 220 L 418 220 L 418 42 Q 418 29 427 20 Q 435 11 448 10 L 597 0 L 597 0 Z"/>
</svg>
