<svg xmlns="http://www.w3.org/2000/svg" viewBox="0 0 568 440">
    <path d="M 152 48 Q 130 46 128 24 Q 130 2 152 0 Q 174 2 176 24 Q 174 46 152 48 L 152 48 Z M 24 128 Q 46 130 48 152 Q 46 174 24 176 Q 2 174 0 152 Q 2 130 24 128 L 24 128 Z M 152 128 Q 174 130 176 152 Q 174 174 152 176 Q 130 174 128 152 Q 130 130 152 128 L 152 128 Z M 152 304 Q 130 302 128 280 Q 130 258 152 256 Q 174 258 176 280 Q 174 302 152 304 L 152 304 Z M 280 128 Q 302 130 304 152 Q 302 174 280 176 Q 258 174 256 152 Q 258 130 280 128 L 280 128 Z M 248 376 L 248 342 L 364 226 Q 386 204 392 175 Q 398 147 390 120 L 504 120 Q 531 121 549 139 Q 567 157 568 184 L 568 376 Q 567 403 549 421 Q 531 439 504 440 L 312 440 Q 285 439 267 421 Q 249 403 248 376 L 248 376 Z M 408 304 Q 430 302 432 280 Q 430 258 408 256 Q 386 258 384 280 Q 386 302 408 304 L 408 304 Z"/>
</svg>
