<svg xmlns="http://www.w3.org/2000/svg" viewBox="0 0 192 512">
    <path d="M 192 122 L 192 90 L 192 27 Q 162 24 133 31 L 64 48 L 64 32 Q 64 18 55 9 Q 46 0 32 0 Q 18 0 9 9 Q 0 18 0 32 L 0 64 L 0 121 L 0 154 L 0 217 L 0 250 L 0 313 L 0 346 L 0 416 L 0 480 Q 0 494 9 503 Q 18 512 32 512 Q 46 512 55 503 Q 64 494 64 480 L 64 400 L 64 332 L 64 299 L 64 236 L 64 224 L 64 203 L 128 190 Q 160 183 192 186 L 192 122 L 192 122 Z M 80 96 Q 81 81 96 80 Q 111 81 112 96 Q 111 111 96 112 Q 81 111 80 96 L 80 96 Z M 144 64 Q 159 65 160 80 Q 159 95 144 96 Q 129 95 128 80 Q 129 65 144 64 L 144 64 Z M 80 144 Q 81 129 96 128 Q 111 129 112 144 Q 111 159 96 160 Q 81 159 80 144 L 80 144 Z M 144 112 Q 159 113 160 128 Q 159 143 144 144 Q 129 143 128 128 Q 129 113 144 112 L 144 112 Z"/>
</svg>
