<svg xmlns="http://www.w3.org/2000/svg" viewBox="0 0 483 458">
    <path d="M 151 14 Q 168 0 185 14 L 265 94 Q 279 111 265 128 L 185 208 Q 168 222 151 208 Q 137 191 151 174 L 190 135 L 24 135 Q 2 133 0 111 Q 2 89 24 87 L 190 87 L 151 48 Q 137 31 151 14 L 151 14 Z M 24 367 Q 25 322 64 298 Q 104 276 144 298 Q 183 322 184 367 Q 183 412 144 436 Q 104 458 64 436 Q 25 412 24 367 L 24 367 Z M 392 287 Q 437 288 461 327 Q 483 367 461 407 Q 437 446 392 447 Q 347 446 323 407 Q 301 367 323 327 Q 347 288 392 287 L 392 287 Z"/>
</svg>
