<svg xmlns="http://www.w3.org/2000/svg" viewBox="0 0 583 528">
    <path d="M 217 118 Q 226 85 253 68 L 253 68 Q 280 51 313 58 Q 344 66 361 91 Q 378 117 374 148 Q 373 170 394 176 Q 416 177 422 156 Q 428 105 401 65 Q 374 24 324 11 Q 270 0 227 27 Q 184 55 170 107 Q 163 142 173 175 Q 183 207 208 230 L 137 344 Q 164 346 177 369 L 260 237 Q 265 228 263 219 Q 261 209 253 204 Q 231 190 221 167 Q 211 144 217 118 L 217 118 Z M 337 159 Q 324 182 297 184 L 380 316 Q 385 325 395 327 Q 404 329 413 324 Q 437 310 464 312 Q 491 315 512 335 Q 535 360 535 392 Q 535 424 512 449 Q 491 469 464 471 Q 437 474 413 460 Q 393 450 380 467 Q 370 487 387 501 Q 425 524 469 519 Q 512 515 546 483 Q 583 443 583 392 Q 583 341 546 302 Q 517 274 480 267 Q 444 259 409 273 L 337 159 L 337 159 Z M 117 287 Q 107 267 86 274 Q 43 293 21 333 Q 0 373 10 421 Q 24 474 67 501 Q 110 528 164 517 Q 202 507 228 480 Q 253 453 261 416 L 413 416 Q 407 405 407 392 Q 407 379 413 368 L 239 368 Q 229 368 222 375 Q 215 382 215 392 Q 215 420 198 441 Q 181 463 153 470 Q 120 477 93 460 Q 66 443 57 410 Q 51 380 64 355 Q 77 330 104 318 Q 124 308 117 287 L 117 287 Z"/>
</svg>
