<svg xmlns="http://www.w3.org/2000/svg" viewBox="0 0 384 512">
    <path d="M 48 0 Q 28 1 14 14 L 14 14 Q 1 28 0 48 L 0 128 L 112 128 Q 132 129 146 142 Q 159 156 160 176 L 160 208 Q 158 241 128 253 L 128 496 Q 128 504 125 512 L 336 512 Q 356 511 370 498 Q 383 484 384 464 L 384 48 Q 383 28 370 14 Q 356 1 336 0 L 48 0 L 48 0 Z M 315 325 Q 325 336 315 347 Q 304 357 293 347 L 256 311 L 256 432 Q 255 447 240 448 Q 225 447 224 432 L 224 311 L 187 347 Q 176 357 165 347 Q 155 336 165 325 L 229 261 Q 240 251 251 261 L 315 325 L 315 325 Z"/>
</svg>
