<svg xmlns="http://www.w3.org/2000/svg" viewBox="0 0 320 450">
    <path d="M 142 28 L 160 48 L 178 28 Q 203 1 239 0 L 240 0 Q 274 1 297 23 Q 319 46 320 80 Q 320 97 313 112 L 240 112 Q 254 112 263 103 Q 272 94 272 80 Q 272 66 263 57 Q 254 48 240 48 L 239 48 Q 237 48 236 48 Q 236 48 236 48 Q 223 50 214 59 L 180 99 Q 174 109 186 112 L 208 112 L 224 112 L 224 128 L 224 432 Q 224 442 215 447 Q 206 450 198 444 L 160 413 L 122 444 Q 114 450 105 447 Q 96 442 96 432 L 96 128 L 96 112 L 112 112 L 134 112 Q 146 109 140 99 L 106 59 Q 96 48 81 48 L 80 48 Q 66 48 57 57 Q 48 66 48 80 Q 48 94 57 103 Q 66 112 80 112 L 7 112 Q 0 97 0 80 Q 1 46 23 23 Q 46 1 80 0 L 81 0 Q 118 1 142 28 L 142 28 Z"/>
</svg>
