<svg xmlns="http://www.w3.org/2000/svg" viewBox="0 0 448 288">
    <path d="M 448 208 Q 447 242 424 264 L 424 264 Q 402 287 368 288 L 349 288 Q 355 272 349 256 Q 337 226 304 224 L 286 224 L 315 166 Q 322 150 319 134 Q 315 118 302 107 Q 289 96 272 96 Q 256 96 242 107 L 82 235 Q 60 254 65 283 Q 36 273 18 248 Q 1 224 0 192 Q 1 156 23 130 Q 45 104 80 97 L 80 96 Q 81 55 108 28 Q 135 1 176 0 Q 202 0 224 13 Q 245 25 258 47 Q 278 32 304 32 Q 338 33 361 56 Q 383 78 384 112 Q 384 121 382 129 Q 411 135 429 156 Q 447 178 448 208 L 448 208 Z"/>
</svg>
