<svg xmlns="http://www.w3.org/2000/svg" viewBox="0 0 315 448">
    <path d="M 0 198 Q 16 256 53 299 L 53 299 Q 90 342 113 360 Q 122 368 117 380 L 92 429 Q 91 432 91 435 Q 92 447 104 448 L 206 448 Q 218 447 219 435 Q 219 432 218 429 L 193 380 Q 188 368 197 360 Q 214 346 241 317 Q 269 288 291 247 Q 314 207 315 160 Q 313 92 268 47 Q 223 2 155 0 Q 114 0 81 18 Q 47 36 25 67 Q 27 81 27 96 Q 25 152 0 198 L 0 198 Z M 139 96 Q 119 97 105 110 L 105 110 Q 92 124 91 144 Q 90 159 75 160 Q 60 159 59 144 Q 60 110 82 87 Q 105 65 139 64 Q 154 65 155 80 Q 154 95 139 96 L 139 96 Z"/>
</svg>
