<svg xmlns="http://www.w3.org/2000/svg" viewBox="0 0 640 512">
    <path d="M 256 0 L 256 16 L 256 112 Q 256 121 265 126 Q 273 130 281 125 L 320 99 L 359 125 Q 367 130 376 126 Q 384 121 384 112 L 384 16 L 384 0 L 368 0 L 272 0 L 256 0 L 256 0 Z M 32 320 Q 18 320 9 329 L 9 329 Q 0 338 0 352 Q 0 366 9 375 Q 18 384 32 384 L 64 384 L 64 448 L 32 448 Q 18 448 9 457 Q 0 466 0 480 Q 0 494 9 503 Q 18 512 32 512 L 96 512 L 320 512 L 544 512 L 608 512 Q 622 512 631 503 Q 640 494 640 480 Q 640 466 631 457 Q 622 448 608 448 L 576 448 L 576 384 L 608 384 Q 622 384 631 375 Q 640 366 640 352 Q 640 338 631 329 Q 622 320 608 320 L 544 320 L 320 320 L 96 320 L 32 320 L 32 320 Z M 128 448 L 128 384 L 288 384 L 288 448 L 128 448 L 128 448 Z M 352 448 L 352 384 L 512 384 L 512 448 L 352 448 L 352 448 Z"/>
</svg>
