<svg xmlns="http://www.w3.org/2000/svg" viewBox="0 0 466 512">
    <path d="M 466 135 Q 439 125 418 144 Q 407 156 405 171 L 367 143 Q 350 132 331 138 Q 322 136 312 136 Q 275 137 250 162 Q 225 187 224 224 Q 225 255 242 277 Q 260 300 288 309 Q 288 310 288 312 Q 288 312 288 312 Q 288 329 300 340 Q 311 351 328 352 L 336 352 Q 336 352 336 353 Q 336 370 348 381 Q 359 392 376 393 L 441 393 Q 449 393 457 392 Q 422 447 366 479 Q 309 511 240 512 Q 157 511 93 466 Q 29 420 0 346 Q 19 353 39 353 L 104 353 Q 121 352 132 341 Q 144 330 144 313 Q 144 313 144 312 Q 144 312 144 312 L 152 312 Q 169 312 180 300 Q 192 289 192 272 Q 192 268 191 265 Q 207 253 208 232 Q 207 211 191 200 Q 192 196 192 192 Q 192 175 180 164 Q 169 152 152 152 L 77 152 L 78 151 Q 91 137 91 119 Q 91 102 78 88 Q 69 79 57 77 Q 93 41 139 21 Q 186 0 240 0 Q 314 1 373 37 Q 432 74 466 135 L 466 135 Z M 304 400 Q 303 380 285 366 L 285 366 Q 267 353 240 352 Q 213 353 195 366 Q 177 380 176 400 Q 177 420 195 434 Q 213 447 240 448 Q 267 447 285 434 Q 303 420 304 400 L 304 400 Z M 336 224 Q 336 233 330 240 L 295 240 Q 289 233 288 224 Q 290 202 312 200 Q 334 202 336 224 L 336 224 Z"/>
</svg>
