<svg xmlns="http://www.w3.org/2000/svg" viewBox="0 0 448 512">
    <path d="M 160 0 L 288 0 L 320 0 Q 334 0 343 9 Q 352 18 352 32 Q 352 46 343 55 Q 334 64 320 64 L 320 197 Q 320 215 330 230 L 438 406 Q 448 423 448 443 Q 447 472 428 492 Q 408 511 379 512 L 69 512 Q 40 511 20 492 Q 1 472 0 443 Q 0 423 10 406 L 119 230 Q 128 215 128 197 L 128 64 Q 114 64 105 55 Q 96 46 96 32 Q 96 18 105 9 Q 114 0 128 0 L 160 0 L 160 0 Z M 192 64 L 192 197 Q 192 233 173 264 L 65 440 Q 64 441 64 443 Q 64 448 69 448 L 379 448 Q 384 448 384 443 Q 384 441 383 440 L 275 264 Q 256 233 256 197 L 256 64 L 192 64 L 192 64 Z"/>
</svg>
