<svg xmlns="http://www.w3.org/2000/svg" viewBox="0 0 654 526">
    <path d="M 48 14 Q 31 0 14 14 Q 0 31 14 48 L 86 120 Q 103 134 120 120 Q 134 103 120 86 L 48 14 L 48 14 Z M 606 14 L 534 86 Q 520 103 534 120 Q 551 134 568 120 L 640 48 Q 654 31 640 14 Q 623 0 606 14 L 606 14 Z M 14 512 Q 31 526 48 512 L 120 440 Q 134 423 120 406 Q 103 392 86 406 L 14 478 Q 0 495 14 512 L 14 512 Z M 606 512 Q 623 526 640 512 Q 654 495 640 478 L 568 406 Q 551 392 534 406 Q 520 423 534 440 L 606 512 L 606 512 Z"/>
</svg>
