<svg xmlns="http://www.w3.org/2000/svg" viewBox="0 0 418 512">
    <path d="M 34 0 L 130 0 Q 140 0 144 9 L 160 41 Q 164 48 160 55 L 136 104 Q 110 96 82 96 Q 54 96 28 104 L 4 55 Q 0 48 4 41 L 20 9 Q 24 0 34 0 L 34 0 Z M 66 336 Q 67 287 90 248 L 90 248 Q 113 208 152 185 Q 178 205 189 238 Q 162 252 146 278 Q 130 304 130 336 Q 131 384 163 415 Q 194 447 242 448 Q 290 447 321 415 Q 353 384 354 336 Q 354 301 335 274 Q 317 247 286 233 Q 279 194 258 161 Q 327 168 372 217 Q 416 265 418 336 Q 416 411 366 460 Q 317 510 242 512 Q 167 510 118 460 Q 68 411 66 336 L 66 336 Z"/>
</svg>
