<svg xmlns="http://www.w3.org/2000/svg" viewBox="0 0 448 453">
    <path d="M 128 0 Q 114 0 105 9 L 105 9 Q 96 18 96 32 L 96 64 L 48 64 Q 28 65 14 78 Q 1 92 0 112 L 0 192 L 448 192 L 448 112 Q 447 92 434 78 Q 420 65 400 64 L 352 64 L 352 32 Q 352 18 343 9 Q 334 0 320 0 Q 306 0 297 9 Q 288 18 288 32 L 288 64 L 160 64 L 160 32 Q 160 18 151 9 Q 142 0 128 0 L 128 0 Z M 112 317 Q 112 342 130 361 L 213 443 Q 224 453 235 443 L 318 361 Q 335 342 336 317 Q 335 291 318 274 Q 301 257 275 256 Q 249 256 231 274 L 224 281 L 216 274 Q 198 256 173 256 Q 147 257 130 274 Q 112 291 112 317 L 112 317 Z"/>
</svg>
