<svg xmlns="http://www.w3.org/2000/svg" viewBox="0 0 516 320">
    <path d="M 98 0 Q 78 1 64 14 L 64 14 Q 51 28 50 48 L 50 206 Q 50 220 43 231 L 4 296 Q 0 304 4 312 Q 9 320 18 320 L 114 320 Q 129 319 130 304 L 130 192 L 175 237 Q 194 256 221 256 L 296 256 Q 322 256 341 237 L 386 192 L 386 304 Q 387 319 402 320 L 498 320 Q 507 320 512 312 Q 516 304 512 296 L 473 231 Q 466 220 466 206 L 466 48 Q 465 28 452 14 Q 438 1 418 0 L 98 0 L 98 0 Z M 210 64 L 306 64 Q 321 65 322 80 Q 321 95 306 96 L 210 96 Q 195 95 194 80 Q 195 65 210 64 L 210 64 Z M 210 128 L 306 128 Q 321 129 322 144 Q 321 159 306 160 L 210 160 Q 195 159 194 144 Q 195 129 210 128 L 210 128 Z"/>
</svg>
