<svg xmlns="http://www.w3.org/2000/svg" viewBox="0 0 448 416">
    <path d="M 96 32 Q 96 15 100 0 L 348 0 Q 352 15 352 32 Q 351 86 315 123 Q 278 159 224 160 Q 170 159 133 123 Q 97 86 96 32 L 96 32 Z M 272 416 L 262 416 L 205 320 L 272 320 Q 292 321 306 334 Q 319 348 320 368 Q 319 388 306 402 Q 292 415 272 416 L 272 416 Z M 272 288 L 186 288 L 140 212 Q 159 208 178 208 L 270 208 Q 345 210 396 260 Q 446 311 448 386 Q 448 399 439 407 Q 431 416 418 416 L 336 416 Q 352 395 352 368 Q 351 334 329 311 Q 306 289 272 288 L 272 288 Z M 0 386 Q 0 345 17 310 L 17 310 Q 34 274 64 250 L 64 416 L 30 416 Q 17 416 9 407 Q 0 399 0 386 L 0 386 Z"/>
</svg>
