<svg xmlns="http://www.w3.org/2000/svg" viewBox="0 0 256 256">
    <path d="M 256 19 L 256 96 Q 255 111 240 112 L 163 112 Q 153 111 152 101 Q 152 96 155 93 L 179 69 Q 158 48 128 48 Q 98 48 77 69 L 57 89 Q 40 103 23 89 Q 9 72 23 55 L 43 35 Q 78 1 128 0 Q 177 1 213 35 L 237 11 Q 240 8 245 8 Q 255 9 256 19 L 256 19 Z M 0 237 L 0 160 Q 1 145 16 144 L 93 144 Q 103 145 104 155 Q 104 160 101 163 L 77 187 Q 98 208 128 208 Q 158 208 179 187 L 199 167 Q 216 153 233 167 Q 247 184 233 201 L 213 221 Q 178 255 128 256 Q 79 255 43 221 L 19 245 Q 16 248 11 248 Q 1 247 0 237 L 0 237 Z"/>
</svg>
