<svg xmlns="http://www.w3.org/2000/svg" viewBox="0 0 384 512">
    <path d="M 0 64 Q 1 37 19 19 L 19 19 Q 37 1 64 0 L 224 0 L 224 128 Q 224 142 233 151 Q 242 160 256 160 L 384 160 L 384 448 Q 383 475 365 493 Q 347 511 320 512 L 64 512 Q 37 511 19 493 Q 1 475 0 448 L 0 64 L 0 64 Z M 104 196 Q 86 198 84 216 L 84 296 L 84 360 Q 86 378 104 380 Q 122 378 124 360 L 124 316 L 144 316 Q 145 317 146 319 L 211 379 L 179 409 Q 166 423 177 438 Q 191 450 206 439 L 241 407 L 274 439 Q 289 450 303 438 Q 314 423 302 409 L 270 380 L 302 351 Q 314 337 303 323 Q 289 310 275 321 L 241 352 L 198 312 Q 215 305 225 290 Q 236 275 236 256 Q 235 231 218 214 Q 201 197 176 196 L 104 196 L 104 196 Z M 176 276 L 124 276 L 124 236 L 176 236 Q 194 238 196 256 Q 194 274 176 276 L 176 276 Z"/>
</svg>
