<svg xmlns="http://www.w3.org/2000/svg" viewBox="0 0 512 448">
    <path d="M 32 48 Q 33 28 46 14 L 46 14 Q 60 1 80 0 L 432 0 Q 452 1 466 14 Q 479 28 480 48 L 480 201 Q 466 192 448 192 L 432 192 L 432 128 Q 432 114 423 105 Q 414 96 400 96 L 304 96 Q 290 96 281 105 Q 272 114 272 128 L 272 192 L 240 192 L 240 128 Q 240 114 231 105 Q 222 96 208 96 L 112 96 Q 98 96 89 105 Q 80 114 80 128 L 80 192 L 64 192 Q 46 192 32 201 L 32 48 L 32 48 Z M 32 320 L 480 320 L 512 320 L 512 352 L 512 416 Q 512 430 503 439 Q 494 448 480 448 Q 466 448 457 439 Q 448 430 448 416 L 448 384 L 64 384 L 64 416 Q 64 430 55 439 Q 46 448 32 448 Q 18 448 9 439 Q 0 430 0 416 L 0 352 L 0 320 L 32 320 L 32 320 Z"/>
</svg>
