<svg xmlns="http://www.w3.org/2000/svg" viewBox="0 0 320 256">
    <path d="M 50 11 Q 34 24 18 53 L 18 53 Q 1 82 0 128 Q 1 174 18 203 Q 34 231 50 245 Q 64 256 82 256 L 238 256 Q 256 256 270 245 Q 286 231 302 203 Q 319 174 320 128 Q 319 82 302 53 Q 286 24 270 11 Q 256 0 238 0 L 82 0 Q 64 0 50 11 L 50 11 Z M 96 64 Q 111 65 112 80 L 112 128 Q 111 143 96 144 Q 81 143 80 128 L 80 80 Q 81 65 96 64 L 96 64 Z M 224 64 Q 239 65 240 80 L 240 128 Q 239 143 224 144 Q 209 143 208 128 L 208 80 Q 209 65 224 64 L 224 64 Z M 160 160 Q 182 162 184 184 L 184 200 Q 183 207 176 208 L 144 208 Q 137 207 136 200 L 136 184 Q 138 162 160 160 L 160 160 Z"/>
</svg>
