<svg xmlns="http://www.w3.org/2000/svg" viewBox="0 0 352 416">
    <path d="M 192 0 Q 177 1 176 16 Q 177 31 192 32 L 272 32 L 272 0 L 192 0 L 192 0 Z M 192 64 Q 177 65 176 80 Q 177 95 192 96 L 272 96 L 272 64 L 192 64 L 192 64 Z M 192 128 Q 177 129 176 144 Q 177 159 192 160 L 272 160 L 272 128 L 192 128 L 192 128 Z M 48 120 Q 46 98 24 96 Q 2 98 0 120 L 0 160 Q 1 228 44 276 Q 86 324 152 334 L 152 368 L 104 368 Q 82 370 80 392 Q 82 414 104 416 L 176 416 L 248 416 Q 270 414 272 392 Q 270 370 248 368 L 200 368 L 200 334 Q 266 324 308 276 Q 351 228 352 160 L 352 120 Q 350 98 328 96 Q 306 98 304 120 L 304 160 Q 303 214 267 251 Q 230 287 176 288 Q 122 287 85 251 Q 49 214 48 160 L 48 120 L 48 120 Z"/>
</svg>
