<svg xmlns="http://www.w3.org/2000/svg" viewBox="0 0 576 448">
    <path d="M 24 0 L 0 0 L 0 24 L 0 424 Q 2 446 24 448 Q 46 446 48 424 L 48 416 L 208 416 L 208 424 Q 210 446 232 448 Q 254 446 256 424 L 256 24 L 256 0 L 232 0 L 24 0 L 24 0 Z M 192 160 Q 207 161 208 176 L 208 240 Q 207 255 192 256 Q 177 255 176 240 L 176 176 Q 177 161 192 160 L 192 160 Z M 344 0 L 320 0 L 320 24 L 320 424 Q 322 446 344 448 Q 366 446 368 424 L 368 416 L 528 416 L 528 424 Q 530 446 552 448 Q 574 446 576 424 L 576 24 L 576 0 L 552 0 L 544 0 L 352 0 L 344 0 L 344 0 Z M 512 160 Q 527 161 528 176 L 528 240 Q 527 255 512 256 Q 497 255 496 240 L 496 176 Q 497 161 512 160 L 512 160 Z"/>
</svg>
