<svg xmlns="http://www.w3.org/2000/svg" viewBox="0 0 292 228">
    <path d="M 66 56 L 66 122 L 43 129 Q 30 132 18 126 Q 7 120 3 107 Q 0 94 6 82 Q 12 71 25 67 L 66 56 L 66 56 Z M 66 152 L 66 218 L 43 225 Q 30 228 18 222 Q 7 216 3 203 Q 0 190 6 178 Q 12 167 25 163 L 66 152 L 66 152 Z M 130 200 L 130 133 L 249 99 Q 262 96 274 102 Q 285 108 289 121 Q 292 134 286 146 Q 280 157 267 161 L 130 200 L 130 200 Z M 130 104 L 130 37 L 249 3 Q 262 0 274 6 Q 285 12 289 25 Q 292 38 286 50 Q 280 61 267 65 L 130 104 L 130 104 Z"/>
</svg>
