<svg xmlns="http://www.w3.org/2000/svg" viewBox="0 0 373 192">
    <path d="M 48 96 Q 49 76 62 62 L 62 62 Q 76 49 96 48 Q 118 49 132 64 Q 148 79 166 66 Q 181 50 168 32 Q 140 1 96 0 Q 55 1 28 28 Q 1 55 0 96 Q 1 137 28 164 Q 55 191 96 192 Q 140 191 168 160 Q 181 142 166 126 Q 148 113 132 128 Q 118 143 96 144 Q 76 143 62 130 Q 49 116 48 96 L 48 96 Z M 240 96 Q 241 76 254 62 L 254 62 Q 268 49 288 48 Q 310 49 324 64 Q 340 79 358 66 Q 373 50 360 32 Q 332 1 288 0 Q 247 1 220 28 Q 193 55 192 96 Q 193 137 220 164 Q 247 191 288 192 Q 332 191 360 160 Q 373 142 358 126 Q 340 113 324 128 Q 310 143 288 144 Q 268 143 254 130 Q 241 116 240 96 L 240 96 Z"/>
</svg>
