<svg xmlns="http://www.w3.org/2000/svg" viewBox="0 0 546 388">
    <path d="M 227 363 Q 224 379 239 385 Q 255 388 261 373 L 266 358 Q 278 359 291 356 Q 302 353 312 350 L 317 363 Q 325 378 341 373 Q 356 365 351 349 L 346 339 Q 371 328 392 316 L 397 324 Q 407 337 422 329 Q 435 319 427 304 L 421 295 Q 441 278 457 260 L 467 268 Q 481 277 492 265 Q 501 251 489 240 L 478 231 Q 481 227 483 223 Q 493 205 499 190 L 507 193 Q 523 197 531 183 Q 535 167 521 159 L 510 155 Q 510 155 510 155 Q 511 154 511 153 Q 514 139 515 129 Q 515 126 515 123 Q 516 122 516 122 Q 516 121 516 120 Q 516 119 516 119 L 516 118 L 516 117 L 516 117 L 516 117 Q 517 117 512 117 Q 508 117 487 116 L 487 116 L 516 117 Q 516 112 516 108 L 531 103 Q 546 97 543 81 Q 537 66 521 69 L 505 73 Q 494 52 473 41 L 477 25 Q 480 9 465 3 Q 449 0 443 15 L 438 30 Q 437 30 435 30 Q 411 30 392 40 L 383 31 Q 370 21 357 31 Q 347 44 357 57 L 365 64 Q 350 83 348 108 L 341 105 Q 325 100 318 115 Q 313 131 327 139 L 336 142 Q 327 158 299 176 L 298 171 Q 292 156 275 159 Q 260 165 263 181 L 265 189 Q 259 191 253 192 Q 236 197 222 207 L 215 199 Q 202 189 189 199 Q 179 212 189 225 L 198 234 Q 187 255 188 281 L 173 285 Q 158 291 161 307 Q 167 322 183 319 L 199 315 Q 211 336 231 348 L 227 363 L 227 363 Z M 480 116 L 480 116 Q 472 115 461 115 Q 448 114 432 114 L 480 115 L 480 116 Z M 352 258 Q 352 272 343 281 L 343 281 Q 334 290 320 290 Q 306 290 297 281 Q 288 272 288 258 Q 288 244 297 235 Q 306 226 320 226 Q 334 226 343 235 Q 352 244 352 258 L 352 258 Z M 32 130 Q 46 130 55 121 L 55 121 Q 64 112 64 98 Q 64 84 55 75 Q 46 66 32 66 Q 18 66 9 75 Q 0 84 0 98 Q 0 112 9 121 Q 18 130 32 130 L 32 130 Z"/>
</svg>
