<svg xmlns="http://www.w3.org/2000/svg" viewBox="0 0 448 512">
    <path d="M 7 39 L 32 64 L 416 64 L 441 39 Q 448 32 448 23 Q 446 2 425 0 L 23 0 Q 2 2 0 23 Q 0 32 7 39 L 7 39 Z M 7 473 Q 0 480 0 489 Q 2 510 23 512 L 425 512 Q 446 510 448 489 Q 448 480 441 473 L 416 448 L 32 448 L 7 473 L 7 473 Z M 112 160 Q 97 161 96 176 Q 97 221 126 253 Q 155 284 200 288 L 200 328 Q 202 350 224 352 Q 246 350 248 328 L 248 288 Q 293 284 322 252 Q 351 221 352 176 Q 351 161 336 160 L 334 160 Q 298 160 269 178 Q 241 195 224 225 Q 207 195 179 178 Q 150 160 114 160 L 112 160 L 112 160 Z"/>
</svg>
