<svg xmlns="http://www.w3.org/2000/svg" viewBox="0 0 470 523">
    <path d="M 91 56 Q 113 58 115 80 Q 113 102 91 104 Q 69 102 67 80 Q 69 58 91 56 L 91 56 Z M 91 160 Q 136 159 160 120 Q 182 80 160 40 Q 136 1 91 0 Q 46 1 22 40 Q 0 80 22 120 Q 46 159 91 160 L 91 160 Z M 379 56 Q 401 58 403 80 Q 401 102 379 104 Q 357 102 355 80 Q 357 58 379 56 L 379 56 Z M 379 160 Q 424 159 448 120 Q 470 80 448 40 Q 424 1 379 0 Q 334 1 310 40 Q 288 80 310 120 Q 334 159 379 160 L 379 160 Z M 211 432 Q 213 410 235 408 Q 257 410 259 432 Q 257 454 235 456 Q 213 454 211 432 L 211 432 Z M 315 432 Q 314 387 275 363 Q 235 341 195 363 Q 156 387 155 432 Q 156 477 195 501 Q 235 523 275 501 Q 314 477 315 432 L 315 432 Z"/>
</svg>
