<svg xmlns="http://www.w3.org/2000/svg" viewBox="0 0 520 384">
    <path d="M 212 0 Q 197 1 196 16 L 196 65 Q 204 64 212 64 L 228 64 L 228 16 Q 227 1 212 0 L 212 0 Z M 93 144 L 56 144 L 27 130 Q 14 124 6 137 Q 0 151 13 158 L 45 174 Q 48 176 52 176 L 85 176 Q 87 159 93 144 L 93 144 Z M 84 202 L 63 209 Q 59 210 57 213 L 25 245 Q 15 256 25 267 Q 36 277 47 267 L 77 238 L 105 229 L 84 208 L 84 202 L 84 202 Z M 135 259 L 95 273 Q 91 274 89 277 L 57 309 Q 47 320 57 331 Q 68 341 79 331 L 109 302 L 161 285 L 135 259 L 135 259 Z M 176 300 L 140 322 Q 132 327 132 336 L 132 368 Q 133 382 148 384 Q 163 382 164 368 L 164 345 L 206 320 L 196 320 L 176 300 L 176 300 Z M 314 320 L 356 345 L 356 368 Q 357 383 372 384 Q 387 383 388 368 L 388 336 Q 388 327 380 322 L 344 300 L 324 320 L 314 320 L 314 320 Z M 359 285 L 411 302 L 441 331 Q 452 341 463 331 Q 472 320 463 309 L 431 277 Q 429 274 425 273 L 385 259 L 359 284 L 359 285 Z M 415 229 L 443 238 L 473 267 Q 484 277 495 267 Q 504 256 495 245 L 463 213 Q 461 210 457 209 L 436 202 L 436 208 L 415 229 L 415 229 Z M 435 176 L 468 176 Q 472 176 475 174 L 507 158 Q 520 150 514 137 Q 507 124 493 130 L 464 144 L 427 144 Q 433 159 435 176 L 435 176 Z M 324 65 L 324 16 Q 323 1 308 0 Q 293 1 292 16 L 292 64 L 308 64 Q 316 64 324 65 L 324 65 Z"/>
</svg>
