<svg xmlns="http://www.w3.org/2000/svg" viewBox="0 0 176 512">
    <path d="M 64 0 L 80 0 Q 95 1 96 16 L 96 132 Q 111 141 112 160 L 112 269 L 128 264 L 128 208 Q 129 193 144 192 L 160 192 Q 175 193 176 208 L 176 293 Q 175 304 165 308 L 112 325 L 112 352 L 160 352 Q 175 353 176 368 L 176 384 Q 175 399 160 400 L 116 400 L 139 492 Q 141 510 124 512 L 64 512 Q 49 511 48 496 L 48 400 L 32 400 Q 18 400 9 391 Q 0 382 0 368 L 0 224 Q 0 210 9 201 Q 18 192 32 192 L 32 160 Q 33 141 48 132 L 48 32 Q 33 31 32 16 Q 33 1 48 0 L 64 0 L 64 0 Z"/>
</svg>
