<svg xmlns="http://www.w3.org/2000/svg" viewBox="0 0 288 168">
    <path d="M 16 0 Q 1 1 0 16 Q 1 31 16 32 L 32 32 L 32 64 L 64 64 L 64 32 L 128 32 L 128 64 L 160 64 L 160 32 L 224 32 L 224 64 L 256 64 L 256 32 L 272 32 Q 287 31 288 16 Q 287 1 272 0 L 240 0 L 144 0 L 48 0 L 16 0 L 16 0 Z M 48 168 Q 70 166 72 144 Q 70 122 48 120 Q 26 122 24 144 Q 26 166 48 168 L 48 168 Z M 168 144 Q 166 122 144 120 Q 122 122 120 144 Q 122 166 144 168 Q 166 166 168 144 L 168 144 Z M 240 168 Q 262 166 264 144 Q 262 122 240 120 Q 218 122 216 144 Q 218 166 240 168 L 240 168 Z"/>
</svg>
