<svg xmlns="http://www.w3.org/2000/svg" viewBox="0 0 576 352">
    <path d="M 576 0 L 0 0 L 0 288 Q 1 315 19 333 Q 37 351 64 352 L 512 352 Q 539 351 557 333 Q 575 315 576 288 L 576 0 L 576 0 Z M 117 224 L 235 224 Q 257 225 272 240 Q 287 255 288 277 Q 287 287 277 288 L 75 288 Q 65 287 64 277 Q 65 255 80 240 Q 95 225 117 224 L 117 224 Z M 112 128 Q 113 92 144 73 Q 176 55 208 73 Q 239 92 240 128 Q 239 164 208 183 Q 176 201 144 183 Q 113 164 112 128 L 112 128 Z M 368 64 L 496 64 Q 511 65 512 80 Q 511 95 496 96 L 368 96 Q 353 95 352 80 Q 353 65 368 64 L 368 64 Z M 368 128 L 496 128 Q 511 129 512 144 Q 511 159 496 160 L 368 160 Q 353 159 352 144 Q 353 129 368 128 L 368 128 Z M 368 192 L 496 192 Q 511 193 512 208 Q 511 223 496 224 L 368 224 Q 353 223 352 208 Q 353 193 368 192 L 368 192 Z"/>
</svg>
