<svg xmlns="http://www.w3.org/2000/svg" viewBox="0 0 448 352">
    <path d="M 1 53 L 71 316 Q 75 332 88 342 Q 100 352 117 352 L 331 352 Q 348 352 360 342 Q 373 332 377 316 L 447 53 Q 448 48 448 43 Q 448 24 436 12 Q 424 0 405 0 L 43 0 Q 24 0 12 12 Q 0 24 0 43 Q 0 48 1 53 L 1 53 Z M 128 62 L 160 286 Q 161 300 146 304 Q 131 305 128 290 L 96 66 Q 95 52 110 48 Q 124 47 128 62 L 128 62 Z M 352 66 L 320 290 Q 316 304 302 304 Q 287 300 288 286 L 320 62 Q 324 47 338 48 Q 352 52 352 66 L 352 66 Z M 240 64 L 240 288 Q 239 303 224 304 Q 209 303 208 288 L 208 64 Q 209 49 224 48 Q 239 49 240 64 L 240 64 Z"/>
</svg>
