<svg xmlns="http://www.w3.org/2000/svg" viewBox="0 0 462 512">
    <path d="M 94 48 Q 75 48 63 63 L 50 79 Q 34 95 16 83 Q 0 67 12 49 L 25 33 Q 52 1 94 0 L 368 0 Q 410 1 437 33 L 450 49 Q 462 68 446 83 Q 427 95 412 79 L 400 63 Q 387 48 368 48 L 255 48 L 255 96 L 207 96 L 207 48 L 94 48 L 94 48 Z M 42 493 L 108 427 Q 133 447 167 448 L 112 503 Q 103 512 90 512 L 50 512 Q 42 511 40 505 Q 37 499 42 493 L 42 493 Z M 350 503 L 295 448 Q 329 447 354 427 L 420 493 Q 425 499 422 505 Q 420 511 412 512 L 372 512 Q 359 512 350 503 L 350 503 Z M 167 160 L 295 160 Q 309 160 318 169 Q 327 178 327 192 L 327 224 Q 327 238 318 247 Q 309 256 295 256 L 167 256 Q 153 256 144 247 Q 135 238 135 224 L 135 192 Q 135 178 144 169 Q 153 160 167 160 L 167 160 Z"/>
</svg>
