<svg xmlns="http://www.w3.org/2000/svg" viewBox="0 0 416 448">
    <path d="M 121 180 L 0 448 L 416 448 L 308 208 Q 304 200 304 192 Q 304 184 307 177 L 367 28 Q 368 24 368 20 L 368 19 Q 366 2 349 0 Q 344 0 339 3 L 192 97 Q 144 128 121 180 L 121 180 Z M 191 267 L 205 307 L 245 321 Q 255 325 256 336 Q 255 347 245 351 L 205 365 L 191 405 Q 187 415 176 416 Q 165 415 161 405 L 147 365 L 107 351 Q 97 347 96 336 Q 97 325 107 321 L 147 307 L 161 267 Q 165 257 176 256 Q 187 257 191 267 L 191 267 Z M 224 136 Q 230 136 232 142 L 238 162 L 259 168 Q 264 170 264 176 Q 264 182 259 184 L 238 190 L 232 211 Q 230 216 224 216 Q 218 216 216 211 L 210 190 L 189 184 Q 184 182 184 176 Q 184 170 189 168 L 210 162 L 216 142 Q 218 136 224 136 L 224 136 Z"/>
</svg>
