<svg xmlns="http://www.w3.org/2000/svg" viewBox="0 0 324 518">
    <path d="M 162 134 Q 194 133 218 115 L 218 115 Q 242 96 250 65 L 259 30 Q 263 17 274 11 Q 284 4 298 7 Q 311 11 318 22 Q 324 33 321 46 L 312 81 Q 294 149 234 180 L 234 486 Q 234 500 225 509 Q 216 518 202 518 Q 188 518 179 509 Q 170 500 170 486 L 170 358 L 154 358 L 154 486 Q 154 500 145 509 Q 136 518 122 518 Q 108 518 99 509 Q 90 500 90 486 L 90 180 Q 31 148 12 81 L 3 46 Q 0 32 7 22 Q 13 11 26 7 Q 39 4 50 11 Q 61 17 65 30 L 74 65 Q 82 96 106 115 Q 130 133 162 134 L 162 134 Z M 114 54 Q 115 27 138 12 Q 162 0 186 12 Q 209 27 210 54 Q 209 81 186 96 Q 162 108 138 96 Q 115 81 114 54 L 114 54 Z"/>
</svg>
