<svg xmlns="http://www.w3.org/2000/svg" viewBox="0 0 480 512">
    <path d="M 14 128 L 194 128 Q 200 100 221 82 Q 242 65 272 64 L 367 64 Q 340 34 304 17 Q 267 0 224 0 L 202 0 Q 137 1 87 36 Q 37 71 14 128 L 14 128 Z M 0 192 Q 0 197 0 202 Q 0 236 13 269 Q 25 302 47 329 Q 63 350 64 376 L 64 480 Q 64 494 73 503 Q 82 512 96 512 L 256 512 Q 270 512 279 503 Q 288 494 288 480 L 288 448 L 352 448 Q 379 447 397 429 Q 415 411 416 384 L 416 320 L 436 320 Q 455 320 467 307 Q 480 295 480 276 Q 480 261 470 249 L 451 224 L 272 224 Q 231 223 208 192 L 0 192 L 0 192 Z"/>
</svg>
