<svg xmlns="http://www.w3.org/2000/svg" viewBox="0 0 496 512">
    <path d="M 120 0 Q 156 1 175 32 Q 193 64 175 96 Q 156 127 120 128 Q 84 127 65 96 Q 47 64 65 32 Q 84 1 120 0 L 120 0 Z M 104 160 L 136 160 Q 154 160 168 169 Q 168 172 168 176 Q 169 214 196 237 Q 169 251 153 277 Q 136 303 136 336 L 136 352 Q 137 396 168 424 L 168 480 Q 168 489 170 498 Q 157 512 136 512 L 104 512 Q 84 511 70 498 Q 57 484 56 464 L 56 384 L 34 384 Q 18 383 9 371 Q 0 359 4 343 L 43 206 Q 49 185 66 173 Q 82 160 104 160 L 104 160 Z M 360 512 Q 339 511 326 498 Q 328 489 328 480 L 328 424 Q 359 396 360 352 L 360 336 Q 360 303 343 277 Q 327 251 300 237 Q 327 214 328 176 Q 328 172 328 169 Q 342 160 360 160 L 392 160 Q 414 160 430 173 Q 447 185 453 206 L 492 343 Q 496 359 487 371 Q 478 383 462 384 L 440 384 L 440 464 Q 439 484 426 498 Q 412 511 392 512 L 360 512 L 360 512 Z M 376 0 Q 412 1 431 32 Q 449 64 431 96 Q 412 127 376 128 Q 340 127 321 96 Q 303 64 321 32 Q 340 1 376 0 L 376 0 Z"/>
</svg>
