<svg xmlns="http://www.w3.org/2000/svg" viewBox="0 0 640 284">
    <path d="M 253 0 Q 240 21 241 48 L 243 67 Q 133 91 54 166 Q 44 175 31 175 Q 19 175 9 165 Q 0 155 0 142 Q 0 130 10 120 Q 59 73 121 42 Q 183 11 253 0 L 253 0 Z M 387 0 Q 458 11 519 42 L 519 42 Q 581 72 630 120 Q 640 129 640 142 Q 640 155 631 165 Q 621 175 609 175 Q 596 175 586 166 Q 507 91 397 67 L 399 48 Q 400 21 387 0 L 387 0 Z M 250 164 L 254 229 Q 208 243 172 275 Q 161 284 149 283 Q 136 282 127 272 Q 118 262 119 249 Q 120 236 130 227 Q 181 181 250 164 L 250 164 Z M 386 229 L 390 164 Q 459 181 511 227 Q 520 236 521 249 Q 522 262 513 272 Q 504 282 491 283 Q 479 284 468 275 Q 432 243 386 229 L 386 229 Z"/>
</svg>
