<svg xmlns="http://www.w3.org/2000/svg" viewBox="0 0 416 128">
    <path d="M 96 80 Q 95 104 82 116 L 82 116 Q 68 128 48 128 Q 28 127 14 114 Q 1 100 0 80 Q 1 63 12 45 Q 24 27 36 14 Q 47 1 48 0 Q 49 1 60 14 Q 72 27 84 45 Q 95 63 96 80 L 96 80 Z M 256 80 Q 255 104 242 116 L 242 116 Q 228 128 208 128 Q 188 127 174 114 Q 161 100 160 80 Q 161 63 172 45 Q 184 27 196 14 Q 207 1 208 0 Q 209 1 220 14 Q 232 27 244 45 Q 255 63 256 80 L 256 80 Z M 368 128 Q 348 127 334 114 L 334 114 Q 321 100 320 80 Q 321 63 332 45 Q 344 27 356 14 Q 367 1 368 0 Q 369 1 380 14 Q 392 27 404 45 Q 415 63 416 80 Q 415 104 402 116 Q 388 128 368 128 L 368 128 Z"/>
</svg>
