<svg xmlns="http://www.w3.org/2000/svg" viewBox="0 0 449 225">
    <path d="M 447 20 Q 444 14 440 9 Q 440 9 440 9 Q 431 0 417 0 L 417 0 L 321 0 Q 307 0 298 9 Q 289 18 289 32 Q 289 46 298 55 Q 307 64 321 64 L 340 64 L 255 148 L 166 72 Q 145 56 124 72 L 12 168 Q 2 177 1 190 Q 0 202 9 213 Q 18 223 30 224 Q 43 225 54 216 L 145 138 L 236 216 Q 246 224 258 224 Q 270 223 280 215 L 385 109 L 385 128 Q 385 142 394 151 Q 403 160 417 160 Q 431 160 440 151 Q 449 142 449 128 L 449 32 L 449 32 Q 449 32 449 32 Q 449 32 449 32 Q 449 25 447 20 L 447 20 Z"/>
</svg>
