<svg xmlns="http://www.w3.org/2000/svg" viewBox="0 0 640 331">
    <path d="M 224 91 Q 223 46 184 22 Q 144 0 104 22 Q 65 46 64 91 Q 65 136 104 160 Q 144 182 184 160 Q 223 136 224 91 L 224 91 Z M 592 91 Q 591 46 552 22 Q 512 0 472 22 Q 433 46 432 91 Q 433 136 472 160 Q 512 182 552 160 Q 591 136 592 91 L 592 91 Z M 107 203 Q 61 204 31 234 L 31 234 Q 1 264 0 310 Q 2 329 21 331 L 235 331 Q 235 331 235 331 Q 235 331 235 331 Q 194 294 192 235 Q 192 224 194 213 Q 173 203 149 203 L 107 203 L 107 203 Z M 405 331 Q 405 331 405 331 L 405 331 Q 405 331 405 331 L 619 331 Q 638 329 640 310 Q 639 264 609 234 Q 579 204 533 203 L 491 203 Q 467 203 446 213 Q 448 224 448 235 Q 446 294 405 331 L 405 331 Z"/>
</svg>
