<svg xmlns="http://www.w3.org/2000/svg" viewBox="0 0 576 384">
    <path d="M 0 32 Q 0 18 9 9 L 9 9 Q 18 0 32 0 L 55 0 L 64 0 Q 68 0 71 1 Q 112 5 146 26 Q 181 47 203 82 L 208 89 Q 238 138 287 165 Q 336 192 393 192 Q 417 192 432 176 Q 447 161 448 137 L 448 96 Q 448 82 457 73 Q 466 64 480 64 L 512 64 L 544 64 Q 558 64 567 73 Q 576 82 576 96 Q 576 110 567 119 Q 558 128 544 128 L 544 224 Q 543 265 516 292 Q 489 319 448 320 L 448 384 L 384 384 L 384 320 L 192 320 L 192 384 L 128 384 L 128 320 Q 87 319 60 292 Q 33 265 32 224 L 32 64 Q 18 64 9 55 Q 0 46 0 32 L 0 32 Z"/>
</svg>
