<svg xmlns="http://www.w3.org/2000/svg" viewBox="0 0 448 448">
    <path d="M 64 0 Q 37 1 19 19 L 19 19 Q 1 37 0 64 L 0 384 Q 1 411 19 429 Q 37 447 64 448 L 384 448 Q 411 447 429 429 Q 447 411 448 384 L 448 64 Q 447 37 429 19 Q 411 1 384 0 L 64 0 L 64 0 Z M 138 141 Q 144 124 158 114 L 158 114 Q 172 104 191 104 L 249 104 Q 276 105 294 123 Q 311 140 312 167 Q 311 203 280 222 L 248 240 Q 246 262 224 264 Q 202 262 200 240 L 200 227 Q 200 213 212 206 L 256 180 Q 264 176 264 167 Q 263 153 249 152 L 191 152 Q 185 152 183 157 L 183 159 Q 173 179 152 173 Q 132 164 138 143 L 138 141 L 138 141 Z M 192 328 Q 192 314 201 305 L 201 305 Q 210 296 224 296 Q 238 296 247 305 Q 256 314 256 328 Q 256 342 247 351 Q 238 360 224 360 Q 210 360 201 351 Q 192 342 192 328 L 192 328 Z M 48 72 Q 50 50 72 48 Q 94 50 96 72 Q 94 94 72 96 Q 50 94 48 72 L 48 72 Z M 376 48 Q 398 50 400 72 Q 398 94 376 96 Q 354 94 352 72 Q 354 50 376 48 L 376 48 Z M 48 376 Q 50 354 72 352 Q 94 354 96 376 Q 94 398 72 400 Q 50 398 48 376 L 48 376 Z M 376 352 Q 398 354 400 376 Q 398 398 376 400 Q 354 398 352 376 Q 354 354 376 352 L 376 352 Z"/>
</svg>
