<svg xmlns="http://www.w3.org/2000/svg" viewBox="0 0 512 416">
    <path d="M 48 24 Q 46 2 24 0 Q 2 2 0 24 L 0 96 L 48 96 L 48 24 L 48 24 Z M 160 24 Q 158 2 136 0 Q 114 2 112 24 L 112 96 L 160 96 L 160 24 L 160 24 Z M 176 160 L 144 160 Q 129 161 128 176 L 128 208 Q 129 223 144 224 L 176 224 Q 191 223 192 208 L 192 176 Q 191 161 176 160 L 176 160 Z M 512 272 Q 511 257 496 256 L 464 256 Q 449 257 448 272 L 448 304 Q 449 319 464 320 L 496 320 Q 511 319 512 304 L 512 272 L 512 272 Z M 48 416 Q 63 415 64 400 L 64 368 Q 63 353 48 352 L 16 352 Q 1 353 0 368 L 0 400 Q 1 415 16 416 L 48 416 L 48 416 Z M 192 400 L 192 368 Q 191 353 176 352 L 144 352 Q 129 353 128 368 L 128 400 Q 129 415 144 416 L 176 416 Q 191 415 192 400 L 192 400 Z M 512 368 Q 511 353 496 352 L 464 352 Q 449 353 448 368 L 448 400 Q 449 415 464 416 L 496 416 Q 511 415 512 400 L 512 368 L 512 368 Z M 64 176 Q 63 161 48 160 L 16 160 Q 1 161 0 176 L 0 208 Q 1 223 16 224 L 48 224 Q 63 223 64 208 L 64 176 L 64 176 Z M 176 320 Q 191 319 192 304 L 192 272 Q 191 257 176 256 L 144 256 Q 129 257 128 272 L 128 304 Q 129 319 144 320 L 176 320 L 176 320 Z M 64 304 L 64 272 Q 63 257 48 256 L 16 256 Q 1 257 0 272 L 0 304 Q 1 319 16 320 L 48 320 Q 63 319 64 304 L 64 304 Z"/>
</svg>
