<svg xmlns="http://www.w3.org/2000/svg" viewBox="0 0 576 448">
    <path d="M 288 0 Q 304 0 320 2 L 320 128 L 49 128 Q 88 69 150 35 Q 212 1 288 0 L 288 0 Z M 528 128 L 352 128 L 352 7 Q 407 20 452 51 Q 497 82 528 128 L 528 128 Z M 0 288 Q 1 218 30 160 L 96 160 L 96 288 L 0 288 L 0 288 Z M 198 288 L 128 288 L 128 160 L 448 160 L 448 288 L 379 288 Q 368 260 344 242 Q 320 225 288 224 Q 256 225 232 242 Q 208 260 198 288 L 198 288 Z M 384 320 L 576 320 L 576 400 Q 575 420 562 434 Q 548 447 528 448 L 384 448 L 384 320 L 384 320 Z M 192 448 L 48 448 Q 28 447 14 434 Q 1 420 0 400 L 0 320 L 192 320 L 192 448 L 192 448 Z M 576 288 L 480 288 L 480 160 L 546 160 Q 575 218 576 288 L 576 288 Z"/>
</svg>
