<svg xmlns="http://www.w3.org/2000/svg" viewBox="0 0 288 448">
    <path d="M 132 64 Q 99 64 74 84 L 68 89 Q 57 97 44 96 Q 32 94 23 84 Q 15 73 16 60 Q 18 48 28 39 L 34 34 Q 77 0 132 0 L 175 0 Q 223 1 255 33 Q 287 65 288 113 Q 288 144 273 170 Q 258 196 231 211 L 89 293 Q 65 307 64 335 Q 65 356 78 370 Q 92 383 113 384 L 156 384 Q 189 384 214 364 L 220 359 Q 231 351 244 352 Q 256 354 265 364 Q 273 375 272 388 Q 270 400 260 409 L 254 414 Q 211 448 156 448 L 113 448 Q 65 447 33 415 Q 1 383 0 335 Q 0 304 15 278 Q 30 252 57 237 L 199 156 Q 223 141 224 113 Q 223 92 210 78 Q 196 65 175 64 L 132 64 L 132 64 Z"/>
</svg>
