<svg xmlns="http://www.w3.org/2000/svg" viewBox="0 0 512 512">
    <path d="M 256 64 Q 308 64 352 90 L 352 90 Q 396 115 422 160 Q 448 205 448 256 Q 448 307 422 352 Q 396 397 352 422 Q 308 448 256 448 Q 204 448 160 422 Q 116 397 90 352 Q 64 307 64 256 Q 64 205 90 160 Q 116 115 160 90 Q 204 64 256 64 L 256 64 Z M 256 512 Q 326 511 384 478 L 384 478 Q 442 444 478 384 Q 512 323 512 256 Q 512 189 478 128 Q 442 68 384 34 Q 326 1 256 0 Q 186 1 128 34 Q 70 68 34 128 Q 0 189 0 256 Q 0 323 34 384 Q 70 444 128 478 Q 186 511 256 512 L 256 512 Z"/>
</svg>
