<svg xmlns="http://www.w3.org/2000/svg" viewBox="0 0 512 448">
    <path d="M 160 0 L 112 0 L 112 48 Q 111 63 96 64 L 64 64 Q 49 63 48 48 L 48 2 Q 27 8 14 24 Q 0 41 0 64 L 0 384 Q 0 407 14 424 Q 27 440 48 446 L 48 400 Q 49 385 64 384 L 96 384 Q 111 385 112 400 L 112 448 L 160 448 L 160 0 L 160 0 Z M 352 448 L 400 448 L 400 400 Q 401 385 416 384 L 448 384 Q 463 385 464 400 L 464 446 Q 485 440 498 424 Q 512 407 512 384 L 512 64 Q 512 41 498 24 Q 485 8 464 2 L 464 48 Q 463 63 448 64 L 416 64 Q 401 63 400 48 L 400 0 L 352 0 L 352 448 L 352 448 Z M 64 128 L 96 128 Q 111 129 112 144 L 112 176 Q 111 191 96 192 L 64 192 Q 49 191 48 176 L 48 144 Q 49 129 64 128 L 64 128 Z M 400 144 Q 401 129 416 128 L 448 128 Q 463 129 464 144 L 464 176 Q 463 191 448 192 L 416 192 Q 401 191 400 176 L 400 144 L 400 144 Z M 64 256 L 96 256 Q 111 257 112 272 L 112 304 Q 111 319 96 320 L 64 320 Q 49 319 48 304 L 48 272 Q 49 257 64 256 L 64 256 Z M 400 272 Q 401 257 416 256 L 448 256 Q 463 257 464 272 L 464 304 Q 463 319 448 320 L 416 320 Q 401 319 400 304 L 400 272 L 400 272 Z"/>
</svg>
