<svg xmlns="http://www.w3.org/2000/svg" viewBox="0 0 448 512">
    <path d="M 96 0 Q 55 1 28 28 L 28 28 Q 1 55 0 96 L 0 416 Q 1 457 28 484 Q 55 511 96 512 L 384 512 L 416 512 Q 430 512 439 503 Q 448 494 448 480 Q 448 466 439 457 Q 430 448 416 448 L 352 448 L 256 448 L 96 448 Q 82 448 73 439 Q 64 430 64 416 Q 64 402 73 393 Q 82 384 96 384 L 256 384 L 352 384 L 416 384 Q 430 384 439 375 Q 448 366 448 352 L 448 32 Q 448 18 439 9 Q 430 0 416 0 L 384 0 L 96 0 L 96 0 Z M 229 241 Q 228 241 228 241 L 228 241 Q 209 238 187 224 L 187 224 Q 165 211 169 179 Q 172 162 186 151 Q 165 138 169 107 Q 174 83 197 72 Q 221 61 257 65 Q 269 67 287 73 Q 300 78 297 93 Q 291 106 277 103 Q 262 98 252 97 Q 207 92 200 113 Q 198 119 204 125 Q 210 131 237 138 L 244 140 L 244 140 Q 269 145 292 159 Q 315 172 311 205 Q 307 222 294 233 Q 315 246 311 277 Q 301 319 244 320 Q 234 320 223 318 Q 203 315 185 308 L 185 308 L 179 306 Q 165 301 169 286 Q 174 273 189 276 L 195 278 Q 195 278 195 278 Q 212 284 228 287 Q 273 292 279 271 Q 282 262 273 256 Q 264 250 236 243 L 228 241 L 229 241 Z M 226 169 Q 219 169 211 173 L 211 173 Q 203 176 200 185 Q 198 191 204 197 Q 210 203 237 210 Q 237 211 244 212 Q 251 214 254 215 Q 261 214 269 211 Q 277 207 280 199 Q 282 190 273 184 Q 264 178 236 171 Q 235 171 231 170 Q 227 169 226 169 L 226 169 Z"/>
</svg>
