<svg xmlns="http://www.w3.org/2000/svg" viewBox="0 0 416 160">
    <path d="M 160 80 Q 160 97 153 112 L 263 112 Q 256 97 256 80 Q 256 63 263 48 L 153 48 Q 160 63 160 80 L 160 80 Z M 336 160 L 80 160 Q 46 159 23 137 Q 1 114 0 80 Q 1 46 23 23 Q 46 1 80 0 L 336 0 Q 370 1 393 23 Q 415 46 416 80 Q 415 114 393 137 Q 370 159 336 160 L 336 160 Z M 80 96 Q 95 95 96 80 Q 95 65 80 64 Q 65 65 64 80 Q 65 95 80 96 L 80 96 Z M 352 80 Q 351 65 336 64 Q 321 65 320 80 Q 321 95 336 96 Q 351 95 352 80 L 352 80 Z"/>
</svg>
