<svg xmlns="http://www.w3.org/2000/svg" viewBox="0 0 576 512">
    <path d="M 96 32 Q 96 18 105 9 L 105 9 Q 114 0 128 0 L 224 0 Q 238 0 247 9 Q 256 18 256 32 L 320 32 Q 334 32 343 41 Q 352 50 352 64 Q 352 78 343 87 Q 334 96 320 96 L 32 96 Q 18 96 9 87 Q 0 78 0 64 Q 0 50 9 41 Q 18 32 32 32 L 96 32 L 96 32 Z M 0 480 Q 0 466 9 457 L 9 457 Q 18 448 32 448 L 320 448 Q 334 448 343 457 Q 352 466 352 480 Q 352 494 343 503 Q 334 512 320 512 L 32 512 Q 18 512 9 503 Q 0 494 0 480 L 0 480 Z M 320 128 L 544 128 Q 558 128 567 137 Q 576 146 576 160 L 576 288 Q 576 302 567 311 Q 558 320 544 320 Q 530 320 521 329 Q 512 338 512 352 L 512 384 Q 512 398 503 407 Q 494 416 480 416 L 320 416 L 320 128 L 320 128 Z M 392 184 L 392 200 Q 393 215 408 216 L 424 216 Q 439 215 440 200 L 440 184 Q 439 169 424 168 L 408 168 Q 393 169 392 184 L 392 184 Z M 504 168 Q 489 169 488 184 L 488 200 Q 489 215 504 216 L 520 216 Q 535 215 536 200 L 536 184 Q 535 169 520 168 L 504 168 L 504 168 Z M 392 344 L 392 360 Q 393 375 408 376 L 424 376 Q 439 375 440 360 L 440 344 Q 439 329 424 328 L 408 328 Q 393 329 392 344 L 392 344 Z"/>
</svg>
