<svg xmlns="http://www.w3.org/2000/svg" viewBox="0 0 448 512">
    <path d="M 0 224 Q 1 161 31 111 L 31 111 Q 60 60 111 31 L 111 31 Q 161 1 224 0 Q 287 1 337 31 Q 388 60 417 111 Q 447 161 448 224 L 448 320 Q 446 402 392 456 Q 338 510 256 512 L 192 512 Q 110 510 56 456 Q 2 402 0 320 L 0 224 L 0 224 Z M 154 320 Q 129 323 113 341 L 113 341 Q 97 359 96 384 Q 97 411 115 429 Q 133 447 160 448 L 288 448 Q 315 447 333 429 Q 351 411 352 384 Q 351 359 335 341 Q 319 323 294 320 Q 296 315 296 309 Q 296 298 291 288 L 304 288 Q 338 287 361 265 Q 383 242 384 208 Q 383 188 370 174 Q 356 161 336 160 L 304 160 Q 270 161 247 183 Q 225 206 224 240 Q 223 206 201 183 Q 178 161 144 160 L 112 160 Q 92 161 78 174 Q 65 188 64 208 Q 65 242 87 265 Q 110 287 144 288 L 157 288 Q 152 298 152 309 Q 152 315 154 320 L 154 320 Z"/>
</svg>
