<svg xmlns="http://www.w3.org/2000/svg" viewBox="0 0 640 320">
    <path d="M 256 32 Q 256 18 247 9 L 247 9 Q 238 0 224 0 Q 210 0 201 9 Q 192 18 192 32 L 192 288 Q 192 302 201 311 Q 210 320 224 320 Q 238 320 247 311 Q 256 302 256 288 L 256 32 L 256 32 Z M 448 64 Q 448 50 439 41 L 439 41 Q 430 32 416 32 Q 402 32 393 41 Q 384 50 384 64 L 384 256 Q 384 270 393 279 Q 402 288 416 288 Q 430 288 439 279 Q 448 270 448 256 L 448 64 L 448 64 Z M 0 160 Q 0 174 9 183 L 9 183 Q 18 192 32 192 Q 46 192 55 183 Q 64 174 64 160 Q 64 146 55 137 Q 46 128 32 128 Q 18 128 9 137 Q 0 146 0 160 L 0 160 Z M 576 160 Q 576 174 585 183 L 585 183 Q 594 192 608 192 Q 622 192 631 183 Q 640 174 640 160 Q 640 146 631 137 Q 622 128 608 128 Q 594 128 585 137 Q 576 146 576 160 L 576 160 Z"/>
</svg>
