<svg xmlns="http://www.w3.org/2000/svg" viewBox="0 0 454 294">
    <path d="M 244 51 Q 262 38 253 18 Q 240 0 220 9 L 40 112 L 40 167 L 244 51 L 244 51 Z M 436 51 Q 454 38 445 18 Q 432 0 412 9 L 232 112 L 232 167 L 436 51 L 436 51 Z M 16 214 Q 1 215 0 230 L 0 278 Q 1 293 16 294 L 64 294 Q 79 293 80 278 L 80 230 Q 79 215 64 214 L 16 214 L 16 214 Z M 144 214 Q 129 215 128 230 L 128 278 Q 129 293 144 294 L 192 294 Q 207 293 208 278 L 208 230 Q 207 215 192 214 L 144 214 L 144 214 Z M 256 230 L 256 278 Q 257 293 272 294 L 320 294 Q 335 293 336 278 L 336 230 Q 335 215 320 214 L 272 214 Q 257 215 256 230 L 256 230 Z"/>
</svg>
