<svg xmlns="http://www.w3.org/2000/svg" viewBox="0 0 432 384">
    <path d="M 96 10 Q 117 21 131 40 L 144 59 L 144 360 Q 142 382 120 384 Q 98 382 96 360 L 96 10 L 96 10 Z M 192 128 L 240 197 L 240 360 Q 238 382 216 384 Q 194 382 192 360 L 192 128 L 192 128 Z M 288 256 Q 310 273 336 282 L 336 360 Q 334 382 312 384 Q 290 382 288 360 L 288 256 L 288 256 Z M 384 288 L 392 288 Q 413 288 432 282 L 432 360 Q 430 382 408 384 Q 386 382 384 360 L 384 288 L 384 288 Z M 0 17 Q 21 2 48 0 L 48 360 Q 46 382 24 384 Q 2 382 0 360 L 0 17 L 0 17 Z"/>
</svg>
