<svg xmlns="http://www.w3.org/2000/svg" viewBox="0 0 480 384">
    <path d="M 384 384 L 272 384 Q 287 314 288 192 Q 289 110 316 56 Q 343 2 384 0 Q 425 2 452 56 Q 479 110 480 192 Q 479 274 452 328 Q 425 382 384 384 L 384 384 Z M 384 256 Q 398 255 407 237 L 407 237 Q 416 219 416 192 Q 416 165 407 147 Q 398 129 384 128 Q 370 129 361 147 Q 352 165 352 192 Q 352 219 361 237 Q 370 255 384 256 L 384 256 Z M 0 208 Q 1 193 16 192 Q 31 193 32 208 Q 31 223 16 224 Q 1 223 0 208 L 0 208 Z M 64 208 Q 65 193 80 192 Q 95 193 96 208 Q 95 223 80 224 Q 65 223 64 208 L 64 208 Z M 144 192 Q 159 193 160 208 Q 159 223 144 224 Q 129 223 128 208 Q 129 193 144 192 L 144 192 Z M 192 208 Q 193 193 208 192 Q 223 193 224 208 Q 223 223 208 224 Q 193 223 192 208 L 192 208 Z"/>
</svg>
