<svg xmlns="http://www.w3.org/2000/svg" viewBox="0 0 288 344">
    <path d="M 0 32 Q 0 18 9 9 L 9 9 Q 18 0 32 0 L 80 0 L 128 0 Q 142 0 151 9 Q 160 18 160 32 Q 160 46 151 55 Q 142 64 128 64 L 112 64 L 112 98 Q 96 96 80 96 Q 64 96 48 98 L 48 64 L 32 64 Q 18 64 9 55 Q 0 46 0 32 L 0 32 Z M 212 143 L 233 121 Q 243 112 256 112 Q 269 112 279 121 Q 288 131 288 144 Q 288 157 279 167 L 255 191 Q 237 164 212 143 L 212 143 Z M 104 192 L 104 320 Q 102 342 80 344 Q 58 342 56 320 L 56 192 Q 58 170 80 168 Q 102 170 104 192 L 104 192 Z"/>
</svg>
