<svg xmlns="http://www.w3.org/2000/svg" viewBox="0 0 640 352">
    <path d="M 64 0 Q 37 1 19 19 L 19 19 Q 1 37 0 64 L 0 352 L 6 352 Q 16 324 40 306 Q 64 289 96 288 Q 148 290 176 331 Q 204 290 256 288 Q 288 289 312 306 Q 336 324 347 352 L 416 352 L 454 352 Q 464 324 488 306 Q 512 289 544 288 Q 573 288 596 303 Q 619 318 631 343 Q 640 334 640 320 L 640 256 L 640 240 L 640 230 Q 640 215 631 204 L 572 133 Q 555 113 529 112 L 480 112 L 480 64 Q 479 37 461 19 Q 443 1 416 0 L 64 0 L 64 0 Z M 585 224 L 480 224 L 480 160 L 529 160 Q 533 160 535 163 L 585 224 L 585 224 Z"/>
</svg>
