<svg xmlns="http://www.w3.org/2000/svg" viewBox="0 0 448 256">
    <path d="M 128 64 Q 101 65 83 83 L 83 83 Q 65 101 64 128 Q 65 155 83 173 Q 101 191 128 192 L 416 192 Q 430 192 439 201 Q 448 210 448 224 Q 448 238 439 247 Q 430 256 416 256 L 128 256 Q 74 255 37 219 Q 1 182 0 128 Q 1 74 37 37 Q 74 1 128 0 L 368 0 Q 402 1 425 23 Q 447 46 448 80 Q 447 114 425 137 Q 402 159 368 160 L 128 160 Q 114 160 105 151 Q 96 142 96 128 Q 96 114 105 105 Q 114 96 128 96 L 368 96 Q 383 95 384 80 Q 383 65 368 64 L 128 64 L 128 64 Z"/>
</svg>
