<svg xmlns="http://www.w3.org/2000/svg" viewBox="0 0 512 512">
    <path d="M 256 512 Q 208 512 165 495 Q 191 462 192 417 L 192 386 Q 219 399 256 400 Q 293 399 320 386 L 320 417 Q 321 462 347 495 Q 304 512 256 512 L 256 512 Z M 0 243 Q 5 174 39 120 L 39 120 Q 74 65 130 33 L 130 33 Q 187 1 256 0 Q 325 1 382 33 Q 438 65 473 120 Q 507 174 512 243 Q 484 234 462 254 L 415 301 Q 400 279 372 278 Q 350 279 335 294 Q 321 308 320 330 L 320 350 Q 295 367 256 368 Q 217 367 192 350 L 192 330 Q 191 308 177 294 Q 162 279 140 278 Q 112 279 97 301 L 50 254 Q 28 234 0 243 L 0 243 Z M 218 229 L 218 229 L 218 229 Q 221 233 227 232 Q 232 230 232 224 Q 231 196 215 175 Q 200 154 176 152 Q 152 154 137 175 Q 121 196 120 224 Q 120 230 126 232 Q 131 233 134 229 L 134 229 L 134 229 L 134 229 L 135 229 Q 135 228 135 228 Q 135 228 135 228 Q 136 226 138 224 Q 142 220 148 214 Q 162 201 176 200 Q 190 201 204 214 Q 210 220 214 224 Q 216 226 217 228 Q 217 228 217 228 Q 217 228 217 229 L 218 229 L 218 229 L 218 229 L 218 229 Z M 378 229 L 378 229 L 378 229 L 378 229 Q 381 233 387 232 Q 392 230 392 224 Q 391 196 375 175 Q 360 154 336 152 Q 312 154 297 175 Q 281 196 280 224 Q 280 230 286 232 Q 291 233 294 229 L 294 229 L 294 229 L 294 229 L 295 229 Q 295 228 295 228 Q 295 228 295 228 Q 296 226 298 224 Q 302 220 308 214 Q 322 201 336 200 Q 350 201 364 214 Q 370 220 374 224 Q 376 226 377 228 Q 377 228 377 228 Q 377 228 377 229 L 378 229 L 378 229 L 378 229 Z"/>
</svg>
