<svg xmlns="http://www.w3.org/2000/svg" viewBox="0 0 640 448">
    <path d="M 128 128 Q 164 127 183 96 Q 201 64 183 32 Q 164 1 128 0 Q 92 1 73 32 Q 55 64 73 96 Q 92 127 128 128 L 128 128 Z M 48 272 Q 49 247 64 230 L 64 314 Q 49 297 48 272 L 48 272 Z M 160 272 Q 161 214 198 174 Q 174 160 144 160 L 112 160 Q 64 161 33 193 Q 1 224 0 272 Q 0 306 18 333 Q 35 359 64 373 L 64 416 Q 64 430 73 439 Q 82 448 96 448 L 160 448 Q 174 448 183 439 Q 192 430 192 416 L 192 373 L 192 363 Q 161 324 160 272 L 160 272 Z M 448 373 L 448 416 Q 448 430 457 439 Q 466 448 480 448 L 544 448 Q 558 448 567 439 Q 576 430 576 416 L 576 373 Q 605 359 622 333 Q 640 306 640 272 Q 639 224 607 193 Q 576 161 528 160 L 496 160 Q 466 160 442 174 Q 479 214 480 272 Q 479 324 448 363 L 448 373 L 448 373 Z M 512 128 Q 548 127 567 96 Q 585 64 567 32 Q 548 1 512 0 Q 476 1 457 32 Q 439 64 457 96 Q 476 127 512 128 L 512 128 Z M 592 272 Q 592 297 576 314 L 576 230 Q 592 247 592 272 L 592 272 Z"/>
</svg>
