<svg xmlns="http://www.w3.org/2000/svg" viewBox="0 0 421 448">
    <path d="M 352 320 L 384 320 Q 405 321 414 340 Q 421 359 407 375 L 343 439 Q 333 448 320 448 Q 307 448 297 439 L 233 375 Q 219 359 226 340 Q 235 321 256 320 L 288 320 L 288 32 Q 288 18 297 9 Q 306 0 320 0 Q 334 0 343 9 Q 352 18 352 32 L 352 320 L 352 320 Z M 96 336 Q 95 356 82 370 L 82 370 Q 68 383 48 384 Q 28 383 14 370 Q 1 356 0 336 Q 2 303 32 291 L 32 240 Q 33 225 48 224 Q 63 225 64 240 L 64 291 Q 94 303 96 336 L 96 336 Z"/>
</svg>
