<svg xmlns="http://www.w3.org/2000/svg" viewBox="0 0 330 364">
    <path d="M 247 139 L 313 92 Q 329 77 318 58 Q 304 41 285 52 L 233 89 L 239 26 Q 240 4 218 0 Q 196 0 192 22 L 184 102 Q 165 104 150 115 L 135 107 L 142 87 Q 147 65 127 56 Q 105 51 96 71 L 83 110 Q 78 128 94 139 L 122 155 L 110 175 L 73 164 Q 57 160 47 172 L 12 217 Q 0 235 16 251 Q 35 262 50 246 L 75 215 L 93 220 Q 93 256 125 277 Q 159 294 190 276 L 204 289 L 189 327 Q 183 348 202 358 Q 223 364 233 345 L 255 292 Q 260 277 249 266 L 221 239 L 233 219 L 260 235 Q 277 243 290 230 L 317 199 Q 330 181 315 165 Q 297 152 281 167 L 267 183 L 252 175 Q 255 156 247 139 L 247 139 Z"/>
</svg>
