<svg xmlns="http://www.w3.org/2000/svg" viewBox="0 0 448 416">
    <path d="M 96 32 Q 96 18 105 9 L 105 9 Q 114 0 128 0 Q 142 0 151 9 Q 160 18 160 32 L 160 64 L 288 64 L 288 32 Q 288 18 297 9 Q 306 0 320 0 Q 334 0 343 9 Q 352 18 352 32 L 352 64 L 400 64 Q 420 65 434 78 Q 447 92 448 112 L 448 192 L 0 192 L 0 112 Q 1 92 14 78 Q 28 65 48 64 L 96 64 L 96 32 L 96 32 Z M 96 296 Q 98 274 120 272 L 328 272 Q 350 274 352 296 Q 350 318 328 320 L 120 320 Q 98 318 96 296 L 96 296 Z M 120 368 L 232 368 Q 254 370 256 392 Q 254 414 232 416 L 120 416 Q 98 414 96 392 Q 98 370 120 368 L 120 368 Z"/>
</svg>
