<svg xmlns="http://www.w3.org/2000/svg" viewBox="0 0 448 448">
    <path d="M 358 403 Q 301 447 224 448 Q 147 447 90 403 L 55 439 Q 45 448 32 448 Q 19 448 9 439 Q 0 429 0 416 Q 0 403 9 393 L 45 358 Q 1 301 0 224 Q 1 161 31 111 Q 60 60 111 31 Q 161 1 224 0 Q 287 1 337 31 Q 388 60 417 111 Q 447 161 448 224 Q 447 301 403 358 L 439 393 Q 448 403 448 416 Q 448 429 439 439 Q 429 448 416 448 Q 403 448 393 439 L 358 404 L 358 403 Z M 256 320 Q 256 306 247 297 L 247 297 Q 238 288 224 288 Q 210 288 201 297 Q 192 306 192 320 Q 192 334 201 343 Q 210 352 224 352 Q 238 352 247 343 Q 256 334 256 320 L 256 320 Z M 248 120 Q 246 98 224 96 Q 202 98 200 120 L 200 232 Q 202 254 224 256 Q 246 254 248 232 L 248 120 L 248 120 Z"/>
</svg>
