<svg xmlns="http://www.w3.org/2000/svg" viewBox="0 0 576 460">
    <path d="M 0 87 L 0 396 Q 1 426 27 438 Q 92 460 158 452 Q 223 444 288 426 Q 348 409 408 400 Q 468 392 527 407 Q 545 411 560 401 Q 575 392 576 373 L 576 64 Q 575 34 549 22 Q 484 0 419 8 Q 353 16 288 34 Q 228 51 168 59 Q 108 68 49 53 Q 30 49 16 58 Q 1 68 0 87 L 0 87 Z M 512 134 L 512 278 Q 488 278 471 293 Q 454 308 449 330 Q 402 332 358 340 Q 315 349 276 359 L 276 359 Q 269 361 262 363 Q 187 383 128 386 Q 126 360 108 343 Q 90 327 64 326 L 64 182 Q 88 182 105 167 Q 122 152 127 130 Q 174 128 218 120 Q 261 111 300 101 L 300 101 Q 307 99 314 97 Q 314 97 314 97 Q 389 77 448 74 Q 451 100 468 117 Q 486 133 512 134 L 512 134 Z"/>
</svg>
