<svg xmlns="http://www.w3.org/2000/svg" viewBox="0 0 581 448">
    <path d="M 364 348 Q 331 368 291 368 Q 230 366 189 326 Q 149 285 147 224 Q 147 202 153 182 L 67 114 Q 22 169 5 212 Q 0 224 5 236 Q 17 264 40 299 Q 63 334 98 367 Q 134 401 182 424 Q 230 447 291 448 Q 375 445 436 405 L 364 348 L 364 348 Z M 202 220 Q 195 222 195 228 Q 195 238 198 249 Q 210 288 243 307 Q 276 326 316 317 Q 319 316 322 315 L 202 220 L 202 220 Z M 291 168 L 385 242 Q 390 221 384 199 Q 375 168 351 149 Q 326 130 295 128 Q 286 130 288 140 Q 291 149 291 160 Q 291 164 291 168 L 291 168 Z M 435 224 Q 435 251 426 274 L 510 340 Q 559 282 577 236 Q 581 224 577 212 Q 565 184 542 149 Q 519 114 484 81 Q 448 47 400 24 Q 352 1 291 0 Q 201 3 138 49 L 210 105 Q 245 81 291 80 Q 352 82 393 122 Q 433 163 435 224 L 435 224 Z"/>
</svg>
