<svg xmlns="http://www.w3.org/2000/svg" viewBox="0 0 512 448">
    <path d="M 336 380 L 423 448 L 64 448 Q 37 447 19 429 Q 1 411 0 384 L 0 114 L 99 192 Q 97 192 96 192 Q 96 192 96 192 L 64 192 Q 49 193 48 208 L 48 240 Q 49 255 64 256 L 96 256 Q 111 255 112 240 L 112 208 Q 112 205 111 202 L 182 258 Q 161 265 160 288 L 160 352 Q 160 366 169 375 Q 178 384 192 384 L 320 384 Q 329 384 336 380 L 336 380 Z M 512 384 Q 512 389 511 394 L 254 192 L 320 192 Q 334 192 343 183 Q 352 174 352 160 L 352 96 Q 352 82 343 73 Q 334 64 320 64 L 192 64 Q 178 64 169 73 Q 160 82 160 96 L 160 118 L 26 13 Q 42 0 64 0 L 448 0 Q 475 1 493 19 Q 511 37 512 64 L 512 384 L 512 384 Z M 48 336 L 48 368 Q 49 383 64 384 L 96 384 Q 111 383 112 368 L 112 336 Q 111 321 96 320 L 64 320 Q 49 321 48 336 L 48 336 Z M 400 208 L 400 240 Q 401 255 416 256 L 448 256 Q 463 255 464 240 L 464 208 Q 463 193 448 192 L 416 192 Q 401 193 400 208 L 400 208 Z M 416 64 Q 401 65 400 80 L 400 112 Q 401 127 416 128 L 448 128 Q 463 127 464 112 L 464 80 Q 463 65 448 64 L 416 64 L 416 64 Z"/>
</svg>
