<svg xmlns="http://www.w3.org/2000/svg" viewBox="0 0 582 520">
    <path d="M 220 290 Q 252 266 271 230 L 271 230 Q 290 193 290 150 Q 290 107 271 70 L 351 12 Q 370 0 389 12 L 565 140 Q 582 154 576 176 Q 568 197 546 198 L 529 198 L 530 282 Q 526 280 523 278 Q 506 263 485 263 Q 464 262 445 274 Q 416 294 386 294 Q 355 294 327 274 Q 310 262 290 262 Q 270 262 253 274 Q 238 285 220 290 L 220 290 Z M 272 316 Q 290 304 309 316 Q 344 341 386 342 Q 428 340 463 316 L 463 316 Q 484 303 503 318 Q 525 336 553 343 Q 566 346 573 357 Q 580 368 577 381 Q 574 394 563 401 Q 552 408 539 405 Q 501 395 480 380 Q 436 405 386 406 Q 337 403 306 387 Q 297 383 290 379 Q 283 383 274 387 Q 243 403 194 406 Q 144 405 100 380 Q 79 395 41 405 Q 28 408 17 401 Q 6 394 3 381 Q 0 368 7 357 Q 14 346 27 343 Q 55 336 77 318 Q 96 303 117 316 L 117 316 Q 152 340 194 342 Q 237 341 272 316 L 272 316 Z M 386 454 Q 428 452 463 428 L 463 428 Q 484 415 503 430 Q 525 448 553 455 Q 566 458 573 469 Q 580 480 577 493 Q 574 506 563 513 Q 552 520 539 517 Q 501 507 480 492 Q 436 517 386 518 Q 337 515 306 499 Q 297 495 290 491 Q 283 495 274 499 Q 243 515 194 518 Q 144 517 100 492 Q 79 507 41 517 Q 28 520 17 513 Q 6 506 3 493 Q 0 480 7 469 Q 14 458 27 455 Q 55 448 77 430 Q 96 416 117 428 L 117 428 Q 152 452 194 454 Q 237 453 272 428 Q 290 416 309 428 Q 344 453 386 454 L 386 454 Z"/>
</svg>
