<svg xmlns="http://www.w3.org/2000/svg" viewBox="0 0 260 326">
    <path d="M 167 112 L 200 39 Q 207 18 188 7 Q 167 0 156 19 L 130 77 L 104 19 Q 93 0 72 7 Q 53 18 60 39 L 94 112 Q 78 123 71 141 L 54 141 L 50 120 Q 43 99 21 102 Q 0 108 3 130 L 11 170 Q 15 188 34 189 L 66 189 L 66 212 L 28 222 Q 13 226 10 242 L 2 298 Q 1 320 23 325 Q 45 326 50 305 L 56 265 L 74 260 Q 92 291 130 293 Q 168 291 186 260 L 205 264 L 210 304 Q 215 326 237 325 Q 259 320 258 298 L 250 242 Q 247 226 232 222 L 194 212 L 194 189 L 226 189 Q 245 188 250 170 L 258 130 Q 260 108 239 102 Q 217 99 211 120 L 206 141 L 189 141 Q 182 123 166 112 L 167 112 Z"/>
</svg>
