<svg xmlns="http://www.w3.org/2000/svg" viewBox="0 0 505 299">
    <path d="M 444 45 Q 419 19 388 0 Q 326 7 269 27 Q 359 28 444 46 L 444 45 Z M 474 85 Q 425 73 374 67 Q 316 59 256 59 Q 221 59 187 62 Q 111 67 38 85 Q 17 119 7 159 Q 36 151 65 144 Q 133 129 205 124 Q 230 123 256 123 Q 386 123 505 159 Q 495 119 474 85 L 474 85 Z M 145 162 Q 80 171 18 189 Q 9 199 0 210 Q 0 214 0 219 Q 0 261 13 299 Q 67 219 145 162 L 145 162 Z M 187 173 Q 165 187 145 203 Q 145 217 154 226 Q 163 235 177 235 Q 190 235 199 226 Q 208 217 209 203 Q 207 180 187 173 L 187 173 Z M 336 235 Q 350 235 359 226 L 359 226 Q 368 217 368 203 Q 368 189 359 180 Q 350 171 336 171 Q 323 171 314 180 Q 305 189 304 203 Q 305 217 314 226 Q 323 235 336 235 L 336 235 Z"/>
</svg>
