<svg xmlns="http://www.w3.org/2000/svg" viewBox="0 0 528 272">
    <path d="M 432 0 Q 454 2 456 24 L 456 72 L 504 72 Q 526 74 528 96 Q 526 118 504 120 L 456 120 L 456 168 Q 454 190 432 192 Q 410 190 408 168 L 408 120 L 360 120 Q 338 118 336 96 Q 338 74 360 72 L 408 72 L 408 24 Q 410 2 432 0 L 432 0 Z M 32 208 Q 46 208 55 217 L 55 217 Q 64 226 64 240 Q 64 254 55 263 Q 46 272 32 272 Q 19 272 10 263 Q 1 254 0 240 Q 1 226 10 217 Q 19 208 32 208 L 32 208 Z M 192 208 Q 206 208 215 217 L 215 217 Q 224 226 224 240 Q 224 254 215 263 Q 206 272 192 272 Q 179 272 170 263 Q 161 254 160 240 Q 161 226 170 217 Q 179 208 192 208 L 192 208 Z"/>
</svg>
