<svg xmlns="http://www.w3.org/2000/svg" viewBox="0 0 448 512">
    <path d="M 120 112 L 176 112 Q 202 112 224 99 Q 245 87 258 66 Q 276 95 312 96 L 348 96 Q 337 54 303 27 Q 270 1 224 0 Q 175 1 141 31 Q 106 61 98 107 Q 108 112 120 112 L 120 112 Z M 288 304 Q 288 304 288 304 L 288 304 Q 284 304 280 304 L 168 304 Q 164 304 160 304 Q 160 304 160 304 L 160 370 Q 178 376 189 390 Q 200 405 200 424 Q 199 448 184 464 Q 168 479 144 480 Q 120 479 104 464 Q 89 448 88 424 Q 88 405 99 390 Q 110 376 128 370 L 128 309 Q 72 323 36 367 Q 1 412 0 472 L 0 480 Q 0 494 9 503 Q 18 512 32 512 L 416 512 Q 430 512 439 503 Q 448 494 448 480 L 448 472 Q 447 412 412 367 Q 376 323 320 309 L 320 362 Q 341 368 354 384 Q 368 401 368 424 L 368 464 Q 367 479 352 480 L 336 480 Q 321 479 320 464 Q 321 449 336 448 L 336 424 Q 336 410 327 401 Q 318 392 304 392 Q 290 392 281 401 Q 272 410 272 424 L 272 448 Q 287 449 288 464 Q 287 479 272 480 L 256 480 Q 241 479 240 464 L 240 424 Q 240 401 254 384 Q 267 368 288 362 L 288 304 L 288 304 Z M 168 424 Q 166 402 144 400 Q 122 402 120 424 Q 122 446 144 448 Q 166 446 168 424 L 168 424 Z"/>
</svg>
