<svg xmlns="http://www.w3.org/2000/svg" viewBox="0 0 322 520">
    <path d="M 66 54 Q 67 81 90 96 Q 114 108 138 96 Q 161 81 162 54 Q 161 27 138 12 Q 114 0 90 12 Q 67 27 66 54 L 66 54 Z M 196 205 Q 196 206 197 206 L 197 206 Q 198 206 198 207 L 206 210 Q 232 222 241 248 L 244 256 Q 248 269 260 274 Q 271 280 284 276 Q 297 272 303 260 Q 308 249 304 236 L 302 228 Q 283 175 232 151 L 224 148 Q 193 134 158 134 Q 124 134 97 152 Q 70 171 56 202 L 41 239 L 20 249 Q 8 256 4 268 Q 0 280 5 292 Q 12 304 24 308 Q 36 312 48 307 L 75 293 Q 91 285 98 269 L 107 246 L 127 311 L 77 365 Q 69 374 66 386 L 43 478 Q 40 491 47 502 Q 53 513 66 517 Q 80 520 91 513 Q 101 507 105 494 L 127 406 L 198 328 Q 220 302 212 269 L 196 205 L 196 205 Z M 253 404 L 228 342 Q 225 346 221 350 L 181 395 L 195 431 Q 199 440 206 447 L 267 509 Q 277 518 290 518 Q 303 518 313 509 Q 322 499 322 486 Q 322 473 313 463 L 253 404 L 253 404 Z"/>
</svg>
