<svg xmlns="http://www.w3.org/2000/svg" viewBox="0 0 448 448">
    <path d="M 448 32 Q 448 18 439 9 L 439 9 Q 430 0 416 0 L 320 0 Q 306 0 297 9 Q 288 18 288 32 Q 288 46 297 55 Q 306 64 320 64 L 384 64 L 384 128 Q 384 142 393 151 Q 402 160 416 160 Q 430 160 439 151 Q 448 142 448 128 L 448 32 L 448 32 Z M 32 288 Q 18 288 9 297 L 9 297 Q 0 306 0 320 L 0 416 Q 0 430 9 439 Q 18 448 32 448 L 128 448 Q 142 448 151 439 Q 160 430 160 416 Q 160 402 151 393 Q 142 384 128 384 L 64 384 L 64 320 Q 64 306 55 297 Q 46 288 32 288 L 32 288 Z"/>
</svg>
