<svg xmlns="http://www.w3.org/2000/svg" viewBox="0 0 448 448">
    <path d="M 192 96 Q 192 122 179 144 L 179 144 Q 166 166 144 179 Q 121 192 96 192 Q 71 192 48 179 Q 26 166 13 144 Q 0 122 0 96 Q 0 70 13 48 Q 26 26 48 13 Q 71 0 96 0 Q 121 0 144 13 Q 166 26 179 48 Q 192 70 192 96 L 192 96 Z M 192 352 Q 192 378 179 400 L 179 400 Q 166 422 144 435 Q 121 448 96 448 Q 71 448 48 435 Q 26 422 13 400 Q 0 378 0 352 Q 0 326 13 304 Q 26 282 48 269 Q 71 256 96 256 Q 121 256 144 269 Q 166 282 179 304 Q 192 326 192 352 L 192 352 Z M 352 192 Q 326 192 304 179 L 304 179 Q 282 166 269 144 Q 256 121 256 96 Q 256 71 269 48 Q 282 26 304 13 Q 326 0 352 0 Q 378 0 400 13 Q 422 26 435 48 Q 448 71 448 96 Q 448 121 435 144 Q 422 166 400 179 Q 378 192 352 192 L 352 192 Z"/>
</svg>
