<svg xmlns="http://www.w3.org/2000/svg" viewBox="0 0 512 384">
    <path d="M 192 0 Q 214 2 216 24 L 216 38 Q 218 65 241 74 Q 263 84 284 66 L 294 56 Q 311 42 328 56 Q 342 73 328 90 L 318 100 Q 300 121 310 143 Q 319 166 347 168 L 360 168 Q 382 170 384 192 Q 382 214 360 216 L 347 216 Q 319 218 310 241 Q 300 263 318 284 L 328 294 Q 342 311 328 328 Q 311 342 294 328 L 284 318 Q 263 300 241 310 Q 218 319 216 347 L 216 360 Q 214 382 192 384 Q 170 382 168 360 L 168 347 Q 166 319 143 310 Q 121 300 100 318 L 90 328 Q 73 342 56 328 Q 42 311 56 294 L 66 284 Q 84 263 74 241 Q 65 218 38 216 L 24 216 Q 2 214 0 192 Q 2 170 24 168 L 38 168 Q 65 166 74 143 Q 84 121 66 100 L 56 90 Q 42 73 56 56 Q 73 42 90 56 L 100 66 Q 121 84 143 74 Q 166 65 168 38 L 168 24 Q 170 2 192 0 L 192 0 Z M 240 224 Q 255 223 256 208 Q 255 193 240 192 Q 225 193 224 208 Q 225 223 240 224 L 240 224 Z M 192 160 Q 192 146 183 137 L 183 137 Q 174 128 160 128 Q 146 128 137 137 Q 128 146 128 160 Q 128 174 137 183 Q 146 192 160 192 Q 174 192 183 183 Q 192 174 192 160 L 192 160 Z M 480 320 Q 494 320 503 329 L 503 329 Q 512 338 512 352 Q 512 366 503 375 Q 494 384 480 384 Q 466 384 457 375 Q 448 366 448 352 Q 448 338 457 329 Q 466 320 480 320 L 480 320 Z"/>
</svg>
