<svg xmlns="http://www.w3.org/2000/svg" viewBox="0 0 279 344">
    <path d="M 95 11 Q 113 0 131 11 L 152 26 Q 160 31 169 31 L 195 32 Q 216 34 224 53 L 232 77 Q 236 86 243 92 L 263 107 Q 279 121 274 142 L 267 166 Q 264 175 267 184 L 274 208 Q 279 229 263 243 L 243 258 Q 235 264 232 273 L 224 297 Q 216 317 195 318 L 169 319 Q 160 319 152 324 L 131 339 Q 125 343 118 344 Q 129 309 129 271 Q 129 254 127 238 Q 149 232 163 215 Q 177 198 177 175 Q 176 148 158 130 Q 140 112 113 111 Q 93 111 77 122 Q 46 82 0 58 L 2 53 Q 10 34 32 32 L 57 31 Q 66 31 74 26 L 95 11 L 95 11 Z"/>
</svg>
