<svg xmlns="http://www.w3.org/2000/svg" viewBox="0 0 448 512">
    <path d="M 110 70 Q 126 38 156 19 L 156 19 Q 186 0 224 0 Q 262 0 292 19 Q 322 38 338 70 Q 349 64 361 64 Q 381 65 394 78 Q 408 91 408 111 L 408 136 Q 407 160 392 176 Q 376 191 352 192 L 319 192 Q 320 184 320 176 L 320 112 L 288 112 Q 247 111 224 80 Q 201 111 160 112 L 128 112 L 128 176 Q 128 184 129 192 L 96 192 Q 72 191 56 176 Q 41 160 40 136 L 40 111 Q 41 91 54 78 Q 67 64 87 64 Q 99 64 110 70 L 110 70 Z M 0 481 Q 2 413 47 367 L 47 367 Q 93 322 161 320 L 287 320 Q 355 322 401 367 Q 446 413 448 481 Q 448 494 439 503 Q 430 512 417 512 L 31 512 Q 18 512 9 503 Q 0 494 0 481 L 0 481 Z"/>
</svg>
