<svg xmlns="http://www.w3.org/2000/svg" viewBox="0 0 464 448">
    <path d="M 48 64 Q 49 37 67 19 L 67 19 Q 85 1 112 0 L 400 0 Q 427 1 445 19 Q 463 37 464 64 L 464 384 Q 463 411 445 429 Q 427 447 400 448 L 48 448 L 0 448 Q 20 447 34 434 Q 47 420 48 400 L 48 64 L 48 64 Z M 112 88 L 112 168 Q 114 190 136 192 L 248 192 Q 270 190 272 168 L 272 88 Q 270 66 248 64 L 136 64 Q 114 66 112 88 L 112 88 Z M 320 80 Q 321 95 336 96 L 384 96 Q 399 95 400 80 Q 399 65 384 64 L 336 64 Q 321 65 320 80 L 320 80 Z M 320 176 Q 321 191 336 192 L 384 192 Q 399 191 400 176 Q 399 161 384 160 L 336 160 Q 321 161 320 176 L 320 176 Z M 112 272 Q 113 287 128 288 L 384 288 Q 399 287 400 272 Q 399 257 384 256 L 128 256 Q 113 257 112 272 L 112 272 Z M 112 368 Q 113 383 128 384 L 384 384 Q 399 383 400 368 Q 399 353 384 352 L 128 352 Q 113 353 112 368 L 112 368 Z"/>
</svg>
