<svg xmlns="http://www.w3.org/2000/svg" viewBox="0 0 352 512">
    <path d="M 224 160 L 64 0 L 64 128 Q 64 142 73 151 Q 82 160 96 160 L 224 160 L 224 160 Z M 40 352 Q 23 352 12 364 L 12 364 Q 0 375 0 392 L 0 472 Q 0 489 12 500 Q 23 512 40 512 L 56 512 Q 73 512 84 500 Q 96 489 96 472 L 96 464 Q 95 449 80 448 Q 65 449 64 464 L 64 472 Q 63 479 56 480 L 40 480 Q 33 479 32 472 L 32 392 Q 33 385 40 384 L 56 384 Q 63 385 64 392 L 64 400 Q 65 415 80 416 Q 95 415 96 400 L 96 392 Q 96 375 84 364 Q 73 352 56 352 L 40 352 L 40 352 Z M 173 352 Q 154 352 141 365 L 141 365 Q 128 378 128 397 Q 129 426 155 438 L 192 455 Q 200 459 200 467 Q 199 479 187 480 L 144 480 Q 129 481 128 496 Q 129 511 144 512 L 187 512 Q 206 512 219 499 Q 232 486 232 467 Q 231 438 205 426 L 168 409 Q 160 405 160 397 Q 161 385 173 384 L 208 384 Q 223 383 224 368 Q 223 353 208 352 L 173 352 L 173 352 Z M 272 352 Q 257 353 256 368 L 256 400 Q 256 453 286 497 L 291 505 Q 296 512 304 512 Q 312 512 317 505 L 322 497 Q 352 453 352 400 L 352 368 Q 351 353 336 352 Q 321 353 320 368 L 320 400 Q 320 435 304 466 Q 288 435 288 400 L 288 368 Q 287 353 272 352 L 272 352 Z"/>
</svg>
