<svg xmlns="http://www.w3.org/2000/svg" viewBox="0 0 582 508">
    <path d="M 137 20 Q 146 0 168 3 L 237 15 Q 291 25 345 15 L 414 3 Q 436 0 445 20 L 474 97 Q 492 144 523 182 L 568 236 Q 582 254 568 272 L 523 326 Q 492 364 474 411 L 445 488 Q 436 508 414 506 L 345 493 Q 291 483 237 493 L 168 506 Q 146 508 137 488 L 108 411 Q 90 364 59 326 L 14 272 Q 0 254 14 236 L 59 182 Q 90 144 108 97 L 137 20 L 137 20 Z M 181 62 L 160 117 Q 140 172 102 218 L 71 254 L 102 290 Q 139 336 160 391 L 181 446 L 227 438 Q 291 426 355 438 L 401 446 L 422 391 Q 442 336 480 290 L 511 254 L 480 218 Q 443 172 422 117 L 401 62 L 355 71 Q 291 82 227 71 L 181 62 L 181 62 Z"/>
</svg>
