<svg xmlns="http://www.w3.org/2000/svg" viewBox="0 0 234 450">
    <path d="M 33 66 Q 2 78 0 112 L 0 136 Q 2 158 24 160 L 112 160 L 200 160 Q 222 158 224 136 L 224 112 Q 222 78 191 66 Q 185 37 164 19 Q 142 1 112 0 Q 82 1 60 19 Q 39 37 33 66 L 33 66 Z M 88 80 Q 90 58 112 56 Q 134 58 136 80 Q 134 102 112 104 Q 90 102 88 80 L 88 80 Z M 24 196 Q 6 198 4 216 L 4 296 L 4 360 Q 6 378 24 380 Q 42 378 44 360 L 44 316 L 64 316 Q 65 317 66 319 L 131 379 L 99 409 Q 86 423 97 438 Q 111 450 126 439 L 161 407 L 194 439 Q 209 450 223 438 Q 234 423 222 409 L 190 380 L 222 351 Q 234 337 223 323 Q 209 310 195 321 L 161 352 L 118 312 Q 135 305 145 290 Q 156 275 156 256 Q 155 231 138 214 Q 121 197 96 196 L 24 196 L 24 196 Z M 96 276 L 44 276 L 44 236 L 96 236 Q 114 238 116 256 Q 114 274 96 276 L 96 276 Z"/>
</svg>
