<svg xmlns="http://www.w3.org/2000/svg" viewBox="0 0 384 384">
    <path d="M 0 64 L 0 320 Q 1 347 19 365 Q 37 383 64 384 L 262 384 Q 288 384 307 365 L 365 307 Q 384 288 384 262 L 384 64 Q 383 37 365 19 Q 347 1 320 0 L 64 0 Q 37 1 19 19 Q 1 37 0 64 L 0 64 Z M 160 112 Q 161 97 176 96 L 208 96 Q 223 97 224 112 L 224 160 L 272 160 Q 287 161 288 176 L 288 208 Q 287 223 272 224 L 224 224 L 224 272 Q 223 287 208 288 L 176 288 Q 161 287 160 272 L 160 224 L 112 224 Q 97 223 96 208 L 96 176 Q 97 161 112 160 L 160 160 L 160 112 L 160 112 Z"/>
</svg>
