<svg xmlns="http://www.w3.org/2000/svg" viewBox="0 0 448 512">
    <path d="M 96 32 L 96 64 L 48 64 Q 28 65 14 78 Q 1 92 0 112 L 0 160 L 32 160 L 416 160 L 448 160 L 448 112 Q 447 92 434 78 Q 420 65 400 64 L 352 64 L 352 32 Q 352 18 343 9 Q 334 0 320 0 Q 306 0 297 9 Q 288 18 288 32 L 288 64 L 160 64 L 160 32 Q 160 18 151 9 Q 142 0 128 0 Q 114 0 105 9 Q 96 18 96 32 L 96 32 Z M 151 512 L 297 512 Q 288 498 288 480 Q 289 447 308 422 Q 327 397 358 388 Q 322 355 320 304 Q 321 261 348 230 Q 374 200 416 193 L 416 192 L 32 192 L 32 193 Q 74 200 100 230 Q 127 261 128 304 Q 127 355 90 388 Q 121 397 140 422 Q 159 447 160 480 Q 160 498 151 512 L 151 512 Z"/>
</svg>
