<svg xmlns="http://www.w3.org/2000/svg" viewBox="0 0 448 448">
    <path d="M 200 0 Q 183 0 172 12 L 172 12 Q 160 23 160 40 L 160 88 Q 160 105 172 116 Q 183 128 200 128 L 248 128 Q 265 128 276 116 Q 288 105 288 88 L 288 40 Q 288 23 276 12 Q 265 0 248 0 L 200 0 L 200 0 Z M 40 160 Q 23 160 12 172 L 12 172 Q 0 183 0 200 L 0 248 Q 0 265 12 276 Q 23 288 40 288 L 88 288 Q 105 288 116 276 Q 128 265 128 248 L 128 200 Q 128 183 116 172 Q 105 160 88 160 L 40 160 L 40 160 Z M 160 360 L 160 408 Q 160 425 172 436 Q 183 448 200 448 L 248 448 Q 265 448 276 436 Q 288 425 288 408 L 288 360 Q 288 343 276 332 Q 265 320 248 320 L 200 320 Q 183 320 172 332 Q 160 343 160 360 L 160 360 Z M 360 160 Q 343 160 332 172 L 332 172 Q 320 183 320 200 L 320 248 Q 320 265 332 276 Q 343 288 360 288 L 408 288 Q 425 288 436 276 Q 448 265 448 248 L 448 200 Q 448 183 436 172 Q 425 160 408 160 L 360 160 L 360 160 Z"/>
</svg>
