<svg xmlns="http://www.w3.org/2000/svg" viewBox="0 0 448 513">
    <path d="M 230 2 Q 224 0 218 2 L 66 42 Q 52 46 49 60 Q 46 74 56 83 L 80 104 Q 80 105 80 107 Q 80 107 80 107 L 80 128 Q 80 145 95 153 Q 113 162 146 169 Q 179 177 224 177 Q 269 177 302 169 Q 335 162 353 153 Q 368 145 368 128 L 368 107 Q 368 106 368 105 Q 368 104 368 104 L 392 83 Q 402 74 400 60 Q 396 46 382 42 L 230 2 L 230 2 Z M 227 50 L 259 62 Q 264 65 264 70 Q 264 84 257 101 Q 249 118 227 128 Q 224 130 221 128 Q 199 118 191 101 Q 184 84 184 70 Q 184 65 189 62 L 221 50 Q 224 48 227 50 L 227 50 Z M 142 356 Q 139 353 134 353 Q 77 354 39 392 Q 1 430 0 487 Q 2 511 26 513 L 422 513 Q 446 511 448 487 Q 447 430 409 392 Q 371 354 314 353 Q 309 353 306 356 L 234 410 Q 224 416 214 410 L 142 356 L 142 356 Z M 360 415 L 365 431 L 382 431 Q 388 431 390 437 Q 391 442 387 446 L 373 456 L 378 472 Q 380 478 376 481 Q 371 484 366 481 L 352 471 L 338 481 Q 333 484 329 481 Q 324 478 326 472 L 331 456 L 317 446 Q 313 442 314 437 Q 316 431 322 431 L 339 431 L 344 414 Q 346 409 352 409 Q 358 409 360 414 L 360 415 Z"/>
</svg>
