<svg xmlns="http://www.w3.org/2000/svg" viewBox="0 0 394 418">
    <path d="M 329 40 Q 332 27 325 16 L 325 16 Q 318 6 304 3 Q 291 0 280 7 Q 270 14 267 28 L 265 34 L 184 34 Q 169 112 140 155 Q 112 198 82 217 Q 52 235 31 239 L 3 380 Q 0 394 9 406 Q 19 418 34 418 L 362 418 Q 376 418 385 409 Q 394 400 394 386 L 394 306 Q 393 286 375 277 L 296 242 L 234 242 Q 219 241 218 226 Q 219 211 234 210 L 295 210 L 305 162 L 250 162 Q 235 161 234 146 Q 235 131 250 130 L 311 130 L 323 72 L 329 40 L 329 40 Z"/>
</svg>
