<svg xmlns="http://www.w3.org/2000/svg" viewBox="0 0 416 352">
    <path d="M 32 0 Q 18 0 9 9 L 9 9 Q 0 18 0 32 Q 0 46 9 55 Q 18 64 32 64 L 48 64 L 48 192 Q 50 260 95 305 Q 140 350 208 352 Q 276 350 321 305 Q 366 260 368 192 L 368 64 L 384 64 Q 398 64 407 55 Q 416 46 416 32 Q 416 18 407 9 Q 398 0 384 0 L 288 0 Q 274 0 265 9 Q 256 18 256 32 Q 256 46 265 55 Q 274 64 288 64 L 304 64 L 304 192 Q 303 233 276 260 Q 249 287 208 288 Q 167 287 140 260 Q 113 233 112 192 L 112 64 L 128 64 Q 142 64 151 55 Q 160 46 160 32 Q 160 18 151 9 Q 142 0 128 0 L 32 0 L 32 0 Z"/>
</svg>
