<svg xmlns="http://www.w3.org/2000/svg" viewBox="0 0 448 512">
    <path d="M 448 32 Q 448 18 439 9 L 439 9 Q 430 0 416 0 Q 402 0 393 9 Q 384 18 384 32 L 384 480 Q 384 494 393 503 Q 402 512 416 512 Q 430 512 439 503 Q 448 494 448 480 L 448 32 L 448 32 Z M 320 128 Q 320 114 311 105 L 311 105 Q 302 96 288 96 Q 274 96 265 105 Q 256 114 256 128 L 256 480 Q 256 494 265 503 Q 274 512 288 512 Q 302 512 311 503 Q 320 494 320 480 L 320 128 L 320 128 Z M 160 192 Q 146 192 137 201 L 137 201 Q 128 210 128 224 L 128 480 Q 128 494 137 503 Q 146 512 160 512 Q 174 512 183 503 Q 192 494 192 480 L 192 224 Q 192 210 183 201 Q 174 192 160 192 L 160 192 Z M 64 320 Q 64 306 55 297 L 55 297 Q 46 288 32 288 Q 18 288 9 297 Q 0 306 0 320 L 0 480 Q 0 494 9 503 Q 18 512 32 512 Q 46 512 55 503 Q 64 494 64 480 L 64 320 L 64 320 Z"/>
</svg>
