<svg xmlns="http://www.w3.org/2000/svg" viewBox="0 0 202 512">
    <path d="M 78 9 Q 88 0 101 0 L 101 0 Q 114 0 124 9 L 188 73 Q 202 89 195 108 Q 186 127 165 128 L 133 128 L 133 160 Q 133 174 124 183 Q 115 192 101 192 Q 87 192 78 183 Q 69 174 69 160 L 69 128 L 37 128 Q 16 127 7 108 Q 0 89 14 73 L 78 9 L 78 9 Z M 69 384 L 69 352 Q 69 338 78 329 Q 87 320 101 320 Q 115 320 124 329 Q 133 338 133 352 L 133 384 L 165 384 Q 186 385 195 404 Q 202 423 188 439 L 124 503 Q 114 512 101 512 Q 88 512 78 503 L 14 439 Q 0 423 8 404 Q 16 385 37 384 L 69 384 L 69 384 Z"/>
</svg>
