<svg xmlns="http://www.w3.org/2000/svg" viewBox="0 0 357 357">
    <path d="M 290 22 Q 255 0 219 0 L 219 0 Q 183 0 159 24 Q 142 41 137 63 Q 134 76 124 85 Q 114 94 101 95 Q 62 97 34 124 Q 0 159 6 210 Q 11 261 53 305 Q 96 346 147 351 Q 198 357 233 323 Q 260 295 262 256 Q 263 243 272 233 Q 281 223 294 220 Q 316 215 333 198 Q 357 174 357 138 Q 357 102 335 67 L 261 141 Q 261 142 261 143 Q 261 143 261 144 Q 260 164 247 178 Q 233 191 213 192 Q 193 191 179 178 Q 166 164 165 144 Q 166 124 179 110 Q 193 97 213 96 Q 214 96 216 96 L 290 22 L 290 22 Z"/>
</svg>
