<svg xmlns="http://www.w3.org/2000/svg" viewBox="0 0 544 384">
    <path d="M 48 24 Q 46 2 24 0 Q 2 2 0 24 L 0 264 Q 1 315 35 349 Q 69 383 120 384 L 520 384 Q 542 382 544 360 Q 542 338 520 336 L 120 336 Q 89 335 69 315 Q 49 295 48 264 L 48 24 L 48 24 Z M 288 80 L 246 80 L 227 54 Q 222 48 214 48 L 200 48 Q 191 49 192 58 L 205 108 Q 206 112 205 116 L 192 166 Q 191 175 200 176 L 214 176 Q 222 176 227 170 L 246 144 L 289 144 L 265 214 Q 264 223 273 224 L 304 224 Q 317 224 325 212 L 364 144 L 405 144 Q 430 144 447 126 Q 459 112 447 98 Q 430 80 405 80 L 364 80 L 325 12 Q 318 0 304 0 L 273 0 Q 264 1 265 11 L 288 80 L 288 80 Z"/>
</svg>
