<svg xmlns="http://www.w3.org/2000/svg" viewBox="0 0 576 514">
    <path d="M 157 20 L 238 183 L 202 254 L 99 48 Q 94 36 98 24 Q 102 12 114 5 Q 126 0 138 4 Q 150 8 157 20 L 157 20 Z M 274 397 L 310 326 L 324 354 L 480 354 L 480 482 L 480 514 L 448 514 L 416 514 L 372 514 Q 333 513 315 479 L 274 397 L 274 397 Z M 544 354 Q 558 354 567 363 L 567 363 Q 576 372 576 386 L 576 482 Q 576 496 567 505 Q 558 514 544 514 L 512 514 L 512 354 L 544 354 L 544 354 Z M 32 354 L 32 514 L 0 514 L 0 354 L 32 354 L 32 354 Z"/>
</svg>
