<svg xmlns="http://www.w3.org/2000/svg" viewBox="0 0 416 384">
    <path d="M 224 32 Q 224 18 233 9 L 233 9 Q 242 0 256 0 L 384 0 Q 398 0 407 9 Q 416 18 416 32 Q 416 46 407 55 Q 398 64 384 64 L 256 64 Q 242 64 233 55 Q 224 46 224 32 L 224 32 Z M 96 336 Q 95 356 82 370 L 82 370 Q 68 383 48 384 Q 28 383 14 370 Q 1 356 0 336 Q 2 303 32 291 L 32 144 Q 33 129 48 128 Q 63 129 64 144 L 64 291 Q 94 303 96 336 L 96 336 Z M 256 128 L 384 128 Q 398 128 407 137 Q 416 146 416 160 Q 416 174 407 183 Q 398 192 384 192 L 256 192 Q 242 192 233 183 Q 224 174 224 160 Q 224 146 233 137 Q 242 128 256 128 L 256 128 Z M 256 288 Q 256 274 265 265 L 265 265 Q 274 256 288 256 L 384 256 Q 398 256 407 265 Q 416 274 416 288 Q 416 302 407 311 Q 398 320 384 320 L 288 320 Q 274 320 265 311 Q 256 302 256 288 L 256 288 Z"/>
</svg>
