<svg xmlns="http://www.w3.org/2000/svg" viewBox="0 0 448 464">
    <path d="M 214 11 L 217 18 Q 224 27 231 18 L 235 11 Q 240 0 252 0 Q 270 2 274 20 Q 280 55 302 80 Q 324 104 353 126 Q 353 126 353 126 Q 353 126 353 126 Q 389 153 418 190 Q 446 226 448 288 Q 447 344 415 383 Q 382 422 331 443 Q 281 463 224 464 Q 167 463 117 443 Q 66 422 33 383 Q 1 344 0 288 Q 2 226 30 190 Q 59 153 95 126 Q 95 126 95 126 Q 95 126 95 126 Q 124 104 146 80 Q 168 55 175 20 Q 178 2 196 0 Q 208 0 214 11 L 214 11 Z M 98 185 L 97 186 Q 97 187 96 188 Q 96 189 96 189 Q 95 190 95 190 Q 93 195 90 202 Q 83 218 76 244 Q 68 269 66 299 Q 63 329 73 358 Q 79 371 94 367 Q 107 361 103 346 Q 96 326 98 301 Q 99 276 106 252 Q 113 229 120 214 Q 123 207 125 203 Q 126 201 126 200 L 126 199 Q 127 198 128 196 Q 128 193 128 190 Q 127 183 121 179 Q 119 177 116 176 Q 113 176 110 176 Q 103 177 99 183 Q 98 184 98 185 L 98 185 Z M 209 121 L 209 122 Q 209 123 208 124 Q 208 125 207 127 Q 204 133 200 144 Q 190 166 180 204 Q 171 242 168 289 Q 165 337 176 388 Q 181 402 196 400 Q 210 395 207 380 Q 197 334 199 291 Q 202 247 211 212 Q 221 177 229 156 Q 233 146 236 140 Q 237 139 237 138 Q 237 137 238 136 L 238 135 L 238 135 Q 239 134 240 132 Q 240 129 240 126 Q 239 119 233 115 Q 231 113 228 113 Q 225 112 222 112 Q 215 113 211 119 Q 210 120 209 121 L 209 121 L 209 121 Z M 294 172 Q 294 172 294 172 Q 296 177 300 186 Q 309 203 319 231 Q 329 260 333 290 Q 337 321 330 348 Q 327 362 341 367 Q 355 370 361 356 Q 369 322 364 286 Q 359 251 349 221 Q 338 191 329 172 Q 325 163 322 158 Q 321 155 320 154 L 319 153 L 319 152 L 319 152 L 319 152 L 319 152 Q 319 152 318 153 Q 318 153 318 153 Q 318 153 318 153 L 319 152 Q 314 144 304 144 Q 304 144 304 144 Q 289 145 288 160 Q 288 168 294 172 L 294 172 Z"/>
</svg>
