<svg xmlns="http://www.w3.org/2000/svg" viewBox="0 0 640 256">
    <path d="M 503 41 L 509 76 L 527 80 Q 580 95 603 144 Q 608 155 608 168 L 608 176 Q 608 196 594 210 Q 580 223 560 224 L 559 224 Q 549 224 541 218 L 273 31 Q 229 0 175 0 Q 126 0 86 25 Q 45 50 23 94 L 14 113 Q 0 140 0 171 Q 1 223 37 256 L 117 256 Q 81 255 57 231 Q 33 207 32 171 Q 32 148 43 127 L 52 108 Q 70 73 103 53 Q 135 32 175 32 Q 219 32 255 57 L 522 244 Q 539 256 559 256 L 560 256 Q 594 255 617 233 Q 639 210 640 176 L 640 168 Q 640 149 632 131 Q 618 100 593 79 Q 568 58 535 49 L 503 41 L 503 41 Z"/>
</svg>
