<svg xmlns="http://www.w3.org/2000/svg" viewBox="0 0 519 519">
    <path d="M 465 14 Q 448 0 431 14 L 383 62 Q 379 66 378 71 L 362 112 L 286 188 Q 289 190 293 192 Q 293 192 293 192 Q 312 207 327 226 Q 329 230 331 233 L 407 157 L 448 141 Q 453 140 457 136 L 505 88 Q 519 71 505 54 L 465 14 L 465 14 Z M 192 135 Q 170 137 168 159 L 168 161 Q 180 159 192 159 Q 204 159 216 161 L 216 159 Q 214 137 192 135 L 192 135 Z M 360 327 Q 360 339 358 351 L 360 351 Q 382 349 384 327 Q 382 305 360 303 L 358 303 Q 360 315 360 327 L 360 327 Z M 293 462 L 294 463 Q 311 477 328 463 Q 342 446 328 429 L 327 428 Q 312 447 293 462 L 293 462 Z M 192 495 Q 180 495 168 493 L 168 495 Q 170 517 192 519 Q 214 517 216 495 L 216 493 Q 204 495 192 495 L 192 495 Z M 57 428 L 56 429 Q 42 446 56 463 Q 73 477 90 463 L 91 462 Q 72 447 57 428 L 57 428 Z M 24 327 Q 24 315 26 303 L 24 303 Q 2 305 0 327 Q 2 349 24 351 L 26 351 Q 24 339 24 327 L 24 327 Z M 91 192 L 90 191 Q 73 177 56 191 Q 42 208 56 225 L 58 226 Q 72 207 91 192 L 91 192 Z M 133 316 Q 123 327 133 338 L 181 386 Q 192 396 203 386 Q 213 375 203 364 L 155 316 Q 144 306 133 316 L 133 316 Z"/>
</svg>
