<svg xmlns="http://www.w3.org/2000/svg" viewBox="0 0 448 368">
    <path d="M 128 32 L 128 80 L 64 80 L 64 32 Q 64 18 73 9 Q 82 0 96 0 Q 110 0 119 9 Q 128 18 128 32 L 128 32 Z M 256 32 L 256 80 L 192 80 L 192 32 Q 192 18 201 9 Q 210 0 224 0 Q 238 0 247 9 Q 256 18 256 32 L 256 32 Z M 384 32 L 384 80 L 320 80 L 320 32 Q 320 18 329 9 Q 338 0 352 0 Q 366 0 375 9 Q 384 18 384 32 L 384 32 Z M 0 320 L 0 233 Q 13 240 29 240 Q 57 238 76 224 Q 95 210 96 208 Q 97 210 115 224 Q 132 238 160 240 Q 188 238 205 224 Q 223 210 224 208 Q 225 210 243 224 Q 260 238 288 240 Q 316 238 333 224 Q 351 210 352 208 Q 353 210 372 224 Q 391 238 419 240 Q 435 240 448 233 L 448 320 Q 447 340 434 354 Q 420 367 400 368 L 48 368 Q 28 367 14 354 Q 1 340 0 320 L 0 320 Z"/>
</svg>
