<svg xmlns="http://www.w3.org/2000/svg" viewBox="0 0 576 96">
    <path d="M 32 0 Q 18 0 9 9 L 9 9 Q 0 18 0 32 L 0 64 Q 0 78 9 87 Q 18 96 32 96 L 64 96 Q 78 96 87 87 Q 96 78 96 64 L 96 32 Q 96 18 87 9 Q 78 0 64 0 L 32 0 L 32 0 Z M 192 0 Q 178 0 169 9 L 169 9 Q 160 18 160 32 L 160 64 Q 160 78 169 87 Q 178 96 192 96 L 224 96 Q 238 96 247 87 Q 256 78 256 64 L 256 32 Q 256 18 247 9 Q 238 0 224 0 L 192 0 L 192 0 Z M 320 32 L 320 64 Q 320 78 329 87 Q 338 96 352 96 L 384 96 Q 398 96 407 87 Q 416 78 416 64 L 416 32 Q 416 18 407 9 Q 398 0 384 0 L 352 0 Q 338 0 329 9 Q 320 18 320 32 L 320 32 Z M 512 0 Q 498 0 489 9 L 489 9 Q 480 18 480 32 L 480 64 Q 480 78 489 87 Q 498 96 512 96 L 544 96 Q 558 96 567 87 Q 576 78 576 64 L 576 32 Q 576 18 567 9 Q 558 0 544 0 L 512 0 L 512 0 Z"/>
</svg>
