<svg xmlns="http://www.w3.org/2000/svg" viewBox="0 0 640 416">
    <path d="M 224 16 Q 225 1 240 0 L 368 0 Q 383 1 384 16 L 384 32 L 512 32 Q 553 33 580 60 Q 607 87 608 128 Q 608 142 599 151 Q 590 160 576 160 L 384 160 L 384 416 L 267 416 Q 256 388 232 370 Q 208 353 176 352 Q 146 352 123 368 Q 100 383 89 409 L 19 339 Q 0 320 0 294 L 0 96 Q 1 69 19 51 Q 37 33 64 32 L 224 32 L 224 16 L 224 16 Z M 96 144 L 96 208 Q 97 223 112 224 L 240 224 Q 255 223 256 208 L 256 144 Q 255 129 240 128 L 112 128 Q 97 129 96 144 L 96 144 Z M 416 320 L 416 288 L 416 216 L 416 192 L 440 192 L 517 192 Q 537 192 552 205 L 620 260 Q 640 277 640 303 L 640 320 L 640 384 Q 640 398 631 407 Q 622 416 608 416 L 587 416 Q 576 388 552 370 Q 528 353 496 352 Q 444 354 416 395 L 416 320 L 416 320 Z M 578 288 L 522 242 Q 519 240 517 240 L 464 240 L 464 288 L 578 288 L 578 288 Z"/>
</svg>
