<svg xmlns="http://www.w3.org/2000/svg" viewBox="0 0 288 288">
    <path d="M 144 288 Q 183 288 216 269 L 216 269 Q 249 250 269 216 Q 288 182 288 144 Q 288 106 269 72 Q 249 38 216 19 Q 183 0 144 0 Q 105 0 72 19 Q 39 38 19 72 Q 0 106 0 144 Q 0 182 19 216 Q 39 250 72 269 Q 105 288 144 288 L 144 288 Z M 144 48 Q 170 48 192 61 L 192 61 Q 214 74 227 96 Q 240 119 240 144 Q 240 169 227 192 Q 214 214 192 227 Q 170 240 144 240 Q 118 240 96 227 Q 74 214 61 192 Q 48 169 48 144 Q 48 119 61 96 Q 74 74 96 61 Q 118 48 144 48 L 144 48 Z"/>
</svg>
