<svg xmlns="http://www.w3.org/2000/svg" viewBox="0 0 384 384">
    <path d="M 137 118 L 134 129 Q 125 159 106 183 L 78 218 Q 64 235 64 257 Q 65 284 82 302 Q 100 319 127 320 Q 149 320 166 306 L 201 278 Q 225 259 255 251 L 266 247 Q 291 240 305 221 Q 320 201 320 176 L 320 176 Q 320 176 320 176 Q 320 176 320 176 Q 319 143 281 103 Q 241 65 208 64 Q 208 64 208 64 Q 208 64 208 64 L 208 64 Q 183 64 163 79 Q 144 93 137 118 L 137 118 Z M 384 176 L 384 176 Q 383 223 356 259 Q 329 295 284 309 L 272 312 Q 255 317 241 328 L 206 356 Q 171 384 127 384 Q 73 383 37 347 Q 1 311 0 257 Q 0 213 28 178 L 56 143 Q 67 129 72 111 L 75 100 Q 89 55 125 28 Q 161 1 208 0 L 208 0 Q 208 0 208 0 Q 208 0 208 0 Q 242 1 272 17 Q 303 33 327 57 Q 351 81 367 112 Q 383 142 384 176 Q 384 176 384 176 L 384 176 Z"/>
</svg>
