<svg xmlns="http://www.w3.org/2000/svg" viewBox="0 0 256 256">
    <path d="M 160 32 Q 160 46 151 55 L 151 55 Q 142 64 128 64 Q 114 64 105 55 Q 96 46 96 32 Q 96 18 105 9 Q 114 0 128 0 Q 142 0 151 9 Q 160 18 160 32 L 160 32 Z M 64 128 Q 64 142 55 151 L 55 151 Q 46 160 32 160 Q 18 160 9 151 Q 0 142 0 128 Q 0 114 9 105 Q 18 96 32 96 Q 46 96 55 105 Q 64 114 64 128 L 64 128 Z M 128 160 Q 114 160 105 151 L 105 151 Q 96 142 96 128 Q 96 114 105 105 Q 114 96 128 96 Q 142 96 151 105 Q 160 114 160 128 Q 160 142 151 151 Q 142 160 128 160 L 128 160 Z M 256 128 Q 256 142 247 151 L 247 151 Q 238 160 224 160 Q 210 160 201 151 Q 192 142 192 128 Q 192 114 201 105 Q 210 96 224 96 Q 238 96 247 105 Q 256 114 256 128 L 256 128 Z M 128 256 Q 114 256 105 247 L 105 247 Q 96 238 96 224 Q 96 210 105 201 Q 114 192 128 192 Q 142 192 151 201 Q 160 210 160 224 Q 160 238 151 247 Q 142 256 128 256 L 128 256 Z"/>
</svg>
