<svg xmlns="http://www.w3.org/2000/svg" viewBox="0 0 542 351">
    <path d="M 438 14 L 398 54 L 488 143 L 528 104 Q 542 89 542 70 Q 542 51 528 36 L 506 14 Q 491 0 472 0 Q 453 0 438 14 L 438 14 Z M 376 76 L 233 220 Q 222 231 217 245 L 193 316 Q 189 330 199 341 Q 210 351 224 347 L 295 323 Q 309 318 320 308 L 465 166 L 376 76 L 376 76 Z M 64 318 Q 64 304 55 295 L 55 295 Q 46 286 32 286 Q 18 286 9 295 Q 0 304 0 318 Q 0 332 9 341 Q 18 350 32 350 Q 46 350 55 341 Q 64 332 64 318 L 64 318 Z M 128 350 Q 142 350 151 341 L 151 341 Q 160 332 160 318 Q 160 304 151 295 Q 142 286 128 286 Q 114 286 105 295 Q 96 304 96 318 Q 96 332 105 341 Q 114 350 128 350 L 128 350 Z"/>
</svg>
