<svg xmlns="http://www.w3.org/2000/svg" viewBox="0 0 388 448">
    <path d="M 128 144 Q 162 143 185 121 L 185 121 Q 207 98 208 64 Q 207 24 176 0 Q 171 0 166 0 L 154 0 Q 104 0 61 20 Q 48 39 48 64 Q 49 98 71 121 Q 94 143 128 144 L 128 144 Z M 336 80 Q 309 81 291 99 L 291 99 Q 273 117 272 144 Q 273 171 291 189 Q 309 207 336 208 Q 369 207 388 182 Q 376 124 339 80 Q 338 80 337 80 Q 337 80 336 80 L 336 80 Z M 64 192 Q 64 178 55 169 L 55 169 Q 46 160 32 160 Q 18 160 9 169 Q 0 178 0 192 Q 0 206 9 215 Q 18 224 32 224 Q 46 224 55 215 Q 64 206 64 192 L 64 192 Z M 217 288 L 103 288 L 73 408 Q 70 423 79 436 Q 89 448 104 448 L 216 448 Q 232 448 241 436 Q 250 423 247 408 L 217 288 L 217 288 Z"/>
</svg>
