<svg xmlns="http://www.w3.org/2000/svg" viewBox="0 0 448 288">
    <path d="M 0 40 Q 0 23 12 12 L 12 12 Q 23 0 40 0 L 88 0 Q 105 0 116 12 Q 128 23 128 40 L 128 88 Q 128 105 116 116 Q 105 128 88 128 L 40 128 Q 23 128 12 116 Q 0 105 0 88 L 0 40 L 0 40 Z M 160 200 Q 160 183 172 172 L 172 172 Q 183 160 200 160 L 248 160 Q 265 160 276 172 Q 288 183 288 200 L 288 248 Q 288 265 276 276 Q 265 288 248 288 L 200 288 Q 183 288 172 276 Q 160 265 160 248 L 160 200 L 160 200 Z M 448 40 L 448 88 Q 448 105 436 116 Q 425 128 408 128 L 360 128 Q 343 128 332 116 Q 320 105 320 88 L 320 40 Q 320 23 332 12 Q 343 0 360 0 L 408 0 Q 425 0 436 12 Q 448 23 448 40 L 448 40 Z"/>
</svg>
