<svg xmlns="http://www.w3.org/2000/svg" viewBox="0 0 470 523">
    <path d="M 308 20 Q 318 11 331 11 L 331 11 Q 344 11 354 20 L 379 46 L 404 20 Q 414 11 427 11 Q 440 11 450 20 Q 459 30 459 43 Q 459 56 450 66 L 424 91 L 450 116 Q 459 126 459 139 Q 459 152 450 162 Q 440 171 427 171 Q 414 171 404 162 L 379 136 L 354 162 Q 344 171 331 171 Q 318 171 308 162 Q 299 152 299 139 Q 299 126 308 116 L 334 91 L 308 66 Q 299 56 299 43 Q 299 30 308 20 L 308 20 Z M 115 91 Q 113 69 91 67 Q 69 69 67 91 Q 69 113 91 115 Q 113 113 115 91 L 115 91 Z M 11 91 Q 12 46 51 22 Q 91 0 131 22 Q 170 46 171 91 Q 170 136 131 160 Q 91 182 51 160 Q 12 136 11 91 L 11 91 Z M 91 467 Q 113 465 115 443 Q 113 421 91 419 Q 69 421 67 443 Q 69 465 91 467 L 91 467 Z M 91 363 Q 136 364 160 403 Q 182 443 160 483 Q 136 522 91 523 Q 46 522 22 483 Q 0 443 22 403 Q 46 364 91 363 L 91 363 Z M 379 467 Q 401 465 403 443 Q 401 421 379 419 Q 357 421 355 443 Q 357 465 379 467 L 379 467 Z M 379 363 Q 424 364 448 403 Q 470 443 448 483 Q 424 522 379 523 Q 334 522 310 483 Q 288 443 310 403 Q 334 364 379 363 L 379 363 Z"/>
</svg>
