<svg xmlns="http://www.w3.org/2000/svg" viewBox="0 0 640 256">
    <path d="M 224 32 Q 224 18 233 9 L 233 9 Q 242 0 256 0 L 384 0 Q 398 0 407 9 Q 416 18 416 32 L 416 224 Q 416 238 407 247 Q 398 256 384 256 L 256 256 Q 242 256 233 247 Q 224 238 224 224 L 224 32 L 224 32 Z M 0 96 Q 0 82 9 73 L 9 73 Q 18 64 32 64 L 160 64 Q 174 64 183 73 Q 192 82 192 96 L 192 224 Q 192 238 183 247 Q 174 256 160 256 L 32 256 Q 18 256 9 247 Q 0 238 0 224 L 0 96 L 0 96 Z M 480 128 L 608 128 Q 622 128 631 137 Q 640 146 640 160 L 640 224 Q 640 238 631 247 Q 622 256 608 256 L 480 256 Q 466 256 457 247 Q 448 238 448 224 L 448 160 Q 448 146 457 137 Q 466 128 480 128 L 480 128 Z"/>
</svg>
