<svg xmlns="http://www.w3.org/2000/svg" viewBox="0 0 511 496">
    <path d="M 0 264 L 82 285 Q 95 287 105 278 L 119 264 Q 129 255 140 257 Q 152 259 158 270 L 167 288 Q 175 303 192 304 Q 204 304 211 295 Q 217 286 214 275 L 208 255 Q 205 243 212 234 Q 219 224 231 224 L 233 224 Q 255 223 267 206 L 278 190 Q 286 176 277 162 L 261 141 Q 253 130 257 118 Q 261 107 274 103 L 292 99 Q 303 96 308 85 L 345 0 Q 419 29 465 93 Q 510 157 511 240 Q 511 278 501 313 Q 500 312 500 312 L 468 289 Q 458 282 447 285 L 434 289 Q 423 291 416 282 L 414 279 Q 404 265 387 264 Q 369 265 359 279 L 353 289 Q 351 292 347 294 L 311 314 Q 297 322 293 336 Q 288 351 294 365 L 300 378 Q 306 392 321 398 Q 335 404 350 399 L 354 398 Q 369 392 382 401 L 427 430 Q 357 494 255 496 Q 153 494 82 429 Q 12 364 0 264 L 0 264 Z M 163 321 Q 148 318 143 332 Q 141 347 155 352 L 187 360 Q 202 362 206 348 Q 209 333 195 329 L 163 321 L 163 321 Z M 247 332 Q 262 334 266 320 L 274 288 Q 277 273 263 269 Q 248 266 243 280 L 235 312 Q 233 327 247 332 L 247 332 Z M 349 119 Q 355 106 342 98 Q 328 92 321 105 L 305 137 Q 299 151 312 158 Q 325 164 333 151 L 349 119 L 349 119 Z"/>
</svg>
