<svg xmlns="http://www.w3.org/2000/svg" viewBox="0 0 640 513">
    <path d="M 483 11 Q 475 0 462 1 Q 448 3 442 15 L 396 112 L 372 76 Q 365 65 352 65 L 216 65 Q 194 67 192 89 Q 194 111 216 113 L 339 113 L 380 174 Q 388 186 402 185 Q 415 183 422 171 L 469 71 L 493 103 Q 500 113 512 113 L 616 113 Q 638 111 640 89 Q 638 67 616 65 L 524 65 L 483 11 L 483 11 Z M 64 97 Q 64 83 55 74 L 55 74 Q 46 65 32 65 Q 18 65 9 74 Q 0 83 0 97 L 0 481 Q 0 495 9 504 Q 18 513 32 513 Q 46 513 55 504 Q 64 495 64 481 L 64 449 L 576 449 L 576 481 Q 576 495 585 504 Q 594 513 608 513 Q 622 513 631 504 Q 640 495 640 481 L 640 385 L 640 353 L 608 353 L 64 353 L 64 97 L 64 97 Z"/>
</svg>
