<svg xmlns="http://www.w3.org/2000/svg" viewBox="0 0 559 472">
    <path d="M 162 445 Q 156 458 169 466 Q 183 472 190 459 L 222 395 Q 224 392 224 388 L 224 346 L 256 314 L 256 364 Q 256 378 265 387 Q 274 396 288 396 Q 302 396 311 387 Q 320 378 320 364 L 320 314 L 363 357 Q 368 352 374 348 Q 353 334 352 308 Q 352 305 352 302 L 320 269 L 320 246 L 360 281 Q 370 267 386 262 Q 397 230 432 228 Q 458 229 472 249 Q 486 229 512 228 Q 538 229 552 249 Q 555 245 559 241 Q 539 215 505 209 L 345 186 L 394 144 Q 402 137 399 127 L 385 85 L 414 27 Q 420 13 407 6 Q 393 0 386 13 L 354 77 Q 351 83 353 89 L 365 127 L 320 165 L 320 142 Q 318 118 296 111 L 296 68 Q 295 60 288 60 Q 281 60 280 68 L 280 111 Q 258 118 256 142 L 256 165 L 211 127 L 223 89 Q 225 83 222 77 L 190 13 Q 182 1 169 6 Q 156 14 161 27 L 190 85 L 177 127 Q 174 137 181 145 L 231 186 L 71 210 Q 40 214 20 236 Q 1 259 0 290 Q 1 327 25 349 Q 48 371 80 372 Q 112 373 139 348 L 256 246 L 256 269 L 197 329 Q 192 333 192 340 L 192 384 L 162 445 L 162 445 Z"/>
</svg>
