<svg xmlns="http://www.w3.org/2000/svg" viewBox="0 0 448 430">
    <path d="M 319 372 Q 356 348 378 310 L 378 310 Q 400 271 400 224 Q 398 149 348 100 Q 299 50 224 48 Q 149 50 100 100 Q 50 149 48 224 Q 48 271 70 310 Q 92 348 129 372 Q 131 399 136 429 Q 136 429 136 430 Q 136 430 136 430 Q 75 403 38 349 Q 1 294 0 224 Q 1 161 31 111 Q 60 60 111 31 Q 161 1 224 0 Q 287 1 337 31 Q 388 60 417 111 Q 447 161 448 224 Q 447 294 410 349 Q 373 403 312 430 Q 312 430 312 430 Q 312 429 312 429 Q 317 399 319 372 L 319 372 Z M 317 334 Q 315 325 310 318 Q 301 303 288 295 Q 319 268 320 224 Q 319 183 292 156 Q 265 129 224 128 Q 183 129 156 156 Q 129 183 128 224 Q 129 268 160 295 Q 147 303 138 318 Q 133 325 131 334 Q 82 292 80 224 Q 82 163 122 122 Q 163 82 224 80 Q 285 82 326 122 Q 366 163 368 224 Q 366 292 317 334 L 317 334 Z"/>
</svg>
