<svg xmlns="http://www.w3.org/2000/svg" viewBox="0 0 448 448">
    <path d="M 64 32 Q 64 46 55 55 L 55 55 Q 46 64 32 64 Q 18 64 9 55 Q 0 46 0 32 Q 0 18 9 9 Q 18 0 32 0 Q 46 0 55 9 Q 64 18 64 32 L 64 32 Z M 64 224 Q 64 238 55 247 L 55 247 Q 46 256 32 256 Q 18 256 9 247 Q 0 238 0 224 Q 0 210 9 201 Q 18 192 32 192 Q 46 192 55 201 Q 64 210 64 224 L 64 224 Z M 32 448 Q 18 448 9 439 L 9 439 Q 0 430 0 416 Q 0 402 9 393 Q 18 384 32 384 Q 46 384 55 393 Q 64 402 64 416 Q 64 430 55 439 Q 46 448 32 448 L 32 448 Z M 160 128 Q 160 142 151 151 L 151 151 Q 142 160 128 160 Q 114 160 105 151 Q 96 142 96 128 Q 96 114 105 105 Q 114 96 128 96 Q 142 96 151 105 Q 160 114 160 128 L 160 128 Z M 128 352 Q 114 352 105 343 L 105 343 Q 96 334 96 320 Q 96 306 105 297 Q 114 288 128 288 Q 142 288 151 297 Q 160 306 160 320 Q 160 334 151 343 Q 142 352 128 352 L 128 352 Z M 256 32 Q 256 46 247 55 L 247 55 Q 238 64 224 64 Q 210 64 201 55 Q 192 46 192 32 Q 192 18 201 9 Q 210 0 224 0 Q 238 0 247 9 Q 256 18 256 32 L 256 32 Z M 224 256 Q 210 256 201 247 L 201 247 Q 192 238 192 224 Q 192 210 201 201 Q 210 192 224 192 Q 238 192 247 201 Q 256 210 256 224 Q 256 238 247 247 Q 238 256 224 256 L 224 256 Z M 256 416 Q 256 430 247 439 L 247 439 Q 238 448 224 448 Q 210 448 201 439 Q 192 430 192 416 Q 192 402 201 393 Q 210 384 224 384 Q 238 384 247 393 Q 256 402 256 416 L 256 416 Z M 320 160 Q 306 160 297 151 L 297 151 Q 288 142 288 128 Q 288 114 297 105 Q 306 96 320 96 Q 334 96 343 105 Q 352 114 352 128 Q 352 142 343 151 Q 334 160 320 160 L 320 160 Z M 352 320 Q 352 334 343 343 L 343 343 Q 334 352 320 352 Q 306 352 297 343 Q 288 334 288 320 Q 288 306 297 297 Q 306 288 320 288 Q 334 288 343 297 Q 352 306 352 320 L 352 320 Z M 416 64 Q 402 64 393 55 L 393 55 Q 384 46 384 32 Q 384 18 393 9 Q 402 0 416 0 Q 430 0 439 9 Q 448 18 448 32 Q 448 46 439 55 Q 430 64 416 64 L 416 64 Z M 448 224 Q 448 238 439 247 L 439 247 Q 430 256 416 256 Q 402 256 393 247 Q 384 238 384 224 Q 384 210 393 201 Q 402 192 416 192 Q 430 192 439 201 Q 448 210 448 224 L 448 224 Z M 416 448 Q 402 448 393 439 L 393 439 Q 384 430 384 416 Q 384 402 393 393 Q 402 384 416 384 Q 430 384 439 393 Q 448 402 448 416 Q 448 430 439 439 Q 430 448 416 448 L 416 448 Z"/>
</svg>
