<svg xmlns="http://www.w3.org/2000/svg" viewBox="0 0 274 384">
    <path d="M 35 25 Q 41 2 66 0 L 210 0 Q 224 0 233 9 Q 242 18 242 32 Q 242 46 233 55 Q 224 64 210 64 L 92 64 L 74 152 L 158 152 Q 207 153 240 186 Q 273 219 274 268 Q 273 317 240 350 Q 207 383 158 384 L 90 384 Q 61 384 39 367 Q 16 351 7 324 L 4 314 Q 0 301 5 290 Q 11 278 24 274 Q 37 270 48 275 Q 60 281 64 294 L 68 304 Q 74 319 90 320 L 158 320 Q 180 319 195 305 Q 209 290 210 268 Q 209 246 195 231 Q 180 216 158 216 L 34 216 Q 19 216 9 204 Q 0 192 3 177 L 35 25 L 35 25 Z"/>
</svg>
