<svg xmlns="http://www.w3.org/2000/svg" viewBox="0 0 260 424">
    <path d="M 51 0 Q 66 1 67 16 L 67 26 Q 74 27 79 29 Q 93 34 90 48 Q 85 62 71 59 Q 57 56 44 56 Q 38 57 37 58 Q 33 62 37 66 Q 47 72 59 74 Q 60 75 60 75 Q 60 75 60 75 Q 73 77 84 84 Q 91 89 96 99 Q 100 109 98 120 Q 95 137 81 146 Q 74 150 67 151 L 67 160 Q 66 175 51 176 Q 36 175 35 160 L 35 149 Q 23 146 16 144 Q 15 143 14 143 Q 0 137 4 123 Q 10 110 24 113 Q 39 119 56 120 Q 63 120 65 119 L 65 119 Q 69 115 65 111 Q 60 107 46 104 L 45 103 Q 32 100 18 92 Q 11 87 6 77 Q 1 67 4 56 Q 7 41 18 33 Q 26 27 35 26 L 35 16 Q 36 1 51 0 L 51 0 Z M 211 0 Q 226 1 227 16 L 227 26 Q 234 27 239 29 Q 253 34 250 48 Q 245 62 231 59 Q 217 56 204 56 Q 198 57 197 58 Q 193 62 196 66 Q 207 72 219 74 Q 220 75 220 75 Q 220 75 220 75 Q 233 77 244 84 Q 251 89 256 99 Q 260 109 258 120 Q 255 137 241 146 Q 234 150 227 151 L 227 160 Q 225 175 211 176 Q 196 175 195 160 L 195 149 Q 183 146 176 144 Q 175 143 174 143 Q 160 137 164 123 Q 170 110 184 113 Q 199 119 216 120 Q 223 120 225 119 L 225 119 Q 229 115 225 111 Q 220 107 206 104 L 205 103 Q 192 100 178 92 Q 171 87 166 77 Q 161 67 164 56 Q 167 41 178 33 Q 186 27 195 26 L 195 16 Q 196 1 211 0 L 211 0 Z M 211 264 L 211 344 Q 210 378 188 401 Q 165 423 131 424 Q 97 423 74 401 Q 52 378 51 344 L 51 264 L 211 264 L 211 264 Z M 131 280 Q 121 281 120 291 L 120 297 Q 114 298 109 302 Q 101 308 99 318 Q 98 326 101 333 Q 104 339 109 343 Q 119 348 127 350 Q 127 350 127 350 L 128 350 Q 137 353 141 355 Q 143 358 140 361 Q 139 362 134 362 Q 123 361 113 357 Q 104 355 100 364 Q 97 374 106 378 Q 107 378 108 378 Q 113 380 120 382 L 120 389 Q 121 399 131 400 Q 141 399 142 389 L 142 383 Q 147 382 151 379 Q 161 374 163 362 Q 164 354 161 347 Q 158 341 153 337 Q 146 333 137 331 Q 137 331 137 331 Q 129 329 122 325 Q 119 322 122 320 Q 123 319 126 319 Q 135 318 144 321 Q 154 322 157 313 Q 159 303 150 300 Q 146 299 142 298 L 142 291 Q 141 281 131 280 L 131 280 Z"/>
</svg>
