<svg xmlns="http://www.w3.org/2000/svg" viewBox="0 0 404 468">
    <path d="M 193 42 L 170 61 Q 158 69 148 58 Q 139 46 150 36 L 173 17 Q 194 0 222 0 Q 245 0 264 13 L 273 19 Q 284 28 277 41 Q 268 52 255 45 L 246 40 Q 235 32 221 32 Q 206 32 193 42 L 193 42 Z M 304 176 Q 303 131 264 107 Q 224 85 184 107 Q 145 131 144 176 Q 145 221 184 245 Q 224 267 264 245 Q 303 221 304 176 L 304 176 Z M 304 346 L 304 254 Q 272 287 224 288 Q 176 287 145 255 Q 113 224 112 176 Q 113 128 145 97 Q 176 65 224 64 Q 272 65 303 97 Q 335 128 336 176 L 336 346 Q 338 398 381 427 L 393 434 Q 404 443 398 456 Q 389 468 376 462 L 364 454 Q 336 436 320 408 Q 304 380 304 346 L 304 346 Z M 0 144 Q 1 126 16 116 Q 32 108 48 116 Q 64 126 64 144 Q 64 158 55 167 Q 46 176 32 176 Q 19 176 10 167 Q 1 158 0 144 L 0 144 Z M 176 176 Q 177 162 186 153 L 186 153 Q 195 144 208 144 Q 222 144 231 153 Q 240 162 240 176 Q 240 190 231 199 Q 222 208 208 208 Q 195 208 186 199 Q 177 190 176 176 L 176 176 Z"/>
</svg>
