<svg xmlns="http://www.w3.org/2000/svg" viewBox="0 0 482 515">
    <path d="M 254 3 Q 248 0 241 0 Q 234 0 228 3 L 39 83 Q 22 90 12 105 Q 1 120 1 140 Q 0 191 18 260 Q 36 329 83 394 Q 129 460 215 503 Q 241 515 267 503 Q 353 460 399 394 Q 446 329 464 260 Q 482 191 481 140 Q 481 120 470 105 Q 460 90 443 83 L 254 3 L 254 3 Z M 185 160 L 193 160 L 217 160 L 269 160 Q 289 161 298 178 L 305 192 L 369 192 Q 384 193 385 208 L 385 240 Q 384 274 362 297 Q 339 319 305 320 L 257 320 L 257 371 Q 256 383 244 384 Q 241 384 239 383 L 140 341 Q 129 336 129 324 Q 129 320 131 316 L 153 272 L 145 272 Q 131 272 122 263 Q 113 254 113 240 L 113 176 Q 114 161 129 160 L 185 160 L 185 160 Z"/>
</svg>
