<svg xmlns="http://www.w3.org/2000/svg" viewBox="0 0 448 384">
    <path d="M 80 0 Q 65 1 64 16 Q 65 31 80 32 Q 95 31 96 16 Q 95 1 80 0 L 80 0 Z M 400 224 Q 385 225 384 240 Q 385 255 400 256 Q 415 255 416 240 Q 415 225 400 224 L 400 224 Z M 144 288 Q 129 289 128 304 Q 129 319 144 320 Q 159 319 160 304 Q 159 289 144 288 L 144 288 Z M 16 128 Q 1 129 0 144 Q 1 159 16 160 Q 31 159 32 144 Q 31 129 16 128 L 16 128 Z M 432 32 Q 417 33 416 48 Q 417 63 432 64 Q 447 63 448 48 Q 447 33 432 32 L 432 32 Z M 240 64 Q 225 65 224 80 Q 225 95 240 96 Q 255 95 256 80 Q 255 65 240 64 L 240 64 Z M 368 352 Q 353 353 352 368 Q 353 383 368 384 Q 383 383 384 368 Q 383 353 368 352 L 368 352 Z"/>
</svg>
