<svg xmlns="http://www.w3.org/2000/svg" viewBox="0 0 320 512">
    <path d="M 320 221 L 292 210 Q 277 205 266 193 L 237 160 Q 208 129 165 128 L 138 128 Q 110 128 87 142 Q 64 156 52 181 L 5 274 Q 0 286 4 298 Q 8 310 20 317 Q 32 322 44 318 Q 56 314 63 302 L 82 264 L 82 480 Q 82 494 91 503 Q 100 512 114 512 Q 128 512 137 503 Q 146 494 146 480 L 146 352 L 166 352 L 194 408 L 194 480 Q 194 494 203 503 Q 212 512 226 512 Q 240 512 249 503 Q 258 494 258 480 L 258 408 Q 258 393 251 379 L 218 312 L 218 235 L 218 236 Q 239 259 269 270 L 298 281 L 320 221 L 320 221 Z M 146 96 Q 173 95 188 72 Q 200 48 188 24 Q 173 1 146 0 Q 119 1 104 24 Q 92 48 104 72 Q 119 95 146 96 L 146 96 Z"/>
</svg>
