<svg xmlns="http://www.w3.org/2000/svg" viewBox="0 0 512 512">
    <path d="M 416 24 Q 414 2 392 0 Q 370 2 368 24 Q 370 46 392 48 Q 414 46 416 24 L 416 24 Z M 368 72 Q 366 50 344 48 Q 322 50 320 72 Q 322 94 344 96 Q 366 94 368 72 L 368 72 Z M 289 178 Q 260 160 224 160 Q 193 160 166 174 Q 156 180 159 193 Q 160 200 160 208 Q 159 242 137 265 Q 114 287 80 288 Q 62 288 47 281 Q 35 276 26 285 Q 1 321 0 368 Q 1 409 20 441 L 70 403 Q 81 396 91 405 L 107 421 Q 116 431 109 442 L 71 492 Q 103 512 144 512 Q 191 511 227 486 Q 236 477 231 465 Q 224 450 224 432 Q 225 398 247 375 Q 270 353 304 352 Q 312 352 319 353 Q 332 356 338 346 Q 352 319 352 288 Q 351 252 334 223 L 310 247 Q 301 256 288 256 Q 275 256 265 247 Q 256 237 256 224 Q 256 211 265 201 L 289 178 L 289 178 Z M 440 192 Q 462 190 464 168 Q 462 146 440 144 Q 418 146 416 168 Q 418 190 440 192 L 440 192 Z M 488 144 Q 510 142 512 120 Q 510 98 488 96 Q 466 98 464 120 Q 466 142 488 144 L 488 144 Z"/>
</svg>
