<svg xmlns="http://www.w3.org/2000/svg" viewBox="0 0 352 288">
    <path d="M 224 0 Q 210 0 201 9 L 201 9 Q 192 18 192 32 L 192 96 Q 192 110 201 119 Q 210 128 224 128 Q 238 128 247 119 Q 256 110 256 96 L 256 32 Q 256 18 247 9 Q 238 0 224 0 L 224 0 Z M 160 96 Q 160 82 151 73 L 151 73 Q 142 64 128 64 Q 114 64 105 73 Q 96 82 96 96 L 96 160 Q 96 174 105 183 Q 114 192 128 192 Q 142 192 151 183 Q 160 174 160 160 L 160 96 L 160 96 Z M 64 192 Q 64 178 55 169 L 55 169 Q 46 160 32 160 Q 18 160 9 169 Q 0 178 0 192 L 0 256 Q 0 270 9 279 Q 18 288 32 288 Q 46 288 55 279 Q 64 270 64 256 L 64 192 L 64 192 Z M 352 32 Q 352 18 343 9 L 343 9 Q 334 0 320 0 Q 306 0 297 9 Q 288 18 288 32 L 288 256 Q 288 270 297 279 Q 306 288 320 288 Q 334 288 343 279 Q 352 270 352 256 L 352 32 L 352 32 Z"/>
</svg>
