<svg xmlns="http://www.w3.org/2000/svg" viewBox="0 0 448 352">
    <path d="M 35 64 Q 21 89 11 118 L 11 118 Q 0 146 0 174 Q 1 231 32 270 L 32 328 Q 34 350 56 352 Q 78 350 80 328 L 80 313 Q 143 352 224 352 Q 305 352 368 313 L 368 328 Q 370 350 392 352 Q 414 350 416 328 L 416 270 Q 447 231 448 174 Q 448 146 437 118 Q 427 89 413 64 L 416 64 Q 430 64 439 55 Q 448 46 448 32 Q 448 18 439 9 Q 430 0 416 0 L 368 0 L 224 0 L 160 0 L 160 128 Q 160 142 151 151 Q 142 160 128 160 Q 114 160 105 151 Q 96 142 96 128 L 96 0 L 80 0 L 32 0 Q 18 0 9 9 Q 0 18 0 32 Q 0 46 9 55 Q 18 64 32 64 L 35 64 L 35 64 Z"/>
</svg>
