<svg xmlns="http://www.w3.org/2000/svg" viewBox="0 0 384 448">
    <path d="M 192 0 Q 206 0 215 9 L 215 9 Q 224 18 224 32 L 256 32 Q 256 18 265 9 Q 274 0 288 0 Q 302 0 311 9 Q 320 18 320 32 L 336 32 Q 356 33 370 46 Q 383 60 384 80 L 384 236 Q 384 256 370 270 L 366 274 Q 352 288 352 308 L 352 400 Q 351 420 338 434 Q 324 447 304 448 L 80 448 Q 60 447 46 434 Q 33 420 32 400 L 32 308 Q 32 288 18 274 L 14 270 Q 0 256 0 236 L 0 80 Q 0 60 14 46 Q 28 33 48 32 L 160 32 Q 160 18 169 9 Q 178 0 192 0 L 192 0 Z M 112 96 Q 97 97 96 112 Q 97 127 112 128 L 272 128 Q 287 127 288 112 Q 287 97 272 96 L 112 96 L 112 96 Z M 112 160 Q 97 161 96 176 Q 97 191 112 192 L 272 192 Q 287 191 288 176 Q 287 161 272 160 L 112 160 L 112 160 Z M 112 224 Q 97 225 96 240 Q 97 255 112 256 L 272 256 Q 287 255 288 240 Q 287 225 272 224 L 112 224 L 112 224 Z"/>
</svg>
