<svg xmlns="http://www.w3.org/2000/svg" viewBox="0 0 448 464">
    <path d="M 416 149 Q 419 151 422 153 Q 446 173 448 208 Q 447 278 411 321 Q 389 347 363 362 L 382 422 Q 387 437 378 451 Q 368 463 352 464 L 96 464 Q 80 464 70 451 Q 61 437 66 422 L 85 362 Q 59 347 37 321 Q 1 278 0 208 Q 2 173 26 153 Q 29 151 32 149 L 32 0 L 416 0 L 416 149 L 416 149 Z M 384 208 L 384 208 Q 385 207 380 202 Q 373 196 351 189 Q 304 176 224 176 Q 144 176 97 189 Q 75 196 68 202 Q 63 207 64 208 L 64 208 L 64 208 Q 63 210 68 214 Q 75 220 97 227 Q 144 240 224 240 Q 304 240 351 227 Q 373 220 380 214 Q 385 210 384 208 L 384 208 L 384 208 Z M 112 32 Q 97 33 96 48 Q 97 63 112 64 L 144 64 Q 159 63 160 48 Q 159 33 144 32 L 112 32 L 112 32 Z"/>
</svg>
