<svg xmlns="http://www.w3.org/2000/svg" viewBox="0 0 392 236">
    <path d="M 392 84 Q 391 104 378 117 L 378 117 Q 364 131 344 131 Q 324 131 310 117 Q 297 104 296 84 Q 297 68 312 44 Q 326 21 338 6 Q 344 0 350 6 Q 362 21 376 44 Q 391 68 392 84 L 392 84 Z M 98 232 L 98 232 L 98 232 L 97 232 Q 97 231 97 231 Q 97 231 97 231 Q 96 229 94 227 Q 90 223 84 217 Q 70 204 56 203 Q 42 204 28 217 Q 22 223 18 227 Q 16 229 15 231 Q 15 231 15 231 Q 15 231 15 232 L 14 232 L 14 232 L 14 232 L 14 232 Q 11 236 6 235 Q 0 233 0 227 Q 1 199 17 178 Q 32 157 56 155 Q 80 157 95 178 Q 111 199 112 227 Q 112 233 107 235 Q 101 236 98 232 L 98 232 L 98 232 L 98 232 Z M 258 232 L 258 232 L 257 232 Q 257 231 257 231 Q 257 231 257 231 Q 256 229 254 227 Q 250 223 244 217 Q 230 204 216 203 Q 202 204 188 217 Q 182 223 178 227 Q 176 229 175 231 Q 175 231 175 231 Q 175 231 175 232 L 174 232 L 174 232 L 174 232 L 174 232 Q 171 236 165 235 Q 160 233 160 227 Q 161 199 177 178 Q 192 157 216 155 Q 240 157 255 178 Q 271 199 272 227 Q 272 233 266 235 Q 261 236 258 232 L 258 232 L 258 232 L 258 232 L 258 232 Z"/>
</svg>
