<svg xmlns="http://www.w3.org/2000/svg" viewBox="0 0 448 512">
    <path d="M 64 64 L 64 160 L 128 160 L 128 64 L 355 64 L 384 93 L 384 160 L 448 160 L 448 93 Q 448 67 429 48 L 400 19 Q 381 0 355 0 L 128 0 Q 101 1 83 19 Q 65 37 64 64 L 64 64 Z M 288 192 L 64 192 Q 37 193 19 211 Q 1 229 0 256 L 0 352 Q 0 366 9 375 Q 18 384 32 384 L 64 384 L 64 448 Q 65 475 83 493 Q 101 511 128 512 L 384 512 Q 422 510 440 478 L 434 472 Q 410 480 384 480 Q 329 479 288 448 L 128 448 L 128 384 L 128 368 L 128 352 L 227 352 Q 224 337 224 320 Q 224 280 241 247 Q 258 214 288 192 L 288 192 Z"/>
</svg>
