<svg xmlns="http://www.w3.org/2000/svg" viewBox="0 0 488 460">
    <path d="M 484 20 Q 488 42 468 50 L 192 131 L 37 131 Q 16 131 0 143 Q 11 134 25 130 L 454 4 Q 476 0 484 20 L 484 20 Z M 37 227 Q 37 213 46 204 L 46 204 Q 55 195 69 195 L 389 195 Q 403 195 412 204 Q 421 213 421 227 Q 421 241 412 250 Q 403 259 389 259 L 69 259 Q 55 259 46 250 Q 37 241 37 227 L 37 227 Z M 293 387 Q 294 351 325 332 Q 357 314 389 332 Q 420 351 421 387 Q 420 423 389 442 Q 357 460 325 442 Q 294 423 293 387 L 293 387 Z"/>
</svg>
