<svg xmlns="http://www.w3.org/2000/svg" viewBox="0 0 640 320">
    <path d="M 560 0 Q 539 2 536 22 Q 519 10 503 23 Q 490 39 502 56 Q 482 59 480 80 Q 482 101 502 104 Q 490 121 503 137 Q 519 150 536 138 Q 539 158 560 160 Q 581 158 584 138 Q 601 150 617 137 Q 630 121 618 104 Q 638 101 640 80 Q 638 59 618 56 Q 630 39 617 24 Q 601 10 584 22 Q 581 2 560 0 L 560 0 Z M 64 192 Q 37 193 19 211 L 19 211 Q 1 229 0 256 Q 1 283 19 301 Q 37 319 64 320 L 448 320 Q 475 319 493 301 Q 511 283 512 256 Q 511 229 493 211 Q 475 193 448 192 L 64 192 L 64 192 Z"/>
</svg>
