<svg xmlns="http://www.w3.org/2000/svg" viewBox="0 0 448 447">
    <path d="M 128 0 Q 114 0 105 9 L 105 9 Q 96 18 96 32 L 96 64 L 48 64 Q 28 65 14 78 Q 1 92 0 112 L 0 192 L 448 192 L 448 112 Q 447 92 434 78 Q 420 65 400 64 L 352 64 L 352 32 Q 352 18 343 9 Q 334 0 320 0 Q 306 0 297 9 Q 288 18 288 32 L 288 64 L 160 64 L 160 32 Q 160 18 151 9 Q 142 0 128 0 L 128 0 Z M 305 305 Q 319 288 305 271 Q 288 257 271 271 L 224 318 L 177 271 Q 160 257 143 271 Q 129 288 143 305 L 190 352 L 143 399 Q 129 416 143 433 Q 160 447 177 433 L 224 386 L 271 433 Q 288 447 305 433 Q 319 416 305 399 L 258 352 L 305 305 L 305 305 Z"/>
</svg>
