<svg xmlns="http://www.w3.org/2000/svg" viewBox="0 0 352 352">
    <path d="M 352 176 Q 352 224 328 264 L 328 264 Q 305 304 264 328 Q 222 352 176 352 Q 130 352 88 328 Q 47 304 24 264 Q 0 224 0 176 Q 0 128 24 88 Q 47 48 88 24 Q 130 0 176 0 Q 222 0 264 24 Q 305 48 328 88 Q 352 128 352 176 L 352 176 Z M 176 64 Q 146 64 120 79 L 120 79 Q 94 94 79 120 Q 64 146 64 176 Q 64 206 79 232 Q 94 258 120 273 Q 146 288 176 288 Q 206 288 232 273 Q 258 258 273 232 Q 288 206 288 176 Q 288 146 273 120 Q 258 94 232 79 Q 206 64 176 64 L 176 64 Z"/>
</svg>
