<svg xmlns="http://www.w3.org/2000/svg" viewBox="0 0 568 384">
    <path d="M 568 64 Q 567 37 549 19 L 549 19 Q 531 1 504 0 L 248 0 L 248 384 L 504 384 Q 531 383 549 365 Q 567 347 568 320 L 568 64 L 568 64 Z M 428 120 L 428 124 L 472 124 L 488 124 Q 506 126 508 144 Q 506 162 488 164 L 486 164 L 484 169 Q 471 205 445 234 Q 446 235 448 236 L 466 247 Q 481 258 473 274 Q 462 289 446 281 L 427 270 Q 420 266 414 261 Q 398 273 380 281 L 376 282 Q 359 288 350 272 Q 344 255 360 246 L 364 244 Q 373 240 382 234 L 370 222 Q 358 208 370 194 Q 384 182 398 194 L 413 208 L 413 209 Q 432 189 443 164 L 408 164 L 336 164 Q 318 162 316 144 Q 318 126 336 124 L 388 124 L 388 120 Q 390 102 408 100 Q 426 102 428 120 L 428 120 Z M 88 100 Q 75 101 70 112 L 6 256 Q 0 273 16 282 Q 33 288 42 272 L 51 252 L 125 252 L 134 272 Q 143 288 160 282 Q 176 273 170 256 L 106 112 Q 101 101 88 100 L 88 100 Z M 88 169 L 107 212 L 69 212 L 88 169 L 88 169 Z"/>
</svg>
