<svg xmlns="http://www.w3.org/2000/svg" viewBox="0 0 512 176">
    <path d="M 16 64 L 48 64 L 48 120 Q 49 144 64 160 Q 80 175 104 176 L 184 176 Q 208 175 224 160 Q 239 144 240 120 L 240 64 L 272 64 L 272 120 Q 273 144 288 160 Q 304 175 328 176 L 408 176 Q 432 175 448 160 Q 463 144 464 120 L 464 64 L 496 64 Q 511 63 512 48 Q 511 33 496 32 L 459 32 Q 443 2 408 0 L 328 0 Q 293 2 277 32 L 235 32 Q 219 2 184 0 L 104 0 Q 69 2 53 32 L 16 32 Q 1 33 0 48 Q 1 63 16 64 L 16 64 Z M 80 120 L 80 64 L 80 56 Q 82 34 104 32 L 184 32 Q 206 34 208 56 L 208 120 Q 206 142 184 144 L 104 144 Q 82 142 80 120 L 80 120 Z M 432 64 L 432 120 Q 430 142 408 144 L 328 144 Q 306 142 304 120 L 304 56 Q 306 34 328 32 L 408 32 Q 430 34 432 56 L 432 64 L 432 64 Z M 184 96 Q 182 74 160 72 Q 138 74 136 96 Q 138 118 160 120 Q 182 118 184 96 L 184 96 Z M 352 120 Q 374 118 376 96 Q 374 74 352 72 Q 330 74 328 96 Q 330 118 352 120 L 352 120 Z"/>
</svg>
