<svg xmlns="http://www.w3.org/2000/svg" viewBox="0 0 576 416">
    <path d="M 288 0 Q 274 0 265 9 L 265 9 Q 256 18 256 32 L 256 96 L 320 96 L 320 32 Q 320 18 311 9 Q 302 0 288 0 L 288 0 Z M 160 400 Q 161 415 176 416 L 208 416 Q 223 415 224 400 Q 223 385 208 384 L 176 384 Q 161 385 160 400 L 160 400 Z M 256 400 Q 257 415 272 416 L 304 416 Q 319 415 320 400 Q 319 385 304 384 L 272 384 Q 257 385 256 400 L 256 400 Z M 352 400 Q 353 415 368 416 L 400 416 Q 415 415 416 400 Q 415 385 400 384 L 368 384 Q 353 385 352 400 L 352 400 Z M 48 224 Q 28 225 14 238 L 14 238 Q 1 252 0 272 L 0 368 Q 1 388 14 402 Q 28 415 48 416 L 64 416 L 64 224 L 48 224 L 48 224 Z M 528 224 L 512 224 L 512 416 L 528 416 Q 548 415 562 402 Q 575 388 576 368 L 576 272 Q 575 252 562 238 Q 548 225 528 224 L 528 224 Z"/>
</svg>
