<svg xmlns="http://www.w3.org/2000/svg" viewBox="0 0 384 347">
    <path d="M 224 24 Q 226 2 248 0 L 322 0 Q 348 1 366 18 Q 383 36 384 62 Q 383 91 362 110 L 331 137 L 375 314 Q 379 336 358 343 Q 336 347 329 326 L 287 160 L 275 160 Q 231 160 194 181 Q 157 201 134 238 Q 112 226 86 224 Q 88 221 90 217 L 46 144 L 24 144 Q 2 142 0 120 Q 2 98 24 96 L 104 96 Q 126 98 128 120 Q 126 142 104 144 L 102 144 L 121 177 Q 152 146 191 129 Q 231 112 275 112 L 286 112 Q 287 111 289 110 L 331 73 Q 336 69 336 62 Q 335 49 322 48 L 248 48 Q 226 46 224 24 L 224 24 Z"/>
</svg>
