<svg xmlns="http://www.w3.org/2000/svg" viewBox="0 0 521 512">
    <path d="M 256 128 Q 292 127 311 96 Q 329 64 311 32 Q 292 1 256 0 Q 220 1 201 32 Q 183 64 201 96 Q 220 127 256 128 L 256 128 Z M 256 512 Q 292 511 311 480 Q 329 448 311 416 Q 292 385 256 384 Q 220 385 201 416 Q 183 448 201 480 Q 220 511 256 512 L 256 512 Z M 128 256 Q 127 220 96 201 Q 64 183 32 201 Q 1 220 0 256 Q 1 292 32 311 Q 64 329 96 311 Q 127 292 128 256 L 128 256 Z M 448 320 Q 484 319 503 288 Q 521 256 503 224 Q 484 193 448 192 Q 412 193 393 224 Q 375 256 393 288 Q 412 319 448 320 L 448 320 Z"/>
</svg>
