<svg xmlns="http://www.w3.org/2000/svg" viewBox="0 0 512 512">
    <path d="M 48 224 Q 55 224 63 223 Q 77 224 80 238 Q 80 253 65 255 Q 57 256 48 256 Q 23 256 0 250 Q 1 234 3 218 Q 24 224 48 224 L 48 224 Z M 250 0 Q 256 23 256 48 Q 256 57 255 65 Q 253 80 238 80 Q 224 77 223 63 Q 224 55 224 48 Q 224 24 218 3 Q 234 0 250 0 L 250 0 Z M 512 262 Q 512 278 509 294 Q 488 288 464 288 Q 457 288 449 289 Q 435 288 432 274 Q 432 259 447 257 Q 455 256 464 256 Q 489 256 512 262 L 512 262 Z M 294 509 Q 278 512 262 512 Q 256 489 256 464 Q 256 455 257 447 Q 259 432 274 432 Q 289 435 289 449 Q 288 457 288 464 Q 288 488 294 509 L 294 509 Z M 114 229 Q 109 215 121 208 Q 180 180 208 121 Q 215 109 229 113 Q 242 121 237 135 Q 204 204 135 237 Q 121 242 114 229 L 114 229 Z M 399 283 Q 403 297 391 304 Q 332 332 304 391 Q 297 403 283 399 Q 270 391 275 377 Q 308 308 377 275 Q 391 270 399 283 L 399 283 Z"/>
</svg>
