<svg xmlns="http://www.w3.org/2000/svg" viewBox="0 0 497 452">
    <path d="M 380 7 L 382 9 Q 409 36 420 72 Q 432 107 426 145 Q 433 149 440 155 L 475 183 Q 496 201 497 230 Q 496 255 479 272 Q 462 289 437 290 L 335 290 L 329 294 L 273 326 L 273 311 Q 272 267 247 233 Q 222 200 180 187 L 149 179 Q 135 176 130 190 Q 127 204 141 209 L 171 218 Q 203 228 222 253 Q 241 278 241 311 L 241 354 L 256 354 L 273 354 L 337 354 Q 351 354 360 363 Q 369 372 369 386 Q 369 400 360 409 Q 351 418 337 418 L 221 418 Q 197 418 178 401 L 36 271 Q 10 246 5 212 Q 0 178 18 146 L 20 143 Q 48 100 99 98 Q 153 98 201 125 L 306 185 Q 308 173 313 163 Q 256 134 232 74 Q 226 54 243 42 Q 252 38 262 40 L 265 41 Q 301 50 328 73 Q 355 97 369 130 Q 369 130 370 130 Q 370 130 371 130 Q 383 130 396 133 Q 379 86 342 54 Q 343 36 348 18 L 349 16 Q 352 6 362 3 Q 372 0 380 7 L 380 7 Z M 63 391 L 96 369 L 145 414 L 99 445 Q 87 452 75 449 Q 62 447 54 436 Q 47 424 50 412 Q 52 399 63 391 L 63 391 Z M 433 210 Q 432 195 417 194 Q 402 195 401 210 Q 402 225 417 226 Q 432 225 433 210 L 433 210 Z"/>
</svg>
