<svg xmlns="http://www.w3.org/2000/svg" viewBox="0 0 448 512">
    <path d="M 96 32 Q 96 18 105 9 L 105 9 Q 114 0 128 0 Q 142 0 151 9 Q 160 18 160 32 L 160 64 L 288 64 L 288 32 Q 288 18 297 9 Q 306 0 320 0 Q 334 0 343 9 Q 352 18 352 32 L 352 64 L 400 64 Q 420 65 434 78 Q 447 92 448 112 L 448 160 L 0 160 L 0 112 Q 1 92 14 78 Q 28 65 48 64 L 96 64 L 96 32 L 96 32 Z M 416 193 Q 347 200 302 249 L 302 249 Q 258 298 256 368 Q 256 413 276 450 Q 296 488 331 512 L 48 512 Q 28 511 14 498 Q 1 484 0 464 L 0 192 L 416 192 L 416 193 L 416 193 Z"/>
</svg>
