<svg xmlns="http://www.w3.org/2000/svg" viewBox="0 0 384 512">
    <path d="M 32 0 Q 46 0 55 9 L 55 9 Q 64 18 64 32 L 64 192 L 0 192 L 0 32 Q 0 18 9 9 Q 18 0 32 0 L 32 0 Z M 352 0 Q 366 0 375 9 L 375 9 Q 384 18 384 32 L 384 480 Q 384 494 375 503 Q 366 512 352 512 Q 338 512 329 503 Q 320 494 320 480 L 320 32 Q 320 18 329 9 Q 338 0 352 0 L 352 0 Z M 0 480 L 0 320 L 64 320 L 64 480 Q 64 494 55 503 Q 46 512 32 512 Q 18 512 9 503 Q 0 494 0 480 L 0 480 Z M 104 11 Q 114 0 128 0 L 256 0 Q 270 0 279 9 Q 288 18 288 32 L 288 416 Q 288 430 279 439 Q 270 448 256 448 Q 242 448 233 439 Q 224 430 224 416 Q 224 430 215 439 Q 206 448 192 448 Q 179 448 170 439 Q 161 431 160 419 L 159 422 Q 156 435 146 443 Q 135 450 122 447 Q 108 444 101 434 Q 94 423 97 410 L 127 255 L 96 37 Q 95 22 104 11 L 104 11 Z"/>
</svg>
