<svg xmlns="http://www.w3.org/2000/svg" viewBox="0 0 448 448">
    <path d="M 0 96 Q 1 55 28 28 L 28 28 Q 55 1 96 0 L 352 0 Q 393 1 420 28 Q 447 55 448 96 L 448 352 Q 447 393 420 420 Q 393 447 352 448 L 96 448 Q 55 447 28 420 Q 1 393 0 352 L 0 96 L 0 96 Z M 64 128 L 64 224 Q 64 238 73 247 Q 82 256 96 256 L 176 256 Q 190 256 199 247 Q 208 238 208 224 L 208 128 Q 208 114 199 105 Q 190 96 176 96 L 96 96 Q 82 96 73 105 Q 64 114 64 128 L 64 128 Z M 272 96 Q 258 96 249 105 L 249 105 Q 240 114 240 128 L 240 224 Q 240 238 249 247 Q 258 256 272 256 L 352 256 Q 366 256 375 247 Q 384 238 384 224 L 384 128 Q 384 114 375 105 Q 366 96 352 96 L 272 96 L 272 96 Z M 128 352 Q 128 338 119 329 L 119 329 Q 110 320 96 320 Q 82 320 73 329 Q 64 338 64 352 Q 64 366 73 375 Q 82 384 96 384 Q 110 384 119 375 Q 128 366 128 352 L 128 352 Z M 352 384 Q 366 384 375 375 L 375 375 Q 384 366 384 352 Q 384 338 375 329 Q 366 320 352 320 Q 338 320 329 329 Q 320 338 320 352 Q 320 366 329 375 Q 338 384 352 384 L 352 384 Z"/>
</svg>
