<svg xmlns="http://www.w3.org/2000/svg" viewBox="0 0 416 452">
    <path d="M 112 0 L 112 25 Q 112 36 105 45 L 27 145 Q 0 180 0 224 L 0 228 L 384 228 L 384 224 Q 384 198 374 174 Q 393 165 404 148 Q 416 130 416 108 Q 415 77 395 57 Q 375 37 344 36 Q 311 37 291 60 L 279 45 Q 272 36 272 25 L 272 0 Q 265 4 256 4 L 128 4 Q 119 4 112 0 L 112 0 Z M 0 388 Q 1 415 19 433 L 19 433 Q 37 451 64 452 L 320 452 Q 347 451 365 433 Q 383 415 384 388 L 384 356 L 0 356 L 0 388 L 0 388 Z M 347 132 L 322 100 Q 328 85 344 84 Q 366 86 368 108 Q 366 128 347 132 L 347 132 Z"/>
</svg>
