<svg xmlns="http://www.w3.org/2000/svg" viewBox="0 0 640 384">
    <path d="M 448 128 Q 484 129 503 160 Q 521 192 503 224 Q 484 255 448 256 Q 412 255 393 224 Q 375 192 393 160 Q 412 129 448 128 L 448 128 Z M 448 384 Q 500 384 544 358 L 544 358 Q 588 333 614 288 Q 640 243 640 192 Q 640 141 614 96 Q 588 51 544 26 Q 500 0 448 0 Q 396 0 352 26 Q 308 51 282 96 Q 256 141 256 192 Q 256 243 282 288 Q 308 333 352 358 Q 396 384 448 384 L 448 384 Z M 0 64 Q 0 78 9 87 L 9 87 Q 18 96 32 96 L 208 96 Q 222 96 231 87 Q 240 78 240 64 Q 240 50 231 41 Q 222 32 208 32 L 32 32 Q 18 32 9 41 Q 0 50 0 64 L 0 64 Z M 32 288 Q 18 288 9 297 L 9 297 Q 0 306 0 320 Q 0 334 9 343 Q 18 352 32 352 L 208 352 Q 222 352 231 343 Q 240 334 240 320 Q 240 306 231 297 Q 222 288 208 288 L 32 288 L 32 288 Z"/>
</svg>
