<svg xmlns="http://www.w3.org/2000/svg" viewBox="0 0 256 192">
    <path d="M 102 191 Q 98 187 86 182 L 86 182 Q 74 177 56 176 Q 38 177 26 182 Q 14 187 10 191 Q 8 192 6 192 Q 1 191 0 186 L 0 25 Q 0 16 8 12 Q 26 2 56 0 Q 86 2 104 12 Q 112 16 112 25 L 112 186 Q 112 192 106 192 Q 104 192 103 191 L 102 191 Z M 246 191 Q 242 187 230 182 L 230 182 Q 218 177 200 176 Q 182 177 170 182 Q 158 187 154 191 Q 152 192 150 192 Q 145 191 144 186 L 144 25 Q 144 16 152 12 Q 170 2 200 0 Q 230 2 248 12 Q 256 16 256 25 L 256 186 Q 256 192 250 192 Q 248 192 247 191 L 246 191 Z"/>
</svg>
