<svg xmlns="http://www.w3.org/2000/svg" viewBox="0 0 384 512">
    <path d="M 208 16 Q 207 1 192 0 Q 177 1 176 16 L 176 64 L 208 64 L 208 16 L 208 16 Z M 32 128 Q 18 128 9 137 L 9 137 Q 0 146 0 160 L 0 224 Q 0 238 9 247 Q 18 256 32 256 L 48 256 L 48 128 L 32 128 L 32 128 Z M 144 464 Q 143 449 128 448 Q 113 449 112 464 L 112 512 L 144 512 L 144 464 L 144 464 Z M 208 464 Q 207 449 192 448 Q 177 449 176 464 L 176 512 L 208 512 L 208 464 L 208 464 Z M 256 448 Q 241 449 240 464 L 240 512 L 272 512 L 272 464 Q 271 449 256 448 L 256 448 Z M 384 160 Q 384 146 375 137 L 375 137 Q 366 128 352 128 L 336 128 L 336 256 L 352 256 Q 366 256 375 247 Q 384 238 384 224 L 384 160 L 384 160 Z"/>
</svg>
