<svg xmlns="http://www.w3.org/2000/svg" viewBox="0 0 576 320">
    <path d="M 148 0 L 126 64 L 112 64 Q 98 64 89 55 Q 80 46 80 32 Q 80 18 89 9 Q 98 0 112 0 L 148 0 L 148 0 Z M 105 128 L 84 192 L 72 192 Q 58 192 49 183 Q 40 174 40 160 Q 40 146 49 137 Q 58 128 72 128 L 105 128 L 105 128 Z M 151 192 L 172 128 L 404 128 L 425 192 L 151 192 L 151 192 Z M 62 256 L 41 320 L 32 320 Q 18 320 9 311 Q 0 302 0 288 Q 0 274 9 265 Q 18 256 32 256 L 62 256 L 62 256 Z M 108 320 L 130 256 L 446 256 L 468 320 L 108 320 L 108 320 Z M 535 320 L 514 256 L 544 256 Q 558 256 567 265 Q 576 274 576 288 Q 576 302 567 311 Q 558 320 544 320 L 535 320 L 535 320 Z M 492 192 L 471 128 L 504 128 Q 518 128 527 137 Q 536 146 536 160 Q 536 174 527 183 Q 518 192 504 192 L 492 192 L 492 192 Z M 450 64 L 428 0 L 464 0 Q 478 0 487 9 Q 496 18 496 32 Q 496 46 487 55 Q 478 64 464 64 L 450 64 L 450 64 Z M 361 0 L 382 64 L 194 64 L 215 0 L 361 0 L 361 0 Z"/>
</svg>
