<svg xmlns="http://www.w3.org/2000/svg" viewBox="0 0 416 338">
    <path d="M 0 130 Q 1 55 46 0 Q 112 48 208 50 Q 304 48 370 0 Q 415 55 416 130 Q 414 218 355 277 Q 296 336 208 338 Q 120 336 61 277 Q 2 218 0 130 L 0 130 Z M 300 191 Q 258 203 208 203 Q 159 203 117 191 Q 107 189 101 194 Q 94 200 98 210 Q 114 240 143 259 Q 172 278 208 278 Q 245 278 274 259 Q 303 240 318 209 Q 322 200 316 194 Q 310 188 300 191 L 300 191 Z M 168 122 Q 166 100 144 98 Q 122 100 120 122 Q 122 144 144 146 Q 166 144 168 122 L 168 122 Z M 272 146 Q 294 144 296 122 Q 294 100 272 98 Q 250 100 248 122 Q 250 144 272 146 L 272 146 Z"/>
</svg>
