<svg xmlns="http://www.w3.org/2000/svg" viewBox="0 0 576 384">
    <path d="M 0 64 Q 1 37 19 19 L 19 19 Q 37 1 64 0 L 512 0 Q 539 1 557 19 Q 575 37 576 64 L 576 320 Q 575 347 557 365 Q 539 383 512 384 L 64 384 Q 37 383 19 365 Q 1 347 0 320 L 0 64 L 0 64 Z M 128 64 Q 127 91 109 109 L 109 109 Q 91 127 64 128 L 64 256 Q 91 257 109 275 Q 127 293 128 320 L 448 320 Q 449 293 467 275 Q 485 257 512 256 L 512 128 Q 485 127 467 109 Q 449 91 448 64 L 128 64 L 128 64 Z M 272 124 L 288 124 Q 306 126 308 144 L 308 212 L 312 212 Q 330 214 332 232 Q 330 250 312 252 L 288 252 L 264 252 Q 246 250 244 232 Q 246 214 264 212 L 268 212 L 268 164 Q 253 160 252 144 Q 254 126 272 124 L 272 124 Z"/>
</svg>
