<svg xmlns="http://www.w3.org/2000/svg" viewBox="0 0 512 448">
    <path d="M 480 0 L 32 0 L 32 384 Q 18 384 9 393 Q 0 402 0 416 Q 0 430 9 439 Q 18 448 32 448 L 208 448 L 208 400 Q 209 380 222 366 Q 236 353 256 352 Q 276 353 290 366 Q 303 380 304 400 L 304 448 L 480 448 Q 494 448 503 439 Q 512 430 512 416 Q 512 402 503 393 Q 494 384 480 384 L 480 0 L 480 0 Z M 96 48 Q 97 33 112 32 L 144 32 Q 159 33 160 48 L 160 80 Q 159 95 144 96 L 112 96 Q 97 95 96 80 L 96 48 L 96 48 Z M 240 32 L 272 32 Q 287 33 288 48 L 288 80 Q 287 95 272 96 L 240 96 Q 225 95 224 80 L 224 48 Q 225 33 240 32 L 240 32 Z M 352 48 Q 353 33 368 32 L 400 32 Q 415 33 416 48 L 416 80 Q 415 95 400 96 L 368 96 Q 353 95 352 80 L 352 48 L 352 48 Z M 112 128 L 144 128 Q 159 129 160 144 L 160 176 Q 159 191 144 192 L 112 192 Q 97 191 96 176 L 96 144 Q 97 129 112 128 L 112 128 Z M 224 144 Q 225 129 240 128 L 272 128 Q 287 129 288 144 L 288 176 Q 287 191 272 192 L 240 192 Q 225 191 224 176 L 224 144 L 224 144 Z M 368 128 L 400 128 Q 415 129 416 144 L 416 176 Q 415 191 400 192 L 368 192 Q 353 191 352 176 L 352 144 Q 353 129 368 128 L 368 128 Z M 328 320 L 184 320 Q 174 320 167 313 Q 161 306 163 296 Q 172 264 197 245 Q 222 225 256 224 Q 290 225 315 245 Q 340 264 349 296 Q 351 306 345 313 Q 338 320 328 320 L 328 320 Z"/>
</svg>
