<svg xmlns="http://www.w3.org/2000/svg" viewBox="0 0 640 384">
    <path d="M 321 160 Q 286 160 264 139 L 264 139 Q 241 119 240 82 Q 240 65 251 46 Q 263 27 285 0 Q 288 4 303 23 Q 318 42 332 60 Q 346 78 347 79 L 383 37 Q 385 40 387 43 Q 389 46 390 49 Q 403 75 398 102 Q 393 128 370 145 Q 348 160 321 160 L 321 160 Z M 32 152 Q 34 130 56 128 L 104 128 Q 126 130 128 152 Q 126 174 104 176 L 80 176 L 80 256 L 560 256 L 560 176 L 536 176 Q 514 174 512 152 Q 514 130 536 128 L 584 128 Q 606 130 608 152 L 608 256 Q 622 256 631 265 Q 640 274 640 288 L 640 352 Q 640 366 631 375 Q 622 384 608 384 L 32 384 Q 18 384 9 375 Q 0 366 0 352 L 0 288 Q 0 274 9 265 Q 18 256 32 256 L 32 152 L 32 152 Z M 320 352 Q 334 352 343 343 L 343 343 Q 352 334 352 320 Q 352 306 343 297 Q 334 288 320 288 Q 306 288 297 297 Q 288 306 288 320 Q 288 334 297 343 Q 306 352 320 352 L 320 352 Z M 480 320 Q 480 306 471 297 L 471 297 Q 462 288 448 288 Q 434 288 425 297 Q 416 306 416 320 Q 416 334 425 343 Q 434 352 448 352 Q 462 352 471 343 Q 480 334 480 320 L 480 320 Z M 192 352 Q 206 352 215 343 L 215 343 Q 224 334 224 320 Q 224 306 215 297 Q 206 288 192 288 Q 178 288 169 297 Q 160 306 160 320 Q 160 334 169 343 Q 178 352 192 352 L 192 352 Z"/>
</svg>
