<svg xmlns="http://www.w3.org/2000/svg" viewBox="0 0 576 512">
    <path d="M 64 32 Q 64 18 55 9 L 55 9 Q 46 0 32 0 Q 18 0 9 9 Q 0 18 0 32 L 0 128 L 0 192 L 0 480 Q 0 494 9 503 Q 18 512 32 512 Q 46 512 55 503 Q 64 494 64 480 L 64 448 L 256 448 L 512 448 L 512 480 Q 512 494 521 503 Q 530 512 544 512 Q 558 512 567 503 Q 576 494 576 480 L 576 448 L 576 416 L 576 288 L 576 192 L 576 160 L 576 128 L 544 128 L 256 128 L 64 128 L 64 32 L 64 32 Z M 512 288 L 512 384 L 256 384 L 64 384 L 64 192 L 256 192 L 512 192 L 512 288 L 512 288 Z"/>
</svg>
