<svg xmlns="http://www.w3.org/2000/svg" viewBox="0 0 288 288">
    <path d="M 288 144 Q 288 105 269 72 L 269 72 Q 250 39 216 19 Q 182 0 144 0 Q 106 0 72 19 Q 38 39 19 72 Q 0 105 0 144 Q 0 183 19 216 Q 38 249 72 269 Q 106 288 144 288 Q 182 288 216 269 Q 250 249 269 216 Q 288 183 288 144 L 288 144 Z M 77 125 L 133 69 Q 144 59 155 69 L 211 125 Q 221 136 211 147 Q 200 157 189 147 L 160 119 L 160 208 Q 159 223 144 224 Q 129 223 128 208 L 128 119 L 99 147 Q 88 157 77 147 Q 67 136 77 125 L 77 125 Z"/>
</svg>
