<svg xmlns="http://www.w3.org/2000/svg" viewBox="0 0 577 512">
    <path d="M 235 64 L 304 224 L 192 224 L 128 160 L 128 64 L 235 64 L 235 64 Z M 381 243 L 294 39 Q 276 2 235 0 L 112 0 Q 92 1 78 14 Q 65 28 64 48 L 64 160 L 32 160 Q 18 160 9 169 Q 0 178 0 192 L 0 299 Q 22 288 48 288 L 304 288 Q 338 288 365 306 Q 391 323 405 352 L 448 352 L 448 403 Q 448 429 467 448 L 521 503 Q 531 512 544 512 Q 557 512 567 503 Q 576 493 576 480 Q 576 467 567 457 L 512 403 L 512 320 L 512 235 L 569 164 Q 577 153 576 140 Q 574 128 564 119 Q 553 111 540 112 Q 528 114 519 124 L 462 195 Q 448 213 448 235 L 448 288 L 384 288 L 384 257 Q 384 253 383 250 Q 383 246 381 243 L 381 243 Z M 80 400 Q 78 378 56 376 Q 34 378 32 400 Q 34 422 56 424 Q 78 422 80 400 L 80 400 Z M 296 424 Q 318 422 320 400 Q 318 378 296 376 Q 274 378 272 400 Q 274 422 296 424 L 296 424 Z M 240 400 Q 238 378 216 376 Q 194 378 192 400 Q 194 422 216 424 Q 238 422 240 400 L 240 400 Z M 136 424 Q 158 422 160 400 Q 158 378 136 376 Q 114 378 112 400 Q 114 422 136 424 L 136 424 Z"/>
</svg>
