<svg xmlns="http://www.w3.org/2000/svg" viewBox="0 0 320 320">
    <path d="M 160 64 Q 133 65 115 83 L 115 83 Q 97 101 96 128 Q 96 159 110 185 Q 123 211 143 232 Q 152 241 160 249 Q 168 241 177 232 Q 197 211 210 185 Q 224 159 224 128 Q 223 101 205 83 Q 187 65 160 64 L 160 64 Z M 32 128 Q 33 74 69 37 L 69 37 Q 106 1 160 0 Q 214 1 251 37 Q 287 74 288 128 Q 287 167 274 199 Q 261 232 241 256 L 288 256 Q 302 256 311 265 Q 320 274 320 288 Q 320 302 311 311 Q 302 320 288 320 L 173 320 L 147 320 L 32 320 Q 18 320 9 311 Q 0 302 0 288 Q 0 274 9 265 Q 18 256 32 256 L 79 256 Q 59 232 46 199 Q 33 167 32 128 L 32 128 Z"/>
</svg>
