<svg xmlns="http://www.w3.org/2000/svg" viewBox="0 0 480 512">
    <path d="M 320 64 L 320 65 Q 320 76 323 87 L 341 152 Q 342 156 342 160 L 426 160 Q 426 156 427 152 L 445 87 Q 448 76 448 65 L 448 64 Q 447 37 429 19 Q 411 1 384 0 Q 357 1 339 19 Q 321 37 320 64 L 320 64 Z M 343 192 Q 341 201 338 210 L 336 217 Q 352 258 352 304 Q 350 386 304 447 L 322 492 Q 331 511 352 512 L 416 512 Q 437 511 446 492 L 469 435 Q 480 406 480 375 Q 480 346 470 319 L 430 210 Q 427 201 425 192 L 343 192 L 343 192 Z M 100 200 Q 112 200 120 192 L 120 192 Q 128 184 128 172 Q 128 160 120 152 Q 112 144 100 144 Q 88 144 80 152 Q 72 160 72 172 Q 72 184 80 192 Q 88 200 100 200 L 100 200 Z M 128 260 Q 128 248 120 240 L 120 240 Q 112 232 100 232 Q 88 232 80 240 Q 72 248 72 260 Q 72 272 80 280 Q 88 288 100 288 Q 112 288 120 280 Q 128 272 128 260 L 128 260 Z M 28 248 Q 40 248 48 240 L 48 240 Q 56 232 56 220 Q 56 208 48 200 Q 40 192 28 192 Q 16 192 8 200 Q 0 208 0 220 Q 0 232 8 240 Q 16 248 28 248 L 28 248 Z"/>
</svg>
