<svg xmlns="http://www.w3.org/2000/svg" viewBox="0 0 288 288">
    <path d="M 160 64 Q 174 64 183 55 L 183 55 Q 192 46 192 32 Q 192 18 183 9 Q 174 0 160 0 Q 146 0 137 9 Q 128 18 128 32 Q 128 46 137 55 Q 146 64 160 64 L 160 64 Z M 96 128 Q 110 128 119 119 L 119 119 Q 128 110 128 96 Q 128 82 119 73 Q 110 64 96 64 Q 82 64 73 73 Q 64 82 64 96 Q 64 110 73 119 Q 82 128 96 128 L 96 128 Z M 64 160 Q 64 146 55 137 L 55 137 Q 46 128 32 128 Q 18 128 9 137 Q 0 146 0 160 Q 0 174 9 183 Q 18 192 32 192 Q 46 192 55 183 Q 64 174 64 160 L 64 160 Z M 96 256 Q 96 242 87 233 L 87 233 Q 78 224 64 224 Q 50 224 41 233 Q 32 242 32 256 Q 32 270 41 279 Q 50 288 64 288 Q 78 288 87 279 Q 96 270 96 256 L 96 256 Z M 160 192 Q 160 178 151 169 L 151 169 Q 142 160 128 160 Q 114 160 105 169 Q 96 178 96 192 Q 96 206 105 215 Q 114 224 128 224 Q 142 224 151 215 Q 160 206 160 192 L 160 192 Z M 224 128 Q 224 114 215 105 L 215 105 Q 206 96 192 96 Q 178 96 169 105 Q 160 114 160 128 Q 160 142 169 151 Q 178 160 192 160 Q 206 160 215 151 Q 224 142 224 128 L 224 128 Z M 256 96 Q 270 96 279 87 L 279 87 Q 288 78 288 64 Q 288 50 279 41 Q 270 32 256 32 Q 242 32 233 41 Q 224 50 224 64 Q 224 78 233 87 Q 242 96 256 96 L 256 96 Z"/>
</svg>
