<svg xmlns="http://www.w3.org/2000/svg" viewBox="0 0 320 448">
    <path d="M 320 160 L 160 0 L 160 128 Q 160 142 169 151 Q 178 160 192 160 L 320 160 L 320 160 Z M 32 224 Q 18 224 9 233 L 9 233 Q 0 242 0 256 L 0 320 Q 0 334 9 343 Q 18 352 32 352 L 224 352 Q 238 352 247 343 Q 256 334 256 320 L 256 256 Q 256 242 247 233 Q 238 224 224 224 L 32 224 L 32 224 Z M 32 256 L 224 256 L 224 320 L 32 320 L 32 256 L 32 256 Z M 176 416 Q 161 417 160 432 Q 161 447 176 448 L 240 448 Q 255 447 256 432 Q 255 417 240 416 L 176 416 L 176 416 Z"/>
</svg>
