<svg xmlns="http://www.w3.org/2000/svg" viewBox="0 0 384 400">
    <path d="M 0 16 L 0 160 Q 0 176 13 186 L 64 224 L 48 400 L 336 400 L 320 224 L 371 186 Q 384 176 384 160 L 384 16 Q 383 1 368 0 L 304 0 Q 289 1 288 16 L 288 56 Q 287 63 280 64 L 248 64 Q 241 63 240 56 L 240 16 Q 239 1 224 0 L 160 0 Q 145 1 144 16 L 144 56 Q 143 63 136 64 L 104 64 Q 97 63 96 56 L 96 16 Q 95 1 80 0 L 16 0 Q 1 1 0 16 L 0 16 Z M 160 272 L 160 224 Q 160 210 169 201 Q 178 192 192 192 Q 206 192 215 201 Q 224 210 224 224 L 224 272 Q 223 287 208 288 L 176 288 Q 161 287 160 272 L 160 272 Z"/>
</svg>
