<svg xmlns="http://www.w3.org/2000/svg" viewBox="0 0 640 509">
    <path d="M 587 51 Q 605 39 597 18 Q 586 0 565 8 L 501 40 Q 482 51 491 72 Q 502 91 523 83 L 587 51 L 587 51 Z M 0 197 Q 2 219 24 221 L 104 221 Q 126 219 128 197 Q 126 175 104 173 L 24 173 Q 2 175 0 197 L 0 197 Z M 512 197 Q 514 219 536 221 L 616 221 Q 638 219 640 197 Q 638 175 616 173 L 536 173 Q 514 175 512 197 L 512 197 Z M 43 18 Q 35 39 53 51 L 117 83 Q 138 90 149 72 Q 157 51 139 40 L 75 8 Q 54 0 43 18 L 43 18 Z M 365 490 Q 384 471 384 445 L 320 445 L 256 445 Q 256 471 275 490 Q 294 509 320 509 Q 346 509 365 490 L 365 490 Z"/>
</svg>
