<svg xmlns="http://www.w3.org/2000/svg" viewBox="0 0 640 320">
    <path d="M 288 64 L 288 160 L 445 160 L 369 64 L 288 64 L 288 64 Z M 419 24 L 527 160 L 576 160 Q 590 160 599 169 Q 608 178 608 192 L 608 256 Q 622 256 631 265 Q 640 274 640 288 Q 640 302 631 311 Q 622 320 608 320 L 581 320 Q 567 291 541 274 Q 514 256 480 256 Q 446 256 419 274 Q 393 291 379 320 L 261 320 Q 247 291 221 274 Q 194 256 160 256 Q 126 256 99 274 Q 73 291 59 320 L 32 320 Q 18 320 9 311 Q 0 302 0 288 Q 0 274 9 265 Q 18 256 32 256 L 32 192 Q 32 178 41 169 Q 50 160 64 160 L 224 160 L 224 48 Q 225 28 238 14 Q 252 1 272 0 L 369 0 Q 399 1 419 24 L 419 24 Z"/>
</svg>
