<svg xmlns="http://www.w3.org/2000/svg" viewBox="0 0 256 256">
    <path d="M 32 64 Q 46 64 55 55 L 55 55 Q 64 46 64 32 Q 64 18 55 9 Q 46 0 32 0 Q 18 0 9 9 Q 0 18 0 32 Q 0 46 9 55 Q 18 64 32 64 L 32 64 Z M 32 160 Q 46 160 55 151 L 55 151 Q 64 142 64 128 Q 64 114 55 105 Q 46 96 32 96 Q 18 96 9 105 Q 0 114 0 128 Q 0 142 9 151 Q 18 160 32 160 L 32 160 Z M 64 224 Q 64 210 55 201 L 55 201 Q 46 192 32 192 Q 18 192 9 201 Q 0 210 0 224 Q 0 238 9 247 Q 18 256 32 256 Q 46 256 55 247 Q 64 238 64 224 L 64 224 Z M 224 64 Q 238 64 247 55 L 247 55 Q 256 46 256 32 Q 256 18 247 9 Q 238 0 224 0 Q 210 0 201 9 Q 192 18 192 32 Q 192 46 201 55 Q 210 64 224 64 L 224 64 Z M 256 128 Q 256 114 247 105 L 247 105 Q 238 96 224 96 Q 210 96 201 105 Q 192 114 192 128 Q 192 142 201 151 Q 210 160 224 160 Q 238 160 247 151 Q 256 142 256 128 L 256 128 Z M 224 256 Q 238 256 247 247 L 247 247 Q 256 238 256 224 Q 256 210 247 201 Q 238 192 224 192 Q 210 192 201 201 Q 192 210 192 224 Q 192 238 201 247 Q 210 256 224 256 L 224 256 Z"/>
</svg>
