<svg xmlns="http://www.w3.org/2000/svg" viewBox="0 0 210 188">
    <path d="M 73 32 Q 73 18 64 9 L 64 9 Q 55 0 41 0 Q 27 0 18 9 Q 9 18 9 32 Q 9 46 18 55 Q 27 64 41 64 Q 55 64 64 55 Q 73 46 73 32 L 73 32 Z M 201 32 Q 201 18 192 9 L 192 9 Q 183 0 169 0 Q 155 0 146 9 Q 137 18 137 32 Q 137 46 146 55 Q 155 64 169 64 Q 183 64 192 55 Q 201 46 201 32 L 201 32 Z M 42 117 Q 30 103 14 111 Q 0 123 8 139 Q 17 154 42 170 Q 67 187 105 188 Q 143 187 168 170 Q 193 154 202 139 Q 210 123 196 111 Q 180 103 168 117 Q 164 125 147 136 Q 131 147 105 148 Q 79 147 63 136 Q 46 125 42 117 L 42 117 Z"/>
</svg>
