<svg xmlns="http://www.w3.org/2000/svg" viewBox="0 0 504 512">
    <path d="M 504 192 Q 500 192 496 192 Q 421 194 372 244 Q 322 293 320 368 Q 322 438 366 487 Q 316 512 256 512 Q 184 511 127 477 Q 69 443 35 385 Q 1 328 0 256 Q 1 184 35 127 Q 69 69 127 35 Q 184 1 256 0 Q 347 2 414 55 Q 481 108 504 192 L 504 192 Z M 256 416 Q 283 415 301 397 L 301 397 Q 319 379 320 352 Q 320 332 309 316 Q 298 300 280 293 L 280 88 Q 278 66 256 64 Q 234 66 232 88 L 232 293 Q 214 300 203 316 Q 192 332 192 352 Q 193 379 211 397 Q 229 415 256 416 L 256 416 Z M 176 144 Q 176 130 167 121 L 167 121 Q 158 112 144 112 Q 130 112 121 121 Q 112 130 112 144 Q 112 158 121 167 Q 130 176 144 176 Q 158 176 167 167 Q 176 158 176 144 L 176 144 Z M 96 288 Q 110 288 119 279 L 119 279 Q 128 270 128 256 Q 128 242 119 233 Q 110 224 96 224 Q 82 224 73 233 Q 64 242 64 256 Q 64 270 73 279 Q 82 288 96 288 L 96 288 Z M 368 176 Q 382 176 391 167 L 391 167 Q 400 158 400 144 Q 400 130 391 121 Q 382 112 368 112 Q 354 112 345 121 Q 336 130 336 144 Q 336 158 345 167 Q 354 176 368 176 L 368 176 Z"/>
</svg>
