<svg xmlns="http://www.w3.org/2000/svg" viewBox="0 0 448 400">
    <path d="M 96 0 Q 55 1 28 28 L 28 28 Q 1 55 0 96 L 0 288 Q 1 332 32 360 L 32 400 L 163 400 L 135 381 Q 124 372 131 359 Q 140 348 153 355 L 192 381 L 231 355 Q 244 348 253 359 Q 260 372 249 381 L 221 400 L 353 400 Q 356 380 371 365 L 420 316 Q 447 288 448 248 L 448 224 Q 447 197 429 179 Q 411 161 384 160 L 352 160 Q 332 161 318 174 Q 305 188 304 208 Q 304 225 314 238 Q 324 250 340 255 Q 354 259 352 274 Q 347 288 332 286 Q 306 278 289 257 Q 273 236 272 208 Q 272 200 274 192 L 144 192 Q 104 191 86 178 Q 77 172 72 167 Q 70 165 68 163 Q 68 162 67 162 L 67 161 L 67 161 L 67 161 L 67 161 L 67 161 Q 66 161 68 160 Q 70 158 80 152 L 67 161 Q 60 148 71 139 Q 84 132 93 143 L 93 143 L 93 143 Q 93 143 93 143 Q 94 144 95 144 Q 97 147 102 150 Q 113 158 144 160 L 288 160 Q 311 129 352 128 L 384 128 L 384 96 Q 383 55 356 28 Q 329 1 288 0 L 96 0 L 96 0 Z"/>
</svg>
