<svg xmlns="http://www.w3.org/2000/svg" viewBox="0 0 576 448">
    <path d="M 104 0 Q 126 2 128 24 L 128 32 L 448 32 Q 480 33 504 50 Q 528 68 539 96 L 552 96 Q 574 98 576 120 L 576 136 Q 574 158 552 160 L 539 160 Q 528 188 504 206 Q 480 223 448 224 L 249 224 L 199 424 Q 192 447 168 448 L 64 448 Q 48 448 39 436 Q 30 423 33 408 L 79 223 Q 45 216 23 190 Q 1 164 0 128 Q 1 92 23 66 Q 45 40 80 33 L 80 24 Q 82 2 104 0 L 104 0 Z M 96 96 Q 82 96 73 105 L 73 105 Q 64 114 64 128 Q 64 142 73 151 Q 82 160 96 160 L 448 160 Q 462 160 471 151 Q 480 142 480 128 Q 480 114 471 105 Q 462 96 448 96 L 96 96 L 96 96 Z"/>
</svg>
