<svg xmlns="http://www.w3.org/2000/svg" viewBox="0 0 566 491">
    <path d="M 91 56 Q 113 58 115 80 Q 113 102 91 104 Q 69 102 67 80 Q 69 58 91 56 L 91 56 Z M 91 160 Q 136 159 160 120 Q 182 80 160 40 Q 136 1 91 0 Q 46 1 22 40 Q 0 80 22 120 Q 46 159 91 160 L 91 160 Z M 475 56 Q 497 58 499 80 Q 497 102 475 104 Q 453 102 451 80 Q 453 58 475 56 L 475 56 Z M 475 160 Q 520 159 544 120 Q 566 80 544 40 Q 520 1 475 0 Q 430 1 406 40 Q 384 80 406 120 Q 430 159 475 160 L 475 160 Z M 259 400 Q 261 378 283 376 Q 305 378 307 400 Q 305 422 283 424 Q 261 422 259 400 L 259 400 Z M 363 400 Q 362 355 323 331 Q 283 309 243 331 Q 204 355 203 400 Q 204 445 243 469 Q 283 491 323 469 Q 362 445 363 400 L 363 400 Z"/>
</svg>
