<svg xmlns="http://www.w3.org/2000/svg" viewBox="0 0 288 512">
    <path d="M 0 32 L 0 192 Q 0 206 9 215 Q 18 224 32 224 L 256 224 Q 270 224 279 215 Q 288 206 288 192 L 288 64 Q 288 50 279 41 Q 270 32 256 32 L 157 32 Q 144 32 135 23 L 121 9 Q 112 0 99 0 L 32 0 Q 18 0 9 9 Q 0 18 0 32 L 0 32 Z M 0 320 L 0 480 Q 0 494 9 503 Q 18 512 32 512 L 256 512 Q 270 512 279 503 Q 288 494 288 480 L 288 352 Q 288 338 279 329 Q 270 320 256 320 L 157 320 Q 144 320 135 311 L 121 297 Q 112 288 99 288 L 32 288 Q 18 288 9 297 Q 0 306 0 320 L 0 320 Z"/>
</svg>
