<svg xmlns="http://www.w3.org/2000/svg" viewBox="0 0 512 512">
    <path d="M 256 512 Q 186 511 128 478 L 128 478 Q 70 444 34 384 Q 0 323 0 256 Q 0 189 34 128 Q 70 68 128 34 Q 186 1 256 0 Q 326 1 384 34 Q 442 68 478 128 Q 512 189 512 256 Q 512 323 478 384 Q 442 444 384 478 Q 326 511 256 512 L 256 512 Z M 135 295 L 242 395 Q 248 400 256 400 Q 264 400 270 395 L 377 295 Q 384 288 384 278 Q 382 258 362 256 L 304 256 L 304 160 Q 304 146 295 137 Q 286 128 272 128 L 240 128 Q 226 128 217 137 Q 208 146 208 160 L 208 256 L 150 256 Q 130 258 128 278 Q 128 288 135 295 L 135 295 Z"/>
</svg>
