<svg xmlns="http://www.w3.org/2000/svg" viewBox="0 0 256 480">
    <path d="M 64 0 Q 91 1 106 24 Q 118 48 106 72 Q 91 95 64 96 Q 37 95 22 72 Q 10 48 22 24 Q 37 1 64 0 L 64 0 Z M 112 237 L 112 309 L 150 361 Q 160 373 160 389 L 160 448 Q 160 462 151 471 Q 142 480 128 480 Q 114 480 105 471 Q 96 462 96 448 L 96 395 L 64 352 L 64 448 Q 64 462 55 471 Q 46 480 32 480 Q 18 480 9 471 Q 0 462 0 448 L 0 246 L 0 245 L 0 190 Q 1 163 18 146 Q 35 129 62 128 Q 93 128 116 150 L 157 192 L 224 192 Q 238 192 247 201 Q 256 210 256 224 Q 256 238 247 247 Q 238 256 224 256 L 151 256 Q 131 256 117 242 L 112 237 L 112 237 Z"/>
</svg>
