<svg xmlns="http://www.w3.org/2000/svg" viewBox="0 0 197 298">
    <path d="M 76 73 Q 67 79 67 85 Q 66 94 67 95 Q 67 97 71 100 Q 81 108 109 117 Q 109 117 110 117 Q 110 117 110 117 Q 123 121 138 128 Q 153 135 166 145 Q 181 157 189 178 Q 197 198 193 222 Q 185 265 149 283 Q 115 298 76 291 L 76 291 L 76 291 Q 61 287 46 282 Q 38 279 31 276 Q 30 275 29 275 Q 27 274 26 274 Q 24 273 22 272 Q 10 267 5 255 Q 0 244 4 231 Q 9 218 21 213 Q 33 208 46 213 Q 49 214 54 216 Q 54 216 55 217 Q 62 219 69 222 Q 82 227 88 228 Q 111 231 121 225 Q 128 222 130 212 Q 131 203 129 200 Q 128 198 125 194 Q 115 186 88 177 Q 86 177 85 176 Q 85 176 85 176 Q 59 169 31 150 Q 16 139 8 119 Q 0 99 3 76 Q 11 33 46 17 Q 81 0 120 7 Q 126 8 137 11 Q 149 13 156 16 Q 168 20 174 31 Q 180 43 177 56 Q 172 69 161 75 Q 150 80 137 77 Q 132 76 123 73 Q 114 71 109 70 L 109 70 Q 87 67 76 74 L 76 73 Z"/>
</svg>
