<svg xmlns="http://www.w3.org/2000/svg" viewBox="0 0 640 322">
    <path d="M 384 133 Q 384 152 398 167 L 447 216 L 474 188 L 506 156 L 534 129 L 411 7 Q 404 0 394 3 Q 385 8 384 18 L 384 133 L 384 133 Z M 546 315 Q 553 322 564 322 Q 575 322 582 315 L 586 311 L 480 205 L 458 227 L 546 315 L 546 315 Z M 618 279 L 512 173 L 491 194 L 597 300 L 618 279 L 618 279 Z M 633 264 Q 640 257 640 246 Q 640 236 633 228 L 545 140 L 523 162 L 629 268 L 633 264 L 633 264 Z M 224 50 Q 224 40 214 35 Q 204 32 197 39 L 171 64 L 166 59 Q 157 50 144 50 Q 131 50 121 59 Q 112 69 112 82 Q 112 95 121 105 L 126 109 L 8 228 Q 0 235 0 246 Q 0 257 8 264 L 58 314 Q 65 322 76 322 Q 86 322 94 314 L 210 199 Q 224 185 224 165 L 224 50 L 224 50 Z M 152 154 Q 153 139 168 138 Q 183 139 184 154 Q 183 169 168 170 Q 153 169 152 154 L 152 154 Z"/>
</svg>
