<svg xmlns="http://www.w3.org/2000/svg" viewBox="0 0 512 512">
    <path d="M 160 9 L 160 87 Q 159 106 143 117 Q 98 150 96 208 Q 97 256 129 287 Q 160 319 208 320 Q 256 319 287 287 Q 319 256 320 208 Q 318 150 273 117 Q 257 106 256 87 L 256 0 Q 327 4 379 48 Q 432 93 445 160 Q 448 180 460 196 L 502 249 Q 512 261 512 276 Q 512 295 499 307 Q 487 320 468 320 L 448 320 L 448 384 Q 447 411 429 429 Q 411 447 384 448 L 320 448 L 320 480 Q 320 494 311 503 Q 302 512 288 512 L 96 512 Q 82 512 73 503 Q 64 494 64 480 L 64 407 Q 63 382 47 362 Q 1 301 0 224 Q 1 147 45 89 Q 89 31 160 9 L 160 9 Z"/>
</svg>
