<svg xmlns="http://www.w3.org/2000/svg" viewBox="0 0 512 514">
    <path d="M 500 9 Q 512 19 512 34 L 512 178 Q 511 198 493 212 Q 475 225 448 226 Q 421 225 403 212 Q 385 198 384 178 Q 385 158 403 144 Q 421 131 448 130 L 448 73 L 352 92 L 352 210 Q 351 230 333 244 Q 315 257 288 258 Q 261 257 243 244 Q 225 230 224 210 Q 225 190 243 176 Q 261 163 288 162 L 288 66 Q 290 41 314 35 L 474 3 Q 488 0 500 9 L 500 9 Z M 75 306 L 87 288 Q 96 274 113 274 L 175 274 Q 192 274 201 288 L 213 306 L 256 306 Q 270 306 279 315 Q 288 324 288 338 L 288 482 Q 288 496 279 505 Q 270 514 256 514 L 32 514 Q 18 514 9 505 Q 0 496 0 482 L 0 338 Q 0 324 9 315 Q 18 306 32 306 L 75 306 L 75 306 Z M 192 410 Q 191 383 168 368 Q 144 356 120 368 Q 97 383 96 410 Q 97 437 120 452 Q 144 464 168 452 Q 191 437 192 410 L 192 410 Z"/>
</svg>
