<svg xmlns="http://www.w3.org/2000/svg" viewBox="0 0 578 162">
    <path d="M 512 0 Q 492 1 478 14 L 478 14 Q 465 28 464 48 L 464 80 L 560 80 L 560 48 Q 559 28 546 14 Q 532 1 512 0 L 512 0 Z M 462 96 L 449 139 Q 446 154 459 159 Q 474 162 479 149 L 495 96 L 462 96 L 462 96 Z M 496 96 L 496 144 Q 497 159 512 160 Q 527 159 528 144 L 528 96 L 496 96 L 496 96 Z M 529 96 L 545 149 Q 550 162 565 159 Q 578 154 575 139 L 562 96 L 529 96 L 529 96 Z M 111 17 Q 101 8 88 8 L 88 8 Q 75 8 65 17 L 9 73 Q 0 83 0 96 Q 0 109 9 119 L 41 151 Q 51 160 64 160 Q 77 160 87 151 L 143 95 Q 152 85 152 72 Q 152 59 143 49 L 111 17 L 111 17 Z"/>
</svg>
