<svg xmlns="http://www.w3.org/2000/svg" viewBox="0 0 320 512">
    <path d="M 0 48 Q 1 28 14 14 L 14 14 Q 28 1 48 0 L 272 0 Q 292 1 306 14 Q 319 28 320 48 L 320 464 Q 319 484 306 498 Q 292 511 272 512 L 80 512 Q 96 491 96 464 L 96 352 L 112 352 Q 127 351 128 336 L 128 304 Q 127 289 112 288 L 96 288 L 96 277 Q 96 266 93 256 L 112 256 Q 127 255 128 240 L 128 208 Q 127 193 112 192 L 80 192 Q 65 193 64 208 L 64 213 L 0 154 L 0 48 L 0 48 Z M 208 192 Q 193 193 192 208 L 192 240 Q 193 255 208 256 L 240 256 Q 255 255 256 240 L 256 208 Q 255 193 240 192 L 208 192 L 208 192 Z M 192 304 L 192 336 Q 193 351 208 352 L 240 352 Q 255 351 256 336 L 256 304 Q 255 289 240 288 L 208 288 Q 193 289 192 304 L 192 304 Z M 64 112 L 64 144 Q 65 159 80 160 L 112 160 Q 127 159 128 144 L 128 112 Q 127 97 112 96 L 80 96 Q 65 97 64 112 L 64 112 Z M 208 96 Q 193 97 192 112 L 192 144 Q 193 159 208 160 L 240 160 Q 255 159 256 144 L 256 112 Q 255 97 240 96 L 208 96 L 208 96 Z"/>
</svg>
