<svg xmlns="http://www.w3.org/2000/svg" viewBox="0 0 517 517">
    <path d="M 55 14 Q 39 0 20 7 Q 1 16 0 37 L 0 453 Q 1 480 19 498 Q 37 516 64 517 L 480 517 Q 501 516 510 497 Q 517 478 503 462 L 450 410 L 427 432 Q 416 441 405 432 Q 396 421 405 410 L 427 387 L 370 330 L 347 352 Q 336 361 325 352 Q 316 341 325 330 L 347 307 L 290 250 L 267 272 Q 256 282 245 272 Q 236 261 245 250 L 267 227 L 210 170 L 187 192 Q 176 202 165 192 Q 156 181 165 170 L 187 147 L 130 90 L 107 112 Q 96 122 85 112 Q 75 101 85 90 L 107 67 L 55 14 L 55 14 Z M 128 261 L 256 389 L 128 389 L 128 261 L 128 261 Z"/>
</svg>
