<svg xmlns="http://www.w3.org/2000/svg" viewBox="0 0 512 512">
    <path d="M 320 96 Q 321 124 337 155 L 337 155 Q 353 187 373 212 L 373 212 Q 392 238 403 250 Q 408 256 416 256 Q 424 256 429 250 Q 440 238 459 212 Q 479 187 495 155 Q 511 124 512 96 Q 511 55 484 28 Q 457 1 416 0 Q 375 1 348 28 Q 321 55 320 96 L 320 96 Z M 384 96 Q 384 82 393 73 L 393 73 Q 402 64 416 64 Q 430 64 439 73 Q 448 82 448 96 Q 448 110 439 119 Q 430 128 416 128 Q 402 128 393 119 Q 384 110 384 96 L 384 96 Z M 0 352 Q 1 380 17 411 L 17 411 Q 33 443 53 468 L 53 468 Q 72 494 83 506 Q 88 512 96 512 Q 104 512 109 506 Q 120 494 139 468 Q 159 443 175 411 Q 191 380 192 352 Q 191 311 164 284 Q 137 257 96 256 Q 55 257 28 284 Q 1 311 0 352 L 0 352 Z M 64 352 Q 64 338 73 329 L 73 329 Q 82 320 96 320 Q 110 320 119 329 Q 128 338 128 352 Q 128 366 119 375 Q 110 384 96 384 Q 82 384 73 375 Q 64 366 64 352 L 64 352 Z"/>
</svg>
