<svg xmlns="http://www.w3.org/2000/svg" viewBox="0 0 448 448">
    <path d="M 160 32 Q 160 18 151 9 L 151 9 Q 142 0 128 0 Q 114 0 105 9 Q 96 18 96 32 L 96 96 L 32 96 Q 18 96 9 105 Q 0 114 0 128 Q 0 142 9 151 Q 18 160 32 160 L 128 160 Q 142 160 151 151 Q 160 142 160 128 L 160 32 L 160 32 Z M 320 288 Q 306 288 297 297 L 297 297 Q 288 306 288 320 L 288 416 Q 288 430 297 439 Q 306 448 320 448 Q 334 448 343 439 Q 352 430 352 416 L 352 352 L 416 352 Q 430 352 439 343 Q 448 334 448 320 Q 448 306 439 297 Q 430 288 416 288 L 320 288 L 320 288 Z"/>
</svg>
