<svg xmlns="http://www.w3.org/2000/svg" viewBox="0 0 480 256">
    <path d="M 128 192 Q 92 191 73 160 Q 55 128 73 96 Q 92 65 128 64 Q 164 65 183 96 Q 201 128 183 160 Q 164 191 128 192 L 128 192 Z M 128 0 Q 74 1 37 37 L 37 37 Q 1 74 0 128 Q 1 182 37 219 Q 74 255 128 256 Q 174 255 207 229 Q 241 202 252 160 L 448 160 Q 462 160 471 151 Q 480 142 480 128 L 480 64 Q 480 50 471 41 Q 462 32 448 32 Q 434 32 425 41 Q 416 50 416 64 L 416 96 L 384 96 L 384 64 Q 384 50 375 41 Q 366 32 352 32 Q 338 32 329 41 Q 320 50 320 64 L 320 96 L 252 96 Q 241 54 207 27 Q 174 1 128 0 L 128 0 Z"/>
</svg>
