<svg xmlns="http://www.w3.org/2000/svg" viewBox="0 0 448 320">
    <path d="M 64 64 L 0 64 L 0 96 L 0 160 Q 1 180 19 189 L 76 214 Q 48 248 48 291 L 48 296 Q 50 318 72 320 Q 94 318 96 296 L 96 291 Q 96 265 113 245 L 121 235 L 163 253 Q 169 256 176 256 L 272 256 Q 279 256 285 253 L 327 235 L 335 245 Q 352 265 352 291 L 352 296 Q 354 318 376 320 Q 398 318 400 296 L 400 291 Q 400 248 373 214 L 429 189 Q 447 180 448 160 L 448 96 L 448 64 L 384 64 L 384 96 L 384 139 L 366 147 L 326 123 Q 278 96 224 96 Q 170 96 122 124 L 82 147 L 64 139 L 64 96 L 64 64 L 64 64 Z M 388 16 L 444 16 Q 435 1 416 0 Q 397 1 388 16 L 388 16 Z M 32 0 Q 13 1 4 16 L 60 16 Q 51 1 32 0 L 32 0 Z"/>
</svg>
