<svg xmlns="http://www.w3.org/2000/svg" viewBox="0 0 446 512">
    <path d="M 334 436 L 400 488 Q 381 511 350 512 L 94 512 Q 67 511 49 493 Q 31 475 30 448 L 30 197 L 110 260 L 110 432 Q 111 447 126 448 Q 141 447 142 432 L 142 285 L 206 336 L 206 432 Q 207 447 222 448 Q 237 447 238 432 L 238 361 L 302 411 L 302 432 Q 303 447 318 448 Q 330 447 334 436 L 334 436 Z M 238 208 Q 237 193 222 192 Q 207 193 206 208 L 206 213 L 98 128 L 414 128 L 414 376 L 334 313 L 334 208 Q 333 193 318 192 Q 303 193 302 208 L 302 288 L 238 238 L 238 208 L 238 208 Z M 414 96 L 57 96 L 0 52 Q 9 33 30 32 L 126 32 L 133 18 Q 142 1 162 0 L 282 0 Q 302 1 311 18 L 318 32 L 414 32 Q 428 32 437 41 Q 446 50 446 64 Q 446 78 437 87 Q 428 96 414 96 L 414 96 Z"/>
</svg>
