<svg xmlns="http://www.w3.org/2000/svg" viewBox="0 0 519 385">
    <path d="M 156 288 L 128 288 L 128 64 L 200 16 Q 224 0 253 0 Q 288 0 315 23 L 317 25 L 228 89 Q 212 101 209 120 Q 205 139 217 156 Q 229 172 248 175 Q 267 179 284 167 L 341 126 L 354 138 L 496 269 Q 505 276 509 286 Q 519 313 499 336 Q 485 351 466 352 Q 447 353 432 339 L 424 332 Q 422 348 411 360 Q 397 375 378 376 Q 359 377 344 363 L 327 348 Q 324 359 315 368 Q 301 383 282 384 Q 263 385 248 371 L 156 288 L 156 288 Z M 0 80 Q 1 65 16 64 L 96 64 L 96 288 Q 96 302 87 311 Q 78 320 64 320 L 32 320 Q 18 320 9 311 Q 0 302 0 288 L 0 80 L 0 80 Z M 64 272 Q 63 257 48 256 Q 33 257 32 272 Q 33 287 48 288 Q 63 287 64 272 L 64 272 Z"/>
</svg>
