<svg xmlns="http://www.w3.org/2000/svg" viewBox="0 0 448 448">
    <path d="M 209 11 L 181 95 Q 150 105 128 128 Q 105 150 95 181 L 11 209 Q 1 213 0 224 Q 1 235 11 239 L 95 267 Q 105 298 128 320 Q 150 343 181 353 L 209 437 Q 213 447 224 448 Q 235 447 239 437 L 267 353 Q 298 343 320 320 Q 343 298 353 267 L 437 239 Q 447 235 448 224 Q 447 213 437 209 L 353 181 Q 343 150 320 128 Q 298 105 267 95 L 239 11 Q 235 1 224 0 Q 213 1 209 11 L 209 11 Z M 224 192 Q 238 192 247 201 L 247 201 Q 256 210 256 224 Q 256 238 247 247 Q 238 256 224 256 Q 210 256 201 247 Q 192 238 192 224 Q 192 210 201 201 Q 210 192 224 192 L 224 192 Z"/>
</svg>
