<svg xmlns="http://www.w3.org/2000/svg" viewBox="0 0 521 481">
    <path d="M 161 0 Q 120 1 93 28 L 93 28 Q 66 55 65 96 L 65 192 L 33 192 Q 19 192 10 201 Q 1 210 1 224 Q 1 238 10 247 Q 19 256 33 256 L 65 256 L 65 384 Q 63 410 37 415 L 29 416 Q 16 418 8 428 Q 0 438 1 452 Q 3 465 13 473 Q 23 481 37 480 L 45 479 Q 82 473 105 447 Q 128 421 129 384 L 129 256 L 161 256 Q 175 256 184 247 Q 193 238 193 224 Q 193 210 184 201 Q 175 192 161 192 L 129 192 L 129 96 Q 129 82 138 73 Q 147 64 161 64 L 193 64 Q 207 64 216 55 Q 225 46 225 32 Q 225 18 216 9 Q 207 0 193 0 L 161 0 L 161 0 Z M 400 241 Q 390 232 377 232 L 377 232 Q 364 232 354 241 Q 345 251 345 264 Q 345 277 354 287 L 388 320 L 354 353 Q 345 363 345 376 Q 345 389 354 399 Q 364 408 377 408 Q 390 408 400 399 L 433 365 L 466 399 Q 476 408 489 408 Q 502 408 512 399 Q 521 389 521 376 Q 521 363 512 353 L 478 320 L 512 287 Q 521 277 521 264 Q 521 251 512 241 Q 502 232 489 232 Q 476 232 466 241 L 433 275 L 400 241 L 400 241 Z"/>
</svg>
