<svg xmlns="http://www.w3.org/2000/svg" viewBox="0 0 256 256">
    <path d="M 0 32 Q 0 18 9 9 L 9 9 Q 18 0 32 0 Q 46 0 55 9 Q 64 18 64 32 Q 64 46 55 55 Q 46 64 32 64 Q 18 64 9 55 Q 0 46 0 32 L 0 32 Z M 96 128 Q 96 114 105 105 L 105 105 Q 114 96 128 96 Q 142 96 151 105 Q 160 114 160 128 Q 160 142 151 151 Q 142 160 128 160 Q 114 160 105 151 Q 96 142 96 128 L 96 128 Z M 224 192 Q 238 192 247 201 L 247 201 Q 256 210 256 224 Q 256 238 247 247 Q 238 256 224 256 Q 210 256 201 247 Q 192 238 192 224 Q 192 210 201 201 Q 210 192 224 192 L 224 192 Z"/>
</svg>
