<svg xmlns="http://www.w3.org/2000/svg" viewBox="0 0 384 384">
    <path d="M 296 336 Q 318 338 320 360 Q 318 382 296 384 L 136 384 Q 78 383 40 344 Q 1 306 0 248 L 0 24 Q 2 2 24 0 Q 46 2 48 24 L 48 248 Q 49 285 74 310 Q 99 335 136 336 L 296 336 L 296 336 Z M 256 16 Q 257 1 272 0 L 304 0 Q 319 1 320 16 L 320 64 L 368 64 Q 383 65 384 80 L 384 112 Q 383 127 368 128 L 320 128 L 320 176 Q 319 191 304 192 L 272 192 Q 257 191 256 176 L 256 128 L 208 128 Q 193 127 192 112 L 192 80 Q 193 65 208 64 L 256 64 L 256 16 L 256 16 Z"/>
</svg>
