<svg xmlns="http://www.w3.org/2000/svg" viewBox="0 0 280 384">
    <path d="M 18 3 Q 11 0 6 3 L 6 3 Q 0 6 0 13 Q 0 18 3 21 L 39 64 L 3 107 Q 0 110 0 115 Q 0 122 6 125 Q 11 128 18 125 L 107 77 Q 115 73 115 64 Q 115 55 107 51 L 18 3 L 18 3 Z M 263 3 L 173 51 Q 165 55 165 64 Q 165 73 173 77 L 263 125 Q 269 128 274 125 Q 280 122 280 115 Q 280 110 277 107 L 241 64 L 277 21 Q 280 18 280 13 Q 280 6 274 3 Q 269 0 263 3 L 263 3 Z M 204 320 L 204 275 Q 202 250 177 248 L 175 248 Q 157 249 152 267 Q 149 276 140 276 Q 131 276 128 267 Q 123 249 105 248 L 103 248 Q 78 250 76 275 L 76 320 Q 77 347 95 365 Q 113 383 140 384 Q 167 383 185 365 Q 203 347 204 320 L 204 320 Z"/>
</svg>
