<svg xmlns="http://www.w3.org/2000/svg" viewBox="0 0 640 256">
    <path d="M 592 128 Q 591 170 570 204 L 570 204 Q 549 238 514 256 L 608 256 Q 622 256 631 247 Q 640 238 640 224 L 640 32 Q 640 18 631 9 Q 622 0 608 0 L 514 0 Q 549 18 570 52 Q 591 86 592 128 L 592 128 Z M 224 256 L 382 256 Q 347 238 326 204 Q 305 170 304 128 Q 305 86 326 52 Q 347 18 382 0 L 224 0 Q 222 0 220 0 Q 217 1 215 1 L 23 57 Q 1 65 0 88 L 0 168 Q 1 191 23 199 L 215 255 Q 219 256 224 256 L 224 256 Z M 427 85 Q 416 75 405 85 Q 395 96 405 107 L 425 128 L 405 149 Q 395 160 405 171 Q 416 181 427 171 L 448 151 L 469 171 Q 480 181 491 171 Q 501 160 491 149 L 471 128 L 491 107 Q 501 96 491 85 Q 480 75 469 85 L 448 105 L 427 85 L 427 85 Z"/>
</svg>
