<svg xmlns="http://www.w3.org/2000/svg" viewBox="0 0 322 245">
    <path d="M 116 32 Q 126 21 116 10 Q 105 0 94 10 L 86 17 Q 57 46 17 53 L 14 53 Q 0 57 1 72 Q 5 86 20 85 L 22 84 Q 72 76 109 40 L 116 32 L 116 32 Z M 206 32 L 213 40 Q 250 76 300 84 L 302 85 Q 317 86 321 72 Q 322 57 308 53 L 305 53 Q 265 46 236 17 L 228 10 Q 217 0 206 10 Q 196 21 206 32 L 206 32 Z M 39 120 Q 32 117 27 120 L 27 120 Q 21 123 21 130 Q 21 135 24 138 L 60 181 L 24 224 Q 21 227 21 232 Q 21 239 27 242 Q 32 245 39 242 L 128 194 Q 136 190 136 181 Q 136 172 128 168 L 39 120 L 39 120 Z M 301 130 Q 301 123 295 120 L 295 120 Q 290 117 284 120 L 194 168 Q 186 172 186 181 Q 186 189 194 194 L 284 242 Q 290 245 295 242 Q 301 239 301 232 Q 301 227 298 224 L 262 181 L 298 138 Q 301 134 301 130 L 301 130 Z"/>
</svg>
