<svg xmlns="http://www.w3.org/2000/svg" viewBox="0 0 448 512">
    <path d="M 224 0 Q 238 0 247 9 L 247 9 Q 256 18 256 32 L 256 480 Q 256 494 247 503 Q 238 512 224 512 Q 210 512 201 503 Q 192 494 192 480 L 192 32 Q 192 18 201 9 Q 210 0 224 0 L 224 0 Z M 416 64 Q 430 64 439 73 L 439 73 Q 448 82 448 96 L 448 416 Q 448 430 439 439 Q 430 448 416 448 Q 402 448 393 439 Q 384 430 384 416 L 384 96 Q 384 82 393 73 Q 402 64 416 64 L 416 64 Z M 32 192 Q 46 192 55 201 L 55 201 Q 64 210 64 224 L 64 288 Q 64 302 55 311 Q 46 320 32 320 Q 18 320 9 311 Q 0 302 0 288 L 0 224 Q 0 210 9 201 Q 18 192 32 192 L 32 192 Z"/>
</svg>
