<svg xmlns="http://www.w3.org/2000/svg" viewBox="0 0 578 424">
    <path d="M 268 16 Q 289 0 310 16 L 417 110 L 417 72 Q 417 58 426 49 Q 435 40 449 40 L 481 40 Q 495 40 504 49 Q 513 58 513 72 L 513 194 L 566 240 Q 576 249 577 262 Q 578 275 569 285 Q 560 295 547 296 Q 534 297 524 288 L 289 83 L 54 288 Q 44 297 31 296 Q 18 295 9 285 Q 0 275 1 262 Q 2 249 12 240 L 268 16 L 268 16 Z M 257 248 Q 258 233 273 232 L 305 232 Q 320 233 321 248 L 321 296 L 369 296 Q 384 297 385 312 L 385 344 Q 384 359 369 360 L 321 360 L 321 408 Q 320 423 305 424 L 273 424 Q 258 423 257 408 L 257 360 L 209 360 Q 194 359 193 344 L 193 312 Q 194 297 209 296 L 257 296 L 257 248 L 257 248 Z"/>
</svg>
