<svg xmlns="http://www.w3.org/2000/svg" viewBox="0 0 404 404">
    <path d="M 372 259 Q 383 268 394 259 Q 404 247 394 236 L 360 202 L 394 168 Q 404 157 394 146 Q 383 136 372 146 L 338 179 L 293 134 L 349 78 Q 358 66 349 55 Q 338 46 327 55 L 270 112 L 225 66 L 259 32 Q 268 21 259 10 Q 247 0 236 10 L 202 44 L 168 10 Q 157 0 146 10 Q 136 21 146 32 L 179 66 L 134 112 L 78 55 Q 66 46 55 55 Q 46 66 55 78 L 112 134 L 66 179 L 32 145 Q 21 136 10 145 Q 0 157 10 168 L 44 202 L 10 236 Q 0 247 10 259 Q 21 268 32 259 L 66 225 L 112 270 L 55 327 Q 46 338 55 349 Q 66 358 78 349 L 134 293 L 179 338 L 146 372 Q 136 383 146 394 Q 157 404 168 394 L 202 360 L 236 394 Q 247 404 259 394 Q 268 383 259 372 L 225 338 L 270 293 L 327 349 Q 338 358 349 349 Q 358 338 349 327 L 293 270 L 338 225 L 372 259 L 372 259 Z M 202 315 L 157 270 L 202 225 L 247 270 L 202 315 L 202 315 Z M 134 247 L 89 202 L 134 157 L 179 202 L 134 247 L 134 247 Z M 202 179 L 157 134 L 202 89 L 247 134 L 202 179 L 202 179 Z M 270 247 L 225 202 L 270 157 L 315 202 L 270 247 L 270 247 Z"/>
</svg>
