<svg xmlns="http://www.w3.org/2000/svg" viewBox="0 0 576 448">
    <path d="M 96 4 L 96 224 L 0 224 L 0 128 Q 1 82 27 49 Q 54 15 96 4 L 96 4 Z M 224 224 L 160 224 L 160 0 L 416 0 L 416 224 L 352 224 L 352 192 Q 352 178 343 169 Q 334 160 320 160 L 256 160 Q 242 160 233 169 Q 224 178 224 192 L 224 224 L 224 224 Z M 480 224 L 480 4 Q 522 15 549 49 Q 575 82 576 128 L 576 224 L 480 224 L 480 224 Z M 0 256 L 96 256 L 96 448 L 48 448 Q 28 447 14 434 Q 1 420 0 400 L 0 256 L 0 256 Z M 416 448 L 160 448 L 160 256 L 224 256 L 224 288 Q 224 302 233 311 Q 242 320 256 320 L 320 320 Q 334 320 343 311 Q 352 302 352 288 L 352 256 L 416 256 L 416 448 L 416 448 Z M 480 448 L 480 256 L 576 256 L 576 400 Q 575 420 562 434 Q 548 447 528 448 L 480 448 L 480 448 Z"/>
</svg>
