<svg xmlns="http://www.w3.org/2000/svg" viewBox="0 0 576 384">
    <path d="M 470 0 L 512 0 Q 539 1 557 19 Q 575 37 576 64 L 576 192 L 0 192 L 0 64 Q 1 37 19 19 Q 37 1 64 0 L 106 0 Q 117 22 137 35 Q 158 48 184 48 L 243 48 L 190 113 Q 177 131 193 146 Q 211 159 226 143 L 288 70 L 350 143 Q 365 159 383 147 Q 399 131 387 113 L 333 48 L 392 48 Q 418 48 439 35 Q 459 22 470 0 L 470 0 Z M 0 288 L 576 288 L 576 320 Q 575 347 557 365 Q 539 383 512 384 L 64 384 Q 37 383 19 365 Q 1 347 0 320 L 0 288 L 0 288 Z"/>
</svg>
