<svg xmlns="http://www.w3.org/2000/svg" viewBox="0 0 640 512">
    <path d="M 213 384 Q 230 419 257 446 Q 241 448 224 448 Q 161 447 111 417 Q 60 388 31 337 Q 1 287 0 224 Q 1 161 31 111 Q 60 60 111 31 Q 161 1 224 0 Q 271 0 312 18 Q 352 35 383 66 Q 399 64 416 64 Q 479 65 529 95 Q 580 124 609 175 Q 639 225 640 288 Q 639 351 609 401 Q 580 452 529 481 Q 479 511 416 512 Q 369 512 328 494 Q 288 477 257 446 Q 295 440 329 422 Q 367 447 416 448 Q 484 446 529 401 Q 574 356 576 288 Q 574 223 533 178 Q 491 134 427 128 Q 410 93 383 66 Q 345 72 311 90 Q 273 65 224 64 Q 156 66 111 111 Q 66 156 64 224 Q 66 289 107 334 Q 149 378 213 384 L 213 384 Z"/>
</svg>
