<svg xmlns="http://www.w3.org/2000/svg" viewBox="0 0 384 288">
    <path d="M 192 16 Q 193 1 208 0 L 240 0 Q 255 1 256 16 L 256 48 Q 255 63 240 64 L 208 64 Q 193 63 192 48 L 192 16 L 192 16 Z M 16 128 L 48 128 Q 63 129 64 144 L 64 176 Q 63 191 48 192 L 16 192 Q 1 191 0 176 L 0 144 Q 1 129 16 128 L 16 128 Z M 208 256 Q 193 255 192 240 L 192 208 Q 193 193 208 192 L 240 192 Q 255 193 256 208 L 256 240 Q 255 255 240 256 L 208 256 L 208 256 Z M 16 224 L 48 224 Q 63 225 64 240 L 64 272 Q 63 287 48 288 L 16 288 Q 1 287 0 272 L 0 240 Q 1 225 16 224 L 16 224 Z M 320 240 L 320 208 Q 321 193 336 192 L 368 192 Q 383 193 384 208 L 384 240 Q 383 255 368 256 L 336 256 Q 321 255 320 240 L 320 240 Z M 336 0 L 368 0 Q 383 1 384 16 L 384 48 Q 383 63 368 64 L 336 64 Q 321 63 320 48 L 320 16 Q 321 1 336 0 L 336 0 Z M 192 144 L 192 112 Q 193 97 208 96 L 240 96 Q 255 97 256 112 L 256 144 Q 255 159 240 160 L 208 160 Q 193 159 192 144 L 192 144 Z M 336 160 Q 321 159 320 144 L 320 112 Q 321 97 336 96 L 368 96 Q 383 97 384 112 L 384 144 Q 383 159 368 160 L 336 160 L 336 160 Z"/>
</svg>
