<svg xmlns="http://www.w3.org/2000/svg" viewBox="0 0 304 416">
    <path d="M 16 32 Q 16 18 25 9 L 25 9 Q 34 0 48 0 L 112 0 Q 126 0 135 9 Q 144 18 144 32 L 204 32 Q 237 32 261 55 L 295 89 Q 304 99 304 112 Q 304 125 295 135 Q 285 144 272 144 Q 259 144 249 135 L 215 101 Q 211 96 204 96 L 144 96 L 144 160 L 16 160 L 16 32 L 16 32 Z M 80 256 Q 102 258 104 280 L 104 312 L 136 312 Q 158 314 160 336 Q 158 358 136 360 L 104 360 L 104 392 Q 102 414 80 416 Q 58 414 56 392 L 56 360 L 24 360 Q 2 358 0 336 Q 2 314 24 312 L 56 312 L 56 280 Q 58 258 80 256 L 80 256 Z"/>
</svg>
