<svg xmlns="http://www.w3.org/2000/svg" viewBox="0 0 480 448">
    <path d="M 0 99 L 0 384 Q 1 411 19 429 Q 37 447 64 448 L 288 448 Q 315 447 333 429 Q 351 411 352 384 L 352 382 L 434 345 Q 455 335 468 317 Q 480 298 480 275 L 480 173 Q 479 140 458 119 Q 436 97 403 96 L 357 96 Q 334 112 304 112 Q 276 112 253 97 Q 222 127 176 128 Q 130 127 99 97 Q 76 112 48 112 Q 21 112 0 99 L 0 99 Z M 264 0 Q 255 2 248 1 Q 244 1 240 0 L 112 0 Q 108 1 104 1 Q 97 2 89 0 L 64 0 Q 35 1 16 21 Q 22 46 48 48 Q 59 48 67 42 Q 86 29 104 31 Q 123 31 140 48 Q 154 63 176 64 Q 198 63 212 48 Q 229 31 248 31 Q 266 29 285 42 Q 293 48 304 48 Q 330 46 336 21 Q 317 1 288 0 L 264 0 L 264 0 Z M 352 160 L 403 160 Q 415 161 416 173 L 416 275 Q 416 283 408 287 L 352 312 L 352 160 L 352 160 Z M 112 160 Q 127 161 128 176 L 128 336 Q 127 351 112 352 Q 97 351 96 336 L 96 176 Q 97 161 112 160 L 112 160 Z M 176 160 Q 191 161 192 176 L 192 336 Q 191 351 176 352 Q 161 351 160 336 L 160 176 Q 161 161 176 160 L 176 160 Z M 240 160 Q 255 161 256 176 L 256 336 Q 255 351 240 352 Q 225 351 224 336 L 224 176 Q 225 161 240 160 L 240 160 Z"/>
</svg>
