<svg xmlns="http://www.w3.org/2000/svg" viewBox="0 0 320 352">
    <path d="M 148 7 Q 152 0 160 0 Q 168 0 172 7 L 209 75 Q 216 88 216 103 L 216 104 Q 215 128 200 144 Q 184 159 160 160 Q 136 159 120 144 Q 105 128 104 104 L 104 103 Q 104 88 111 75 L 148 7 L 148 7 Z M 0 352 L 0 284 L 0 234 Q 13 229 23 223 Q 34 217 42 210 Q 64 195 86 210 Q 94 217 105 223 Q 129 238 160 240 L 160 240 Q 190 238 215 223 Q 226 217 234 210 Q 256 195 278 210 Q 286 217 297 223 Q 307 229 320 234 L 320 284 L 320 352 L 0 352 L 0 352 Z"/>
</svg>
