<svg xmlns="http://www.w3.org/2000/svg" viewBox="0 0 480 224">
    <path d="M 48 24 Q 48 43 55 55 L 55 55 Q 62 68 74 80 L 74 81 Q 87 94 99 114 Q 111 135 112 168 Q 110 190 88 192 Q 66 190 64 168 Q 64 149 57 137 Q 50 124 38 112 L 38 112 Q 25 98 13 78 Q 1 57 0 24 Q 2 2 24 0 Q 46 2 48 24 L 48 24 Z M 160 24 Q 160 43 167 55 L 167 55 Q 174 68 186 80 L 186 81 Q 199 94 211 114 Q 223 135 224 168 Q 222 190 200 192 Q 178 190 176 168 Q 176 149 169 137 Q 162 124 150 112 L 150 112 Q 137 98 125 78 Q 113 57 112 24 Q 114 2 136 0 Q 158 2 160 24 L 160 24 Z M 368 112 Q 416 113 447 145 L 447 145 Q 479 176 480 224 L 256 224 Q 257 176 289 145 Q 320 113 368 112 L 368 112 Z"/>
</svg>
