<svg xmlns="http://www.w3.org/2000/svg" viewBox="0 0 448 448">
    <path d="M 0 384 Q 1 411 19 429 L 19 429 Q 37 447 64 448 L 384 448 Q 411 447 429 429 Q 447 411 448 384 L 448 64 Q 447 37 429 19 Q 411 1 384 0 L 64 0 Q 37 1 19 19 Q 1 37 0 64 L 0 384 L 0 384 Z M 185 345 L 86 238 Q 80 232 80 224 Q 80 216 86 210 L 185 103 Q 192 96 202 96 Q 222 98 224 118 L 224 176 L 320 176 Q 334 176 343 185 Q 352 194 352 208 L 352 240 Q 352 254 343 263 Q 334 272 320 272 L 224 272 L 224 330 Q 222 350 202 352 Q 192 352 185 345 L 185 345 Z"/>
</svg>
