<svg xmlns="http://www.w3.org/2000/svg" viewBox="0 0 376 240">
    <path d="M 88 24 Q 86 2 64 0 Q 42 2 40 24 L 40 96 L 0 96 L 0 144 L 40 144 L 40 216 Q 42 238 64 240 Q 86 238 88 216 L 88 144 L 136 144 L 136 216 Q 138 238 160 240 Q 182 238 184 216 L 184 144 L 232 144 L 232 216 Q 234 238 256 240 Q 278 238 280 216 L 280 144 L 352 144 Q 374 142 376 120 Q 374 98 352 96 L 280 96 L 280 24 Q 278 2 256 0 Q 234 2 232 24 L 232 96 L 184 96 L 184 24 Q 182 2 160 0 Q 138 2 136 24 L 136 96 L 88 96 L 88 24 L 88 24 Z"/>
</svg>
