<svg xmlns="http://www.w3.org/2000/svg" viewBox="0 0 448 320">
    <path d="M 0 64 Q 1 37 19 19 L 19 19 Q 37 1 64 0 L 384 0 Q 411 1 429 19 Q 447 37 448 64 L 448 134 Q 428 124 406 131 L 307 164 L 270 104 Q 265 96 256 96 Q 247 96 242 104 L 196 178 L 181 158 Q 176 152 168 152 Q 160 152 156 158 L 100 230 Q 94 238 98 247 Q 102 256 112 256 L 176 256 L 176 320 L 64 320 Q 37 319 19 301 Q 1 283 0 256 L 0 64 L 0 64 Z M 128 96 Q 128 82 119 73 L 119 73 Q 110 64 96 64 Q 82 64 73 73 Q 64 82 64 96 Q 64 110 73 119 Q 82 128 96 128 Q 110 128 119 119 Q 128 110 128 96 L 128 96 Z"/>
</svg>
