<svg xmlns="http://www.w3.org/2000/svg" viewBox="0 0 384 512">
    <path d="M 0 64 Q 1 37 19 19 L 19 19 Q 37 1 64 0 L 224 0 L 224 128 Q 224 142 233 151 Q 242 160 256 160 L 384 160 L 384 448 Q 383 475 365 493 Q 347 511 320 512 L 64 512 Q 37 511 19 493 Q 1 475 0 448 L 0 320 L 65 320 L 107 403 Q 114 416 129 416 Q 144 415 150 401 L 195 290 L 203 307 Q 210 319 224 320 L 280 320 Q 302 318 304 296 Q 302 274 280 272 L 239 272 L 213 221 Q 206 208 191 208 Q 176 209 170 223 L 126 334 L 102 285 Q 95 273 80 272 L 0 272 L 0 64 L 0 64 Z"/>
</svg>
