<svg xmlns="http://www.w3.org/2000/svg" viewBox="0 0 512 512">
    <path d="M 413 348 Q 411 325 427 307 L 427 307 Q 442 289 469 288 L 480 288 Q 494 288 503 279 Q 512 270 512 256 Q 512 242 503 233 Q 494 224 480 224 L 469 224 Q 430 221 417 189 Q 404 158 429 128 L 437 120 Q 446 110 446 98 Q 446 85 437 75 Q 427 66 414 66 Q 402 66 392 75 L 384 83 Q 354 108 323 95 Q 291 82 288 44 L 288 32 Q 288 18 279 9 Q 270 0 256 0 Q 242 0 233 9 Q 224 18 224 32 L 224 44 Q 221 82 189 95 Q 158 108 128 83 L 120 75 Q 110 66 98 66 Q 85 66 75 75 Q 72 77 71 80 L 201 182 Q 211 176 224 176 Q 244 177 258 190 Q 271 204 272 224 Q 272 231 270 237 L 413 348 L 413 348 Z M 338 413 L 81 210 Q 66 223 44 224 L 32 224 Q 18 224 9 233 Q 0 242 0 256 Q 0 270 9 279 Q 18 288 32 288 L 44 288 Q 82 291 95 323 Q 108 354 83 384 L 75 392 Q 66 402 66 414 Q 66 427 75 437 Q 85 446 98 446 Q 110 446 120 437 L 128 429 Q 158 404 189 417 Q 221 430 224 469 L 224 480 Q 224 494 233 503 Q 242 512 256 512 Q 270 512 279 503 Q 288 494 288 480 L 288 469 Q 289 445 303 430 Q 318 415 338 413 L 338 413 Z"/>
</svg>
