<svg xmlns="http://www.w3.org/2000/svg" viewBox="0 0 514 514">
    <path d="M 159 514 Q 159 514 159 514 L 159 514 Q 159 514 159 514 L 159 514 L 159 514 Z M 514 357 Q 514 357 514 357 L 514 357 Q 514 357 514 358 L 514 357 L 514 357 Z M 393 123 L 373 15 Q 371 7 364 3 Q 356 0 348 5 L 258 67 L 168 5 Q 160 0 153 3 Q 145 7 143 15 L 123 123 L 15 143 Q 7 145 3 153 Q 0 160 5 168 L 67 258 L 5 348 Q 0 356 3 364 Q 7 371 15 373 L 123 393 L 168 349 Q 131 312 130 258 Q 131 204 167 167 Q 204 131 258 130 Q 312 131 349 168 L 393 123 L 393 123 Z M 326 190 Q 299 163 258 162 Q 217 163 190 190 Q 163 217 162 258 Q 163 299 190 326 L 326 190 L 326 190 Z"/>
</svg>
