<svg xmlns="http://www.w3.org/2000/svg" viewBox="0 0 160 512">
    <path d="M 0 32 L 0 64 L 64 64 L 64 32 Q 64 18 55 9 Q 46 0 32 0 Q 18 0 9 9 Q 0 18 0 32 L 0 32 Z M 0 448 L 0 480 Q 0 494 9 503 Q 18 512 32 512 Q 46 512 55 503 Q 64 494 64 480 L 64 448 L 0 448 L 0 448 Z M 96 448 L 96 480 Q 96 494 105 503 Q 114 512 128 512 Q 142 512 151 503 Q 160 494 160 480 L 160 448 L 96 448 L 96 448 Z M 160 69 Q 160 67 160 66 L 160 66 Q 160 65 160 64 L 160 32 Q 160 18 151 9 Q 142 0 128 0 Q 114 0 105 9 Q 96 18 96 32 L 96 64 L 128 64 Q 145 64 160 69 L 160 69 Z"/>
</svg>
