<svg xmlns="http://www.w3.org/2000/svg" viewBox="0 0 455 201">
    <path d="M 64 178 Q 76 144 102 118 Q 151 71 215 71 Q 279 71 328 118 L 345 135 L 295 135 Q 281 135 272 144 Q 263 153 263 167 Q 263 181 272 190 Q 281 199 295 199 L 423 199 Q 423 199 423 199 Q 423 199 423 199 L 423 199 Q 437 199 446 190 Q 455 181 455 167 L 455 39 Q 455 25 446 16 Q 437 7 423 7 Q 409 7 400 16 Q 391 25 391 39 L 391 90 L 373 73 Q 329 29 272 14 Q 215 0 158 14 Q 101 29 57 73 Q 20 110 4 156 Q 0 169 5 181 Q 11 192 23 197 Q 36 201 48 196 Q 59 190 64 178 L 64 178 Z"/>
</svg>
