<svg xmlns="http://www.w3.org/2000/svg" viewBox="0 0 256 256">
    <path d="M 64 0 L 32 0 Q 18 0 9 9 Q 0 18 0 32 L 0 64 L 64 64 L 64 0 L 64 0 Z M 0 96 L 0 160 L 80 160 L 176 160 L 256 160 L 256 96 L 176 96 L 80 96 L 0 96 L 0 96 Z M 256 64 L 256 32 Q 256 18 247 9 Q 238 0 224 0 L 192 0 L 192 64 L 256 64 L 256 64 Z M 160 0 L 96 0 L 96 64 L 160 64 L 160 0 L 160 0 Z M 256 192 L 192 192 L 192 256 L 224 256 Q 238 256 247 247 Q 256 238 256 224 L 256 192 L 256 192 Z M 160 256 L 160 192 L 96 192 L 96 256 L 160 256 L 160 256 Z M 64 256 L 64 192 L 0 192 L 0 224 Q 0 238 9 247 Q 18 256 32 256 L 64 256 L 64 256 Z"/>
</svg>
