<svg xmlns="http://www.w3.org/2000/svg" viewBox="0 0 448 256">
    <path d="M 242 147 Q 224 173 224 208 Q 224 234 235 256 L 437 256 Q 448 234 448 208 Q 447 160 415 129 Q 384 97 336 96 L 335 96 Q 306 97 282 110 Q 258 124 242 147 L 242 147 Z M 11 256 L 200 256 Q 192 233 192 208 Q 192 175 206 147 Q 191 124 167 110 Q 142 97 113 96 L 112 96 Q 64 97 33 129 Q 1 160 0 208 Q 0 234 11 256 L 11 256 Z M 224 0 Q 190 0 163 18 L 163 18 Q 136 35 123 64 Q 186 71 224 118 Q 262 71 325 64 Q 312 35 285 18 Q 258 0 224 0 L 224 0 Z"/>
</svg>
