<svg xmlns="http://www.w3.org/2000/svg" viewBox="0 0 576 512">
    <path d="M 415 448 L 347 448 L 336 416 L 374 416 L 293 352 L 64 352 L 64 172 L 0 121 L 0 352 Q 1 379 19 397 Q 37 415 64 416 L 240 416 L 229 448 L 160 448 Q 146 448 137 457 Q 128 466 128 480 Q 128 494 137 503 Q 146 512 160 512 L 416 512 Q 430 512 439 503 Q 448 494 448 480 Q 448 477 447 474 L 415 448 L 415 448 Z M 512 352 L 449 352 L 528 414 Q 549 408 562 391 Q 576 375 576 352 L 576 64 Q 575 37 557 19 Q 539 1 512 0 L 64 0 Q 39 1 21 16 L 82 64 L 512 64 L 512 352 L 512 352 Z"/>
</svg>
