<svg xmlns="http://www.w3.org/2000/svg" viewBox="0 0 192 512">
    <path d="M 119 9 Q 109 0 96 0 L 96 0 Q 83 0 73 9 L 9 73 Q 0 83 0 96 Q 0 109 9 119 Q 19 128 32 128 Q 45 128 55 119 L 64 109 L 64 224 L 96 224 L 128 224 L 128 109 L 137 119 Q 147 128 160 128 Q 173 128 183 119 Q 192 109 192 96 Q 192 83 183 73 L 119 9 L 119 9 Z M 128 288 L 96 288 L 64 288 L 64 403 L 55 393 Q 45 384 32 384 Q 19 384 9 393 Q 0 403 0 416 Q 0 429 9 439 L 73 503 Q 83 512 96 512 Q 109 512 119 503 L 183 439 Q 192 429 192 416 Q 192 403 183 393 Q 173 384 160 384 Q 147 384 137 393 L 128 403 L 128 288 L 128 288 Z"/>
</svg>
