<svg xmlns="http://www.w3.org/2000/svg" viewBox="0 0 647 510">
    <path d="M 647 57 Q 646 29 620 19 Q 555 0 487 1 Q 420 0 355 19 Q 329 29 327 57 Q 328 80 336 114 Q 379 100 487 97 Q 595 100 638 114 Q 646 80 647 57 L 647 57 Z M 388 280 Q 403 321 419 353 Q 429 374 445 395 Q 461 416 487 417 Q 513 416 529 395 Q 545 374 555 353 Q 571 321 586 280 Q 546 274 487 273 Q 428 273 388 280 L 388 280 Z M 245 125 Q 224 106 199 117 Q 139 150 92 198 Q 44 245 11 304 Q 0 330 19 351 Q 35 367 65 385 Q 76 366 99 335 Q 122 304 160 266 Q 198 229 229 205 Q 260 182 279 171 Q 260 141 245 125 L 245 125 Z M 219 466 Q 259 484 293 495 Q 315 504 341 507 Q 367 510 386 492 Q 404 473 400 447 Q 397 421 389 399 Q 378 365 359 325 Q 326 349 284 391 Q 243 433 219 466 L 219 466 Z"/>
</svg>
