<svg xmlns="http://www.w3.org/2000/svg" viewBox="0 0 377 457">
    <path d="M 243 453 Q 198 457 153 433 L 153 433 Q 109 408 77 379 Q 35 340 27 282 L 3 118 Q 0 103 8 90 Q 17 73 56 49 Q 95 26 178 12 Q 261 0 305 12 Q 349 23 363 36 Q 374 46 376 61 L 377 69 Q 337 72 314 81 Q 291 90 281 99 Q 270 109 268 124 L 249 255 Q 230 249 209 252 Q 183 256 165 274 Q 146 292 141 318 Q 140 324 146 326 Q 151 329 156 325 Q 182 304 216 298 Q 230 296 243 297 Q 237 351 264 396 Q 275 414 290 434 Q 268 449 243 453 L 243 453 Z M 176 163 Q 173 155 164 160 Q 153 168 138 171 Q 122 173 109 168 Q 99 166 99 175 Q 99 175 99 176 Q 99 176 99 176 Q 102 193 114 203 Q 127 212 143 210 Q 160 207 169 194 Q 179 181 177 165 Q 176 164 176 164 Q 176 163 176 163 L 176 163 Z"/>
</svg>
