<svg xmlns="http://www.w3.org/2000/svg" viewBox="0 0 448 448">
    <path d="M 0 64 Q 1 37 19 19 L 19 19 Q 37 1 64 0 L 307 0 Q 333 0 352 19 L 429 96 Q 448 115 448 141 L 448 204 L 289 362 Q 277 375 273 392 L 259 448 L 64 448 Q 37 447 19 429 Q 1 411 0 384 L 0 64 L 0 64 Z M 96 64 Q 82 64 73 73 L 73 73 Q 64 82 64 96 L 64 160 Q 64 174 73 183 Q 82 192 96 192 L 288 192 Q 302 192 311 183 Q 320 174 320 160 L 320 96 Q 320 82 311 73 Q 302 64 288 64 L 96 64 L 96 64 Z M 288 320 Q 287 284 256 265 Q 224 247 192 265 Q 161 284 160 320 Q 161 356 192 375 Q 224 393 256 375 Q 287 356 288 320 L 288 320 Z"/>
</svg>
