<svg xmlns="http://www.w3.org/2000/svg" viewBox="0 0 384 512">
    <path d="M 224 32 Q 224 18 215 9 L 215 9 Q 206 0 192 0 Q 178 0 169 9 Q 160 18 160 32 L 160 386 L 93 357 Q 80 352 66 352 Q 38 353 19 371 Q 1 390 0 418 L 0 420 Q 0 448 20 468 L 46 494 Q 64 512 90 512 L 294 512 Q 320 512 338 494 L 364 468 Q 383 448 384 420 L 384 418 Q 383 390 364 371 Q 346 353 318 352 Q 304 352 291 357 L 224 386 L 224 32 L 224 32 Z M 72 440 Q 74 418 96 416 Q 118 418 120 440 Q 118 462 96 464 Q 74 462 72 440 L 72 440 Z M 288 416 Q 310 418 312 440 Q 310 462 288 464 Q 266 462 264 440 Q 266 418 288 416 L 288 416 Z"/>
</svg>
