<svg xmlns="http://www.w3.org/2000/svg" viewBox="0 0 640 416">
    <path d="M 179 6 L 70 121 Q 64 128 64 137 Q 66 158 87 160 L 112 160 L 37 250 Q 32 256 32 265 Q 34 286 56 288 L 80 288 L 5 378 Q 0 384 0 393 Q 2 414 24 416 L 160 416 L 160 216 Q 160 202 169 193 Q 178 184 192 184 Q 206 184 215 193 Q 224 202 224 216 L 224 416 L 361 416 Q 382 414 384 393 Q 384 384 379 378 L 304 288 L 329 288 Q 350 286 352 265 Q 352 256 347 250 L 272 160 L 297 160 Q 318 158 320 137 Q 320 128 314 121 L 206 6 Q 200 0 192 0 Q 184 0 179 6 L 179 6 Z M 342 105 Q 352 119 352 137 Q 351 164 331 180 L 371 229 Q 384 245 384 265 Q 383 292 363 308 L 403 357 Q 416 372 416 392 L 416 392 L 416 216 Q 416 202 425 193 Q 434 184 448 184 Q 462 184 471 193 Q 480 202 480 216 L 480 416 L 617 416 Q 638 414 640 393 Q 640 384 635 378 L 560 288 L 585 288 Q 606 286 608 265 Q 608 256 603 250 L 528 160 L 553 160 Q 574 158 576 137 Q 576 128 570 121 L 462 6 Q 456 0 448 0 Q 440 0 435 6 L 342 105 L 342 105 Z"/>
</svg>
