<svg xmlns="http://www.w3.org/2000/svg" viewBox="0 0 640 448">
    <path d="M 365 228 Q 424 241 468 280 Q 479 289 491 288 Q 504 287 513 277 Q 522 267 521 254 Q 521 241 511 232 Q 472 198 424 179 Q 375 160 320 160 Q 300 160 281 163 L 365 229 L 365 228 Z M 186 88 Q 249 64 320 64 Q 398 64 466 93 Q 534 121 586 171 Q 596 180 609 180 Q 621 180 631 170 Q 640 160 640 147 Q 640 134 630 125 Q 569 66 490 33 Q 411 1 320 0 Q 216 1 128 43 L 186 88 L 186 88 Z M 381 364 L 325 320 Q 323 320 320 320 Q 293 321 275 339 Q 257 357 256 384 Q 257 411 275 429 Q 293 447 320 448 Q 347 447 365 429 Q 383 411 384 384 Q 384 373 381 364 L 381 364 Z M 228 244 L 173 200 Q 150 214 130 232 Q 120 241 119 254 Q 118 267 127 277 Q 136 287 149 288 Q 161 289 172 280 Q 197 258 228 244 L 228 244 Z M 94 138 L 42 97 Q 25 110 10 125 Q 0 134 0 147 Q 0 160 9 170 Q 19 180 31 180 Q 44 180 54 171 Q 73 153 94 138 L 94 138 Z"/>
</svg>
