<svg xmlns="http://www.w3.org/2000/svg" viewBox="0 0 256 464">
    <path d="M 32 0 L 224 0 Q 238 0 247 9 Q 256 18 256 32 Q 256 46 247 55 Q 238 64 224 64 L 32 64 Q 18 64 9 55 Q 0 46 0 32 Q 0 18 9 9 Q 18 0 32 0 L 32 0 Z M 224 166 Q 223 191 207 207 L 207 207 Q 191 223 166 224 L 144 224 L 112 224 L 90 224 Q 65 223 49 207 Q 33 191 32 166 Q 32 161 38 160 L 80 160 Q 110 161 128 182 Q 146 161 176 160 L 218 160 Q 223 161 224 166 L 224 166 Z M 218 256 Q 223 257 224 262 Q 223 287 207 303 Q 191 319 166 320 L 144 320 L 112 320 L 90 320 Q 65 319 49 303 Q 33 287 32 262 Q 32 256 38 256 L 80 256 Q 110 257 128 278 Q 146 257 176 256 L 218 256 L 218 256 Z M 218 352 Q 223 353 224 358 Q 223 383 207 399 Q 191 415 166 416 L 144 416 L 144 448 Q 143 463 128 464 Q 113 463 112 448 L 112 416 L 90 416 Q 65 415 49 399 Q 33 383 32 358 Q 32 352 38 352 L 80 352 Q 110 353 128 374 Q 146 353 176 352 L 218 352 L 218 352 Z"/>
</svg>
