<svg xmlns="http://www.w3.org/2000/svg" viewBox="0 0 576 512">
    <path d="M 384 64 Q 384 64 384 64 L 384 64 Q 384 64 384 64 Q 384 64 384 64 Q 384 64 384 64 Q 384 64 384 64 Q 384 63 384 63 Q 383 62 382 60 Q 377 54 364 47 Q 336 33 288 32 Q 240 33 212 47 Q 199 54 195 60 Q 193 62 192 63 Q 192 63 192 64 Q 192 64 192 64 Q 192 64 192 64 Q 192 64 192 64 Q 192 64 192 64 Q 192 64 192 64 Q 192 64 192 65 Q 192 65 192 65 Q 192 65 192 65 Q 193 66 195 68 Q 197 71 201 74 Q 191 87 184 102 Q 161 85 160 64 Q 161 37 197 19 Q 234 1 288 0 Q 342 1 379 19 Q 415 37 416 64 Q 415 85 392 102 Q 386 86 375 74 Q 379 71 382 68 Q 384 66 384 65 Q 384 65 384 64 Q 384 64 384 64 L 384 64 Z M 96 512 L 45 512 Q 26 512 13 499 Q 0 486 0 467 Q 0 456 5 446 L 45 367 Q 48 360 48 352 L 48 352 Q 48 344 45 337 L 26 301 Q 16 280 16 257 Q 17 216 44 189 Q 71 161 112 160 Q 152 161 180 188 L 254 262 Q 215 276 195 313 L 96 512 L 96 512 Z M 381 313 Q 361 276 322 262 L 396 188 Q 424 161 464 160 Q 505 161 532 189 Q 559 216 560 257 Q 560 280 550 301 L 531 337 Q 528 344 528 352 L 528 352 Q 528 360 531 367 L 571 446 Q 576 456 576 467 Q 576 486 563 499 Q 550 512 531 512 L 480 512 L 381 313 L 381 313 Z"/>
</svg>
