<svg xmlns="http://www.w3.org/2000/svg" viewBox="0 0 512 288">
    <path d="M 512 0 L 0 0 L 0 288 L 512 288 L 512 0 L 512 0 Z M 352 48 L 352 88 L 352 192 Q 351 206 338 215 Q 324 224 304 224 Q 284 224 270 215 Q 257 206 256 192 Q 257 178 270 169 Q 284 160 304 160 Q 312 160 320 162 L 320 111 L 224 147 L 224 224 Q 223 238 210 247 Q 196 256 176 256 Q 156 256 142 247 Q 129 238 128 224 Q 129 210 142 201 Q 156 192 176 192 Q 184 192 192 194 L 192 136 L 192 96 Q 192 85 202 81 L 330 33 Q 338 30 345 35 Q 352 40 352 48 L 352 48 Z"/>
</svg>
