<svg xmlns="http://www.w3.org/2000/svg" viewBox="0 0 448 352">
    <path d="M 0 64 Q 1 37 19 19 L 19 19 Q 37 1 64 0 L 384 0 Q 411 1 429 19 Q 447 37 448 64 L 448 288 Q 447 315 429 333 Q 411 351 384 352 L 64 352 Q 37 351 19 333 Q 1 315 0 288 L 0 64 L 0 64 Z M 264 96 Q 251 96 244 107 L 188 191 L 171 169 Q 163 160 152 160 Q 141 160 133 169 L 69 249 Q 60 261 66 274 Q 73 287 88 288 L 168 288 L 216 288 L 360 288 Q 374 288 381 275 Q 387 263 380 251 L 284 107 Q 277 96 264 96 L 264 96 Z M 112 128 Q 126 128 135 119 L 135 119 Q 144 110 144 96 Q 144 82 135 73 Q 126 64 112 64 Q 98 64 89 73 Q 80 82 80 96 Q 80 110 89 119 Q 98 128 112 128 L 112 128 Z"/>
</svg>
