<svg xmlns="http://www.w3.org/2000/svg" viewBox="0 0 576 352">
    <path d="M 521 201 Q 531 192 544 192 L 544 192 Q 557 192 567 201 Q 576 211 576 224 Q 576 237 567 247 L 471 343 Q 461 352 448 352 Q 435 352 425 343 L 329 247 Q 320 237 320 224 Q 320 211 329 201 Q 339 192 352 192 Q 365 192 375 201 L 416 243 L 416 32 Q 416 18 425 9 Q 434 0 448 0 Q 462 0 471 9 Q 480 18 480 32 L 480 243 L 521 201 L 521 201 Z M 201 201 Q 211 192 224 192 L 224 192 Q 237 192 247 201 Q 256 211 256 224 Q 256 237 247 247 L 151 343 Q 141 352 128 352 Q 115 352 105 343 L 9 247 Q 0 237 0 224 Q 0 211 9 201 Q 19 192 32 192 Q 45 192 55 201 L 96 243 L 96 32 Q 96 18 105 9 Q 114 0 128 0 Q 142 0 151 9 Q 160 18 160 32 L 160 243 L 201 201 L 201 201 Z"/>
</svg>
