<svg xmlns="http://www.w3.org/2000/svg" viewBox="0 0 640 354">
    <path d="M 94 23 Q 89 11 78 5 L 78 5 Q 66 0 53 4 Q 41 9 35 20 Q 30 32 34 45 L 49 86 Q 65 128 108 138 L 185 154 Q 199 157 209 150 Q 220 143 223 129 Q 226 116 219 105 Q 212 95 199 92 L 121 75 Q 112 73 109 65 L 94 23 L 94 23 Z M 96 210 Q 123 211 138 234 Q 150 258 138 282 Q 123 305 96 306 Q 69 305 54 282 Q 42 258 54 234 Q 69 211 96 210 L 96 210 Z M 96 354 Q 123 354 144 341 Q 165 354 192 354 Q 233 353 260 326 Q 287 299 288 258 Q 288 252 287 246 L 234 236 Q 240 246 240 258 Q 239 278 226 292 Q 212 305 192 306 Q 186 306 180 305 Q 192 284 192 258 Q 191 217 164 190 Q 137 163 96 162 Q 55 163 28 190 Q 1 217 0 258 Q 1 299 28 326 Q 55 353 96 354 L 96 354 Z M 496 258 Q 497 231 520 216 Q 544 204 568 216 Q 591 231 592 258 Q 591 285 568 300 Q 544 312 520 300 Q 497 285 496 258 L 496 258 Z M 640 258 Q 640 232 627 210 L 627 210 Q 614 188 592 175 Q 569 162 544 162 Q 519 162 496 175 Q 474 188 461 210 Q 448 232 448 258 Q 448 284 461 306 Q 474 328 496 341 Q 519 354 544 354 Q 569 354 592 341 Q 614 328 627 306 Q 640 284 640 258 L 640 258 Z"/>
</svg>
