<svg xmlns="http://www.w3.org/2000/svg" viewBox="0 0 512 512">
    <path d="M 272 361 L 367 435 Q 328 473 272 479 L 272 361 L 272 361 Z M 103 227 L 240 336 L 240 479 Q 187 473 150 440 L 87 503 Q 77 512 64 512 Q 51 512 41 503 Q 32 493 32 480 Q 32 467 41 457 L 105 393 Q 108 391 111 389 Q 96 357 96 320 L 32 320 Q 18 320 9 311 Q 0 302 0 288 Q 0 274 9 265 Q 18 256 32 256 L 96 256 Q 97 241 103 227 L 103 227 Z M 416 320 Q 416 335 413 349 L 176 163 Q 188 160 200 160 L 312 160 Q 338 160 360 171 Q 360 170 361 169 L 425 105 Q 435 96 448 96 Q 461 96 471 105 Q 480 115 480 128 Q 480 141 471 151 L 407 215 Q 406 216 405 216 Q 414 235 416 256 L 480 256 Q 494 256 503 265 Q 512 274 512 288 Q 512 302 503 311 Q 494 320 480 320 L 416 320 L 416 320 Z M 256 0 Q 297 1 324 28 L 324 28 Q 351 55 352 96 L 352 100 Q 352 112 344 120 Q 336 128 324 128 L 188 128 Q 176 128 168 120 Q 160 112 160 100 L 160 96 Q 161 55 188 28 Q 215 1 256 0 L 256 0 Z"/>
</svg>
