<svg xmlns="http://www.w3.org/2000/svg" viewBox="0 0 146 448">
    <path d="M 73 128 Q 109 127 128 96 Q 146 64 128 32 Q 109 1 73 0 Q 37 1 18 32 Q 0 64 18 96 Q 37 127 73 128 L 73 128 Z M 73 200 Q 95 202 97 224 Q 95 246 73 248 Q 51 246 49 224 Q 51 202 73 200 L 73 200 Z M 73 288 Q 109 287 128 256 Q 146 224 128 192 Q 109 161 73 160 Q 37 161 18 192 Q 0 224 18 256 Q 37 287 73 288 L 73 288 Z M 73 360 Q 95 362 97 384 Q 95 406 73 408 Q 51 406 49 384 Q 51 362 73 360 L 73 360 Z M 73 448 Q 109 447 128 416 Q 146 384 128 352 Q 109 321 73 320 Q 37 321 18 352 Q 0 384 18 416 Q 37 447 73 448 L 73 448 Z"/>
</svg>
