<svg xmlns="http://www.w3.org/2000/svg" viewBox="0 0 320 416">
    <path d="M 80 0 Q 46 1 23 23 L 23 23 Q 1 46 0 80 L 0 192 Q 1 220 17 241 Q 33 262 59 269 L 87 380 Q 91 396 104 406 Q 117 416 134 416 L 187 416 Q 203 416 216 406 Q 229 396 233 380 L 261 269 Q 287 262 303 241 Q 319 220 320 192 L 320 80 Q 319 46 297 23 Q 274 1 240 0 L 80 0 L 80 0 Z M 64 160 Q 64 146 73 137 L 73 137 Q 82 128 96 128 Q 110 128 119 137 Q 128 146 128 160 Q 128 174 119 183 Q 110 192 96 192 Q 82 192 73 183 Q 64 174 64 160 L 64 160 Z M 224 128 Q 238 128 247 137 L 247 137 Q 256 146 256 160 Q 256 174 247 183 Q 238 192 224 192 Q 210 192 201 183 Q 192 174 192 160 Q 192 146 201 137 Q 210 128 224 128 L 224 128 Z"/>
</svg>
