<svg xmlns="http://www.w3.org/2000/svg" viewBox="0 0 384 512">
    <path d="M 384 256 Q 383 328 349 385 L 349 385 Q 315 443 257 477 L 257 477 Q 200 511 128 512 Q 74 511 37 475 Q 1 438 0 384 Q 1 330 37 293 Q 74 257 128 256 Q 182 255 219 219 Q 255 182 256 128 Q 255 74 219 37 Q 182 1 128 0 Q 200 1 257 35 Q 315 69 349 127 Q 383 184 384 256 L 384 256 Z M 96 128 Q 96 114 105 105 L 105 105 Q 114 96 128 96 Q 142 96 151 105 Q 160 114 160 128 Q 160 142 151 151 Q 142 160 128 160 Q 114 160 105 151 Q 96 142 96 128 L 96 128 Z M 128 416 Q 142 416 151 407 L 151 407 Q 160 398 160 384 Q 160 370 151 361 Q 142 352 128 352 Q 114 352 105 361 Q 96 370 96 384 Q 96 398 105 407 Q 114 416 128 416 L 128 416 Z"/>
</svg>
