<svg xmlns="http://www.w3.org/2000/svg" viewBox="0 0 352 352">
    <path d="M 134 331 Q 155 352 184 352 Q 213 351 232 334 Q 252 316 256 288 L 320 288 Q 334 288 343 279 Q 352 270 352 256 Q 352 242 343 233 Q 334 224 320 224 L 224 224 L 208 224 Q 193 225 192 240 L 192 256 L 192 280 Q 191 287 184 288 Q 181 288 179 286 L 69 176 L 179 66 Q 181 64 184 64 Q 191 65 192 72 L 192 96 L 192 112 Q 193 127 208 128 L 224 128 L 320 128 L 320 64 L 256 64 Q 252 36 232 19 Q 213 1 184 0 Q 155 0 134 21 L 15 140 Q 0 155 0 176 Q 0 197 15 212 L 134 331 L 134 331 Z"/>
</svg>
