<svg xmlns="http://www.w3.org/2000/svg" viewBox="0 0 320 195">
    <path d="M 13 2 Q 25 0 31 12 L 64 95 L 64 18 Q 65 3 80 2 Q 95 3 96 18 L 96 178 Q 95 190 83 193 Q 70 195 65 184 L 32 101 L 32 178 Q 31 192 16 194 Q 1 192 0 178 L 0 18 Q 1 5 13 2 L 13 2 Z M 128 18 Q 129 3 144 2 L 192 2 Q 206 3 208 18 Q 206 32 192 34 L 160 34 L 160 82 L 192 82 Q 206 83 208 98 Q 206 112 192 114 L 160 114 L 160 178 Q 159 192 144 194 Q 129 192 128 178 L 128 98 L 128 18 L 128 18 Z M 240 2 L 304 2 Q 318 3 320 18 Q 318 32 304 34 L 288 34 L 288 178 Q 286 192 272 194 Q 257 192 256 178 L 256 34 L 240 34 Q 225 32 224 18 Q 225 3 240 2 L 240 2 Z"/>
</svg>
