<svg xmlns="http://www.w3.org/2000/svg" viewBox="0 0 384 512">
    <path d="M 0 64 Q 1 37 19 19 L 19 19 Q 37 1 64 0 L 224 0 L 224 128 Q 224 142 233 151 Q 242 160 256 160 L 384 160 L 384 448 Q 383 475 365 493 Q 347 511 320 512 L 64 512 Q 37 511 19 493 Q 1 475 0 448 L 0 64 L 0 64 Z M 153 289 Q 167 272 153 255 Q 136 241 119 255 L 71 303 Q 57 320 71 337 L 119 385 Q 136 399 153 385 Q 167 368 153 351 L 122 320 L 153 289 L 153 289 Z M 265 255 Q 248 241 231 255 Q 217 272 231 289 L 262 320 L 231 351 Q 217 368 231 385 Q 248 399 265 385 L 313 337 Q 327 320 313 303 L 265 255 L 265 255 Z"/>
</svg>
