<svg xmlns="http://www.w3.org/2000/svg" viewBox="0 0 465 277">
    <path d="M 227 32 L 220 40 Q 183 76 133 84 L 131 85 Q 116 86 112 72 Q 111 57 125 53 L 128 53 Q 168 46 197 17 L 205 10 Q 216 0 227 10 Q 237 21 227 32 L 227 32 Z M 240 133 Q 239 147 230 156 L 230 156 Q 221 165 208 165 Q 194 165 185 156 Q 176 147 176 133 Q 176 119 185 110 Q 194 101 208 101 Q 221 101 230 110 Q 239 119 240 133 L 240 133 Z M 400 133 Q 399 147 390 156 L 390 156 Q 381 165 368 165 Q 354 165 345 156 Q 336 147 336 133 Q 336 119 345 110 Q 354 101 368 101 Q 381 101 390 110 Q 399 119 400 133 L 400 133 Z M 349 10 Q 360 0 371 10 L 379 17 Q 408 46 448 53 L 451 53 Q 465 57 464 72 Q 460 86 446 85 L 443 84 Q 393 76 356 40 L 349 32 Q 340 21 349 10 L 349 10 Z M 48 277 Q 28 277 14 263 L 14 263 Q 1 250 0 230 Q 1 214 16 190 Q 30 167 42 152 Q 48 146 54 152 Q 66 167 80 190 Q 95 214 96 230 Q 95 250 82 263 Q 68 277 48 277 L 48 277 Z"/>
</svg>
