<svg xmlns="http://www.w3.org/2000/svg" viewBox="0 0 320 416">
    <path d="M 320 160 L 160 0 L 160 128 Q 160 142 169 151 Q 178 160 192 160 L 320 160 L 320 160 Z M 70 382 L 80 349 L 97 405 Q 100 415 111 416 Q 121 416 126 407 L 135 389 Q 138 384 144 384 Q 150 384 153 389 L 162 407 Q 166 416 176 416 L 240 416 Q 254 414 256 400 Q 254 385 240 384 L 186 384 L 182 375 Q 169 353 144 352 Q 129 352 117 362 L 106 323 Q 99 305 80 304 Q 61 305 54 323 L 40 373 Q 36 383 24 384 L 16 384 Q 1 385 0 400 Q 1 415 16 416 L 24 416 Q 59 414 70 382 L 70 382 Z"/>
</svg>
