<svg xmlns="http://www.w3.org/2000/svg" viewBox="0 0 449 353">
    <path d="M 96 0 Q 55 1 28 28 L 28 28 Q 1 55 0 96 L 0 329 Q 3 330 5 332 Q 34 352 64 352 L 64 256 L 256 256 L 256 353 Q 256 353 256 353 Q 256 353 256 353 Q 286 352 315 332 Q 318 331 320 329 L 320 96 Q 320 82 329 73 Q 338 64 352 64 Q 378 66 383 92 L 384 100 Q 386 113 396 121 Q 406 129 420 128 Q 433 126 441 116 Q 449 106 448 92 L 447 84 Q 441 47 415 24 Q 389 1 352 0 Q 311 1 284 28 Q 257 55 256 96 L 256 192 L 64 192 L 64 96 Q 64 82 73 73 Q 82 64 96 64 Q 122 66 127 92 L 128 100 Q 130 113 140 121 Q 150 129 164 128 Q 177 126 185 116 Q 193 106 192 92 L 191 84 Q 185 47 159 24 Q 133 1 96 0 L 96 0 Z"/>
</svg>
