<svg xmlns="http://www.w3.org/2000/svg" viewBox="0 0 457 466">
    <path d="M 9 73 Q 10 37 41 18 Q 73 0 105 18 Q 136 37 137 73 Q 136 109 105 128 Q 73 146 41 128 Q 10 109 9 73 L 9 73 Z M 329 73 Q 330 37 361 18 Q 393 0 425 18 Q 456 37 457 73 Q 456 109 425 128 Q 393 146 361 128 Q 330 109 329 73 L 329 73 Z M 73 329 Q 109 330 128 361 Q 146 393 128 425 Q 109 456 73 457 Q 37 456 18 425 Q 0 393 18 361 Q 37 330 73 329 L 73 329 Z M 329 393 Q 330 357 361 338 Q 393 320 425 338 Q 456 357 457 393 Q 456 429 425 448 Q 393 466 361 448 Q 330 429 329 393 L 329 393 Z M 297 169 Q 333 170 352 201 Q 370 233 352 265 Q 333 296 297 297 Q 261 296 242 265 Q 224 233 242 201 Q 261 170 297 169 L 297 169 Z"/>
</svg>
