<svg xmlns="http://www.w3.org/2000/svg" viewBox="0 0 448 289">
    <path d="M 0 145 Q 2 83 42 42 L 42 42 Q 83 2 145 0 L 303 0 Q 365 2 406 42 Q 446 83 448 145 Q 447 199 414 238 Q 380 277 327 287 L 325 288 Q 312 289 301 282 Q 291 275 289 261 Q 287 248 294 237 Q 301 227 315 224 L 317 224 Q 346 219 365 197 Q 384 175 384 145 Q 383 110 360 88 Q 338 65 304 64 L 145 64 Q 110 65 88 88 Q 65 110 64 145 Q 65 175 83 197 Q 102 219 131 224 L 133 224 Q 147 227 154 237 Q 161 248 160 261 Q 157 275 147 282 Q 136 289 123 287 L 121 287 Q 68 277 34 238 Q 1 199 0 145 L 0 145 Z"/>
</svg>
