<svg xmlns="http://www.w3.org/2000/svg" viewBox="0 0 424 416">
    <path d="M 256 112 Q 288 111 304 84 Q 320 56 304 28 Q 288 1 256 0 Q 224 1 208 28 Q 192 56 208 84 Q 224 111 256 112 L 256 112 Z M 176 80 Q 175 48 148 32 Q 120 16 92 32 Q 65 48 64 80 Q 65 112 92 128 Q 120 144 148 128 Q 175 112 176 80 L 176 80 Z M 96 272 Q 128 271 144 244 Q 160 216 144 188 Q 128 161 96 160 Q 64 161 48 188 Q 32 216 48 244 Q 64 271 96 272 L 96 272 Z M 64 416 Q 96 415 112 388 Q 128 360 112 332 Q 96 305 64 304 Q 32 305 16 332 Q 0 360 16 388 Q 32 415 64 416 L 64 416 Z M 208 384 Q 240 383 256 356 Q 272 328 256 300 Q 240 273 208 272 Q 176 273 160 300 Q 144 328 160 356 Q 176 383 208 384 L 208 384 Z M 400 304 Q 399 272 372 256 Q 344 240 316 256 Q 289 272 288 304 Q 289 336 316 352 Q 344 368 372 352 Q 399 336 400 304 L 400 304 Z M 232 248 Q 264 247 280 220 Q 296 192 280 164 Q 264 137 232 136 Q 200 137 184 164 Q 168 192 184 220 Q 200 247 232 248 L 232 248 Z M 424 168 Q 423 136 396 120 Q 368 104 340 120 Q 313 136 312 168 Q 313 200 340 216 Q 368 232 396 216 Q 423 200 424 168 L 424 168 Z"/>
</svg>
