<svg xmlns="http://www.w3.org/2000/svg" viewBox="0 0 256 256">
    <path d="M 128 256 Q 163 256 192 239 L 192 239 Q 221 222 239 192 Q 256 162 256 128 Q 256 94 239 64 Q 221 34 192 17 Q 163 0 128 0 Q 93 0 64 17 Q 35 34 17 64 Q 0 94 0 128 Q 0 162 17 192 Q 35 222 64 239 Q 93 256 128 256 L 128 256 Z M 128 32 Q 150 34 152 56 Q 150 78 128 80 Q 106 78 104 56 Q 106 34 128 32 L 128 32 Z M 52 129 Q 32 120 37 98 Q 45 78 67 83 Q 87 92 82 113 Q 74 133 52 129 L 52 129 Z M 219 98 Q 224 120 204 129 Q 182 133 174 113 Q 169 92 189 83 Q 211 78 219 98 L 219 98 Z M 190 172 Q 198 183 193 197 Q 187 209 173 211 Q 159 212 151 200 Q 143 189 148 176 Q 154 163 168 162 Q 182 161 190 172 L 190 172 Z M 72 206 Q 60 198 61 184 Q 63 170 75 164 Q 89 159 100 167 Q 111 175 110 189 Q 109 203 96 209 Q 83 214 72 206 L 72 206 Z"/>
</svg>
