<svg xmlns="http://www.w3.org/2000/svg" viewBox="0 0 512 480">
    <path d="M 176 56 L 176 96 L 336 96 L 336 56 Q 335 49 328 48 L 184 48 Q 177 49 176 56 L 176 56 Z M 128 96 L 128 56 Q 129 32 144 16 Q 160 1 184 0 L 328 0 Q 352 1 368 16 Q 383 32 384 56 L 384 96 L 448 96 Q 475 97 493 115 Q 511 133 512 160 L 512 193 Q 504 192 496 192 Q 455 192 420 209 Q 385 226 360 256 L 352 256 L 192 256 L 0 256 L 0 160 Q 1 133 19 115 Q 37 97 64 96 L 128 96 L 128 96 Z M 321 352 Q 320 360 320 368 Q 321 433 360 480 L 64 480 Q 37 479 19 461 Q 1 443 0 416 L 0 288 L 192 288 L 192 320 Q 192 334 201 343 Q 210 352 224 352 L 320 352 Q 320 352 320 352 Q 321 352 321 352 L 321 352 Z"/>
</svg>
