<svg xmlns="http://www.w3.org/2000/svg" viewBox="0 0 517 516">
    <path d="M 245 0 Q 260 1 261 16 L 261 198 L 229 207 L 229 16 Q 230 1 245 0 L 245 0 Z M 19 178 Q 39 171 51 190 L 116 325 Q 122 339 135 344 Q 148 350 162 347 L 199 337 Q 220 333 228 354 Q 232 375 211 383 L 175 393 Q 143 401 115 388 Q 87 375 72 346 L 7 210 Q 0 190 19 178 L 19 178 Z M 493 288 Q 515 290 517 312 L 517 313 Q 517 339 503 359 Q 489 379 465 388 L 133 511 Q 112 516 103 496 Q 97 475 117 466 L 448 343 Q 468 335 469 313 L 469 312 Q 471 290 493 288 L 493 288 Z"/>
</svg>
