<svg xmlns="http://www.w3.org/2000/svg" viewBox="0 0 326 416">
    <path d="M 41 54 Q 64 34 95 18 L 95 18 Q 126 1 163 0 Q 200 1 231 18 Q 262 34 285 54 Q 307 74 320 89 Q 324 93 326 96 L 260 96 Q 258 95 257 93 Q 255 92 253 90 Q 233 72 210 60 Q 187 48 163 48 Q 139 48 116 60 Q 93 72 73 90 Q 70 92 68 94 Q 67 95 66 96 L 0 96 Q 2 93 6 89 Q 19 74 41 54 L 41 54 Z M 19 304 Q 20 289 35 288 Q 50 289 51 304 Q 50 319 35 320 Q 20 319 19 304 L 19 304 Z M 19 400 Q 20 385 35 384 Q 50 385 51 400 Q 50 415 35 416 Q 20 415 19 400 L 19 400 Z M 67 336 Q 82 337 83 352 Q 82 367 67 368 Q 52 367 51 352 Q 52 337 67 336 L 67 336 Z M 83 304 Q 84 289 99 288 Q 114 289 115 304 Q 114 319 99 320 Q 84 319 83 304 L 83 304 Z M 99 384 Q 114 385 115 400 Q 114 415 99 416 Q 84 415 83 400 Q 84 385 99 384 L 99 384 Z M 115 352 Q 116 337 131 336 Q 146 337 147 352 Q 146 367 131 368 Q 116 367 115 352 L 115 352 Z M 163 288 Q 178 289 179 304 Q 178 319 163 320 Q 148 319 147 304 Q 148 289 163 288 L 163 288 Z M 147 400 Q 148 385 163 384 Q 178 385 179 400 Q 178 415 163 416 Q 148 415 147 400 L 147 400 Z M 195 336 Q 210 337 211 352 Q 210 367 195 368 Q 180 367 179 352 Q 180 337 195 336 L 195 336 Z M 211 304 Q 212 289 227 288 Q 242 289 243 304 Q 242 319 227 320 Q 212 319 211 304 L 211 304 Z M 227 384 Q 242 385 243 400 Q 242 415 227 416 Q 212 415 211 400 Q 212 385 227 384 L 227 384 Z M 243 352 Q 244 337 259 336 Q 274 337 275 352 Q 274 367 259 368 Q 244 367 243 352 L 243 352 Z M 291 288 Q 306 289 307 304 Q 306 319 291 320 Q 276 319 275 304 Q 276 289 291 288 L 291 288 Z M 275 400 Q 276 385 291 384 Q 306 385 307 400 Q 306 415 291 416 Q 276 415 275 400 L 275 400 Z"/>
</svg>
