<svg xmlns="http://www.w3.org/2000/svg" viewBox="0 0 512 513">
    <path d="M 384 65 Q 398 65 407 56 L 407 56 Q 416 47 416 33 Q 416 19 407 10 Q 398 1 384 1 Q 370 1 361 10 Q 352 19 352 33 Q 352 47 361 56 Q 370 65 384 65 L 384 65 Z M 32 129 Q 18 129 9 138 L 9 138 Q 0 147 0 161 L 0 234 Q 0 273 17 308 Q 34 342 64 367 Q 64 364 64 361 Q 64 361 64 361 L 64 353 Q 64 298 90 252 Q 116 206 162 176 L 222 139 Q 235 131 249 129 L 295 50 Q 304 30 287 17 Q 266 8 254 26 L 186 143 Q 180 152 170 147 Q 161 141 166 131 L 217 42 Q 226 22 208 9 Q 188 0 175 18 L 118 117 L 118 117 L 118 117 L 64 210 L 64 161 Q 64 147 55 138 Q 46 129 32 129 L 32 129 Z M 310 159 Q 312 161 313 163 L 313 163 Q 313 163 313 164 L 342 114 Q 351 93 333 81 Q 313 72 300 90 L 276 132 Q 297 139 310 159 L 310 159 Z M 347 153 L 320 200 Q 319 209 315 217 L 320 217 L 333 217 L 333 217 L 365 217 L 388 177 Q 397 157 379 144 Q 359 135 346 153 L 347 153 Z M 512 161 Q 512 147 503 138 L 503 138 Q 494 129 480 129 Q 466 129 457 138 Q 448 147 448 161 Q 448 175 457 184 Q 466 193 480 193 Q 494 193 503 184 Q 512 175 512 161 L 512 161 Z M 80 513 Q 107 512 122 489 Q 134 465 122 441 Q 107 418 80 417 Q 53 418 38 441 Q 26 465 38 489 Q 53 512 80 513 L 80 513 Z"/>
</svg>
