<svg xmlns="http://www.w3.org/2000/svg" viewBox="0 0 160 348">
    <path d="M 16 0 Q 1 1 0 16 Q 1 31 16 32 L 144 32 Q 159 31 160 16 Q 159 1 144 0 L 16 0 L 16 0 Z M 100 120 Q 98 102 80 100 Q 62 102 60 120 L 60 134 Q 48 136 38 143 Q 14 155 12 186 Q 15 216 37 227 Q 55 237 72 241 L 74 242 Q 93 247 102 252 Q 109 257 108 261 Q 108 268 102 271 Q 94 276 81 276 Q 65 275 46 267 L 46 267 Q 42 266 38 265 Q 20 261 13 277 Q 9 295 26 303 Q 29 304 32 305 L 32 305 L 32 305 Q 44 310 60 313 L 60 328 Q 62 346 80 348 Q 98 346 100 328 L 100 314 Q 112 312 123 305 Q 146 292 148 260 Q 145 230 123 219 Q 105 208 86 204 L 86 203 Q 67 198 57 193 Q 51 189 52 186 Q 51 181 58 177 Q 67 172 80 172 Q 94 172 111 177 Q 129 180 135 163 Q 138 145 121 138 Q 111 136 100 134 L 100 120 L 100 120 Z"/>
</svg>
