<svg xmlns="http://www.w3.org/2000/svg" viewBox="0 0 640 512">
    <path d="M 441 320 L 420 304 Q 447 270 448 224 Q 448 213 446 202 Q 467 192 491 192 L 533 192 Q 579 193 609 223 Q 639 253 640 299 Q 638 318 619 320 L 441 320 L 441 320 Z M 395 284 L 244 166 Q 272 130 320 128 Q 361 129 388 156 Q 415 183 416 224 Q 415 259 395 284 L 395 284 Z M 203 134 L 78 36 Q 101 2 144 0 Q 178 1 201 23 Q 223 46 224 80 Q 223 112 203 134 L 203 134 Z M 107 192 L 122 192 L 195 249 Q 204 292 235 320 Q 235 320 235 320 Q 235 320 235 320 L 21 320 Q 2 318 0 299 Q 1 253 31 223 Q 61 193 107 192 L 107 192 Z M 261 352 L 325 352 L 509 497 Q 502 511 485 512 L 155 512 Q 130 510 128 485 Q 129 429 167 391 Q 205 353 261 352 L 261 352 Z M 512 0 Q 557 1 581 40 Q 603 80 581 120 Q 557 159 512 160 Q 467 159 443 120 Q 421 80 443 40 Q 467 1 512 0 L 512 0 Z"/>
</svg>
