<svg xmlns="http://www.w3.org/2000/svg" viewBox="0 0 384 480">
    <path d="M 32 416 L 48 416 L 48 448 Q 48 462 57 471 Q 66 480 80 480 L 96 480 Q 110 480 119 471 Q 128 462 128 448 L 128 416 L 192 416 L 192 352 Q 194 301 234 273 L 250 224 L 208 224 L 208 96 L 296 96 Q 318 98 320 120 L 320 136 Q 329 133 338 131 Q 342 115 355 106 Q 367 96 384 96 L 384 75 Q 383 49 360 36 Q 288 0 207 0 L 177 0 Q 96 0 24 36 Q 1 49 0 75 L 0 384 Q 0 398 9 407 Q 18 416 32 416 L 32 416 Z M 88 96 L 176 96 L 176 224 L 88 224 Q 66 222 64 200 L 64 120 Q 66 98 88 96 L 88 96 Z M 96 296 Q 118 298 120 320 Q 118 342 96 344 Q 74 342 72 320 Q 74 298 96 296 L 96 296 Z"/>
</svg>
