<svg xmlns="http://www.w3.org/2000/svg" viewBox="0 0 448 513">
    <path d="M 230 2 L 382 42 Q 396 46 399 60 Q 402 74 392 83 L 368 104 Q 368 105 368 107 L 368 128 Q 368 145 353 153 Q 335 162 302 169 Q 269 177 224 177 Q 179 177 146 169 Q 113 162 95 153 Q 80 145 80 128 L 80 107 Q 80 105 80 104 L 56 83 Q 46 74 49 60 Q 52 46 66 42 L 218 2 Q 224 0 230 2 L 230 2 Z M 162 74 Q 156 87 169 95 L 217 119 Q 224 123 231 119 L 279 95 Q 292 87 286 74 Q 279 61 265 67 L 224 87 L 183 67 Q 170 61 162 74 L 162 74 Z M 208 417 L 188 376 Q 184 368 188 361 Q 193 353 202 353 L 246 353 Q 255 353 260 361 Q 264 368 260 376 L 240 417 L 252 466 L 315 361 Q 320 353 329 354 Q 381 361 414 398 Q 447 435 448 487 Q 446 511 422 513 L 256 513 L 256 513 L 192 513 L 192 513 L 26 513 Q 2 511 0 487 Q 1 435 34 398 Q 67 361 119 354 Q 128 353 133 361 L 196 466 L 208 417 L 208 417 Z M 336 417 Q 321 418 320 433 Q 321 448 336 449 L 368 449 Q 383 448 384 433 Q 383 418 368 417 L 336 417 L 336 417 Z"/>
</svg>
