<svg xmlns="http://www.w3.org/2000/svg" viewBox="0 0 640 384">
    <path d="M 424 24 Q 422 2 400 0 L 208 0 Q 186 2 184 24 Q 186 46 208 48 L 280 48 L 280 80 L 328 80 L 328 48 L 400 48 Q 422 46 424 24 L 424 24 Z M 24 72 Q 2 74 0 96 L 0 288 Q 2 310 24 312 Q 46 310 48 288 L 48 216 L 96 216 L 96 168 L 48 168 L 48 96 Q 46 74 24 72 L 24 72 Z M 576 128 Q 562 128 553 137 L 553 137 Q 544 146 544 160 L 544 352 Q 544 366 553 375 Q 562 384 576 384 L 608 384 Q 622 384 631 375 Q 640 366 640 352 L 640 160 Q 640 146 631 137 Q 622 128 608 128 L 576 128 L 576 128 Z"/>
</svg>
