<svg xmlns="http://www.w3.org/2000/svg" viewBox="0 0 298 416">
    <path d="M 5 32 Q 5 18 14 9 L 14 9 Q 23 0 37 0 L 133 0 Q 152 1 162 18 Q 170 35 159 51 L 101 128 L 133 128 Q 147 128 156 137 Q 165 146 165 160 Q 165 174 156 183 Q 147 192 133 192 L 37 192 Q 18 191 8 174 Q 0 157 11 141 L 69 64 L 37 64 Q 23 64 14 55 Q 5 46 5 32 L 5 32 Z M 133 256 Q 133 242 142 233 L 142 233 Q 151 224 165 224 L 261 224 Q 280 225 290 242 Q 298 259 287 275 L 229 352 L 261 352 Q 275 352 284 361 Q 293 370 293 384 Q 293 398 284 407 Q 275 416 261 416 L 165 416 Q 146 415 136 398 Q 128 381 139 365 L 197 288 L 165 288 Q 151 288 142 279 Q 133 270 133 256 L 133 256 Z"/>
</svg>
