<svg xmlns="http://www.w3.org/2000/svg" viewBox="0 0 370 488">
    <path d="M 96 54 Q 95 27 72 12 Q 48 0 24 12 Q 1 27 0 54 Q 1 81 24 96 Q 48 108 72 96 Q 95 81 96 54 L 96 54 Z M 116 182 L 114 172 Q 110 155 97 145 Q 85 134 67 134 Q 44 135 30 151 Q 17 168 20 191 L 43 307 Q 48 329 66 343 Q 83 357 106 358 L 111 358 Q 112 358 113 358 L 207 358 Q 217 358 222 368 L 258 465 Q 263 477 274 483 Q 285 488 298 484 L 346 468 Q 359 464 365 452 Q 370 441 366 428 Q 362 415 350 409 Q 339 404 326 408 L 307 414 L 282 346 Q 272 322 252 308 Q 232 294 207 294 L 138 294 L 129 246 L 192 246 Q 206 246 215 237 Q 224 228 224 214 Q 224 200 215 191 Q 206 182 192 182 L 116 182 L 116 182 Z"/>
</svg>
