<svg xmlns="http://www.w3.org/2000/svg" viewBox="0 0 448 256">
    <path d="M 64 64 L 64 96 Q 64 110 55 119 Q 46 128 32 128 Q 18 128 9 119 Q 0 110 0 96 L 0 48 Q 1 28 14 14 Q 28 1 48 0 L 224 0 L 400 0 Q 420 1 434 14 Q 447 28 448 48 L 448 96 Q 448 110 439 119 Q 430 128 416 128 Q 402 128 393 119 Q 384 110 384 96 L 384 64 L 256 64 L 256 192 L 272 192 Q 286 192 295 201 Q 304 210 304 224 Q 304 238 295 247 Q 286 256 272 256 L 176 256 Q 162 256 153 247 Q 144 238 144 224 Q 144 210 153 201 Q 162 192 176 192 L 192 192 L 192 64 L 64 64 L 64 64 Z"/>
</svg>
