<svg xmlns="http://www.w3.org/2000/svg" viewBox="0 0 511 435">
    <path d="M 5 31 L 5 32 Q 0 50 17 58 Q 35 62 43 46 L 43 45 Q 45 40 49 40 L 98 40 Q 109 41 110 53 Q 110 60 104 64 L 67 85 Q 57 91 57 102 L 57 114 Q 59 132 77 134 Q 95 132 97 114 L 124 99 Q 149 83 150 53 Q 150 31 135 16 Q 120 1 98 0 L 49 0 Q 17 2 5 32 L 5 31 Z M 104 187 Q 104 171 91 163 Q 77 155 63 163 Q 50 171 50 187 Q 50 203 63 211 Q 77 219 91 211 Q 104 203 104 187 L 104 187 Z M 317 99 Q 314 185 253 241 L 253 241 Q 191 297 101 306 Q 120 363 174 398 Q 228 434 301 435 Q 359 434 406 411 Q 417 417 431 423 Q 459 434 493 435 Q 504 434 508 424 Q 511 413 502 406 L 502 406 L 502 406 L 502 406 Q 502 405 501 405 Q 500 404 497 401 Q 491 396 484 387 Q 475 376 469 362 Q 508 318 509 259 Q 507 188 453 139 Q 399 90 316 83 Q 317 91 317 99 L 317 99 Z M 285 99 Q 283 176 221 226 Q 283 176 285 99 Q 285 91 284 84 L 284 84 Q 285 91 285 99 L 285 99 Z"/>
</svg>
