<svg xmlns="http://www.w3.org/2000/svg" viewBox="0 0 448 512">
    <path d="M 96 0 Q 55 1 28 28 L 28 28 Q 1 55 0 96 L 0 416 Q 1 457 28 484 Q 55 511 96 512 L 384 512 L 416 512 Q 430 512 439 503 Q 448 494 448 480 Q 448 466 439 457 Q 430 448 416 448 L 352 448 L 256 448 L 96 448 Q 82 448 73 439 Q 64 430 64 416 Q 64 402 73 393 Q 82 384 96 384 L 256 384 L 352 384 L 416 384 Q 430 384 439 375 Q 448 366 448 352 L 448 32 Q 448 18 439 9 Q 430 0 416 0 L 384 0 L 96 0 L 96 0 Z M 320 112 Q 319 144 288 163 L 288 176 Q 287 191 272 192 L 208 192 Q 193 191 192 176 L 192 163 Q 161 145 160 112 Q 161 85 183 67 Q 206 49 240 48 Q 274 49 297 67 Q 319 85 320 112 L 320 112 Z M 208 128 Q 223 127 224 112 Q 223 97 208 96 Q 193 97 192 112 Q 193 127 208 128 L 208 128 Z M 288 112 Q 287 97 272 96 Q 257 97 256 112 Q 257 127 272 128 Q 287 127 288 112 L 288 112 Z M 134 209 L 240 255 L 346 209 Q 360 205 367 218 Q 371 232 358 239 L 281 272 L 358 305 Q 371 312 367 326 Q 360 339 346 335 L 240 289 L 134 335 Q 120 339 113 326 Q 109 312 122 305 L 199 272 L 122 239 Q 109 232 113 218 Q 120 205 134 209 L 134 209 Z"/>
</svg>
