<svg xmlns="http://www.w3.org/2000/svg" viewBox="0 0 448 208">
    <path d="M 280 0 Q 284 0 288 0 L 288 0 Q 288 0 288 0 L 288 58 Q 267 64 254 80 Q 240 97 240 120 L 240 160 Q 241 175 256 176 L 272 176 Q 287 175 288 160 Q 287 145 272 144 L 272 120 Q 272 106 281 97 Q 290 88 304 88 Q 318 88 327 97 Q 336 106 336 120 L 336 144 Q 321 145 320 160 Q 321 175 336 176 L 352 176 Q 367 175 368 160 L 368 120 Q 368 97 354 80 Q 341 64 320 58 L 320 5 Q 376 19 412 63 Q 447 108 448 168 L 448 176 Q 448 190 439 199 Q 430 208 416 208 L 32 208 Q 18 208 9 199 Q 0 190 0 176 L 0 168 Q 1 108 36 63 Q 72 19 128 5 L 128 66 Q 110 72 99 86 Q 88 101 88 120 Q 89 144 104 160 Q 120 175 144 176 Q 168 175 184 160 Q 199 144 200 120 Q 200 101 189 86 Q 178 72 160 66 L 160 0 Q 160 0 160 0 Q 164 0 168 0 L 280 0 L 280 0 Z M 144 96 Q 166 98 168 120 Q 166 142 144 144 Q 122 142 120 120 Q 122 98 144 96 L 144 96 Z"/>
</svg>
