<svg xmlns="http://www.w3.org/2000/svg" viewBox="0 0 512 416">
    <path d="M 64 0 Q 37 1 19 19 L 19 19 Q 1 37 0 64 L 0 352 Q 1 379 19 397 Q 37 415 64 416 L 448 416 Q 475 415 493 397 Q 511 379 512 352 L 512 64 Q 511 37 493 19 Q 475 1 448 0 L 64 0 L 64 0 Z M 96 56 Q 118 58 120 80 Q 118 102 96 104 Q 74 102 72 80 Q 74 58 96 56 L 96 56 Z M 168 80 Q 170 58 192 56 Q 214 58 216 80 Q 214 102 192 104 Q 170 102 168 80 L 168 80 Z M 320 56 Q 342 58 344 80 Q 342 102 320 104 Q 298 102 296 80 Q 298 58 320 56 L 320 56 Z M 392 80 Q 394 58 416 56 Q 438 58 440 80 Q 438 102 416 104 Q 394 102 392 80 L 392 80 Z M 448 160 L 448 352 L 64 352 L 64 160 L 448 160 L 448 160 Z"/>
</svg>
