<svg xmlns="http://www.w3.org/2000/svg" viewBox="0 0 448 311">
    <path d="M 71 82 Q 65 70 68 57 L 68 57 Q 71 45 83 38 L 138 6 Q 150 0 162 3 Q 175 6 182 18 L 214 73 Q 220 85 217 97 Q 214 110 202 117 L 147 149 Q 135 155 122 152 Q 110 149 103 137 L 71 82 L 71 82 Z M 320 215 Q 320 201 329 192 L 329 192 Q 338 183 352 183 L 416 183 Q 430 183 439 192 Q 448 201 448 215 L 448 279 Q 448 293 439 302 Q 430 311 416 311 L 352 311 Q 338 311 329 302 Q 320 293 320 279 L 320 215 L 320 215 Z M 32 183 L 96 183 Q 110 183 119 192 Q 128 201 128 215 L 128 279 Q 128 293 119 302 Q 110 311 96 311 L 32 311 Q 18 311 9 302 Q 0 293 0 279 L 0 215 Q 0 201 9 192 Q 18 183 32 183 L 32 183 Z"/>
</svg>
