<svg xmlns="http://www.w3.org/2000/svg" viewBox="0 0 298 396">
    <path d="M 99 79 Q 71 91 70 107 Q 67 122 71 127 Q 73 133 84 141 Q 108 155 157 167 Q 158 167 159 167 Q 159 167 160 168 Q 161 168 161 168 Q 183 173 206 181 Q 230 189 250 201 Q 272 215 286 241 Q 298 268 292 300 Q 286 329 269 348 Q 251 367 226 377 Q 177 396 117 386 L 116 386 L 116 386 Q 97 383 72 376 Q 46 369 25 360 Q 13 354 8 342 Q 4 330 9 318 Q 15 305 27 301 Q 38 296 51 301 Q 68 309 89 315 Q 110 320 126 323 Q 175 329 202 318 Q 227 307 229 289 Q 231 273 228 268 Q 225 262 215 255 Q 190 240 141 229 Q 140 229 140 228 Q 139 228 138 228 Q 137 228 136 227 Q 114 222 91 214 Q 68 206 48 194 Q 26 180 13 154 Q 0 127 7 95 Q 12 67 31 48 Q 50 29 75 19 Q 125 0 187 9 Q 187 9 187 9 Q 188 9 188 10 L 236 18 Q 249 21 256 32 Q 264 42 262 56 Q 259 69 248 76 Q 238 83 224 81 L 177 73 Q 129 66 99 79 L 99 79 Z"/>
</svg>
