<svg xmlns="http://www.w3.org/2000/svg" viewBox="0 0 344 448">
    <path d="M 328 64 Q 343 62 344 48 L 344 16 Q 343 1 328 0 Q 230 6 153 57 Q 75 107 32 190 Q 41 197 50 206 Q 74 192 104 192 Q 104 192 105 192 Q 142 137 200 103 Q 257 69 328 64 L 328 64 Z M 192 235 Q 216 203 251 184 L 251 184 Q 286 164 328 161 Q 343 159 344 144 L 344 112 Q 343 97 328 97 Q 270 100 221 127 Q 173 154 140 198 Q 171 209 192 235 L 192 235 Z M 215 292 Q 238 298 257 311 Q 279 267 328 257 Q 343 254 344 240 L 344 208 Q 343 193 328 193 Q 290 197 260 216 Q 229 235 209 266 Q 214 278 215 292 L 215 292 Z M 50 402 Q 29 425 0 437 Q 9 447 24 448 Q 37 448 46 439 Q 55 430 56 417 L 56 416 L 56 415 L 56 405 Q 53 404 50 402 L 50 402 Z"/>
</svg>
