<svg xmlns="http://www.w3.org/2000/svg" viewBox="0 0 576 448">
    <path d="M 282 312 L 455 448 L 64 448 Q 37 447 19 429 Q 1 411 0 384 L 0 89 L 141 200 L 99 285 Q 91 306 109 318 Q 130 325 141 307 L 151 288 L 233 288 L 242 307 Q 254 326 275 318 Q 279 315 282 312 L 282 312 Z M 180 231 L 201 248 L 171 248 L 180 231 L 180 231 Z M 576 384 Q 576 400 569 414 L 433 307 Q 454 294 467 272 Q 480 251 480 224 Q 479 183 452 156 Q 425 129 384 128 L 328 128 Q 306 130 304 152 L 304 206 L 45 3 Q 54 0 64 0 L 512 0 Q 539 1 557 19 Q 575 37 576 64 L 576 384 L 576 384 Z M 432 224 Q 432 243 419 257 L 419 257 Q 407 270 388 272 L 352 244 L 352 176 L 384 176 Q 404 177 418 190 Q 431 204 432 224 L 432 224 Z"/>
</svg>
