<svg xmlns="http://www.w3.org/2000/svg" viewBox="0 0 582 256">
    <path d="M 177 59 Q 192 48 211 48 L 212 48 Q 228 48 241 56 Q 205 97 156 120 Q 106 144 48 144 Q 28 145 14 158 Q 1 172 0 192 L 0 208 Q 1 228 14 242 Q 28 255 48 256 L 160 256 Q 249 255 319 208 Q 388 162 423 85 L 435 82 Q 443 80 452 80 L 454 80 Q 490 81 509 111 L 532 148 Q 545 166 564 157 Q 582 144 573 124 L 550 86 Q 535 61 509 47 Q 484 32 454 32 L 452 32 Q 437 32 423 36 L 422 36 Q 422 36 422 36 L 326 62 L 277 23 L 277 23 Q 248 0 212 0 L 211 0 Q 176 0 148 21 L 105 53 Q 89 68 101 87 Q 116 103 134 91 L 177 59 L 177 59 Z"/>
</svg>
