<svg xmlns="http://www.w3.org/2000/svg" viewBox="0 0 448 448">
    <path d="M 128 0 L 128 64 L 96 64 Q 82 64 73 73 Q 64 82 64 96 L 64 128 L 0 128 L 0 96 Q 1 55 28 28 Q 55 1 96 0 L 128 0 L 128 0 Z M 0 288 L 0 160 L 64 160 L 64 288 L 0 288 L 0 288 Z M 0 320 L 64 320 L 64 352 Q 64 366 73 375 Q 82 384 96 384 L 128 384 L 128 448 L 96 448 Q 55 447 28 420 Q 1 393 0 352 L 0 320 L 0 320 Z M 448 161 Q 440 160 432 160 Q 407 160 384 167 L 384 96 Q 384 82 375 73 Q 366 64 352 64 L 320 64 L 320 0 L 352 0 Q 393 1 420 28 Q 447 55 448 96 L 448 161 L 448 161 Z M 263 384 Q 271 413 288 437 L 288 448 L 160 448 L 160 384 L 263 384 L 263 384 Z M 288 64 L 160 64 L 160 0 L 288 0 L 288 64 L 288 64 Z"/>
</svg>
