<svg xmlns="http://www.w3.org/2000/svg" viewBox="0 0 316 526">
    <path d="M 302 513 Q 316 496 304 478 L 262 429 L 262 375 Q 262 366 257 360 L 190 273 L 190 273 L 158 244 L 126 273 L 126 273 L 59 359 Q 54 366 54 375 L 54 429 L 12 478 Q 0 496 14 513 Q 32 526 48 510 L 96 455 Q 102 448 102 438 L 102 383 L 126 351 L 126 415 Q 126 428 135 437 Q 144 446 158 447 Q 172 446 181 437 Q 190 428 190 415 L 190 351 L 214 383 L 214 438 Q 215 448 220 455 L 268 510 Q 284 526 302 513 L 302 513 Z M 70 210 L 137 199 L 179 199 L 246 210 L 287 169 Q 298 155 290 139 L 267 97 L 305 47 Q 316 28 300 12 Q 282 1 267 17 L 219 81 Q 210 94 218 108 L 240 147 L 190 197 L 190 159 Q 188 135 166 128 L 166 71 Q 165 64 158 63 Q 151 64 150 71 L 150 128 Q 128 135 126 159 L 126 197 L 76 147 L 98 108 Q 106 94 97 81 L 49 17 Q 34 0 15 12 Q 0 28 11 46 L 49 97 L 26 139 Q 18 155 30 169 L 70 210 L 70 210 Z"/>
</svg>
