<svg xmlns="http://www.w3.org/2000/svg" viewBox="0 0 174 288">
    <path d="M 83 0 Q 103 2 105 22 L 105 36 Q 120 38 135 43 Q 137 43 139 44 Q 158 51 154 71 Q 147 89 128 86 Q 125 85 122 84 Q 112 81 102 79 Q 81 75 61 83 Q 52 87 49 94 Q 45 101 54 108 Q 69 116 87 120 Q 90 121 94 122 Q 119 128 144 142 Q 174 164 168 200 Q 160 234 130 245 Q 118 250 105 251 L 105 267 Q 103 286 83 288 Q 63 286 61 267 L 61 249 Q 40 244 19 237 Q 1 229 5 209 Q 13 191 32 196 Q 36 197 40 198 Q 57 204 74 208 Q 100 211 114 205 Q 123 201 126 193 Q 128 184 120 178 Q 104 168 85 164 Q 82 163 78 163 Q 78 162 78 162 Q 53 157 30 144 Q 0 124 5 88 Q 14 55 44 43 Q 52 40 61 38 L 61 22 Q 63 2 83 0 L 83 0 Z"/>
</svg>
