<svg xmlns="http://www.w3.org/2000/svg" viewBox="0 0 512 512">
    <path d="M 299 8 Q 287 0 272 0 L 176 0 Q 156 1 142 14 Q 129 28 128 48 L 128 64 L 288 64 L 288 48 Q 288 26 299 8 L 299 8 Z M 128 96 L 128 128 L 288 128 L 288 96 L 128 96 L 128 96 Z M 128 160 L 128 240 Q 127 272 102 291 L 38 339 Q 1 369 0 416 Q 1 457 28 484 Q 55 511 96 512 Q 128 512 154 493 L 175 477 Q 160 449 160 416 Q 161 353 211 314 L 275 266 Q 288 256 288 240 L 288 160 L 128 160 L 128 160 Z M 320 64 L 320 96 L 512 96 L 512 64 L 320 64 L 320 64 Z M 512 128 L 320 128 L 320 160 L 512 160 L 512 128 L 512 128 Z"/>
</svg>
