<svg xmlns="http://www.w3.org/2000/svg" viewBox="0 0 578 456">
    <path d="M 268 16 Q 289 0 310 16 L 566 240 Q 576 249 577 262 Q 578 275 569 285 Q 560 295 547 296 Q 534 297 524 288 L 289 83 L 54 288 Q 44 297 31 296 Q 18 295 9 285 Q 0 275 1 262 Q 2 249 12 240 L 268 16 L 268 16 Z M 225 264 Q 226 228 257 209 Q 289 191 321 209 Q 352 228 353 264 Q 352 300 321 319 Q 289 337 257 319 Q 226 300 225 264 L 225 264 Z M 257 360 L 321 360 Q 355 361 378 383 Q 400 406 401 440 Q 400 455 385 456 L 193 456 Q 178 455 177 440 Q 178 406 200 383 Q 223 361 257 360 L 257 360 Z"/>
</svg>
