<svg xmlns="http://www.w3.org/2000/svg" viewBox="0 0 224 519">
    <path d="M 71 13 L 182 0 Q 198 0 200 16 L 200 30 Q 199 45 184 46 L 73 46 Q 57 45 56 29 Q 57 15 71 12 L 71 13 Z M 190 78 Q 192 87 192 96 Q 191 123 173 141 Q 155 159 128 160 Q 101 159 83 141 Q 65 123 64 96 Q 64 87 67 78 L 190 78 L 190 78 Z M 32 256 Q 33 227 53 209 L 197 320 Q 195 320 192 320 L 64 320 Q 50 320 41 311 Q 32 302 32 288 L 32 256 L 32 256 Z M 222 299 L 85 193 Q 90 192 96 192 L 160 192 Q 187 193 205 211 Q 223 229 224 256 L 224 288 Q 224 294 222 299 L 222 299 Z M 224 432 Q 224 443 216 450 L 152 506 Q 134 519 118 504 Q 105 486 120 470 L 136 456 L 24 456 Q 2 454 0 432 Q 2 410 24 408 L 136 408 L 120 394 Q 105 378 118 360 Q 134 345 152 358 L 216 414 Q 224 421 224 432 L 224 432 Z"/>
</svg>
