<svg xmlns="http://www.w3.org/2000/svg" viewBox="0 0 640 385">
    <path d="M 496 299 Q 494 282 481 269 L 346 146 L 323 164 L 496 299 L 496 299 Z M 297 143 L 374 83 Q 386 75 397 86 Q 405 98 394 109 L 373 125 L 550 288 L 592 288 Q 612 287 626 274 Q 639 260 640 240 L 640 112 Q 639 92 626 78 Q 612 65 592 64 L 516 64 L 512 64 L 511 64 L 507 62 L 435 15 Q 411 0 383 0 Q 350 0 323 21 L 234 94 L 297 143 L 297 143 Z M 208 74 L 290 7 Q 272 0 253 0 Q 224 0 200 16 L 165 40 L 208 74 L 208 74 Z M 414 358 L 41 65 Q 23 67 12 80 Q 0 93 0 112 L 0 240 Q 1 260 14 274 Q 28 287 48 288 L 156 288 L 248 371 Q 263 385 282 384 Q 301 383 315 368 Q 324 359 327 348 L 344 363 Q 359 377 378 376 Q 397 375 411 360 Q 412 359 414 358 L 414 358 Z"/>
</svg>
