<svg xmlns="http://www.w3.org/2000/svg" viewBox="0 0 384 384">
    <path d="M 64 192 Q 65 138 101 101 L 101 101 Q 138 65 192 64 Q 239 65 273 93 Q 308 122 317 166 Q 320 180 331 187 Q 342 194 355 191 Q 368 188 375 178 Q 382 167 380 154 Q 365 87 314 44 Q 263 1 192 0 Q 110 2 56 56 Q 2 110 0 192 Q 2 267 49 320 L 32 320 Q 18 320 9 329 Q 0 338 0 352 Q 0 366 9 375 Q 18 384 32 384 L 192 384 L 352 384 Q 366 384 375 375 Q 384 366 384 352 Q 384 338 375 329 Q 366 320 352 320 L 192 320 Q 138 319 101 283 Q 65 246 64 192 L 64 192 Z"/>
</svg>
