<svg xmlns="http://www.w3.org/2000/svg" viewBox="0 0 448 448">
    <path d="M 312 0 Q 296 1 290 15 Q 284 29 295 41 L 328 74 L 276 127 Q 232 97 176 96 Q 101 98 52 148 Q 2 197 0 272 Q 2 347 52 396 Q 101 446 176 448 Q 251 446 300 396 Q 350 347 352 272 Q 351 216 321 172 L 374 120 L 407 153 Q 419 164 433 158 Q 447 152 448 136 L 448 24 Q 446 2 424 0 L 312 0 L 312 0 Z M 400 48 L 400 48 L 400 48 L 400 48 L 400 48 Z M 64 272 Q 64 242 79 216 L 79 216 Q 94 190 120 175 Q 146 160 176 160 Q 206 160 232 175 Q 258 190 273 216 Q 288 242 288 272 Q 288 302 273 328 Q 258 354 232 369 Q 206 384 176 384 Q 146 384 120 369 Q 94 354 79 328 Q 64 302 64 272 L 64 272 Z M 384 272 Q 384 315 368 352 Q 402 351 425 329 Q 447 306 448 272 Q 447 238 425 215 Q 402 193 368 192 Q 384 229 384 272 L 384 272 Z"/>
</svg>
