<svg xmlns="http://www.w3.org/2000/svg" viewBox="0 0 512 512">
    <path d="M 256 110 L 256 96 L 128 96 Q 101 97 83 115 Q 65 133 64 160 Q 65 187 83 205 Q 101 223 128 224 L 384 224 Q 438 225 475 261 Q 511 298 512 352 Q 511 400 482 434 Q 454 468 409 478 Q 391 510 352 512 Q 325 511 307 493 Q 289 475 288 448 Q 289 421 307 403 Q 325 385 352 384 Q 387 385 405 412 Q 424 406 436 389 Q 448 373 448 352 Q 447 325 429 307 Q 411 289 384 288 L 128 288 Q 74 287 37 251 Q 1 214 0 160 Q 1 106 37 69 Q 74 33 128 32 L 256 32 L 256 18 Q 258 2 274 0 Q 280 0 285 4 L 346 51 Q 352 56 352 64 Q 352 72 346 77 L 285 124 Q 280 128 274 128 Q 258 126 256 110 L 256 110 Z"/>
</svg>
