<svg xmlns="http://www.w3.org/2000/svg" viewBox="0 0 324 386">
    <path d="M 170 65 L 42 97 Q 28 100 18 93 Q 7 87 3 74 Q 0 61 7 50 Q 13 39 26 35 L 154 3 Q 167 0 178 7 Q 189 13 193 26 Q 196 40 189 51 Q 183 61 170 65 L 170 65 Z M 321 90 Q 324 103 317 114 L 317 114 Q 311 125 298 129 L 42 193 Q 28 196 18 189 Q 7 183 3 170 Q 0 157 7 146 Q 13 135 26 131 L 282 67 Q 296 64 307 71 Q 317 77 321 90 L 321 90 Z M 321 186 Q 324 199 317 210 L 317 210 Q 311 221 298 225 L 102 274 L 98 275 L 42 289 Q 28 292 18 285 Q 7 279 3 266 Q 0 253 7 242 Q 13 231 26 227 L 282 163 Q 296 160 307 167 Q 317 173 321 186 L 321 186 Z M 98 308 L 146 296 L 146 386 L 98 386 L 98 308 L 98 308 Z M 321 282 Q 324 296 317 307 L 317 307 Q 311 317 298 321 L 234 337 L 226 339 L 226 386 L 178 386 L 178 311 Q 178 310 178 310 Q 178 310 178 309 L 178 306 L 178 306 Q 182 285 202 279 L 218 275 L 282 259 Q 295 256 306 263 Q 317 269 321 282 L 321 282 Z"/>
</svg>
