<svg xmlns="http://www.w3.org/2000/svg" viewBox="0 0 416 416">
    <path d="M 56 0 Q 32 1 16 16 L 16 16 Q 1 32 0 56 L 0 360 Q 1 384 16 400 Q 32 415 56 416 L 360 416 Q 384 415 400 400 Q 415 384 416 360 L 416 141 Q 416 118 400 102 L 314 16 Q 298 0 275 0 L 56 0 L 56 0 Z M 64 96 Q 64 82 73 73 L 73 73 Q 82 64 96 64 L 256 64 Q 270 64 279 73 Q 288 82 288 96 L 288 128 Q 288 142 279 151 Q 270 160 256 160 L 96 160 Q 82 160 73 151 Q 64 142 64 128 L 64 96 L 64 96 Z M 208 224 Q 244 225 263 256 Q 281 288 263 320 Q 244 351 208 352 Q 172 351 153 320 Q 135 288 153 256 Q 172 225 208 224 L 208 224 Z"/>
</svg>
