<svg xmlns="http://www.w3.org/2000/svg" viewBox="0 0 448 448">
    <path d="M 0 224 L 64 224 Q 79 223 80 208 L 80 192 Q 80 178 89 169 Q 98 160 112 160 Q 126 160 135 169 Q 144 178 144 192 L 144 208 Q 145 223 160 224 L 224 224 L 224 156 Q 225 145 236 144 L 240 144 Q 254 144 263 135 Q 272 126 272 112 Q 272 98 263 89 Q 254 80 240 80 L 236 80 Q 225 79 224 68 L 224 16 Q 223 1 208 0 L 64 0 Q 37 1 19 19 Q 1 37 0 64 L 0 224 L 0 224 Z M 224 224 L 224 288 Q 223 303 208 304 L 192 304 Q 178 304 169 313 Q 160 322 160 336 Q 160 350 169 359 Q 178 368 192 368 L 208 368 Q 223 369 224 384 L 224 448 L 384 448 Q 411 447 429 429 Q 447 411 448 384 L 448 240 Q 447 225 432 224 L 384 224 Q 369 225 368 240 L 368 256 Q 368 270 359 279 Q 350 288 336 288 Q 322 288 313 279 Q 304 270 304 256 L 304 240 Q 303 225 288 224 L 224 224 L 224 224 Z"/>
</svg>
