<svg xmlns="http://www.w3.org/2000/svg" viewBox="0 0 330 138">
    <path d="M 106 10 Q 117 0 128 10 Q 138 21 128 32 L 92 69 L 128 106 Q 138 117 128 128 Q 117 138 106 128 L 69 92 L 32 128 Q 21 138 10 128 Q 0 117 10 106 L 46 69 L 10 32 Q 0 21 10 10 Q 21 0 32 10 L 69 46 L 106 10 L 106 10 Z M 202 10 Q 213 0 224 10 L 261 46 L 298 10 Q 309 0 320 10 Q 330 21 320 32 L 284 69 L 320 106 Q 330 117 320 128 Q 309 138 298 128 L 261 92 L 224 128 Q 213 138 202 128 Q 192 117 202 106 L 238 69 L 202 32 Q 192 21 202 10 L 202 10 Z"/>
</svg>
