<svg xmlns="http://www.w3.org/2000/svg" viewBox="0 0 470 471">
    <path d="M 350 191 Q 369 171 385 142 L 385 142 Q 401 113 412 87 Q 416 76 420 66 Q 420 65 421 64 Q 470 124 456 210 Q 441 295 369 370 Q 302 435 226 453 Q 149 471 88 440 Q 94 426 102 409 Q 115 383 129 358 Q 144 334 158 319 Q 179 298 202 284 Q 224 271 248 260 L 249 259 Q 273 248 298 232 Q 324 217 350 191 L 350 191 Z M 50 409 Q 0 349 14 263 L 14 263 Q 28 177 100 101 Q 167 37 244 18 Q 321 0 382 32 Q 376 48 367 68 Q 356 95 343 119 Q 330 143 316 157 Q 295 178 272 192 Q 250 205 226 217 L 226 217 Q 201 228 176 244 Q 150 260 124 285 Q 105 305 88 333 Q 71 362 59 388 Q 54 399 50 409 L 50 409 Z"/>
</svg>
