<svg xmlns="http://www.w3.org/2000/svg" viewBox="0 0 512 256">
    <path d="M 48 0 Q 28 1 14 14 L 14 14 Q 1 28 0 48 L 0 208 Q 1 228 14 242 Q 28 255 48 256 L 464 256 Q 484 255 498 242 Q 511 228 512 208 L 512 48 Q 511 28 498 14 Q 484 1 464 0 L 48 0 L 48 0 Z M 96 208 L 48 208 L 48 160 Q 68 161 82 174 Q 95 188 96 208 L 96 208 Z M 48 96 L 48 48 L 96 48 Q 95 68 82 82 Q 68 95 48 96 L 48 96 Z M 416 208 Q 417 188 430 174 L 430 174 Q 444 161 464 160 L 464 208 L 416 208 L 416 208 Z M 464 96 Q 444 95 430 82 L 430 82 Q 417 68 416 48 L 464 48 L 464 96 L 464 96 Z M 256 64 Q 292 65 311 96 Q 329 128 311 160 Q 292 191 256 192 Q 220 191 201 160 Q 183 128 201 96 Q 220 65 256 64 L 256 64 Z"/>
</svg>
