<svg xmlns="http://www.w3.org/2000/svg" viewBox="0 0 288 288">
    <path d="M 144 0 Q 183 0 216 19 L 216 19 Q 249 38 269 72 Q 288 106 288 144 Q 288 182 269 216 Q 249 250 216 269 Q 183 288 144 288 Q 105 288 72 269 Q 39 250 19 216 Q 0 182 0 144 Q 0 106 19 72 Q 39 38 72 19 Q 105 0 144 0 L 144 0 Z M 224 144 Q 223 129 208 128 L 160 128 L 160 80 Q 159 65 144 64 Q 129 65 128 80 L 128 128 L 80 128 Q 65 129 64 144 Q 65 159 80 160 L 128 160 L 128 208 Q 129 223 144 224 Q 159 223 160 208 L 160 160 L 208 160 Q 223 159 224 144 L 224 144 Z"/>
</svg>
