<svg xmlns="http://www.w3.org/2000/svg" viewBox="0 0 512 414">
    <path d="M 283 8 Q 291 17 286 27 L 252 83 L 304 83 Q 316 84 319 95 Q 322 106 313 113 L 185 193 Q 174 198 165 190 Q 157 181 162 171 L 196 115 L 144 115 Q 132 114 129 103 Q 126 92 136 85 L 264 5 Q 274 0 283 8 L 283 8 Z M 0 323 Q 1 278 40 254 Q 80 232 120 254 Q 159 278 160 323 Q 159 368 120 392 Q 80 414 40 392 Q 1 368 0 323 L 0 323 Z M 352 323 Q 353 278 392 254 Q 432 232 472 254 Q 511 278 512 323 Q 511 368 472 392 Q 432 414 392 392 Q 353 368 352 323 L 352 323 Z"/>
</svg>
