<svg xmlns="http://www.w3.org/2000/svg" viewBox="0 0 448 448">
    <path d="M 0 40 Q 0 23 12 12 L 12 12 Q 23 0 40 0 L 88 0 Q 105 0 116 12 Q 128 23 128 40 L 128 88 Q 128 105 116 116 Q 105 128 88 128 L 40 128 Q 23 128 12 116 Q 0 105 0 88 L 0 40 L 0 40 Z M 0 360 Q 0 343 12 332 L 12 332 Q 23 320 40 320 L 88 320 Q 105 320 116 332 Q 128 343 128 360 L 128 408 Q 128 425 116 436 Q 105 448 88 448 L 40 448 Q 23 448 12 436 Q 0 425 0 408 L 0 360 L 0 360 Z M 288 200 L 288 248 Q 288 265 276 276 Q 265 288 248 288 L 200 288 Q 183 288 172 276 Q 160 265 160 248 L 160 200 Q 160 183 172 172 Q 183 160 200 160 L 248 160 Q 265 160 276 172 Q 288 183 288 200 L 288 200 Z M 320 40 Q 320 23 332 12 L 332 12 Q 343 0 360 0 L 408 0 Q 425 0 436 12 Q 448 23 448 40 L 448 88 Q 448 105 436 116 Q 425 128 408 128 L 360 128 Q 343 128 332 116 Q 320 105 320 88 L 320 40 L 320 40 Z M 448 360 L 448 408 Q 448 425 436 436 Q 425 448 408 448 L 360 448 Q 343 448 332 436 Q 320 425 320 408 L 320 360 Q 320 343 332 332 Q 343 320 360 320 L 408 320 Q 425 320 436 332 Q 448 343 448 360 L 448 360 Z"/>
</svg>
