<svg xmlns="http://www.w3.org/2000/svg" viewBox="0 0 448 384">
    <path d="M 0 64 L 0 336 Q 1 356 14 370 Q 28 383 48 384 Q 68 383 82 370 Q 95 356 96 336 L 96 0 L 64 0 Q 37 1 19 19 Q 1 37 0 64 L 0 64 Z M 384 0 Q 369 1 368 16 Q 369 31 384 32 L 432 32 Q 447 31 448 16 Q 447 1 432 0 L 384 0 L 384 0 Z M 384 96 Q 369 97 368 112 Q 369 127 384 128 L 432 128 Q 447 127 448 112 Q 447 97 432 96 L 384 96 L 384 96 Z M 176 192 Q 161 193 160 208 Q 161 223 176 224 L 432 224 Q 447 223 448 208 Q 447 193 432 192 L 176 192 L 176 192 Z M 176 288 Q 161 289 160 304 Q 161 319 176 320 L 432 320 Q 447 319 448 304 Q 447 289 432 288 L 176 288 L 176 288 Z"/>
</svg>
