<svg xmlns="http://www.w3.org/2000/svg" viewBox="0 0 448 448">
    <path d="M 29 192 Q 17 192 9 183 L 9 183 Q 0 175 0 163 Q 0 160 1 157 Q 2 144 21 107 Q 41 70 89 36 Q 136 2 224 0 Q 312 2 359 36 Q 407 70 427 107 Q 446 144 447 157 Q 448 160 448 163 Q 448 175 439 183 Q 431 192 419 192 L 29 192 L 29 192 Z M 112 96 Q 111 81 96 80 Q 81 81 80 96 Q 81 111 96 112 Q 111 111 112 96 L 112 96 Z M 352 112 Q 367 111 368 96 Q 367 81 352 80 Q 337 81 336 96 Q 337 111 352 112 L 352 112 Z M 240 64 Q 239 49 224 48 Q 209 49 208 64 Q 209 79 224 80 Q 239 79 240 64 L 240 64 Z M 16 352 L 432 352 Q 447 353 448 368 L 448 384 Q 447 411 429 429 Q 411 447 384 448 L 64 448 Q 37 447 19 429 Q 1 411 0 384 L 0 368 Q 1 353 16 352 L 16 352 Z"/>
</svg>
