<svg xmlns="http://www.w3.org/2000/svg" viewBox="0 0 640 384">
    <path d="M 64 32 Q 64 18 55 9 L 55 9 Q 46 0 32 0 Q 18 0 9 9 Q 0 18 0 32 L 0 160 Q 1 201 28 228 Q 55 255 96 256 L 288 256 L 288 320 L 160 320 Q 146 320 137 329 Q 128 338 128 352 Q 128 366 137 375 Q 146 384 160 384 L 320 384 L 480 384 Q 494 384 503 375 Q 512 366 512 352 Q 512 338 503 329 Q 494 320 480 320 L 352 320 L 352 256 L 544 256 Q 585 255 612 228 Q 639 201 640 160 L 640 32 Q 640 18 631 9 Q 622 0 608 0 Q 594 0 585 9 Q 576 18 576 32 L 576 160 Q 576 174 567 183 Q 558 192 544 192 L 352 192 L 352 32 Q 352 18 343 9 Q 334 0 320 0 Q 306 0 297 9 Q 288 18 288 32 L 288 192 L 96 192 Q 82 192 73 183 Q 64 174 64 160 L 64 32 L 64 32 Z M 160 32 Q 160 18 151 9 L 151 9 Q 142 0 128 0 Q 114 0 105 9 Q 96 18 96 32 L 96 128 L 96 160 L 160 160 L 160 128 L 160 32 L 160 32 Z M 256 32 Q 256 18 247 9 L 247 9 Q 238 0 224 0 Q 210 0 201 9 Q 192 18 192 32 L 192 128 L 192 160 L 256 160 L 256 128 L 256 32 L 256 32 Z M 448 32 Q 448 18 439 9 L 439 9 Q 430 0 416 0 Q 402 0 393 9 Q 384 18 384 32 L 384 128 L 384 160 L 448 160 L 448 128 L 448 32 L 448 32 Z M 544 32 Q 544 18 535 9 L 535 9 Q 526 0 512 0 Q 498 0 489 9 Q 480 18 480 32 L 480 128 L 480 160 L 544 160 L 544 128 L 544 32 L 544 32 Z"/>
</svg>
