<svg xmlns="http://www.w3.org/2000/svg" viewBox="0 0 352 512">
    <path d="M 48 0 Q 28 1 14 14 L 14 14 Q 1 28 0 48 L 0 464 Q 1 484 14 498 Q 28 511 48 512 L 144 512 L 304 512 Q 324 511 338 498 Q 351 484 352 464 L 352 240 Q 351 220 338 206 Q 324 193 304 192 L 280 192 L 280 120 Q 278 98 256 96 Q 234 98 232 120 L 232 192 L 192 192 L 192 48 Q 191 28 178 14 Q 164 1 144 0 L 48 0 L 48 0 Z M 80 64 L 112 64 Q 127 65 128 80 L 128 112 Q 127 127 112 128 L 80 128 Q 65 127 64 112 L 64 80 Q 65 65 80 64 L 80 64 Z M 64 176 Q 65 161 80 160 L 112 160 Q 127 161 128 176 L 128 208 Q 127 223 112 224 L 80 224 Q 65 223 64 208 L 64 176 L 64 176 Z M 80 256 L 112 256 Q 127 257 128 272 L 128 304 Q 127 319 112 320 L 80 320 Q 65 319 64 304 L 64 272 Q 65 257 80 256 L 80 256 Z M 224 272 Q 225 257 240 256 L 272 256 Q 287 257 288 272 L 288 304 Q 287 319 272 320 L 240 320 Q 225 319 224 304 L 224 272 L 224 272 Z M 240 352 L 272 352 Q 287 353 288 368 L 288 400 Q 287 415 272 416 L 240 416 Q 225 415 224 400 L 224 368 Q 225 353 240 352 L 240 352 Z"/>
</svg>
