<svg xmlns="http://www.w3.org/2000/svg" viewBox="0 0 448 512">
    <path d="M 88 0 Q 66 2 64 24 L 64 255 Q 66 265 77 264 Q 87 262 98 261 L 142 256 Q 157 256 160 270 Q 160 285 146 288 L 101 292 Q 58 298 30 328 Q 2 358 0 402 Q 2 449 33 480 Q 65 511 112 512 L 124 512 Q 112 497 112 476 Q 113 451 130 434 Q 147 417 172 416 L 177 416 Q 208 417 227 440 L 243 460 Q 284 509 349 512 Q 391 510 419 481 Q 447 452 448 410 Q 447 366 418 335 Q 393 310 352 263 Q 312 216 267 152 Q 221 88 181 13 Q 174 1 160 0 L 88 0 L 88 0 Z"/>
</svg>
