<svg xmlns="http://www.w3.org/2000/svg" viewBox="0 0 320 192">
    <path d="M 34 0 L 29 15 Q 2 31 0 64 L 0 160 Q 0 174 9 183 Q 18 192 32 192 Q 46 192 55 183 Q 64 174 64 160 L 64 144 L 256 144 L 256 160 Q 256 174 265 183 Q 274 192 288 192 Q 302 192 311 183 Q 320 174 320 160 L 320 64 Q 318 31 291 15 L 286 0 L 235 0 L 238 8 L 82 8 L 85 0 L 34 0 L 34 0 Z M 80 56 Q 102 58 104 80 Q 102 102 80 104 Q 58 102 56 80 Q 58 58 80 56 L 80 56 Z M 216 80 Q 218 58 240 56 Q 262 58 264 80 Q 262 102 240 104 Q 218 102 216 80 L 216 80 Z"/>
</svg>
