<svg xmlns="http://www.w3.org/2000/svg" viewBox="0 0 512 512">
    <path d="M 215 170 Q 234 160 256 160 Q 278 160 297 170 Q 297 170 297 170 L 413 54 Q 346 2 256 0 Q 166 2 99 54 L 215 170 Q 215 170 215 170 L 215 170 Z M 170 297 Q 160 278 160 256 Q 160 234 170 215 Q 170 215 170 215 L 54 99 Q 2 166 0 256 Q 2 346 54 413 L 170 297 Q 170 297 170 297 L 170 297 Z M 458 99 L 343 215 Q 343 215 343 215 Q 352 234 352 256 Q 352 278 343 297 Q 343 297 343 297 L 458 413 Q 510 346 512 256 Q 510 166 458 99 L 458 99 Z M 297 343 Q 278 352 256 352 Q 234 352 215 343 Q 215 343 215 343 L 99 458 Q 166 510 256 512 Q 346 510 413 458 L 297 343 Q 297 343 297 343 L 297 343 Z"/>
</svg>
