<svg xmlns="http://www.w3.org/2000/svg" viewBox="0 0 325 259">
    <path d="M 115 24 Q 117 2 139 0 Q 161 2 163 24 Q 161 46 139 48 Q 117 46 115 24 L 115 24 Z M 156 99 L 176 148 L 229 179 L 245 152 Q 250 144 259 144 Q 268 144 273 152 L 321 232 Q 325 240 321 248 Q 316 256 307 256 L 211 256 Q 202 256 197 248 Q 193 240 197 232 L 213 206 L 59 118 Q 53 114 51 108 Q 50 101 54 95 L 58 89 Q 75 65 104 64 Q 141 66 156 99 L 156 99 Z M 59 154 L 124 194 Q 131 199 131 208 L 131 240 Q 130 255 115 256 Q 100 255 99 240 L 99 217 L 58 191 L 34 247 Q 26 259 13 255 Q 0 248 4 234 L 36 162 L 44 145 L 60 155 L 59 154 Z"/>
</svg>
