<svg xmlns="http://www.w3.org/2000/svg" viewBox="0 0 512 512">
    <path d="M 299 259 L 327 230 L 339 242 Q 369 270 407 270 Q 446 270 475 242 L 487 231 Q 496 220 487 208 L 475 197 Q 449 171 416 163 Q 382 155 349 165 Q 359 131 350 98 Q 342 65 317 39 L 306 27 Q 294 18 283 27 L 272 39 Q 243 68 243 107 Q 243 145 272 174 L 282 185 L 251 215 Q 246 173 215 140 L 204 129 Q 192 120 181 129 L 170 140 Q 165 145 161 151 L 299 259 L 299 259 Z M 230 328 L 179 288 L 150 317 Q 145 275 113 242 L 102 231 Q 91 222 79 231 L 68 242 Q 40 272 40 310 Q 40 349 68 378 L 78 389 L 9 457 Q 0 467 0 480 Q 0 493 9 503 Q 19 512 32 512 Q 45 512 55 503 L 124 434 L 136 446 Q 165 474 204 474 Q 242 474 272 446 L 283 435 Q 292 423 283 412 L 272 401 Q 238 368 194 364 L 230 328 L 230 328 Z M 472 0 Q 435 1 410 26 L 410 26 Q 385 51 384 88 L 384 112 Q 385 127 400 128 L 424 128 Q 461 127 486 102 Q 511 77 512 40 L 512 16 Q 511 1 496 0 L 472 0 L 472 0 Z"/>
</svg>
