<svg xmlns="http://www.w3.org/2000/svg" viewBox="0 0 560 448">
    <path d="M 434 0 Q 447 1 448 15 L 448 46 Q 447 77 424 96 Q 434 103 443 111 Q 470 86 472 48 L 512 48 Q 527 49 528 64 L 528 80 Q 527 105 512 123 Q 496 140 472 144 L 479 153 Q 496 176 522 189 L 528 192 L 536 192 Q 558 194 560 216 L 560 312 Q 558 334 536 336 L 493 336 Q 459 368 413 379 L 400 425 Q 392 447 369 448 L 336 448 Q 322 448 313 439 Q 304 430 304 416 L 304 384 L 240 384 L 192 384 L 192 416 Q 192 430 183 439 Q 174 448 160 448 L 127 448 Q 104 447 96 425 L 75 350 Q 41 332 21 298 Q 0 265 0 224 L 0 208 Q 2 140 47 95 Q 92 50 160 48 L 282 48 Q 304 48 325 52 Q 338 21 372 13 L 431 0 Q 431 0 432 0 Q 433 0 434 0 L 434 0 Z M 396 224 Q 414 222 416 204 Q 414 186 396 184 Q 378 186 376 204 Q 378 222 396 224 L 396 224 Z"/>
</svg>
