<svg xmlns="http://www.w3.org/2000/svg" viewBox="0 0 640 448">
    <path d="M 64 320 Q 65 248 99 191 L 99 191 Q 133 133 191 99 L 191 99 Q 248 65 320 64 Q 392 65 449 99 Q 507 133 541 191 Q 575 248 576 320 L 576 416 Q 576 430 585 439 Q 594 448 608 448 Q 622 448 631 439 Q 640 430 640 416 L 640 320 Q 639 231 596 159 Q 554 86 481 44 Q 409 1 320 0 Q 231 1 159 44 Q 86 86 44 159 Q 1 231 0 320 L 0 416 Q 0 430 9 439 Q 18 448 32 448 Q 46 448 55 439 Q 64 430 64 416 L 64 320 L 64 320 Z M 256 320 Q 257 293 275 275 L 275 275 Q 293 257 320 256 Q 347 257 365 275 Q 383 293 384 320 L 384 416 Q 384 430 393 439 Q 402 448 416 448 Q 430 448 439 439 Q 448 430 448 416 L 448 320 Q 447 266 411 229 Q 374 193 320 192 Q 266 193 229 229 Q 193 266 192 320 L 192 416 Q 192 430 201 439 Q 210 448 224 448 Q 238 448 247 439 Q 256 430 256 416 L 256 320 L 256 320 Z"/>
</svg>
