<svg xmlns="http://www.w3.org/2000/svg" viewBox="0 0 448 512">
    <path d="M 352 0 Q 338 0 329 9 L 329 9 Q 320 18 320 32 L 320 75 Q 320 85 323 95 L 356 194 L 61 243 Q 64 249 64 256 Q 64 270 55 279 Q 46 288 32 288 L 0 288 L 0 480 Q 0 494 9 503 Q 18 512 32 512 Q 46 512 55 503 Q 64 494 64 480 L 64 384 L 384 384 L 384 480 Q 384 494 393 503 Q 402 512 416 512 Q 430 512 439 503 Q 448 494 448 480 L 448 224 L 448 216 L 448 178 L 448 32 Q 448 18 439 9 Q 430 0 416 0 L 352 0 L 352 0 Z M 64 312 Q 66 290 88 288 Q 110 290 112 312 Q 110 334 88 336 Q 66 334 64 312 L 64 312 Z"/>
</svg>
