<svg xmlns="http://www.w3.org/2000/svg" viewBox="0 0 330 176">
    <path d="M 101 32 Q 94 32 88 33 Q 56 38 32 60 Q 20 69 9 59 Q 0 47 10 36 Q 41 7 84 1 Q 92 0 101 0 Q 116 1 117 16 Q 116 31 101 32 L 101 32 Z M 85 112 Q 99 112 108 121 L 108 121 Q 117 130 117 144 Q 117 158 108 167 Q 99 176 85 176 Q 72 176 63 167 Q 54 158 53 144 Q 54 130 63 121 Q 72 112 85 112 L 85 112 Z M 245 112 Q 259 112 268 121 L 268 121 Q 277 130 277 144 Q 277 158 268 167 Q 259 176 245 176 Q 232 176 223 167 Q 214 158 213 144 Q 214 130 223 121 Q 232 112 245 112 L 245 112 Z M 242 33 Q 236 32 229 32 Q 214 31 213 16 Q 214 1 229 0 Q 238 0 246 1 Q 289 7 320 36 Q 330 47 321 59 Q 310 69 298 60 Q 274 38 242 33 L 242 33 Z"/>
</svg>
