<svg xmlns="http://www.w3.org/2000/svg" viewBox="0 0 448 448">
    <path d="M 0 0 L 448 0 L 448 288 L 0 288 L 0 0 L 0 0 Z M 283 384 L 352 384 Q 366 384 375 393 Q 384 402 384 416 Q 384 430 375 439 Q 366 448 352 448 L 96 448 Q 82 448 73 439 Q 64 430 64 416 Q 64 402 73 393 Q 82 384 96 384 L 165 384 L 176 352 L 272 352 L 283 384 L 283 384 Z M 280 48 Q 258 50 256 72 Q 258 94 280 96 L 318 96 L 240 174 L 177 111 Q 160 97 143 111 L 55 199 Q 41 216 55 233 Q 72 247 89 233 L 160 162 L 223 225 Q 230 232 240 232 Q 250 232 257 225 L 352 130 L 352 168 Q 354 190 376 192 Q 398 190 400 168 L 400 72 Q 398 50 376 48 L 280 48 L 280 48 Z"/>
</svg>
