<svg xmlns="http://www.w3.org/2000/svg" viewBox="0 0 544 512">
    <path d="M 224 144 Q 223 99 184 75 Q 144 53 104 75 Q 65 99 64 144 Q 65 189 104 213 Q 144 235 184 213 Q 223 189 224 144 L 224 144 Z M 284 176 Q 273 225 234 256 L 234 256 Q 196 287 144 288 Q 83 286 42 246 Q 2 205 0 144 Q 2 83 42 42 Q 83 2 144 0 Q 196 1 234 32 Q 273 63 284 112 L 356 112 Q 370 97 392 96 L 496 96 Q 516 97 530 110 Q 543 124 544 144 Q 543 164 530 178 Q 516 191 496 192 L 392 192 Q 370 191 356 176 L 284 176 L 284 176 Z M 48 320 L 128 320 L 144 320 L 176 320 Q 196 321 210 334 Q 223 348 224 368 Q 223 388 210 402 Q 196 415 176 416 L 160 416 Q 160 430 151 439 Q 142 448 128 448 L 64 448 Q 50 448 41 439 Q 32 430 32 416 L 32 336 Q 33 321 48 320 L 48 320 Z M 176 384 Q 191 383 192 368 Q 191 353 176 352 L 160 352 L 160 384 L 176 384 L 176 384 Z M 512 320 L 512 464 Q 511 484 498 498 Q 484 511 464 512 L 336 512 Q 316 511 302 498 Q 289 484 288 464 L 288 320 L 512 320 L 512 320 Z"/>
</svg>
