<svg xmlns="http://www.w3.org/2000/svg" viewBox="0 0 576 320">
    <path d="M 576 0 L 0 0 L 0 320 L 576 320 L 576 0 L 576 0 Z M 144 56 L 144 264 Q 142 286 120 288 Q 98 286 96 264 L 96 56 Q 98 34 120 32 Q 142 34 144 56 L 144 56 Z M 256 56 L 256 264 Q 254 286 232 288 Q 210 286 208 264 L 208 56 Q 210 34 232 32 Q 254 34 256 56 L 256 56 Z M 368 56 L 368 264 Q 366 286 344 288 Q 322 286 320 264 L 320 56 Q 322 34 344 32 Q 366 34 368 56 L 368 56 Z M 480 56 L 480 264 Q 478 286 456 288 Q 434 286 432 264 L 432 56 Q 434 34 456 32 Q 478 34 480 56 L 480 56 Z"/>
</svg>
