<svg xmlns="http://www.w3.org/2000/svg" viewBox="0 0 448 448">
    <path d="M 80 64 Q 81 37 99 19 L 99 19 Q 117 1 144 0 L 304 0 Q 331 1 349 19 Q 367 37 368 64 L 368 192 Q 367 219 349 237 Q 331 255 304 256 L 144 256 Q 117 255 99 237 Q 81 219 80 192 L 80 64 L 80 64 Z M 192 96 Q 192 82 183 73 L 183 73 Q 174 64 160 64 Q 146 64 137 73 Q 128 82 128 96 Q 128 110 137 119 Q 146 128 160 128 Q 174 128 183 119 Q 192 110 192 96 L 192 96 Z M 288 128 Q 302 128 311 119 L 311 119 Q 320 110 320 96 Q 320 82 311 73 Q 302 64 288 64 Q 274 64 265 73 Q 256 82 256 96 Q 256 110 265 119 Q 274 128 288 128 L 288 128 Z M 144 192 Q 145 207 160 208 Q 175 207 176 192 Q 175 177 160 176 Q 145 177 144 192 L 144 192 Z M 224 176 Q 209 177 208 192 Q 209 207 224 208 Q 239 207 240 192 Q 239 177 224 176 L 224 176 Z M 272 192 Q 273 207 288 208 Q 303 207 304 192 Q 303 177 288 176 Q 273 177 272 192 L 272 192 Z M 0 384 Q 1 343 28 316 L 28 316 Q 55 289 96 288 L 352 288 Q 393 289 420 316 Q 447 343 448 384 L 448 416 Q 448 430 439 439 Q 430 448 416 448 L 352 448 L 352 384 Q 352 370 343 361 Q 334 352 320 352 L 128 352 Q 114 352 105 361 Q 96 370 96 384 L 96 448 L 32 448 Q 18 448 9 439 Q 0 430 0 416 L 0 384 L 0 384 Z"/>
</svg>
