<svg xmlns="http://www.w3.org/2000/svg" viewBox="0 0 292 521">
    <path d="M 82 73 Q 83 37 114 18 Q 146 0 178 18 Q 209 37 210 73 Q 209 109 178 128 Q 146 146 114 128 Q 83 109 82 73 L 82 73 Z M 138 361 L 138 489 Q 138 503 129 512 Q 120 521 106 521 Q 92 521 83 512 Q 74 503 74 489 L 74 310 L 61 330 Q 54 341 41 344 Q 29 347 17 340 Q 6 332 3 320 Q 0 308 7 296 L 59 214 Q 88 170 140 169 L 152 169 Q 204 170 233 214 L 285 296 Q 292 308 289 320 Q 286 333 275 340 Q 263 347 251 344 Q 239 341 231 330 L 218 310 L 218 489 Q 218 503 209 512 Q 200 521 186 521 Q 172 521 163 512 Q 154 503 154 489 L 154 361 L 138 361 L 138 361 Z"/>
</svg>
