<svg xmlns="http://www.w3.org/2000/svg" viewBox="0 0 576 210">
    <path d="M 288 82 Q 343 81 375 68 L 375 68 Q 406 55 419 43 L 419 43 Q 432 30 432 29 L 432 29 Q 432 29 432 29 Q 432 15 429 0 Q 496 15 535 41 Q 575 66 576 98 Q 575 129 537 155 Q 498 180 433 195 Q 368 210 288 210 Q 208 210 143 195 Q 78 180 39 155 Q 1 129 0 98 Q 1 66 41 41 Q 80 15 147 0 Q 144 15 144 29 Q 144 30 157 42 Q 170 55 201 68 Q 233 81 288 82 L 288 82 Z M 120 98 Q 118 76 96 74 Q 74 76 72 98 Q 74 120 96 122 Q 118 120 120 98 L 120 98 Z M 480 122 Q 502 120 504 98 Q 502 76 480 74 Q 458 76 456 98 Q 458 120 480 122 L 480 122 Z M 312 146 Q 310 124 288 122 Q 266 124 264 146 Q 266 168 288 170 Q 310 168 312 146 L 312 146 Z"/>
</svg>
