<svg xmlns="http://www.w3.org/2000/svg" viewBox="0 0 640 176">
    <path d="M 128 32 Q 128 18 137 9 L 137 9 Q 146 0 160 0 Q 174 0 183 9 Q 192 18 192 32 Q 192 46 183 55 Q 174 64 160 64 Q 146 64 137 55 Q 128 46 128 32 L 128 32 Z M 0 144 Q 0 130 9 121 L 9 121 Q 18 112 32 112 L 608 112 Q 622 112 631 121 Q 640 130 640 144 Q 640 158 631 167 Q 622 176 608 176 L 32 176 Q 18 176 9 167 Q 0 158 0 144 L 0 144 Z M 256 16 Q 270 16 279 25 L 279 25 Q 288 34 288 48 Q 288 62 279 71 Q 270 80 256 80 Q 242 80 233 71 Q 224 62 224 48 Q 224 34 233 25 Q 242 16 256 16 L 256 16 Z"/>
</svg>
