<svg xmlns="http://www.w3.org/2000/svg" viewBox="0 0 320 224">
    <path d="M 48 208 Q 28 207 14 194 L 14 194 Q 1 180 0 160 L 0 64 L 0 0 L 32 0 L 32 64 Q 33 79 48 80 L 80 80 Q 95 81 96 96 Q 95 111 80 112 L 48 112 Q 40 112 32 109 L 32 160 Q 33 175 48 176 L 144 176 Q 159 177 160 192 Q 159 207 144 208 L 48 208 L 48 208 Z M 144 64 L 304 64 Q 319 65 320 80 L 320 112 Q 319 127 304 128 L 144 128 Q 129 127 128 112 L 128 80 Q 129 65 144 64 L 144 64 Z M 208 160 L 304 160 Q 319 161 320 176 L 320 208 Q 319 223 304 224 L 208 224 Q 193 223 192 208 L 192 176 Q 193 161 208 160 L 208 160 Z"/>
</svg>
