<svg xmlns="http://www.w3.org/2000/svg" viewBox="0 0 640 433">
    <path d="M 7 187 Q 15 168 51 123 L 51 123 Q 86 79 152 41 L 152 41 Q 219 3 320 0 Q 421 3 488 41 Q 554 79 589 123 Q 625 168 633 187 Q 640 201 640 215 L 640 331 Q 638 372 602 390 L 506 433 L 526 288 L 528 288 Q 550 286 552 264 Q 550 242 528 240 L 480 240 L 480 224 L 480 160 Q 480 146 471 137 Q 462 128 448 128 L 192 128 Q 178 128 169 137 Q 160 146 160 160 L 160 224 L 160 240 L 112 240 Q 90 242 88 264 Q 90 286 112 288 L 114 288 L 135 433 L 38 390 Q 2 372 0 331 L 0 215 Q 0 201 7 187 L 7 187 Z M 192 240 L 192 224 L 192 160 L 448 160 L 448 224 L 448 240 L 192 240 L 192 240 Z"/>
</svg>
