<svg xmlns="http://www.w3.org/2000/svg" viewBox="0 0 384 512">
    <path d="M 0 64 Q 1 37 19 19 L 19 19 Q 37 1 64 0 L 224 0 L 224 128 Q 224 142 233 151 Q 242 160 256 160 L 384 160 L 384 448 Q 383 475 365 493 Q 347 511 320 512 L 64 512 Q 37 511 19 493 Q 1 475 0 448 L 0 64 L 0 64 Z M 96 48 Q 97 63 112 64 L 144 64 Q 159 63 160 48 Q 159 33 144 32 L 112 32 Q 97 33 96 48 L 96 48 Z M 96 112 Q 97 127 112 128 L 144 128 Q 159 127 160 112 Q 159 97 144 96 L 112 96 Q 97 97 96 112 L 96 112 Z M 96 176 Q 97 191 112 192 L 144 192 Q 159 191 160 176 Q 159 161 144 160 L 112 160 Q 97 161 96 176 L 96 176 Z M 66 336 Q 64 344 64 352 Q 65 379 83 397 Q 101 415 128 416 Q 155 415 173 397 Q 191 379 192 352 Q 192 344 190 336 L 166 248 Q 159 225 136 224 L 121 224 Q 97 225 90 248 L 66 336 L 66 336 Z"/>
</svg>
