<svg xmlns="http://www.w3.org/2000/svg" viewBox="0 0 512 320">
    <path d="M 64 0 Q 37 1 19 19 L 19 19 Q 1 37 0 64 L 0 256 Q 1 283 19 301 Q 37 319 64 320 L 448 320 Q 475 319 493 301 Q 511 283 512 256 L 512 64 Q 511 37 493 19 Q 475 1 448 0 L 64 0 L 64 0 Z M 80 80 L 140 80 Q 158 81 167 94 Q 176 108 169 125 L 126 226 Q 116 245 95 238 Q 75 228 82 207 L 116 128 L 80 128 Q 58 126 56 104 Q 58 82 80 80 L 80 80 Z M 200 104 Q 202 82 224 80 L 284 80 Q 302 81 311 94 Q 320 108 313 125 L 270 226 Q 260 245 239 238 Q 219 228 226 207 L 260 128 L 224 128 Q 202 126 200 104 L 200 104 Z M 368 80 L 428 80 Q 446 81 455 94 Q 464 108 457 125 L 414 226 Q 404 245 383 238 Q 363 228 370 207 L 404 128 L 368 128 Q 346 126 344 104 Q 346 82 368 80 L 368 80 Z"/>
</svg>
