<svg xmlns="http://www.w3.org/2000/svg" viewBox="0 0 580 264">
    <path d="M 134 9 Q 114 0 101 18 L 53 98 Q 44 118 62 131 Q 81 140 95 122 L 143 42 Q 152 22 134 9 L 134 9 Z M 470 9 Q 450 0 437 18 L 389 98 Q 380 118 398 131 Q 417 140 431 122 L 479 42 Q 488 22 470 9 L 470 9 Z M 255 42 Q 264 22 246 9 Q 227 0 214 18 L 166 98 Q 156 118 174 131 Q 194 140 207 122 L 255 42 L 255 42 Z M 358 9 Q 339 0 326 18 L 278 98 Q 268 118 286 131 Q 306 140 319 122 L 367 42 Q 376 22 358 9 L 358 9 Z M 309 172 Q 290 160 272 172 Q 237 197 194 198 Q 152 196 117 172 L 117 172 Q 96 159 77 174 Q 55 192 27 199 Q 14 202 7 213 Q 0 224 3 237 Q 6 250 17 257 Q 28 264 41 261 Q 79 251 100 236 Q 144 261 194 262 Q 243 259 274 243 Q 283 239 290 235 Q 297 239 306 243 Q 337 259 386 262 Q 436 261 481 236 Q 501 251 539 261 Q 552 264 563 257 Q 574 250 577 237 Q 580 224 573 213 Q 566 202 553 199 Q 525 192 503 174 Q 484 160 463 172 L 463 172 Q 428 196 386 198 Q 344 197 309 172 L 309 172 Z"/>
</svg>
