<svg xmlns="http://www.w3.org/2000/svg" viewBox="0 0 512 512">
    <path d="M 512 203 Q 509 174 486 157 L 448 129 L 448 208 L 448 250 L 512 203 L 512 203 Z M 512 448 L 512 242 L 294 403 Q 277 416 256 416 Q 235 416 218 403 L 0 242 L 0 448 L 0 448 Q 1 475 19 493 Q 37 511 64 512 L 448 512 Q 475 511 493 493 Q 511 475 512 448 L 512 448 L 512 448 Z M 64 250 L 64 208 L 64 129 L 26 157 Q 3 174 0 203 L 64 250 L 64 250 Z M 290 11 Q 275 0 256 0 Q 237 0 223 11 L 194 32 L 318 32 L 290 11 L 290 11 Z M 176 128 Q 161 129 160 144 Q 161 159 176 160 L 336 160 Q 351 159 352 144 Q 351 129 336 128 L 176 128 L 176 128 Z M 176 192 Q 161 193 160 208 Q 161 223 176 224 L 336 224 Q 351 223 352 208 Q 351 193 336 192 L 176 192 L 176 192 Z"/>
</svg>
