<svg xmlns="http://www.w3.org/2000/svg" viewBox="0 0 522 440">
    <path d="M 317 64 Q 316 32 289 16 Q 261 0 233 16 Q 206 32 205 64 Q 206 96 233 112 Q 261 128 289 112 Q 316 96 317 64 L 317 64 Z M 169 128 Q 145 130 139 152 Q 133 173 117 186 Q 100 200 77 200 Q 61 200 47 193 Q 34 186 20 194 Q 0 208 9 230 L 117 440 L 133 440 L 171 440 L 351 440 L 389 440 L 405 440 L 513 230 Q 522 208 503 194 Q 488 186 475 193 Q 461 200 445 200 Q 422 200 405 186 Q 389 173 383 152 Q 377 130 353 128 Q 333 129 325 145 Q 305 182 261 184 Q 217 182 197 145 Q 189 129 169 128 L 169 128 Z M 261 232 L 261 232 L 261 232 Q 261 232 261 232 Q 261 232 261 232 L 261 232 Z"/>
</svg>
