<svg xmlns="http://www.w3.org/2000/svg" viewBox="0 0 513 513">
    <path d="M 134 249 L 279 364 L 232 412 Q 158 485 56 506 L 31 511 Q 18 513 9 504 Q 0 495 2 482 L 7 457 Q 28 355 102 282 L 134 249 L 134 249 Z M 202 181 L 256 127 L 243 114 Q 226 100 209 114 L 169 154 L 131 125 L 175 80 Q 197 59 226 59 Q 255 59 277 80 L 290 93 L 307 110 L 403 206 L 419 222 L 420 223 L 403 240 L 348 295 L 202 181 L 202 181 Z M 365 18 Q 384 0 410 0 L 410 0 Q 435 0 455 18 L 495 58 Q 513 77 513 103 Q 513 128 495 148 L 443 200 L 443 200 L 442 199 L 442 199 L 426 183 L 330 87 L 313 70 L 365 18 L 365 18 Z"/>
</svg>
