<svg xmlns="http://www.w3.org/2000/svg" viewBox="0 0 574 320">
    <path d="M 63 64 Q 64 37 82 19 L 82 19 Q 100 1 127 0 L 447 0 Q 474 1 492 19 Q 510 37 511 64 L 511 214 L 564 294 Q 572 306 574 320 L 0 320 Q 2 306 10 294 L 63 214 L 63 64 L 63 64 Z M 287 224 Q 323 223 342 192 Q 360 160 342 128 Q 323 97 287 96 Q 251 97 232 128 Q 214 160 232 192 Q 251 223 287 224 L 287 224 Z M 447 96 Q 447 82 438 73 L 438 73 Q 429 64 415 64 Q 401 64 392 73 Q 383 82 383 96 Q 383 110 392 119 Q 401 128 415 128 Q 429 128 438 119 Q 447 110 447 96 L 447 96 Z"/>
</svg>
