<svg xmlns="http://www.w3.org/2000/svg" viewBox="0 0 512 512">
    <path d="M 176 288 Q 206 288 232 273 L 232 273 Q 258 258 273 232 Q 288 206 288 176 Q 288 146 273 120 Q 258 94 232 79 Q 206 64 176 64 Q 146 64 120 79 Q 94 94 79 120 Q 64 146 64 176 Q 64 206 79 232 Q 94 258 120 273 Q 146 288 176 288 L 176 288 Z M 352 176 Q 351 242 311 289 L 311 289 Q 271 337 208 349 L 208 384 L 240 384 Q 254 384 263 393 Q 272 402 272 416 Q 272 430 263 439 Q 254 448 240 448 L 208 448 L 208 480 Q 208 494 199 503 Q 190 512 176 512 Q 162 512 153 503 Q 144 494 144 480 L 144 448 L 112 448 Q 98 448 89 439 Q 80 430 80 416 Q 80 402 89 393 Q 98 384 112 384 L 144 384 L 144 349 Q 81 337 41 289 Q 1 242 0 176 Q 2 101 52 52 Q 101 2 176 0 Q 251 2 300 52 Q 350 101 352 176 L 352 176 Z M 384 176 Q 384 146 376 119 Q 399 97 432 96 Q 466 97 489 119 Q 511 142 512 176 Q 511 210 489 233 Q 466 255 432 256 Q 399 255 376 233 Q 384 206 384 176 L 384 176 Z"/>
</svg>
