<svg xmlns="http://www.w3.org/2000/svg" viewBox="0 0 450 258">
    <path d="M 144 20 Q 135 1 114 0 Q 93 1 85 20 L 18 180 L 5 212 Q 0 224 4 236 Q 9 248 22 254 Q 34 258 46 254 Q 58 249 64 236 L 69 224 L 159 224 L 165 236 Q 170 249 182 254 Q 194 258 206 254 Q 219 248 224 236 Q 228 224 224 212 L 210 180 L 144 20 L 144 20 Z M 114 115 L 133 160 L 95 160 L 114 115 L 114 115 Z M 290 0 Q 276 0 267 9 L 267 9 Q 258 18 258 32 L 258 128 L 258 224 Q 258 238 267 247 Q 276 256 290 256 L 370 256 Q 404 255 427 233 Q 449 210 450 176 Q 449 140 425 118 Q 434 101 434 80 Q 433 46 411 23 Q 388 1 354 0 L 290 0 L 290 0 Z M 370 80 Q 369 95 354 96 L 322 96 L 322 64 L 354 64 Q 369 65 370 80 L 370 80 Z M 322 192 L 322 160 L 354 160 L 370 160 Q 385 161 386 176 Q 385 191 370 192 L 322 192 L 322 192 Z"/>
</svg>
