<svg xmlns="http://www.w3.org/2000/svg" viewBox="0 0 352 512">
    <path d="M 160 160 L 0 0 L 0 128 Q 0 142 9 151 Q 18 160 32 160 L 160 160 L 160 160 Z M 240 240 Q 254 240 263 249 L 263 249 Q 272 258 272 272 L 272 320 L 208 320 L 208 272 Q 208 258 217 249 Q 226 240 240 240 L 240 240 Z M 160 272 L 160 320 Q 146 320 137 329 Q 128 338 128 352 L 128 480 Q 128 494 137 503 Q 146 512 160 512 L 320 512 Q 334 512 343 503 Q 352 494 352 480 L 352 352 Q 352 338 343 329 Q 334 320 320 320 L 320 272 Q 319 238 297 215 Q 274 193 240 192 Q 206 193 183 215 Q 161 238 160 272 L 160 272 Z"/>
</svg>
