<svg xmlns="http://www.w3.org/2000/svg" viewBox="0 0 448 288">
    <path d="M 224 288 Q 319 286 382 246 L 382 246 Q 446 205 448 144 Q 446 83 382 42 Q 319 2 224 0 Q 129 2 66 42 Q 2 83 0 144 Q 2 205 66 246 Q 129 286 224 288 L 224 288 Z M 240 48 L 240 72 Q 239 87 224 88 Q 209 87 208 72 L 208 48 Q 209 33 224 32 Q 239 33 240 48 L 240 48 Z M 80 128 L 112 128 Q 127 129 128 144 Q 127 159 112 160 L 80 160 Q 65 159 64 144 Q 65 129 80 128 L 80 128 Z M 336 128 L 368 128 Q 383 129 384 144 Q 383 159 368 160 L 336 160 Q 321 159 320 144 Q 321 129 336 128 L 336 128 Z M 240 216 L 240 240 Q 239 255 224 256 Q 209 255 208 240 L 208 216 Q 209 201 224 200 Q 239 201 240 216 L 240 216 Z M 117 61 Q 128 51 139 61 L 155 77 Q 165 88 155 99 Q 144 109 133 99 L 117 83 Q 107 72 117 61 L 117 61 Z M 309 61 Q 320 51 331 61 Q 341 72 331 83 L 315 99 Q 304 109 293 99 Q 283 88 293 77 L 309 61 L 309 61 Z M 155 189 Q 165 200 155 211 L 139 227 Q 128 237 117 227 Q 107 216 117 205 L 133 189 Q 144 179 155 189 L 155 189 Z M 293 189 Q 304 179 315 189 L 331 205 Q 341 216 331 227 Q 320 237 309 227 L 293 211 Q 283 200 293 189 L 293 189 Z M 224 168 Q 200 168 184 161 L 184 161 Q 169 154 168 144 Q 169 134 184 127 Q 200 120 224 120 Q 248 120 264 127 Q 279 134 280 144 Q 279 154 264 161 Q 248 168 224 168 L 224 168 Z"/>
</svg>
