<svg xmlns="http://www.w3.org/2000/svg" viewBox="0 0 487 487">
    <path d="M 0 39 Q 0 25 9 16 L 9 16 Q 18 7 32 7 Q 46 7 55 16 Q 64 25 64 39 Q 64 53 55 62 Q 46 71 32 71 Q 18 71 9 62 Q 0 53 0 39 L 0 39 Z M 416 167 Q 416 153 425 144 L 425 144 Q 434 135 448 135 Q 462 135 471 144 Q 480 153 480 167 Q 480 181 471 190 Q 462 199 448 199 Q 434 199 425 190 Q 416 181 416 167 L 416 167 Z M 448 423 Q 462 423 471 432 L 471 432 Q 480 441 480 455 Q 480 469 471 478 Q 462 487 448 487 Q 434 487 425 478 Q 416 469 416 455 Q 416 441 425 432 Q 434 423 448 423 L 448 423 Z M 135 160 Q 121 143 135 126 L 143 118 Q 169 92 173 56 L 176 28 Q 181 7 203 7 Q 224 12 224 34 L 221 61 Q 215 114 177 152 L 169 160 Q 152 174 135 160 L 135 160 Z M 327 318 L 335 310 Q 373 272 426 266 L 453 263 Q 475 263 480 284 Q 480 306 459 311 L 431 314 Q 395 318 369 344 L 361 352 Q 344 366 327 352 Q 313 335 327 318 L 327 318 Z M 474 16 Q 487 34 472 49 L 462 58 Q 438 77 409 76 Q 396 76 387 85 Q 378 93 377 105 L 375 135 Q 372 168 350 189 Q 327 210 294 210 Q 283 209 274 217 L 264 225 Q 245 238 230 223 Q 217 204 233 189 L 243 180 Q 266 161 296 162 Q 308 162 317 154 Q 326 145 327 133 L 329 103 Q 332 70 354 49 Q 377 28 410 28 Q 422 29 431 21 L 441 13 Q 459 0 474 15 L 474 16 Z M 51 260 L 228 436 L 195 448 L 39 292 L 51 260 L 51 260 Z M 16 353 L 134 471 L 102 483 L 4 386 L 16 353 L 16 353 Z"/>
</svg>
