<svg xmlns="http://www.w3.org/2000/svg" viewBox="0 0 576 320">
    <path d="M 89 95 Q 65 122 64 160 Q 65 201 92 228 Q 119 255 160 256 L 224 256 Q 238 256 247 265 Q 256 274 256 288 Q 256 302 247 311 Q 238 320 224 320 L 160 320 Q 92 318 47 273 Q 2 228 0 160 Q 1 99 39 56 L 89 95 L 89 95 Z M 368 192 L 286 128 L 384 128 Q 398 128 407 137 Q 416 146 416 160 Q 416 174 407 183 Q 398 192 384 192 L 368 192 L 368 192 Z M 500 296 L 444 252 Q 474 242 493 218 Q 511 193 512 160 Q 511 119 484 92 Q 457 65 416 64 L 352 64 Q 338 64 329 55 Q 320 46 320 32 Q 320 18 329 9 Q 338 0 352 0 L 416 0 Q 484 2 529 47 Q 574 92 576 160 Q 576 204 555 239 Q 535 274 500 296 L 500 296 Z M 204 64 L 127 3 Q 143 0 160 0 L 224 0 Q 238 0 247 9 Q 256 18 256 32 Q 256 46 247 55 Q 238 64 224 64 L 204 64 L 204 64 Z"/>
</svg>
