<svg xmlns="http://www.w3.org/2000/svg" viewBox="0 0 512 512">
    <path d="M 320 0 L 448 0 Q 475 1 493 19 Q 511 37 512 64 L 512 192 Q 511 207 496 208 L 444 208 Q 433 209 432 220 L 432 224 Q 432 238 423 247 Q 414 256 400 256 Q 386 256 377 247 Q 368 238 368 224 L 368 220 Q 367 209 356 208 L 320 208 Q 305 207 304 192 L 304 160 Q 305 145 320 144 L 336 144 Q 350 144 359 135 Q 368 126 368 112 Q 368 98 359 89 Q 350 80 336 80 L 320 80 Q 305 79 304 64 L 304 16 Q 305 1 320 0 L 320 0 Z M 224 448 L 224 512 L 64 512 Q 37 511 19 493 Q 1 475 0 448 L 0 288 L 64 288 Q 79 287 80 272 L 80 256 Q 80 242 89 233 Q 98 224 112 224 Q 126 224 135 233 Q 144 242 144 256 L 144 272 Q 145 287 160 288 L 224 288 L 224 352 Q 223 367 208 368 L 192 368 Q 178 368 169 377 Q 160 386 160 400 Q 160 414 169 423 Q 178 432 192 432 L 208 432 Q 223 433 224 448 L 224 448 Z"/>
</svg>
