<svg xmlns="http://www.w3.org/2000/svg" viewBox="0 0 574 512">
    <path d="M 24 0 Q 2 2 0 24 Q 2 46 24 48 L 70 48 Q 76 48 77 55 L 129 326 Q 134 351 154 368 Q 173 384 200 384 L 321 384 Q 320 376 320 368 Q 320 352 323 336 L 200 336 Q 181 335 176 317 L 171 288 L 339 288 Q 362 245 403 219 Q 444 193 496 192 Q 518 192 539 197 L 570 82 Q 574 63 563 48 Q 551 33 531 32 L 120 32 Q 105 2 70 0 L 24 0 L 24 0 Z M 176 512 Q 203 511 218 488 Q 230 464 218 440 Q 203 417 176 416 Q 149 417 134 440 Q 122 464 134 488 Q 149 511 176 512 L 176 512 Z"/>
</svg>
