<svg xmlns="http://www.w3.org/2000/svg" viewBox="0 0 576 288">
    <path d="M 0 64 Q 1 37 19 19 L 19 19 Q 37 1 64 0 L 512 0 Q 539 1 557 19 Q 575 37 576 64 L 576 224 Q 575 251 557 269 Q 539 287 512 288 L 64 288 Q 37 287 19 269 Q 1 251 0 224 L 0 64 L 0 64 Z M 64 80 L 64 112 Q 65 127 80 128 L 112 128 Q 127 127 128 112 L 128 80 Q 127 65 112 64 L 80 64 Q 65 65 64 80 L 64 80 Z M 80 160 Q 65 161 64 176 L 64 208 Q 65 223 80 224 L 112 224 Q 127 223 128 208 L 128 176 Q 127 161 112 160 L 80 160 L 80 160 Z M 160 176 L 160 208 Q 161 223 176 224 L 400 224 Q 415 223 416 208 L 416 176 Q 415 161 400 160 L 176 160 Q 161 161 160 176 L 160 176 Z M 464 160 Q 449 161 448 176 L 448 208 Q 449 223 464 224 L 496 224 Q 511 223 512 208 L 512 176 Q 511 161 496 160 L 464 160 L 464 160 Z M 160 80 L 160 112 Q 161 127 176 128 L 208 128 Q 223 127 224 112 L 224 80 Q 223 65 208 64 L 176 64 Q 161 65 160 80 L 160 80 Z M 272 64 Q 257 65 256 80 L 256 112 Q 257 127 272 128 L 304 128 Q 319 127 320 112 L 320 80 Q 319 65 304 64 L 272 64 L 272 64 Z M 352 80 L 352 112 Q 353 127 368 128 L 400 128 Q 415 127 416 112 L 416 80 Q 415 65 400 64 L 368 64 Q 353 65 352 80 L 352 80 Z M 464 64 Q 449 65 448 80 L 448 112 Q 449 127 464 128 L 496 128 Q 511 127 512 112 L 512 80 Q 511 65 496 64 L 464 64 L 464 64 Z"/>
</svg>
