<svg xmlns="http://www.w3.org/2000/svg" viewBox="0 0 338 386">
    <path d="M 142 5 Q 154 12 158 24 L 158 24 Q 162 36 157 48 L 134 94 L 236 9 Q 246 1 259 2 Q 272 3 281 14 Q 289 24 288 37 Q 287 50 277 59 L 195 127 L 296 99 Q 309 96 320 102 Q 331 109 335 122 Q 338 135 332 146 Q 325 157 312 161 L 232 183 Q 270 196 290 230 Q 296 242 293 254 Q 290 267 278 274 Q 266 280 254 277 Q 242 274 235 262 Q 223 243 200 242 Q 183 242 172 254 Q 160 265 160 282 Q 160 299 172 310 Q 183 322 200 322 Q 223 321 235 302 Q 242 290 254 287 Q 266 284 278 290 Q 290 297 293 310 Q 296 322 290 334 Q 263 379 208 386 L 208 386 L 200 386 L 128 386 Q 74 385 37 349 Q 1 312 0 258 L 0 249 Q 0 218 14 192 L 99 20 Q 106 8 118 4 Q 130 0 142 5 L 142 5 Z"/>
</svg>
