<svg xmlns="http://www.w3.org/2000/svg" viewBox="0 0 304 248">
    <path d="M 147 51 Q 149 48 152 48 Q 156 48 158 51 L 178 81 Q 192 97 211 87 Q 229 73 218 53 L 197 23 Q 180 1 152 0 Q 124 1 107 23 L 87 53 Q 75 73 93 87 Q 112 97 126 81 L 147 51 L 147 51 Z M 71 159 Q 82 139 64 125 Q 45 115 31 132 L 10 162 Q 0 176 0 194 Q 1 217 16 232 Q 31 247 54 248 L 104 248 Q 126 246 128 224 Q 126 202 104 200 L 54 200 Q 49 199 48 194 Q 48 192 49 190 L 71 159 L 71 159 Z M 200 200 Q 178 202 176 224 Q 178 246 200 248 L 250 248 Q 273 247 288 232 Q 303 217 304 194 Q 304 176 294 162 L 273 132 Q 259 115 240 125 Q 222 139 233 159 L 255 190 Q 256 192 256 194 Q 256 199 250 200 L 200 200 L 200 200 Z"/>
</svg>
