<svg xmlns="http://www.w3.org/2000/svg" viewBox="0 0 640 256">
    <path d="M 32 0 Q 18 0 9 9 L 9 9 Q 0 18 0 32 L 0 64 Q 0 78 9 87 Q 18 96 32 96 Q 59 97 77 115 Q 95 133 96 160 L 96 224 Q 96 238 105 247 Q 114 256 128 256 L 160 256 Q 174 256 183 247 Q 192 238 192 224 L 192 192 Q 193 151 220 124 Q 247 97 288 96 L 352 96 Q 393 97 420 124 Q 447 151 448 192 L 448 224 Q 448 238 457 247 Q 466 256 480 256 L 512 256 Q 526 256 535 247 Q 544 238 544 224 L 544 160 Q 545 133 563 115 Q 581 97 608 96 Q 622 96 631 87 Q 640 78 640 64 L 640 32 Q 640 18 631 9 Q 622 0 608 0 L 32 0 L 32 0 Z"/>
</svg>
