<svg xmlns="http://www.w3.org/2000/svg" viewBox="0 0 365 197">
    <path d="M 115 14 Q 108 1 93 0 Q 78 1 71 14 L 7 158 Q 0 179 19 190 Q 40 197 51 178 L 55 168 L 131 168 L 135 178 Q 146 197 167 190 Q 186 179 179 158 L 115 14 L 115 14 Z M 109 120 L 77 120 L 93 83 L 109 120 L 109 120 Z M 213 24 L 213 32 L 213 96 L 213 160 L 213 168 Q 215 190 237 192 L 305 192 Q 330 191 347 174 Q 364 157 365 132 Q 364 103 343 86 Q 349 74 349 60 Q 348 35 331 18 Q 314 1 289 0 L 237 0 Q 215 2 213 24 L 213 24 Z M 261 48 L 289 48 Q 300 49 301 60 Q 300 71 289 72 L 261 72 L 261 48 L 261 48 Z M 261 144 L 261 120 L 289 120 L 305 120 Q 316 121 317 132 Q 316 143 305 144 L 261 144 L 261 144 Z"/>
</svg>
