<svg xmlns="http://www.w3.org/2000/svg" viewBox="0 0 576 384">
    <path d="M 48 24 Q 46 2 24 0 Q 2 2 0 24 L 0 264 Q 1 315 35 349 Q 69 383 120 384 L 520 384 Q 542 382 544 360 Q 542 338 520 336 L 120 336 Q 89 335 69 315 Q 49 295 48 264 L 48 24 L 48 24 Z M 224 0 Q 223 27 205 45 L 205 45 Q 187 63 160 64 L 160 160 Q 187 161 205 179 Q 223 197 224 224 L 512 224 Q 513 197 531 179 Q 549 161 576 160 L 576 64 Q 549 63 531 45 Q 513 27 512 0 L 224 0 L 224 0 Z M 288 112 Q 289 67 328 43 Q 368 21 408 43 Q 447 67 448 112 Q 447 157 408 181 Q 368 203 328 181 Q 289 157 288 112 L 288 112 Z"/>
</svg>
