<svg xmlns="http://www.w3.org/2000/svg" viewBox="0 0 512 512">
    <path d="M 256 0 Q 334 1 395 41 Q 393 46 391 51 Q 385 63 384 81 Q 385 115 408 137 Q 431 159 464 160 Q 478 160 491 155 Q 512 202 512 256 Q 511 328 477 385 Q 443 443 385 477 Q 328 511 256 512 Q 184 511 127 477 Q 69 443 35 385 Q 1 328 0 256 Q 1 184 35 127 Q 69 69 127 35 Q 184 1 256 0 L 256 0 Z M 388 313 Q 328 331 256 332 Q 185 331 124 313 Q 115 310 108 316 Q 102 322 105 332 Q 125 377 165 404 Q 205 431 256 432 Q 308 431 348 404 Q 388 377 407 332 Q 411 322 404 316 Q 398 310 388 313 L 388 313 Z M 218 229 L 218 229 L 218 229 Q 221 233 227 232 Q 232 230 232 224 Q 231 196 215 175 Q 200 154 176 152 Q 152 154 137 175 Q 121 196 120 224 Q 120 230 126 232 Q 131 233 134 229 L 134 229 L 134 229 L 134 229 L 135 229 Q 135 228 135 228 Q 135 228 135 228 Q 136 226 138 224 Q 142 220 148 214 Q 162 201 176 200 Q 190 201 204 214 Q 210 220 214 224 Q 216 226 217 228 Q 217 228 217 228 Q 217 228 217 229 L 218 229 L 218 229 L 218 229 L 218 229 Z M 378 229 L 378 229 L 378 229 L 378 229 Q 381 233 387 232 Q 392 230 392 224 Q 391 196 375 175 Q 360 154 336 152 Q 312 154 297 175 Q 281 196 280 224 Q 280 230 286 232 Q 291 233 294 229 L 294 229 L 294 229 L 294 229 L 295 229 Q 295 228 295 228 Q 295 228 295 228 Q 296 226 298 224 Q 302 220 308 214 Q 322 201 336 200 Q 350 201 364 214 Q 370 220 374 224 Q 376 226 377 228 Q 377 228 377 228 Q 377 228 377 229 L 378 229 L 378 229 L 378 229 Z"/>
</svg>
