<svg xmlns="http://www.w3.org/2000/svg" viewBox="0 0 512 514">
    <path d="M 355 20 Q 362 8 374 4 L 374 4 Q 386 0 398 5 L 384 34 Q 394 13 397 9 Q 399 5 398 5 L 398 5 L 398 5 L 399 6 L 399 6 Q 399 6 400 6 Q 400 6 400 6 Q 401 7 402 7 Q 403 8 404 9 Q 409 11 417 17 Q 434 28 456 50 Q 477 73 494 109 Q 511 145 512 194 Q 512 208 503 217 Q 494 226 480 226 Q 466 226 457 217 Q 448 208 448 194 Q 447 160 436 135 Q 424 110 409 94 Q 393 77 381 70 Q 375 66 372 64 Q 371 63 370 63 L 370 63 Q 358 56 354 44 Q 350 32 355 20 L 355 20 Z M 160 322 Q 174 322 183 331 L 183 331 Q 192 340 192 354 Q 192 368 183 377 Q 174 386 160 386 Q 146 386 137 377 Q 128 368 128 354 Q 128 340 137 331 Q 146 322 160 322 L 160 322 Z M 32 450 Q 46 450 55 459 L 55 459 Q 64 468 64 482 Q 64 496 55 505 Q 46 514 32 514 Q 18 514 9 505 Q 0 496 0 482 Q 0 468 9 459 Q 18 450 32 450 L 32 450 Z M 87 363 L 151 427 Q 160 437 160 450 Q 160 463 151 473 Q 141 482 128 482 Q 115 482 105 473 L 41 409 Q 32 399 32 386 Q 32 373 41 363 Q 51 354 64 354 Q 77 354 87 363 L 87 363 Z"/>
</svg>
