<svg xmlns="http://www.w3.org/2000/svg" viewBox="0 0 576 384">
    <path d="M 158 44 Q 151 47 147 43 L 147 43 Q 143 39 147 34 Q 162 16 180 3 Q 179 3 178 3 Q 165 0 152 0 Q 87 2 45 56 Q 2 110 0 192 Q 2 274 45 328 Q 87 382 152 384 Q 181 384 207 371 Q 220 365 233 371 Q 259 384 288 384 Q 317 384 343 371 Q 356 365 369 371 Q 395 384 424 384 Q 488 382 531 328 Q 574 274 576 192 Q 574 110 531 56 Q 488 2 424 0 Q 410 0 398 3 Q 397 3 396 3 Q 414 16 429 34 Q 432 39 428 43 Q 424 47 418 44 Q 360 9 288 8 Q 216 9 158 44 L 158 44 Z M 208 80 Q 216 80 221 87 L 253 135 Q 258 143 254 152 Q 249 160 240 160 L 176 160 Q 167 160 162 152 Q 158 143 163 135 L 195 87 Q 200 80 208 80 L 208 80 Z M 381 87 L 413 135 Q 418 143 414 152 Q 409 160 400 160 L 336 160 Q 327 160 322 152 Q 318 143 323 135 L 355 87 Q 360 80 368 80 Q 376 80 381 87 L 381 87 Z M 368 310 Q 336 320 288 320 Q 241 320 208 310 L 208 288 Q 207 273 192 272 L 176 272 Q 162 273 160 287 Q 133 268 121 248 Q 109 228 106 216 Q 104 208 110 202 Q 120 194 132 200 Q 146 208 173 219 Q 201 230 240 237 L 240 256 Q 241 271 256 272 L 272 272 Q 287 271 288 256 L 288 240 Q 347 239 386 225 Q 426 211 444 200 Q 456 193 466 202 Q 472 208 470 216 Q 467 228 455 248 Q 443 268 416 287 Q 414 273 400 272 L 384 272 Q 369 273 368 288 L 368 309 L 368 310 Z"/>
</svg>
