<svg xmlns="http://www.w3.org/2000/svg" viewBox="0 0 480 256">
    <path d="M 352 64 Q 388 65 407 96 Q 425 128 407 160 Q 388 191 352 192 Q 316 191 297 160 Q 279 128 297 96 Q 316 65 352 64 L 352 64 Z M 352 256 Q 406 255 443 219 L 443 219 Q 479 182 480 128 Q 479 74 443 37 Q 406 1 352 0 Q 306 1 273 27 Q 239 54 228 96 L 32 96 Q 18 96 9 105 Q 0 114 0 128 L 0 192 Q 0 206 9 215 Q 18 224 32 224 Q 46 224 55 215 Q 64 206 64 192 L 64 160 L 96 160 L 96 192 Q 96 206 105 215 Q 114 224 128 224 Q 142 224 151 215 Q 160 206 160 192 L 160 160 L 228 160 Q 239 202 273 229 Q 306 255 352 256 L 352 256 Z"/>
</svg>
