<svg xmlns="http://www.w3.org/2000/svg" viewBox="0 0 448 480">
    <path d="M 64 0 Q 50 0 41 9 L 41 9 Q 32 18 32 32 L 32 256 Q 32 270 41 279 Q 50 288 64 288 L 192 288 Q 206 288 215 279 Q 224 270 224 256 L 224 32 Q 224 18 215 9 Q 206 0 192 0 L 64 0 L 64 0 Z M 288 0 Q 274 0 265 9 L 265 9 Q 256 18 256 32 L 256 96 Q 256 110 265 119 Q 274 128 288 128 L 352 128 Q 366 128 375 119 Q 384 110 384 96 L 384 32 Q 384 18 375 9 Q 366 0 352 0 L 288 0 L 288 0 Z M 256 192 L 256 256 Q 256 270 265 279 Q 274 288 288 288 L 416 288 Q 430 288 439 279 Q 448 270 448 256 L 448 192 Q 448 178 439 169 Q 430 160 416 160 L 288 160 Q 274 160 265 169 Q 256 178 256 192 L 256 192 Z M 0 432 Q 1 452 14 466 L 14 466 Q 28 479 48 480 Q 68 479 82 466 Q 95 452 96 432 Q 96 424 93 416 L 3 416 Q 0 424 0 432 L 0 432 Z M 288 432 Q 289 452 302 466 L 302 466 Q 316 479 336 480 Q 356 479 370 466 Q 383 452 384 432 Q 384 424 381 416 L 291 416 Q 288 424 288 432 L 288 432 Z"/>
</svg>
