<svg xmlns="http://www.w3.org/2000/svg" viewBox="0 0 448 312">
    <path d="M 448 60 Q 422 59 404 43 L 404 43 Q 386 26 384 0 Q 325 3 250 24 Q 247 24 244 25 Q 240 26 236 27 L 236 27 Q 235 27 234 27 Q 196 38 153 46 Q 109 55 63 56 Q 58 78 41 93 Q 24 108 0 108 L 0 252 Q 26 253 44 269 Q 62 286 64 312 Q 123 309 198 289 Q 201 288 203 287 Q 208 286 212 285 L 212 285 Q 213 285 214 285 Q 252 274 295 266 Q 339 257 385 256 Q 390 233 407 219 Q 424 204 448 204 L 448 60 L 448 60 Z M 224 252 Q 190 251 167 224 L 167 224 Q 145 197 144 156 Q 145 115 167 88 Q 190 61 224 60 Q 258 61 281 88 Q 303 115 304 156 Q 303 197 281 224 Q 258 251 224 252 L 224 252 Z"/>
</svg>
