<svg xmlns="http://www.w3.org/2000/svg" viewBox="0 0 512 352">
    <path d="M 0 64 Q 1 37 19 19 L 19 19 Q 37 1 64 0 L 448 0 Q 475 1 493 19 Q 511 37 512 64 L 512 288 Q 511 315 493 333 Q 475 351 448 352 L 64 352 Q 37 351 19 333 Q 1 315 0 288 L 0 64 L 0 64 Z M 368 80 Q 353 81 352 96 L 352 128 L 320 128 Q 305 129 304 144 Q 305 159 320 160 L 352 160 L 352 192 Q 353 207 368 208 Q 383 207 384 192 L 384 160 L 416 160 Q 431 159 432 144 Q 431 129 416 128 L 384 128 L 384 96 Q 383 81 368 80 L 368 80 Z M 96 128 Q 81 129 80 144 Q 81 159 96 160 L 192 160 Q 207 159 208 144 Q 207 129 192 128 L 96 128 L 96 128 Z"/>
</svg>
