<svg xmlns="http://www.w3.org/2000/svg" viewBox="0 0 416 352">
    <path d="M 123 75 L 104 128 L 312 128 L 293 75 Q 289 65 278 64 L 138 64 Q 127 65 123 75 L 123 75 Z M 34 132 L 63 53 Q 72 29 92 15 Q 112 0 138 0 L 278 0 Q 304 0 324 15 Q 345 29 354 53 L 382 132 Q 414 147 416 184 L 416 224 L 416 288 L 416 320 Q 416 334 407 343 Q 398 352 384 352 L 368 352 Q 354 352 345 343 Q 336 334 336 320 L 336 288 L 80 288 L 80 320 Q 80 334 71 343 Q 62 352 48 352 L 32 352 Q 18 352 9 343 Q 0 334 0 320 L 0 288 L 0 224 L 0 184 Q 2 147 34 132 L 34 132 Z M 104 208 Q 102 186 80 184 Q 58 186 56 208 Q 58 230 80 232 Q 102 230 104 208 L 104 208 Z M 336 232 Q 358 230 360 208 Q 358 186 336 184 Q 314 186 312 208 Q 314 230 336 232 L 336 232 Z"/>
</svg>
