<svg xmlns="http://www.w3.org/2000/svg" viewBox="0 0 640 256">
    <path d="M 352 48 Q 369 48 384 41 L 384 96 L 531 96 L 489 55 Q 480 45 480 32 Q 480 19 489 9 Q 499 0 512 0 Q 525 0 535 9 L 631 105 Q 640 115 640 128 Q 640 141 631 151 L 535 247 Q 525 256 512 256 Q 499 256 489 247 Q 480 237 480 224 Q 480 211 489 201 L 531 160 L 256 160 L 256 215 Q 241 208 224 208 Q 207 208 192 215 L 192 160 L 32 160 Q 18 160 9 151 Q 0 142 0 128 Q 0 114 9 105 Q 18 96 32 96 L 96 96 L 96 41 Q 111 48 128 48 Q 145 48 160 41 L 160 96 L 320 96 L 320 41 Q 335 48 352 48 L 352 48 Z"/>
</svg>
