<svg xmlns="http://www.w3.org/2000/svg" viewBox="0 0 320 288">
    <path d="M 102 48 L 218 48 Q 223 48 225 54 L 239 96 L 81 96 L 95 54 Q 97 48 102 48 L 102 48 Z M 49 39 L 28 103 Q 1 119 0 152 L 0 264 Q 0 279 11 288 L 53 288 Q 63 279 64 264 L 64 224 L 256 224 L 256 264 Q 256 279 267 288 L 309 288 Q 319 279 320 264 L 320 152 Q 318 119 292 103 L 271 39 Q 265 21 250 11 Q 236 0 217 0 L 102 0 Q 84 0 69 11 Q 55 21 49 39 L 49 39 Z M 48 160 Q 50 138 72 136 Q 94 138 96 160 Q 94 182 72 184 Q 50 182 48 160 L 48 160 Z M 248 136 Q 270 138 272 160 Q 270 182 248 184 Q 226 182 224 160 Q 226 138 248 136 L 248 136 Z"/>
</svg>
