<svg xmlns="http://www.w3.org/2000/svg" viewBox="0 0 572 352">
    <path d="M 318 32 Q 318 18 309 9 L 309 9 Q 300 0 286 0 Q 272 0 263 9 Q 254 18 254 32 L 254 50 Q 153 62 84 126 Q 14 190 0 286 Q 0 298 9 302 Q 19 307 28 299 Q 39 287 57 279 Q 75 272 94 272 Q 124 273 145 290 Q 166 308 172 336 Q 176 351 190 352 Q 204 351 208 336 Q 214 308 235 290 Q 256 273 286 272 Q 316 273 337 290 Q 358 308 364 336 Q 368 351 382 352 Q 396 351 400 336 Q 406 308 427 290 Q 448 273 478 272 Q 497 272 515 279 Q 533 287 544 299 Q 553 307 563 303 Q 572 298 572 286 Q 558 190 488 126 Q 419 62 318 50 L 318 32 L 318 32 Z"/>
</svg>
