<svg xmlns="http://www.w3.org/2000/svg" viewBox="0 0 640 352">
    <path d="M 160 0 L 160 105 Q 130 123 128 160 L 128 320 Q 128 334 134 347 Q 124 352 112 352 L 48 352 Q 28 351 14 338 Q 1 324 0 304 L 0 16 L 0 0 L 160 0 L 160 0 Z M 352 352 L 288 352 L 288 280 Q 286 258 264 256 Q 242 258 240 280 L 240 352 L 192 352 Q 178 352 169 343 Q 160 334 160 320 L 160 160 Q 160 146 169 137 Q 178 128 192 128 L 608 128 Q 622 128 631 137 Q 640 146 640 160 L 640 320 Q 640 334 631 343 Q 622 352 608 352 L 560 352 L 560 280 Q 558 258 536 256 Q 514 258 512 280 L 512 352 L 448 352 L 448 294 Q 447 264 425 245 L 400 224 L 375 245 Q 353 264 352 294 L 352 352 L 352 352 Z"/>
</svg>
