<svg xmlns="http://www.w3.org/2000/svg" viewBox="0 0 512 384">
    <path d="M 64 0 Q 37 1 19 19 L 19 19 Q 1 37 0 64 L 0 320 Q 1 347 19 365 Q 37 383 64 384 L 448 384 Q 475 383 493 365 Q 511 347 512 320 L 512 64 Q 511 37 493 19 Q 475 1 448 0 L 64 0 L 64 0 Z M 224 112 Q 225 97 240 96 L 272 96 Q 287 97 288 112 L 288 160 L 336 160 Q 351 161 352 176 L 352 208 Q 351 223 336 224 L 288 224 L 288 272 Q 287 287 272 288 L 240 288 Q 225 287 224 272 L 224 224 L 176 224 Q 161 223 160 208 L 160 176 Q 161 161 176 160 L 224 160 L 224 112 L 224 112 Z"/>
</svg>
