<svg xmlns="http://www.w3.org/2000/svg" viewBox="0 0 512 256">
    <path d="M 256 128 Q 257 89 277 58 L 277 58 Q 297 28 330 12 L 344 68 Q 314 89 312 128 Q 313 159 333 179 Q 353 199 384 200 Q 415 199 435 179 Q 455 159 456 128 Q 455 99 437 79 Q 419 59 391 56 L 377 0 Q 380 0 384 0 Q 438 1 475 37 Q 511 74 512 128 Q 511 182 475 218 Q 438 255 384 256 Q 330 255 293 218 Q 257 182 256 128 L 256 128 Z M 168 144 Q 167 112 140 96 Q 112 80 84 96 Q 57 112 56 144 Q 57 176 84 192 Q 112 208 140 192 Q 167 176 168 144 L 168 144 Z M 0 144 Q 0 114 15 88 L 15 88 Q 30 62 56 47 Q 82 32 112 32 Q 142 32 168 47 Q 194 62 209 88 Q 224 114 224 144 Q 224 174 209 200 Q 194 226 168 241 Q 142 256 112 256 Q 82 256 56 241 Q 30 226 15 200 Q 0 174 0 144 L 0 144 Z"/>
</svg>
