<svg xmlns="http://www.w3.org/2000/svg" viewBox="0 0 640 512">
    <path d="M 136 48 L 48 48 L 48 136 Q 46 158 24 160 Q 2 158 0 136 L 0 32 Q 0 18 9 9 Q 18 0 32 0 L 136 0 Q 158 2 160 24 Q 158 46 136 48 L 136 48 Z M 504 48 Q 482 46 480 24 Q 482 2 504 0 L 608 0 Q 622 0 631 9 Q 640 18 640 32 L 640 136 Q 638 158 616 160 Q 594 158 592 136 L 592 48 L 504 48 L 504 48 Z M 48 464 L 136 464 Q 158 466 160 488 Q 158 510 136 512 L 32 512 Q 18 512 9 503 Q 0 494 0 480 L 0 376 Q 2 354 24 352 Q 46 354 48 376 L 48 464 L 48 464 Z M 504 464 L 592 464 L 592 376 Q 594 354 616 352 Q 638 354 640 376 L 640 480 Q 640 494 631 503 Q 622 512 608 512 L 504 512 Q 482 510 480 488 Q 482 466 504 464 L 504 464 Z"/>
</svg>
