<svg xmlns="http://www.w3.org/2000/svg" viewBox="0 0 448 448">
    <path d="M 0 163 Q 0 175 9 183 L 9 183 Q 17 192 29 192 L 419 192 Q 431 192 439 183 Q 448 175 448 163 Q 448 160 447 157 Q 446 144 427 107 Q 407 70 359 36 Q 312 2 224 0 Q 136 2 89 36 Q 41 70 21 107 Q 2 144 1 157 Q 0 160 0 163 L 0 163 Z M 96 80 Q 111 81 112 96 Q 111 111 96 112 Q 81 111 80 96 Q 81 81 96 80 L 96 80 Z M 336 96 Q 337 81 352 80 Q 367 81 368 96 Q 367 111 352 112 Q 337 111 336 96 L 336 96 Z M 224 48 Q 239 49 240 64 Q 239 79 224 80 Q 209 79 208 64 Q 209 49 224 48 L 224 48 Z M 0 368 L 0 384 Q 1 411 19 429 Q 37 447 64 448 L 384 448 Q 411 447 429 429 Q 447 411 448 384 L 448 368 Q 447 353 432 352 L 16 352 Q 1 353 0 368 L 0 368 Z M 202 231 L 270 276 Q 288 287 306 276 L 374 231 Q 384 224 396 224 L 180 224 Q 192 224 202 231 L 202 231 Z"/>
</svg>
