<svg xmlns="http://www.w3.org/2000/svg" viewBox="0 0 448 448">
    <path d="M 45 365 L 83 403 Q 128 447 192 448 Q 256 447 301 403 L 403 301 Q 447 256 448 192 Q 447 128 403 83 L 365 45 Q 320 1 256 0 Q 192 1 147 45 L 45 147 Q 1 192 0 256 Q 1 320 45 365 L 45 365 Z M 187 149 L 208 169 L 229 149 Q 240 139 251 149 Q 261 160 251 171 L 219 203 Q 208 213 197 203 L 165 171 Q 155 160 165 149 Q 176 139 187 149 L 187 149 Z M 107 229 L 128 249 L 149 229 Q 160 219 171 229 Q 181 240 171 251 L 139 283 Q 128 293 117 283 L 85 251 Q 75 240 85 229 Q 96 219 107 229 L 107 229 Z M 288 249 L 309 229 Q 320 219 331 229 Q 341 240 331 251 L 299 283 Q 288 293 277 283 L 245 251 Q 235 240 245 229 Q 256 219 267 229 L 288 249 L 288 249 Z M 165 309 Q 176 299 187 309 L 208 329 L 229 309 Q 240 299 251 309 Q 261 320 251 331 L 219 363 Q 208 373 197 363 L 165 331 Q 155 320 165 309 L 165 309 Z"/>
</svg>
