<svg xmlns="http://www.w3.org/2000/svg" viewBox="0 0 448 293">
    <path d="M 288 24 Q 290 2 312 0 L 424 0 Q 446 2 448 24 Q 446 46 424 48 L 392 48 L 392 96 L 344 96 L 344 48 L 312 48 Q 290 46 288 24 L 288 24 Z M 0 80 Q 1 65 16 64 L 144 64 Q 159 65 160 80 L 160 96 L 0 96 L 0 80 L 0 80 Z M 139 213 Q 149 224 139 235 L 91 283 Q 80 293 69 283 Q 59 272 69 261 L 117 213 Q 128 203 139 213 L 139 213 Z M 384 208 L 384 272 Q 383 287 368 288 Q 353 287 352 272 L 352 208 Q 353 193 368 192 Q 383 193 384 208 L 384 208 Z"/>
</svg>
