<svg xmlns="http://www.w3.org/2000/svg" viewBox="0 0 479 512">
    <path d="M 77 96 Q 80 96 82 94 L 106 70 Q 112 65 118 70 L 142 94 Q 142 94 143 95 Q 141 96 139 99 Q 99 141 95 180 Q 91 219 106 244 Q 115 255 127 246 L 245 128 L 349 128 Q 352 128 354 126 L 378 102 Q 384 97 390 102 L 414 126 Q 416 128 419 128 L 464 128 Q 479 127 478 112 Q 471 84 440 59 Q 410 34 352 32 Q 301 33 272 53 Q 258 32 230 16 Q 202 1 158 0 Q 100 2 70 27 Q 39 52 32 80 Q 31 95 46 96 L 77 96 L 77 96 Z M 128 352 Q 74 353 37 389 L 37 389 Q 1 426 0 480 Q 0 494 9 503 Q 18 512 32 512 L 352 512 Q 366 512 375 503 Q 384 494 384 480 Q 383 426 347 389 Q 310 353 256 352 L 128 352 L 128 352 Z"/>
</svg>
