<svg xmlns="http://www.w3.org/2000/svg" viewBox="0 0 640 448">
    <path d="M 144 448 Q 83 446 42 406 L 42 406 Q 2 365 0 304 Q 1 256 27 220 Q 53 184 96 168 Q 96 164 96 160 Q 98 92 143 47 Q 188 2 256 0 Q 301 1 337 22 Q 373 44 395 80 Q 418 64 448 64 Q 489 65 516 92 Q 543 119 544 160 Q 544 178 538 195 Q 582 204 611 239 Q 639 273 640 320 Q 639 374 603 411 Q 566 447 512 448 L 144 448 L 144 448 Z M 416 175 Q 415 158 402 149 L 402 149 Q 389 140 373 145 L 277 181 Q 257 190 256 211 L 256 298 Q 248 296 240 296 Q 220 296 206 308 Q 193 319 192 336 Q 193 353 206 364 Q 220 376 240 376 Q 260 376 274 364 Q 287 353 288 336 L 288 336 L 288 243 L 384 207 L 384 266 Q 376 264 368 264 Q 348 264 334 276 Q 321 287 320 304 Q 321 321 334 332 Q 348 344 368 344 Q 388 344 402 332 Q 415 321 416 304 L 416 304 L 416 175 L 416 175 Z"/>
</svg>
