<svg xmlns="http://www.w3.org/2000/svg" viewBox="0 0 246 256">
    <path d="M 243 82 Q 246 93 236 100 L 233 102 Q 219 111 219 128 Q 219 145 233 155 L 236 156 Q 246 163 243 174 Q 239 182 235 190 L 233 194 Q 228 202 223 209 Q 214 217 204 212 L 201 210 Q 186 203 171 211 Q 156 220 155 236 L 155 240 Q 154 252 143 255 Q 133 256 123 256 Q 113 256 103 255 Q 92 252 91 240 L 91 236 Q 90 220 75 211 Q 60 203 45 210 L 42 212 Q 32 217 23 209 Q 18 202 13 194 L 11 190 Q 7 182 4 174 Q 0 163 10 156 L 13 155 Q 27 145 27 128 Q 27 111 13 102 L 10 100 Q 0 94 4 82 Q 7 74 11 66 L 13 62 Q 18 55 24 48 Q 32 39 43 45 L 45 47 Q 60 54 75 45 Q 90 37 91 20 L 91 17 Q 92 5 103 2 Q 113 0 123 0 Q 133 0 143 2 Q 154 5 155 17 L 155 20 Q 156 37 171 45 Q 186 54 201 47 L 204 45 Q 214 39 223 48 Q 228 55 233 62 L 235 66 Q 239 74 243 82 L 243 82 Z M 123 168 Q 146 167 158 148 Q 168 128 158 108 Q 146 89 123 88 Q 100 89 88 108 Q 78 128 88 148 Q 100 167 123 168 L 123 168 Z"/>
</svg>
