<svg xmlns="http://www.w3.org/2000/svg" viewBox="0 0 640 512">
    <path d="M 432 0 Q 452 1 466 14 L 466 14 Q 479 28 480 48 L 480 192 L 592 192 Q 612 193 626 206 Q 639 220 640 240 L 640 464 Q 639 484 626 498 Q 612 511 592 512 L 432 512 L 336 512 L 304 512 L 48 512 Q 28 511 14 498 Q 1 484 0 464 L 0 240 L 0 144 Q 1 124 14 110 Q 28 97 48 96 L 288 96 L 288 48 Q 289 28 302 14 Q 316 1 336 0 L 432 0 L 432 0 Z M 560 352 L 528 352 Q 513 353 512 368 L 512 400 Q 513 415 528 416 L 560 416 Q 575 415 576 400 L 576 368 Q 575 353 560 352 L 560 352 Z M 256 400 L 256 368 Q 255 353 240 352 L 208 352 Q 193 353 192 368 L 192 400 Q 193 415 208 416 L 240 416 Q 255 415 256 400 L 256 400 Z M 112 416 Q 127 415 128 400 L 128 368 Q 127 353 112 352 L 80 352 Q 65 353 64 368 L 64 400 Q 65 415 80 416 L 112 416 L 112 416 Z M 576 272 Q 575 257 560 256 L 528 256 Q 513 257 512 272 L 512 304 Q 513 319 528 320 L 560 320 Q 575 319 576 304 L 576 272 L 576 272 Z M 240 160 L 208 160 Q 193 161 192 176 L 192 208 Q 193 223 208 224 L 240 224 Q 255 223 256 208 L 256 176 Q 255 161 240 160 L 240 160 Z M 128 176 Q 127 161 112 160 L 80 160 Q 65 161 64 176 L 64 208 Q 65 223 80 224 L 112 224 Q 127 223 128 208 L 128 176 L 128 176 Z M 240 320 Q 255 319 256 304 L 256 272 Q 255 257 240 256 L 208 256 Q 193 257 192 272 L 192 304 Q 193 319 208 320 L 240 320 L 240 320 Z M 128 304 L 128 272 Q 127 257 112 256 L 80 256 Q 65 257 64 272 L 64 304 Q 65 319 80 320 L 112 320 Q 127 319 128 304 L 128 304 Z M 400 256 L 368 256 Q 353 257 352 272 L 352 304 Q 353 319 368 320 L 400 320 Q 415 319 416 304 L 416 272 Q 415 257 400 256 L 400 256 Z M 416 80 Q 415 65 400 64 L 368 64 Q 353 65 352 80 L 352 112 Q 353 127 368 128 L 400 128 Q 415 127 416 112 L 416 80 L 416 80 Z M 400 160 L 368 160 Q 353 161 352 176 L 352 208 Q 353 223 368 224 L 400 224 Q 415 223 416 208 L 416 176 Q 415 161 400 160 L 400 160 Z"/>
</svg>
