<svg xmlns="http://www.w3.org/2000/svg" viewBox="0 0 524 224">
    <path d="M 227 32 Q 217 23 205 23 L 205 23 Q 192 24 183 33 Q 173 43 173 55 Q 173 68 183 78 Q 184 79 185 80 Q 185 80 185 80 Q 184 80 182 80 Q 168 80 159 89 Q 150 98 150 112 Q 150 126 159 135 Q 168 144 182 144 Q 183 144 184 144 Q 184 144 185 144 Q 185 144 184 145 Q 184 145 183 146 Q 173 156 173 169 Q 173 182 183 191 Q 193 201 205 201 Q 218 201 228 191 Q 229 190 230 189 Q 230 189 230 189 Q 230 191 230 192 Q 230 192 230 192 Q 230 206 239 215 Q 248 224 262 224 Q 276 224 285 215 Q 294 206 294 192 Q 294 191 294 189 Q 294 189 295 190 Q 295 191 296 191 Q 306 201 319 201 Q 332 201 341 191 Q 351 182 351 169 Q 351 156 341 146 Q 340 145 339 144 Q 339 144 339 144 Q 341 144 342 144 Q 356 144 365 135 Q 374 126 374 112 Q 374 98 365 89 Q 356 80 342 80 Q 341 80 339 80 Q 339 80 340 80 Q 341 79 341 78 Q 351 68 351 55 Q 351 43 341 33 Q 332 24 319 23 Q 307 23 297 32 L 294 32 Q 294 18 285 9 Q 276 0 262 0 Q 248 0 239 9 Q 230 18 230 32 L 227 32 L 227 32 Z M 54 160 Q 81 159 96 136 Q 108 112 96 88 Q 81 65 54 64 Q 27 65 12 88 Q 0 112 12 136 Q 27 159 54 160 L 54 160 Z M 470 160 Q 497 159 512 136 Q 524 112 512 88 Q 497 65 470 64 Q 443 65 428 88 Q 416 112 428 136 Q 443 159 470 160 L 470 160 Z"/>
</svg>
