<svg xmlns="http://www.w3.org/2000/svg" viewBox="0 0 512 416">
    <path d="M 160 25 L 15 146 Q 0 124 0 95 Q 1 55 28 28 Q 55 1 95 0 Q 134 1 160 25 L 160 25 Z M 352 25 Q 378 1 417 0 Q 457 1 484 28 Q 511 55 512 95 Q 512 124 497 146 L 352 25 L 352 25 Z M 224 384 Q 224 370 233 361 L 233 361 Q 242 352 256 352 Q 270 352 279 361 Q 288 370 288 384 Q 288 398 279 407 Q 270 416 256 416 Q 242 416 233 407 Q 224 398 224 384 L 224 384 Z M 280 184 L 280 296 Q 278 318 256 320 Q 234 318 232 296 L 232 184 Q 234 162 256 160 Q 278 162 280 184 L 280 184 Z"/>
</svg>
