<svg xmlns="http://www.w3.org/2000/svg" viewBox="0 0 448 448">
    <path d="M 352 320 L 288 320 Q 277 305 269 288 L 371 288 Q 381 266 383 240 L 257 240 Q 256 232 256 224 Q 256 216 257 208 L 383 208 Q 381 183 371 160 L 269 160 Q 277 143 288 128 L 352 128 Q 330 98 297 81 Q 264 64 224 64 Q 156 66 111 111 Q 66 156 64 224 Q 66 292 111 337 Q 156 382 224 384 Q 264 384 297 367 Q 330 350 352 320 L 352 320 Z M 0 224 Q 1 163 30 112 L 30 112 Q 60 61 112 30 Q 165 0 224 0 Q 283 0 336 30 Q 388 61 418 112 Q 447 163 448 224 Q 447 285 418 336 Q 388 387 336 418 Q 283 448 224 448 Q 165 448 112 418 Q 60 387 30 336 Q 1 285 0 224 L 0 224 Z"/>
</svg>
