<svg xmlns="http://www.w3.org/2000/svg" viewBox="0 0 640 224">
    <path d="M 16 0 Q 1 1 0 16 L 0 96 L 0 112 L 0 176 Q 1 196 14 210 Q 28 223 48 224 L 208 224 Q 228 223 242 210 Q 255 196 256 176 L 256 112 L 256 96 L 256 16 Q 255 1 240 0 L 208 0 Q 193 1 192 16 L 192 64 L 160 64 L 160 16 Q 159 1 144 0 L 112 0 Q 97 1 96 16 L 96 64 L 64 64 L 64 16 Q 63 1 48 0 L 16 0 L 16 0 Z M 448 64 L 448 16 Q 447 1 432 0 L 400 0 Q 385 1 384 16 L 384 96 L 384 112 L 384 176 Q 385 196 398 210 Q 412 223 432 224 L 592 224 Q 612 223 626 210 Q 639 196 640 176 L 640 112 L 640 96 L 640 16 Q 639 1 624 0 L 592 0 Q 577 1 576 16 L 576 64 L 544 64 L 544 16 Q 543 1 528 0 L 496 0 Q 481 1 480 16 L 480 64 L 448 64 L 448 64 Z"/>
</svg>
