<svg xmlns="http://www.w3.org/2000/svg" viewBox="0 0 448 512">
    <path d="M 96 70 Q 97 49 117 40 L 213 4 Q 224 0 235 4 L 331 40 Q 351 49 352 70 L 352 160 L 96 160 L 96 70 L 96 70 Z M 112 328 Q 129 323 141 336 L 212 412 Q 224 422 236 412 L 307 336 Q 319 323 336 328 Q 386 344 416 385 Q 447 426 448 481 Q 448 494 439 503 Q 430 512 417 512 L 31 512 Q 18 512 9 503 Q 0 494 0 481 Q 1 426 32 385 Q 62 344 112 328 L 112 328 Z M 208 48 L 208 64 L 192 64 Q 185 65 184 72 L 184 88 Q 185 95 192 96 L 208 96 L 208 112 Q 209 119 216 120 L 232 120 Q 239 119 240 112 L 240 96 L 256 96 Q 263 95 264 88 L 264 72 Q 263 65 256 64 L 240 64 L 240 48 Q 239 41 232 40 L 216 40 Q 209 41 208 48 L 208 48 Z"/>
</svg>
