<svg xmlns="http://www.w3.org/2000/svg" viewBox="0 0 452 512">
    <path d="M 226 0 Q 240 0 249 9 L 249 9 Q 258 18 258 32 L 258 200 L 402 116 Q 414 110 426 113 Q 439 116 446 128 Q 452 140 449 152 Q 446 165 434 172 L 290 256 L 434 340 Q 446 348 449 360 Q 452 372 446 384 Q 438 396 426 399 Q 414 402 402 396 L 258 312 L 258 480 Q 258 494 249 503 Q 240 512 226 512 Q 212 512 203 503 Q 194 494 194 480 L 194 312 L 50 396 Q 38 402 26 399 Q 13 396 6 384 Q 0 372 3 360 Q 6 347 18 340 L 163 256 L 18 172 Q 6 164 3 152 Q 0 140 6 128 Q 14 116 26 113 Q 38 110 50 116 L 194 200 L 194 32 Q 194 18 203 9 Q 212 0 226 0 L 226 0 Z"/>
</svg>
