<svg xmlns="http://www.w3.org/2000/svg" viewBox="0 0 512 256">
    <path d="M 224 0 L 96 0 Q 82 0 73 9 Q 64 18 64 32 Q 64 46 73 55 Q 82 64 96 64 L 224 64 L 224 0 L 224 0 Z M 224 96 L 32 96 Q 18 96 9 105 Q 0 114 0 128 Q 0 142 9 151 Q 18 160 32 160 L 224 160 L 224 96 L 224 96 Z M 288 160 L 480 160 Q 494 160 503 151 Q 512 142 512 128 Q 512 114 503 105 Q 494 96 480 96 L 288 96 L 288 160 L 288 160 Z M 224 192 L 128 192 Q 114 192 105 201 Q 96 210 96 224 Q 96 238 105 247 Q 114 256 128 256 L 224 256 L 224 192 L 224 192 Z M 288 256 L 384 256 Q 398 256 407 247 Q 416 238 416 224 Q 416 210 407 201 Q 398 192 384 192 L 288 192 L 288 256 L 288 256 Z M 288 64 L 416 64 Q 430 64 439 55 Q 448 46 448 32 Q 448 18 439 9 Q 430 0 416 0 L 288 0 L 288 64 L 288 64 Z"/>
</svg>
