<svg xmlns="http://www.w3.org/2000/svg" viewBox="0 0 256 192">
    <path d="M 16 0 Q 1 1 0 16 L 0 48 Q 1 63 16 64 L 48 64 Q 63 63 64 48 L 64 16 Q 63 1 48 0 L 16 0 L 16 0 Z M 16 128 Q 1 129 0 144 L 0 176 Q 1 191 16 192 L 48 192 Q 63 191 64 176 L 64 144 Q 63 129 48 128 L 16 128 L 16 128 Z M 112 128 Q 97 129 96 144 L 96 176 Q 97 191 112 192 L 144 192 Q 159 191 160 176 L 160 144 Q 159 129 144 128 L 112 128 L 112 128 Z M 192 144 L 192 176 Q 193 191 208 192 L 240 192 Q 255 191 256 176 L 256 144 Q 255 129 240 128 L 208 128 Q 193 129 192 144 L 192 144 Z M 96 16 L 96 48 Q 97 63 112 64 L 144 64 Q 159 63 160 48 L 160 16 Q 159 1 144 0 L 112 0 Q 97 1 96 16 L 96 16 Z M 208 0 Q 193 1 192 16 L 192 48 Q 193 63 208 64 L 240 64 Q 255 63 256 48 L 256 16 Q 255 1 240 0 L 208 0 L 208 0 Z"/>
</svg>
