<svg xmlns="http://www.w3.org/2000/svg" viewBox="0 0 523 453">
    <path d="M 473 16 Q 485 0 504 8 Q 522 19 515 39 L 378 344 Q 381 347 384 351 L 481 296 Q 499 288 512 302 Q 523 319 510 334 L 419 425 Q 421 439 421 453 L 357 453 Q 356 412 329 385 Q 302 358 261 357 Q 220 358 193 385 Q 166 412 165 453 L 101 453 Q 101 441 103 429 L 15 369 Q 0 356 7 338 Q 17 322 36 326 L 133 356 Q 138 351 143 345 L 80 241 Q 72 224 86 211 Q 101 199 117 211 L 219 299 Q 220 298 221 298 Q 222 298 224 298 L 237 155 Q 241 135 261 133 Q 281 135 285 155 L 298 297 L 473 16 L 473 16 Z M 261 5 Q 283 7 285 29 L 285 77 Q 283 99 261 101 Q 239 99 237 77 L 237 29 Q 239 7 261 5 L 261 5 Z"/>
</svg>
