<svg xmlns="http://www.w3.org/2000/svg" viewBox="0 0 480 384">
    <path d="M 96 64 Q 82 64 73 73 L 73 73 Q 64 82 64 96 L 64 160 Q 64 174 55 183 Q 46 192 32 192 Q 18 192 9 183 Q 0 174 0 160 L 0 96 Q 1 55 28 28 Q 55 1 96 0 L 121 0 L 192 0 L 455 0 Q 478 2 480 25 Q 480 32 477 38 L 416 144 L 160 144 L 114 64 L 96 64 L 96 64 Z M 448 312 Q 447 333 438 351 L 438 351 Q 428 370 415 384 L 162 384 Q 148 370 138 351 Q 129 333 128 312 L 128 296 Q 128 292 128 288 L 448 288 Q 448 292 448 296 L 448 312 L 448 312 Z"/>
</svg>
