<svg xmlns="http://www.w3.org/2000/svg" viewBox="0 0 256 256">
    <path d="M 32 64 Q 46 64 55 55 L 55 55 Q 64 46 64 32 Q 64 18 55 9 Q 46 0 32 0 Q 18 0 9 9 Q 0 18 0 32 Q 0 46 9 55 Q 18 64 32 64 L 32 64 Z M 32 256 Q 46 256 55 247 L 55 247 Q 64 238 64 224 Q 64 210 55 201 Q 46 192 32 192 Q 18 192 9 201 Q 0 210 0 224 Q 0 238 9 247 Q 18 256 32 256 L 32 256 Z M 256 32 Q 256 18 247 9 L 247 9 Q 238 0 224 0 Q 210 0 201 9 Q 192 18 192 32 Q 192 46 201 55 Q 210 64 224 64 Q 238 64 247 55 Q 256 46 256 32 L 256 32 Z M 224 256 Q 238 256 247 247 L 247 247 Q 256 238 256 224 Q 256 210 247 201 Q 238 192 224 192 Q 210 192 201 201 Q 192 210 192 224 Q 192 238 201 247 Q 210 256 224 256 L 224 256 Z"/>
</svg>
