<svg xmlns="http://www.w3.org/2000/svg" viewBox="0 0 480 489">
    <path d="M 208 0 L 38 72 Q 21 79 11 94 Q 0 109 0 129 Q 0 139 1 149 L 176 149 Q 190 149 199 140 Q 208 131 208 117 L 208 0 L 208 0 Z M 9 213 Q 22 287 68 363 L 68 363 Q 114 440 208 489 L 208 245 Q 208 231 199 222 Q 190 213 176 213 L 9 213 L 9 213 Z M 272 489 Q 366 440 412 363 L 412 363 Q 458 287 471 213 L 304 213 Q 290 213 281 222 Q 272 231 272 245 L 272 489 L 272 489 Z M 479 149 Q 480 138 480 129 Q 480 109 469 94 Q 459 79 442 72 L 272 0 L 272 117 Q 272 131 281 140 Q 290 149 304 149 L 479 149 L 479 149 Z"/>
</svg>
