<svg xmlns="http://www.w3.org/2000/svg" viewBox="0 0 300 450">
    <path d="M 300 160 L 140 0 L 140 128 Q 140 142 149 151 Q 158 160 172 160 L 300 160 L 300 160 Z M 20 196 Q 2 198 0 216 L 0 296 L 0 360 Q 2 378 20 380 Q 38 378 40 360 L 40 316 L 60 316 Q 61 317 62 319 L 127 379 L 95 409 Q 82 423 93 438 Q 107 450 122 439 L 157 407 L 190 439 Q 205 450 219 438 Q 230 423 218 409 L 186 380 L 218 351 Q 230 337 219 323 Q 205 310 191 321 L 157 352 L 114 312 Q 131 305 141 290 Q 152 275 152 256 Q 151 231 134 214 Q 117 197 92 196 L 20 196 L 20 196 Z M 92 276 L 40 276 L 40 236 L 92 236 Q 110 238 112 256 Q 110 274 92 276 L 92 276 Z"/>
</svg>
