<svg xmlns="http://www.w3.org/2000/svg" viewBox="0 0 517 517">
    <path d="M 12 12 Q 26 0 43 9 L 206 121 L 238 22 Q 244 6 261 5 Q 278 6 284 22 L 318 128 L 389 102 Q 403 98 414 108 Q 424 119 420 133 L 394 204 L 500 238 Q 516 244 517 261 Q 516 278 500 284 L 397 317 L 450 418 Q 457 433 446 446 Q 433 457 418 450 L 317 397 L 284 500 Q 278 516 261 517 Q 244 516 238 500 L 205 397 L 104 450 Q 89 457 76 446 Q 65 433 72 418 L 125 317 L 22 284 Q 6 278 5 261 Q 6 244 22 238 L 121 206 L 9 43 Q 0 26 12 12 L 12 12 Z M 290 191 L 261 101 L 232 191 L 101 101 L 191 232 L 101 261 L 191 290 L 145 377 L 232 331 L 261 421 L 290 331 L 377 377 L 331 290 L 421 261 L 331 232 L 355 167 L 290 191 L 290 191 Z"/>
</svg>
