<svg xmlns="http://www.w3.org/2000/svg" viewBox="0 0 576 448">
    <path d="M 64 0 Q 37 1 19 19 L 19 19 Q 1 37 0 64 L 0 384 Q 1 411 19 429 Q 37 447 64 448 L 512 448 Q 539 447 557 429 Q 575 411 576 384 L 576 64 Q 575 37 557 19 Q 539 1 512 0 L 64 0 L 64 0 Z M 192 160 Q 165 161 147 179 L 147 179 Q 129 197 128 224 Q 129 251 147 269 Q 165 287 192 288 Q 210 288 224 279 L 224 248 L 184 248 Q 169 247 168 232 Q 169 217 184 216 L 240 216 Q 255 217 256 232 L 256 288 Q 256 296 250 301 Q 225 319 192 320 Q 151 319 124 292 Q 97 265 96 224 Q 97 183 124 156 Q 151 129 192 128 Q 225 129 250 147 Q 261 157 253 170 Q 243 181 230 173 Q 214 160 192 160 L 192 160 Z M 304 128 Q 319 129 320 144 L 320 304 Q 319 319 304 320 Q 289 319 288 304 L 288 144 Q 289 129 304 128 L 304 128 Z M 352 144 Q 353 129 368 128 L 464 128 Q 479 129 480 144 Q 479 159 464 160 L 384 160 L 384 208 L 448 208 Q 463 209 464 224 Q 463 239 448 240 L 384 240 L 384 304 Q 383 319 368 320 Q 353 319 352 304 L 352 224 L 352 144 L 352 144 Z"/>
</svg>
