<svg xmlns="http://www.w3.org/2000/svg" viewBox="0 0 512 347">
    <path d="M 0 27 Q 0 13 15 0 Q 18 4 22 7 Q 39 21 61 30 Q 63 31 64 32 Q 64 32 64 32 Q 64 32 64 32 L 64 80 Q 2 58 0 27 L 0 27 Z M 512 27 Q 510 58 447 80 L 447 80 Q 384 102 286 107 Q 288 99 288 91 L 288 59 Q 288 59 288 59 Q 289 58 289 58 Q 376 54 435 36 Q 463 26 484 12 Q 491 7 497 0 Q 512 13 512 27 L 512 27 Z M 64 114 L 64 139 Q 64 151 68 161 Q 2 139 0 107 Q 0 97 7 88 Q 31 103 64 114 L 64 114 Z M 175 183 Q 189 168 192 146 Q 206 155 224 155 Q 249 154 266 139 Q 372 137 447 114 Q 480 104 505 88 Q 512 97 512 107 Q 509 141 437 164 Q 365 186 256 187 Q 213 187 175 183 L 175 183 Z M 505 168 Q 512 177 512 187 Q 509 221 437 244 Q 365 266 256 267 Q 147 266 75 244 Q 3 221 0 187 Q 0 177 7 168 Q 32 184 66 194 Q 144 218 256 219 Q 368 218 447 194 Q 480 184 505 168 L 505 168 Z M 505 248 Q 512 257 512 267 Q 509 301 437 324 Q 365 346 256 347 Q 147 346 75 324 Q 3 301 0 267 Q 0 257 7 248 Q 32 264 66 274 Q 144 298 256 299 Q 368 298 447 274 Q 480 264 505 248 L 505 248 Z"/>
</svg>
