<svg xmlns="http://www.w3.org/2000/svg" viewBox="0 0 384 512">
    <path d="M 0 64 Q 1 37 19 19 L 19 19 Q 37 1 64 0 L 224 0 L 224 128 Q 224 142 233 151 Q 242 160 256 160 L 384 160 L 384 448 Q 383 475 365 493 Q 347 511 320 512 L 64 512 Q 37 511 19 493 Q 1 475 0 448 L 0 64 L 0 64 Z M 192 192 Q 170 194 168 216 L 168 328 Q 170 350 192 352 Q 214 350 216 328 L 216 216 Q 214 194 192 192 L 192 192 Z M 224 416 Q 224 402 215 393 L 215 393 Q 206 384 192 384 Q 178 384 169 393 Q 160 402 160 416 Q 160 430 169 439 Q 178 448 192 448 Q 206 448 215 439 Q 224 430 224 416 L 224 416 Z"/>
</svg>
