<svg xmlns="http://www.w3.org/2000/svg" viewBox="0 0 512 384">
    <path d="M 512 64 Q 512 78 503 87 L 503 87 Q 494 96 480 96 L 272 96 L 272 32 L 480 32 Q 494 32 503 41 Q 512 50 512 64 L 512 64 Z M 200 224 L 201 224 Q 192 238 192 256 Q 192 276 203 292 Q 184 298 172 315 Q 160 331 160 352 Q 160 370 169 384 L 160 384 Q 92 382 47 337 Q 2 292 0 224 L 0 162 Q 1 96 47 49 L 59 38 Q 96 1 149 0 L 176 0 Q 203 1 221 19 Q 239 37 240 64 L 240 152 Q 240 169 228 180 Q 217 192 200 192 Q 183 192 172 180 Q 160 169 160 152 L 160 96 Q 159 81 144 80 Q 129 81 128 96 L 128 152 Q 129 183 149 203 Q 169 223 200 224 L 200 224 Z"/>
</svg>
