<svg xmlns="http://www.w3.org/2000/svg" viewBox="0 0 582 374">
    <path d="M 154 145 Q 176 155 201 144 L 201 144 Q 227 133 244 105 Q 261 76 259 50 Q 256 23 236 11 Q 214 0 189 12 Q 163 23 146 51 Q 129 80 131 106 Q 134 133 154 145 L 154 145 Z M 428 145 Q 448 133 451 106 L 451 106 Q 453 80 436 51 Q 419 23 393 12 Q 368 0 346 11 Q 326 23 323 50 Q 321 76 338 105 Q 355 133 381 144 Q 406 155 428 145 L 428 145 Z M 74 192 Q 50 174 23 189 Q 7 199 4 216 Q 0 233 10 248 Q 30 278 42 307 Q 53 337 53 374 L 163 374 Q 158 322 136 274 Q 115 227 74 192 L 74 192 Z M 560 189 Q 532 174 508 192 Q 467 227 446 274 Q 424 322 419 374 L 529 374 Q 529 337 540 307 Q 552 278 572 248 Q 582 233 578 216 Q 575 199 560 189 L 560 189 Z"/>
</svg>
