<svg xmlns="http://www.w3.org/2000/svg" viewBox="0 0 448 417">
    <path d="M 183 0 Q 207 0 224 15 Q 241 0 265 0 Q 287 0 303 12 Q 319 24 326 43 Q 334 40 344 40 Q 371 41 389 59 Q 407 77 408 104 Q 408 114 405 122 Q 424 129 436 145 Q 448 161 448 183 Q 447 207 433 224 Q 447 241 448 265 Q 448 287 436 303 Q 424 319 405 326 Q 408 334 408 344 Q 407 371 389 389 Q 371 407 344 408 Q 334 408 326 405 Q 323 412 320 417 L 320 404 Q 318 386 300 384 Q 296 384 292 386 L 224 416 L 156 386 Q 152 384 148 384 Q 130 386 128 404 L 128 417 Q 125 412 122 405 Q 113 408 104 408 Q 77 407 59 389 Q 41 371 40 344 Q 40 334 43 326 Q 24 319 12 303 Q 0 287 0 265 Q 0 241 15 224 Q 0 207 0 183 Q 0 161 12 145 Q 24 129 43 122 Q 40 114 40 104 Q 41 77 59 59 Q 77 41 104 40 Q 114 40 122 43 Q 129 24 145 12 Q 161 0 183 0 L 183 0 Z M 203 142 Q 194 152 181 152 Q 168 151 160 160 Q 151 168 152 181 Q 152 194 142 203 Q 133 212 133 224 Q 133 236 142 245 Q 152 254 152 267 Q 151 280 160 288 Q 168 296 181 296 Q 194 296 203 306 Q 212 315 224 315 Q 236 315 245 306 Q 254 296 267 296 Q 280 297 288 288 Q 296 280 296 267 Q 296 254 306 245 Q 315 236 315 224 Q 315 212 306 203 Q 296 194 296 181 Q 297 168 288 160 Q 280 151 267 152 Q 254 152 245 142 Q 236 133 224 133 Q 212 133 203 142 L 203 142 Z"/>
</svg>
