<svg xmlns="http://www.w3.org/2000/svg" viewBox="0 0 576 448">
    <path d="M 64 0 Q 37 1 19 19 L 19 19 Q 1 37 0 64 L 0 384 Q 1 411 19 429 Q 37 447 64 448 L 512 448 Q 539 447 557 429 Q 575 411 576 384 L 576 64 Q 575 37 557 19 Q 539 1 512 0 L 64 0 L 64 0 Z M 304 152 Q 306 130 328 128 L 384 128 Q 425 129 452 156 Q 479 183 480 224 Q 479 265 452 292 Q 425 319 384 320 L 328 320 Q 306 318 304 296 L 304 152 L 304 152 Z M 352 176 L 352 272 L 384 272 Q 404 271 418 258 Q 431 244 432 224 Q 431 204 418 190 Q 404 177 384 176 L 352 176 L 352 176 Z M 159 184 Q 159 188 159 188 L 159 188 Q 159 188 159 188 L 159 188 Q 159 188 159 188 Q 159 189 163 192 Q 173 197 197 202 L 199 203 L 199 203 Q 199 203 200 203 Q 222 207 244 218 Q 256 225 264 239 Q 272 254 269 271 Q 267 288 256 300 Q 245 311 231 315 Q 204 322 175 317 L 175 317 L 175 317 Q 166 316 155 313 Q 144 310 135 307 L 135 307 L 135 307 L 135 307 Q 132 306 130 306 Q 111 298 115 278 Q 122 259 142 263 Q 144 263 146 264 Q 148 264 149 265 Q 150 265 151 265 Q 169 271 181 273 Q 206 276 218 272 Q 223 270 224 269 Q 224 268 225 265 Q 226 260 225 260 Q 225 260 225 260 L 225 260 Q 225 260 225 260 Q 225 259 221 257 Q 211 251 187 246 L 185 246 L 185 246 Q 185 245 184 245 Q 162 241 140 230 Q 128 223 120 209 Q 112 195 115 177 Q 115 177 115 176 Q 115 176 115 176 Q 124 142 153 134 Q 180 126 209 131 Q 214 132 224 133 Q 234 135 239 136 Q 259 143 256 163 Q 250 182 229 180 Q 225 179 217 178 Q 208 176 204 176 Q 178 172 167 176 Q 160 178 159 184 L 159 184 Z"/>
</svg>
