<svg xmlns="http://www.w3.org/2000/svg" viewBox="0 0 448 512">
    <path d="M 352 80 L 352 128 L 320 128 L 304 128 L 144 128 L 128 128 L 96 128 L 96 80 L 96 42 L 96 42 L 96 39 L 96 16 Q 97 1 112 0 L 114 0 Q 120 0 124 4 L 140 16 L 143 18 Q 143 19 144 19 L 144 19 Q 161 30 179 21 L 209 4 Q 216 0 224 0 Q 232 0 239 4 L 269 21 Q 287 31 304 19 L 304 19 Q 305 19 305 19 L 308 16 L 324 4 Q 328 0 334 0 L 336 0 Q 351 1 352 16 L 352 39 L 352 42 L 352 42 L 352 80 L 352 80 Z M 0 472 Q 2 401 49 353 L 49 353 Q 97 306 168 304 L 280 304 Q 351 306 399 353 Q 446 401 448 472 L 448 480 Q 448 494 439 503 Q 430 512 416 512 L 32 512 Q 18 512 9 503 Q 0 494 0 480 L 0 472 L 0 472 Z"/>
</svg>
