<svg xmlns="http://www.w3.org/2000/svg" viewBox="0 0 224 224">
    <path d="M 80 16 Q 79 1 64 0 Q 49 1 48 16 L 48 48 L 16 48 Q 1 49 0 64 Q 1 79 16 80 L 48 80 L 48 144 L 16 144 Q 1 145 0 160 Q 1 175 16 176 L 48 176 L 48 208 Q 49 223 64 224 Q 79 223 80 208 L 80 176 L 144 176 L 144 208 Q 145 223 160 224 Q 175 223 176 208 L 176 176 L 208 176 Q 223 175 224 160 Q 223 145 208 144 L 176 144 L 176 80 L 208 80 Q 223 79 224 64 Q 223 49 208 48 L 176 48 L 176 16 Q 175 1 160 0 Q 145 1 144 16 L 144 48 L 80 48 L 80 16 L 80 16 Z M 144 144 L 80 144 L 80 80 L 144 80 L 144 144 L 144 144 Z"/>
</svg>
