<svg xmlns="http://www.w3.org/2000/svg" viewBox="0 0 288 448">
    <path d="M 0 416 Q 0 430 9 439 L 9 439 Q 18 448 32 448 L 64 448 Q 78 448 87 439 Q 96 430 96 416 Q 96 402 87 393 Q 78 384 64 384 L 32 384 Q 18 384 9 393 Q 0 402 0 416 L 0 416 Z M 0 288 Q 0 302 9 311 L 9 311 Q 18 320 32 320 L 128 320 Q 142 320 151 311 Q 160 302 160 288 Q 160 274 151 265 Q 142 256 128 256 L 32 256 Q 18 256 9 265 Q 0 274 0 288 L 0 288 Z M 0 160 Q 0 174 9 183 L 9 183 Q 18 192 32 192 L 192 192 Q 206 192 215 183 Q 224 174 224 160 Q 224 146 215 137 Q 206 128 192 128 L 32 128 Q 18 128 9 137 Q 0 146 0 160 L 0 160 Z M 0 32 Q 0 46 9 55 L 9 55 Q 18 64 32 64 L 256 64 Q 270 64 279 55 Q 288 46 288 32 Q 288 18 279 9 Q 270 0 256 0 L 32 0 Q 18 0 9 9 Q 0 18 0 32 L 0 32 Z"/>
</svg>
