<svg xmlns="http://www.w3.org/2000/svg" viewBox="0 0 448 448">
    <path d="M 200 0 L 0 0 L 0 288 L 448 288 L 448 0 L 248 0 L 248 142 L 287 103 Q 304 89 321 103 Q 335 120 321 137 L 241 217 Q 224 231 207 217 L 127 137 Q 113 120 127 103 Q 144 89 161 103 L 200 142 L 200 0 L 200 0 Z M 283 384 L 272 352 L 176 352 L 165 384 L 96 384 Q 82 384 73 393 Q 64 402 64 416 Q 64 430 73 439 Q 82 448 96 448 L 352 448 Q 366 448 375 439 Q 384 430 384 416 Q 384 402 375 393 Q 366 384 352 384 L 283 384 L 283 384 Z"/>
</svg>
