<svg xmlns="http://www.w3.org/2000/svg" viewBox="0 0 384 448">
    <path d="M 64 64 L 64 96 Q 64 110 55 119 Q 46 128 32 128 Q 18 128 9 119 Q 0 110 0 96 L 0 48 Q 1 28 14 14 Q 28 1 48 0 L 192 0 L 336 0 Q 356 1 370 14 Q 383 28 384 48 L 384 96 Q 384 110 375 119 Q 366 128 352 128 Q 338 128 329 119 Q 320 110 320 96 L 320 64 L 224 64 L 224 384 L 256 384 Q 270 384 279 393 Q 288 402 288 416 Q 288 430 279 439 Q 270 448 256 448 L 128 448 Q 114 448 105 439 Q 96 430 96 416 Q 96 402 105 393 Q 114 384 128 384 L 160 384 L 160 64 L 64 64 L 64 64 Z"/>
</svg>
