<svg xmlns="http://www.w3.org/2000/svg" viewBox="0 0 512 512">
    <path d="M 0 256 Q 1 186 34 128 L 34 128 Q 68 70 128 34 Q 189 0 256 0 Q 323 0 384 34 Q 444 70 478 128 Q 511 186 512 256 Q 511 326 478 384 Q 444 442 384 478 Q 323 512 256 512 Q 189 512 128 478 Q 68 442 34 384 Q 1 326 0 256 L 0 256 Z M 155 155 Q 199 114 256 114 L 256 114 Q 313 114 357 155 Q 398 199 398 256 Q 398 313 357 357 Q 347 368 357 379 Q 368 389 379 379 Q 430 326 430 256 Q 430 186 379 133 Q 326 82 256 82 Q 186 82 133 133 Q 123 144 133 155 Q 144 165 155 155 L 155 155 Z M 235 213 Q 224 203 213 213 Q 203 224 213 235 L 277 299 Q 288 309 299 299 Q 309 288 299 277 L 235 213 L 235 213 Z M 155 229 Q 144 219 133 229 Q 123 240 133 251 L 261 379 Q 272 389 283 379 Q 293 368 283 357 L 155 229 L 155 229 Z M 117 309 Q 107 320 117 331 L 181 395 Q 192 405 203 395 Q 213 384 203 373 L 139 309 Q 128 299 117 309 L 117 309 Z"/>
</svg>
