<svg xmlns="http://www.w3.org/2000/svg" viewBox="0 0 320 256">
    <path d="M 64 64 L 64 80 Q 64 94 55 103 Q 46 112 32 112 Q 18 112 9 103 Q 0 94 0 80 L 0 48 Q 1 28 14 14 Q 28 1 48 0 L 272 0 Q 292 1 306 14 Q 319 28 320 48 L 320 80 Q 320 94 311 103 Q 302 112 288 112 Q 274 112 265 103 Q 256 94 256 80 L 256 64 L 192 64 L 192 192 L 208 192 Q 222 192 231 201 Q 240 210 240 224 Q 240 238 231 247 Q 222 256 208 256 L 112 256 Q 98 256 89 247 Q 80 238 80 224 Q 80 210 89 201 Q 98 192 112 192 L 128 192 L 128 64 L 64 64 L 64 64 Z"/>
</svg>
