<svg xmlns="http://www.w3.org/2000/svg" viewBox="0 0 576 160">
    <path d="M 298 30 Q 297 30 297 31 L 297 31 Q 292 34 288 37 Q 284 34 278 30 Q 265 20 244 10 Q 224 1 200 0 Q 168 2 139 19 Q 108 36 78 59 Q 49 82 28 105 Q 17 117 10 129 Q 2 140 0 160 L 64 160 Q 64 153 99 141 Q 133 130 203 128 Q 208 128 213 130 Q 224 133 246 138 Q 268 143 288 144 Q 308 143 330 138 Q 352 133 363 130 Q 368 128 373 128 Q 443 130 477 141 Q 512 153 512 160 L 576 160 Q 574 140 566 129 Q 559 117 548 105 Q 527 82 498 59 Q 468 36 437 19 Q 408 2 376 0 Q 352 1 332 10 Q 311 20 298 30 L 298 30 Z"/>
</svg>
