<svg xmlns="http://www.w3.org/2000/svg" viewBox="0 0 578 424">
    <path d="M 310 16 Q 289 0 268 16 L 12 240 Q 2 249 1 262 Q 0 275 9 285 Q 18 295 31 296 Q 44 297 54 288 L 289 83 L 524 288 Q 534 297 547 296 Q 560 295 569 285 Q 578 275 577 262 Q 576 249 566 240 L 310 16 L 310 16 Z M 257 248 L 257 296 L 209 296 Q 194 297 193 312 L 193 344 Q 194 359 209 360 L 257 360 L 257 408 Q 258 423 273 424 L 305 424 Q 320 423 321 408 L 321 360 L 369 360 Q 384 359 385 344 L 385 312 Q 384 297 369 296 L 321 296 L 321 248 Q 320 233 305 232 L 273 232 Q 258 233 257 248 L 257 248 Z"/>
</svg>
