<svg xmlns="http://www.w3.org/2000/svg" viewBox="0 0 485 517">
    <path d="M 229 0 Q 277 1 308 33 L 308 33 Q 340 64 341 112 L 341 113 Q 357 73 396 49 Q 410 42 418 55 L 426 68 Q 444 101 443 136 Q 442 171 424 200 Q 445 192 469 192 Q 484 194 485 208 L 485 224 Q 485 261 466 291 Q 448 321 417 337 Q 440 341 460 353 Q 472 361 466 375 L 458 388 Q 431 433 385 447 Q 339 461 293 440 Q 285 446 277 451 Q 228 432 177 432 L 165 432 Q 240 430 289 381 Q 339 331 341 256 Q 340 194 304 144 Q 258 141 228 110 Q 198 78 197 32 L 197 16 Q 198 1 213 0 L 229 0 L 229 0 Z M 54 450 Q 104 479 165 480 L 153 480 Q 99 480 50 505 L 40 510 Q 19 517 8 499 Q 0 478 18 467 L 28 462 Q 41 455 53 450 L 54 450 Z"/>
</svg>
