<svg xmlns="http://www.w3.org/2000/svg" viewBox="0 0 448 416">
    <path d="M 128 32 L 53 32 Q 37 33 31 46 Q 25 59 35 72 L 56 96 L 392 96 L 413 72 Q 423 59 417 46 Q 411 33 395 32 L 320 32 Q 320 18 311 9 Q 302 0 288 0 L 160 0 Q 146 0 137 9 Q 128 18 128 32 L 128 32 Z M 416 128 L 32 128 Q 18 128 9 137 Q 0 146 0 160 L 0 284 Q 0 304 12 321 L 63 393 Q 66 394 69 396 Q 93 413 120 416 L 137 416 Q 164 412 187 396 Q 204 384 224 384 Q 244 384 261 396 Q 285 413 312 416 L 328 416 Q 355 413 379 396 Q 382 394 385 393 L 436 321 Q 448 304 448 284 L 448 160 Q 448 146 439 137 Q 430 128 416 128 L 416 128 Z M 384 192 L 384 288 L 64 288 L 64 192 L 384 192 L 384 192 Z"/>
</svg>
