<svg xmlns="http://www.w3.org/2000/svg" viewBox="0 0 578 456">
    <path d="M 310 16 Q 289 0 268 16 L 12 240 Q 2 249 1 262 Q 0 275 9 285 Q 18 295 31 296 Q 44 297 54 288 L 289 83 L 524 288 Q 534 297 547 296 Q 560 295 569 285 Q 578 275 577 262 Q 576 249 566 240 L 513 194 L 513 72 Q 513 58 504 49 Q 495 40 481 40 L 449 40 Q 435 40 426 49 Q 417 58 417 72 L 417 110 L 310 16 L 310 16 Z M 353 264 Q 352 228 321 209 Q 289 191 257 209 Q 226 228 225 264 Q 226 300 257 319 Q 289 337 321 319 Q 352 300 353 264 L 353 264 Z M 257 360 Q 223 361 200 383 L 200 383 Q 178 406 177 440 Q 178 455 193 456 L 385 456 Q 400 455 401 440 Q 400 406 378 383 Q 355 361 321 360 L 257 360 L 257 360 Z"/>
</svg>
