<svg xmlns="http://www.w3.org/2000/svg" viewBox="0 0 580 514">
    <path d="M 290 0 Q 276 0 267 9 L 267 9 Q 258 18 258 32 L 258 69 Q 229 78 209 100 Q 189 122 182 152 L 155 288 L 425 288 L 398 153 Q 391 122 371 100 Q 351 78 322 69 L 322 32 Q 322 18 313 9 Q 304 0 290 0 L 290 0 Z M 309 422 Q 290 410 272 422 Q 237 447 194 448 Q 152 446 117 422 L 117 422 Q 96 409 77 424 Q 55 442 27 449 Q 14 452 7 463 Q 0 474 3 487 Q 6 500 17 507 Q 28 514 41 511 Q 79 501 100 486 Q 144 511 194 512 Q 243 509 274 493 Q 283 489 290 485 Q 297 489 306 493 Q 337 509 386 512 Q 436 511 481 486 Q 501 501 539 511 Q 552 514 563 507 Q 574 500 577 487 Q 580 474 573 463 Q 566 452 553 449 Q 525 442 503 424 Q 484 410 463 422 L 463 422 Q 428 446 386 448 Q 344 447 309 422 L 309 422 Z"/>
</svg>
