<svg xmlns="http://www.w3.org/2000/svg" viewBox="0 0 496 432">
    <path d="M 408 16 L 408 40 L 384 40 Q 369 41 368 56 L 368 72 Q 369 87 384 88 L 408 88 L 408 112 Q 409 127 424 128 L 440 128 Q 455 127 456 112 L 456 88 L 480 88 Q 495 87 496 72 L 496 56 Q 495 41 480 40 L 456 40 L 456 16 Q 455 1 440 0 L 424 0 Q 409 1 408 16 L 408 16 Z M 48 16 Q 28 17 14 30 L 14 30 Q 1 44 0 64 L 0 304 L 144 304 Q 159 305 160 320 Q 159 335 144 336 L 0 336 L 0 384 Q 1 404 14 418 Q 28 431 48 432 L 240 432 Q 260 431 274 418 Q 287 404 288 384 L 288 64 Q 287 44 274 30 Q 260 17 240 16 L 48 16 L 48 16 Z M 136 96 L 152 96 Q 167 97 168 112 L 168 136 L 192 136 Q 207 137 208 152 L 208 168 Q 207 183 192 184 L 168 184 L 168 208 Q 167 223 152 224 L 136 224 Q 121 223 120 208 L 120 184 L 96 184 Q 81 183 80 168 L 80 152 Q 81 137 96 136 L 120 136 L 120 112 Q 121 97 136 96 L 136 96 Z"/>
</svg>
