<svg xmlns="http://www.w3.org/2000/svg" viewBox="0 0 416 384">
    <path d="M 96 384 Q 55 382 28 328 L 28 328 Q 1 274 0 192 Q 1 110 28 56 Q 55 2 96 0 L 416 0 Q 375 2 348 56 Q 321 110 320 192 Q 321 274 348 328 Q 375 382 416 384 L 128 384 L 96 384 L 96 384 Z M 233 257 Q 247 240 233 223 L 202 192 L 233 161 Q 247 144 233 127 Q 216 113 199 127 L 168 158 L 137 127 Q 120 113 103 127 Q 89 144 103 161 L 134 192 L 103 223 Q 89 240 103 257 Q 120 271 137 257 L 168 226 L 199 257 Q 216 271 233 257 L 233 257 Z"/>
</svg>
