<svg xmlns="http://www.w3.org/2000/svg" viewBox="0 0 256 96">
    <path d="M 32 0 Q 46 0 55 9 L 55 9 Q 64 18 64 32 L 64 64 Q 64 78 55 87 Q 46 96 32 96 Q 18 96 9 87 Q 0 78 0 64 L 0 32 Q 0 18 9 9 Q 18 0 32 0 L 32 0 Z M 128 0 Q 142 0 151 9 L 151 9 Q 160 18 160 32 L 160 64 Q 160 78 151 87 Q 142 96 128 96 Q 114 96 105 87 Q 96 78 96 64 L 96 32 Q 96 18 105 9 Q 114 0 128 0 L 128 0 Z M 224 0 Q 238 0 247 9 L 247 9 Q 256 18 256 32 L 256 64 Q 256 78 247 87 Q 238 96 224 96 Q 210 96 201 87 Q 192 78 192 64 L 192 32 Q 192 18 201 9 Q 210 0 224 0 L 224 0 Z"/>
</svg>
