<svg xmlns="http://www.w3.org/2000/svg" viewBox="0 0 448 448">
    <path d="M 64 0 Q 37 1 19 19 L 19 19 Q 1 37 0 64 L 0 384 Q 1 411 19 429 Q 37 447 64 448 L 384 448 Q 411 447 429 429 Q 447 411 448 384 L 448 64 Q 447 37 429 19 Q 411 1 384 0 L 64 0 L 64 0 Z M 224 64 Q 267 64 304 85 L 304 85 Q 341 107 363 144 Q 384 182 384 224 Q 384 266 363 304 Q 341 341 304 363 Q 267 384 224 384 Q 181 384 144 363 Q 107 341 85 304 Q 64 266 64 224 Q 64 182 85 144 Q 107 107 144 85 Q 181 64 224 64 L 224 64 Z"/>
</svg>
