<svg xmlns="http://www.w3.org/2000/svg" viewBox="0 0 459 456">
    <path d="M 184 123 Q 183 151 163 170 L 163 170 Q 143 188 112 189 Q 81 188 61 170 Q 41 151 40 123 Q 42 101 62 68 Q 83 35 100 13 Q 112 0 124 13 Q 141 35 162 68 Q 182 101 184 123 L 184 123 Z M 0 365 Q 1 320 40 296 Q 80 274 120 296 Q 159 320 160 365 Q 159 410 120 434 Q 80 456 40 434 Q 1 410 0 365 L 0 365 Z M 368 285 Q 413 286 437 325 Q 459 365 437 405 Q 413 444 368 445 Q 323 444 299 405 Q 277 365 299 325 Q 323 286 368 285 L 368 285 Z"/>
</svg>
