<svg xmlns="http://www.w3.org/2000/svg" viewBox="0 0 418 354">
    <path d="M 64 0 L 128 0 L 128 128 L 0 128 L 0 64 Q 1 37 19 19 Q 37 1 64 0 L 64 0 Z M 415 214 Q 410 224 400 224 L 384 224 L 384 272 Q 383 292 370 306 Q 356 319 336 320 L 288 320 L 288 336 Q 288 346 278 351 Q 268 354 261 347 L 229 315 Q 219 304 229 293 L 261 261 Q 268 254 278 257 Q 287 262 288 272 L 288 288 L 336 288 Q 351 287 352 272 L 352 224 L 336 224 Q 326 224 321 214 Q 318 204 325 197 L 357 165 Q 368 155 379 165 L 411 197 Q 418 204 415 214 L 415 214 Z"/>
</svg>
