<svg xmlns="http://www.w3.org/2000/svg" viewBox="0 0 512 512">
    <path d="M 296 0 Q 318 2 320 24 L 320 40 Q 320 40 320 41 Q 320 41 320 41 Q 342 48 363 59 Q 363 59 363 58 Q 363 58 364 58 L 375 47 Q 392 33 409 47 L 465 103 Q 479 120 465 137 L 454 149 Q 454 149 453 149 Q 453 149 453 149 Q 464 170 471 192 Q 471 192 471 192 Q 472 192 472 192 L 488 192 Q 510 194 512 216 L 512 296 Q 510 318 488 320 L 472 320 Q 472 320 471 320 Q 471 320 471 320 Q 464 342 453 363 Q 453 363 454 364 L 465 375 Q 479 392 465 409 L 409 465 Q 392 479 375 465 L 364 454 Q 363 454 363 453 Q 342 464 320 471 Q 320 471 320 471 Q 320 472 320 472 L 320 488 Q 318 510 296 512 L 216 512 Q 194 510 192 488 L 192 472 Q 192 472 192 471 Q 192 471 192 471 Q 170 464 149 453 Q 149 453 149 454 Q 149 454 149 454 L 137 465 Q 120 479 103 465 L 47 409 Q 33 392 47 375 L 58 364 Q 58 363 58 363 Q 59 363 59 363 Q 48 342 41 320 Q 41 320 41 320 Q 40 320 40 320 L 24 320 Q 2 318 0 296 L 0 216 Q 2 194 24 192 L 40 192 Q 40 192 41 192 Q 41 192 41 192 Q 48 170 59 149 Q 59 149 59 149 Q 58 149 58 149 L 47 137 Q 33 120 47 103 L 103 47 Q 120 33 137 47 L 149 58 Q 149 58 149 59 Q 170 48 192 41 Q 192 41 192 41 Q 192 40 192 40 L 192 24 Q 194 2 216 0 L 296 0 L 296 0 Z M 384 256 Q 384 221 367 192 L 367 192 Q 350 163 320 145 Q 290 128 256 128 Q 222 128 192 145 Q 162 163 145 192 Q 128 221 128 256 Q 128 291 145 320 Q 162 349 192 367 Q 222 384 256 384 Q 290 384 320 367 Q 350 349 367 320 Q 384 291 384 256 L 384 256 Z"/>
</svg>
