<svg xmlns="http://www.w3.org/2000/svg" viewBox="0 0 384 480">
    <path d="M 48 416 L 32 416 Q 18 416 9 407 Q 0 398 0 384 L 0 75 Q 1 49 24 36 Q 96 0 177 0 L 207 0 Q 288 0 360 36 Q 383 49 384 75 L 384 128 L 363 128 Q 340 128 320 136 L 320 120 Q 318 98 296 96 L 208 96 L 208 224 L 250 224 L 234 273 Q 194 301 192 352 L 192 416 L 128 416 L 128 448 Q 128 462 119 471 Q 110 480 96 480 L 80 480 Q 66 480 57 471 Q 48 462 48 448 L 48 416 L 48 416 Z M 64 120 L 64 200 Q 66 222 88 224 L 176 224 L 176 96 L 88 96 Q 66 98 64 120 L 64 120 Z M 120 320 Q 118 298 96 296 Q 74 298 72 320 Q 74 342 96 344 Q 118 342 120 320 L 120 320 Z"/>
</svg>
