<svg xmlns="http://www.w3.org/2000/svg" viewBox="0 0 496 514">
    <path d="M 336 353 L 160 353 Q 169 408 187 448 Q 203 483 220 499 Q 237 514 248 513 Q 259 514 276 499 Q 293 483 309 448 Q 327 408 336 353 L 336 353 Z M 313 505 Q 282 513 248 513 Q 214 513 183 505 Q 143 451 127 353 L 11 353 Q 4 338 0 321 L 123 321 Q 120 290 120 257 Q 120 224 123 193 L 0 193 Q 4 176 11 161 L 127 161 Q 143 63 183 9 Q 214 1 248 1 Q 237 0 220 15 Q 203 31 187 66 Q 169 106 160 161 L 336 161 Q 327 106 309 66 Q 293 31 276 15 Q 259 0 248 1 Q 282 1 313 9 Q 353 63 369 161 L 485 161 Q 492 176 496 193 L 373 193 Q 376 224 376 257 Q 376 290 373 321 L 496 321 Q 492 338 485 353 L 369 353 Q 353 451 313 505 L 313 505 Z M 344 257 Q 344 224 341 193 L 155 193 Q 152 224 152 257 Q 152 290 155 321 L 341 321 Q 344 290 344 257 L 344 257 Z"/>
</svg>
