<svg xmlns="http://www.w3.org/2000/svg" viewBox="0 0 512 512">
    <path d="M 448 256 Q 446 338 392 392 L 392 392 Q 338 446 256 448 Q 250 448 244 448 L 226 510 Q 241 512 256 512 Q 328 511 385 477 Q 443 443 477 385 Q 511 328 512 256 Q 511 184 477 127 Q 443 69 385 35 Q 328 1 256 0 Q 184 1 127 35 Q 69 69 35 127 Q 1 184 0 256 Q 0 271 2 286 L 64 268 Q 64 262 64 256 Q 66 174 120 120 Q 174 66 256 64 Q 338 66 392 120 Q 446 174 448 256 L 448 256 Z M 400 256 Q 398 195 358 154 L 358 154 Q 317 114 256 112 Q 195 113 155 153 Q 114 193 112 254 L 179 234 Q 187 208 207 192 Q 228 176 256 176 Q 290 177 313 199 Q 335 222 336 256 Q 336 284 320 305 Q 304 325 278 333 L 258 400 Q 319 398 359 357 Q 399 317 400 256 L 400 256 Z"/>
</svg>
