<svg xmlns="http://www.w3.org/2000/svg" viewBox="0 0 496 198">
    <path d="M 0 24 L 0 104 L 0 168 Q 2 190 24 192 Q 46 190 48 168 L 48 128 L 80 128 Q 107 127 125 109 Q 143 91 144 64 Q 143 37 125 19 Q 107 1 80 0 L 24 0 Q 2 2 0 24 L 0 24 Z M 48 80 L 48 48 L 80 48 Q 95 49 96 64 Q 95 79 80 80 L 48 80 L 48 80 Z M 160 24 L 160 104 L 160 168 Q 162 190 184 192 Q 206 190 208 168 L 208 128 L 227 128 L 260 181 Q 273 198 293 188 Q 310 175 300 155 L 276 117 Q 303 98 304 64 Q 303 37 285 19 Q 267 1 240 0 L 184 0 Q 162 2 160 24 L 160 24 Z M 208 80 L 208 48 L 240 48 Q 255 49 256 64 Q 255 79 240 80 L 208 80 L 208 80 Z M 408 0 Q 371 1 346 26 L 346 26 Q 321 51 320 88 L 320 104 Q 321 141 346 166 Q 371 191 408 192 Q 445 191 470 166 Q 495 141 496 104 L 496 88 Q 495 51 470 26 Q 445 1 408 0 L 408 0 Z M 368 88 Q 368 71 380 60 L 380 60 Q 391 48 408 48 Q 425 48 436 60 Q 448 71 448 88 L 448 104 Q 448 121 436 132 Q 425 144 408 144 Q 391 144 380 132 Q 368 121 368 104 L 368 88 L 368 88 Z"/>
</svg>
