<svg xmlns="http://www.w3.org/2000/svg" viewBox="0 0 174 439">
    <path d="M 161 47 Q 174 29 159 13 Q 141 0 125 15 L 70 76 L 48 54 Q 31 40 14 54 Q 0 71 14 88 L 54 128 Q 61 135 72 135 Q 82 134 89 127 L 161 47 L 161 47 Z M 161 207 Q 174 189 159 173 Q 141 160 125 175 L 70 236 L 48 214 Q 31 200 14 214 Q 0 231 14 248 L 54 288 Q 61 295 72 295 Q 82 294 89 287 L 161 207 L 161 207 Z M 55 439 Q 82 438 97 415 Q 109 391 97 367 Q 82 344 55 343 Q 28 344 13 367 Q 1 391 13 415 Q 28 438 55 439 L 55 439 Z"/>
</svg>
