<svg xmlns="http://www.w3.org/2000/svg" viewBox="0 0 487 487">
    <path d="M 416 32 Q 416 46 425 55 L 425 55 Q 434 64 448 64 Q 462 64 471 55 Q 480 46 480 32 Q 480 18 471 9 Q 462 0 448 0 Q 434 0 425 9 Q 416 18 416 32 L 416 32 Z M 288 448 Q 288 462 297 471 L 297 471 Q 306 480 320 480 Q 334 480 343 471 Q 352 462 352 448 Q 352 434 343 425 Q 334 416 320 416 Q 306 416 297 425 Q 288 434 288 448 L 288 448 Z M 32 480 Q 46 480 55 471 L 55 471 Q 64 462 64 448 Q 64 434 55 425 Q 46 416 32 416 Q 18 416 9 425 Q 0 434 0 448 Q 0 462 9 471 Q 18 480 32 480 L 32 480 Z M 361 135 Q 344 121 327 135 Q 313 152 327 169 L 335 177 Q 373 214 426 221 L 453 224 Q 475 224 480 203 Q 480 181 459 176 L 431 173 Q 395 169 369 143 L 361 135 L 361 135 Z M 135 327 Q 121 344 135 361 L 143 369 Q 169 395 173 431 L 176 459 Q 181 480 203 480 Q 224 475 224 453 L 221 426 Q 214 373 177 335 L 169 327 Q 152 313 135 327 L 135 327 Z M 438 472 Q 453 487 472 474 Q 487 459 474 441 L 466 431 Q 458 421 459 410 Q 459 377 438 354 Q 417 332 384 329 L 354 327 Q 342 326 333 317 Q 325 308 325 296 Q 326 266 307 243 L 298 233 Q 282 217 264 230 Q 249 246 262 264 L 270 274 Q 278 283 277 294 Q 277 327 298 350 Q 319 372 352 375 L 382 377 Q 394 378 402 387 Q 411 396 411 409 Q 410 438 429 462 L 438 472 L 438 472 Z"/>
</svg>
