<svg xmlns="http://www.w3.org/2000/svg" viewBox="0 0 448 512">
    <path d="M 448 96 Q 447 55 420 28 L 420 28 Q 393 1 352 0 L 64 0 L 32 0 Q 18 0 9 9 Q 0 18 0 32 L 0 352 Q 0 366 9 375 Q 18 384 32 384 L 96 384 L 192 384 L 352 384 Q 366 384 375 393 Q 384 402 384 416 Q 384 430 375 439 Q 366 448 352 448 L 192 448 L 96 448 L 32 448 Q 18 448 9 457 Q 0 466 0 480 Q 0 494 9 503 Q 18 512 32 512 L 64 512 L 352 512 Q 393 511 420 484 Q 447 457 448 416 L 448 96 L 448 96 Z M 139 208 L 125 232 L 153 232 L 139 208 L 139 208 Z M 153 184 L 180 232 L 236 232 L 263 184 L 236 136 L 180 136 L 153 184 L 153 184 Z M 125 184 L 97 136 Q 93 127 97 120 Q 101 112 111 112 L 166 112 L 194 64 Q 199 56 208 56 Q 217 56 222 64 L 249 112 L 305 112 Q 315 112 319 120 Q 323 127 319 136 L 291 184 L 319 232 Q 323 241 319 248 Q 315 256 305 256 L 250 256 L 222 304 Q 217 312 208 312 Q 199 312 194 304 L 167 256 L 111 256 Q 101 256 97 248 Q 93 241 97 232 L 125 184 L 125 184 Z M 153 136 L 125 136 L 139 160 L 153 136 L 153 136 Z M 194 112 L 222 112 L 208 88 L 194 112 L 194 112 Z M 264 136 L 277 160 L 291 136 L 263 136 L 264 136 Z M 277 208 L 264 232 L 291 232 L 277 208 L 277 208 Z M 222 256 L 194 256 L 208 280 L 222 256 L 222 256 Z"/>
</svg>
