<svg xmlns="http://www.w3.org/2000/svg" viewBox="0 0 320 352">
    <path d="M 96 0 Q 55 1 28 28 L 28 28 Q 1 55 0 96 L 0 256 Q 1 297 28 324 Q 55 351 96 352 L 224 352 Q 265 351 292 324 Q 319 297 320 256 L 320 96 Q 319 55 292 28 Q 265 1 224 0 L 96 0 L 96 0 Z M 96 64 L 224 64 Q 238 64 247 73 Q 256 82 256 96 L 256 128 Q 256 142 247 151 Q 238 160 224 160 L 96 160 Q 82 160 73 151 Q 64 142 64 128 L 64 96 Q 64 82 73 73 Q 82 64 96 64 L 96 64 Z M 64 256 Q 64 242 73 233 L 73 233 Q 82 224 96 224 Q 110 224 119 233 Q 128 242 128 256 Q 128 270 119 279 Q 110 288 96 288 Q 82 288 73 279 Q 64 270 64 256 L 64 256 Z M 224 224 Q 238 224 247 233 L 247 233 Q 256 242 256 256 Q 256 270 247 279 Q 238 288 224 288 Q 210 288 201 279 Q 192 270 192 256 Q 192 242 201 233 Q 210 224 224 224 L 224 224 Z"/>
</svg>
