<svg xmlns="http://www.w3.org/2000/svg" viewBox="0 0 512 512">
    <path d="M 0 256 Q 1 326 34 384 L 34 384 Q 68 442 128 478 Q 189 512 256 512 Q 323 512 384 478 Q 444 442 478 384 Q 511 326 512 256 Q 511 186 478 128 Q 444 70 384 34 Q 323 0 256 0 Q 189 0 128 34 Q 68 70 34 128 Q 1 186 0 256 L 0 256 Z M 192 352 Q 193 325 211 307 L 211 307 Q 229 289 256 288 Q 259 288 262 288 L 339 141 Q 351 122 371 131 Q 390 143 381 163 L 305 310 Q 320 328 320 352 Q 319 379 301 397 Q 283 415 256 416 Q 229 415 211 397 Q 193 379 192 352 L 192 352 Z"/>
</svg>
