<svg xmlns="http://www.w3.org/2000/svg" viewBox="0 0 640 265">
    <path d="M 96 137 Q 132 136 151 105 Q 169 73 151 41 Q 132 10 96 9 Q 60 10 41 41 Q 23 73 41 105 Q 60 136 96 137 L 96 137 Z M 64 169 Q 37 170 19 188 L 19 188 Q 1 206 0 233 Q 0 247 9 256 Q 18 265 32 265 L 160 265 Q 174 265 183 256 Q 192 247 192 233 Q 191 206 173 188 Q 155 170 128 169 L 64 169 L 64 169 Z M 320 137 Q 356 136 375 105 Q 393 73 375 41 Q 356 10 320 9 Q 284 10 265 41 Q 247 73 265 105 Q 284 136 320 137 L 320 137 Z M 288 169 Q 261 170 243 188 L 243 188 Q 225 206 224 233 Q 224 247 233 256 Q 242 265 256 265 L 384 265 Q 398 265 407 256 Q 416 247 416 233 Q 415 206 397 188 Q 379 170 352 169 L 288 169 L 288 169 Z M 608 73 Q 607 37 576 18 Q 544 0 512 18 Q 481 37 480 73 Q 481 109 512 128 Q 544 146 576 128 Q 607 109 608 73 L 608 73 Z M 448 233 Q 448 247 457 256 L 457 256 Q 466 265 480 265 L 608 265 Q 622 265 631 256 Q 640 247 640 233 Q 639 206 621 188 Q 603 170 576 169 L 512 169 Q 485 170 467 188 Q 449 206 448 233 L 448 233 Z"/>
</svg>
