<svg xmlns="http://www.w3.org/2000/svg" viewBox="0 0 256 256">
    <path d="M 144 16 Q 143 1 128 0 Q 113 1 112 16 L 112 32 L 64 32 L 64 16 Q 63 1 48 0 Q 33 1 32 16 L 32 32 L 16 32 Q 1 33 0 48 Q 1 63 16 64 L 32 64 L 32 112 L 16 112 Q 1 113 0 128 Q 1 143 16 144 L 32 144 L 32 192 L 16 192 Q 1 193 0 208 Q 1 223 16 224 L 32 224 L 32 240 Q 33 255 48 256 Q 63 255 64 240 L 64 224 L 112 224 L 112 240 Q 113 255 128 256 Q 143 255 144 240 L 144 224 L 192 224 L 192 240 Q 193 255 208 256 Q 223 255 224 240 L 224 224 L 240 224 Q 255 223 256 208 Q 255 193 240 192 L 224 192 L 224 144 L 240 144 Q 255 143 256 128 Q 255 113 240 112 L 224 112 L 224 64 L 240 64 Q 255 63 256 48 Q 255 33 240 32 L 224 32 L 224 16 Q 223 1 208 0 Q 193 1 192 16 L 192 32 L 144 32 L 144 16 L 144 16 Z M 192 64 L 192 112 L 144 112 L 144 64 L 192 64 L 192 64 Z M 192 144 L 192 192 L 144 192 L 144 144 L 192 144 L 192 144 Z M 64 112 L 64 64 L 112 64 L 112 112 L 64 112 L 64 112 Z M 64 192 L 64 144 L 112 144 L 112 192 L 64 192 L 64 192 Z"/>
</svg>
