<svg xmlns="http://www.w3.org/2000/svg" viewBox="0 0 576 512">
    <path d="M 576 451 L 576 32 Q 576 18 567 9 Q 558 0 544 0 Q 530 0 521 9 Q 512 18 512 32 L 512 401 L 576 451 L 576 451 Z M 448 351 L 448 128 Q 448 114 439 105 Q 430 96 416 96 Q 402 96 393 105 Q 384 114 384 128 L 384 301 L 448 351 L 448 351 Z M 320 251 L 320 224 Q 320 210 311 201 Q 302 192 288 192 Q 271 193 262 205 L 320 251 L 320 251 Z M 544 512 L 544 512 L 544 512 L 544 512 L 544 512 Z M 448 480 L 448 474 L 384 424 L 384 480 Q 384 494 393 503 Q 402 512 416 512 Q 430 512 439 503 Q 448 494 448 480 L 448 480 Z M 320 373 L 256 323 L 256 480 Q 256 494 265 503 Q 274 512 288 512 Q 302 512 311 503 Q 320 494 320 480 L 320 373 L 320 373 Z M 160 288 Q 146 288 137 297 L 137 297 Q 128 306 128 320 L 128 480 Q 128 494 137 503 Q 146 512 160 512 Q 174 512 183 503 Q 192 494 192 480 L 192 320 Q 192 306 183 297 Q 174 288 160 288 L 160 288 Z M 64 416 Q 64 402 55 393 L 55 393 Q 46 384 32 384 Q 18 384 9 393 Q 0 402 0 416 L 0 480 Q 0 494 9 503 Q 18 512 32 512 Q 46 512 55 503 Q 64 494 64 480 L 64 416 L 64 416 Z"/>
</svg>
