<svg xmlns="http://www.w3.org/2000/svg" viewBox="0 0 512 288">
    <path d="M 64 0 L 32 0 Q 18 0 9 9 Q 0 18 0 32 L 0 96 Q 0 136 17 169 Q 34 202 64 224 L 64 256 Q 64 270 73 279 Q 82 288 96 288 Q 110 288 119 279 Q 128 270 128 256 L 128 253 Q 143 256 160 256 L 288 256 Q 305 256 320 253 L 320 256 Q 320 270 329 279 Q 338 288 352 288 Q 366 288 375 279 Q 384 270 384 256 L 384 224 Q 414 202 431 169 Q 448 136 448 96 L 448 64 L 480 64 Q 494 64 503 55 Q 512 46 512 32 Q 512 18 503 9 Q 494 0 480 0 L 448 0 L 384 0 L 160 0 L 160 16 L 160 48 Q 159 63 144 64 Q 129 63 128 48 Q 127 33 112 32 Q 97 33 96 48 L 96 80 Q 95 95 80 96 Q 65 95 64 80 L 64 16 L 64 0 L 64 0 Z"/>
</svg>
