<svg xmlns="http://www.w3.org/2000/svg" viewBox="0 0 384 448">
    <path d="M 64 32 Q 64 18 73 9 L 73 9 Q 82 0 96 0 L 240 0 Q 301 2 342 42 Q 382 83 384 144 Q 382 205 342 246 Q 301 286 240 288 L 128 288 L 128 416 Q 128 430 119 439 Q 110 448 96 448 Q 82 448 73 439 Q 64 430 64 416 L 64 288 L 32 288 Q 18 288 9 279 Q 0 270 0 256 Q 0 242 9 233 Q 18 224 32 224 L 64 224 L 64 32 L 64 32 Z M 128 224 L 240 224 Q 274 223 297 201 Q 319 178 320 144 Q 319 110 297 87 Q 274 65 240 64 L 128 64 L 128 224 L 128 224 Z"/>
</svg>
