<svg xmlns="http://www.w3.org/2000/svg" viewBox="0 0 456 456">
    <path d="M 201 97 L 299 0 L 344 45 L 269 120 L 336 187 L 411 112 L 456 157 L 359 255 Q 359 255 359 255 Q 359 255 359 255 L 324 290 Q 304 309 277 315 L 169 339 Q 160 341 153 348 L 55 447 Q 45 456 32 456 Q 19 456 9 447 Q 0 437 0 424 Q 0 411 9 401 L 108 303 Q 115 296 117 287 L 141 179 Q 147 152 166 132 L 201 97 L 201 97 Z M 224 165 L 212 178 Q 205 184 203 193 L 186 270 L 263 253 Q 272 251 279 244 L 291 232 L 224 165 L 224 165 Z"/>
</svg>
