<svg xmlns="http://www.w3.org/2000/svg" viewBox="0 0 356 434">
    <path d="M 142 92 Q 159 98 178 98 Q 209 98 235 84 Q 260 70 277 44 L 295 17 Q 303 5 315 3 Q 328 0 339 7 Q 351 15 353 27 Q 356 40 349 51 L 331 79 Q 303 122 258 143 L 258 402 Q 258 416 249 425 Q 240 434 226 434 Q 212 434 203 425 Q 194 416 194 402 L 194 306 L 162 306 L 162 402 Q 162 416 153 425 Q 144 434 130 434 Q 116 434 107 425 Q 98 416 98 402 L 98 143 Q 55 122 27 81 L 7 52 Q 0 40 3 28 Q 5 15 16 7 Q 28 0 40 3 Q 53 5 61 16 L 80 46 Q 103 78 139 91 Q 140 92 142 92 L 142 92 Z"/>
</svg>
