<svg xmlns="http://www.w3.org/2000/svg" viewBox="0 0 448 450">
    <path d="M 208 38 Q 209 25 202 14 L 202 14 Q 195 4 181 2 Q 168 0 157 7 Q 147 14 145 28 L 133 97 L 64 97 Q 50 97 41 106 Q 32 115 32 129 Q 32 143 41 152 Q 50 161 64 161 L 122 161 L 101 289 L 32 289 Q 18 289 9 298 Q 0 307 0 321 Q 0 335 9 344 Q 18 353 32 353 L 90 353 L 80 412 Q 79 425 86 436 Q 93 446 107 449 Q 120 450 131 443 Q 141 436 144 422 L 155 353 L 250 353 L 240 412 Q 239 425 246 436 Q 253 446 267 449 Q 280 450 291 443 Q 301 436 304 422 L 320 324 L 320 321 Q 320 309 324 298 L 347 161 L 386 161 Q 411 136 448 130 Q 448 130 448 130 Q 448 129 448 129 Q 448 115 439 106 Q 430 97 416 97 L 358 97 L 368 38 Q 369 25 362 14 Q 355 4 341 2 Q 328 0 317 7 Q 307 14 305 28 L 293 97 L 198 97 L 208 38 L 208 38 Z M 166 289 L 187 161 L 282 161 L 261 289 L 166 289 L 166 289 Z"/>
</svg>
