<svg xmlns="http://www.w3.org/2000/svg" viewBox="0 0 480 512">
    <path d="M 80 96 Q 107 95 122 72 Q 134 48 122 24 Q 107 1 80 0 Q 53 1 38 24 Q 26 48 38 72 Q 53 95 80 96 L 80 96 Z M 64 128 Q 37 129 19 147 L 19 147 Q 1 165 0 192 Q 0 206 9 215 Q 18 224 32 224 L 128 224 Q 142 224 151 215 Q 160 206 160 192 Q 159 165 141 147 Q 123 129 96 128 L 64 128 L 64 128 Z M 128 336 Q 127 309 104 294 Q 80 282 56 294 Q 33 309 32 336 Q 33 363 56 378 Q 80 390 104 378 Q 127 363 128 336 L 128 336 Z M 64 416 Q 37 417 19 435 L 19 435 Q 1 453 0 480 Q 0 494 9 503 Q 18 512 32 512 L 128 512 Q 142 512 151 503 Q 160 494 160 480 Q 159 453 141 435 Q 123 417 96 416 L 64 416 L 64 416 Z M 224 80 Q 225 60 238 46 L 238 46 Q 252 33 272 32 L 480 32 L 480 192 L 272 192 Q 252 191 238 178 Q 225 164 224 144 L 224 80 L 224 80 Z M 224 368 Q 225 348 238 334 L 238 334 Q 252 321 272 320 L 384 320 L 384 480 L 272 480 Q 252 479 238 466 Q 225 452 224 432 L 224 368 L 224 368 Z"/>
</svg>
