<svg xmlns="http://www.w3.org/2000/svg" viewBox="0 0 448 384">
    <path d="M 448 0 L 0 0 L 0 320 Q 1 347 19 365 Q 37 383 64 384 L 384 384 Q 411 383 429 365 Q 447 347 448 320 L 448 0 L 448 0 Z M 112 80 L 336 80 Q 351 81 352 96 Q 351 111 336 112 L 112 112 Q 97 111 96 96 Q 97 81 112 80 L 112 80 Z M 112 176 L 336 176 Q 351 177 352 192 Q 351 207 336 208 L 112 208 Q 97 207 96 192 Q 97 177 112 176 L 112 176 Z M 112 272 L 208 272 Q 223 273 224 288 Q 223 303 208 304 L 112 304 Q 97 303 96 288 Q 97 273 112 272 L 112 272 Z"/>
</svg>
