<svg xmlns="http://www.w3.org/2000/svg" viewBox="0 0 262 337">
    <path d="M 4 62 Q 12 20 45 0 Q 82 21 119 31 L 119 31 L 123 32 Q 149 40 166 48 L 150 45 Q 109 39 87 49 Q 69 57 67 72 Q 66 84 69 88 Q 71 93 80 99 Q 101 112 142 123 L 143 123 Q 162 128 182 136 Q 203 144 221 156 Q 240 170 251 194 Q 262 219 256 248 Q 245 300 198 319 Q 154 337 101 328 L 100 328 L 100 328 Q 86 325 68 320 Q 50 314 36 309 Q 34 309 33 308 Q 33 308 33 308 Q 28 306 24 305 Q 11 301 5 289 Q 0 278 4 265 Q 8 252 20 246 Q 31 241 44 245 Q 50 246 56 249 L 56 249 Q 71 254 86 258 Q 101 263 111 265 Q 151 270 173 260 Q 191 252 193 237 Q 195 223 192 219 Q 191 214 183 208 Q 164 195 123 184 L 120 183 L 120 183 Q 102 178 82 171 Q 62 163 44 152 Q 25 140 12 117 Q 0 93 4 64 Q 4 63 4 63 Q 4 62 4 62 L 4 62 Z"/>
</svg>
