<svg xmlns="http://www.w3.org/2000/svg" viewBox="0 0 512 384">
    <path d="M 384 32 Q 384 46 393 55 L 393 55 Q 402 64 416 64 Q 430 64 439 55 Q 448 46 448 32 Q 448 18 439 9 Q 430 0 416 0 Q 402 0 393 9 Q 384 18 384 32 L 384 32 Z M 0 320 Q 1 347 19 365 L 19 365 Q 37 383 64 384 L 448 384 Q 475 383 493 365 Q 511 347 512 320 L 512 128 L 0 128 L 0 320 L 0 320 Z M 320 64 Q 334 64 343 55 L 343 55 Q 352 46 352 32 Q 352 18 343 9 Q 334 0 320 0 Q 306 0 297 9 Q 288 18 288 32 Q 288 46 297 55 Q 306 64 320 64 L 320 64 Z"/>
</svg>
