<svg xmlns="http://www.w3.org/2000/svg" viewBox="0 0 384 352">
    <path d="M 384 80 Q 383 107 346 128 Q 319 143 279 151 Q 240 160 192 160 Q 100 159 44 131 Q 41 130 38 128 Q 1 107 0 80 Q 2 46 56 23 Q 110 1 192 0 Q 274 1 328 23 Q 382 46 384 80 L 384 80 Z M 192 192 Q 279 191 340 166 Q 365 156 384 141 L 384 176 Q 383 203 346 224 Q 344 225 342 226 Q 341 226 340 227 Q 284 255 192 256 Q 144 256 105 247 Q 65 239 38 224 Q 1 203 0 176 L 0 141 Q 19 156 44 166 Q 105 191 192 192 L 192 192 Z M 340 262 Q 365 252 384 237 L 384 272 Q 382 306 328 329 Q 274 351 192 352 Q 110 351 56 329 Q 2 306 0 272 L 0 237 Q 19 252 44 262 Q 105 287 192 288 Q 279 287 340 262 L 340 262 Z"/>
</svg>
