<svg xmlns="http://www.w3.org/2000/svg" viewBox="0 0 576 331">
    <path d="M 115 139 Q 151 138 171 107 Q 188 75 171 43 Q 151 12 115 11 Q 79 12 60 43 Q 43 75 60 107 Q 79 138 115 139 L 115 139 Z M 64 171 Q 37 172 19 190 L 19 190 Q 1 208 0 235 Q 0 249 9 258 Q 18 267 32 267 L 118 267 Q 125 237 145 215 Q 165 192 193 180 Q 179 171 160 171 L 64 171 L 64 171 Z M 544 267 Q 558 267 567 258 L 567 258 Q 576 249 576 235 Q 575 208 557 190 Q 539 172 512 171 L 416 171 Q 398 171 384 180 Q 413 191 433 214 Q 454 237 462 267 L 544 267 L 544 267 Z M 428 267 Q 410 219 359 205 Q 349 203 338 203 L 242 203 Q 229 203 217 206 Q 169 220 151 267 Q 146 282 146 299 Q 146 313 155 322 Q 164 331 178 331 L 402 331 Q 415 331 424 322 Q 433 313 434 299 Q 433 282 428 267 L 428 267 Z M 467 139 Q 503 138 523 107 Q 540 75 523 43 Q 503 12 467 11 Q 431 12 412 43 Q 395 75 412 107 Q 431 138 467 139 L 467 139 Z M 370 91 Q 368 46 330 22 Q 290 0 250 22 Q 211 46 210 91 Q 211 136 250 160 Q 290 182 330 160 Q 368 136 370 91 L 370 91 Z"/>
</svg>
