<svg xmlns="http://www.w3.org/2000/svg" viewBox="0 0 512 448">
    <path d="M 176 56 L 176 96 L 128 96 L 128 56 Q 129 32 144 16 Q 160 1 184 0 L 328 0 Q 352 1 368 16 Q 383 32 384 56 L 384 96 L 336 96 L 336 56 Q 335 49 328 48 L 184 48 Q 177 49 176 56 L 176 56 Z M 0 288 L 128 288 L 128 320 Q 128 334 137 343 Q 146 352 160 352 Q 174 352 183 343 Q 192 334 192 320 L 192 288 L 320 288 L 320 320 Q 320 334 329 343 Q 338 352 352 352 Q 366 352 375 343 Q 384 334 384 320 L 384 288 L 512 288 L 512 384 Q 511 411 493 429 Q 475 447 448 448 L 64 448 Q 37 447 19 429 Q 1 411 0 384 L 0 288 L 0 288 Z"/>
</svg>
