<svg xmlns="http://www.w3.org/2000/svg" viewBox="0 0 576 448">
    <path d="M 64 224 Q 64 181 85 144 L 85 144 Q 107 107 144 85 Q 182 64 224 64 Q 266 64 304 85 Q 341 107 363 144 Q 384 181 384 224 Q 384 267 363 304 Q 341 341 304 363 Q 266 384 224 384 Q 182 384 144 363 Q 107 341 85 304 Q 64 267 64 224 L 64 224 Z M 381 384 Q 412 353 430 312 L 430 312 Q 448 271 448 224 Q 447 161 417 111 Q 388 60 337 31 Q 287 1 224 0 Q 161 1 111 31 Q 60 60 31 111 Q 1 161 0 224 Q 1 287 31 337 Q 60 388 111 417 Q 161 447 224 448 L 544 448 Q 558 448 567 439 Q 576 430 576 416 Q 576 402 567 393 Q 558 384 544 384 L 381 384 L 381 384 Z"/>
</svg>
