<svg xmlns="http://www.w3.org/2000/svg" viewBox="0 0 576 386">
    <path d="M 113 53 Q 121 42 120 29 L 120 29 Q 119 17 108 8 Q 97 0 85 1 Q 72 3 63 13 Q 2 89 0 193 Q 2 297 63 373 Q 72 383 85 385 Q 97 386 108 378 Q 119 369 120 357 Q 121 344 113 333 Q 66 274 64 193 Q 66 112 113 53 L 113 53 Z M 513 13 Q 504 3 491 1 L 491 1 Q 479 0 468 8 Q 457 17 456 29 Q 455 42 463 53 Q 510 112 512 193 Q 510 274 463 333 Q 455 344 456 357 Q 457 369 468 378 Q 479 386 491 385 Q 504 383 513 373 Q 574 297 576 193 Q 574 89 513 13 L 513 13 Z M 205 118 Q 213 108 213 95 L 213 95 Q 212 82 202 73 Q 192 64 179 65 Q 166 66 157 76 Q 114 124 112 193 Q 114 262 157 310 Q 166 320 179 321 Q 192 322 202 313 Q 212 303 213 291 Q 213 278 205 268 Q 177 237 176 193 Q 177 149 205 118 L 205 118 Z M 419 76 Q 410 66 397 65 L 397 65 Q 384 64 374 73 Q 364 82 363 95 Q 363 108 372 118 Q 399 149 400 193 Q 399 237 372 268 Q 363 278 363 291 Q 364 304 374 313 Q 384 322 397 321 Q 410 320 419 310 Q 462 262 464 193 Q 462 124 419 76 L 419 76 Z"/>
</svg>
