<svg xmlns="http://www.w3.org/2000/svg" viewBox="0 0 464 288">
    <path d="M 200 144 Q 234 143 257 121 L 257 121 Q 279 98 280 64 Q 279 24 248 0 Q 297 3 339 24 Q 381 45 411 80 Q 410 80 409 80 Q 409 80 408 80 Q 381 81 363 99 Q 345 117 344 144 Q 345 171 363 189 Q 381 207 408 208 Q 441 207 460 182 Q 464 203 464 226 Q 463 252 446 270 Q 428 287 402 288 L 62 288 Q 36 287 18 270 Q 1 252 0 226 Q 1 156 37 102 Q 73 47 133 20 Q 120 39 120 64 Q 121 98 143 121 Q 166 143 200 144 L 200 144 Z M 104 224 Q 118 224 127 215 L 127 215 Q 136 206 136 192 Q 136 178 127 169 Q 118 160 104 160 Q 90 160 81 169 Q 72 178 72 192 Q 72 206 81 215 Q 90 224 104 224 L 104 224 Z"/>
</svg>
