<svg xmlns="http://www.w3.org/2000/svg" viewBox="0 0 448 464">
    <path d="M 80 32 Q 80 18 89 9 L 89 9 Q 98 0 112 0 L 336 0 Q 350 0 359 9 Q 368 18 368 32 L 368 96 Q 368 110 359 119 Q 350 128 336 128 L 112 128 Q 98 128 89 119 Q 80 110 80 96 L 80 32 L 80 32 Z M 128 64 Q 129 79 144 80 L 304 80 Q 319 79 320 64 Q 319 49 304 48 L 144 48 Q 129 49 128 64 L 128 64 Z M 0 434 Q 2 359 52 308 L 52 308 Q 103 258 178 256 L 270 256 Q 345 258 396 308 Q 446 359 448 434 Q 448 447 439 455 Q 431 464 418 464 L 30 464 Q 17 464 9 455 Q 0 447 0 434 L 0 434 Z M 349 414 Q 354 418 356 412 Q 354 359 326 322 Q 323 319 320 322 Q 290 356 284 411 Q 285 417 291 415 Q 293 412 297 409 L 297 409 Q 304 402 313 396 Q 322 390 329 390 Q 331 391 349 415 L 349 414 Z"/>
</svg>
