<svg xmlns="http://www.w3.org/2000/svg" viewBox="0 0 512 512">
    <path d="M 80 8 Q 80 2 74 1 Q 69 0 64 0 Q 37 1 19 19 Q 1 37 0 64 L 0 128 Q 1 155 19 173 Q 37 191 64 192 L 65 192 L 107 220 Q 137 240 173 240 L 192 240 L 192 384 L 213 448 Q 191 450 176 466 Q 161 482 160 505 Q 161 511 167 512 L 345 512 Q 351 511 352 505 Q 351 482 336 466 Q 321 450 299 448 L 320 384 L 320 240 L 339 240 Q 375 240 406 220 L 447 192 L 448 192 Q 475 191 493 173 Q 511 155 512 128 L 512 64 Q 511 37 493 19 Q 475 1 448 0 Q 443 0 438 1 Q 432 2 432 8 L 432 72 Q 432 78 427 80 Q 422 81 418 77 L 397 50 Q 389 43 385 52 Q 384 58 384 64 L 384 128 Q 384 151 398 167 L 379 180 Q 361 192 339 192 L 314 192 Q 305 170 291 155 Q 276 140 263 132 Q 256 128 249 132 Q 236 140 221 155 Q 207 170 198 192 L 173 192 Q 151 192 133 180 L 115 167 Q 128 151 128 128 L 128 64 Q 128 58 127 52 Q 123 43 115 50 L 94 77 Q 90 81 85 80 Q 80 78 80 72 L 80 8 L 80 8 Z"/>
</svg>
