<svg xmlns="http://www.w3.org/2000/svg" viewBox="0 0 448 384">
    <path d="M 32 0 L 416 0 L 435 75 Q 448 128 448 183 L 448 201 Q 448 256 435 310 L 416 384 L 32 384 L 13 310 Q 0 256 0 201 L 0 183 Q 0 128 13 75 L 32 0 L 32 0 Z M 112 96 Q 97 97 96 112 Q 97 157 126 189 Q 155 220 200 224 L 200 264 Q 202 286 224 288 Q 246 286 248 264 L 248 224 Q 293 220 322 188 Q 351 157 352 112 Q 351 97 336 96 L 334 96 Q 298 96 269 114 Q 241 131 224 161 Q 207 131 179 114 Q 150 96 114 96 L 112 96 L 112 96 Z"/>
</svg>
