<svg xmlns="http://www.w3.org/2000/svg" viewBox="0 0 344 512">
    <path d="M 284 316 Q 290 307 297 298 L 297 298 Q 297 298 297 298 L 297 298 L 297 298 L 297 298 Q 305 287 313 276 Q 343 233 344 176 Q 342 101 292 52 Q 243 2 168 0 Q 115 1 73 28 Q 31 55 9 101 L 61 142 Q 73 107 101 86 Q 130 65 168 64 Q 183 65 184 80 Q 183 95 168 96 Q 137 97 116 115 Q 94 134 89 164 L 284 316 L 284 316 Z M 0 230 Q 9 255 23 276 Q 31 287 39 298 Q 39 298 39 298 L 39 298 Q 71 337 88 384 L 196 384 L 0 230 L 0 230 Z M 88 416 L 88 432 Q 89 466 111 489 Q 134 511 168 512 Q 202 511 225 489 Q 247 466 248 432 L 248 425 L 237 416 L 88 416 L 88 416 Z"/>
</svg>
