<svg xmlns="http://www.w3.org/2000/svg" viewBox="0 0 406 491">
    <path d="M 91 56 Q 113 58 115 80 Q 113 102 91 104 Q 69 102 67 80 Q 69 58 91 56 L 91 56 Z M 91 160 Q 136 159 160 120 Q 182 80 160 40 Q 136 1 91 0 Q 46 1 22 40 Q 0 80 22 120 Q 46 159 91 160 L 91 160 Z M 315 56 Q 337 58 339 80 Q 337 102 315 104 Q 293 102 291 80 Q 293 58 315 56 L 315 56 Z M 315 160 Q 360 159 384 120 Q 406 80 384 40 Q 360 1 315 0 Q 270 1 246 40 Q 224 80 246 120 Q 270 159 315 160 L 315 160 Z M 163 400 Q 165 378 187 376 Q 209 378 211 400 Q 209 422 187 424 Q 165 422 163 400 L 163 400 Z M 267 400 Q 266 355 227 331 Q 187 309 147 331 Q 108 355 107 400 Q 108 445 147 469 Q 187 491 227 469 Q 266 445 267 400 L 267 400 Z"/>
</svg>
