<svg xmlns="http://www.w3.org/2000/svg" viewBox="0 0 576 448">
    <path d="M 64 0 Q 37 1 19 19 L 19 19 Q 1 37 0 64 L 0 384 Q 1 411 19 429 Q 37 447 64 448 L 512 448 Q 539 447 557 429 Q 575 411 576 384 L 576 64 Q 575 37 557 19 Q 539 1 512 0 L 64 0 L 64 0 Z M 136 128 Q 158 130 160 152 L 160 200 L 224 200 L 224 152 Q 226 130 248 128 Q 270 130 272 152 L 272 224 L 272 296 Q 270 318 248 320 Q 226 318 224 296 L 224 248 L 160 248 L 160 296 Q 158 318 136 320 Q 114 318 112 296 L 112 224 L 112 152 Q 114 130 136 128 L 136 128 Z M 304 152 Q 306 130 328 128 L 384 128 Q 425 129 452 156 Q 479 183 480 224 Q 479 265 452 292 Q 425 319 384 320 L 328 320 Q 306 318 304 296 L 304 152 L 304 152 Z M 352 272 L 384 272 Q 404 271 418 258 Q 431 244 432 224 Q 431 204 418 190 Q 404 177 384 176 L 352 176 L 352 272 L 352 272 Z"/>
</svg>
