<svg xmlns="http://www.w3.org/2000/svg" viewBox="0 0 579 444">
    <path d="M 202 100 Q 204 50 246 24 Q 290 0 334 24 Q 376 50 378 100 Q 376 150 334 176 Q 290 200 246 176 Q 204 150 202 100 L 202 100 Z M 178 335 Q 142 347 117 361 L 117 361 Q 92 375 81 385 Q 65 397 46 396 Q 27 394 13 379 Q 0 363 2 344 Q 4 325 19 311 Q 31 301 51 289 Q 64 300 82 300 Q 102 299 116 286 Q 129 272 130 252 Q 130 251 130 251 Q 130 250 130 250 Q 199 222 290 220 Q 361 221 420 240 Q 418 246 418 252 Q 418 272 432 286 Q 446 299 466 300 Q 494 299 507 276 Q 542 295 561 311 Q 576 325 578 344 Q 579 363 567 379 Q 553 394 534 396 Q 515 397 499 385 Q 488 375 463 361 Q 438 347 402 335 L 402 444 L 178 444 L 178 335 L 178 335 Z M 274 292 Q 272 270 250 268 Q 228 270 226 292 Q 228 314 250 316 Q 272 314 274 292 L 274 292 Z M 330 396 Q 352 394 354 372 Q 352 350 330 348 Q 308 350 306 372 Q 308 394 330 396 L 330 396 Z"/>
</svg>
