<svg xmlns="http://www.w3.org/2000/svg" viewBox="0 0 404 512">
    <path d="M 132 96 L 116 96 Q 100 96 87 106 Q 75 115 70 131 L 6 355 Q 0 378 14 397 Q 28 415 52 416 L 267 416 Q 260 393 260 368 Q 261 302 301 255 Q 341 207 404 195 L 386 131 Q 381 115 369 106 Q 356 96 340 96 L 324 96 L 324 40 Q 324 23 312 12 Q 301 0 284 0 L 172 0 Q 155 0 144 12 Q 132 23 132 40 L 132 96 L 132 96 Z M 279 448 L 164 448 Q 165 475 183 493 Q 201 511 228 512 Q 250 512 267 499 Q 283 486 290 466 Q 284 457 279 448 L 279 448 Z M 180 96 L 180 48 L 276 48 L 276 96 L 180 96 L 180 96 Z"/>
</svg>
