<svg xmlns="http://www.w3.org/2000/svg" viewBox="0 0 512 512">
    <path d="M 168 248 L 20 396 Q 0 416 0 444 Q 1 473 20 492 Q 39 511 68 512 Q 96 512 116 492 L 234 374 Q 222 342 230 309 L 168 247 L 168 248 Z M 429 275 Q 466 257 489 222 L 489 222 Q 511 188 512 144 Q 512 128 509 114 Q 506 105 499 103 Q 491 102 485 108 L 421 171 Q 416 176 409 176 L 352 176 Q 337 175 336 160 L 336 103 Q 336 96 341 91 L 405 27 Q 411 21 409 13 Q 407 6 399 3 Q 384 0 368 0 Q 307 2 266 42 Q 226 83 224 144 Q 224 144 224 144 Q 224 145 224 145 L 309 230 Q 337 223 364 230 Q 392 238 413 259 L 429 275 L 429 275 Z M 80 408 Q 102 410 104 432 Q 102 454 80 456 Q 58 454 56 432 Q 58 410 80 408 L 80 408 Z"/>
</svg>
