<svg xmlns="http://www.w3.org/2000/svg" viewBox="0 0 496 496">
    <path d="M 340 39 L 324 8 Q 320 0 312 0 Q 304 0 300 6 L 239 104 Q 235 109 230 108 Q 225 106 224 100 L 224 62 Q 223 49 210 48 Q 208 48 206 49 L 180 57 Q 160 63 146 48 L 117 13 Q 112 8 105 8 Q 96 8 92 16 L 75 45 Q 63 63 42 60 L 17 56 Q 16 56 15 56 Q 2 58 4 71 L 44 226 Q 47 239 34 245 L 8 253 Q 0 256 0 265 Q 0 272 6 276 L 122 340 L 264 198 Q 281 184 298 198 Q 312 215 298 232 L 156 374 L 221 490 Q 224 496 231 496 Q 240 496 243 488 L 251 462 Q 257 449 271 452 L 426 492 Q 438 494 440 481 Q 440 480 440 479 L 436 454 Q 433 433 451 421 L 480 405 Q 488 400 488 391 Q 488 384 483 379 L 448 350 Q 433 336 439 316 L 447 290 Q 448 288 448 286 Q 447 273 434 272 L 396 272 Q 390 271 388 266 Q 387 261 392 257 L 490 196 Q 496 192 496 184 Q 496 176 489 172 L 457 156 Q 434 143 441 118 L 463 50 Q 464 48 464 46 Q 463 33 450 32 Q 448 32 446 33 L 378 55 Q 353 62 340 39 L 340 39 Z"/>
</svg>
