<svg xmlns="http://www.w3.org/2000/svg" viewBox="0 0 320 132">
    <path d="M 29 9 Q 22 0 11 3 Q 1 7 0 18 L 0 114 Q 1 129 16 130 Q 31 129 32 114 L 32 71 L 67 123 Q 74 132 85 129 Q 95 125 96 114 L 96 18 Q 95 3 80 2 Q 65 3 64 18 L 64 61 L 29 9 L 29 9 Z M 120 18 L 120 106 Q 122 128 144 130 L 176 130 Q 198 128 200 106 L 200 82 Q 199 67 184 66 Q 169 67 168 82 L 168 98 L 152 98 L 152 34 L 184 34 Q 199 33 200 18 Q 199 3 184 2 L 136 2 Q 121 3 120 18 L 120 18 Z M 272 34 Q 287 35 288 50 L 288 82 Q 287 97 272 98 Q 257 97 256 82 L 256 50 Q 257 35 272 34 L 272 34 Z M 224 50 L 224 82 Q 225 102 238 116 Q 252 129 272 130 Q 292 129 306 116 Q 319 102 320 82 L 320 50 Q 319 30 306 16 Q 292 3 272 2 Q 252 3 238 16 Q 225 30 224 50 L 224 50 Z"/>
</svg>
