<svg xmlns="http://www.w3.org/2000/svg" viewBox="0 0 320 320">
    <path d="M 128 0 L 64 0 L 64 64 L 0 64 L 0 128 L 64 128 L 64 192 L 0 192 L 0 256 L 64 256 L 64 320 L 128 320 L 128 256 L 192 256 L 192 320 L 256 320 L 256 256 L 320 256 L 320 192 L 256 192 L 256 128 L 320 128 L 320 64 L 256 64 L 256 0 L 192 0 L 192 64 L 128 64 L 128 0 L 128 0 Z M 128 128 L 64 128 L 64 64 L 128 64 L 128 128 L 128 128 Z M 192 128 L 192 192 L 256 192 L 256 256 L 192 256 L 192 192 L 128 192 L 128 256 L 64 256 L 64 192 L 128 192 L 128 128 L 192 128 L 192 128 Z M 192 128 L 192 64 L 256 64 L 256 128 L 192 128 L 192 128 Z"/>
</svg>
