<svg xmlns="http://www.w3.org/2000/svg" viewBox="0 0 579 384">
    <path d="M 50 0 L 143 0 L 117 128 L 34 128 Q 18 128 9 116 Q 0 103 3 88 L 19 24 Q 26 1 50 0 L 50 0 Z M 274 128 L 150 128 L 175 0 L 274 0 L 274 128 L 274 128 Z M 306 128 L 306 0 L 405 0 L 419 72 Q 417 74 415 76 Q 387 101 364 128 L 306 128 L 306 128 Z M 516 104 Q 513 107 511 109 Q 495 92 477 76 Q 465 66 450 64 L 438 0 L 530 0 Q 554 1 561 24 L 577 88 Q 579 96 577 103 Q 563 92 546 92 Q 529 93 516 104 L 516 104 Z M 532 369 Q 510 384 483 384 Q 448 384 426 363 Q 403 343 402 306 Q 402 289 413 270 Q 425 251 447 224 Q 450 228 465 247 Q 480 266 494 284 Q 508 302 509 303 L 545 261 Q 547 264 549 267 Q 551 270 552 273 Q 565 299 560 326 Q 555 352 532 369 L 532 369 Z"/>
</svg>
