<svg xmlns="http://www.w3.org/2000/svg" viewBox="0 0 516 512">
    <path d="M 370 28 Q 341 0 302 0 L 302 0 Q 264 0 234 28 L 69 193 Q 55 207 51 226 Q 48 244 55 263 L 79 321 Q 87 339 83 358 Q 79 376 65 390 L 12 444 Q 0 456 0 472 Q 0 488 12 500 Q 24 512 40 512 Q 56 512 69 500 L 122 447 Q 153 419 192 433 L 249 456 Q 262 461 276 461 Q 256 426 256 384 Q 256 379 256 374 L 117 236 Q 108 224 117 213 Q 128 204 140 213 L 263 336 Q 280 286 320 256 Q 361 225 416 224 Q 465 225 503 250 Q 516 222 511 193 Q 506 164 484 141 L 370 28 L 370 28 Z"/>
</svg>
