<svg xmlns="http://www.w3.org/2000/svg" viewBox="0 0 320 512">
    <path d="M 64 0 Q 78 0 87 9 L 87 9 Q 96 18 96 32 L 96 128 Q 110 128 119 137 Q 128 146 128 160 Q 128 174 119 183 Q 110 192 96 192 L 64 192 L 32 192 Q 18 192 9 183 Q 0 174 0 160 Q 0 146 9 137 Q 18 128 32 128 L 32 32 Q 32 18 41 9 Q 50 0 64 0 L 64 0 Z M 256 0 Q 270 0 279 9 L 279 9 Q 288 18 288 32 L 288 128 Q 302 128 311 137 Q 320 146 320 160 Q 320 174 311 183 Q 302 192 288 192 L 256 192 L 224 192 Q 210 192 201 183 Q 192 174 192 160 Q 192 146 201 137 Q 210 128 224 128 L 224 32 Q 224 18 233 9 Q 242 0 256 0 L 256 0 Z M 128 416 L 192 416 L 192 480 Q 192 494 183 503 Q 174 512 160 512 Q 146 512 137 503 Q 128 494 128 480 L 128 416 L 128 416 Z"/>
</svg>
