<svg xmlns="http://www.w3.org/2000/svg" viewBox="0 0 512 512">
    <path d="M 256 512 Q 326 511 384 478 L 384 478 Q 442 444 478 384 Q 512 323 512 256 Q 512 189 478 128 Q 442 68 384 34 Q 326 1 256 0 Q 186 1 128 34 Q 70 68 34 128 Q 0 189 0 256 Q 0 323 34 384 Q 70 444 128 478 Q 186 511 256 512 L 256 512 Z M 192 368 L 320 368 Q 335 369 336 384 Q 335 399 320 400 L 192 400 Q 177 399 176 384 Q 177 369 192 368 L 192 368 Z M 96 224 Q 97 188 128 169 Q 160 151 192 169 Q 223 188 224 224 Q 223 260 192 279 Q 160 297 128 279 Q 97 260 96 224 L 96 224 Z M 352 160 Q 388 161 407 192 Q 425 224 407 256 Q 388 287 352 288 Q 316 287 297 256 Q 279 224 297 192 Q 316 161 352 160 L 352 160 Z"/>
</svg>
