<svg xmlns="http://www.w3.org/2000/svg" viewBox="0 0 459 512">
    <path d="M 91 56 Q 113 58 115 80 Q 113 102 91 104 Q 69 102 67 80 Q 69 58 91 56 L 91 56 Z M 91 160 Q 136 159 160 120 Q 182 80 160 40 Q 136 1 91 0 Q 46 1 22 40 Q 0 80 22 120 Q 46 159 91 160 L 91 160 Z M 91 408 Q 113 410 115 432 Q 113 454 91 456 Q 69 454 67 432 Q 69 410 91 408 L 91 408 Z M 91 512 Q 136 511 160 472 Q 182 432 160 392 Q 136 353 91 352 Q 46 353 22 392 Q 0 432 22 472 Q 46 511 91 512 L 91 512 Z M 355 272 Q 357 250 379 248 Q 401 250 403 272 Q 401 294 379 296 Q 357 294 355 272 L 355 272 Z M 459 272 Q 458 227 419 203 Q 379 181 339 203 Q 300 227 299 272 Q 300 317 339 341 Q 379 363 419 341 Q 458 317 459 272 L 459 272 Z"/>
</svg>
