<svg xmlns="http://www.w3.org/2000/svg" viewBox="0 0 544 352">
    <path d="M 64 0 Q 37 1 19 19 L 19 19 Q 1 37 0 64 L 0 160 L 0 192 L 0 193 Q 7 195 12 200 L 18 206 Q 25 203 32 200 L 32 192 Q 32 178 41 169 Q 50 160 64 160 L 64 64 L 170 64 L 209 160 L 96 160 Q 110 160 119 169 Q 128 178 128 192 L 128 200 Q 135 203 142 206 L 148 200 Q 158 191 171 191 Q 183 191 193 200 L 216 223 Q 225 233 225 245 Q 225 258 216 268 L 210 274 Q 213 281 216 288 L 224 288 Q 238 288 247 297 Q 256 306 256 320 L 256 352 L 336 352 Q 371 306 432 304 Q 457 304 478 313 L 521 286 Q 543 272 544 245 L 544 200 Q 544 183 532 172 Q 521 160 504 160 L 448 160 L 448 126 Q 448 104 458 83 L 461 78 Q 466 66 462 54 Q 458 42 446 35 Q 434 30 422 34 Q 410 38 403 50 L 401 55 Q 384 89 384 126 L 384 160 L 278 160 L 230 40 Q 222 22 206 11 Q 190 0 170 0 L 64 0 L 64 0 Z"/>
</svg>
