<svg xmlns="http://www.w3.org/2000/svg" viewBox="0 0 512 183">
    <path d="M 32 96 Q 49 96 64 90 L 64 90 Q 80 84 91 79 L 91 79 Q 91 79 91 79 L 91 79 Q 93 78 95 77 Q 119 64 136 64 Q 157 64 181 77 L 182 77 Q 182 77 182 77 Q 195 84 213 90 Q 231 96 256 96 Q 281 96 299 90 Q 317 84 331 77 L 331 77 Q 355 64 376 64 Q 393 64 417 77 Q 419 78 421 79 Q 421 79 421 79 L 421 79 Q 421 79 421 79 Q 432 84 448 90 Q 463 96 480 96 Q 494 96 503 87 Q 512 78 512 64 Q 512 50 503 41 Q 494 32 480 32 Q 472 32 445 19 Q 432 13 415 7 Q 397 0 376 0 Q 331 3 306 18 L 304 19 Q 281 31 256 32 Q 231 31 208 19 L 206 18 Q 181 3 136 0 Q 115 0 97 7 Q 80 13 68 19 Q 67 19 67 19 Q 40 32 32 32 Q 18 32 9 41 Q 0 50 0 64 Q 0 78 9 87 Q 18 96 32 96 L 32 96 Z M 234 134 L 304 175 Q 320 183 336 175 L 406 134 Q 416 128 427 128 L 213 128 Q 224 128 234 134 L 234 134 Z"/>
</svg>
