<svg xmlns="http://www.w3.org/2000/svg" viewBox="0 0 384 256">
    <path d="M 0 96 Q 2 121 26 127 L 128 148 L 128 83 L 64 70 L 64 0 L 0 0 L 0 96 L 0 96 Z M 256 148 L 358 127 Q 382 121 384 96 L 384 0 L 320 0 L 320 70 L 256 83 L 256 148 L 256 148 Z M 224 64 Q 224 50 215 41 L 215 41 Q 206 32 192 32 Q 178 32 169 41 Q 160 50 160 64 L 160 192 L 96 192 Q 82 192 73 201 Q 64 210 64 224 Q 64 238 73 247 Q 82 256 96 256 L 192 256 L 288 256 Q 302 256 311 247 Q 320 238 320 224 Q 320 210 311 201 Q 302 192 288 192 L 224 192 L 224 64 L 224 64 Z"/>
</svg>
