<svg xmlns="http://www.w3.org/2000/svg" viewBox="0 0 512 512">
    <path d="M 256 512 Q 326 511 384 478 L 384 478 Q 442 444 478 384 Q 512 323 512 256 Q 512 189 478 128 Q 442 68 384 34 Q 326 1 256 0 Q 186 1 128 34 Q 70 68 34 128 Q 0 189 0 256 Q 0 323 34 384 Q 70 444 128 478 Q 186 511 256 512 L 256 512 Z M 262 160 Q 249 160 240 169 L 240 169 Q 231 178 231 191 L 231 224 L 264 224 Q 286 226 288 248 Q 286 270 264 272 L 232 272 Q 231 297 222 320 L 328 320 Q 350 322 352 344 Q 350 366 328 368 L 184 368 Q 171 368 164 357 Q 157 345 163 333 L 172 314 Q 183 294 184 272 Q 162 270 160 248 Q 162 226 184 224 L 183 191 Q 184 157 206 135 Q 228 113 262 112 Q 277 112 291 118 L 321 130 Q 341 140 335 161 Q 324 180 303 174 L 273 162 Q 268 160 262 160 L 262 160 Z"/>
</svg>
