<svg xmlns="http://www.w3.org/2000/svg" viewBox="0 0 448 512">
    <path d="M 0 96 Q 1 55 28 28 L 28 28 Q 55 1 96 0 L 384 0 L 416 0 Q 430 0 439 9 Q 448 18 448 32 L 448 352 Q 448 366 439 375 Q 430 384 416 384 L 352 384 L 256 384 L 96 384 Q 82 384 73 393 Q 64 402 64 416 Q 64 430 73 439 Q 82 448 96 448 L 256 448 L 352 448 L 416 448 Q 430 448 439 457 Q 448 466 448 480 Q 448 494 439 503 Q 430 512 416 512 L 384 512 L 96 512 Q 55 511 28 484 Q 1 457 0 416 L 0 96 L 0 96 Z M 264 200 L 225 217 Q 215 224 225 231 L 264 248 L 281 287 Q 288 297 295 287 L 312 248 L 351 231 Q 361 224 351 217 L 312 200 L 295 161 Q 288 151 281 161 L 264 200 L 264 200 Z M 169 78 L 160 96 L 142 105 Q 133 112 142 119 L 160 128 L 169 146 Q 176 155 183 146 L 192 128 L 210 119 Q 219 112 210 105 L 192 96 L 183 78 Q 176 69 169 78 L 169 78 Z"/>
</svg>
