<svg xmlns="http://www.w3.org/2000/svg" viewBox="0 0 299 256">
    <path d="M 133 5 L 134 5 Q 134 5 134 5 Q 135 6 135 6 Q 137 7 140 10 Q 147 15 158 24 Q 180 44 211 78 Q 238 109 263 151 Q 287 193 299 244 Q 279 255 279 256 Q 279 256 279 256 Q 278 253 248 238 Q 237 201 217 168 Q 198 136 175 110 Q 153 85 135 69 Q 130 88 122 114 Q 105 168 65 234 Q 45 241 34 248 Q 23 256 23 256 Q 23 255 0 242 Q 29 205 48 168 Q 66 130 76 99 Q 88 64 92 42 Q 94 32 94 26 Q 95 24 95 22 L 95 22 Q 96 13 101 8 Q 108 0 119 0 Q 127 0 133 5 L 133 5 Z"/>
</svg>
