<svg xmlns="http://www.w3.org/2000/svg" viewBox="0 0 512 512">
    <path d="M 256 512 Q 328 511 385 477 L 385 477 Q 443 443 477 385 L 477 385 Q 511 328 512 256 Q 511 184 477 127 Q 443 69 385 35 Q 328 1 256 0 Q 184 1 127 35 Q 69 69 35 127 Q 1 184 0 256 Q 0 273 2 290 Q 5 289 8 289 L 200 257 Q 224 253 242 270 Q 259 288 255 312 L 247 359 L 256 365 L 295 339 Q 304 333 313 339 L 353 365 L 377 354 Q 390 348 398 361 Q 404 374 391 382 L 359 398 Q 351 402 343 397 L 304 371 L 265 397 Q 256 403 247 397 L 242 394 L 223 504 Q 223 507 222 510 Q 239 512 256 512 L 256 512 Z M 116 141 Q 116 134 122 131 L 122 131 Q 127 128 134 131 L 223 179 Q 231 183 231 192 Q 231 200 223 205 L 134 253 Q 127 256 122 253 Q 116 250 116 243 Q 116 238 119 235 L 155 192 L 119 149 Q 116 145 116 141 L 116 141 Z M 379 131 Q 385 128 390 131 L 390 131 Q 396 134 396 141 Q 396 145 393 149 L 357 192 L 393 235 Q 396 238 396 243 Q 396 250 390 253 Q 385 256 379 253 L 289 205 Q 281 200 281 192 Q 281 183 289 179 L 379 131 L 379 131 Z"/>
</svg>
