<svg xmlns="http://www.w3.org/2000/svg" viewBox="0 0 449 449">
    <path d="M 193 0 Q 118 1 61 70 L 61 70 Q 4 140 1 272 Q 0 367 41 408 Q 82 449 177 448 Q 310 445 379 388 Q 449 331 449 256 Q 449 205 412 166 L 284 38 Q 244 0 193 0 L 193 0 Z M 182 75 Q 187 79 185 89 L 185 89 Q 183 99 174 109 Q 164 118 154 120 Q 144 122 139 118 Q 135 113 137 103 Q 139 93 148 83 Q 157 74 167 72 Q 177 70 182 75 L 182 75 Z M 238 173 Q 228 182 218 184 L 218 184 Q 208 186 203 182 Q 199 177 201 167 Q 203 157 212 147 Q 221 138 231 136 Q 241 134 246 139 Q 251 143 249 153 Q 247 163 238 173 L 238 173 Z M 206 269 Q 196 278 186 280 L 186 280 Q 176 282 171 278 Q 167 273 169 263 Q 171 253 180 243 Q 189 234 199 232 Q 209 230 214 235 Q 219 239 217 249 Q 215 259 206 269 L 206 269 Z M 174 365 Q 164 374 154 376 L 154 376 Q 144 378 139 374 Q 135 369 137 359 Q 139 349 148 339 Q 157 330 167 328 Q 177 326 182 331 Q 187 335 185 345 Q 183 355 174 365 L 174 365 Z M 278 299 Q 283 303 281 313 L 281 313 Q 279 323 270 333 Q 260 342 250 344 Q 240 346 235 342 Q 231 337 233 327 Q 235 317 244 307 Q 253 298 263 296 Q 273 294 278 299 L 278 299 Z M 310 203 Q 315 207 313 217 L 313 217 Q 311 227 302 237 Q 292 246 282 248 Q 272 250 267 246 Q 263 241 265 231 Q 267 221 276 211 Q 285 202 295 200 Q 305 198 310 203 L 310 203 Z M 366 301 Q 356 310 346 312 L 346 312 Q 336 314 331 310 Q 327 305 329 295 Q 331 285 340 275 Q 349 266 359 264 Q 369 262 374 267 Q 379 271 377 281 Q 375 291 366 301 L 366 301 Z M 142 205 Q 132 214 122 216 L 122 216 Q 112 218 107 214 Q 103 209 105 199 Q 107 189 116 179 Q 125 170 135 168 Q 145 166 150 171 Q 155 175 153 185 Q 151 195 142 205 L 142 205 Z M 118 267 Q 123 271 121 281 L 121 281 Q 119 291 110 301 Q 100 310 90 312 Q 80 314 75 310 Q 71 305 73 295 Q 75 285 84 275 Q 93 266 103 264 Q 113 262 118 267 L 118 267 Z"/>
</svg>
