<svg xmlns="http://www.w3.org/2000/svg" viewBox="0 0 512 512">
    <path d="M 0 256 Q 1 186 34 128 L 34 128 Q 68 70 128 34 Q 189 0 256 0 Q 323 0 384 34 Q 444 70 478 128 Q 511 186 512 256 Q 511 326 478 384 Q 444 442 384 478 Q 323 512 256 512 Q 189 512 128 478 Q 68 442 34 384 Q 1 326 0 256 L 0 256 Z M 142 348 Q 131 359 140 371 Q 157 391 186 407 Q 215 423 256 424 Q 297 423 326 407 Q 355 391 372 371 Q 381 359 371 348 Q 359 339 348 350 Q 334 366 312 379 Q 289 391 256 392 Q 223 391 200 379 Q 178 366 164 350 Q 153 339 142 348 L 142 348 Z M 176 304 Q 190 304 199 295 L 199 295 Q 208 286 208 272 Q 208 270 208 268 L 219 271 Q 233 275 239 261 Q 243 247 229 241 L 133 209 Q 119 206 113 219 Q 110 233 123 239 L 154 249 Q 145 258 144 272 Q 145 286 154 295 Q 163 304 176 304 L 176 304 Z M 368 272 Q 368 258 359 249 L 389 239 Q 403 233 399 219 Q 393 206 379 209 L 283 241 Q 270 247 273 261 Q 279 274 293 271 L 305 267 Q 305 269 305 272 Q 305 286 314 295 Q 323 304 337 304 Q 350 304 359 295 Q 368 286 369 272 L 368 272 Z"/>
</svg>
