<svg xmlns="http://www.w3.org/2000/svg" viewBox="0 0 330 160">
    <path d="M 101 32 Q 94 32 88 33 Q 56 38 32 60 Q 20 69 9 59 Q 0 47 10 36 Q 41 7 84 1 Q 92 0 101 0 Q 116 1 117 16 Q 116 31 101 32 L 101 32 Z M 85 96 Q 99 96 108 105 L 108 105 Q 117 114 117 128 Q 117 142 108 151 Q 99 160 85 160 Q 72 160 63 151 Q 54 142 53 128 Q 54 114 63 105 Q 72 96 85 96 L 85 96 Z M 245 96 Q 259 96 268 105 L 268 105 Q 277 114 277 128 Q 277 142 268 151 Q 259 160 245 160 Q 232 160 223 151 Q 214 142 213 128 Q 214 114 223 105 Q 232 96 245 96 L 245 96 Z M 242 33 Q 236 32 229 32 Q 214 31 213 16 Q 214 1 229 0 Q 238 0 246 1 Q 289 7 320 36 Q 330 47 321 59 Q 310 69 298 60 Q 274 38 242 33 L 242 33 Z"/>
</svg>
