<svg xmlns="http://www.w3.org/2000/svg" viewBox="0 0 256 512">
    <path d="M 48 0 L 208 0 Q 228 1 242 14 Q 255 28 256 48 L 256 66 Q 248 64 240 64 L 16 64 Q 8 64 0 66 L 0 48 Q 1 28 14 14 Q 28 1 48 0 L 48 0 Z M 0 464 L 0 446 Q 8 448 16 448 L 240 448 Q 248 448 256 446 L 256 464 Q 255 484 242 498 Q 228 511 208 512 L 48 512 Q 28 511 14 498 Q 1 484 0 464 L 0 464 Z M 16 221 Q 17 195 34 178 L 34 178 Q 51 161 77 160 Q 102 160 121 178 L 128 185 L 135 178 Q 154 160 179 160 Q 205 161 222 178 Q 239 195 240 221 Q 240 246 222 265 L 139 347 Q 128 357 117 347 L 34 265 Q 16 246 16 221 L 16 221 Z"/>
</svg>
