<svg xmlns="http://www.w3.org/2000/svg" viewBox="0 0 643 288">
    <path d="M 637 275 Q 643 262 636 250 L 636 250 L 636 250 L 635 250 Q 635 250 635 250 Q 635 249 634 248 Q 634 248 634 247 Q 632 245 630 242 Q 625 233 618 218 Q 602 186 600 144 L 600 136 Q 599 78 560 40 Q 522 1 464 0 Q 406 1 368 40 Q 329 78 328 136 L 328 144 Q 326 186 310 218 Q 303 233 298 242 Q 295 246 294 248 Q 293 249 293 249 Q 293 250 293 250 L 293 250 L 293 250 Q 285 262 291 275 Q 298 287 312 288 L 616 288 Q 630 287 637 275 L 637 275 Z M 473 97 Q 496 127 536 128 Q 543 129 544 136 Q 541 163 521 185 Q 496 208 464 208 Q 432 208 407 185 Q 387 163 384 136 Q 385 129 392 128 Q 432 127 455 97 Q 464 89 472 97 L 473 97 Z M 296 136 Q 297 76 332 32 L 52 32 Q 42 32 38 41 Q 24 67 12 97 Q 1 127 0 160 Q 1 197 11 224 Q 21 251 32 267 Q 47 288 75 288 L 261 288 Q 249 259 266 232 L 266 232 L 266 232 L 266 232 L 266 232 Q 266 232 266 231 Q 267 231 267 231 Q 268 229 270 225 Q 275 218 281 205 Q 295 177 296 144 L 296 136 L 296 136 Z"/>
</svg>
