<svg xmlns="http://www.w3.org/2000/svg" viewBox="0 0 480 512">
    <path d="M 256 0 Q 270 0 279 9 L 279 9 Q 288 18 288 32 L 288 240 Q 289 255 304 256 Q 319 255 320 240 L 320 64 Q 320 50 329 41 Q 338 32 352 32 Q 366 32 375 41 Q 384 50 384 64 L 384 240 Q 385 255 400 256 Q 415 255 416 240 L 416 128 Q 416 114 425 105 Q 434 96 448 96 Q 462 96 471 105 Q 480 114 480 128 L 480 336 Q 478 411 428 460 Q 379 510 304 512 L 285 512 Q 192 511 125 448 L 12 341 Q 0 329 0 313 Q 0 297 11 284 Q 23 272 39 272 Q 55 272 68 283 L 128 341 Q 128 339 128 338 Q 128 337 128 336 L 128 64 Q 128 50 137 41 Q 146 32 160 32 Q 174 32 183 41 Q 192 50 192 64 L 192 240 Q 193 255 208 256 Q 223 255 224 240 L 224 32 Q 224 18 233 9 Q 242 0 256 0 L 256 0 Z M 192 336 Q 193 351 208 352 L 216 352 Q 247 353 267 373 Q 287 393 288 424 L 288 432 Q 289 447 304 448 Q 319 447 320 432 L 320 424 Q 319 381 291 352 L 368 352 Q 383 351 384 336 Q 383 321 368 320 L 216 320 L 208 320 Q 193 321 192 336 L 192 336 Z"/>
</svg>
