<svg xmlns="http://www.w3.org/2000/svg" viewBox="0 0 448 448">
    <path d="M 64 64 L 384 64 L 384 288 L 64 288 L 64 64 L 64 64 Z M 48 0 Q 28 1 14 14 L 14 14 Q 1 28 0 48 L 0 304 Q 1 324 14 338 Q 28 351 48 352 L 181 352 L 171 384 L 96 384 Q 82 384 73 393 Q 64 402 64 416 Q 64 430 73 439 Q 82 448 96 448 L 352 448 Q 366 448 375 439 Q 384 430 384 416 Q 384 402 375 393 Q 366 384 352 384 L 277 384 L 267 352 L 400 352 Q 420 351 434 338 Q 447 324 448 304 L 448 48 Q 447 28 434 14 Q 420 1 400 0 L 48 0 L 48 0 Z"/>
</svg>
