<svg xmlns="http://www.w3.org/2000/svg" viewBox="0 0 372 408">
    <path d="M 301 159 Q 320 139 336 110 L 336 110 Q 352 81 363 55 Q 367 44 371 34 Q 371 33 372 32 Q 368 28 365 24 Q 350 10 332 0 Q 327 16 318 36 Q 307 63 294 87 Q 281 111 267 125 Q 245 146 223 160 Q 201 173 177 185 L 176 185 Q 152 196 127 212 Q 101 227 75 253 Q 56 273 39 301 Q 22 330 10 356 Q 5 367 0 377 Q 3 380 6 383 Q 6 383 7 383 Q 21 398 39 408 Q 45 394 53 377 Q 66 351 80 326 Q 95 302 109 287 Q 130 266 153 252 Q 175 239 199 228 L 200 227 Q 224 216 249 200 Q 275 185 301 159 L 301 159 Z"/>
</svg>
