<svg xmlns="http://www.w3.org/2000/svg" viewBox="0 0 516 266">
    <path d="M 229 66 Q 239 99 230 126 L 230 126 Q 220 154 196 163 Q 171 170 147 154 Q 123 137 111 104 Q 101 71 110 44 Q 120 16 144 7 Q 169 0 193 17 Q 217 33 229 66 L 229 66 Z M 92 256 Q 73 266 51 256 L 51 256 Q 29 247 14 222 Q 0 197 3 173 Q 5 150 24 138 Q 43 128 65 138 Q 87 147 102 172 Q 116 197 113 221 Q 111 244 92 256 L 92 256 Z M 424 256 Q 405 244 403 221 L 403 221 Q 400 197 414 172 Q 429 147 451 138 Q 473 128 492 138 Q 511 150 514 173 Q 516 197 502 222 Q 487 247 465 256 Q 443 266 424 256 L 424 256 Z M 312 163 Q 288 154 278 126 L 278 126 Q 269 99 280 66 Q 291 33 315 17 Q 339 0 364 7 Q 388 16 398 44 Q 407 71 397 104 Q 385 137 361 154 Q 337 170 312 163 L 312 163 Z"/>
</svg>
