<svg xmlns="http://www.w3.org/2000/svg" viewBox="0 0 512 506">
    <path d="M 1 279 Q 0 268 0 256 Q 2 157 63 88 L 103 188 Q 107 197 104 207 Q 101 216 92 221 L 1 279 L 1 279 Z M 199 506 Q 147 493 105 463 L 105 463 Q 63 432 36 387 L 144 380 Q 154 380 162 385 Q 170 391 172 401 L 199 506 L 199 506 Z M 476 387 Q 449 432 407 463 L 407 463 Q 365 493 313 506 L 340 401 Q 342 391 350 385 Q 358 380 368 380 L 476 387 L 476 387 Z M 449 88 Q 510 157 512 256 Q 512 268 511 279 L 420 221 Q 411 216 408 207 Q 405 197 409 188 L 449 88 L 449 88 Z M 357 21 L 274 90 Q 266 96 256 96 Q 246 96 238 90 L 155 21 Q 202 0 256 0 Q 310 0 357 21 L 357 21 Z M 242 166 Q 256 157 270 166 L 337 215 Q 350 225 346 242 L 320 320 Q 314 336 297 337 L 215 337 Q 198 336 192 320 L 166 242 Q 162 225 175 215 L 242 166 L 242 166 Z"/>
</svg>
