<svg xmlns="http://www.w3.org/2000/svg" viewBox="0 0 448 432">
    <path d="M 304 144 Q 284 144 267 150 Q 231 113 176 112 Q 151 112 129 121 Q 128 117 128 112 Q 129 85 147 67 Q 165 49 192 48 Q 203 48 213 52 Q 222 29 242 15 Q 262 1 288 0 Q 318 1 339 19 Q 361 37 367 65 Q 371 64 376 64 Q 407 65 427 85 Q 447 105 448 136 Q 448 159 435 177 Q 423 195 403 203 Q 388 176 362 160 Q 336 144 304 144 L 304 144 Z M 448 352 Q 447 386 424 408 L 424 408 Q 402 431 368 432 L 96 432 Q 55 431 28 404 Q 1 377 0 336 Q 1 299 23 274 Q 45 248 80 241 L 80 240 Q 81 199 108 172 Q 135 145 176 144 Q 202 144 224 157 Q 245 169 258 190 Q 278 176 304 176 Q 338 177 361 199 Q 383 222 384 256 Q 384 265 382 273 Q 411 279 429 300 Q 447 322 448 352 L 448 352 Z"/>
</svg>
