<svg xmlns="http://www.w3.org/2000/svg" viewBox="0 0 330 421">
    <path d="M 114 11 Q 103 0 91 9 L 11 73 Q 0 83 9 95 Q 19 106 31 98 L 111 34 Q 122 23 114 11 L 114 11 Z M 208 208 Q 218 197 208 186 Q 197 176 186 186 L 107 265 Q 103 268 98 266 Q 93 265 93 259 L 93 239 Q 91 221 73 219 Q 55 221 53 239 L 53 293 L 53 326 Q 54 366 81 393 Q 108 420 148 421 Q 187 420 216 393 L 272 336 Q 282 325 272 314 Q 261 304 250 314 L 230 333 Q 226 337 221 333 Q 217 328 221 324 L 272 272 Q 282 261 272 250 Q 261 240 250 250 L 198 301 Q 194 305 189 301 Q 185 296 189 292 L 256 224 Q 266 213 256 202 Q 245 192 234 202 L 166 269 Q 162 273 157 269 Q 153 264 157 260 L 208 208 L 208 208 Z M 219 34 L 299 98 Q 311 106 322 95 Q 330 83 319 73 L 239 9 Q 227 0 217 11 Q 208 23 219 34 L 219 34 Z"/>
</svg>
