<svg xmlns="http://www.w3.org/2000/svg" viewBox="0 0 504 504">
    <path d="M 218 14 Q 233 0 252 0 L 252 0 Q 271 0 286 14 L 332 60 L 396 60 Q 416 61 430 74 Q 443 88 444 108 L 444 173 L 490 218 Q 504 233 504 252 Q 504 271 490 286 L 444 332 L 444 396 Q 443 416 430 430 Q 416 443 396 444 L 332 444 L 286 490 Q 271 504 252 504 Q 233 504 218 490 L 173 444 L 108 444 Q 88 443 74 430 Q 61 416 60 396 L 60 332 L 14 286 Q 0 271 0 252 Q 0 233 14 218 L 60 173 L 60 108 Q 61 88 74 74 Q 88 61 108 60 L 173 60 L 218 14 L 218 14 Z M 252 124 Q 230 126 228 148 L 228 260 Q 230 282 252 284 Q 274 282 276 260 L 276 148 Q 274 126 252 124 L 252 124 Z M 284 348 Q 284 334 275 325 L 275 325 Q 266 316 252 316 Q 238 316 229 325 Q 220 334 220 348 Q 220 362 229 371 Q 238 380 252 380 Q 266 380 275 371 Q 284 362 284 348 L 284 348 Z"/>
</svg>
