<svg xmlns="http://www.w3.org/2000/svg" viewBox="0 0 352 224">
    <path d="M 96 32 L 96 144 L 160 144 L 160 32 Q 160 18 151 9 Q 142 0 128 0 Q 114 0 105 9 Q 96 18 96 32 L 96 32 Z M 32 32 Q 18 32 9 41 L 9 41 Q 0 50 0 64 L 0 144 L 64 144 L 64 64 Q 64 50 55 41 Q 46 32 32 32 L 32 32 Z M 224 32 Q 210 32 201 41 L 201 41 Q 192 50 192 64 L 192 160 Q 192 174 201 183 Q 210 192 224 192 Q 238 192 247 183 Q 256 174 256 160 L 256 64 Q 256 50 247 41 Q 238 32 224 32 L 224 32 Z M 320 96 Q 306 96 297 105 L 297 105 Q 288 114 288 128 L 288 192 Q 288 206 297 215 Q 306 224 320 224 Q 334 224 343 215 Q 352 206 352 192 L 352 128 Q 352 114 343 105 Q 334 96 320 96 L 320 96 Z"/>
</svg>
