<svg xmlns="http://www.w3.org/2000/svg" viewBox="0 0 320 452">
    <path d="M 320 160 L 160 0 L 160 128 Q 160 142 169 151 Q 178 160 192 160 L 320 160 L 320 160 Z M 194 226 Q 181 220 172 232 Q 166 245 177 254 Q 199 267 211 288 Q 224 310 224 336 Q 224 362 211 384 Q 199 405 178 418 Q 166 427 172 440 Q 181 452 194 446 Q 222 429 239 400 Q 256 371 256 336 Q 256 301 239 272 Q 222 243 194 226 L 194 226 Z M 102 257 Q 92 254 85 261 L 49 296 L 16 296 Q 1 297 0 312 L 0 360 Q 1 375 16 376 L 49 376 L 85 411 Q 92 418 102 415 Q 111 410 112 400 L 112 272 Q 112 262 102 257 L 102 257 Z M 153 292 Q 143 303 152 315 Q 160 323 160 336 Q 160 349 152 357 Q 143 369 153 380 Q 165 389 176 379 Q 191 361 192 336 Q 191 311 176 293 Q 165 283 153 292 L 153 292 Z"/>
</svg>
