<svg xmlns="http://www.w3.org/2000/svg" viewBox="0 0 576 448">
    <path d="M 232 286 L 256 288 L 344 288 L 482 288 Q 511 287 542 270 Q 573 252 576 224 Q 573 197 542 179 Q 511 161 482 160 L 344 160 L 256 160 L 232 162 L 122 173 L 114 110 Q 111 97 98 96 L 62 96 Q 49 97 46 110 L 36 192 Q 34 192 32 192 Q 32 192 32 192 Q 18 192 9 201 Q 0 210 0 224 Q 0 238 9 247 Q 18 256 32 256 Q 34 256 36 256 L 46 338 Q 49 351 62 352 L 98 352 Q 111 351 114 338 L 122 275 L 232 286 L 232 286 Z M 336 96 L 368 96 L 368 112 Q 369 127 384 128 Q 399 127 400 112 L 400 80 Q 415 79 416 64 Q 415 49 400 48 L 400 16 Q 399 1 384 0 Q 369 1 368 16 L 368 32 L 328 32 L 336 96 L 336 96 Z M 248 32 L 224 32 Q 210 32 201 41 Q 192 50 192 64 Q 192 78 201 87 Q 210 96 224 96 L 240 96 L 248 32 L 248 32 Z M 240 352 L 224 352 Q 210 352 201 361 Q 192 370 192 384 Q 192 398 201 407 Q 210 416 224 416 L 248 416 L 240 352 L 240 352 Z M 328 416 L 368 416 L 368 432 Q 369 447 384 448 Q 399 447 400 432 L 400 400 Q 415 399 416 384 Q 415 369 400 368 L 400 336 Q 399 321 384 320 Q 369 321 368 336 L 368 352 L 336 352 L 328 416 L 328 416 Z"/>
</svg>
