<svg xmlns="http://www.w3.org/2000/svg" viewBox="0 0 512 512">
    <path d="M 456 224 L 312 224 Q 290 222 288 200 L 288 56 Q 289 40 303 34 Q 317 28 329 39 L 369 79 L 442 6 Q 448 0 456 0 Q 464 0 470 6 L 506 42 Q 512 48 512 56 Q 512 64 506 70 L 433 143 L 473 183 Q 484 195 478 209 Q 472 223 456 224 L 456 224 Z M 56 288 L 200 288 Q 222 290 224 312 L 224 456 Q 223 472 209 478 Q 195 484 183 473 L 143 433 L 70 506 Q 64 512 56 512 Q 48 512 42 506 L 6 470 Q 0 464 0 456 Q 0 448 6 442 L 79 369 L 39 329 Q 28 317 34 303 Q 40 289 56 288 L 56 288 Z"/>
</svg>
