<svg xmlns="http://www.w3.org/2000/svg" viewBox="0 0 640 512">
    <path d="M 0 224 Q 1 166 27 117 L 342 365 L 339 366 Q 321 369 320 387 Q 322 407 341 409 L 403 413 L 446 447 Q 434 478 400 480 L 320 480 L 320 488 Q 318 510 296 512 L 256 512 L 256 512 L 96 512 Q 82 512 73 503 Q 64 494 64 480 L 64 407 Q 63 382 47 362 Q 1 301 0 224 L 0 224 Z M 90 45 Q 147 1 224 0 L 248 0 Q 321 1 376 46 Q 431 91 445 160 Q 448 180 460 196 L 502 249 Q 512 261 512 276 Q 512 295 499 307 Q 487 320 468 320 L 448 320 L 448 320 L 448 326 L 90 45 L 90 45 Z M 616 360 Q 638 362 640 384 Q 638 406 616 408 Q 594 406 592 384 Q 594 362 616 360 L 616 360 Z M 528 336 Q 530 314 552 312 Q 574 314 576 336 Q 574 358 552 360 Q 530 358 528 336 L 528 336 Z M 616 264 Q 638 266 640 288 Q 638 310 616 312 Q 594 310 592 288 Q 594 266 616 264 L 616 264 Z"/>
</svg>
