<svg xmlns="http://www.w3.org/2000/svg" viewBox="0 0 448 512">
    <path d="M 211 6 L 62 169 Q 56 176 56 185 Q 58 206 79 208 L 104 208 L 29 314 Q 24 320 24 328 Q 26 350 48 352 L 80 352 L 4 474 Q 0 480 0 487 Q 2 510 25 512 L 192 512 L 192 224 Q 192 210 201 201 Q 210 192 224 192 Q 238 192 247 201 Q 256 210 256 224 L 256 512 L 423 512 Q 446 510 448 487 Q 448 480 444 474 L 368 352 L 400 352 Q 422 350 424 328 Q 424 320 420 314 L 344 208 L 369 208 Q 390 206 392 185 Q 392 176 386 169 L 237 6 Q 232 0 224 0 Q 216 0 211 6 L 211 6 Z"/>
</svg>
