<svg xmlns="http://www.w3.org/2000/svg" viewBox="0 0 484 512">
    <path d="M 108 0 Q 144 1 163 32 Q 181 64 163 96 Q 144 127 108 128 Q 72 127 53 96 Q 35 64 53 32 Q 72 1 108 0 L 108 0 Z M 86 160 L 130 160 Q 144 160 157 165 Q 156 170 156 176 Q 157 214 184 237 Q 157 251 141 277 Q 124 303 124 336 L 124 352 Q 125 396 156 424 L 156 480 Q 156 489 158 498 Q 145 512 124 512 L 92 512 Q 72 511 58 498 Q 45 484 44 464 L 44 348 Q 24 341 12 323 Q 0 305 2 283 L 6 233 Q 9 202 31 181 Q 54 161 86 160 L 86 160 Z M 348 512 Q 327 511 314 498 Q 316 489 316 480 L 316 424 Q 347 396 348 352 L 348 336 Q 348 303 331 277 Q 315 251 288 237 Q 315 214 316 176 Q 316 172 316 169 Q 330 160 348 160 L 380 160 Q 402 160 418 173 Q 435 185 441 206 L 480 343 Q 484 359 475 371 Q 466 383 450 384 L 428 384 L 428 464 Q 427 484 414 498 Q 400 511 380 512 L 348 512 L 348 512 Z M 364 0 Q 400 1 419 32 Q 437 64 419 96 Q 400 127 364 128 Q 328 127 309 96 Q 291 64 309 32 Q 328 1 364 0 L 364 0 Z"/>
</svg>
