<svg xmlns="http://www.w3.org/2000/svg" viewBox="0 0 640 512">
    <path d="M 224 123 Q 239 116 255 112 L 298 15 Q 304 1 320 0 Q 336 1 342 15 L 385 112 Q 401 117 416 123 L 526 76 Q 540 71 550 83 Q 559 95 550 108 L 492 179 Q 503 192 510 207 L 625 236 Q 639 241 640 256 Q 639 271 625 276 L 510 305 Q 503 320 492 333 L 550 404 Q 559 416 550 429 Q 540 441 526 436 L 416 389 Q 401 396 385 400 L 342 497 Q 336 511 320 512 Q 304 511 298 497 L 255 400 Q 239 396 224 389 L 114 436 Q 100 441 90 429 Q 82 417 90 404 L 148 333 Q 137 320 130 305 L 16 276 Q 1 271 0 256 Q 1 241 16 236 L 130 207 Q 137 192 148 179 L 90 108 Q 82 95 90 83 Q 100 71 114 76 L 224 123 L 224 123 Z M 416 256 Q 416 226 400 203 Q 364 223 320 224 Q 276 223 240 203 Q 224 226 224 256 Q 225 297 252 324 Q 279 351 320 352 Q 361 351 388 324 Q 415 297 416 256 L 416 256 Z"/>
</svg>
