<svg xmlns="http://www.w3.org/2000/svg" viewBox="0 0 448 448">
    <path d="M 128 0 Q 114 0 105 9 L 105 9 Q 96 18 96 32 L 96 64 L 48 64 Q 28 65 14 78 Q 1 92 0 112 L 0 192 L 448 192 L 448 112 Q 447 92 434 78 Q 420 65 400 64 L 352 64 L 352 32 Q 352 18 343 9 Q 334 0 320 0 Q 306 0 297 9 Q 288 18 288 32 L 288 64 L 160 64 L 160 32 Q 160 18 151 9 Q 142 0 128 0 L 128 0 Z M 248 424 L 248 322 L 287 361 Q 304 375 321 361 Q 335 344 321 327 L 241 247 Q 224 233 207 247 L 127 327 Q 113 344 127 361 Q 144 375 161 361 L 200 322 L 200 424 Q 202 446 224 448 Q 246 446 248 424 L 248 424 Z"/>
</svg>
