<svg xmlns="http://www.w3.org/2000/svg" viewBox="0 0 508 508">
    <path d="M 508 222 Q 496 133 435 73 L 435 73 Q 375 12 286 0 L 286 65 Q 347 76 390 118 Q 432 161 443 222 L 508 222 L 508 222 Z M 443 286 Q 432 347 390 390 L 390 390 Q 347 432 286 443 L 286 508 Q 375 496 435 435 Q 496 375 508 286 L 443 286 L 443 286 Z M 65 286 L 0 286 Q 12 375 73 435 Q 133 496 222 508 L 222 443 Q 161 432 118 390 Q 76 347 65 286 L 65 286 Z M 65 222 Q 76 161 118 118 L 118 118 Q 161 76 222 65 L 222 0 Q 133 12 73 73 Q 12 133 0 222 L 65 222 L 65 222 Z"/>
</svg>
