<svg xmlns="http://www.w3.org/2000/svg" viewBox="0 0 514 506">
    <path d="M 479 129 Q 514 191 513 258 L 513 258 Q 512 325 480 384 L 480 384 Q 447 442 385 479 Q 372 486 359 492 Q 369 472 369 449 L 369 393 Q 406 361 421 317 Q 435 273 424 228 Q 421 217 411 214 Q 402 211 392 216 L 154 354 Q 145 359 143 369 Q 141 379 148 387 Q 161 400 177 409 L 177 449 Q 178 481 195 506 Q 146 493 105 463 Q 63 432 35 385 Q 0 323 1 256 Q 2 189 35 130 Q 68 72 129 35 Q 191 0 258 1 Q 326 2 384 35 Q 442 68 479 129 L 479 129 Z M 193 225 Q 192 189 161 170 Q 129 152 97 170 Q 66 189 65 225 Q 66 261 97 280 Q 129 298 161 280 Q 192 261 193 225 L 193 225 Z M 313 225 Q 354 224 375 189 Q 395 153 375 117 Q 354 82 313 81 Q 272 82 251 117 Q 231 153 251 189 Q 272 224 313 225 L 313 225 Z"/>
</svg>
