<svg xmlns="http://www.w3.org/2000/svg" viewBox="0 0 128 448">
    <path d="M 40 448 L 88 448 Q 105 448 116 436 Q 128 425 128 408 L 128 360 Q 128 343 116 332 Q 105 320 88 320 L 40 320 Q 23 320 12 332 Q 0 343 0 360 L 0 408 Q 0 425 12 436 Q 23 448 40 448 L 40 448 Z M 40 288 L 88 288 Q 105 288 116 276 Q 128 265 128 248 L 128 200 Q 128 183 116 172 Q 105 160 88 160 L 40 160 Q 23 160 12 172 Q 0 183 0 200 L 0 248 Q 0 265 12 276 Q 23 288 40 288 L 40 288 Z M 40 0 Q 23 0 12 12 L 12 12 Q 0 23 0 40 L 0 88 Q 0 105 12 116 Q 23 128 40 128 L 88 128 Q 105 128 116 116 Q 128 105 128 88 L 128 40 Q 128 23 116 12 Q 105 0 88 0 L 40 0 L 40 0 Z"/>
</svg>
