<svg xmlns="http://www.w3.org/2000/svg" viewBox="0 0 448 265">
    <path d="M 80 105 Q 107 104 121 81 Q 134 57 121 33 Q 107 10 80 9 Q 53 10 38 33 Q 25 57 38 81 Q 53 104 80 105 L 80 105 Z M 53 137 Q 31 138 16 153 L 16 153 Q 1 168 0 190 Q 2 215 27 217 L 83 217 Q 89 191 106 172 Q 123 153 148 143 Q 137 137 123 137 L 53 137 L 53 137 Z M 421 217 Q 446 215 448 190 Q 447 168 432 153 Q 417 138 395 137 L 325 137 Q 311 137 300 143 Q 325 153 342 172 Q 359 191 365 217 L 421 217 L 421 217 Z M 332 217 Q 317 179 276 170 Q 270 169 264 169 L 184 169 Q 178 169 172 170 Q 131 179 116 217 Q 112 228 112 241 Q 114 263 136 265 L 312 265 Q 334 263 336 241 Q 336 228 332 217 L 332 217 Z M 368 105 Q 395 104 410 81 Q 422 57 410 33 Q 395 10 368 9 Q 341 10 326 33 Q 314 57 326 81 Q 341 104 368 105 L 368 105 Z M 288 73 Q 287 37 256 18 Q 224 0 192 18 Q 161 37 160 73 Q 161 109 192 128 Q 224 146 256 128 Q 287 109 288 73 L 288 73 Z"/>
</svg>
