<svg xmlns="http://www.w3.org/2000/svg" viewBox="0 0 352 451">
    <path d="M 191 60 Q 195 40 184 24 L 184 24 Q 173 8 153 4 Q 133 0 117 11 Q 101 22 97 42 L 95 53 Q 84 104 43 137 L 36 143 Q 1 172 0 218 L 0 243 L 0 291 L 0 329 Q 1 380 43 409 L 81 435 Q 105 451 135 451 L 232 451 Q 252 450 266 437 Q 279 423 280 403 Q 280 398 279 393 Q 310 381 312 347 Q 312 333 305 322 Q 322 319 333 306 Q 344 293 344 275 Q 343 252 326 238 Q 351 224 352 195 Q 351 175 338 161 Q 324 148 304 147 L 160 147 Q 181 112 189 72 L 191 60 L 191 60 Z"/>
</svg>
