<svg xmlns="http://www.w3.org/2000/svg" viewBox="0 0 419 430">
    <path d="M 116 5 Q 128 0 140 4 L 140 4 Q 152 8 159 20 L 184 70 L 226 78 Q 256 84 280 103 L 406 201 Q 416 209 418 222 Q 419 235 411 246 Q 403 256 390 258 Q 377 259 366 251 L 294 195 L 223 227 L 256 255 Q 273 269 280 291 Q 287 312 283 334 L 265 409 Q 261 424 249 430 L 204 413 Q 201 404 203 395 L 220 320 Q 222 310 215 304 L 162 260 L 162 278 Q 160 312 129 324 L 45 352 L 6 337 Q 5 335 4 332 Q 0 319 5 308 Q 11 296 24 292 L 98 267 L 98 214 Q 99 175 133 157 L 179 134 L 171 132 Q 141 126 126 98 L 101 48 Q 96 36 100 24 Q 104 12 116 5 L 116 5 Z M 338 2 Q 365 3 380 26 Q 392 50 380 74 Q 365 97 338 98 Q 311 97 296 74 Q 284 50 296 26 Q 311 3 338 2 L 338 2 Z"/>
</svg>
