<svg xmlns="http://www.w3.org/2000/svg" viewBox="0 0 512 487">
    <path d="M 146 0 L 186 55 Q 192 63 192 73 L 192 113 Q 192 119 196 123 Q 208 133 218 122 L 232 105 Q 240 96 252 101 L 267 108 Q 272 111 278 111 Q 288 111 295 104 L 299 100 Q 304 95 310 98 L 339 113 Q 351 119 352 133 Q 351 150 335 155 L 299 164 Q 288 167 277 163 L 245 153 Q 240 151 235 151 Q 224 151 215 157 L 176 187 Q 160 199 160 219 L 160 247 Q 161 267 174 281 Q 188 294 208 295 L 240 295 Q 255 296 256 311 L 256 359 Q 256 373 265 382 Q 274 391 288 391 Q 304 391 314 378 L 339 344 Q 352 327 352 306 L 352 294 Q 352 287 358 285 L 364 284 Q 383 278 384 258 Q 384 247 376 239 L 343 206 Q 337 199 343 192 Q 352 184 364 187 L 377 191 Q 399 197 411 177 Q 416 168 428 167 L 504 167 Q 512 198 512 231 Q 511 303 477 360 Q 443 418 385 452 Q 328 486 256 487 Q 185 486 127 452 Q 69 418 35 360 Q 1 303 0 231 Q 1 153 41 93 Q 80 32 146 0 L 146 0 Z"/>
</svg>
