<svg xmlns="http://www.w3.org/2000/svg" viewBox="0 0 440 448">
    <path d="M 409 169 Q 401 179 400 193 L 400 217 Q 400 227 407 234 Q 439 270 440 320 Q 439 374 403 411 Q 366 447 312 448 L 196 448 Q 113 446 57 391 Q 2 335 0 252 L 0 247 Q 2 226 23 224 Q 32 224 39 231 L 54 246 Q 64 256 78 252 L 250 203 Q 258 200 261 193 Q 264 187 258 181 L 258 181 Q 225 151 224 104 Q 225 60 255 30 Q 284 1 328 0 Q 372 1 402 30 Q 431 60 432 104 Q 431 142 409 169 L 409 169 Z M 368 104 Q 366 82 344 80 Q 322 82 320 104 Q 322 126 344 128 Q 366 126 368 104 L 368 104 Z M 341 265 Q 340 250 326 248 Q 311 249 309 263 Q 306 295 286 319 Q 265 344 231 353 Q 201 360 173 351 Q 146 342 128 320 Q 118 309 105 317 Q 95 327 103 340 Q 127 369 163 381 Q 199 394 239 384 Q 283 372 310 340 Q 338 307 341 265 L 341 265 Z"/>
</svg>
