<svg xmlns="http://www.w3.org/2000/svg" viewBox="0 0 555 448">
    <path d="M 283 448 Q 249 448 219 436 Q 248 414 267 383 Q 275 384 283 384 Q 331 383 362 351 Q 394 320 395 272 Q 394 221 358 189 Q 359 188 361 188 Q 393 172 395 136 L 395 115 L 436 74 L 402 41 Q 395 34 395 24 L 395 24 L 395 24 Q 395 19 397 15 Q 403 1 419 0 L 531 0 Q 553 2 555 24 L 555 136 Q 554 152 540 158 Q 526 164 514 153 L 481 120 L 428 172 Q 458 216 459 272 Q 457 347 407 396 Q 358 446 283 448 L 283 448 Z M 507 48 L 507 48 L 507 48 L 507 48 L 507 48 Z M 91 192 Q 136 193 160 232 Q 182 272 160 312 Q 136 351 91 352 Q 46 351 22 312 Q 0 272 22 232 Q 46 193 91 192 L 91 192 Z"/>
</svg>
