<svg xmlns="http://www.w3.org/2000/svg" viewBox="0 0 346 224">
    <path d="M 0 0 L 346 0 L 315 210 Q 312 223 300 224 L 47 224 Q 34 223 31 210 L 0 0 L 0 0 Z M 93 32 Q 79 32 70 41 L 70 41 Q 61 50 61 64 L 61 112 Q 61 126 70 135 Q 79 144 93 144 L 141 144 Q 146 144 151 143 Q 149 136 149 129 L 149 127 Q 149 104 165 87 L 173 80 L 173 64 Q 173 50 164 41 Q 155 32 141 32 L 93 32 L 93 32 Z M 182 105 Q 173 114 173 127 L 173 129 Q 173 142 182 151 L 214 183 Q 223 192 236 192 L 238 192 Q 251 192 261 183 L 292 151 Q 301 142 301 129 L 301 127 Q 301 114 292 105 L 261 73 Q 251 64 238 64 L 236 64 Q 223 64 214 73 L 182 105 L 182 105 Z"/>
</svg>
