<svg xmlns="http://www.w3.org/2000/svg" viewBox="0 0 512 512">
    <path d="M 244 335 L 343 413 Q 338 416 332 418 L 68 506 Q 50 512 36 499 L 189 345 Q 199 350 210 350 Q 231 349 244 335 L 244 335 Z M 84 209 L 169 276 Q 162 288 162 302 Q 162 313 167 323 L 13 476 Q 0 462 6 444 L 84 209 L 84 209 Z M 417 231 L 388 326 L 146 136 L 281 95 L 290 93 L 419 222 L 417 231 L 417 231 Z M 370 16 Q 388 0 410 0 L 410 0 Q 432 0 450 16 L 496 62 Q 512 80 512 102 Q 512 124 496 142 L 440 197 L 315 72 L 370 16 L 370 16 Z"/>
</svg>
