<svg xmlns="http://www.w3.org/2000/svg" viewBox="0 0 416 354">
    <path d="M 187 17 Q 180 6 167 3 L 167 3 Q 155 0 143 7 L 83 44 Q 44 69 22 109 Q 0 148 0 194 L 0 202 Q 0 215 2 228 Q 29 235 46 256 Q 63 277 64 306 Q 64 315 62 324 Q 101 353 152 354 L 328 354 Q 350 352 352 330 Q 350 308 328 306 L 236 306 Q 225 305 224 294 Q 225 283 236 282 L 360 282 Q 382 280 384 258 Q 382 236 360 234 L 236 234 Q 225 233 224 222 Q 225 211 236 210 L 392 210 Q 414 208 416 186 Q 414 164 392 162 L 236 162 Q 225 161 224 150 Q 225 139 236 138 L 360 138 Q 382 136 384 114 Q 382 92 360 90 L 224 90 L 224 90 L 224 90 L 131 90 L 177 61 Q 188 54 191 41 Q 194 29 187 17 L 187 17 Z"/>
</svg>
