<svg xmlns="http://www.w3.org/2000/svg" viewBox="0 0 624 128">
    <path d="M 306 3 Q 302 11 295 26 L 295 26 Q 289 41 288 56 Q 290 78 312 80 Q 334 78 336 56 Q 335 41 329 26 Q 322 11 318 3 Q 316 0 312 0 Q 308 0 306 3 L 306 3 Z M 18 51 Q 14 59 7 74 L 7 74 Q 1 89 0 104 Q 2 126 24 128 Q 46 126 48 104 Q 47 89 41 74 Q 34 59 30 51 Q 28 48 24 48 Q 20 48 18 51 L 18 51 Z M 80 104 Q 82 126 104 128 Q 126 126 128 104 Q 127 89 121 74 Q 114 59 110 51 Q 108 48 104 48 Q 100 48 98 51 Q 94 59 87 74 Q 81 89 80 104 L 80 104 Z M 162 51 Q 158 59 151 74 L 151 74 Q 145 89 144 104 Q 146 126 168 128 Q 190 126 192 104 Q 191 89 185 74 Q 178 59 174 51 Q 172 48 168 48 Q 164 48 162 51 L 162 51 Z M 208 104 Q 210 126 232 128 Q 254 126 256 104 Q 255 89 249 74 Q 242 59 238 51 Q 236 48 232 48 Q 228 48 226 51 Q 222 59 215 74 Q 209 89 208 104 L 208 104 Z M 386 51 Q 382 59 375 74 L 375 74 Q 369 89 368 104 Q 370 126 392 128 Q 414 126 416 104 Q 415 89 409 74 Q 402 59 398 51 Q 396 48 392 48 Q 388 48 386 51 L 386 51 Z M 432 104 Q 434 126 456 128 Q 478 126 480 104 Q 479 89 473 74 Q 466 59 462 51 Q 460 48 456 48 Q 452 48 450 51 Q 446 59 439 74 Q 433 89 432 104 L 432 104 Z M 514 51 Q 510 59 503 74 L 503 74 Q 497 89 496 104 Q 498 126 520 128 Q 542 126 544 104 Q 543 89 537 74 Q 530 59 526 51 Q 524 48 520 48 Q 516 48 514 51 L 514 51 Z M 576 104 Q 578 126 600 128 Q 622 126 624 104 Q 623 89 617 74 Q 610 59 606 51 Q 604 48 600 48 Q 596 48 594 51 Q 590 59 583 74 Q 577 89 576 104 L 576 104 Z"/>
</svg>
