<svg xmlns="http://www.w3.org/2000/svg" viewBox="0 0 512 499">
    <path d="M 68 429 Q 112 477 175 499 Q 160 476 160 448 L 160 417 Q 144 406 144 392 Q 145 372 177 358 Q 208 345 256 344 Q 304 345 335 358 Q 367 372 368 392 Q 368 406 352 417 L 352 448 Q 352 476 338 499 Q 415 472 463 407 Q 511 342 512 256 Q 511 184 477 127 Q 443 69 385 35 Q 328 1 256 0 Q 184 1 127 35 Q 69 69 35 127 Q 1 184 0 256 Q 0 257 0 258 Q 0 258 0 259 Q 28 249 48 272 Q 60 287 76 313 Q 83 325 89 339 Q 95 351 96 369 Q 95 407 68 429 L 68 429 Z M 368 272 Q 367 286 358 295 L 358 295 Q 349 304 336 304 Q 322 304 313 295 Q 304 286 304 272 Q 304 258 313 249 Q 322 240 336 240 Q 349 240 358 249 Q 367 258 368 272 L 368 272 Z M 176 240 Q 189 240 198 249 L 198 249 Q 207 258 208 272 Q 207 286 198 295 Q 189 304 176 304 Q 162 304 153 295 Q 144 286 144 272 Q 144 258 153 249 Q 162 240 176 240 L 176 240 Z M 195 149 Q 205 160 195 171 L 188 179 Q 151 215 101 223 L 99 224 Q 84 225 80 211 Q 79 196 93 192 L 96 192 Q 136 185 165 156 L 173 149 Q 184 139 195 149 L 195 149 Z M 317 171 Q 307 160 317 149 Q 328 139 339 149 L 347 156 Q 376 185 416 192 L 419 192 Q 433 196 432 211 Q 428 225 414 224 L 411 223 Q 361 215 324 179 L 317 171 L 317 171 Z"/>
</svg>
