<svg xmlns="http://www.w3.org/2000/svg" viewBox="0 0 384 512">
    <path d="M 0 64 Q 1 37 19 19 L 19 19 Q 37 1 64 0 L 224 0 L 224 128 Q 224 142 233 151 Q 242 160 256 160 L 384 160 L 384 448 Q 383 475 365 493 Q 347 511 320 512 L 64 512 Q 37 511 19 493 Q 1 475 0 448 L 0 64 L 0 64 Z M 80 301 Q 80 326 98 345 L 181 427 Q 192 437 203 427 L 286 345 Q 303 326 304 301 Q 303 275 286 258 Q 269 241 243 240 Q 217 240 199 258 L 192 265 L 184 258 Q 166 240 141 240 Q 115 241 98 258 Q 81 275 80 301 L 80 301 Z"/>
</svg>
