<svg xmlns="http://www.w3.org/2000/svg" viewBox="0 0 336 336">
    <path d="M 0 168 Q 0 122 23 84 L 23 84 Q 45 46 84 23 Q 124 0 168 0 Q 212 0 252 23 Q 291 46 313 84 Q 336 122 336 168 Q 336 214 313 252 Q 291 290 252 313 Q 212 336 168 336 Q 124 336 84 313 Q 45 290 23 252 Q 0 214 0 168 L 0 168 Z M 280 168 Q 280 138 265 112 L 265 112 Q 250 86 224 71 Q 198 56 168 56 Q 138 56 112 71 Q 86 86 71 112 Q 56 138 56 168 Q 56 198 71 224 Q 86 250 112 265 Q 138 280 168 280 Q 198 280 224 265 Q 250 250 265 224 Q 280 198 280 168 L 280 168 Z M 131 157 L 179 205 Q 189 216 179 227 Q 168 237 157 227 L 109 179 Q 99 168 109 157 Q 120 147 131 157 L 131 157 Z"/>
</svg>
