<svg xmlns="http://www.w3.org/2000/svg" viewBox="0 0 288 416">
    <path d="M 0 32 Q 0 18 9 9 L 9 9 Q 18 0 32 0 L 96 0 Q 110 0 119 9 Q 128 18 128 32 L 188 32 Q 221 32 245 55 L 279 89 Q 288 99 288 112 Q 288 125 279 135 Q 269 144 256 144 Q 243 144 233 135 L 199 101 Q 195 96 188 96 L 128 96 L 128 160 L 0 160 L 0 32 L 0 32 Z M 128 360 Q 127 387 109 401 L 109 401 Q 91 416 64 416 Q 37 416 19 401 Q 1 387 0 360 Q 2 334 20 305 Q 39 276 51 262 Q 56 256 64 256 Q 72 256 77 262 Q 89 276 108 305 Q 126 334 128 360 L 128 360 Z"/>
</svg>
