<svg xmlns="http://www.w3.org/2000/svg" viewBox="0 0 512 512">
    <path d="M 494 1 L 299 76 L 302 46 Q 302 36 294 32 Q 287 27 278 31 L 101 133 Q 54 161 27 208 Q 0 254 0 309 Q 2 395 59 453 Q 117 510 203 512 Q 258 512 304 485 Q 351 458 379 411 L 481 234 Q 485 225 481 218 Q 476 210 466 210 L 436 213 L 511 18 Q 512 16 512 13 Q 511 1 499 0 Q 496 0 494 1 L 494 1 Z M 192 192 Q 227 192 256 209 L 256 209 Q 285 226 303 256 Q 320 286 320 320 Q 320 354 303 384 Q 285 414 256 431 Q 227 448 192 448 Q 157 448 128 431 Q 99 414 81 384 Q 64 354 64 320 Q 64 286 81 256 Q 99 226 128 209 Q 157 192 192 192 L 192 192 Z"/>
</svg>
