<svg xmlns="http://www.w3.org/2000/svg" viewBox="0 0 384 512">
    <path d="M 0 64 Q 1 37 19 19 L 19 19 Q 37 1 64 0 L 224 0 L 224 128 Q 224 142 233 151 Q 242 160 256 160 L 384 160 L 384 448 Q 383 475 365 493 Q 347 511 320 512 L 64 512 Q 37 511 19 493 Q 1 475 0 448 L 0 64 L 0 64 Z M 111 257 Q 103 237 81 241 Q 61 249 65 271 L 113 431 Q 119 447 135 448 Q 152 448 159 432 L 192 337 L 225 432 Q 232 447 249 448 Q 265 447 271 431 L 319 271 Q 323 249 303 241 Q 281 237 273 257 L 246 346 L 214 256 Q 208 241 192 240 Q 175 241 169 256 L 137 346 L 111 257 L 111 257 Z"/>
</svg>
