<svg xmlns="http://www.w3.org/2000/svg" viewBox="0 0 448 336">
    <path d="M 64 64 Q 65 37 83 19 L 83 19 Q 101 1 128 0 L 320 0 Q 347 1 365 19 Q 383 37 384 64 L 384 160 L 64 160 L 64 64 L 64 64 Z M 152 288 Q 174 290 176 312 Q 174 334 152 336 Q 130 334 128 312 Q 130 290 152 288 L 152 288 Z M 296 288 Q 318 290 320 312 Q 318 334 296 336 Q 274 334 272 312 Q 274 290 296 288 L 296 288 Z M 32 192 L 416 192 Q 430 192 439 201 Q 448 210 448 224 Q 448 238 439 247 Q 430 256 416 256 L 32 256 Q 18 256 9 247 Q 0 238 0 224 Q 0 210 9 201 Q 18 192 32 192 L 32 192 Z"/>
</svg>
