<svg xmlns="http://www.w3.org/2000/svg" viewBox="0 0 320 512">
    <path d="M 0 48 Q 1 28 14 14 L 14 14 Q 28 1 48 0 L 272 0 Q 292 1 306 14 Q 319 28 320 48 L 320 272 L 320 368 Q 291 384 274 413 Q 256 441 256 477 Q 256 496 266 512 L 48 512 Q 28 511 14 498 Q 1 484 0 464 L 0 384 L 144 384 Q 159 383 160 368 Q 159 353 144 352 L 0 352 L 0 288 L 144 288 Q 159 287 160 272 Q 159 257 144 256 L 0 256 L 0 48 L 0 48 Z M 136 80 L 136 104 L 112 104 Q 97 105 96 120 L 96 136 Q 97 151 112 152 L 136 152 L 136 176 Q 137 191 152 192 L 168 192 Q 183 191 184 176 L 184 152 L 208 152 Q 223 151 224 136 L 224 120 Q 223 105 208 104 L 184 104 L 184 80 Q 183 65 168 64 L 152 64 Q 137 65 136 80 L 136 80 Z"/>
</svg>
