<svg xmlns="http://www.w3.org/2000/svg" viewBox="0 0 576 448">
    <path d="M 88 48 Q 71 48 60 60 L 60 60 Q 48 71 48 88 L 48 160 L 32 160 Q 14 160 0 169 L 0 88 Q 1 51 26 26 Q 51 1 88 0 L 488 0 Q 525 1 550 26 Q 575 51 576 88 L 576 169 Q 562 160 544 160 L 528 160 L 528 88 Q 528 71 516 60 Q 505 48 488 48 L 88 48 L 88 48 Z M 416 160 L 352 160 Q 352 146 361 137 Q 370 128 384 128 Q 398 128 407 137 Q 416 146 416 160 L 416 160 Z M 320 160 L 256 160 Q 256 146 265 137 Q 274 128 288 128 Q 302 128 311 137 Q 320 146 320 160 L 320 160 Z M 224 160 L 160 160 Q 160 146 169 137 Q 178 128 192 128 Q 206 128 215 137 Q 224 146 224 160 L 224 160 Z M 144 416 Q 189 415 213 376 Q 235 336 213 296 Q 189 257 144 256 Q 99 257 75 296 Q 53 336 75 376 Q 99 415 144 416 L 144 416 Z M 144 224 Q 174 224 200 239 L 200 239 Q 226 254 241 280 Q 256 306 256 336 Q 256 366 241 392 Q 226 418 200 433 Q 174 448 144 448 Q 114 448 88 433 Q 62 418 47 392 Q 32 366 32 336 Q 32 306 47 280 Q 62 254 88 239 Q 114 224 144 224 L 144 224 Z M 512 336 Q 511 291 472 267 Q 432 245 392 267 Q 353 291 352 336 Q 353 381 392 405 Q 432 427 472 405 Q 511 381 512 336 L 512 336 Z M 320 336 Q 320 306 335 280 L 335 280 Q 350 254 376 239 Q 402 224 432 224 Q 462 224 488 239 Q 514 254 529 280 Q 544 306 544 336 Q 544 366 529 392 Q 514 418 488 433 Q 462 448 432 448 Q 402 448 376 433 Q 350 418 335 392 Q 320 366 320 336 L 320 336 Z"/>
</svg>
