<svg xmlns="http://www.w3.org/2000/svg" viewBox="0 0 512 512">
    <path d="M 48 0 Q 28 1 14 14 L 14 14 Q 1 28 0 48 L 0 176 Q 1 196 14 210 Q 28 223 48 224 L 176 224 Q 196 223 210 210 Q 223 196 224 176 L 224 48 Q 223 28 210 14 Q 196 1 176 0 L 48 0 L 48 0 Z M 336 0 Q 316 1 302 14 L 302 14 Q 289 28 288 48 L 288 176 Q 289 196 302 210 Q 316 223 336 224 L 464 224 Q 484 223 498 210 Q 511 196 512 176 L 512 48 Q 511 28 498 14 Q 484 1 464 0 L 336 0 L 336 0 Z M 0 336 L 0 464 Q 1 484 14 498 Q 28 511 48 512 L 176 512 Q 196 511 210 498 Q 223 484 224 464 L 224 336 Q 223 316 210 302 Q 196 289 176 288 L 48 288 Q 28 289 14 302 Q 1 316 0 336 L 0 336 Z M 416 64 L 416 96 L 448 96 Q 463 97 464 112 Q 463 127 448 128 L 416 128 L 416 160 Q 415 175 400 176 Q 385 175 384 160 L 384 128 L 352 128 Q 337 127 336 112 Q 337 97 352 96 L 384 96 L 384 64 Q 385 49 400 48 Q 415 49 416 64 L 416 64 Z M 64 96 L 160 96 Q 175 97 176 112 Q 175 127 160 128 L 64 128 Q 49 127 48 112 Q 49 97 64 96 L 64 96 Z M 83 349 L 112 377 L 141 349 Q 152 339 163 349 Q 173 360 163 371 L 135 400 L 163 429 Q 173 440 163 451 Q 152 461 141 451 L 112 423 L 83 451 Q 72 461 61 451 Q 51 440 61 429 L 89 400 L 61 371 Q 51 360 61 349 Q 72 339 83 349 L 83 349 Z"/>
</svg>
