<svg xmlns="http://www.w3.org/2000/svg" viewBox="0 0 508 512">
    <path d="M 24 148 L 67 212 Q 80 232 103 238 L 163 256 Q 190 265 192 294 L 192 334 Q 193 352 208 360 Q 223 368 224 386 L 224 425 Q 224 437 233 444 Q 242 450 254 448 Q 279 439 287 414 L 289 403 Q 296 376 320 363 L 328 358 Q 351 344 352 316 L 352 308 Q 352 288 338 274 L 334 270 Q 320 256 300 256 L 257 256 Q 240 256 225 248 L 191 228 Q 184 224 182 217 Q 177 201 192 192 L 198 189 Q 208 184 219 188 L 242 195 Q 256 199 264 188 Q 271 176 263 165 L 249 149 Q 234 128 249 108 L 266 89 Q 279 72 269 53 L 241 0 Q 249 0 256 0 Q 330 1 389 37 Q 448 73 481 134 L 411 164 Q 387 177 393 204 L 411 257 Q 416 272 431 277 L 508 303 Q 489 394 421 452 Q 352 510 256 512 Q 184 511 127 477 Q 69 443 35 385 Q 1 328 0 256 Q 0 198 24 148 L 24 148 Z"/>
</svg>
