<svg xmlns="http://www.w3.org/2000/svg" viewBox="0 0 384 352">
    <path d="M 112 64 Q 92 65 78 78 L 78 78 Q 65 92 64 112 L 64 320 Q 64 334 55 343 Q 46 352 32 352 Q 18 352 9 343 Q 0 334 0 320 L 0 112 L 0 32 Q 0 18 9 9 Q 18 0 32 0 Q 49 1 58 14 Q 82 0 112 0 Q 160 1 192 34 Q 224 1 272 0 Q 320 1 351 33 Q 383 64 384 112 L 384 320 Q 384 334 375 343 Q 366 352 352 352 Q 338 352 329 343 Q 320 334 320 320 L 320 112 Q 319 92 306 78 Q 292 65 272 64 Q 252 65 238 78 Q 225 92 224 112 L 224 320 Q 224 334 215 343 Q 206 352 192 352 Q 178 352 169 343 Q 160 334 160 320 L 160 112 Q 159 92 146 78 Q 132 65 112 64 L 112 64 Z"/>
</svg>
