<svg xmlns="http://www.w3.org/2000/svg" viewBox="0 0 384 384">
    <path d="M 0 32 Q 0 18 9 9 L 9 9 Q 18 0 32 0 L 160 0 Q 174 0 183 9 Q 192 18 192 32 L 192 96 Q 192 110 183 119 Q 174 128 160 128 L 32 128 Q 18 128 9 119 Q 0 110 0 96 L 0 32 L 0 32 Z M 256 32 Q 256 18 265 9 L 265 9 Q 274 0 288 0 L 352 0 Q 366 0 375 9 Q 384 18 384 32 L 384 96 L 352 96 Q 337 97 336 112 Q 337 127 352 128 L 384 128 L 384 224 L 285 224 Q 273 201 256 183 L 256 32 L 256 32 Z M 128 224 Q 173 225 197 264 Q 219 304 197 344 Q 173 383 128 384 Q 83 383 59 344 Q 37 304 59 264 Q 83 225 128 224 L 128 224 Z"/>
</svg>
