<svg xmlns="http://www.w3.org/2000/svg" viewBox="0 0 512 384">
    <path d="M 32 0 Q 18 0 9 9 L 9 9 Q 0 18 0 32 L 0 80 Q 0 94 9 103 Q 18 112 32 112 L 480 112 Q 494 112 503 103 Q 512 94 512 80 L 512 32 Q 512 18 503 9 Q 494 0 480 0 L 32 0 L 32 0 Z M 234 278 Q 224 272 213 272 L 208 272 L 32 272 Q 18 272 9 281 Q 0 290 0 304 L 0 352 Q 0 366 9 375 Q 18 384 32 384 L 480 384 Q 494 384 503 375 Q 512 366 512 352 L 512 304 Q 512 290 503 281 Q 494 272 480 272 L 432 272 L 427 272 Q 416 272 406 278 L 336 319 Q 320 327 304 319 L 234 278 L 234 278 Z"/>
</svg>
