<svg xmlns="http://www.w3.org/2000/svg" viewBox="0 0 352 384">
    <path d="M 305 298 Q 273 337 256 384 L 96 384 Q 79 338 47 299 Q 47 298 47 298 Q 39 287 31 276 Q 1 233 0 176 Q 2 101 52 52 Q 101 2 176 0 Q 251 2 300 52 Q 350 101 352 176 Q 351 233 321 276 Q 313 287 305 297 Q 305 298 305 298 L 305 298 Z M 196 88 Q 194 70 176 68 Q 158 70 156 88 L 156 102 Q 144 104 134 111 Q 110 123 108 154 Q 111 184 133 195 Q 151 205 168 209 L 170 210 Q 189 215 198 220 Q 205 225 204 228 Q 204 236 198 239 Q 190 244 177 244 Q 161 243 142 235 Q 138 234 134 233 Q 116 229 109 245 Q 105 263 122 271 Q 125 272 128 273 L 128 273 L 128 273 Q 140 278 156 281 L 156 296 Q 158 314 176 316 Q 194 314 196 296 L 196 282 Q 208 280 219 273 Q 242 260 244 228 Q 241 198 219 187 Q 201 176 182 172 L 181 171 Q 163 166 153 161 Q 147 157 148 154 Q 147 149 154 145 Q 163 140 176 140 Q 190 140 207 145 Q 225 148 231 131 Q 234 113 217 106 Q 207 104 196 102 L 196 88 L 196 88 Z"/>
</svg>
