<svg xmlns="http://www.w3.org/2000/svg" viewBox="0 0 448 448">
    <path d="M 211 6 L 62 169 Q 56 176 56 185 Q 58 206 79 208 L 104 208 L 31 281 Q 24 288 24 297 Q 26 318 47 320 L 80 320 L 5 410 Q 0 416 0 425 Q 2 446 24 448 L 192 448 L 192 224 Q 192 210 201 201 Q 210 192 224 192 Q 238 192 247 201 Q 256 210 256 224 L 256 448 L 425 448 Q 446 446 448 425 Q 448 416 443 410 L 368 320 L 401 320 Q 422 318 424 297 Q 424 288 417 281 L 344 208 L 369 208 Q 390 206 392 185 Q 392 176 386 169 L 237 6 Q 232 0 224 0 Q 216 0 211 6 L 211 6 Z"/>
</svg>
