<svg xmlns="http://www.w3.org/2000/svg" viewBox="0 0 448 432">
    <path d="M 448 128 L 0 128 L 0 64 Q 1 37 19 19 Q 37 1 64 0 L 384 0 Q 411 1 429 19 Q 447 37 448 64 L 448 128 L 448 128 Z M 112 208 L 336 208 Q 351 209 352 224 Q 351 239 336 240 L 112 240 Q 97 239 96 224 Q 97 209 112 208 L 112 208 Z M 112 304 L 336 304 Q 351 305 352 320 Q 351 335 336 336 L 112 336 Q 97 335 96 320 Q 97 305 112 304 L 112 304 Z M 112 400 L 208 400 Q 223 401 224 416 Q 223 431 208 432 L 112 432 Q 97 431 96 416 Q 97 401 112 400 L 112 400 Z"/>
</svg>
