<svg xmlns="http://www.w3.org/2000/svg" viewBox="0 0 555 416">
    <path d="M 187 361 Q 216 345 239 322 Q 270 351 315 352 Q 363 351 394 319 Q 426 288 427 240 Q 426 192 394 161 Q 363 129 315 128 Q 304 128 294 130 Q 287 98 270 70 Q 292 64 315 64 Q 371 65 415 95 L 435 74 L 402 41 Q 391 29 397 15 Q 403 1 419 0 L 531 0 Q 553 2 555 24 L 555 136 Q 554 152 540 158 Q 526 164 514 153 L 481 120 L 460 140 Q 490 184 491 240 Q 489 315 439 364 Q 390 414 315 416 Q 237 414 187 361 L 187 361 Z M 507 48 L 507 48 L 507 48 L 507 48 L 507 48 Z M 91 96 Q 136 97 160 136 Q 182 176 160 216 Q 136 255 91 256 Q 46 255 22 216 Q 0 176 22 136 Q 46 97 91 96 L 91 96 Z"/>
</svg>
