<svg xmlns="http://www.w3.org/2000/svg" viewBox="0 0 324 352">
    <path d="M 146 224 L 146 320 Q 146 334 137 343 Q 128 352 114 352 Q 100 352 91 343 Q 82 334 82 320 L 82 128 L 61 161 Q 54 172 41 175 Q 29 178 17 171 Q 6 163 3 151 Q 0 139 7 127 L 47 64 Q 66 34 96 17 Q 126 0 162 0 Q 198 0 228 17 Q 258 34 277 64 L 317 127 Q 324 139 321 151 Q 318 164 307 171 Q 295 178 283 175 Q 271 172 263 161 L 242 128 L 242 320 Q 242 334 233 343 Q 224 352 210 352 Q 196 352 187 343 Q 178 334 178 320 L 178 224 L 146 224 L 146 224 Z"/>
</svg>
