<svg xmlns="http://www.w3.org/2000/svg" viewBox="0 0 576 192">
    <path d="M 64 0 Q 37 1 19 19 L 19 19 Q 1 37 0 64 L 0 128 Q 1 155 19 173 Q 37 191 64 192 L 512 192 Q 539 191 557 173 Q 575 155 576 128 L 576 64 Q 575 37 557 19 Q 539 1 512 0 L 64 0 L 64 0 Z M 64 96 Q 64 82 73 73 L 73 73 Q 82 64 96 64 Q 110 64 119 73 Q 128 82 128 96 Q 128 110 119 119 Q 110 128 96 128 Q 82 128 73 119 Q 64 110 64 96 L 64 96 Z M 192 64 Q 206 64 215 73 L 215 73 Q 224 82 224 96 Q 224 110 215 119 Q 206 128 192 128 Q 178 128 169 119 Q 160 110 160 96 Q 160 82 169 73 Q 178 64 192 64 L 192 64 Z"/>
</svg>
