<svg xmlns="http://www.w3.org/2000/svg" viewBox="0 0 448 448">
    <path d="M 40 0 Q 23 0 12 12 L 12 12 Q 0 23 0 40 L 0 64 Q 1 132 36 186 Q 71 239 129 267 L 106 321 Q 101 320 96 320 Q 69 321 51 339 Q 33 357 32 384 Q 33 411 51 429 Q 69 447 96 448 Q 123 447 141 429 Q 159 411 160 384 L 236 384 Q 227 361 225 336 L 152 336 L 175 283 Q 199 288 224 288 Q 225 288 226 288 Q 227 288 228 288 Q 238 248 261 211 Q 295 157 349 108 Q 362 96 380 96 Q 397 96 411 108 Q 424 120 437 133 Q 448 100 448 64 L 448 40 Q 448 23 436 12 Q 425 0 408 0 L 40 0 L 40 0 Z M 72 384 Q 74 362 96 360 Q 118 362 120 384 Q 118 406 96 408 Q 74 406 72 384 L 72 384 Z"/>
</svg>
