<svg xmlns="http://www.w3.org/2000/svg" viewBox="0 0 576 256">
    <path d="M 98 20 Q 107 1 128 0 Q 149 1 158 20 Q 171 24 183 31 Q 203 23 219 38 Q 233 53 225 73 Q 232 85 236 98 Q 255 107 256 128 Q 255 149 236 158 Q 232 171 225 183 Q 233 203 218 219 Q 203 233 183 225 Q 171 232 158 236 Q 149 255 128 256 Q 107 255 98 236 Q 85 232 73 225 Q 53 233 38 219 Q 23 203 31 183 Q 24 171 20 158 Q 1 149 0 128 Q 1 107 20 98 Q 24 85 31 73 Q 23 53 38 38 Q 53 23 73 31 Q 85 24 98 20 L 98 20 Z M 176 128 Q 175 101 152 86 Q 128 74 104 86 Q 81 101 80 128 Q 81 155 104 170 Q 128 182 152 170 Q 175 155 176 128 L 176 128 Z M 418 20 Q 427 1 448 0 Q 469 1 478 20 Q 491 24 503 31 Q 523 23 539 38 Q 553 53 545 73 Q 552 85 556 98 Q 575 107 576 128 Q 575 149 556 158 Q 552 171 545 183 Q 553 203 539 219 Q 523 233 503 225 Q 491 232 478 236 Q 469 255 448 256 Q 427 255 418 236 Q 405 232 393 225 Q 373 233 357 218 Q 343 202 351 183 Q 344 171 340 158 Q 321 149 320 128 Q 321 107 340 98 Q 344 85 351 73 Q 343 53 357 37 Q 373 23 393 31 Q 405 24 418 20 L 418 20 Z M 496 128 Q 495 101 472 86 Q 448 74 424 86 Q 401 101 400 128 Q 401 155 424 170 Q 448 182 472 170 Q 495 155 496 128 L 496 128 Z"/>
</svg>
