<svg xmlns="http://www.w3.org/2000/svg" viewBox="0 0 642 370">
    <path d="M 53 154 L 33 102 Q 56 59 91 25 L 134 40 Q 80 87 53 154 L 53 154 Z M 57 14 Q 36 37 19 64 L 3 24 Q 0 14 6 7 Q 13 0 23 3 L 57 14 L 57 14 Z M 207 236 Q 197 247 184 239 Q 173 229 181 216 Q 206 186 242 186 Q 278 186 303 216 Q 311 229 300 239 Q 287 246 277 236 Q 263 218 242 218 Q 221 218 207 236 L 207 236 Z M 367 236 Q 357 247 344 239 Q 334 229 341 216 Q 366 186 402 186 Q 438 186 463 216 Q 470 229 460 239 Q 447 246 437 236 Q 423 218 402 218 Q 381 218 367 236 L 367 236 Z M 514 258 Q 515 238 528 224 L 528 224 Q 542 211 562 210 L 594 210 Q 614 211 628 224 Q 641 238 642 258 L 642 322 Q 641 342 628 356 Q 614 369 594 370 L 402 370 Q 387 369 386 354 Q 387 339 402 338 L 594 338 Q 609 337 610 322 L 610 258 Q 609 243 594 242 L 562 242 Q 547 243 546 258 Q 547 273 562 274 L 578 274 Q 593 275 594 290 Q 593 305 578 306 L 562 306 Q 542 305 528 292 Q 515 278 514 258 L 514 258 Z"/>
</svg>
