<svg xmlns="http://www.w3.org/2000/svg" viewBox="0 0 258 232">
    <path d="M 218 160 L 238 164 Q 253 165 257 151 Q 258 136 244 132 L 209 125 L 209 107 L 244 100 Q 258 95 257 81 Q 252 67 238 68 L 208 74 Q 207 60 201 48 L 225 34 Q 237 25 231 12 Q 222 0 209 6 L 181 23 Q 159 5 129 4 Q 100 4 79 21 L 218 160 L 218 160 Z M 179 211 L 49 81 Q 49 82 49 83 Q 49 83 49 84 L 49 125 L 14 132 Q 0 137 1 151 Q 6 165 20 164 L 50 158 Q 51 172 57 184 L 33 198 Q 21 207 27 220 Q 36 232 49 226 L 77 209 Q 99 227 129 228 Q 158 228 179 211 L 179 211 Z"/>
</svg>
