<svg xmlns="http://www.w3.org/2000/svg" viewBox="0 0 160 448">
    <path d="M 48 0 Q 28 1 14 14 L 14 14 Q 1 28 0 48 L 0 400 Q 1 420 14 434 Q 28 447 48 448 L 112 448 Q 132 447 146 434 Q 159 420 160 400 L 160 48 Q 159 28 146 14 Q 132 1 112 0 L 48 0 L 48 0 Z M 64 64 L 96 64 Q 111 65 112 80 Q 111 95 96 96 L 64 96 Q 49 95 48 80 Q 49 65 64 64 L 64 64 Z M 48 144 Q 49 129 64 128 L 96 128 Q 111 129 112 144 Q 111 159 96 160 L 64 160 Q 49 159 48 144 L 48 144 Z M 80 304 Q 94 304 103 313 L 103 313 Q 112 322 112 336 Q 112 350 103 359 Q 94 368 80 368 Q 66 368 57 359 Q 48 350 48 336 Q 48 322 57 313 Q 66 304 80 304 L 80 304 Z"/>
</svg>
