<svg xmlns="http://www.w3.org/2000/svg" viewBox="0 0 520 431">
    <path d="M 244 16 Q 244 8 238 4 L 238 4 Q 233 0 226 3 Q 205 13 193 32 Q 180 51 180 75 L 180 140 L 75 105 Q 71 104 70 100 L 51 43 Q 42 23 20 28 Q 0 37 5 59 L 24 115 Q 33 141 60 151 L 120 171 L 60 191 Q 34 201 24 227 L 5 283 Q 0 305 20 314 Q 42 319 51 299 L 70 242 Q 71 238 75 237 L 155 210 L 98 267 Q 74 293 85 327 L 118 412 Q 127 431 149 425 Q 168 416 162 394 L 130 310 Q 128 305 132 301 L 164 269 Q 166 309 193 335 Q 220 362 260 363 Q 300 362 327 336 Q 354 309 356 269 L 388 301 Q 392 305 390 310 L 358 394 Q 352 416 371 425 Q 393 431 402 412 L 435 327 Q 446 293 422 267 L 365 210 L 445 237 Q 449 238 450 242 L 469 299 Q 478 319 500 314 Q 520 305 515 283 L 496 227 Q 487 201 461 191 L 400 171 L 460 151 Q 486 141 496 115 L 515 59 Q 520 37 499 28 Q 478 23 469 43 L 450 100 Q 449 104 445 105 L 340 140 L 340 75 Q 340 51 327 32 Q 315 13 295 3 Q 287 0 282 4 Q 276 8 276 16 L 276 27 Q 275 42 260 43 Q 245 42 244 27 L 244 16 L 244 16 Z M 222 222 Q 220 219 220 215 Q 221 204 232 203 L 288 203 Q 299 204 300 215 Q 300 219 298 222 L 276 251 L 298 280 Q 300 283 300 287 Q 299 298 288 299 L 232 299 Q 221 298 220 287 Q 220 283 222 280 L 244 251 L 222 222 L 222 222 Z"/>
</svg>
