<svg xmlns="http://www.w3.org/2000/svg" viewBox="0 0 320 512">
    <path d="M 288 0 Q 302 0 311 9 L 311 9 Q 320 18 320 32 L 320 480 Q 320 494 311 503 Q 302 512 288 512 Q 274 512 265 503 Q 256 494 256 480 L 256 32 Q 256 18 265 9 Q 274 0 288 0 L 288 0 Z M 160 96 Q 174 96 183 105 L 183 105 Q 192 114 192 128 L 192 480 Q 192 494 183 503 Q 174 512 160 512 Q 146 512 137 503 Q 128 494 128 480 L 128 128 Q 128 114 137 105 Q 146 96 160 96 L 160 96 Z M 64 224 L 64 480 Q 64 494 55 503 Q 46 512 32 512 Q 18 512 9 503 Q 0 494 0 480 L 0 224 Q 0 210 9 201 Q 18 192 32 192 Q 46 192 55 201 Q 64 210 64 224 L 64 224 Z"/>
</svg>
