<svg xmlns="http://www.w3.org/2000/svg" viewBox="0 0 448 416">
    <path d="M 39 0 L 144 0 Q 159 2 160 16 L 160 122 Q 160 133 151 137 Q 141 140 133 133 L 103 103 Q 65 146 64 207 Q 64 223 67 239 L 2 239 Q 0 223 0 207 Q 2 119 57 57 L 28 28 Q 20 19 24 10 Q 28 1 39 0 L 39 0 Z M 315 283 L 344 312 Q 383 269 384 207 Q 384 190 381 175 L 446 175 Q 448 190 448 207 Q 446 296 390 358 L 421 389 Q 428 397 424 406 Q 420 415 409 416 L 304 416 Q 289 414 288 400 L 288 295 Q 289 283 298 280 Q 307 276 315 283 L 315 283 Z"/>
</svg>
