<svg xmlns="http://www.w3.org/2000/svg" viewBox="0 0 416 384">
    <path d="M 168 0 Q 146 2 144 24 L 144 32 L 139 32 Q 112 32 92 47 Q 71 62 63 87 L 36 166 Q 2 184 0 224 L 0 320 L 0 320 L 0 352 Q 0 366 9 375 Q 18 384 32 384 L 48 384 Q 62 384 71 375 Q 80 366 80 352 L 80 320 L 336 320 L 336 352 Q 336 366 345 375 Q 354 384 368 384 L 384 384 Q 398 384 407 375 Q 416 366 416 352 L 416 320 L 416 320 L 416 224 Q 414 184 380 166 L 353 87 Q 345 62 324 47 Q 304 32 277 32 L 272 32 L 272 24 Q 270 2 248 0 L 168 0 L 168 0 Z M 139 96 L 277 96 Q 289 97 293 107 L 310 160 L 106 160 L 123 107 Q 127 97 139 96 L 139 96 Z M 80 216 Q 102 218 104 240 Q 102 262 80 264 Q 58 262 56 240 Q 58 218 80 216 L 80 216 Z M 312 240 Q 314 218 336 216 Q 358 218 360 240 Q 358 262 336 264 Q 314 262 312 240 L 312 240 Z"/>
</svg>
