<svg xmlns="http://www.w3.org/2000/svg" viewBox="0 0 448 448">
    <path d="M 233 1 Q 236 0 240 0 L 336 0 Q 351 1 352 16 L 352 80 Q 351 95 336 96 L 256 96 L 240 96 L 192 96 L 192 32 Q 192 18 201 9 Q 210 0 224 0 Q 229 0 233 1 L 233 1 Z M 16 224 L 48 224 Q 63 225 64 240 L 64 304 Q 63 319 48 320 L 16 320 Q 1 319 0 304 L 0 240 Q 1 225 16 224 L 16 224 Z M 400 224 L 432 224 Q 447 225 448 240 L 448 304 Q 447 319 432 320 L 400 320 Q 385 319 384 304 L 384 240 Q 385 225 400 224 L 400 224 Z M 0 368 Q 1 353 16 352 L 48 352 Q 63 353 64 368 L 64 432 Q 63 447 48 448 L 16 448 Q 1 447 0 432 L 0 368 L 0 368 Z M 400 352 L 432 352 Q 447 353 448 368 L 448 432 Q 447 447 432 448 L 400 448 Q 385 447 384 432 L 384 368 Q 385 353 400 352 L 400 352 Z"/>
</svg>
