<svg xmlns="http://www.w3.org/2000/svg" viewBox="0 0 519 519">
    <path d="M 505 14 Q 519 31 505 48 L 417 136 Q 400 150 383 136 Q 369 119 383 102 L 471 14 Q 488 0 505 14 L 505 14 Z M 327 237 L 295 269 Q 271 267 247 273 Q 255 248 251 222 L 282 192 L 294 204 L 317 227 L 327 237 L 327 237 Z M 459 190 Q 437 175 412 169 L 471 110 Q 488 96 505 110 Q 519 127 505 144 L 459 190 L 459 190 Z M 351 106 Q 345 81 329 60 L 375 14 Q 392 0 409 14 Q 423 31 409 48 L 351 106 L 351 106 Z M 225 339 L 194 371 Q 169 368 146 375 Q 153 350 150 324 L 180 294 L 215 329 L 215 329 L 225 339 L 225 339 Z M 124 441 L 55 510 Q 45 519 32 519 Q 19 519 9 510 Q 0 500 0 487 Q 0 474 9 464 L 78 395 L 113 430 L 113 430 L 123 441 L 124 441 Z"/>
</svg>
