<svg xmlns="http://www.w3.org/2000/svg" viewBox="0 0 512 384">
    <path d="M 64 0 Q 37 1 19 19 L 19 19 Q 1 37 0 64 L 0 320 Q 1 347 19 365 Q 37 383 64 384 L 448 384 Q 475 383 493 365 Q 511 347 512 320 L 512 64 Q 511 37 493 19 Q 475 1 448 0 L 64 0 L 64 0 Z M 120 80 L 392 80 Q 414 82 416 104 Q 414 126 392 128 L 120 128 Q 98 126 96 104 Q 98 82 120 80 L 120 80 Z M 120 168 L 392 168 Q 414 170 416 192 Q 414 214 392 216 L 120 216 Q 98 214 96 192 Q 98 170 120 168 L 120 168 Z M 120 256 L 392 256 Q 414 258 416 280 Q 414 302 392 304 L 120 304 Q 98 302 96 280 Q 98 258 120 256 L 120 256 Z"/>
</svg>
