<svg xmlns="http://www.w3.org/2000/svg" viewBox="0 0 448 512">
    <path d="M 176 112 L 128 112 L 128 112 L 128 160 Q 129 201 156 228 Q 183 255 224 256 Q 265 255 292 228 Q 319 201 320 160 L 320 128 L 320 128 L 320 96 L 312 96 Q 276 95 258 66 Q 245 87 224 99 Q 202 112 176 112 L 176 112 Z M 224 272 L 71 272 Q 50 270 48 249 Q 48 240 55 233 L 59 230 Q 95 192 96 139 L 96 128 L 96 128 Q 97 74 133 37 Q 170 1 224 0 Q 278 1 314 37 Q 350 73 352 128 L 352 128 L 352 129 L 352 139 Q 353 192 390 230 L 393 233 Q 400 240 400 249 Q 398 270 377 272 L 224 272 L 224 272 Z M 161 320 L 287 320 Q 355 322 401 367 Q 446 413 448 481 Q 448 494 439 503 Q 430 512 417 512 L 31 512 Q 18 512 9 503 Q 0 494 0 481 Q 2 413 47 367 Q 93 322 161 320 L 161 320 Z"/>
</svg>
