<svg xmlns="http://www.w3.org/2000/svg" viewBox="0 0 256 256">
    <path d="M 128 0 Q 142 0 151 9 L 151 9 Q 160 18 160 32 Q 160 46 151 55 Q 142 64 128 64 L 32 64 Q 18 64 9 55 Q 0 46 0 32 Q 0 18 9 9 Q 18 0 32 0 L 128 0 L 128 0 Z M 224 96 Q 238 96 247 105 L 247 105 Q 256 114 256 128 Q 256 142 247 151 Q 238 160 224 160 L 32 160 Q 18 160 9 151 Q 0 142 0 128 Q 0 114 9 105 Q 18 96 32 96 L 224 96 L 224 96 Z M 96 224 Q 96 238 87 247 L 87 247 Q 78 256 64 256 L 32 256 Q 18 256 9 247 Q 0 238 0 224 Q 0 210 9 201 Q 18 192 32 192 L 64 192 Q 78 192 87 201 Q 96 210 96 224 L 96 224 Z"/>
</svg>
