<svg xmlns="http://www.w3.org/2000/svg" viewBox="0 0 384 160">
    <path d="M 32 0 L 32 64 Q 18 64 9 55 Q 0 46 0 32 Q 0 18 9 9 Q 18 0 32 0 L 32 0 Z M 32 96 L 32 160 Q 18 160 9 151 Q 0 142 0 128 Q 0 114 9 105 Q 18 96 32 96 L 32 96 Z M 96 160 L 96 96 L 287 96 Q 281 134 254 160 L 96 160 L 96 160 Z M 333 160 Q 348 131 351 96 L 352 96 Q 366 96 375 105 Q 384 114 384 128 Q 384 142 375 151 Q 366 160 352 160 L 333 160 L 333 160 Z M 351 64 Q 348 29 333 0 L 352 0 Q 366 0 375 9 Q 384 18 384 32 Q 384 46 375 55 Q 366 64 352 64 L 351 64 L 351 64 Z M 96 0 L 254 0 Q 281 26 287 64 L 96 64 L 96 0 L 96 0 Z"/>
</svg>
