<svg xmlns="http://www.w3.org/2000/svg" viewBox="0 0 320 320">
    <path d="M 160 64 Q 134 64 112 77 L 112 77 Q 90 90 77 112 Q 64 135 64 160 Q 64 185 77 208 Q 90 230 112 243 Q 134 256 160 256 Q 186 256 208 243 Q 230 230 243 208 Q 256 185 256 160 Q 256 135 243 112 Q 230 90 208 77 Q 186 64 160 64 L 160 64 Z M 320 160 Q 320 203 299 240 L 299 240 Q 277 277 240 299 Q 202 320 160 320 Q 118 320 80 299 Q 43 277 21 240 Q 0 203 0 160 Q 0 117 21 80 Q 43 43 80 21 Q 118 0 160 0 Q 202 0 240 21 Q 277 43 299 80 Q 320 117 320 160 L 320 160 Z"/>
</svg>
