<svg xmlns="http://www.w3.org/2000/svg" viewBox="0 0 256 256">
    <path d="M 32 64 Q 18 64 9 55 L 9 55 Q 0 46 0 32 Q 0 18 9 9 Q 18 0 32 0 Q 46 0 55 9 Q 64 18 64 32 Q 64 46 55 55 Q 46 64 32 64 L 32 64 Z M 32 160 Q 18 160 9 151 L 9 151 Q 0 142 0 128 Q 0 114 9 105 Q 18 96 32 96 Q 46 96 55 105 Q 64 114 64 128 Q 64 142 55 151 Q 46 160 32 160 L 32 160 Z M 0 224 Q 0 210 9 201 L 9 201 Q 18 192 32 192 L 128 192 Q 142 192 151 201 Q 160 210 160 224 Q 160 238 151 247 Q 142 256 128 256 L 32 256 Q 18 256 9 247 Q 0 238 0 224 L 0 224 Z M 128 64 Q 114 64 105 55 L 105 55 Q 96 46 96 32 Q 96 18 105 9 Q 114 0 128 0 Q 142 0 151 9 Q 160 18 160 32 Q 160 46 151 55 Q 142 64 128 64 L 128 64 Z M 160 128 Q 160 142 151 151 L 151 151 Q 142 160 128 160 Q 114 160 105 151 Q 96 142 96 128 Q 96 114 105 105 Q 114 96 128 96 Q 142 96 151 105 Q 160 114 160 128 L 160 128 Z M 224 64 Q 210 64 201 55 L 201 55 Q 192 46 192 32 Q 192 18 201 9 Q 210 0 224 0 Q 238 0 247 9 Q 256 18 256 32 Q 256 46 247 55 Q 238 64 224 64 L 224 64 Z M 256 128 Q 256 142 247 151 L 247 151 Q 238 160 224 160 Q 210 160 201 151 Q 192 142 192 128 Q 192 114 201 105 Q 210 96 224 96 Q 238 96 247 105 Q 256 114 256 128 L 256 128 Z M 224 256 Q 210 256 201 247 L 201 247 Q 192 238 192 224 Q 192 210 201 201 Q 210 192 224 192 Q 238 192 247 201 Q 256 210 256 224 Q 256 238 247 247 Q 238 256 224 256 L 224 256 Z"/>
</svg>
