<svg xmlns="http://www.w3.org/2000/svg" viewBox="0 0 449 437">
    <path d="M 0 196 L 0 373 Q 1 400 19 418 Q 37 436 64 437 L 385 437 Q 412 436 430 418 Q 448 400 449 373 L 448 196 L 224 0 L 0 196 L 0 196 Z M 224 117 Q 260 118 279 149 Q 297 181 279 213 Q 260 244 224 245 Q 188 244 169 213 Q 151 181 169 149 Q 188 118 224 117 L 224 117 Z M 112 357 Q 113 323 135 300 L 135 300 Q 158 278 192 277 L 256 277 Q 290 278 313 300 Q 335 323 336 357 Q 335 372 320 373 L 128 373 Q 113 372 112 357 L 112 357 Z"/>
</svg>
