<svg xmlns="http://www.w3.org/2000/svg" viewBox="0 0 475 448">
    <path d="M 447 214 Q 460 212 468 202 L 468 202 Q 475 192 472 179 Q 450 100 388 51 Q 325 2 240 0 Q 173 1 119 33 Q 65 65 33 119 Q 1 173 0 240 Q 2 326 52 389 Q 61 400 75 400 L 89 400 Q 96 400 102 403 L 195 443 Q 208 448 222 448 L 223 448 Q 251 447 269 429 Q 287 411 288 383 Q 288 368 281 354 L 243 278 Q 240 272 240 265 Q 242 242 265 237 L 447 214 L 447 214 Z M 160 296 Q 182 298 184 320 Q 182 342 160 344 Q 138 342 136 320 Q 138 298 160 296 L 160 296 Z"/>
</svg>
