<svg xmlns="http://www.w3.org/2000/svg" viewBox="0 0 390 515">
    <path d="M 189 38 Q 177 45 174 57 L 174 57 Q 170 70 177 82 L 273 248 Q 280 260 292 263 Q 305 266 317 260 L 372 228 Q 384 221 387 208 Q 390 196 384 184 L 288 18 Q 281 6 268 3 Q 256 0 244 6 L 189 38 L 189 38 Z M 177 355 Q 196 333 197 302 Q 196 268 174 245 Q 151 223 117 222 Q 83 223 60 245 Q 38 268 37 302 Q 38 333 57 355 L 7 477 Q 0 498 20 508 Q 41 515 51 495 L 98 380 Q 107 382 117 382 Q 127 382 136 380 L 183 495 Q 193 515 214 508 Q 234 498 227 477 L 177 355 L 177 355 Z M 85 302 Q 85 288 94 279 L 94 279 Q 103 270 117 270 Q 131 270 140 279 Q 149 288 149 302 Q 149 316 140 325 Q 131 334 117 334 Q 103 334 94 325 Q 85 316 85 302 L 85 302 Z"/>
</svg>
