<svg xmlns="http://www.w3.org/2000/svg" viewBox="0 0 352 512">
    <path d="M 160 160 L 0 0 L 0 128 Q 0 142 9 151 Q 18 160 32 160 L 160 160 L 160 160 Z M 208 512 Q 247 512 280 493 L 280 493 Q 313 474 333 440 Q 352 406 352 368 Q 352 330 333 296 Q 313 262 280 243 Q 247 224 208 224 Q 169 224 136 243 Q 103 262 83 296 Q 64 330 64 368 Q 64 406 83 440 Q 103 474 136 493 Q 169 512 208 512 L 208 512 Z M 224 304 L 224 352 L 272 352 Q 287 353 288 368 Q 287 383 272 384 L 224 384 L 224 432 Q 223 447 208 448 Q 193 447 192 432 L 192 384 L 144 384 Q 129 383 128 368 Q 129 353 144 352 L 192 352 L 192 304 Q 193 289 208 288 Q 223 289 224 304 L 224 304 Z"/>
</svg>
