<svg xmlns="http://www.w3.org/2000/svg" viewBox="0 0 448 352">
    <path d="M 64 16 Q 65 1 80 0 Q 95 1 96 16 L 96 64 L 160 64 L 160 16 Q 161 1 176 0 Q 191 1 192 16 L 192 64 L 256 64 L 256 16 Q 257 1 272 0 Q 287 1 288 16 L 288 64 L 352 64 L 352 16 Q 353 1 368 0 Q 383 1 384 16 L 384 64 L 432 64 Q 447 65 448 80 Q 447 95 432 96 L 384 96 L 384 160 L 432 160 Q 447 161 448 176 Q 447 191 432 192 L 384 192 L 384 256 L 432 256 Q 447 257 448 272 Q 447 287 432 288 L 384 288 L 384 336 Q 383 351 368 352 Q 353 351 352 336 L 352 288 L 288 288 L 288 336 Q 287 351 272 352 Q 257 351 256 336 L 256 288 L 192 288 L 192 336 Q 191 351 176 352 Q 161 351 160 336 L 160 288 L 96 288 L 96 336 Q 95 351 80 352 Q 65 351 64 336 L 64 288 L 16 288 Q 1 287 0 272 Q 1 257 16 256 L 64 256 L 64 192 L 16 192 Q 1 191 0 176 Q 1 161 16 160 L 64 160 L 64 96 L 16 96 Q 1 95 0 80 Q 1 65 16 64 L 64 64 L 64 16 L 64 16 Z M 96 256 L 160 256 L 160 192 L 96 192 L 96 256 L 96 256 Z M 192 256 L 256 256 L 256 192 L 192 192 L 192 256 L 192 256 Z M 288 256 L 352 256 L 352 192 L 288 192 L 288 256 L 288 256 Z M 352 96 L 288 96 L 288 160 L 352 160 L 352 96 L 352 96 Z M 256 96 L 192 96 L 192 160 L 256 160 L 256 96 L 256 96 Z M 160 96 L 96 96 L 96 160 L 160 160 L 160 96 L 160 96 Z"/>
</svg>
