<svg xmlns="http://www.w3.org/2000/svg" viewBox="0 0 576 446">
    <path d="M 320 0 Q 336 2 352 5 L 352 126 L 528 126 Q 538 141 546 158 L 480 158 L 480 286 L 576 286 L 576 318 L 384 318 L 384 446 L 352 446 L 352 318 Q 351 291 333 273 Q 315 255 288 254 Q 261 255 243 273 Q 225 291 224 318 L 224 446 L 192 446 L 192 318 L 0 318 L 0 286 L 96 286 L 96 158 L 30 158 Q 38 141 49 126 L 320 126 L 320 0 L 320 0 Z M 198 286 Q 208 258 232 240 L 232 240 Q 256 223 288 222 Q 320 223 344 240 Q 368 258 379 286 L 448 286 L 448 158 L 128 158 L 128 286 L 198 286 L 198 286 Z"/>
</svg>
