<svg xmlns="http://www.w3.org/2000/svg" viewBox="0 0 640 448">
    <path d="M 32 0 Q 18 0 9 9 L 9 9 Q 0 18 0 32 Q 0 46 9 55 Q 18 64 32 64 L 48 64 Q 63 65 64 80 L 64 368 Q 65 402 87 425 Q 110 447 144 448 L 608 448 Q 622 448 631 439 Q 640 430 640 416 Q 640 402 631 393 Q 622 384 608 384 L 144 384 Q 129 383 128 368 L 128 80 Q 127 46 105 23 Q 82 1 48 0 L 32 0 L 32 0 Z M 336 176 Q 336 185 345 190 Q 353 194 361 189 L 400 163 L 439 189 Q 447 194 456 190 Q 464 185 464 176 L 464 32 L 448 32 L 432 32 L 368 32 L 352 32 L 336 32 L 336 176 L 336 176 Z"/>
</svg>
