<svg xmlns="http://www.w3.org/2000/svg" viewBox="0 0 288 256">
    <path d="M 144 0 Q 159 1 160 16 L 160 240 Q 159 255 144 256 Q 129 255 128 240 L 128 16 Q 129 1 144 0 L 144 0 Z M 16 32 Q 31 33 32 48 L 32 208 Q 31 223 16 224 Q 1 223 0 208 L 0 48 Q 1 33 16 32 L 16 32 Z M 208 56 Q 223 57 224 72 L 224 184 Q 223 199 208 200 Q 193 199 192 184 L 192 72 Q 193 57 208 56 L 208 56 Z M 80 72 Q 95 73 96 88 L 96 168 Q 95 183 80 184 Q 65 183 64 168 L 64 88 Q 65 73 80 72 L 80 72 Z M 272 96 Q 287 97 288 112 L 288 144 Q 287 159 272 160 Q 257 159 256 144 L 256 112 Q 257 97 272 96 L 272 96 Z"/>
</svg>
