<svg xmlns="http://www.w3.org/2000/svg" viewBox="0 0 448 512">
    <path d="M 144 112 L 144 112 Q 196 110 224 69 Q 252 110 304 112 L 304 112 L 312 112 L 344 112 Q 359 111 360 96 L 360 95 Q 360 80 347 73 L 338 69 Q 321 38 291 19 Q 261 0 224 0 Q 187 0 158 18 Q 129 36 112 66 L 100 73 Q 88 80 88 94 L 88 96 Q 89 111 104 112 L 136 112 L 144 112 L 144 112 Z M 340 162 Q 331 198 306 223 L 306 223 Q 281 248 245 254 L 283 287 Q 290 293 298 292 Q 307 291 312 284 L 326 265 L 343 274 Q 358 280 368 268 Q 377 254 366 242 Q 347 222 344 205 Q 340 189 340 162 L 340 162 Z M 205 255 Q 167 248 142 223 L 142 223 Q 117 199 108 162 Q 108 189 105 204 Q 101 222 82 242 Q 71 254 80 268 Q 90 280 105 274 L 122 265 L 136 284 Q 141 291 150 292 Q 158 293 165 287 L 205 255 L 205 255 Z M 161 320 Q 93 322 47 367 L 47 367 Q 2 413 0 481 Q 0 494 9 503 Q 18 512 31 512 L 417 512 Q 430 512 439 503 Q 448 494 448 481 Q 446 413 401 367 Q 355 322 287 320 L 161 320 L 161 320 Z"/>
</svg>
