<svg xmlns="http://www.w3.org/2000/svg" viewBox="0 0 512 314">
    <path d="M 178 4 L 139 47 Q 112 77 112 117 L 112 117 Q 112 134 118 152 Q 129 185 153 201 Q 177 218 202 211 Q 226 202 236 174 Q 245 147 235 114 Q 221 76 192 60 L 192 10 Q 192 4 187 2 Q 182 0 178 4 L 178 4 Z M 310 211 Q 335 218 359 201 L 359 201 Q 383 185 395 152 Q 400 134 400 117 L 400 117 Q 400 77 373 47 L 334 4 Q 330 0 325 2 Q 320 4 320 10 L 320 60 Q 291 76 278 114 Q 267 147 276 174 Q 286 202 310 211 L 310 211 Z M 90 304 Q 109 292 112 269 L 112 269 Q 114 245 100 220 Q 86 195 64 186 L 64 142 Q 64 136 58 134 Q 53 132 50 137 L 12 188 Q 0 205 0 226 L 0 229 L 0 229 Q 0 249 12 270 Q 27 295 49 304 Q 71 314 90 304 L 90 304 Z M 422 304 Q 441 314 463 304 L 463 304 Q 485 295 500 270 Q 512 249 512 229 L 512 229 L 512 226 Q 512 205 500 188 L 463 137 Q 459 132 454 134 Q 448 136 448 142 L 448 186 Q 426 195 412 220 Q 398 245 400 268 Q 403 292 422 304 L 422 304 Z"/>
</svg>
