<svg xmlns="http://www.w3.org/2000/svg" viewBox="0 0 448 448">
    <path d="M 224 448 Q 301 447 358 403 L 393 439 Q 403 448 416 448 Q 429 448 439 439 Q 448 429 448 416 Q 448 403 439 393 L 404 358 Q 447 301 448 224 Q 447 161 417 111 Q 388 60 337 31 Q 287 1 224 0 Q 161 1 111 31 Q 60 60 31 111 Q 1 161 0 224 Q 1 301 45 358 L 9 393 Q 0 403 0 416 Q 0 429 9 439 Q 19 448 32 448 Q 45 448 55 439 L 90 403 Q 147 447 224 448 L 224 448 Z M 168 128 L 280 128 Q 295 129 302 142 Q 308 155 299 167 L 217 272 L 280 272 Q 302 274 304 296 Q 302 318 280 320 L 168 320 Q 153 319 146 307 Q 140 293 149 281 L 231 176 L 168 176 Q 146 174 144 152 Q 146 130 168 128 L 168 128 Z"/>
</svg>
