<svg xmlns="http://www.w3.org/2000/svg" viewBox="0 0 320 288">
    <path d="M 80 64 Q 65 65 64 80 Q 65 95 80 96 L 160 96 Q 174 96 183 105 Q 192 114 192 128 Q 192 142 183 151 Q 174 160 160 160 L 80 160 Q 46 159 23 137 Q 1 114 0 80 Q 1 46 23 23 Q 46 1 80 0 L 192 0 Q 246 1 283 37 Q 319 74 320 128 Q 319 182 283 219 Q 246 255 192 256 L 160 256 Q 160 270 151 279 Q 142 288 128 288 Q 114 288 105 279 Q 96 270 96 256 L 96 224 Q 96 210 105 201 Q 114 192 128 192 L 192 192 Q 219 191 237 173 Q 255 155 256 128 Q 255 101 237 83 Q 219 65 192 64 L 80 64 L 80 64 Z"/>
</svg>
