<svg xmlns="http://www.w3.org/2000/svg" viewBox="0 0 392 344">
    <path d="M 32 0 Q 18 0 9 9 L 9 9 Q 0 18 0 32 L 0 96 Q 0 110 9 119 Q 18 128 32 128 L 112 128 L 112 160 L 176 160 L 176 128 L 256 128 Q 270 128 279 119 Q 288 110 288 96 L 288 32 Q 288 18 279 9 Q 270 0 256 0 L 32 0 L 32 0 Z M 64 48 L 224 48 Q 239 49 240 64 Q 239 79 224 80 L 64 80 Q 49 79 48 64 Q 49 49 64 48 L 64 48 Z M 80 216 Q 58 218 56 240 Q 58 262 80 264 Q 102 262 104 240 Q 102 218 80 216 L 80 216 Z M 152 240 Q 154 262 176 264 Q 198 262 200 240 Q 198 218 176 216 Q 154 218 152 240 L 152 240 Z M 128 296 Q 106 298 104 320 Q 106 342 128 344 Q 150 342 152 320 Q 150 298 128 296 L 128 296 Z M 248 240 Q 250 262 272 264 Q 294 262 296 240 Q 294 218 272 216 Q 250 218 248 240 L 248 240 Z M 224 296 Q 202 298 200 320 Q 202 342 224 344 Q 246 342 248 320 Q 246 298 224 296 L 224 296 Z M 344 240 Q 346 262 368 264 Q 390 262 392 240 Q 390 218 368 216 Q 346 218 344 240 L 344 240 Z M 320 296 Q 298 298 296 320 Q 298 342 320 344 Q 342 342 344 320 Q 342 298 320 296 L 320 296 Z"/>
</svg>
