<svg xmlns="http://www.w3.org/2000/svg" viewBox="0 0 448 384">
    <path d="M 0 32 Q 0 18 9 9 L 9 9 Q 18 0 32 0 L 416 0 Q 430 0 439 9 Q 448 18 448 32 Q 448 46 439 55 Q 430 64 416 64 L 32 64 Q 18 64 9 55 Q 0 46 0 32 L 0 32 Z M 128 192 Q 128 178 137 169 L 137 169 Q 146 160 160 160 L 416 160 Q 430 160 439 169 Q 448 178 448 192 Q 448 206 439 215 Q 430 224 416 224 L 160 224 Q 146 224 137 215 Q 128 206 128 192 L 128 192 Z M 160 320 L 416 320 Q 430 320 439 329 Q 448 338 448 352 Q 448 366 439 375 Q 430 384 416 384 L 160 384 Q 146 384 137 375 Q 128 366 128 352 Q 128 338 137 329 Q 146 320 160 320 L 160 320 Z"/>
</svg>
