<svg xmlns="http://www.w3.org/2000/svg" viewBox="0 0 512 512">
    <path d="M 192 0 L 320 0 Q 334 0 343 9 Q 352 18 352 32 L 352 64 L 160 64 L 160 32 Q 160 18 169 9 Q 178 0 192 0 L 192 0 Z M 135 149 Q 143 129 165 128 L 347 128 Q 369 129 377 149 L 403 224 L 109 224 L 135 149 L 135 149 Z M 96 432 L 96 480 Q 96 494 87 503 Q 78 512 64 512 L 32 512 Q 18 512 9 503 Q 0 494 0 480 L 0 432 L 96 432 L 96 432 Z M 416 432 L 512 432 L 512 480 Q 512 494 503 503 Q 494 512 480 512 L 448 512 Q 434 512 425 503 Q 416 494 416 480 L 416 432 L 416 432 Z"/>
</svg>
