<svg xmlns="http://www.w3.org/2000/svg" viewBox="0 0 641 416">
    <path d="M 512 68 L 584 192 L 439 192 L 512 68 L 512 68 Z M 386 209 Q 395 243 429 265 L 429 265 Q 464 287 512 288 Q 560 287 594 265 Q 629 243 638 209 Q 641 192 631 177 L 536 14 Q 528 0 512 0 Q 496 1 488 14 L 393 177 Q 383 192 386 209 L 386 209 Z M 129 196 L 201 320 L 57 320 L 129 196 L 129 196 Z M 3 337 Q 12 371 46 393 L 46 393 Q 81 415 129 416 Q 177 415 212 393 Q 246 371 255 337 Q 258 320 248 305 L 153 142 Q 145 128 129 128 Q 113 129 105 142 L 10 305 Q 0 320 3 337 L 3 337 Z"/>
</svg>
