<svg xmlns="http://www.w3.org/2000/svg" viewBox="0 0 608 289">
    <path d="M 413 7 Q 408 1 400 1 Q 392 1 387 7 Q 361 41 328 67 Q 295 92 254 119 Q 254 119 254 119 L 254 119 Q 249 122 245 125 Q 241 127 238 130 Q 193 161 192 216 Q 193 260 222 289 L 578 289 Q 607 259 608 216 Q 607 161 562 130 Q 559 127 555 125 Q 551 122 546 119 L 546 119 Q 546 119 546 119 Q 505 92 472 67 Q 439 41 413 7 L 413 7 Z M 90 6 Q 80 0 70 6 L 54 18 Q 29 38 14 66 Q 0 95 0 127 L 0 161 L 160 161 L 160 127 Q 160 95 146 66 Q 131 38 106 18 L 90 6 L 90 6 Z"/>
</svg>
