<svg xmlns="http://www.w3.org/2000/svg" viewBox="0 0 352 384">
    <path d="M 305 298 Q 273 337 256 384 L 96 384 Q 79 338 47 299 Q 47 298 47 298 Q 39 287 31 276 Q 1 233 0 176 Q 2 101 52 52 Q 101 2 176 0 Q 251 2 300 52 Q 350 101 352 176 Q 351 233 321 276 Q 313 287 305 297 Q 305 298 305 298 L 305 298 Z M 176 64 Q 154 66 152 88 L 152 200 Q 154 222 176 224 Q 198 222 200 200 L 200 88 Q 198 66 176 64 L 176 64 Z M 208 288 Q 208 274 199 265 L 199 265 Q 190 256 176 256 Q 162 256 153 265 Q 144 274 144 288 Q 144 302 153 311 Q 162 320 176 320 Q 190 320 199 311 Q 208 302 208 288 L 208 288 Z"/>
</svg>
