<svg xmlns="http://www.w3.org/2000/svg" viewBox="0 0 498 498">
    <path d="M 216 25 Q 219 38 213 50 L 213 50 Q 207 61 194 65 Q 172 72 153 83 Q 153 86 153 89 Q 152 116 134 134 Q 116 152 89 153 Q 86 153 83 153 Q 72 172 65 194 Q 61 207 50 213 Q 38 219 25 216 Q 12 211 6 200 Q 0 189 4 176 Q 13 143 31 115 Q 25 103 25 89 Q 26 62 44 44 Q 62 26 89 25 Q 103 25 115 31 Q 143 13 176 4 Q 189 0 200 6 Q 212 12 216 25 L 216 25 Z M 282 25 Q 287 12 298 6 L 298 6 Q 309 0 322 4 Q 355 13 383 31 Q 395 25 409 25 Q 436 26 454 44 Q 472 62 473 89 Q 473 103 467 115 Q 485 144 494 176 Q 498 189 492 200 Q 486 212 473 216 Q 460 219 449 213 Q 437 207 433 194 Q 427 172 415 153 Q 412 153 409 153 Q 382 153 364 134 Q 346 116 345 89 Q 345 86 345 83 Q 326 72 304 65 Q 291 61 285 50 Q 279 39 282 25 L 282 25 Z M 25 282 Q 38 279 49 285 L 49 285 Q 61 291 65 304 Q 71 326 83 345 Q 86 345 89 345 Q 116 346 134 364 Q 152 382 153 409 Q 153 412 153 415 Q 172 426 194 433 Q 207 437 213 448 Q 219 460 216 473 Q 211 486 200 492 Q 189 498 176 494 Q 143 485 115 467 Q 103 473 89 473 Q 62 472 44 454 Q 26 436 25 409 Q 25 395 31 383 Q 13 354 4 322 Q 0 309 6 298 Q 12 286 25 282 L 25 282 Z M 473 282 Q 486 286 492 298 L 492 298 Q 498 309 494 322 Q 485 354 467 383 Q 473 395 473 409 Q 472 436 454 454 Q 436 472 409 473 Q 395 473 383 467 Q 354 485 322 494 Q 309 498 298 492 Q 286 486 282 473 Q 279 460 285 449 Q 291 437 304 433 Q 326 427 345 415 Q 345 412 345 409 Q 345 382 364 364 Q 382 346 409 345 Q 412 345 415 345 Q 426 326 433 304 Q 437 291 448 285 Q 460 279 473 282 L 473 282 Z"/>
</svg>
