<svg xmlns="http://www.w3.org/2000/svg" viewBox="0 0 512 512">
    <path d="M 269 1 Q 260 0 254 7 Q 249 14 252 22 Q 256 34 256 48 Q 255 82 233 105 Q 210 127 176 128 L 160 128 Q 133 129 115 147 Q 97 165 96 192 Q 96 200 98 208 L 414 208 Q 416 200 416 192 Q 415 165 397 147 Q 379 129 352 128 L 347 128 Q 352 113 352 96 Q 351 59 328 33 Q 305 7 269 1 L 269 1 Z M 394 240 L 118 240 Q 118 240 118 240 Q 118 240 118 240 L 104 240 Q 73 241 53 261 Q 33 281 32 312 Q 32 325 36 336 L 476 336 Q 480 325 480 312 Q 479 281 459 261 Q 439 241 408 240 L 394 240 Q 394 240 394 240 Q 394 240 394 240 L 394 240 Z M 453 368 L 59 368 Q 59 368 59 368 Q 60 369 60 369 Q 34 374 17 393 Q 1 413 0 440 Q 0 463 12 480 L 500 480 Q 512 463 512 440 Q 511 413 495 393 Q 478 374 452 369 Q 452 369 452 369 Q 453 368 453 368 L 453 368 Z M 440 512 L 72 512 Q 72 512 72 512 Q 72 512 72 512 L 440 512 Q 440 512 440 512 Q 440 512 440 512 L 440 512 Z"/>
</svg>
