<svg xmlns="http://www.w3.org/2000/svg" viewBox="0 0 360 320">
    <path d="M 93 320 L 267 320 Q 292 319 309 304 Q 327 288 330 263 L 360 0 L 0 0 L 30 263 Q 33 288 51 304 Q 68 319 93 320 L 93 320 Z M 187 69 L 208 114 Q 210 118 214 119 L 262 125 Q 273 129 266 139 L 231 173 Q 228 176 228 181 L 238 230 Q 237 242 226 239 L 184 214 Q 180 212 176 214 L 134 239 Q 123 242 122 230 L 132 181 Q 132 176 129 173 L 94 139 Q 87 129 98 125 L 146 119 Q 151 118 152 114 L 173 69 Q 180 59 187 69 L 187 69 Z"/>
</svg>
