<svg xmlns="http://www.w3.org/2000/svg" viewBox="0 0 480 512">
    <path d="M 160 0 Q 174 0 183 9 L 183 9 Q 192 18 192 32 L 192 192 L 192 192 L 192 288 Q 193 315 211 333 Q 229 351 256 352 Q 286 351 304 330 Q 322 351 352 352 Q 379 351 397 333 Q 415 315 416 288 L 416 224 Q 416 224 416 224 Q 416 224 416 224 L 416 96 Q 416 82 425 73 Q 434 64 448 64 Q 462 64 471 73 Q 480 82 480 96 L 480 336 Q 478 411 428 460 Q 379 510 304 512 L 285 512 Q 192 511 125 448 L 12 341 Q 0 329 0 313 Q 0 297 11 284 Q 23 272 39 272 Q 55 272 68 283 L 128 341 Q 128 339 128 338 Q 128 337 128 336 L 128 32 Q 128 18 137 9 Q 146 0 160 0 L 160 0 Z"/>
</svg>
