<svg xmlns="http://www.w3.org/2000/svg" viewBox="0 0 512 512">
    <path d="M 512 256 Q 511 328 477 385 L 477 385 Q 443 443 385 477 L 385 477 Q 328 511 256 512 Q 184 511 127 477 Q 69 443 35 385 Q 1 328 0 256 Q 0 222 9 190 Q 12 192 16 192 L 51 192 L 57 232 Q 61 250 74 261 Q 87 272 105 272 L 183 272 Q 201 272 214 261 Q 227 250 231 232 L 239 184 Q 239 180 239 176 L 273 176 Q 273 180 273 184 L 281 232 Q 285 250 298 261 Q 311 272 329 272 L 407 272 Q 425 272 438 261 Q 451 250 455 232 L 461 192 L 496 192 Q 500 192 504 190 Q 512 222 512 256 L 512 256 Z M 256 0 Q 338 1 401 45 L 401 45 Q 464 88 493 160 L 461 160 Q 449 130 415 128 L 321 128 Q 299 129 285 144 L 227 144 Q 213 129 191 128 L 97 128 Q 63 130 51 160 L 19 160 Q 48 88 111 45 Q 174 1 256 0 L 256 0 Z M 164 342 Q 153 331 142 340 Q 131 351 140 363 Q 157 383 186 399 Q 215 415 256 416 Q 297 415 326 399 Q 355 383 372 363 Q 381 351 371 340 Q 359 331 348 342 Q 334 358 312 371 Q 289 383 256 384 Q 223 383 200 371 Q 178 358 164 342 L 164 342 Z"/>
</svg>
