<svg xmlns="http://www.w3.org/2000/svg" viewBox="0 0 576 450">
    <path d="M 288 0 L 112 0 Q 64 1 33 33 Q 1 64 0 112 Q 1 160 33 191 Q 64 223 112 224 L 120 224 L 51 362 Q 46 374 50 386 Q 54 398 66 405 L 146 445 Q 158 450 170 446 Q 182 442 189 430 L 288 232 L 288 0 L 288 0 Z M 416 144 L 477 144 L 554 175 Q 562 178 569 173 Q 576 168 576 160 L 576 64 Q 576 56 569 51 Q 562 46 554 49 L 477 80 L 416 80 L 416 144 L 416 144 Z M 112 88 Q 134 90 136 112 Q 134 134 112 136 Q 90 134 88 112 Q 90 90 112 88 L 112 88 Z M 184 112 Q 186 90 208 88 Q 230 90 232 112 Q 230 134 208 136 Q 186 134 184 112 L 184 112 Z"/>
</svg>
