<svg xmlns="http://www.w3.org/2000/svg" viewBox="0 0 576 192">
    <path d="M 192 76 L 192 19 Q 229 1 288 0 Q 347 1 384 19 L 384 76 Q 384 100 398 118 Q 411 137 433 144 L 467 156 Q 479 160 480 173 Q 478 190 461 192 L 115 192 Q 98 190 96 173 Q 97 160 109 156 L 143 144 Q 165 137 178 118 Q 192 100 192 76 L 192 76 Z M 304 64 Q 289 65 288 80 Q 289 95 304 96 Q 319 95 320 80 Q 319 65 304 64 L 304 64 Z M 256 112 Q 255 97 240 96 Q 225 97 224 112 Q 225 127 240 128 Q 255 127 256 112 L 256 112 Z M 512 128 Q 512 114 521 105 L 521 105 Q 530 96 544 96 Q 558 96 567 105 Q 576 114 576 128 Q 576 142 567 151 Q 558 160 544 160 Q 530 160 521 151 Q 512 142 512 128 L 512 128 Z M 0 160 Q 0 146 9 137 L 9 137 Q 18 128 32 128 Q 46 128 55 137 Q 64 146 64 160 Q 64 174 55 183 Q 46 192 32 192 Q 18 192 9 183 Q 0 174 0 160 L 0 160 Z"/>
</svg>
