<svg xmlns="http://www.w3.org/2000/svg" viewBox="0 0 449 445">
    <path d="M 271 138 L 270 135 L 230 15 L 229 13 Q 243 5 259 0 L 260 5 L 299 122 Q 294 123 290 126 L 271 138 L 271 138 Z M 325 145 Q 323 124 302 122 L 302 122 L 314 111 L 394 31 L 397 28 Q 409 38 420 50 L 416 53 L 336 133 L 325 145 L 325 145 L 325 145 Z M 312 175 Q 325 166 325 151 L 325 145 L 330 147 L 449 187 Q 445 202 438 217 L 320 177 L 312 175 L 312 175 Z M 210 238 L 241 219 L 358 292 L 361 295 L 331 314 L 213 240 L 210 238 L 210 238 Z M 103 305 L 133 286 L 246 356 L 254 362 L 224 381 L 103 305 L 103 305 Z M 0 370 L 30 351 L 142 420 L 151 426 L 121 445 L 0 370 L 0 370 Z"/>
</svg>
