<svg xmlns="http://www.w3.org/2000/svg" viewBox="0 0 512 512">
    <path d="M 405 89 Q 382 65 384 34 Q 327 1 256 0 Q 184 1 127 35 Q 69 69 35 127 Q 1 184 0 256 Q 0 295 11 330 Q 13 331 16 333 Q 38 318 63 320 Q 88 322 107 341 Q 128 363 128 391 Q 128 419 107 441 L 94 454 Q 162 510 256 512 Q 337 511 400 468 Q 383 446 384 420 Q 385 393 405 373 Q 423 356 446 353 Q 469 350 490 361 Q 512 313 512 256 Q 512 205 493 160 Q 475 159 460 145 L 405 89 L 405 89 Z M 164 326 Q 178 342 200 355 L 200 355 Q 223 367 256 368 Q 289 367 312 355 Q 334 342 348 326 Q 359 315 371 324 Q 381 335 372 347 Q 355 367 326 383 Q 297 399 256 400 Q 215 399 186 383 Q 157 367 140 347 Q 131 335 142 324 Q 153 315 164 326 L 164 326 Z M 211 234 Q 197 216 176 216 L 176 216 Q 155 216 141 234 Q 131 245 118 237 Q 108 227 115 214 Q 140 184 176 184 Q 212 184 237 214 Q 245 227 234 237 Q 221 244 211 234 L 211 234 Z M 301 234 Q 291 245 278 237 Q 267 227 275 214 Q 300 184 336 184 Q 372 184 397 214 Q 405 227 394 237 Q 381 244 371 234 Q 357 216 336 216 Q 315 216 301 234 L 301 234 Z"/>
</svg>
