<svg xmlns="http://www.w3.org/2000/svg" viewBox="0 0 384 192">
    <path d="M 32 96 Q 33 69 51 51 L 51 51 Q 69 33 96 32 Q 118 32 134 45 Q 147 52 157 42 Q 164 29 154 19 Q 129 1 96 0 Q 55 1 28 28 Q 1 55 0 96 Q 1 137 28 164 Q 55 191 96 192 Q 129 191 154 173 Q 160 168 160 160 L 160 104 Q 159 89 144 88 L 88 88 Q 73 89 72 104 Q 73 119 88 120 L 128 120 L 128 151 Q 114 160 96 160 Q 69 159 51 141 Q 33 123 32 96 L 32 96 Z M 224 16 Q 223 1 208 0 Q 193 1 192 16 L 192 176 Q 193 191 208 192 Q 223 191 224 176 L 224 16 L 224 16 Z M 272 0 Q 257 1 256 16 L 256 96 L 256 176 Q 257 191 272 192 Q 287 191 288 176 L 288 112 L 352 112 Q 367 111 368 96 Q 367 81 352 80 L 288 80 L 288 32 L 368 32 Q 383 31 384 16 Q 383 1 368 0 L 272 0 L 272 0 Z"/>
</svg>
