<svg xmlns="http://www.w3.org/2000/svg" viewBox="0 0 576 448">
    <path d="M 64 0 Q 37 1 19 19 L 19 19 Q 1 37 0 64 L 0 384 Q 1 411 19 429 Q 37 447 64 448 L 384 448 Q 411 447 429 429 Q 447 411 448 384 L 448 64 Q 447 37 429 19 Q 411 1 384 0 L 64 0 L 64 0 Z M 96 64 L 352 64 Q 366 64 375 73 Q 384 82 384 96 L 384 192 Q 384 206 375 215 Q 366 224 352 224 L 96 224 Q 82 224 73 215 Q 64 206 64 192 L 64 96 Q 64 82 73 73 Q 82 64 96 64 L 96 64 Z M 112 288 Q 127 289 128 304 L 128 320 L 144 320 Q 159 321 160 336 Q 159 351 144 352 L 128 352 L 128 368 Q 127 383 112 384 Q 97 383 96 368 L 96 352 L 80 352 Q 65 351 64 336 Q 65 321 80 320 L 96 320 L 96 304 Q 97 289 112 288 L 112 288 Z M 224 328 Q 226 306 248 304 Q 270 306 272 328 Q 270 350 248 352 Q 226 350 224 328 L 224 328 Z M 328 304 Q 350 306 352 328 Q 350 350 328 352 Q 306 350 304 328 Q 306 306 328 304 L 328 304 Z M 504 112 Q 482 114 480 136 L 480 192 L 528 192 L 552 192 Q 574 190 576 168 L 576 136 Q 574 114 552 112 L 504 112 L 504 112 Z"/>
</svg>
