<svg xmlns="http://www.w3.org/2000/svg" viewBox="0 0 512 512">
    <path d="M 511 279 Q 512 268 512 256 Q 512 240 510 224 L 448 224 L 448 160 L 368 160 L 368 96 L 416 96 L 416 56 Q 349 2 256 0 Q 184 1 127 35 Q 69 69 35 127 Q 1 184 0 256 Q 0 268 1 279 Q 111 319 256 320 Q 401 319 511 279 L 511 279 Z M 7 315 Q 28 401 96 456 L 96 456 Q 163 510 256 512 Q 314 512 363 489 Q 412 466 448 425 L 448 384 L 384 384 L 384 343 Q 323 352 256 352 Q 117 351 7 315 L 7 315 Z M 112 160 Q 113 115 152 91 Q 192 69 232 91 Q 271 115 272 160 Q 271 205 232 229 Q 192 251 152 229 Q 113 205 112 160 L 112 160 Z"/>
</svg>
