<svg xmlns="http://www.w3.org/2000/svg" viewBox="0 0 640 160">
    <path d="M 64 0 Q 37 1 19 19 L 19 19 Q 1 37 0 64 L 0 96 Q 1 123 19 141 Q 37 159 64 160 L 416 160 Q 430 160 439 151 Q 448 142 448 128 L 448 32 Q 448 18 439 9 Q 430 0 416 0 L 64 0 L 64 0 Z M 224 64 L 384 64 L 384 96 L 224 96 L 224 64 L 224 64 Z M 544 32 Q 544 18 535 9 L 535 9 Q 526 0 512 0 Q 498 0 489 9 Q 480 18 480 32 L 480 128 Q 480 142 489 151 Q 498 160 512 160 Q 526 160 535 151 Q 544 142 544 128 L 544 32 L 544 32 Z M 640 32 Q 640 18 631 9 L 631 9 Q 622 0 608 0 Q 594 0 585 9 Q 576 18 576 32 L 576 128 Q 576 142 585 151 Q 594 160 608 160 Q 622 160 631 151 Q 640 142 640 128 L 640 32 L 640 32 Z"/>
</svg>
