<svg xmlns="http://www.w3.org/2000/svg" viewBox="0 0 576 448">
    <path d="M 32 128 L 128 128 L 128 64 Q 127 37 109 19 Q 91 1 64 0 Q 37 1 19 19 Q 1 37 0 64 L 0 96 Q 0 110 9 119 Q 18 128 32 128 L 32 128 Z M 288 352 L 288 368 Q 287 402 265 425 Q 242 447 208 448 L 480 448 Q 521 447 548 420 Q 575 393 576 352 Q 576 338 567 329 Q 558 320 544 320 L 424 320 L 423 320 Q 416 320 411 325 L 390 346 Q 384 351 378 346 L 357 325 Q 352 320 345 320 L 344 320 L 320 320 Q 306 320 297 329 Q 288 338 288 352 L 288 352 Z"/>
</svg>
