<svg xmlns="http://www.w3.org/2000/svg" viewBox="0 0 352 444">
    <path d="M 304 366 L 304 207 Q 283 217 255 222 Q 249 194 228 175 Q 206 157 176 156 Q 146 157 124 175 Q 103 194 97 222 Q 69 217 48 207 L 48 366 Q 53 371 70 379 Q 109 395 176 396 Q 243 395 282 379 Q 299 371 304 366 L 304 366 Z M 352 372 Q 350 403 300 423 L 300 423 Q 251 443 176 444 Q 101 443 52 423 Q 2 403 0 372 L 0 4 Q 0 2 0 0 Q 6 26 55 43 Q 104 59 176 60 Q 248 59 297 43 Q 346 26 352 0 Q 352 2 352 4 L 352 372 L 352 372 Z"/>
</svg>
