<svg xmlns="http://www.w3.org/2000/svg" viewBox="0 0 544 480">
    <path d="M 336 224 Q 294 223 263 197 Q 264 197 264 197 Q 264 196 265 195 Q 283 165 287 128 Q 288 120 288 112 L 288 11 Q 310 0 336 0 Q 384 1 415 33 Q 447 64 448 112 Q 447 160 415 191 Q 384 223 336 224 L 336 224 Z M 513 480 L 375 480 Q 384 466 384 448 L 384 440 Q 384 394 365 355 Q 347 316 314 288 Q 314 288 314 288 Q 318 288 321 288 L 383 288 Q 451 290 497 335 Q 542 381 544 449 Q 544 462 535 471 Q 526 480 513 480 L 513 480 Z M 256 96 L 256 112 Q 255 166 219 203 Q 182 239 128 240 Q 74 239 37 203 Q 1 166 0 112 L 0 96 L 256 96 L 256 96 Z"/>
</svg>
