<svg xmlns="http://www.w3.org/2000/svg" viewBox="0 0 512 512">
    <path d="M 8 166 Q 0 194 0 224 Q 1 301 47 362 Q 63 382 64 407 L 64 480 Q 64 494 73 503 Q 82 512 96 512 L 240 512 L 240 338 L 8 166 L 8 166 Z M 26 119 L 253 288 L 512 288 L 512 288 Q 512 288 512 288 Q 512 288 512 288 Q 512 273 502 261 L 458 195 Q 448 180 446 163 Q 433 92 377 47 Q 322 2 248 0 L 224 0 Q 159 1 107 33 Q 55 65 26 119 L 26 119 Z M 320 192 Q 320 178 329 169 L 329 169 Q 338 160 352 160 Q 366 160 375 169 Q 384 178 384 192 Q 384 206 375 215 Q 366 224 352 224 Q 338 224 329 215 Q 320 206 320 192 L 320 192 Z"/>
</svg>
