<svg xmlns="http://www.w3.org/2000/svg" viewBox="0 0 576 384">
    <path d="M 397 0 L 179 0 Q 156 0 139 14 Q 122 28 117 50 L 99 129 Q 117 123 137 118 Q 158 112 176 112 Q 209 114 232 128 Q 255 142 288 144 Q 321 142 344 128 Q 367 114 400 112 Q 418 112 439 118 Q 459 123 477 129 L 459 50 Q 454 28 437 14 Q 420 0 397 0 L 397 0 Z M 32 320 Q 18 320 9 329 L 9 329 Q 0 338 0 352 Q 0 366 9 375 Q 18 384 32 384 L 544 384 Q 558 384 567 375 Q 576 366 576 352 Q 576 338 567 329 Q 558 320 544 320 L 32 320 L 32 320 Z"/>
</svg>
