<svg xmlns="http://www.w3.org/2000/svg" viewBox="0 0 496 416">
    <path d="M 400 192 Q 385 191 384 176 L 384 64 L 384 16 Q 385 1 400 0 L 480 0 Q 495 1 496 16 L 496 64 Q 495 79 480 80 L 416 80 L 416 176 Q 415 191 400 192 L 400 192 Z M 0 176 Q 2 115 42 74 L 42 74 Q 83 34 144 32 Q 205 34 246 74 Q 286 115 288 176 L 288 352 Q 287 379 269 397 Q 251 415 224 416 L 64 416 Q 37 415 19 397 Q 1 379 0 352 L 0 176 L 0 176 Z M 64 176 Q 65 191 80 192 L 208 192 Q 223 191 224 176 Q 223 161 208 160 L 80 160 Q 65 161 64 176 L 64 176 Z"/>
</svg>
