<svg xmlns="http://www.w3.org/2000/svg" viewBox="0 0 256 64">
    <path d="M 32 64 Q 18 64 9 55 L 9 55 Q 0 46 0 32 Q 0 18 9 9 Q 18 0 32 0 Q 46 0 55 9 Q 64 18 64 32 Q 64 46 55 55 Q 46 64 32 64 L 32 64 Z M 128 64 Q 114 64 105 55 L 105 55 Q 96 46 96 32 Q 96 18 105 9 Q 114 0 128 0 Q 142 0 151 9 Q 160 18 160 32 Q 160 46 151 55 Q 142 64 128 64 L 128 64 Z M 192 32 Q 192 18 201 9 L 201 9 Q 210 0 224 0 Q 238 0 247 9 Q 256 18 256 32 Q 256 46 247 55 Q 238 64 224 64 Q 210 64 201 55 Q 192 46 192 32 L 192 32 Z"/>
</svg>
