<svg xmlns="http://www.w3.org/2000/svg" viewBox="0 0 576 422">
    <path d="M 112 0 Q 92 1 78 14 L 78 14 Q 65 28 64 48 L 64 256 L 48 256 Q 28 257 14 270 Q 1 284 0 304 L 0 400 Q 0 412 5 422 Q 11 420 17 418 Q 38 413 55 400 Q 72 385 93 385 Q 114 384 133 396 Q 162 416 192 416 Q 225 415 251 396 Q 268 384 288 384 Q 308 384 325 396 Q 354 416 384 416 Q 414 416 443 396 Q 462 384 483 385 Q 504 385 521 400 Q 538 413 559 418 Q 565 420 571 422 Q 576 412 576 400 L 576 304 Q 575 284 562 270 Q 548 257 528 256 L 288 256 L 288 48 Q 287 28 274 14 Q 260 1 240 0 L 112 0 L 112 0 Z"/>
</svg>
