<svg xmlns="http://www.w3.org/2000/svg" viewBox="0 0 215 288">
    <path d="M 96 192 Q 98 214 120 216 Q 142 214 144 192 L 96 192 L 96 192 Z M 104 24 Q 102 2 80 0 Q 58 2 56 24 L 104 24 L 104 24 Z M 202 231 Q 215 213 199 198 Q 181 185 166 201 L 202 231 L 202 231 Z M 158 247 L 177 262 L 158 247 L 158 247 Z M 104 240 L 56 240 L 56 288 L 104 288 L 104 240 L 104 240 Z M 48 232 L 48 208 L 0 208 L 0 232 L 48 232 L 48 232 Z M 48 208 L 48 184 L 0 184 L 0 208 L 48 208 L 48 208 Z M 56 176 L 88 176 L 88 128 L 56 128 L 56 176 L 56 176 Z M 96 184 L 96 192 L 144 192 L 144 184 L 96 184 L 96 184 Z M 118 244 L 38 188 L 10 228 L 90 284 L 118 244 L 118 244 Z M 56 24 L 56 96 L 104 96 L 104 24 L 56 24 L 56 24 Z M 104 288 L 122 288 L 122 240 L 104 240 L 104 288 L 104 288 Z M 177 262 L 202 231 L 166 201 L 140 231 L 177 262 L 177 262 Z M 122 288 Q 155 287 177 262 L 140 231 Q 133 240 122 240 L 122 288 L 122 288 Z M 88 176 Q 95 177 96 184 L 144 184 Q 143 160 128 144 Q 112 129 88 128 L 88 176 L 88 176 Z M 48 184 Q 49 177 56 176 L 56 128 Q 32 129 16 144 Q 1 160 0 184 L 48 184 L 48 184 Z M 56 240 Q 49 239 48 232 L 0 232 Q 1 256 16 272 Q 32 287 56 288 L 56 240 L 56 240 Z"/>
</svg>
