<svg xmlns="http://www.w3.org/2000/svg" viewBox="0 0 384 160">
    <path d="M 144 64 Q 158 64 167 55 L 167 55 Q 176 46 176 32 Q 176 18 167 9 Q 158 0 144 0 Q 130 0 121 9 Q 112 18 112 32 Q 112 46 121 55 Q 130 64 144 64 L 144 64 Z M 96 80 Q 96 66 87 57 L 87 57 Q 78 48 64 48 Q 50 48 41 57 Q 32 66 32 80 Q 32 94 41 103 Q 50 112 64 112 Q 78 112 87 103 Q 96 94 96 80 L 96 80 Z M 0 160 L 64 160 Q 64 146 55 137 Q 46 128 32 128 Q 18 128 9 137 Q 0 146 0 160 L 0 160 Z M 320 160 L 384 160 Q 384 146 375 137 Q 366 128 352 128 Q 338 128 329 137 Q 320 146 320 160 L 320 160 Z M 272 32 Q 272 18 263 9 L 263 9 Q 254 0 240 0 Q 226 0 217 9 Q 208 18 208 32 Q 208 46 217 55 Q 226 64 240 64 Q 254 64 263 55 Q 272 46 272 32 L 272 32 Z M 320 112 Q 334 112 343 103 L 343 103 Q 352 94 352 80 Q 352 66 343 57 Q 334 48 320 48 Q 306 48 297 57 Q 288 66 288 80 Q 288 94 297 103 Q 306 112 320 112 L 320 112 Z"/>
</svg>
