<svg xmlns="http://www.w3.org/2000/svg" viewBox="0 0 448 448">
    <path d="M 0 64 Q 1 37 19 19 L 19 19 Q 37 1 64 0 L 384 0 Q 411 1 429 19 Q 447 37 448 64 L 448 288 L 320 288 Q 306 288 297 297 Q 288 306 288 320 L 288 448 L 64 448 Q 37 447 19 429 Q 1 411 0 384 L 0 64 L 0 64 Z M 112 352 Q 110 330 88 328 Q 66 330 64 352 Q 66 374 88 376 Q 110 374 112 352 L 112 352 Z M 88 72 Q 66 74 64 96 Q 66 118 88 120 Q 110 118 112 96 Q 110 74 88 72 L 88 72 Z M 112 224 Q 110 202 88 200 Q 66 202 64 224 Q 66 246 88 248 Q 110 246 112 224 L 112 224 Z"/>
</svg>
