<svg xmlns="http://www.w3.org/2000/svg" viewBox="0 0 512 512">
    <path d="M 412 368 Q 447 320 448 256 Q 446 174 392 120 Q 338 66 256 64 Q 212 64 175 82 Q 168 47 139 28 Q 192 1 256 0 Q 328 1 385 35 Q 443 69 477 127 Q 511 184 512 256 Q 511 342 463 407 Q 459 390 447 379 Q 434 368 416 368 Q 414 368 412 368 Q 412 368 412 368 L 412 368 Z M 337 430 Q 344 465 373 484 Q 320 511 256 512 Q 184 511 127 477 Q 69 443 35 385 Q 1 328 0 256 Q 1 170 49 105 Q 53 122 65 133 Q 78 144 96 144 Q 98 144 100 144 Q 100 144 100 144 Q 65 192 64 256 Q 66 338 120 392 Q 174 446 256 448 Q 300 448 337 430 L 337 430 Z M 256 152 Q 212 153 182 182 L 182 182 Q 153 212 152 256 Q 153 300 182 330 Q 212 359 256 360 Q 300 359 330 330 Q 359 300 360 256 Q 360 230 348 208 Q 348 208 348 208 Q 350 208 352 208 Q 379 206 389 183 Q 408 216 408 256 Q 406 321 363 363 Q 321 406 256 408 Q 191 406 149 363 Q 106 321 104 256 Q 106 191 149 149 Q 191 106 256 104 Q 304 105 341 130 Q 314 139 312 168 Q 312 168 312 168 Q 312 168 312 168 Q 287 152 256 152 L 256 152 Z"/>
</svg>
