<svg xmlns="http://www.w3.org/2000/svg" viewBox="0 0 384 512">
    <path d="M 0 64 Q 1 37 19 19 L 19 19 Q 37 1 64 0 L 224 0 L 224 128 Q 224 142 233 151 Q 242 160 256 160 L 384 160 L 384 448 Q 383 475 365 493 Q 347 511 320 512 L 64 512 Q 37 511 19 493 Q 1 475 0 448 L 0 64 L 0 64 Z M 216 248 Q 214 226 192 224 Q 170 226 168 248 L 168 424 Q 170 446 192 448 Q 214 446 216 424 L 216 248 L 216 248 Z M 304 312 Q 302 290 280 288 Q 258 290 256 312 L 256 424 Q 258 446 280 448 Q 302 446 304 424 L 304 312 L 304 312 Z M 128 376 Q 126 354 104 352 Q 82 354 80 376 L 80 424 Q 82 446 104 448 Q 126 446 128 424 L 128 376 L 128 376 Z"/>
</svg>
