<svg xmlns="http://www.w3.org/2000/svg" viewBox="0 0 176 240">
    <path d="M 128 24 Q 130 2 152 0 Q 174 2 176 24 Q 174 46 152 48 Q 130 46 128 24 L 128 24 Z M 88 48 Q 110 50 112 72 Q 110 94 88 96 Q 66 94 64 72 Q 66 50 88 48 L 88 48 Z M 24 96 Q 46 98 48 120 Q 46 142 24 144 Q 2 142 0 120 Q 2 98 24 96 L 24 96 Z M 152 96 Q 174 98 176 120 Q 174 142 152 144 Q 130 142 128 120 Q 130 98 152 96 L 152 96 Z M 128 216 Q 130 194 152 192 Q 174 194 176 216 Q 174 238 152 240 Q 130 238 128 216 L 128 216 Z M 88 144 Q 110 146 112 168 Q 110 190 88 192 Q 66 190 64 168 Q 66 146 88 144 L 88 144 Z"/>
</svg>
