<svg xmlns="http://www.w3.org/2000/svg" viewBox="0 0 329 329">
    <path d="M 310 38 Q 328 37 329 19 Q 328 1 310 0 Q 292 1 291 19 Q 292 37 310 38 L 310 38 Z M 310 102 Q 328 101 329 83 Q 328 65 310 64 Q 299 64 293 73 Q 288 83 293 93 Q 299 102 310 102 L 310 102 Z M 246 102 Q 264 101 265 83 Q 264 65 246 64 Q 235 64 229 73 Q 224 83 229 93 Q 235 102 246 102 L 246 102 Z M 22 326 Q 33 326 39 317 Q 44 307 39 297 Q 33 288 22 288 Q 11 288 5 297 Q 0 307 5 317 Q 11 326 22 326 L 22 326 Z M 105 307 Q 104 289 86 288 Q 68 289 67 307 Q 67 318 76 324 Q 86 329 96 324 Q 105 318 105 307 L 105 307 Z M 105 243 Q 104 225 86 224 Q 68 225 67 243 Q 67 254 76 260 Q 86 265 96 260 Q 105 254 105 243 L 105 243 Z"/>
</svg>
