<svg xmlns="http://www.w3.org/2000/svg" viewBox="0 0 512 336">
    <path d="M 0 160 Q 3 92 75 47 L 75 47 Q 147 2 256 0 Q 365 2 437 47 Q 509 92 512 160 L 512 231 Q 500 245 482 251 Q 467 257 458 270 Q 441 294 415 306 Q 388 318 360 316 Q 336 315 314 324 Q 286 336 256 336 Q 226 336 198 324 Q 176 315 152 316 Q 124 318 97 306 Q 71 294 54 270 Q 45 257 30 251 Q 12 245 0 231 L 0 160 L 0 160 Z M 320 144 Q 319 130 301 121 L 301 121 Q 283 112 256 112 Q 229 112 211 121 Q 193 130 192 144 Q 193 158 211 167 Q 229 176 256 176 Q 283 176 301 167 Q 319 158 320 144 L 320 144 Z M 283 37 Q 272 27 261 37 L 245 53 Q 235 64 245 75 Q 256 85 267 75 L 283 59 Q 293 48 283 37 L 283 37 Z M 171 75 Q 181 64 171 53 Q 160 43 149 53 L 117 85 Q 107 96 117 107 Q 128 117 139 107 L 171 75 L 171 75 Z M 395 85 Q 384 75 373 85 Q 363 96 373 107 L 405 139 Q 416 149 427 139 Q 437 128 427 117 L 395 85 L 395 85 Z M 64 144 Q 49 145 48 160 Q 49 175 64 176 L 96 176 Q 111 175 112 160 Q 111 145 96 144 L 64 144 L 64 144 Z M 395 181 Q 384 171 373 181 Q 363 192 373 203 L 405 235 Q 416 245 427 235 Q 437 224 427 213 L 395 181 L 395 181 Z M 155 197 Q 144 187 133 197 Q 123 208 133 219 L 165 251 Q 176 261 187 251 Q 197 240 187 229 L 155 197 L 155 197 Z M 331 235 Q 341 224 331 213 Q 320 203 309 213 L 277 245 Q 267 256 277 267 Q 288 277 299 267 L 331 235 L 331 235 Z"/>
</svg>
