<svg xmlns="http://www.w3.org/2000/svg" viewBox="0 0 200 264">
    <path d="M 67 56 Q 52 63 52 72 Q 50 81 52 84 Q 53 87 60 92 Q 75 101 106 109 Q 107 109 107 109 Q 108 109 108 110 Q 139 116 167 133 Q 182 142 191 160 Q 200 178 196 200 Q 186 239 151 252 Q 117 264 78 258 L 78 258 L 78 258 Q 65 256 48 251 Q 31 246 20 243 Q 0 234 5 213 Q 14 192 35 197 Q 46 201 61 205 Q 75 209 85 211 Q 116 215 133 208 Q 147 201 148 192 Q 149 183 148 180 Q 147 177 140 173 Q 125 163 93 155 Q 93 155 93 155 Q 92 155 91 155 Q 91 155 91 154 Q 61 148 33 131 Q 18 122 9 104 Q 0 86 4 64 Q 14 25 49 12 Q 82 0 122 6 Q 129 7 138 9 Q 148 11 154 13 Q 175 20 171 42 Q 164 63 142 59 Q 137 58 128 56 Q 120 54 115 54 L 118 30 L 115 54 Q 84 49 67 57 L 67 56 Z"/>
</svg>
