<svg xmlns="http://www.w3.org/2000/svg" viewBox="0 0 352 384">
    <path d="M 0 352 Q 0 366 9 375 L 9 375 Q 18 384 32 384 L 320 384 Q 334 384 343 375 Q 352 366 352 352 Q 352 338 343 329 Q 334 320 320 320 L 32 320 Q 18 320 9 329 Q 0 338 0 352 L 0 352 Z M 64 192 Q 64 206 73 215 L 73 215 Q 82 224 96 224 L 320 224 Q 334 224 343 215 Q 352 206 352 192 Q 352 178 343 169 Q 334 160 320 160 L 96 160 Q 82 160 73 169 Q 64 178 64 192 L 64 192 Z M 96 64 L 320 64 Q 334 64 343 55 Q 352 46 352 32 Q 352 18 343 9 Q 334 0 320 0 L 96 0 Q 82 0 73 9 Q 64 18 64 32 Q 64 46 73 55 Q 82 64 96 64 L 96 64 Z"/>
</svg>
