<svg xmlns="http://www.w3.org/2000/svg" viewBox="0 0 616 384">
    <path d="M 48 120 Q 49 82 79 61 Q 72 77 72 96 L 72 160 L 72 192 L 72 352 Q 72 366 81 375 Q 90 384 104 384 L 136 384 Q 150 384 159 375 Q 168 366 168 352 L 168 264 L 168 264 Q 168 264 168 264 Q 168 264 168 264 Q 169 240 184 224 Q 200 209 224 208 L 272 208 Q 296 209 312 224 Q 327 240 328 264 Q 328 264 328 264 Q 328 264 328 264 L 328 264 L 328 352 Q 328 366 337 375 Q 346 384 360 384 L 392 384 Q 406 384 415 375 Q 424 366 424 352 L 424 192 L 456 224 L 456 274 Q 456 288 464 300 L 506 363 Q 520 383 545 384 Q 563 384 575 373 Q 588 363 592 346 L 612 244 Q 616 224 604 207 L 600 202 L 600 120 Q 598 98 576 96 Q 554 98 552 120 L 552 134 L 499 60 Q 478 32 448 16 Q 417 0 382 0 L 248 0 L 232 0 L 168 0 L 120 0 Q 69 1 35 35 Q 1 69 0 120 L 0 174 Q 17 160 40 160 L 48 160 L 48 120 L 48 120 Z M 552 256 Q 567 257 568 272 Q 567 287 552 288 Q 537 287 536 272 Q 537 257 552 256 L 552 256 Z M 166 126 L 143 103 Q 136 96 136 87 Q 138 66 159 64 L 337 64 Q 358 66 360 87 Q 360 96 353 103 L 330 126 Q 296 159 248 160 Q 200 159 166 126 L 166 126 Z"/>
</svg>
