<svg xmlns="http://www.w3.org/2000/svg" viewBox="0 0 384 384">
    <path d="M 192 64 Q 157 64 128 81 L 128 81 Q 99 98 81 128 Q 64 158 64 192 Q 64 226 81 256 Q 99 286 128 303 Q 157 320 192 320 Q 227 320 256 303 Q 285 286 303 256 Q 320 226 320 192 Q 320 158 303 128 Q 285 98 256 81 Q 227 64 192 64 L 192 64 Z M 384 192 Q 384 244 358 288 L 358 288 Q 333 332 288 358 Q 243 384 192 384 Q 141 384 96 358 Q 51 332 26 288 Q 0 244 0 192 Q 0 140 26 96 Q 51 52 96 26 Q 141 0 192 0 Q 243 0 288 26 Q 333 52 358 96 Q 384 140 384 192 L 384 192 Z"/>
</svg>
