<svg xmlns="http://www.w3.org/2000/svg" viewBox="0 0 324 228">
    <path d="M 130 41 L 130 107 L 42 129 Q 29 132 18 125 Q 7 119 3 106 Q 0 92 7 81 Q 13 71 26 67 L 130 41 L 130 41 Z M 130 137 L 130 203 L 42 225 Q 29 228 18 221 Q 7 215 3 202 Q 0 188 7 177 Q 13 167 26 163 L 130 137 L 130 137 Z M 194 187 L 194 121 L 282 99 Q 295 96 306 103 Q 317 109 321 122 Q 324 136 317 147 Q 311 157 298 161 L 194 187 L 194 187 Z M 194 91 L 194 25 L 282 3 Q 295 0 306 7 Q 317 13 321 26 Q 324 40 317 51 Q 311 61 298 65 L 194 91 L 194 91 Z"/>
</svg>
