<svg xmlns="http://www.w3.org/2000/svg" viewBox="0 0 576 416">
    <path d="M 0 0 L 576 0 L 576 384 Q 576 398 567 407 Q 558 416 544 416 L 448 416 L 448 256 Q 446 188 401 143 Q 356 98 288 96 Q 220 98 175 143 Q 130 188 128 256 L 128 416 L 32 416 Q 18 416 9 407 Q 0 398 0 384 L 0 0 L 0 0 Z M 289 370 Q 263 369 247 355 L 247 355 Q 230 340 230 313 Q 230 300 238 287 Q 246 273 262 253 Q 265 256 275 270 Q 286 283 296 297 Q 307 310 308 311 L 334 280 Q 336 284 338 288 Q 339 288 339 289 Q 349 307 345 327 Q 341 346 324 359 Q 308 369 289 369 L 289 370 Z"/>
</svg>
