<svg xmlns="http://www.w3.org/2000/svg" viewBox="0 0 320 320">
    <path d="M 32 0 Q 18 0 9 9 L 9 9 Q 0 18 0 32 Q 0 46 9 55 Q 18 64 32 64 Q 95 65 145 95 Q 196 124 225 175 Q 255 225 256 288 Q 256 302 265 311 Q 274 320 288 320 Q 302 320 311 311 Q 320 302 320 288 Q 319 208 281 143 Q 242 78 177 39 Q 112 1 32 0 L 32 0 Z M 32 96 Q 18 96 9 105 L 9 105 Q 0 114 0 128 Q 0 142 9 151 Q 18 160 32 160 Q 86 161 123 197 Q 159 234 160 288 Q 160 302 169 311 Q 178 320 192 320 Q 206 320 215 311 Q 224 302 224 288 Q 222 206 168 152 Q 114 98 32 96 L 32 96 Z"/>
</svg>
