<svg xmlns="http://www.w3.org/2000/svg" viewBox="0 0 480 416">
    <path d="M 0 64 Q 1 37 19 19 L 19 19 Q 37 1 64 0 L 416 0 Q 443 1 461 19 Q 479 37 480 64 L 480 352 Q 479 379 461 397 Q 443 415 416 416 L 177 416 Q 159 377 124 352 L 416 352 L 416 64 L 64 64 L 64 113 Q 35 96 0 96 L 0 64 L 0 64 Z M 253 139 Q 246 132 249 122 Q 254 113 264 112 L 352 112 Q 367 113 368 128 L 368 216 Q 368 226 358 231 Q 348 234 341 227 L 314 200 L 241 273 Q 224 287 207 273 L 143 209 Q 129 192 143 175 Q 160 161 177 175 L 224 222 L 280 166 L 253 139 L 253 139 Z"/>
</svg>
