<svg xmlns="http://www.w3.org/2000/svg" viewBox="0 0 408 416">
    <path d="M 0 120 Q 2 98 24 96 Q 46 98 48 120 L 48 184 Q 46 206 24 208 Q 2 206 0 184 L 0 120 L 0 120 Z M 80 24 Q 82 2 104 0 Q 126 2 128 24 L 128 184 Q 126 206 104 208 Q 82 206 80 184 L 80 24 L 80 24 Z M 160 88 Q 162 66 184 64 Q 206 66 208 88 L 208 184 Q 206 206 184 208 Q 162 206 160 184 L 160 88 L 160 88 Z M 353 407 L 227 280 Q 253 261 272 235 L 399 361 Q 408 371 408 384 Q 408 397 399 407 Q 389 416 376 416 Q 363 416 353 407 L 353 407 Z"/>
</svg>
