<svg xmlns="http://www.w3.org/2000/svg" viewBox="0 0 496 496">
    <path d="M 248 0 Q 293 0 334 15 L 296 54 Q 273 48 248 48 Q 163 50 107 107 Q 50 163 48 248 Q 50 333 107 389 Q 163 446 248 448 Q 270 450 272 472 Q 270 494 248 496 Q 179 495 123 462 Q 67 429 34 373 Q 1 317 0 248 Q 1 179 34 123 Q 67 67 123 34 Q 179 1 248 0 L 248 0 Z M 448 248 Q 448 224 443 201 L 481 163 Q 496 203 496 248 Q 494 313 451 355 Q 409 398 344 400 Q 324 400 306 395 Q 285 388 289 366 Q 296 345 318 349 Q 330 352 344 352 Q 388 351 417 322 Q 447 292 448 248 L 448 248 Z"/>
</svg>
