<svg xmlns="http://www.w3.org/2000/svg" viewBox="0 0 414 216">
    <path d="M 105 24 Q 116 23 117 12 Q 115 1 104 0 Q 58 3 29 36 Q 0 69 3 111 Q 7 152 37 177 Q 68 202 106 200 Q 144 196 167 169 Q 190 142 187 108 Q 183 75 158 56 Q 134 36 104 39 Q 74 43 57 64 Q 40 85 43 111 Q 47 136 66 150 Q 85 164 107 160 Q 128 156 139 141 Q 150 125 146 107 Q 142 89 129 82 Q 116 74 101 79 Q 88 84 83 95 Q 78 105 85 117 Q 92 126 103 125 Q 107 125 112 121 Q 117 117 117 109 Q 116 104 114 102 Q 114 102 114 102 Q 115 102 116 103 Q 121 106 123 112 L 123 113 L 123 113 Q 125 119 120 127 Q 115 135 103 137 L 103 137 L 103 137 Q 91 139 80 131 Q 69 123 67 108 L 67 108 L 67 108 Q 65 93 76 79 Q 86 66 106 63 L 106 63 L 106 63 Q 126 61 143 74 Q 160 88 162 111 L 162 111 L 162 111 Q 165 134 148 154 Q 132 173 104 176 L 104 176 L 103 176 Q 76 178 53 159 Q 30 140 27 109 L 27 109 L 27 108 Q 25 78 47 52 Q 69 27 105 24 L 105 24 Z M 309 192 Q 298 193 297 205 Q 299 216 310 216 Q 356 213 385 180 Q 414 147 411 106 Q 407 64 377 39 Q 346 14 308 16 Q 270 20 247 47 Q 224 74 228 108 Q 231 141 256 160 Q 280 180 310 177 Q 340 173 357 152 Q 374 131 371 105 Q 367 80 348 66 Q 329 52 307 56 Q 286 60 275 75 Q 264 91 268 109 Q 272 127 285 134 Q 298 142 313 137 Q 326 132 331 121 Q 336 111 329 100 Q 322 90 311 91 Q 307 91 302 95 Q 297 99 297 107 Q 298 112 300 114 Q 300 114 300 114 Q 299 114 298 113 Q 293 110 291 104 L 291 104 L 291 103 Q 289 97 294 89 Q 299 81 311 79 L 311 79 L 311 79 Q 323 77 334 85 Q 345 93 347 108 L 347 108 L 347 108 Q 349 123 338 137 Q 328 150 308 153 L 308 153 L 308 153 Q 288 155 271 142 Q 254 128 252 105 L 252 105 L 252 105 Q 249 82 266 63 Q 282 43 310 40 L 310 40 L 311 40 Q 338 38 361 57 Q 384 76 387 107 L 387 107 L 387 108 Q 389 138 367 164 Q 345 189 309 192 L 309 192 Z"/>
</svg>
