<svg xmlns="http://www.w3.org/2000/svg" viewBox="0 0 512 512">
    <path d="M 383 448 L 434 488 Q 415 511 384 512 L 128 512 Q 101 511 83 493 Q 65 475 64 448 L 64 384 L 32 384 Q 18 384 9 375 Q 0 366 0 352 L 0 256 Q 1 230 17 213 Q 33 195 58 192 L 261 352 L 128 352 L 128 368 L 128 384 L 128 448 L 383 448 L 383 448 Z M 480 384 L 458 384 L 213 192 L 448 192 Q 475 193 493 211 Q 511 229 512 256 L 512 352 Q 512 366 503 375 Q 494 384 480 384 L 480 384 Z M 128 64 L 128 125 L 64 75 L 64 64 Q 65 37 83 19 Q 101 1 128 0 L 355 0 Q 381 0 400 19 L 429 48 Q 448 67 448 93 L 448 160 L 384 160 L 384 93 L 355 64 L 128 64 L 128 64 Z M 456 272 Q 454 250 432 248 Q 410 250 408 272 Q 410 294 432 296 Q 454 294 456 272 L 456 272 Z"/>
</svg>
