<svg xmlns="http://www.w3.org/2000/svg" viewBox="0 0 448 448">
    <path d="M 88 0 Q 66 2 64 24 L 64 64 L 128 64 L 128 24 Q 126 2 104 0 L 88 0 L 88 0 Z M 248 0 Q 226 2 224 24 L 224 64 L 288 64 L 288 24 Q 286 2 264 0 L 248 0 L 248 0 Z M 160 16 L 160 64 L 192 64 L 192 16 Q 191 1 176 0 Q 161 1 160 16 L 160 16 Z M 336 0 Q 321 1 320 16 L 320 272 Q 321 287 336 288 Q 351 287 352 272 L 352 16 Q 351 1 336 0 L 336 0 Z M 384 24 L 384 264 Q 386 286 408 288 L 424 288 Q 446 286 448 264 L 448 24 Q 446 2 424 0 L 408 0 Q 386 2 384 24 L 384 24 Z M 24 160 Q 2 162 0 184 L 0 424 Q 2 446 24 448 L 200 448 Q 222 446 224 424 L 224 184 Q 222 162 200 160 L 24 160 L 24 160 Z"/>
</svg>
