<svg xmlns="http://www.w3.org/2000/svg" viewBox="0 0 280 193">
    <path d="M 199 55 Q 210 43 223 54 Q 230 65 222 75 L 150 153 Q 140 164 146 179 Q 153 192 168 193 L 256 193 Q 278 191 280 169 Q 278 147 256 145 L 223 145 L 258 107 Q 274 89 274 65 Q 275 42 259 23 Q 237 0 208 1 Q 179 2 159 27 L 148 43 Q 137 62 154 77 Q 173 88 188 71 L 199 55 L 199 55 Z M 32 1 Q 10 3 8 25 Q 10 47 32 49 L 40 49 L 40 145 L 24 145 Q 2 147 0 169 Q 2 191 24 193 L 104 193 Q 126 191 128 169 Q 126 147 104 145 L 88 145 L 88 25 Q 86 3 64 1 L 32 1 L 32 1 Z"/>
</svg>
