<svg xmlns="http://www.w3.org/2000/svg" viewBox="0 0 384 512">
    <path d="M 216 48 L 168 48 L 168 288 L 120 288 L 120 59 Q 82 82 80 128 L 80 288 L 32 288 L 32 128 Q 33 74 69 37 Q 106 1 160 0 L 224 0 Q 278 1 315 37 Q 351 74 352 128 L 352 288 L 304 288 L 304 128 Q 302 82 264 59 L 264 288 L 216 288 L 216 48 L 216 48 Z M 0 480 L 0 384 L 64 384 L 64 480 Q 64 494 55 503 Q 46 512 32 512 Q 18 512 9 503 Q 0 494 0 480 L 0 480 Z M 384 384 L 384 480 Q 384 494 375 503 Q 366 512 352 512 Q 338 512 329 503 Q 320 494 320 480 L 320 384 L 384 384 L 384 384 Z"/>
</svg>
