<svg xmlns="http://www.w3.org/2000/svg" viewBox="0 0 576 359">
    <path d="M 207 14 Q 224 0 241 14 L 288 61 L 335 14 Q 352 0 369 14 Q 383 31 369 48 L 322 95 L 369 142 Q 383 159 369 176 Q 352 190 335 176 L 288 129 L 241 176 Q 224 190 207 176 Q 193 159 207 142 L 254 95 L 207 48 Q 193 31 207 14 L 207 14 Z M 48 167 L 96 167 L 96 247 L 80 247 Q 65 248 64 263 Q 65 278 80 279 L 496 279 Q 511 278 512 263 Q 511 248 496 247 L 480 247 L 480 167 L 528 167 Q 548 168 562 181 Q 575 195 576 215 L 576 311 Q 575 331 562 345 Q 548 358 528 359 L 48 359 Q 28 358 14 345 Q 1 331 0 311 L 0 215 Q 1 195 14 181 Q 28 168 48 167 L 48 167 Z"/>
</svg>
