<svg xmlns="http://www.w3.org/2000/svg" viewBox="0 0 148 256">
    <path d="M 76 0 Q 98 2 100 24 L 100 35 Q 110 36 118 39 Q 139 46 135 68 Q 128 89 106 85 Q 89 80 76 80 Q 64 80 56 85 Q 53 87 53 88 Q 52 88 52 90 Q 52 91 52 91 Q 52 91 52 91 Q 52 91 52 91 Q 52 92 55 94 Q 64 98 83 104 L 84 104 L 84 104 Q 102 108 121 119 Q 145 132 148 164 Q 146 198 121 213 Q 111 219 100 221 L 100 232 Q 98 254 76 256 Q 54 254 52 232 L 52 221 Q 38 217 28 213 Q 27 213 26 213 Q 25 212 24 212 Q 22 211 20 211 Q 0 202 5 180 Q 14 160 35 165 Q 37 166 39 166 Q 41 167 43 168 Q 62 175 77 176 Q 89 176 96 172 Q 99 170 99 169 Q 100 168 100 165 L 100 165 Q 101 164 96 160 Q 88 155 69 150 L 67 149 Q 49 145 30 135 Q 7 123 4 91 Q 7 56 32 43 Q 41 38 52 35 L 52 24 Q 54 2 76 0 L 76 0 Z"/>
</svg>
