<svg xmlns="http://www.w3.org/2000/svg" viewBox="0 0 477 259">
    <path d="M 365 244 L 365 209 L 189 209 L 189 244 L 182 249 Q 166 259 150 251 L 133 243 L 115 252 Q 101 258 87 252 L 77 247 L 77 211 L 101 223 L 119 214 Q 133 208 147 214 L 164 223 L 180 212 Q 184 209 189 209 L 365 209 Q 370 209 374 212 L 390 223 L 407 214 Q 421 208 435 214 L 453 223 L 477 211 L 477 247 L 467 252 Q 453 258 439 252 L 421 243 L 405 251 Q 388 259 372 249 L 365 244 L 365 244 Z M 477 126 L 477 161 L 466 165 Q 452 170 439 164 L 420 155 L 394 165 Q 380 170 367 164 L 348 155 L 322 165 Q 308 170 295 164 L 276 155 L 250 165 Q 236 170 223 164 L 204 155 L 178 165 Q 164 170 151 164 L 132 155 L 106 165 Q 92 170 79 164 L 77 163 L 77 127 L 94 136 L 120 125 Q 134 120 147 126 L 166 136 L 192 125 Q 206 120 219 126 L 238 136 L 264 125 Q 278 120 291 126 L 310 136 L 336 125 Q 350 120 363 126 L 382 136 L 408 125 Q 422 120 435 126 L 454 136 L 477 126 L 477 126 Z M 205 7 L 205 33 L 225 33 L 148 71 Q 126 82 103 74 L 77 64 L 77 33 L 4 2 Q 2 1 0 0 L 114 44 Q 124 47 134 43 L 205 7 L 205 7 Z"/>
</svg>
