<svg xmlns="http://www.w3.org/2000/svg" viewBox="0 0 434 320">
    <path d="M 306 288 L 306 64 L 305 64 L 234 17 Q 208 0 179 0 Q 147 0 121 19 L 22 89 Q 6 101 3 120 Q 0 139 11 156 Q 23 172 42 175 Q 61 179 78 167 L 135 126 L 290 269 Q 299 277 303 288 L 306 288 L 306 288 Z M 338 288 Q 338 302 347 311 L 347 311 Q 356 320 370 320 L 402 320 Q 416 320 425 311 Q 434 302 434 288 L 434 80 Q 433 65 418 64 L 338 64 L 338 288 L 338 288 Z M 386 256 Q 401 257 402 272 Q 401 287 386 288 Q 371 287 370 272 Q 371 257 386 256 L 386 256 Z"/>
</svg>
