<svg xmlns="http://www.w3.org/2000/svg" viewBox="0 0 448 448">
    <path d="M 64 448 Q 37 447 19 429 L 19 429 Q 1 411 0 384 L 0 64 Q 1 37 19 19 Q 37 1 64 0 L 384 0 Q 411 1 429 19 Q 447 37 448 64 L 448 384 Q 447 411 429 429 Q 411 447 384 448 L 64 448 L 64 448 Z M 128 288 Q 142 288 151 279 L 151 279 Q 160 270 160 256 L 160 128 Q 160 114 151 105 Q 142 96 128 96 Q 114 96 105 105 Q 96 114 96 128 L 96 256 Q 96 270 105 279 Q 114 288 128 288 L 128 288 Z M 288 320 Q 288 334 297 343 L 297 343 Q 306 352 320 352 Q 334 352 343 343 Q 352 334 352 320 L 352 128 Q 352 114 343 105 Q 334 96 320 96 Q 306 96 297 105 Q 288 114 288 128 L 288 320 L 288 320 Z M 224 224 Q 238 224 247 215 L 247 215 Q 256 206 256 192 L 256 128 Q 256 114 247 105 Q 238 96 224 96 Q 210 96 201 105 Q 192 114 192 128 L 192 192 Q 192 206 201 215 Q 210 224 224 224 L 224 224 Z"/>
</svg>
