<svg xmlns="http://www.w3.org/2000/svg" viewBox="0 0 384 256">
    <path d="M 384 0 L 0 0 L 0 256 L 64 256 L 64 208 Q 49 207 48 192 Q 49 177 64 176 L 80 176 Q 95 177 96 192 L 96 256 L 176 256 L 240 256 L 288 256 L 288 208 Q 273 207 272 192 Q 273 177 288 176 L 304 176 Q 319 177 320 192 L 320 256 L 384 256 L 384 0 L 384 0 Z M 240 256 L 240 216 Q 240 199 228 188 Q 217 176 200 176 L 184 176 Q 167 176 156 188 Q 144 199 144 216 L 144 256 L 176 256 L 176 216 Q 177 209 184 208 L 200 208 Q 207 209 208 216 L 208 256 L 240 256 L 240 256 Z M 72 32 L 88 32 Q 105 32 116 44 Q 128 55 128 72 L 128 104 Q 128 121 116 132 Q 105 144 88 144 L 72 144 Q 55 144 44 132 Q 32 121 32 104 L 32 72 Q 32 55 44 44 Q 55 32 72 32 L 72 32 Z M 64 72 L 64 104 Q 65 111 72 112 L 88 112 Q 95 111 96 104 L 96 72 Q 95 65 88 64 L 72 64 Q 65 65 64 72 L 64 72 Z M 176 32 L 192 32 Q 207 33 208 48 L 208 128 Q 207 143 192 144 Q 177 143 176 128 L 176 64 Q 161 63 160 48 Q 161 33 176 32 L 176 32 Z M 256 72 Q 256 55 268 44 L 268 44 Q 279 32 296 32 L 312 32 Q 329 32 340 44 Q 352 55 352 72 L 352 104 Q 352 121 340 132 Q 329 144 312 144 L 296 144 Q 279 144 268 132 Q 256 121 256 104 L 256 72 L 256 72 Z M 296 64 Q 289 65 288 72 L 288 104 Q 289 111 296 112 L 312 112 Q 319 111 320 104 L 320 72 Q 319 65 312 64 L 296 64 L 296 64 Z"/>
</svg>
