<svg xmlns="http://www.w3.org/2000/svg" viewBox="0 0 412 450">
    <path d="M 256 10 L 256 0 L 192 0 L 192 10 Q 192 40 176 63 Q 160 87 132 98 Q 86 117 59 157 Q 33 196 32 246 L 32 320 Q 32 334 41 343 Q 50 352 64 352 Q 78 352 87 343 Q 96 334 96 320 L 96 246 Q 96 231 101 217 L 245 434 Q 253 445 266 447 Q 278 450 290 443 Q 301 435 303 422 Q 306 410 299 398 L 215 272 L 289 272 L 329 320 L 412 320 L 409 316 L 334 225 Q 319 208 297 208 L 226 208 L 185 145 Q 184 144 184 144 Q 217 121 237 86 Q 256 51 256 10 L 256 10 Z M 96 64 Q 95 37 72 22 Q 48 10 24 22 Q 1 37 0 64 Q 1 91 24 106 Q 48 118 72 106 Q 95 91 96 64 L 96 64 Z"/>
</svg>
