<svg xmlns="http://www.w3.org/2000/svg" viewBox="0 0 288 288">
    <path d="M 0 144 Q 0 105 19 72 L 19 72 Q 38 39 72 19 Q 106 0 144 0 Q 182 0 216 19 Q 250 39 269 72 Q 288 105 288 144 Q 288 183 269 216 Q 250 249 216 269 Q 182 288 144 288 Q 106 288 72 269 Q 38 249 19 216 Q 0 183 0 144 L 0 144 Z M 168 216 Q 166 194 144 192 Q 122 194 120 216 Q 122 238 144 240 Q 166 238 168 216 L 168 216 Z M 160 64 Q 159 49 144 48 Q 129 49 128 64 L 128 144 Q 129 159 144 160 Q 159 159 160 144 L 160 64 L 160 64 Z"/>
</svg>
