<svg xmlns="http://www.w3.org/2000/svg" viewBox="0 0 512 384">
    <path d="M 32 0 Q 18 0 9 9 L 9 9 Q 0 18 0 32 L 0 352 Q 0 366 9 375 Q 18 384 32 384 L 64 384 Q 78 384 87 375 Q 96 366 96 352 L 96 32 Q 96 18 87 9 Q 78 0 64 0 L 32 0 L 32 0 Z M 480 64 L 128 64 L 128 352 Q 128 366 137 375 Q 146 384 160 384 L 480 384 Q 494 384 503 375 Q 512 366 512 352 L 512 96 Q 512 82 503 73 Q 494 64 480 64 L 480 64 Z M 256 128 Q 270 128 279 137 L 279 137 Q 288 146 288 160 Q 288 174 279 183 Q 270 192 256 192 Q 242 192 233 183 Q 224 174 224 160 Q 224 146 233 137 Q 242 128 256 128 L 256 128 Z M 352 160 Q 352 146 361 137 L 361 137 Q 370 128 384 128 Q 398 128 407 137 Q 416 146 416 160 Q 416 174 407 183 Q 398 192 384 192 Q 370 192 361 183 Q 352 174 352 160 L 352 160 Z M 384 256 Q 398 256 407 265 L 407 265 Q 416 274 416 288 Q 416 302 407 311 Q 398 320 384 320 Q 370 320 361 311 Q 352 302 352 288 Q 352 274 361 265 Q 370 256 384 256 L 384 256 Z M 224 288 Q 224 274 233 265 L 233 265 Q 242 256 256 256 Q 270 256 279 265 Q 288 274 288 288 Q 288 302 279 311 Q 270 320 256 320 Q 242 320 233 311 Q 224 302 224 288 L 224 288 Z"/>
</svg>
