<svg xmlns="http://www.w3.org/2000/svg" viewBox="0 0 498 448">
    <path d="M 256 0 L 181 0 Q 160 0 144 12 Q 128 23 121 43 L 3 375 Q 0 384 0 393 Q 1 417 16 432 Q 31 447 55 448 L 256 448 L 256 384 Q 256 370 265 361 Q 274 352 288 352 L 289 352 Q 288 344 288 336 Q 288 311 295 287 Q 291 288 288 288 Q 274 288 265 279 Q 256 270 256 256 L 256 192 Q 256 178 265 169 Q 274 160 288 160 Q 302 160 311 169 Q 320 178 320 192 L 320 235 Q 344 200 382 180 Q 419 160 464 160 Q 481 160 498 163 L 455 43 Q 448 23 432 12 Q 416 0 395 0 L 320 0 L 320 64 Q 320 78 311 87 Q 302 96 288 96 Q 274 96 265 87 Q 256 78 256 64 L 256 0 L 256 0 Z"/>
</svg>
