<svg xmlns="http://www.w3.org/2000/svg" viewBox="0 0 576 521">
    <path d="M 291 53 Q 288 52 285 53 L 207 82 L 288 114 L 369 82 L 291 53 L 291 53 Z M 184 215 L 264 245 L 264 156 L 184 125 L 184 215 L 184 215 Z M 312 245 L 392 215 L 392 125 L 312 156 L 312 245 L 312 245 Z M 288 462 L 175 511 Q 152 521 129 511 L 33 469 Q 1 453 0 418 L 0 299 Q 2 261 36 246 L 132 210 Q 134 209 136 209 Q 136 209 136 209 L 136 97 Q 138 59 172 44 L 268 8 Q 288 0 308 8 L 404 44 Q 438 59 440 97 L 440 209 Q 442 209 444 210 L 540 246 Q 574 261 576 299 L 576 418 Q 575 453 543 469 L 447 511 Q 424 521 401 511 L 288 462 L 288 462 Z M 149 255 L 71 285 L 152 316 L 233 285 L 155 255 Q 152 254 149 255 L 149 255 Z M 176 358 L 176 458 L 256 423 L 256 327 L 176 358 L 176 358 Z M 128 358 L 48 327 L 48 418 Q 48 423 53 425 L 128 458 L 128 358 L 128 358 Z M 421 255 L 343 285 L 424 316 L 505 285 L 427 255 Q 424 254 421 255 L 421 255 Z M 448 458 L 523 425 Q 528 423 528 418 L 528 327 L 448 358 L 448 458 L 448 458 Z M 400 358 L 320 327 L 320 423 L 400 458 L 400 358 L 400 358 Z"/>
</svg>
