<svg xmlns="http://www.w3.org/2000/svg" viewBox="0 0 512 512">
    <path d="M 305 507 Q 286 511 267 512 Q 261 496 259 479 Q 252 437 263 397 Q 274 357 301 325 Q 328 293 365 275 Q 403 257 445 256 Q 479 255 512 267 Q 511 286 507 305 Q 478 293 445 293 Q 412 294 381 308 Q 351 323 329 349 Q 308 375 299 407 Q 290 439 295 473 Q 298 491 305 507 L 305 507 Z M 245 0 Q 261 47 253 96 Q 242 161 193 206 Q 144 250 78 256 Q 38 258 0 245 Q 1 226 5 207 Q 38 221 75 218 Q 128 214 168 178 Q 207 142 217 90 Q 224 46 207 5 Q 226 1 245 0 L 245 0 Z"/>
</svg>
