<svg xmlns="http://www.w3.org/2000/svg" viewBox="0 0 448 512">
    <path d="M 176 112 L 128 112 L 128 112 L 128 160 Q 129 201 156 228 Q 183 255 224 256 Q 265 255 292 228 Q 319 201 320 160 L 320 128 L 320 128 L 320 96 L 312 96 Q 276 95 258 66 Q 245 87 224 99 Q 202 112 176 112 L 176 112 Z M 224 272 L 71 272 Q 50 270 48 249 Q 48 240 55 233 L 59 230 Q 95 192 96 139 L 96 128 L 96 128 Q 97 74 133 37 Q 170 1 224 0 Q 278 1 314 37 Q 350 73 352 128 L 352 128 L 352 129 L 352 139 Q 353 192 390 230 L 393 233 Q 400 240 400 249 Q 398 270 377 272 L 224 272 L 224 272 Z M 209 359 L 191 328 Q 186 320 190 312 Q 195 305 204 304 L 224 304 L 244 304 Q 253 305 258 312 Q 262 320 257 328 L 239 359 L 272 483 L 312 322 Q 371 332 409 376 Q 447 420 448 481 Q 448 494 439 503 Q 430 512 417 512 L 265 512 L 183 512 L 31 512 Q 18 512 9 503 Q 0 494 0 481 Q 1 420 39 376 Q 77 332 136 322 L 176 483 L 209 359 L 209 359 Z"/>
</svg>
