<svg xmlns="http://www.w3.org/2000/svg" viewBox="0 0 448 448">
    <path d="M 310 384 L 112 384 Q 92 383 78 370 Q 65 356 64 336 L 64 190 L 0 140 L 0 384 Q 1 411 19 429 Q 37 447 64 448 L 384 448 Q 387 448 391 448 L 310 384 L 310 384 Z M 96 215 L 96 336 Q 97 351 112 352 L 270 352 L 96 215 L 96 215 Z M 112 96 Q 107 96 103 99 L 206 179 Q 207 179 208 179 Q 208 179 208 179 L 208 112 Q 209 92 222 78 Q 236 65 256 64 L 336 64 Q 356 65 370 78 Q 383 92 384 112 L 384 319 L 448 369 L 448 64 Q 447 37 429 19 Q 411 1 384 0 L 64 0 Q 30 1 12 27 L 78 79 Q 91 65 112 64 L 144 64 Q 159 65 160 80 Q 159 95 144 96 L 112 96 L 112 96 Z M 352 294 L 352 112 Q 351 97 336 96 L 256 96 Q 241 97 240 112 L 240 179 Q 270 191 272 224 Q 272 227 272 231 L 352 294 L 352 294 Z"/>
</svg>
