<svg xmlns="http://www.w3.org/2000/svg" viewBox="0 0 448 448">
    <path d="M 32 0 Q 18 0 9 9 L 9 9 Q 0 18 0 32 Q 0 46 9 55 Q 18 64 32 64 L 416 64 Q 430 64 439 55 Q 448 46 448 32 Q 448 18 439 9 Q 430 0 416 0 L 32 0 L 32 0 Z M 224 128 Q 210 128 201 137 L 201 137 Q 192 146 192 160 Q 192 174 201 183 Q 210 192 224 192 L 416 192 Q 430 192 439 183 Q 448 174 448 160 Q 448 146 439 137 Q 430 128 416 128 L 224 128 L 224 128 Z M 192 288 Q 192 302 201 311 L 201 311 Q 210 320 224 320 L 416 320 Q 430 320 439 311 Q 448 302 448 288 Q 448 274 439 265 Q 430 256 416 256 L 224 256 Q 210 256 201 265 Q 192 274 192 288 L 192 288 Z M 32 384 Q 18 384 9 393 L 9 393 Q 0 402 0 416 Q 0 430 9 439 Q 18 448 32 448 L 416 448 Q 430 448 439 439 Q 448 430 448 416 Q 448 402 439 393 Q 430 384 416 384 L 32 384 L 32 384 Z"/>
</svg>
