<svg xmlns="http://www.w3.org/2000/svg" viewBox="0 0 512 512">
    <path d="M 512 256 Q 511 186 478 128 L 478 128 Q 444 70 384 34 Q 323 0 256 0 Q 189 0 128 34 Q 68 70 34 128 Q 1 186 0 256 Q 1 326 34 384 Q 68 442 128 478 Q 189 512 256 512 Q 323 512 384 478 Q 444 442 478 384 Q 511 326 512 256 L 512 256 Z M 224 352 Q 224 338 233 329 L 233 329 Q 242 320 256 320 Q 270 320 279 329 Q 288 338 288 352 Q 288 366 279 375 Q 270 384 256 384 Q 242 384 233 375 Q 224 366 224 352 L 224 352 Z M 256 288 Q 242 288 233 279 L 233 279 Q 224 270 224 256 Q 224 242 233 233 Q 242 224 256 224 Q 270 224 279 233 Q 288 242 288 256 Q 288 270 279 279 Q 270 288 256 288 L 256 288 Z M 224 160 Q 224 146 233 137 L 233 137 Q 242 128 256 128 Q 270 128 279 137 Q 288 146 288 160 Q 288 174 279 183 Q 270 192 256 192 Q 242 192 233 183 Q 224 174 224 160 L 224 160 Z"/>
</svg>
