<svg xmlns="http://www.w3.org/2000/svg" viewBox="0 0 448 512">
    <path d="M 176 112 L 128 112 L 128 112 L 128 144 Q 129 185 156 212 Q 183 239 224 240 Q 265 239 292 212 Q 319 185 320 144 L 320 128 L 320 128 L 320 96 L 312 96 Q 276 95 258 66 Q 245 87 224 99 Q 202 112 176 112 L 176 112 Z M 224 272 L 71 272 Q 50 270 48 249 Q 48 240 55 233 L 59 230 Q 95 192 96 139 L 96 128 L 96 128 Q 97 74 133 37 Q 170 1 224 0 Q 278 1 314 37 Q 350 73 352 128 L 352 128 L 352 129 L 352 139 Q 353 192 390 230 L 393 233 Q 400 240 400 249 Q 398 270 377 272 L 224 272 L 224 272 Z M 146 315 L 211 412 Q 216 419 224 419 Q 232 419 237 412 L 302 315 Q 308 307 318 308 Q 375 322 411 367 Q 447 411 448 472 L 448 480 Q 448 494 439 503 Q 430 512 416 512 L 32 512 Q 18 512 9 503 Q 0 494 0 480 L 0 472 Q 1 411 37 367 Q 73 322 130 308 Q 140 307 146 315 L 146 315 Z"/>
</svg>
