<svg xmlns="http://www.w3.org/2000/svg" viewBox="0 0 192 384">
    <path d="M 96 0 L 160 0 Q 174 0 183 9 Q 192 18 192 32 Q 192 46 183 55 Q 174 64 160 64 L 96 64 Q 82 64 73 55 Q 64 46 64 32 Q 64 18 73 9 Q 82 0 96 0 L 96 0 Z M 0 192 Q 0 178 9 169 L 9 169 Q 18 160 32 160 L 160 160 Q 174 160 183 169 Q 192 178 192 192 Q 192 206 183 215 Q 174 224 160 224 L 32 224 Q 18 224 9 215 Q 0 206 0 192 L 0 192 Z M 0 352 Q 0 338 9 329 L 9 329 Q 18 320 32 320 L 160 320 Q 174 320 183 329 Q 192 338 192 352 Q 192 366 183 375 Q 174 384 160 384 L 32 384 Q 18 384 9 375 Q 0 366 0 352 L 0 352 Z"/>
</svg>
