<svg xmlns="http://www.w3.org/2000/svg" viewBox="0 0 577 418">
    <path d="M 576 257 Q 575 270 566 279 L 566 279 Q 557 288 544 289 L 512 289 L 512 394 Q 477 375 443 397 Q 414 417 384 418 Q 354 417 325 397 Q 308 386 288 386 Q 268 386 251 397 Q 225 416 192 418 Q 162 417 133 397 Q 99 376 64 394 L 64 289 L 32 289 Q 18 288 9 279 Q 0 270 0 257 Q 0 243 10 233 L 266 9 Q 277 0 288 1 Q 300 1 309 8 L 565 233 Q 577 243 576 257 L 576 257 Z M 248 193 Q 226 195 224 217 L 224 297 Q 226 319 248 321 L 328 321 Q 350 319 352 297 L 352 217 Q 350 195 328 193 L 248 193 L 248 193 Z"/>
</svg>
