<svg xmlns="http://www.w3.org/2000/svg" viewBox="0 0 640 290">
    <path d="M 0 113 Q 2 184 39 223 L 39 223 Q 76 261 121 275 L 121 275 Q 166 290 192 289 Q 218 290 263 279 Q 308 268 345 230 Q 382 192 384 113 Q 382 58 359 34 Q 336 10 313 5 Q 290 0 288 1 Q 245 3 219 17 Q 193 31 192 33 Q 191 31 165 17 Q 139 3 96 1 Q 94 0 71 5 Q 48 10 25 34 Q 2 58 0 113 L 0 113 Z M 448 289 Q 474 290 519 279 L 519 279 Q 564 268 601 230 L 601 230 Q 638 192 640 113 Q 638 58 615 34 Q 592 10 569 5 Q 546 0 544 1 Q 501 3 475 17 Q 449 31 448 33 Q 448 32 427 20 Q 407 8 373 3 Q 392 19 404 46 Q 416 73 416 113 Q 415 167 398 204 Q 381 242 354 266 Q 382 279 407 284 Q 432 289 448 289 L 448 289 Z"/>
</svg>
