<svg xmlns="http://www.w3.org/2000/svg" viewBox="0 0 544 352">
    <path d="M 64 0 Q 37 1 19 19 L 19 19 Q 1 37 0 64 L 0 288 Q 1 315 19 333 Q 37 351 64 352 L 480 352 Q 507 351 525 333 Q 543 315 544 288 L 544 240 Q 542 226 528 221 Q 498 210 496 176 Q 498 142 528 131 Q 542 126 544 112 L 544 64 Q 543 37 525 19 Q 507 1 480 0 L 64 0 L 64 0 Z M 432 64 Q 447 65 448 80 Q 447 95 432 96 Q 417 95 416 80 Q 417 65 432 64 L 432 64 Z M 432 128 Q 447 129 448 144 Q 447 159 432 160 Q 417 159 416 144 Q 417 129 432 128 L 432 128 Z M 416 208 Q 417 193 432 192 Q 447 193 448 208 Q 447 223 432 224 Q 417 223 416 208 L 416 208 Z M 432 256 Q 447 257 448 272 Q 447 287 432 288 Q 417 287 416 272 Q 417 257 432 256 L 432 256 Z M 192 144 L 169 75 Q 168 65 177 64 L 208 64 Q 221 64 229 76 L 268 144 L 309 144 Q 334 144 351 162 Q 363 176 351 190 Q 334 208 309 208 L 268 208 L 229 276 Q 222 287 208 288 L 177 288 Q 168 287 169 277 L 192 208 L 150 208 L 131 234 Q 126 240 118 240 L 104 240 Q 95 239 96 230 L 109 180 Q 110 176 109 172 L 96 122 Q 95 113 104 112 L 118 112 Q 126 112 131 118 L 150 144 L 193 144 L 192 144 Z"/>
</svg>
