<svg xmlns="http://www.w3.org/2000/svg" viewBox="0 0 176 448">
    <path d="M 46 316 L 25 284 Q 22 278 26 274 Q 30 270 36 273 L 65 292 Q 69 294 70 290 L 80 8 Q 81 1 88 0 Q 95 1 96 8 L 106 290 Q 107 294 111 293 L 140 273 Q 146 270 150 274 Q 154 278 151 284 L 130 316 Q 128 319 132 321 L 170 328 Q 176 330 176 336 Q 176 342 170 344 L 132 351 Q 128 353 130 356 L 151 388 Q 154 394 150 398 Q 146 402 140 399 L 114 382 Q 110 380 109 384 L 111 446 Q 100 448 88 448 Q 76 448 65 446 L 67 384 Q 66 380 62 382 L 36 399 Q 30 402 26 398 Q 22 394 25 388 L 46 356 Q 48 353 44 351 L 6 344 Q 0 342 0 336 Q 0 330 6 328 L 44 321 Q 48 319 46 316 L 46 316 Z"/>
</svg>
