<svg xmlns="http://www.w3.org/2000/svg" viewBox="0 0 512 512">
    <path d="M 256 512 Q 326 511 384 478 L 384 478 Q 442 444 478 384 Q 512 323 512 256 Q 512 189 478 128 Q 442 68 384 34 Q 326 1 256 0 Q 186 1 128 34 Q 70 68 34 128 Q 0 189 0 256 Q 0 323 34 384 Q 70 444 128 478 Q 186 511 256 512 L 256 512 Z M 376 339 L 376 340 Q 371 366 351 383 Q 332 399 305 400 L 192 400 Q 177 399 176 384 Q 177 369 192 368 L 305 368 Q 320 368 330 359 Q 341 349 344 335 L 344 333 Q 348 319 363 320 Q 377 324 376 339 L 376 339 Z M 112 192 L 176 192 Q 190 192 199 201 Q 208 210 208 224 Q 208 238 199 247 Q 190 256 176 256 Q 162 256 153 247 Q 144 238 144 224 L 112 224 Q 97 223 96 208 Q 97 193 112 192 L 112 192 Z M 288 208 Q 289 193 304 192 L 368 192 Q 382 192 391 201 Q 400 210 400 224 Q 400 238 391 247 Q 382 256 368 256 Q 354 256 345 247 Q 336 238 336 224 L 304 224 Q 289 223 288 208 L 288 208 Z"/>
</svg>
