<svg xmlns="http://www.w3.org/2000/svg" viewBox="0 0 440 384">
    <path d="M 97 34 L 110 0 L 146 7 L 167 43 L 168 43 Q 220 52 272 43 L 273 43 L 294 7 L 330 0 L 343 34 L 321 73 L 321 75 Q 339 124 372 164 L 416 164 L 440 192 L 416 220 L 372 220 Q 339 260 321 309 L 321 311 L 343 350 L 330 384 L 294 377 L 273 341 L 272 341 Q 220 332 168 341 L 167 341 L 146 377 L 110 384 L 97 350 L 120 311 L 119 309 Q 101 260 68 220 L 24 220 L 0 192 L 24 164 L 68 164 Q 101 124 119 75 L 119 73 L 97 34 L 97 34 Z M 172 164 L 150 125 Q 140 145 128 164 L 172 164 L 172 164 Z M 220 136 L 243 95 Q 220 97 197 95 L 220 136 L 220 136 Z M 268 164 L 312 164 Q 300 145 290 125 L 268 164 L 268 164 Z M 268 220 L 290 259 Q 300 239 312 220 L 268 220 L 268 220 Z M 220 248 L 197 289 Q 220 288 243 289 L 220 248 L 220 248 Z M 172 220 L 128 220 Q 140 239 150 259 L 172 220 L 172 220 Z"/>
</svg>
