<svg xmlns="http://www.w3.org/2000/svg" viewBox="0 0 517 416">
    <path d="M 325 0 Q 248 0 189 56 Q 156 84 136 113 Q 116 142 101 169 Q 101 169 101 170 Q 101 170 101 170 Q 87 196 71 219 Q 55 242 30 262 Q 15 273 8 292 Q 0 318 12 341 Q 23 364 49 373 Q 51 376 117 394 Q 183 413 293 416 Q 376 414 425 375 Q 474 336 496 284 Q 517 232 517 192 Q 517 115 461 56 Q 422 19 373 6 L 373 32 Q 371 54 349 56 Q 327 54 325 32 L 325 0 L 325 0 Z M 421 192 Q 436 193 437 208 Q 436 262 400 299 Q 363 335 309 336 Q 294 335 293 320 Q 294 305 309 304 Q 350 303 377 276 Q 404 249 405 208 Q 406 193 421 192 L 421 192 Z"/>
</svg>
