<svg xmlns="http://www.w3.org/2000/svg" viewBox="0 0 384 512">
    <path d="M 0 64 Q 1 37 19 19 L 19 19 Q 37 1 64 0 L 224 0 L 224 128 Q 224 142 233 151 Q 242 160 256 160 L 384 160 L 384 448 Q 383 475 365 493 Q 347 511 320 512 L 64 512 Q 37 511 19 493 Q 1 475 0 448 L 0 64 L 0 64 Z M 111 239 Q 97 256 111 273 L 158 320 L 111 367 Q 97 384 111 401 Q 128 415 145 401 L 192 354 L 239 401 Q 256 415 273 401 Q 287 384 273 367 L 226 320 L 273 273 Q 287 256 273 239 Q 256 225 239 239 L 192 286 L 145 239 Q 128 225 111 239 L 111 239 Z"/>
</svg>
