<svg xmlns="http://www.w3.org/2000/svg" viewBox="0 0 480 384">
    <path d="M 309 78 Q 322 107 352 112 L 352 144 Q 353 192 385 223 Q 416 255 464 256 L 480 256 Q 480 260 480 264 Q 479 291 461 309 Q 443 327 416 328 Q 411 328 406 327 Q 401 349 384 362 Q 367 376 344 376 Q 321 376 304 362 Q 286 383 256 384 Q 226 383 208 362 Q 191 376 168 376 Q 145 376 128 362 Q 111 349 106 327 Q 101 328 96 328 Q 69 327 51 309 Q 33 291 32 264 Q 32 256 34 249 Q 2 231 0 192 Q 2 153 34 136 Q 32 128 32 120 Q 33 93 51 75 Q 69 57 96 56 Q 101 56 106 57 Q 111 35 128 22 Q 145 8 168 8 Q 191 8 208 22 Q 226 1 256 0 Q 292 1 310 30 Q 299 53 309 78 L 309 78 Z"/>
</svg>
