<svg xmlns="http://www.w3.org/2000/svg" viewBox="0 0 512 384">
    <path d="M 416 128 Q 402 128 393 119 L 393 119 Q 384 110 384 96 Q 384 82 393 73 Q 402 64 416 64 Q 430 64 439 73 Q 448 82 448 96 Q 448 110 439 119 Q 430 128 416 128 L 416 128 Z M 416 0 Q 390 0 368 13 L 368 13 Q 346 26 333 48 Q 320 71 320 96 Q 320 121 333 144 Q 346 166 368 179 Q 390 192 416 192 Q 442 192 464 179 Q 486 166 499 144 Q 512 121 512 96 Q 512 71 499 48 Q 486 26 464 13 Q 442 0 416 0 L 416 0 Z M 96 320 Q 82 320 73 311 L 73 311 Q 64 302 64 288 Q 64 274 73 265 Q 82 256 96 256 Q 110 256 119 265 Q 128 274 128 288 Q 128 302 119 311 Q 110 320 96 320 L 96 320 Z M 96 192 Q 70 192 48 205 L 48 205 Q 26 218 13 240 Q 0 263 0 288 Q 0 313 13 336 Q 26 358 48 371 Q 70 384 96 384 Q 122 384 144 371 Q 166 358 179 336 Q 192 313 192 288 Q 192 263 179 240 Q 166 218 144 205 Q 122 192 96 192 L 96 192 Z"/>
</svg>
