<svg xmlns="http://www.w3.org/2000/svg" viewBox="0 0 192 448">
    <path d="M 73 9 Q 83 0 96 0 L 96 0 Q 109 0 119 9 L 183 73 Q 192 83 192 96 Q 192 109 183 119 Q 173 128 160 128 Q 147 128 137 119 L 128 109 L 128 339 L 137 329 Q 147 320 160 320 Q 173 320 183 329 Q 192 339 192 352 Q 192 365 183 375 L 119 439 Q 109 448 96 448 Q 83 448 73 439 L 9 375 Q 0 365 0 352 Q 0 339 9 329 Q 19 320 32 320 Q 45 320 55 329 L 64 339 L 64 109 L 55 119 Q 45 128 32 128 Q 19 128 9 119 Q 0 109 0 96 Q 0 83 9 73 L 73 9 L 73 9 Z"/>
</svg>
