<svg xmlns="http://www.w3.org/2000/svg" viewBox="0 0 448 457">
    <path d="M 40 0 Q 23 0 12 12 L 12 12 Q 0 23 0 40 L 0 64 Q 1 127 31 177 Q 60 228 111 257 Q 161 287 224 288 Q 287 287 337 257 Q 388 228 417 177 Q 447 127 448 64 L 448 40 Q 448 23 436 12 Q 425 0 408 0 L 40 0 L 40 0 Z M 72 384 Q 74 362 96 360 Q 118 362 120 384 Q 118 406 96 408 Q 74 406 72 384 L 72 384 Z M 160 384 Q 159 348 128 329 Q 96 311 64 329 Q 33 348 32 384 Q 33 420 64 439 Q 96 457 128 439 Q 159 420 160 384 L 160 384 Z"/>
</svg>
