<svg xmlns="http://www.w3.org/2000/svg" viewBox="0 0 256 288">
    <path d="M 64 32 Q 64 18 55 9 L 55 9 Q 46 0 32 0 Q 18 0 9 9 Q 0 18 0 32 L 0 43 Q 1 129 61 190 L 82 211 Q 96 225 96 245 L 96 256 Q 96 270 105 279 Q 114 288 128 288 Q 142 288 151 279 Q 160 270 160 256 L 160 245 Q 159 199 127 166 L 106 145 Q 65 102 64 43 L 64 32 L 64 32 Z M 192 256 Q 192 270 201 279 L 201 279 Q 210 288 224 288 Q 238 288 247 279 Q 256 270 256 256 L 256 245 Q 255 159 195 98 L 174 77 Q 160 63 160 43 L 160 32 Q 160 18 151 9 Q 142 0 128 0 Q 114 0 105 9 Q 96 18 96 32 L 96 43 Q 97 89 129 122 L 150 143 Q 191 186 192 245 L 192 256 L 192 256 Z"/>
</svg>
