<svg xmlns="http://www.w3.org/2000/svg" viewBox="0 0 384 416">
    <path d="M 48 24 Q 46 2 24 0 Q 2 2 0 24 L 0 280 Q 1 338 40 376 Q 78 415 136 416 L 360 416 Q 382 414 384 392 Q 382 370 360 368 L 136 368 Q 99 367 74 342 Q 49 317 48 280 L 48 24 L 48 24 Z M 192 48 Q 178 48 169 57 L 169 57 Q 160 66 160 80 L 160 96 L 208 96 L 208 48 L 192 48 L 192 48 Z M 160 176 L 224 176 L 320 176 L 384 176 L 384 128 L 320 128 L 224 128 L 160 128 L 160 176 L 160 176 Z M 384 80 Q 384 66 375 57 L 375 57 Q 366 48 352 48 L 336 48 L 336 96 L 384 96 L 384 80 L 384 80 Z M 240 48 L 240 96 L 304 96 L 304 48 L 240 48 L 240 48 Z M 336 208 L 336 256 L 352 256 Q 366 256 375 247 Q 384 238 384 224 L 384 208 L 336 208 L 336 208 Z M 304 208 L 240 208 L 240 256 L 304 256 L 304 208 L 304 208 Z M 208 208 L 160 208 L 160 224 Q 160 238 169 247 Q 178 256 192 256 L 208 256 L 208 208 L 208 208 Z"/>
</svg>
