<svg xmlns="http://www.w3.org/2000/svg" viewBox="0 0 576 256">
    <path d="M 64 0 Q 37 1 19 19 L 19 19 Q 1 37 0 64 L 0 160 L 128 160 L 128 224 Q 128 238 137 247 Q 146 256 160 256 Q 174 256 183 247 Q 192 238 192 224 L 192 160 L 256 160 L 256 224 Q 256 238 265 247 Q 274 256 288 256 Q 302 256 311 247 Q 320 238 320 224 L 320 160 L 384 160 L 384 224 Q 384 238 393 247 Q 402 256 416 256 Q 430 256 439 247 Q 448 238 448 224 L 448 160 L 576 160 L 576 64 Q 575 37 557 19 Q 539 1 512 0 L 64 0 L 64 0 Z"/>
</svg>
