<svg xmlns="http://www.w3.org/2000/svg" viewBox="0 0 384 512">
    <path d="M 64 0 Q 37 1 19 19 L 19 19 Q 1 37 0 64 L 0 169 Q 2 169 3 168 L 19 162 Q 35 156 47 169 L 57 183 Q 59 185 63 186 L 80 188 Q 97 191 100 208 L 102 225 Q 103 228 105 230 L 119 241 Q 132 252 126 269 L 120 285 Q 119 288 120 291 L 127 307 Q 132 323 119 335 L 106 346 Q 103 348 103 351 L 100 368 Q 97 385 80 388 L 64 390 L 64 496 Q 64 505 56 510 Q 54 511 53 511 Q 53 511 53 511 Q 58 512 64 512 L 320 512 Q 347 511 365 493 Q 383 475 384 448 L 384 160 L 256 160 Q 242 160 233 151 Q 224 142 224 128 L 224 0 L 64 0 L 64 0 Z"/>
</svg>
