<svg xmlns="http://www.w3.org/2000/svg" viewBox="0 0 640 256">
    <path d="M 200 128 Q 199 87 164 66 Q 128 46 92 66 Q 57 87 56 128 Q 57 169 92 190 Q 128 210 164 190 Q 199 169 200 128 L 200 128 Z M 0 128 Q 0 93 17 64 L 17 64 Q 34 35 64 17 Q 94 0 128 0 Q 162 0 192 17 Q 222 35 239 64 Q 256 93 256 128 Q 256 163 239 192 Q 222 221 192 239 Q 162 256 128 256 Q 94 256 64 239 Q 34 221 17 192 Q 0 163 0 128 L 0 128 Z M 584 128 Q 583 87 548 66 Q 512 46 476 66 Q 441 87 440 128 Q 441 169 476 190 Q 512 210 548 190 Q 583 169 584 128 L 584 128 Z M 384 128 Q 384 93 401 64 L 401 64 Q 418 35 448 17 Q 478 0 512 0 Q 546 0 576 17 Q 606 35 623 64 Q 640 93 640 128 Q 640 163 623 192 Q 606 221 576 239 Q 546 256 512 256 Q 478 256 448 239 Q 418 221 401 192 Q 384 163 384 128 L 384 128 Z"/>
</svg>
