<svg xmlns="http://www.w3.org/2000/svg" viewBox="0 0 264 512">
    <path d="M 28 28 Q 34 2 60 0 L 204 0 Q 230 2 236 28 L 259 208 Q 264 258 237 297 Q 210 335 164 348 L 164 448 L 212 448 Q 226 448 235 457 Q 244 466 244 480 Q 244 494 235 503 Q 226 512 212 512 L 132 512 L 52 512 Q 38 512 29 503 Q 20 494 20 480 Q 20 466 29 457 Q 38 448 52 448 L 100 448 L 100 348 Q 53 335 27 297 Q 0 258 5 208 L 28 28 L 28 28 Z M 88 64 L 69 216 Q 66 246 84 266 Q 102 287 132 288 Q 162 287 180 266 Q 198 246 195 216 L 176 64 L 88 64 L 88 64 Z"/>
</svg>
