<svg xmlns="http://www.w3.org/2000/svg" viewBox="0 0 394 394">
    <path d="M 216 10 Q 197 0 178 10 L 160 21 Q 151 27 141 26 L 120 26 Q 98 26 87 45 L 77 63 Q 72 72 63 77 L 45 87 Q 26 98 26 120 L 27 141 Q 27 151 21 160 L 10 178 Q 0 197 10 216 L 21 234 Q 27 243 26 253 L 26 274 Q 26 296 45 307 L 63 317 Q 72 322 77 331 L 87 349 Q 98 368 120 368 L 141 368 Q 151 367 160 373 L 178 384 Q 197 394 216 384 L 234 373 Q 243 367 253 368 L 274 368 Q 296 368 307 349 L 317 331 Q 322 322 331 317 L 349 307 Q 368 296 368 274 L 368 253 Q 367 243 373 234 L 384 216 Q 394 197 384 178 L 373 160 Q 367 151 368 141 L 368 120 Q 368 98 349 87 L 331 77 Q 322 72 317 63 L 307 45 Q 296 26 274 26 L 253 27 Q 243 27 234 21 L 216 10 L 216 10 Z M 197 117 Q 242 118 266 157 Q 288 197 266 237 Q 242 276 197 277 Q 152 276 128 237 Q 106 197 128 157 Q 152 118 197 117 L 197 117 Z"/>
</svg>
