<svg xmlns="http://www.w3.org/2000/svg" viewBox="0 0 320 320">
    <path d="M 256 128 Q 283 127 301 109 L 301 109 Q 319 91 320 64 Q 319 37 301 19 Q 283 1 256 0 Q 229 1 211 19 Q 193 37 192 64 Q 192 68 192 71 L 111 116 Q 92 97 64 96 Q 37 97 19 115 Q 1 133 0 160 Q 1 187 19 205 Q 37 223 64 224 Q 92 223 111 204 L 192 249 Q 192 252 192 256 Q 193 283 211 301 Q 229 319 256 320 Q 283 319 301 301 Q 319 283 320 256 Q 319 229 301 211 Q 283 193 256 192 Q 232 192 215 207 L 130 160 L 215 114 Q 232 128 256 128 L 256 128 Z"/>
</svg>
