<svg xmlns="http://www.w3.org/2000/svg" viewBox="0 0 512 256">
    <path d="M 0 256 L 512 256 Q 511 184 477 127 Q 443 69 385 35 Q 328 1 256 0 Q 184 1 127 35 Q 69 69 35 127 Q 1 184 0 256 L 0 256 Z M 208 192 Q 208 206 199 215 L 199 215 Q 190 224 176 224 Q 163 224 154 215 Q 145 206 144 192 Q 145 178 154 169 L 123 159 Q 110 153 113 139 Q 119 126 133 129 L 229 161 Q 243 167 239 181 Q 233 194 219 191 L 208 188 Q 208 190 208 192 L 208 192 Z M 336 224 Q 323 224 314 215 L 314 215 Q 305 206 304 192 Q 304 190 305 187 L 293 191 Q 279 195 273 181 Q 269 167 283 161 L 379 129 Q 393 126 399 139 Q 402 153 389 159 L 359 169 Q 368 178 368 192 Q 368 206 359 215 Q 350 224 336 224 L 336 224 Z"/>
</svg>
