<svg xmlns="http://www.w3.org/2000/svg" viewBox="0 0 448 448">
    <path d="M 448 0 L 0 0 L 0 448 L 448 448 L 448 0 L 448 0 Z M 100 282 Q 100 277 103 273 L 131 224 L 102 176 Q 100 171 100 166 Q 101 150 118 148 L 175 148 L 206 94 Q 212 84 224 84 Q 236 84 242 94 L 273 148 L 330 148 Q 346 150 348 166 Q 348 171 346 176 L 317 224 L 346 273 Q 348 277 348 282 Q 347 298 330 300 L 273 300 L 242 354 Q 236 364 224 364 Q 212 364 206 354 L 175 300 L 118 300 Q 102 298 100 282 L 100 282 Z M 224 336 L 245 300 L 203 300 L 224 336 L 224 336 Z M 159 224 L 189 276 L 259 276 L 289 224 L 259 172 L 189 172 L 158 224 L 159 224 Z M 303 248 L 287 276 L 320 276 L 303 248 L 303 248 Z M 320 172 L 287 172 L 303 200 L 320 172 L 320 172 Z M 224 112 L 203 148 L 245 148 L 224 112 L 224 112 Z M 128 172 L 145 200 L 161 172 L 128 172 L 128 172 Z M 161 276 L 145 248 L 128 276 L 161 276 L 161 276 Z"/>
</svg>
