<svg xmlns="http://www.w3.org/2000/svg" viewBox="0 0 336 319">
    <path d="M 234 314 Q 219 319 209 308 L 189 285 Q 179 287 168 287 Q 157 287 147 285 L 127 308 Q 117 319 102 314 Q 94 310 87 306 L 81 303 Q 74 298 67 293 Q 55 283 60 269 L 69 240 Q 56 224 48 204 L 19 198 Q 4 194 1 180 Q 0 169 0 159 Q 0 149 1 139 Q 4 124 19 120 L 48 114 Q 56 94 69 78 L 60 50 Q 55 35 67 25 Q 74 20 82 15 L 87 12 Q 94 8 102 5 Q 117 0 127 11 L 147 33 Q 157 31 168 31 Q 179 31 189 33 L 209 11 Q 219 0 234 5 Q 242 8 249 12 L 255 15 Q 262 20 269 25 Q 281 35 276 50 L 267 78 Q 280 94 288 114 L 317 120 Q 332 124 335 139 Q 336 149 336 159 Q 336 169 335 180 Q 332 194 317 198 L 288 204 Q 280 224 267 240 L 276 268 Q 281 283 269 293 Q 262 298 255 303 L 249 306 Q 242 310 234 314 L 234 314 Z M 120 159 Q 121 186 144 201 Q 168 213 192 201 Q 215 186 216 159 Q 215 132 192 117 Q 168 105 144 117 Q 121 132 120 159 L 120 159 Z"/>
</svg>
