<svg xmlns="http://www.w3.org/2000/svg" viewBox="0 0 344 512">
    <path d="M 291 48 Q 258 1 216 0 L 186 0 Q 210 20 227 48 L 291 48 L 291 48 Z M 273 176 L 338 176 Q 328 121 309 80 L 244 80 Q 264 123 273 176 L 273 176 Z M 342 304 Q 344 281 344 256 Q 344 231 342 208 L 278 208 Q 280 232 280 256 Q 280 280 278 304 L 342 304 L 342 304 Z M 244 432 L 309 432 Q 328 391 338 336 L 273 336 Q 264 389 244 432 L 244 432 Z M 227 464 Q 210 492 186 512 L 216 512 Q 258 511 291 464 L 227 464 L 227 464 Z M 96 448 Q 127 446 144 425 Q 161 407 171 381 Q 192 329 192 256 Q 192 183 171 131 Q 161 105 144 87 Q 127 66 96 64 Q 65 66 48 87 Q 31 105 21 131 Q 0 183 0 256 Q 0 329 21 381 Q 31 407 48 425 Q 65 446 96 448 L 96 448 Z M 160 256 Q 159 324 141 369 L 141 369 Q 123 414 96 416 Q 69 414 51 369 Q 33 324 32 256 Q 33 188 51 143 Q 69 98 96 96 Q 123 98 141 143 Q 159 188 160 256 L 160 256 Z"/>
</svg>
