<svg xmlns="http://www.w3.org/2000/svg" viewBox="0 0 305 305">
    <path d="M 285 75 Q 304 64 305 40 Q 305 23 293 12 Q 282 0 265 0 Q 241 1 230 21 Q 219 8 201 8 Q 172 10 163 36 Q 155 32 145 32 Q 116 34 107 60 Q 99 56 89 56 Q 72 56 61 68 Q 49 79 49 96 Q 49 98 49 99 Q 42 96 33 96 Q 12 97 0 113 Q 45 187 34 271 Q 118 260 192 305 Q 208 293 209 272 Q 209 263 206 256 Q 207 256 209 256 Q 226 256 237 244 Q 249 233 249 216 Q 249 206 245 198 Q 271 189 273 160 Q 273 150 269 142 Q 295 133 297 104 Q 297 86 285 75 L 285 75 Z"/>
</svg>
