<svg xmlns="http://www.w3.org/2000/svg" viewBox="0 0 448 444">
    <path d="M 128 28 L 128 92 Q 130 144 171 172 L 105 172 Q 88 172 76 160 Q 64 148 64 131 Q 64 116 74 105 L 93 81 Q 104 68 104 51 L 104 44 Q 106 13 132 0 Q 128 13 128 28 L 128 28 Z M 320 28 Q 320 14 316 0 Q 342 13 344 44 L 344 51 Q 344 68 355 81 L 374 105 Q 384 116 384 131 Q 383 148 372 160 Q 360 171 343 172 L 277 172 Q 318 144 320 92 L 320 28 L 320 28 Z M 192 44 Q 207 45 208 60 Q 207 75 192 76 Q 177 75 176 60 Q 177 45 192 44 L 192 44 Z M 240 60 Q 241 45 256 44 Q 271 45 272 60 Q 271 75 256 76 Q 241 75 240 60 L 240 60 Z M 236 156 L 236 188 Q 235 199 224 200 Q 213 199 212 188 L 212 156 Q 213 145 224 144 Q 235 145 236 156 L 236 156 Z M 216 100 Q 224 92 233 100 Q 236 103 243 108 Q 251 112 256 112 Q 267 113 268 124 Q 267 135 256 136 Q 241 135 231 128 Q 227 126 224 124 Q 204 137 192 136 Q 181 135 180 124 Q 181 113 192 112 Q 197 114 216 100 L 216 100 Z M 96 268 L 96 305 Q 97 317 106 323 Q 116 328 126 323 Q 168 300 216 300 L 232 300 Q 280 300 322 323 Q 333 329 342 323 Q 351 317 352 305 L 352 268 Q 352 267 352 266 Q 395 285 421 324 Q 447 363 448 413 Q 448 426 439 435 Q 430 444 417 444 L 31 444 Q 18 444 9 435 Q 0 426 0 413 Q 1 363 27 324 Q 53 285 96 266 Q 96 266 96 267 Q 96 268 96 268 L 96 268 Z M 240 348 Q 239 333 224 332 Q 209 333 208 348 Q 209 363 224 364 Q 239 363 240 348 L 240 348 Z M 224 428 Q 239 427 240 412 Q 239 397 224 396 Q 209 397 208 412 Q 209 427 224 428 L 224 428 Z"/>
</svg>
