<svg xmlns="http://www.w3.org/2000/svg" viewBox="0 0 457 466">
    <path d="M 128 73 Q 127 109 96 128 Q 64 146 32 128 Q 1 109 0 73 Q 1 37 32 18 Q 64 0 96 18 Q 127 37 128 73 L 128 73 Z M 128 393 Q 127 429 96 448 Q 64 466 32 448 Q 1 429 0 393 Q 1 357 32 338 Q 64 320 96 338 Q 127 357 128 393 L 128 393 Z M 224 297 Q 188 296 169 265 Q 151 233 169 201 Q 188 170 224 169 Q 260 170 279 201 Q 297 233 279 265 Q 260 296 224 297 L 224 297 Z M 448 73 Q 447 109 416 128 Q 384 146 352 128 Q 321 109 320 73 Q 321 37 352 18 Q 384 0 416 18 Q 447 37 448 73 L 448 73 Z M 384 457 Q 348 456 329 425 Q 311 393 329 361 Q 348 330 384 329 Q 420 330 439 361 Q 457 393 439 425 Q 420 456 384 457 L 384 457 Z"/>
</svg>
