<svg xmlns="http://www.w3.org/2000/svg" viewBox="0 0 448 416">
    <path d="M 0 128 Q 1 74 37 37 L 37 37 Q 74 1 128 0 L 320 0 Q 374 1 411 37 Q 447 74 448 128 L 448 352 Q 447 379 429 397 Q 411 415 384 416 L 352 416 L 352 304 L 352 240 Q 351 220 338 206 Q 324 193 304 192 L 144 192 Q 124 193 110 206 Q 97 220 96 240 L 96 304 L 96 416 L 64 416 Q 37 415 19 397 Q 1 379 0 352 L 0 128 L 0 128 Z M 144 80 Q 129 81 128 96 Q 129 111 144 112 L 304 112 Q 319 111 320 96 Q 319 81 304 80 L 144 80 L 144 80 Z"/>
</svg>
