<svg xmlns="http://www.w3.org/2000/svg" viewBox="0 0 384 384">
    <path d="M 224 3 Q 208 0 192 0 Q 176 0 160 3 L 160 64 Q 160 78 169 87 Q 178 96 192 96 Q 206 96 215 87 Q 224 78 224 64 L 224 3 L 224 3 Z M 3 224 L 64 224 Q 78 224 87 215 Q 96 206 96 192 Q 96 178 87 169 Q 78 160 64 160 L 3 160 Q 0 176 0 192 Q 0 208 3 224 L 3 224 Z M 160 381 Q 176 384 192 384 Q 208 384 224 381 L 224 320 Q 224 306 215 297 Q 206 288 192 288 Q 178 288 169 297 Q 160 306 160 320 L 160 381 L 160 381 Z M 381 160 L 320 160 Q 306 160 297 169 Q 288 178 288 192 Q 288 206 297 215 Q 306 224 320 224 L 381 224 Q 384 208 384 192 Q 384 176 381 160 L 381 160 Z"/>
</svg>
