<svg xmlns="http://www.w3.org/2000/svg" viewBox="0 0 616 364">
    <path d="M 128 32 Q 128 18 137 9 L 137 9 Q 146 0 160 0 L 192 0 Q 206 0 215 9 Q 224 18 224 32 L 224 40 Q 231 43 238 46 L 244 40 Q 254 31 267 31 Q 279 31 289 40 L 312 63 Q 321 73 321 85 Q 321 98 312 108 L 306 114 Q 309 121 312 128 L 320 128 Q 334 128 343 137 Q 352 146 352 160 L 352 192 Q 352 206 343 215 Q 334 224 320 224 L 312 224 Q 309 231 306 238 L 312 244 Q 321 254 321 267 Q 321 279 312 289 L 289 312 Q 279 321 267 321 Q 254 321 244 312 L 238 306 Q 231 309 224 312 L 224 320 Q 224 334 215 343 Q 206 352 192 352 L 160 352 Q 146 352 137 343 Q 128 334 128 320 L 128 312 Q 121 309 114 306 L 108 312 Q 98 321 85 321 Q 73 321 63 312 L 40 289 Q 31 279 31 266 Q 31 254 40 244 L 46 238 Q 43 231 40 224 L 32 224 Q 18 224 9 215 Q 0 206 0 192 L 0 160 Q 0 146 9 137 Q 18 128 32 128 L 40 128 Q 43 121 46 114 L 40 108 Q 31 98 31 85 Q 31 73 40 63 L 63 40 Q 73 31 85 31 Q 98 31 108 40 L 114 46 Q 121 43 128 40 L 128 32 L 128 32 Z M 256 176 Q 255 131 216 107 Q 176 85 136 107 Q 97 131 96 176 Q 97 221 136 245 Q 176 267 216 245 Q 255 221 256 176 L 256 176 Z M 552 264 Q 550 242 528 240 Q 506 242 504 264 Q 506 286 528 288 Q 550 286 552 264 L 552 264 Z M 440 264 Q 442 214 484 188 Q 528 164 572 188 Q 614 214 616 264 Q 614 314 572 340 Q 528 364 484 340 Q 442 314 440 264 L 440 264 Z"/>
</svg>
