<svg xmlns="http://www.w3.org/2000/svg" viewBox="0 0 640 416">
    <path d="M 256 115 L 256 69 Q 255 40 236 20 Q 216 1 187 0 Q 152 0 131 29 Q 119 46 100 76 Q 80 107 60 146 Q 39 184 23 228 Q 6 272 0 316 Q 0 318 0 320 Q 0 320 0 320 L 0 327 Q 1 365 26 390 Q 51 415 89 416 Q 100 416 111 413 L 183 395 Q 216 386 236 361 Q 255 336 256 302 L 256 191 L 161 251 Q 150 258 137 255 Q 125 252 117 241 Q 110 230 113 217 Q 116 205 127 197 L 256 115 L 256 115 Z M 479 251 L 384 191 L 384 302 Q 385 336 404 361 Q 424 386 457 395 L 529 413 Q 540 416 551 416 Q 589 415 614 390 Q 639 365 640 327 L 640 320 Q 640 318 640 316 Q 634 272 617 228 Q 601 184 580 146 Q 560 107 540 76 Q 521 46 509 29 Q 488 0 453 0 Q 424 1 404 20 Q 385 40 384 69 L 384 115 L 513 197 Q 524 205 527 217 Q 530 230 523 241 Q 515 252 503 255 Q 490 258 479 251 L 479 251 Z"/>
</svg>
