<svg xmlns="http://www.w3.org/2000/svg" viewBox="0 0 446 350">
    <path d="M 216 0 Q 194 2 192 24 Q 194 46 216 48 L 242 48 L 276 112 L 127 112 L 100 74 Q 92 64 80 64 L 24 64 Q 2 66 0 88 Q 2 110 24 112 L 68 112 L 90 143 L 13 297 Q 7 311 14 323 Q 21 335 37 336 L 208 336 Q 221 336 229 324 L 314 181 L 395 331 Q 407 350 427 341 Q 446 329 437 309 L 279 17 Q 270 1 251 0 L 216 0 L 216 0 Z M 71 288 L 122 187 L 194 288 L 194 288 L 71 288 L 71 288 Z M 161 160 L 270 160 L 221 243 L 161 160 L 161 160 Z"/>
</svg>
