<svg xmlns="http://www.w3.org/2000/svg" viewBox="0 0 320 432">
    <path d="M 64 0 Q 50 0 41 9 L 41 9 Q 32 18 32 32 Q 18 32 9 41 Q 0 50 0 64 L 0 432 L 320 432 L 320 64 Q 320 50 311 41 Q 302 32 288 32 Q 288 18 279 9 Q 270 0 256 0 L 64 0 L 64 0 Z M 64 104 Q 65 97 72 96 L 96 96 L 96 128 L 64 128 L 64 104 L 64 104 Z M 64 144 L 96 144 L 96 176 L 72 176 Q 65 175 64 168 L 64 144 L 64 144 Z M 136 96 Q 143 97 144 104 L 144 128 L 112 128 L 112 96 L 136 96 L 136 96 Z M 112 144 L 144 144 L 144 168 Q 143 175 136 176 L 112 176 L 112 144 L 112 144 Z M 184 96 L 208 96 L 208 128 L 176 128 L 176 104 Q 177 97 184 96 L 184 96 Z M 208 144 L 208 176 L 184 176 Q 177 175 176 168 L 176 144 L 208 144 L 208 144 Z M 224 96 L 248 96 Q 255 97 256 104 L 256 128 L 224 128 L 224 96 L 224 96 Z M 256 144 L 256 168 Q 255 175 248 176 L 224 176 L 224 144 L 256 144 L 256 144 Z M 64 224 Q 65 209 80 208 L 128 208 Q 143 209 144 224 L 144 272 Q 143 287 128 288 L 80 288 Q 65 287 64 272 L 64 224 L 64 224 Z"/>
</svg>
