<svg xmlns="http://www.w3.org/2000/svg" viewBox="0 0 512 448">
    <path d="M 292 345 Q 275 352 256 352 Q 215 351 188 324 Q 161 297 160 256 Q 160 248 161 241 L 1 115 Q 0 122 0 128 L 0 384 Q 1 411 19 429 Q 37 447 64 448 L 423 448 L 292 345 L 292 345 Z M 352 256 Q 352 262 351 268 L 511 394 Q 512 389 512 384 L 512 128 Q 511 101 493 83 Q 475 65 448 64 L 373 64 L 363 33 Q 351 2 317 0 L 195 0 Q 161 2 149 33 L 139 64 L 91 64 L 221 166 Q 238 160 256 160 Q 297 161 324 188 Q 351 215 352 256 L 352 256 Z"/>
</svg>
