<svg xmlns="http://www.w3.org/2000/svg" viewBox="0 0 464 512">
    <path d="M 272 196 Q 274 276 301 329 L 301 329 Q 328 382 368 384 L 112 384 L 112 464 Q 113 484 126 498 Q 140 511 160 512 L 416 512 Q 436 511 450 498 Q 463 484 464 464 L 464 192 Q 463 110 436 56 Q 409 2 368 0 Q 327 2 300 56 Q 273 110 272 192 Q 272 193 272 194 Q 272 195 272 196 L 272 196 Z M 400 192 Q 400 219 391 237 L 391 237 Q 382 255 368 256 Q 354 255 345 237 Q 336 219 336 192 Q 336 165 345 147 Q 354 129 368 128 Q 382 129 391 147 Q 400 165 400 192 L 400 192 Z M 32 208 Q 31 193 16 192 Q 1 193 0 208 Q 1 223 16 224 Q 31 223 32 208 L 32 208 Z M 96 208 Q 95 193 80 192 Q 65 193 64 208 Q 65 223 80 224 Q 95 223 96 208 L 96 208 Z M 144 224 Q 159 223 160 208 Q 159 193 144 192 Q 129 193 128 208 Q 129 223 144 224 L 144 224 Z M 224 208 Q 223 193 208 192 Q 193 193 192 208 Q 193 223 208 224 Q 223 223 224 208 L 224 208 Z"/>
</svg>
