<svg xmlns="http://www.w3.org/2000/svg" viewBox="0 0 640 352">
    <path d="M 0 64 Q 1 37 19 19 L 19 19 Q 37 1 64 0 L 576 0 Q 603 1 621 19 Q 639 37 640 64 L 640 288 Q 639 315 621 333 Q 603 351 576 352 L 64 352 Q 37 351 19 333 Q 1 315 0 288 L 0 64 L 0 64 Z M 288 176 Q 288 146 273 120 L 273 120 Q 258 94 232 79 Q 206 64 176 64 Q 146 64 120 79 Q 94 94 79 120 Q 64 146 64 176 Q 64 206 79 232 Q 94 258 120 273 Q 146 288 176 288 Q 206 288 232 273 Q 258 258 273 232 Q 288 206 288 176 L 288 176 Z M 464 288 Q 494 288 520 273 L 520 273 Q 546 258 561 232 Q 576 206 576 176 Q 576 146 561 120 Q 546 94 520 79 Q 494 64 464 64 Q 434 64 408 79 Q 382 94 367 120 Q 352 146 352 176 Q 352 206 367 232 Q 382 258 408 273 Q 434 288 464 288 L 464 288 Z"/>
</svg>
