<svg xmlns="http://www.w3.org/2000/svg" viewBox="0 0 139 248">
    <path d="M 71 0 Q 89 2 91 20 L 91 34 Q 102 36 112 39 Q 129 45 126 63 Q 120 80 102 77 Q 85 73 71 72 Q 58 72 49 77 Q 42 81 43 86 Q 42 89 48 93 Q 57 98 77 104 L 77 104 Q 78 104 78 104 Q 96 109 114 119 Q 136 130 139 160 Q 137 192 114 205 Q 103 212 91 214 L 91 228 Q 89 246 71 248 Q 53 246 51 228 L 51 213 Q 35 210 23 205 L 23 205 L 23 205 Q 20 204 17 203 Q 0 196 4 178 Q 11 161 29 165 Q 31 166 33 166 Q 35 167 37 167 Q 56 175 72 176 Q 85 176 93 171 Q 99 168 99 161 Q 100 157 93 152 Q 84 147 65 142 L 63 141 Q 63 141 63 141 Q 45 137 28 127 Q 6 116 3 87 Q 5 55 29 43 Q 39 37 51 34 L 51 20 Q 53 2 71 0 L 71 0 Z"/>
</svg>
