<svg xmlns="http://www.w3.org/2000/svg" viewBox="0 0 448 320">
    <path d="M 0 0 L 448 0 L 448 272 Q 447 292 434 306 Q 420 319 400 320 L 48 320 Q 28 319 14 306 Q 1 292 0 272 L 0 0 L 0 0 Z M 64 80 L 64 112 Q 65 127 80 128 L 112 128 Q 127 127 128 112 L 128 80 Q 127 65 112 64 L 80 64 Q 65 65 64 80 L 64 80 Z M 208 64 Q 193 65 192 80 L 192 112 Q 193 127 208 128 L 240 128 Q 255 127 256 112 L 256 80 Q 255 65 240 64 L 208 64 L 208 64 Z M 320 80 L 320 112 Q 321 127 336 128 L 368 128 Q 383 127 384 112 L 384 80 Q 383 65 368 64 L 336 64 Q 321 65 320 80 L 320 80 Z M 80 192 Q 65 193 64 208 L 64 240 Q 65 255 80 256 L 112 256 Q 127 255 128 240 L 128 208 Q 127 193 112 192 L 80 192 L 80 192 Z M 192 208 L 192 240 Q 193 255 208 256 L 240 256 Q 255 255 256 240 L 256 208 Q 255 193 240 192 L 208 192 Q 193 193 192 208 L 192 208 Z M 336 192 Q 321 193 320 208 L 320 240 Q 321 255 336 256 L 368 256 Q 383 255 384 240 L 384 208 Q 383 193 368 192 L 336 192 L 336 192 Z"/>
</svg>
