<svg xmlns="http://www.w3.org/2000/svg" viewBox="0 0 256 288">
    <path d="M 56 104 L 70 152 Q 72 160 80 160 Q 88 160 90 152 L 104 104 L 152 90 Q 160 88 160 80 Q 160 72 152 70 L 104 56 L 90 8 Q 88 0 80 0 Q 72 0 70 8 L 56 56 L 8 70 Q 0 72 0 80 Q 0 88 8 90 L 56 104 L 56 104 Z M 173 243 L 184 282 Q 186 288 192 288 Q 198 288 200 282 L 211 243 L 250 232 Q 256 230 256 224 Q 256 218 250 216 L 211 205 L 200 166 Q 198 160 192 160 Q 186 160 184 166 L 173 205 L 134 216 Q 128 218 128 224 Q 128 230 134 232 L 173 243 L 173 243 Z"/>
</svg>
