<svg xmlns="http://www.w3.org/2000/svg" viewBox="0 0 352 320">
    <path d="M 325 128 Q 336 128 344 120 L 344 120 Q 352 112 352 100 Q 352 96 350 92 Q 347 81 329 60 Q 312 38 275 20 Q 238 1 176 0 Q 114 1 77 20 Q 40 38 23 60 Q 5 81 2 92 Q 0 96 0 100 Q 0 112 8 120 Q 16 128 28 128 L 325 128 L 325 128 Z M 80 64 Q 81 49 96 48 Q 111 49 112 64 Q 111 78 96 80 Q 81 78 80 64 L 80 64 Z M 176 32 Q 191 33 192 48 Q 191 62 176 64 Q 161 62 160 48 Q 161 33 176 32 L 176 32 Z M 240 64 Q 241 49 256 48 Q 271 49 272 64 Q 271 78 256 80 Q 241 78 240 64 L 240 64 Z M 0 192 Q 0 205 9 214 L 9 214 Q 18 223 32 224 L 320 224 Q 334 223 343 214 Q 352 205 352 192 Q 352 178 343 169 Q 334 160 320 160 L 32 160 Q 18 160 9 169 Q 0 178 0 192 L 0 192 Z M 0 272 Q 1 292 14 306 L 14 306 Q 28 319 48 320 L 304 320 Q 324 319 338 306 Q 351 292 352 272 Q 351 257 336 256 L 16 256 Q 1 257 0 272 L 0 272 Z"/>
</svg>
