<svg xmlns="http://www.w3.org/2000/svg" viewBox="0 0 512 512">
    <path d="M 256 512 Q 186 511 128 478 L 128 478 Q 70 444 34 384 Q 0 323 0 256 Q 0 189 34 128 Q 70 68 128 34 Q 186 1 256 0 Q 326 1 384 34 Q 442 68 478 128 Q 512 189 512 256 Q 512 323 478 384 Q 442 444 384 478 Q 326 511 256 512 L 256 512 Z M 385 281 Q 399 264 385 247 Q 368 233 351 247 L 280 318 L 280 136 Q 278 114 256 112 Q 234 114 232 136 L 232 318 L 161 247 Q 144 233 127 247 Q 113 264 127 281 L 239 393 Q 256 407 273 393 L 385 281 L 385 281 Z"/>
</svg>
