<svg xmlns="http://www.w3.org/2000/svg" viewBox="0 0 384 416">
    <path d="M 384 0 L 0 0 L 0 352 Q 1 379 19 397 Q 37 415 64 416 L 320 416 Q 347 415 365 397 Q 383 379 384 352 L 384 0 L 384 0 Z M 112 80 L 112 304 Q 111 319 96 320 Q 81 319 80 304 L 80 80 Q 81 65 96 64 Q 111 65 112 80 L 112 80 Z M 208 80 L 208 304 Q 207 319 192 320 Q 177 319 176 304 L 176 80 Q 177 65 192 64 Q 207 65 208 80 L 208 80 Z M 304 80 L 304 304 Q 303 319 288 320 Q 273 319 272 304 L 272 80 Q 273 65 288 64 Q 303 65 304 80 L 304 80 Z"/>
</svg>
