<svg xmlns="http://www.w3.org/2000/svg" viewBox="0 0 480 480">
    <path d="M 224 48 Q 204 49 190 62 L 190 62 Q 177 76 176 96 L 176 160 L 272 160 L 272 96 Q 271 76 258 62 Q 244 49 224 48 L 224 48 Z M 64 160 L 128 160 L 128 96 Q 129 55 156 28 Q 183 1 224 0 Q 265 1 292 28 Q 319 55 320 96 L 320 160 L 384 160 Q 411 161 429 179 Q 447 197 448 224 L 240 224 Q 206 225 183 247 Q 161 270 160 304 L 160 464 Q 160 472 162 480 L 64 480 Q 37 479 19 461 Q 1 443 0 416 L 0 224 Q 1 197 19 179 Q 37 161 64 160 L 64 160 Z M 320 336 L 320 352 Q 321 379 339 397 Q 357 415 384 416 Q 411 415 429 397 Q 447 379 448 352 L 448 336 Q 449 321 464 320 Q 479 321 480 336 L 480 352 Q 479 393 452 420 Q 425 447 384 448 Q 343 447 316 420 Q 289 393 288 352 L 288 336 Q 289 321 304 320 Q 319 321 320 336 L 320 336 Z"/>
</svg>
