<svg xmlns="http://www.w3.org/2000/svg" viewBox="0 0 384 448">
    <path d="M 64 0 L 64 224 L 0 224 L 0 4 Q 15 0 32 0 L 64 0 L 64 0 Z M 320 224 L 320 0 L 352 0 Q 369 0 384 4 L 384 224 L 320 224 L 320 224 Z M 128 192 Q 128 178 137 169 L 137 169 Q 146 160 160 160 L 224 160 Q 238 160 247 169 Q 256 178 256 192 L 256 288 Q 256 302 247 311 Q 238 320 224 320 L 160 320 Q 146 320 137 311 Q 128 302 128 288 L 128 192 L 128 192 Z M 192 192 Q 177 193 176 208 L 176 272 Q 177 287 192 288 Q 207 287 208 272 L 208 208 Q 207 193 192 192 L 192 192 Z M 64 448 L 0 448 L 0 256 L 64 256 L 64 448 L 64 448 Z M 320 448 L 320 256 L 384 256 L 384 448 L 320 448 L 320 448 Z"/>
</svg>
