<svg xmlns="http://www.w3.org/2000/svg" viewBox="0 0 576 448">
    <path d="M 64 0 Q 37 1 19 19 L 19 19 Q 1 37 0 64 L 0 384 Q 1 411 19 429 Q 37 447 64 448 L 512 448 Q 539 447 557 429 Q 575 411 576 384 L 576 64 Q 575 37 557 19 Q 539 1 512 0 L 64 0 L 64 0 Z M 224 64 Q 267 64 304 85 L 304 85 Q 341 107 363 144 Q 384 182 384 224 Q 384 266 363 304 Q 341 341 304 363 Q 267 384 224 384 Q 181 384 144 363 Q 107 341 85 304 Q 64 266 64 224 Q 64 182 85 144 Q 107 107 144 85 Q 181 64 224 64 L 224 64 Z M 496 64 Q 511 65 512 80 L 512 240 Q 512 252 507 262 L 491 294 Q 500 309 493 326 L 477 358 Q 470 370 458 374 Q 446 378 434 372 Q 422 366 418 354 Q 414 342 419 330 L 435 298 Q 444 281 462 280 L 478 247 Q 480 244 480 240 L 480 80 Q 481 65 496 64 L 496 64 Z"/>
</svg>
