<svg xmlns="http://www.w3.org/2000/svg" viewBox="0 0 448 448">
    <path d="M 160 416 Q 160 430 151 439 L 151 439 Q 142 448 128 448 Q 114 448 105 439 Q 96 430 96 416 L 96 352 L 32 352 Q 18 352 9 343 Q 0 334 0 320 Q 0 306 9 297 Q 18 288 32 288 L 128 288 Q 142 288 151 297 Q 160 306 160 320 L 160 416 L 160 416 Z M 320 160 Q 306 160 297 151 L 297 151 Q 288 142 288 128 L 288 32 Q 288 18 297 9 Q 306 0 320 0 Q 334 0 343 9 Q 352 18 352 32 L 352 96 L 416 96 Q 430 96 439 105 Q 448 114 448 128 Q 448 142 439 151 Q 430 160 416 160 L 320 160 L 320 160 Z"/>
</svg>
