<svg xmlns="http://www.w3.org/2000/svg" viewBox="0 0 384 256">
    <path d="M 0 24 Q 2 2 24 0 Q 46 2 48 24 L 48 232 Q 46 254 24 256 Q 2 254 0 232 L 0 24 L 0 24 Z M 80 16 Q 81 1 96 0 Q 111 1 112 16 L 112 240 Q 111 255 96 256 Q 81 255 80 240 L 80 16 L 80 16 Z M 168 0 Q 190 2 192 24 L 192 232 Q 190 254 168 256 Q 146 254 144 232 L 144 24 Q 146 2 168 0 L 168 0 Z M 256 24 Q 258 2 280 0 Q 302 2 304 24 L 304 232 Q 302 254 280 256 Q 258 254 256 232 L 256 24 L 256 24 Z M 368 0 Q 383 1 384 16 L 384 240 Q 383 255 368 256 Q 353 255 352 240 L 352 16 Q 353 1 368 0 L 368 0 Z"/>
</svg>
