<svg xmlns="http://www.w3.org/2000/svg" viewBox="0 0 640 288">
    <path d="M 0 32 Q 0 18 9 9 L 9 9 Q 18 0 32 0 L 608 0 Q 622 0 631 9 Q 640 18 640 32 Q 640 46 631 55 Q 622 64 608 64 L 584 233 Q 580 257 562 272 Q 545 288 520 288 L 119 288 Q 95 288 77 272 Q 60 257 56 233 L 32 64 Q 18 64 9 55 Q 0 46 0 32 L 0 32 Z M 320 96 Q 327 96 331 102 L 340 115 Q 349 126 362 120 Q 374 111 367 98 L 358 85 Q 344 65 320 64 Q 296 65 282 84 L 274 96 Q 267 109 279 118 Q 292 125 301 113 L 308 102 Q 313 96 320 96 L 320 96 Z M 261 144 Q 248 138 239 149 L 231 161 Q 224 171 224 184 Q 224 201 236 212 Q 247 224 265 224 L 290 224 Q 304 223 306 208 Q 304 194 290 192 L 265 192 Q 257 191 256 184 Q 256 181 257 179 L 265 167 Q 272 154 261 145 L 261 144 Z M 338 208 Q 339 223 354 224 L 375 224 Q 392 224 403 212 Q 415 201 415 183 Q 415 171 409 161 L 402 151 Q 393 140 380 146 Q 368 155 375 169 L 382 179 Q 383 181 383 183 Q 382 191 375 192 L 354 192 Q 339 193 338 208 L 338 208 Z"/>
</svg>
