<svg xmlns="http://www.w3.org/2000/svg" viewBox="0 0 640 224">
    <path d="M 0 48 Q 1 28 14 14 L 14 14 Q 28 1 48 0 L 592 0 Q 612 1 626 14 Q 639 28 640 48 L 640 176 Q 639 196 626 210 Q 612 223 592 224 L 48 224 Q 28 223 14 210 Q 1 196 0 176 L 0 48 L 0 48 Z M 416 80 Q 415 65 400 64 L 384 64 L 384 48 Q 383 33 368 32 Q 353 33 352 48 L 352 64 L 320 64 L 320 48 Q 319 33 304 32 Q 289 33 288 48 L 288 64 L 272 64 Q 257 65 256 80 Q 257 95 272 96 L 288 96 L 288 128 L 272 128 Q 257 129 256 144 Q 257 159 272 160 L 288 160 L 288 176 Q 289 191 304 192 Q 319 191 320 176 L 320 160 L 352 160 L 352 176 Q 353 191 368 192 Q 383 191 384 176 L 384 160 L 400 160 Q 415 159 416 144 Q 415 129 400 128 L 384 128 L 384 96 L 400 96 Q 415 95 416 80 L 416 80 Z M 352 96 L 352 128 L 320 128 L 320 96 L 352 96 L 352 96 Z M 572 66 Q 581 54 570 44 Q 558 35 548 46 L 452 158 Q 443 169 454 180 Q 465 189 476 178 L 572 66 L 572 66 Z M 472 88 Q 494 86 496 64 Q 494 42 472 40 Q 450 42 448 64 Q 450 86 472 88 L 472 88 Z M 576 160 Q 574 138 552 136 Q 530 138 528 160 Q 530 182 552 184 Q 574 182 576 160 L 576 160 Z M 224 48 Q 223 33 208 32 Q 193 33 192 48 L 192 112 Q 193 127 208 128 Q 223 127 224 112 L 224 48 L 224 48 Z M 208 192 Q 230 190 232 168 Q 230 146 208 144 Q 186 146 184 168 Q 186 190 208 192 L 208 192 Z M 112 32 Q 97 33 96 48 L 96 50 Q 87 51 79 57 Q 68 65 65 80 Q 63 91 67 101 Q 72 110 80 115 Q 93 123 106 126 L 107 127 Q 121 130 126 134 Q 128 135 128 136 L 128 136 Q 128 136 128 136 Q 128 136 128 136 Q 128 137 128 138 Q 127 143 126 142 L 126 142 Q 124 144 117 144 Q 100 143 85 137 Q 71 133 65 147 Q 61 161 75 167 Q 75 167 76 167 Q 83 170 95 173 L 95 176 Q 96 191 111 192 Q 126 191 127 176 L 127 175 Q 135 174 142 170 Q 156 161 159 144 Q 161 133 157 123 Q 152 113 145 108 Q 131 99 117 96 Q 117 96 117 96 L 117 96 Q 103 92 97 89 Q 96 88 96 87 Q 96 87 96 87 Q 96 87 96 86 Q 97 83 98 83 Q 99 81 105 81 Q 119 80 132 83 Q 146 86 151 72 Q 154 58 140 53 Q 135 51 128 50 L 128 48 Q 127 33 112 32 L 112 32 Z M 96 87 Q 96 87 96 87 Q 96 87 96 87 Q 96 87 96 87 L 96 87 Z"/>
</svg>
