<svg xmlns="http://www.w3.org/2000/svg" viewBox="0 0 642 512">
    <path d="M 321 112 Q 369 111 400 79 L 400 79 Q 432 48 433 0 L 442 0 Q 476 0 503 22 L 630 127 Q 640 136 641 150 Q 642 163 633 173 L 577 237 Q 568 247 556 248 Q 543 249 533 241 L 481 198 L 481 448 Q 480 475 462 493 Q 444 511 417 512 L 225 512 Q 198 511 180 493 Q 162 475 161 448 L 161 198 L 110 241 Q 99 249 87 248 Q 74 247 65 237 L 9 173 Q 0 163 1 150 Q 2 136 13 127 L 139 22 Q 166 0 200 0 L 209 0 Q 210 48 242 79 Q 273 111 321 112 L 321 112 Z"/>
</svg>
