<svg xmlns="http://www.w3.org/2000/svg" viewBox="0 0 192 256">
    <path d="M 176 72 Q 175 41 155 21 L 155 21 Q 135 1 104 0 L 88 0 Q 57 1 37 21 Q 17 41 16 72 Q 16 96 30 114 Q 1 137 0 176 Q 1 210 23 233 Q 46 255 80 256 L 112 256 Q 146 255 169 233 Q 191 210 192 176 Q 191 137 163 114 Q 176 96 176 72 L 176 72 Z M 104 144 L 112 144 Q 126 144 135 153 Q 144 162 144 176 Q 144 190 135 199 Q 126 208 112 208 L 80 208 Q 66 208 57 199 Q 48 190 48 176 Q 48 162 57 153 Q 66 144 80 144 L 88 144 Q 88 144 88 144 Q 88 144 88 144 L 104 144 Q 104 144 104 144 Q 104 144 104 144 L 104 144 Z M 104 96 L 88 96 Q 66 94 64 72 Q 66 50 88 48 L 104 48 Q 126 50 128 72 Q 126 94 104 96 L 104 96 Z"/>
</svg>
