<svg xmlns="http://www.w3.org/2000/svg" viewBox="0 0 320 256">
    <path d="M 40 0 Q 23 0 12 12 L 12 12 Q 0 23 0 40 L 0 72 Q 0 89 12 100 Q 23 112 40 112 L 56 112 Q 73 112 84 100 Q 96 89 96 72 L 96 40 Q 96 23 84 12 Q 73 0 56 0 L 40 0 L 40 0 Z M 32 40 Q 33 33 40 32 L 56 32 Q 63 33 64 40 L 64 72 Q 63 79 56 80 L 40 80 Q 33 79 32 72 L 32 40 L 32 40 Z M 144 0 Q 129 1 128 16 Q 129 31 144 32 L 144 96 Q 145 111 160 112 Q 175 111 176 96 L 176 16 Q 175 1 160 0 L 144 0 L 144 0 Z M 224 40 L 224 72 Q 224 89 236 100 Q 247 112 264 112 L 280 112 Q 297 112 308 100 Q 320 89 320 72 L 320 40 Q 320 23 308 12 Q 297 0 280 0 L 264 0 Q 247 0 236 12 Q 224 23 224 40 L 224 40 Z M 264 32 L 280 32 Q 287 33 288 40 L 288 72 Q 287 79 280 80 L 264 80 Q 257 79 256 72 L 256 40 Q 257 33 264 32 L 264 32 Z M 32 144 Q 17 145 16 160 Q 17 175 32 176 L 32 240 Q 33 255 48 256 Q 63 255 64 240 L 64 160 Q 63 145 48 144 L 32 144 L 32 144 Z M 152 144 Q 135 144 124 156 L 124 156 Q 112 167 112 184 L 112 216 Q 112 233 124 244 Q 135 256 152 256 L 168 256 Q 185 256 196 244 Q 208 233 208 216 L 208 184 Q 208 167 196 156 Q 185 144 168 144 L 152 144 L 152 144 Z M 144 184 Q 145 177 152 176 L 168 176 Q 175 177 176 184 L 176 216 Q 175 223 168 224 L 152 224 Q 145 223 144 216 L 144 184 L 144 184 Z M 240 160 Q 241 175 256 176 L 256 240 Q 257 255 272 256 Q 287 255 288 240 L 288 160 Q 287 145 272 144 L 256 144 Q 241 145 240 160 L 240 160 Z"/>
</svg>
