<svg xmlns="http://www.w3.org/2000/svg" viewBox="0 0 305 516">
    <path d="M 279 2 Q 284 3 289 6 Q 300 13 303 26 Q 305 33 303 40 Q 302 45 300 49 L 213 200 Q 208 210 208 220 L 208 305 Q 209 320 224 321 Q 239 320 240 305 L 240 225 Q 240 211 249 202 Q 258 193 272 193 Q 286 193 295 202 Q 304 211 304 225 L 304 343 Q 303 388 278 421 Q 252 455 209 467 L 40 512 Q 25 516 13 506 Q 0 497 0 481 L 0 385 Q 1 363 22 355 L 101 328 Q 111 324 112 313 L 112 240 Q 112 215 125 195 L 245 16 Q 253 5 265 2 Q 272 0 279 2 L 279 2 Z"/>
</svg>
