<svg xmlns="http://www.w3.org/2000/svg" viewBox="0 0 640 520">
    <path d="M 487 461 Q 477 470 464 470 L 464 470 Q 451 470 441 461 L 361 381 Q 352 371 352 358 Q 352 345 361 335 L 441 255 Q 451 246 464 246 Q 477 246 487 255 Q 496 265 496 278 Q 496 291 487 301 L 461 326 L 480 326 Q 521 325 548 298 Q 575 271 576 230 Q 575 189 548 162 Q 521 135 480 134 L 352 134 Q 338 134 329 125 Q 320 116 320 102 Q 320 88 329 79 Q 338 70 352 70 L 480 70 Q 548 72 593 117 Q 638 162 640 230 Q 638 298 593 343 Q 548 388 480 390 L 461 390 L 487 415 Q 496 425 496 438 Q 496 451 487 461 L 487 461 Z M 160 54 Q 161 27 184 12 Q 208 0 232 12 Q 255 27 256 54 Q 255 81 232 96 Q 208 108 184 96 Q 161 81 160 54 L 160 54 Z M 127 205 Q 126 206 125 206 L 125 206 Q 124 206 124 207 L 116 210 Q 90 222 81 248 L 78 256 Q 74 269 62 274 Q 51 280 38 276 Q 25 272 19 260 Q 14 249 18 236 L 20 228 Q 39 175 90 151 L 98 148 Q 129 134 164 134 Q 198 134 225 152 Q 252 171 266 202 L 281 239 L 302 249 Q 314 256 318 268 Q 322 280 317 292 Q 310 304 298 308 Q 286 312 274 307 L 247 293 Q 231 285 224 269 L 215 246 L 195 311 L 245 365 Q 253 374 256 386 L 279 478 Q 282 491 275 502 Q 269 513 256 517 Q 242 520 231 513 Q 221 507 217 494 L 195 406 L 124 328 Q 102 302 110 269 L 126 205 L 127 205 Z M 69 404 L 94 342 Q 97 346 101 350 L 141 395 L 127 431 Q 123 440 116 447 L 55 509 Q 45 518 32 518 Q 19 518 9 509 Q 0 499 0 486 Q 0 473 9 463 L 69 404 L 69 404 Z"/>
</svg>
