<svg xmlns="http://www.w3.org/2000/svg" viewBox="0 0 576 320">
    <path d="M 576 0 Q 520 1 476 17 L 476 17 Q 433 32 409 47 L 409 47 Q 384 63 384 64 L 48 64 Q 28 65 14 78 Q 1 92 0 112 L 0 208 Q 1 228 14 242 Q 28 255 48 256 L 384 256 Q 384 257 409 273 Q 433 288 476 303 Q 520 319 576 320 L 576 0 L 576 0 Z M 224 160 Q 224 146 233 137 L 233 137 Q 242 128 256 128 L 288 128 Q 302 128 311 137 Q 320 146 320 160 Q 320 174 311 183 Q 302 192 288 192 L 256 192 Q 242 192 233 183 Q 224 174 224 160 L 224 160 Z"/>
</svg>
