<svg xmlns="http://www.w3.org/2000/svg" viewBox="0 0 416 456">
    <path d="M 0 214 L 0 424 Q 0 438 9 447 Q 18 456 32 456 L 144 456 L 144 392 Q 145 372 158 358 Q 172 345 192 344 L 224 344 Q 244 345 258 358 Q 271 372 272 392 L 272 456 L 384 456 Q 398 456 407 447 Q 416 438 416 424 L 416 214 Q 416 208 414 202 L 365 83 Q 360 72 349 67 L 222 7 Q 208 0 194 7 L 67 67 Q 56 72 51 83 L 2 202 Q 0 208 0 214 L 0 214 Z M 184 168 L 232 168 Q 254 170 256 192 L 256 240 Q 254 262 232 264 L 184 264 Q 162 262 160 240 L 160 192 Q 162 170 184 168 L 184 168 Z"/>
</svg>
