<svg xmlns="http://www.w3.org/2000/svg" viewBox="0 0 320 240">
    <path d="M 88 0 Q 51 1 26 26 L 26 26 Q 1 51 0 88 L 0 144 L 0 168 L 0 192 Q 1 212 14 226 Q 28 239 48 240 L 96 240 Q 116 239 130 226 Q 143 212 144 192 L 144 144 Q 143 124 130 110 Q 116 97 96 96 L 64 96 L 64 88 Q 66 66 88 64 L 96 64 Q 110 64 119 55 Q 128 46 128 32 Q 128 18 119 9 Q 110 0 96 0 L 88 0 L 88 0 Z M 264 0 Q 227 1 202 26 L 202 26 Q 177 51 176 88 L 176 144 L 176 168 L 176 192 Q 177 212 190 226 Q 204 239 224 240 L 272 240 Q 292 239 306 226 Q 319 212 320 192 L 320 144 Q 319 124 306 110 Q 292 97 272 96 L 240 96 L 240 88 Q 242 66 264 64 L 272 64 Q 286 64 295 55 Q 304 46 304 32 Q 304 18 295 9 Q 286 0 272 0 L 264 0 L 264 0 Z"/>
</svg>
