<svg xmlns="http://www.w3.org/2000/svg" viewBox="0 0 225 258">
    <path d="M 32 112 Q 31 120 31 129 Q 31 137 32 144 L 16 144 Q 1 145 0 160 Q 1 175 16 176 L 40 176 Q 55 212 87 235 Q 118 257 160 258 L 201 258 Q 223 255 225 234 Q 223 212 201 210 L 160 210 Q 118 208 94 176 L 176 176 Q 191 175 192 160 Q 191 145 176 144 L 81 144 Q 79 137 79 129 Q 79 120 81 112 L 176 112 Q 191 111 192 96 Q 191 81 176 80 L 96 80 Q 119 49 160 48 L 201 48 Q 223 46 225 24 Q 223 2 201 0 L 160 0 Q 119 1 87 22 Q 56 44 41 80 L 16 80 Q 1 81 0 96 Q 1 111 16 112 L 32 112 L 32 112 Z"/>
</svg>
