<svg xmlns="http://www.w3.org/2000/svg" viewBox="0 0 384 448">
    <path d="M 113 2 Q 113 2 113 1 L 113 1 Q 114 0 114 0 L 64 0 Q 37 1 19 19 Q 1 37 0 64 L 0 384 Q 1 411 19 429 Q 37 447 64 448 L 320 448 Q 347 447 365 429 Q 383 411 384 384 L 384 64 Q 383 37 365 19 Q 347 1 320 0 L 270 0 Q 271 1 271 2 Q 271 2 271 2 Q 302 14 304 48 L 304 72 Q 302 94 280 96 L 192 96 L 104 96 Q 82 94 80 72 L 80 48 Q 82 14 113 2 L 113 2 Z M 187 165 Q 197 176 187 187 L 123 251 Q 112 261 101 251 L 69 219 Q 59 208 69 197 Q 80 187 91 197 L 112 217 L 165 165 Q 176 155 187 165 L 187 165 Z M 192 240 Q 193 225 208 224 L 304 224 Q 319 225 320 240 Q 319 255 304 256 L 208 256 Q 193 255 192 240 L 192 240 Z M 304 320 Q 319 321 320 336 Q 319 351 304 352 L 176 352 Q 161 351 160 336 Q 161 321 176 320 L 304 320 L 304 320 Z M 72 336 Q 74 314 96 312 Q 118 314 120 336 Q 118 358 96 360 Q 74 358 72 336 L 72 336 Z"/>
</svg>
