<svg xmlns="http://www.w3.org/2000/svg" viewBox="0 0 576 448">
    <path d="M 0 32 Q 0 18 9 9 L 9 9 Q 18 0 32 0 L 544 0 Q 558 0 567 9 Q 576 18 576 32 Q 576 46 567 55 Q 558 64 544 64 L 504 64 L 504 128 L 576 128 L 576 200 Q 529 161 464 160 Q 411 161 370 187 Q 329 214 306 258 Q 297 256 288 256 Q 247 257 220 284 Q 193 311 192 352 L 192 416 Q 192 430 183 439 Q 174 448 160 448 L 128 448 Q 114 448 105 439 Q 96 430 96 416 L 96 352 Q 95 311 68 284 Q 41 257 0 256 L 0 128 L 72 128 L 72 64 L 32 64 Q 18 64 9 55 Q 0 46 0 32 L 0 32 Z M 376 64 L 376 128 L 456 128 L 456 64 L 376 64 L 376 64 Z M 328 128 L 328 64 L 248 64 L 248 128 L 328 128 L 328 128 Z M 120 64 L 120 128 L 200 128 L 200 64 L 120 64 L 120 64 Z"/>
</svg>
