<svg xmlns="http://www.w3.org/2000/svg" viewBox="0 0 320 512">
    <path d="M 80 0 Q 91 1 95 10 L 110 50 L 150 65 Q 160 69 160 80 Q 159 91 150 95 L 110 110 L 95 150 Q 91 160 80 160 Q 69 159 65 150 L 50 110 L 10 95 Q 0 91 0 80 Q 1 69 10 65 L 50 50 L 65 10 Q 69 1 80 0 L 80 0 Z M 240 352 Q 251 353 255 362 L 270 402 L 310 417 Q 320 421 320 432 Q 319 443 310 447 L 270 462 L 255 502 Q 251 512 240 512 Q 229 511 225 502 L 210 462 L 170 447 Q 160 443 160 432 Q 161 421 170 417 L 210 402 L 225 362 Q 229 352 240 352 L 240 352 Z"/>
</svg>
