<svg xmlns="http://www.w3.org/2000/svg" viewBox="0 0 578 512">
    <path d="M 258 192 L 146 192 L 130 192 L 100 192 Q 76 191 69 168 L 65 152 Q 61 139 50 133 Q 39 126 26 129 Q 13 133 7 144 Q 0 154 3 168 L 7 183 Q 21 232 66 250 L 66 480 Q 66 494 75 503 Q 84 512 98 512 L 130 512 Q 144 512 153 503 Q 162 494 162 480 L 162 365 Q 198 384 242 384 Q 250 384 258 383 L 258 192 L 258 192 Z M 290 377 Q 307 373 322 365 L 322 480 Q 322 494 331 503 Q 340 512 354 512 L 386 512 Q 400 512 409 503 Q 418 494 418 480 L 418 262 L 290 208 L 290 377 L 290 377 Z M 423 229 L 429 192 L 450 192 L 466 192 L 498 192 Q 532 191 555 169 Q 577 146 578 112 L 578 88 Q 576 66 554 64 L 498 64 L 480 46 Q 466 32 446 32 L 394 32 L 377 10 Q 370 0 358 0 Q 339 1 335 20 L 308 181 L 423 229 L 423 229 Z M 434 80 Q 435 65 450 64 Q 465 65 466 80 Q 465 95 450 96 Q 435 95 434 80 L 434 80 Z"/>
</svg>
