<svg xmlns="http://www.w3.org/2000/svg" viewBox="0 0 512 449">
    <path d="M 0 161 Q 3 98 52 63 L 52 63 Q 101 28 161 14 L 161 14 Q 221 0 256 1 Q 291 0 351 14 Q 411 28 460 63 Q 509 98 512 161 Q 511 188 493 206 Q 475 224 448 225 L 448 401 Q 447 421 434 435 Q 420 448 400 449 L 112 449 Q 92 448 78 435 Q 65 421 64 401 L 64 225 Q 37 224 19 206 Q 1 188 0 161 L 0 161 Z M 128 369 Q 129 384 144 385 Q 159 384 160 369 Q 159 354 144 353 Q 129 354 128 369 L 128 369 Z M 128 273 Q 129 288 144 289 Q 159 288 160 273 Q 159 258 144 257 Q 129 258 128 273 L 128 273 Z M 224 369 Q 225 384 240 385 Q 255 384 256 369 Q 255 354 240 353 Q 225 354 224 369 L 224 369 Z"/>
</svg>
