<svg xmlns="http://www.w3.org/2000/svg" viewBox="0 0 256 448">
    <path d="M 0 32 Q 0 18 9 9 L 9 9 Q 18 0 32 0 L 96 0 L 160 0 L 224 0 Q 238 0 247 9 Q 256 18 256 32 Q 256 46 247 55 Q 238 64 224 64 L 224 175 Q 219 178 215 182 Q 199 200 199 222 Q 199 244 215 262 Q 215 262 215 262 Q 215 262 216 262 L 216 262 Q 216 262 215 262 Q 215 263 215 263 Q 215 263 215 263 L 215 263 Q 215 263 215 263 Q 191 264 175 279 Q 159 295 159 319 Q 159 343 175 358 Q 191 374 215 375 Q 215 375 215 375 L 215 375 Q 215 375 215 375 Q 216 376 216 376 L 216 376 Q 215 376 215 376 Q 198 394 199 417 Q 171 447 128 448 Q 87 447 60 420 Q 33 393 32 352 L 32 64 Q 18 64 9 55 Q 0 46 0 32 L 0 32 Z M 96 64 L 96 160 L 160 160 L 160 64 L 96 64 L 96 64 Z"/>
</svg>
