<svg xmlns="http://www.w3.org/2000/svg" viewBox="0 0 448 384">
    <path d="M 16 0 L 432 0 Q 447 1 448 16 Q 447 31 432 32 L 16 32 Q 1 31 0 16 Q 1 1 16 0 L 16 0 Z M 192 96 L 192 288 Q 191 329 164 356 Q 137 383 96 384 Q 55 383 28 356 Q 1 329 0 288 Q 0 261 13 239 Q 26 218 48 205 Q 60 198 72 202 Q 85 205 92 217 Q 98 229 95 241 Q 92 253 80 260 Q 65 270 64 288 Q 64 302 73 311 Q 82 320 96 320 Q 110 320 119 311 Q 128 302 128 288 L 128 96 L 192 96 L 192 96 Z M 256 96 L 320 96 L 320 256 Q 320 270 329 279 Q 338 288 352 288 Q 366 288 375 279 Q 384 270 384 256 Q 383 237 368 228 Q 356 221 353 209 Q 350 197 356 185 Q 363 173 376 170 Q 388 166 400 173 Q 422 186 435 207 Q 448 229 448 256 Q 447 297 420 324 Q 393 351 352 352 Q 311 351 284 324 Q 257 297 256 256 L 256 96 L 256 96 Z"/>
</svg>
