<svg xmlns="http://www.w3.org/2000/svg" viewBox="0 0 512 192">
    <path d="M 119 9 Q 128 19 128 32 L 128 32 Q 128 45 119 55 L 109 64 L 256 64 L 403 64 L 393 55 Q 384 45 384 32 Q 384 19 393 9 Q 403 0 416 0 Q 429 0 439 9 L 503 73 Q 512 83 512 96 Q 512 109 503 119 L 439 183 Q 429 192 416 192 Q 403 192 393 183 Q 384 173 384 160 Q 384 147 393 137 L 403 128 L 256 128 L 109 128 L 119 137 Q 128 147 128 160 Q 128 173 119 183 Q 109 192 96 192 Q 83 192 73 183 L 9 119 Q 0 109 0 96 Q 0 83 9 73 L 73 9 Q 83 0 96 0 Q 109 0 119 9 L 119 9 Z"/>
</svg>
