<svg xmlns="http://www.w3.org/2000/svg" viewBox="0 0 512 448">
    <path d="M 64 32 L 57 7 Q 55 0 48 0 Q 41 0 39 7 L 32 32 L 7 39 Q 0 41 0 48 Q 0 55 7 57 L 32 64 L 39 89 Q 41 96 48 96 Q 55 96 57 89 L 64 64 L 89 57 Q 96 55 96 48 Q 96 41 89 39 L 64 32 L 64 32 Z M 480 384 L 473 359 Q 471 352 464 352 Q 457 352 455 359 L 448 384 L 423 391 Q 416 393 416 400 Q 416 407 423 409 L 448 416 L 455 441 Q 457 448 464 448 Q 471 448 473 441 L 480 416 L 505 409 Q 512 407 512 400 Q 512 393 505 391 L 480 384 L 480 384 Z M 224 0 Q 209 1 208 16 Q 209 31 224 32 L 288 32 Q 303 31 304 16 Q 303 1 288 0 L 224 0 L 224 0 Z M 112 256 Q 97 257 96 272 Q 97 287 112 288 L 400 288 Q 415 287 416 272 Q 415 257 400 256 L 112 256 L 112 256 Z"/>
</svg>
