<svg xmlns="http://www.w3.org/2000/svg" viewBox="0 0 416 416">
    <path d="M 208 416 Q 265 416 312 388 L 312 388 Q 359 361 388 312 Q 416 263 416 208 Q 416 153 388 104 Q 359 55 312 28 Q 265 0 208 0 Q 151 0 104 28 Q 57 55 28 104 Q 0 153 0 208 Q 0 263 28 312 Q 57 361 104 388 Q 151 416 208 416 L 208 416 Z M 104 216 Q 106 194 128 192 Q 150 194 152 216 L 152 280 Q 150 302 128 304 Q 106 302 104 280 L 104 216 L 104 216 Z M 184 120 Q 186 98 208 96 Q 230 98 232 120 L 232 280 Q 230 302 208 304 Q 186 302 184 280 L 184 120 L 184 120 Z M 264 184 Q 266 162 288 160 Q 310 162 312 184 L 312 280 Q 310 302 288 304 Q 266 302 264 280 L 264 184 L 264 184 Z"/>
</svg>
