<svg xmlns="http://www.w3.org/2000/svg" viewBox="0 0 235 200">
    <path d="M 43 49 Q 46 40 55 40 Q 66 41 67 53 L 67 55 Q 67 60 63 65 L 24 108 Q 3 132 3 164 L 3 180 Q 5 198 23 200 L 87 200 Q 105 198 107 180 Q 105 162 87 160 L 43 160 Q 45 146 54 135 L 93 91 Q 107 76 107 55 L 107 53 Q 106 30 92 15 Q 77 1 54 0 Q 18 2 5 36 L 4 38 Q 0 56 17 63 Q 34 67 42 50 L 43 49 L 43 49 Z M 183 0 Q 161 1 146 15 L 146 15 Q 132 30 131 52 L 131 148 Q 132 170 146 185 Q 161 199 183 200 Q 205 199 220 185 Q 234 170 235 148 L 235 52 Q 234 30 220 15 Q 205 1 183 0 L 183 0 Z M 171 52 Q 172 41 183 40 Q 194 41 195 52 L 195 148 Q 194 159 183 160 Q 172 159 171 148 L 171 52 L 171 52 Z"/>
</svg>
