<svg xmlns="http://www.w3.org/2000/svg" viewBox="0 0 320 304">
    <path d="M 121 105 Q 128 100 128 92 L 128 88 Q 126 66 104 64 L 88 64 Q 66 66 64 88 L 64 92 Q 64 100 71 105 L 83 113 L 62 124 Q 53 128 43 128 Q 25 128 12 116 Q 0 103 0 85 L 0 64 Q 1 37 19 19 Q 37 1 64 0 L 128 0 Q 155 1 173 19 Q 191 37 192 64 L 192 85 Q 192 103 180 116 Q 167 128 149 128 Q 139 128 130 124 L 109 113 L 121 105 L 121 105 Z M 32 80 Q 47 79 48 64 Q 47 49 32 48 Q 17 49 16 64 Q 17 79 32 80 L 32 80 Z M 176 64 Q 175 49 160 48 Q 145 49 144 64 Q 145 79 160 80 Q 175 79 176 64 L 176 64 Z M 96 160 L 109 166 Q 128 176 149 176 Q 157 176 165 175 Q 175 204 199 222 Q 224 239 256 240 L 320 240 L 320 304 L 160 304 Q 174 304 183 295 Q 192 286 192 272 Q 192 258 183 249 Q 174 240 160 240 L 96 240 Q 69 239 51 221 Q 33 203 32 176 L 32 175 Q 37 176 43 176 Q 64 176 83 166 L 96 160 L 96 160 Z"/>
</svg>
