<svg xmlns="http://www.w3.org/2000/svg" viewBox="0 0 640 352">
    <path d="M 48 0 Q 28 1 14 14 L 14 14 Q 1 28 0 48 L 0 304 Q 1 324 14 338 Q 28 351 48 352 L 65 352 Q 72 310 102 284 Q 133 257 176 256 Q 219 257 250 284 Q 280 310 287 352 L 488 352 L 496 352 L 608 352 Q 622 352 631 343 Q 640 334 640 320 Q 640 306 631 297 Q 622 288 608 288 L 544 288 L 544 48 Q 543 28 530 14 Q 516 1 496 0 L 48 0 L 48 0 Z M 80 64 Q 95 65 96 80 L 96 211 Q 79 220 64 232 L 64 80 Q 65 65 80 64 L 80 64 Z M 176 192 Q 168 192 160 193 L 160 80 Q 161 65 176 64 Q 191 65 192 80 L 192 193 Q 184 192 176 192 L 176 192 Z M 256 211 L 256 80 Q 257 65 272 64 Q 287 65 288 80 L 288 232 Q 273 220 256 211 L 256 211 Z M 368 64 Q 383 65 384 80 L 384 272 Q 383 287 368 288 Q 353 287 352 272 L 352 80 Q 353 65 368 64 L 368 64 Z M 480 80 L 480 272 Q 479 287 464 288 Q 449 287 448 272 L 448 80 Q 449 65 464 64 Q 479 65 480 80 L 480 80 Z"/>
</svg>
