<svg xmlns="http://www.w3.org/2000/svg" viewBox="0 0 512 448">
    <path d="M 79 96 L 118 0 L 394 0 L 433 96 L 388 96 Q 368 97 359 114 L 345 142 Q 336 159 316 160 L 196 160 Q 176 159 167 142 L 153 114 Q 144 97 124 96 L 79 96 L 79 96 Z M 48 288 L 124 288 Q 144 289 153 306 L 167 334 Q 176 351 196 352 L 316 352 Q 336 351 345 334 L 359 306 Q 368 289 388 288 L 464 288 Q 484 289 498 302 Q 511 316 512 336 L 512 400 Q 511 420 498 434 Q 484 447 464 448 L 48 448 Q 28 447 14 434 Q 1 420 0 400 L 0 336 Q 1 316 14 302 Q 28 289 48 288 L 48 288 Z"/>
</svg>
