<svg xmlns="http://www.w3.org/2000/svg" viewBox="0 0 642 443">
    <path d="M 232 224 L 251 275 Q 268 324 254 374 L 253 378 L 22 294 Q 5 287 2 268 Q 0 248 16 237 L 24 232 Q 77 196 99 137 L 114 97 Q 135 45 182 22 Q 230 0 284 18 Q 291 21 298 24 Q 249 57 230 111 Q 212 166 232 224 L 232 224 Z M 262 213 Q 243 157 266 108 L 266 108 Q 289 58 344 36 Q 399 18 449 41 Q 499 64 520 119 L 539 170 Q 561 228 613 263 L 626 273 Q 642 284 640 303 Q 637 322 620 329 L 322 437 Q 304 443 289 431 Q 276 417 280 398 L 285 383 Q 302 323 281 264 L 262 213 L 262 213 Z"/>
</svg>
