<svg xmlns="http://www.w3.org/2000/svg" viewBox="0 0 640 448">
    <path d="M 90 8 L 104 56 L 152 70 Q 160 72 160 80 Q 160 88 152 90 L 104 104 L 90 152 Q 88 160 80 160 Q 72 160 70 152 L 56 104 L 8 90 Q 0 88 0 80 Q 0 72 8 70 L 56 56 L 70 8 Q 72 0 80 0 Q 88 0 90 8 L 90 8 Z M 570 296 L 584 344 L 632 358 Q 640 360 640 368 Q 640 376 632 378 L 584 392 L 570 440 Q 568 448 560 448 Q 552 448 550 440 L 536 392 L 488 378 Q 480 376 480 368 Q 480 360 488 358 L 536 344 L 550 296 Q 552 288 560 288 Q 568 288 570 296 L 570 296 Z"/>
</svg>
