<svg xmlns="http://www.w3.org/2000/svg" viewBox="0 0 410 410">
    <path d="M 246 65 Q 189 65 137 113 Q 89 165 89 222 Q 89 265 117 293 Q 149 324 200 320 Q 250 317 297 273 Q 345 221 345 164 Q 345 121 317 93 Q 289 65 246 65 L 246 65 Z M 92 68 Q 125 35 165 18 L 165 18 Q 205 1 246 1 Q 313 0 363 48 Q 410 97 409 164 Q 409 205 392 245 Q 375 285 342 318 Q 300 359 247 376 Q 195 392 144 380 Q 121 374 99 377 Q 76 380 60 396 L 45 410 Q 43 406 40 402 L 8 370 Q 4 367 0 365 L 15 350 Q 30 334 33 311 Q 37 289 31 266 Q 25 245 25 222 Q 25 181 42 141 Q 59 101 92 68 L 92 68 Z"/>
</svg>
