<svg xmlns="http://www.w3.org/2000/svg" viewBox="0 0 576 382">
    <path d="M 448 7 Q 448 8 448 10 L 448 10 Q 448 12 448 14 Q 447 48 425 71 Q 402 93 368 94 Q 334 93 311 71 Q 289 48 288 14 Q 288 7 289 0 Q 207 8 142 52 Q 77 96 39 165 Q 1 234 0 318 Q 1 345 19 363 Q 37 381 64 382 L 352 382 Q 366 382 375 373 Q 384 364 384 350 Q 384 336 375 327 Q 366 318 352 318 L 262 318 L 299 281 Q 304 276 308 270 Q 322 248 320 223 Q 317 198 299 179 Q 280 161 255 158 Q 230 156 208 170 Q 202 174 197 179 L 197 179 L 197 179 L 123 250 Q 111 259 100 249 Q 91 237 101 226 L 175 156 Q 207 126 248 126 Q 290 126 322 156 Q 343 178 349 206 Q 356 235 347 262 L 457 373 Q 467 382 480 382 L 544 382 Q 558 382 567 373 Q 576 364 576 350 Q 576 336 567 327 Q 558 318 544 318 L 493 318 L 401 226 L 545 143 Q 575 125 576 91 Q 576 70 564 55 Q 553 39 533 33 L 448 6 L 448 7 Z"/>
</svg>
