<svg xmlns="http://www.w3.org/2000/svg" viewBox="0 0 416 144">
    <path d="M 6 69 L 41 4 Q 43 0 48 0 Q 53 0 55 4 L 90 69 Q 96 80 96 93 L 96 96 Q 96 116 82 130 Q 68 143 48 144 Q 28 143 14 130 Q 1 116 0 96 L 0 93 Q 0 80 6 69 L 6 69 Z M 166 69 L 201 4 Q 203 0 208 0 Q 213 0 215 4 L 250 69 Q 256 80 256 93 L 256 96 Q 256 116 242 130 Q 228 143 208 144 Q 188 143 174 130 Q 161 116 160 96 L 160 93 Q 160 80 166 69 L 166 69 Z M 361 4 Q 363 0 368 0 Q 373 0 375 4 L 410 69 Q 416 80 416 93 L 416 96 Q 416 116 402 130 Q 388 143 368 144 Q 348 143 334 130 Q 321 116 320 96 L 320 93 Q 320 80 326 69 L 361 4 L 361 4 Z"/>
</svg>
