<svg xmlns="http://www.w3.org/2000/svg" viewBox="0 0 480 352">
    <path d="M 64 0 Q 37 1 19 19 L 19 19 Q 1 37 0 64 L 0 288 Q 1 315 19 333 Q 37 351 64 352 L 416 352 Q 443 351 461 333 Q 479 315 480 288 L 480 64 Q 479 37 461 19 Q 443 1 416 0 L 64 0 L 64 0 Z M 176 128 Q 177 92 208 73 Q 240 55 272 73 Q 303 92 304 128 Q 303 164 272 183 Q 240 201 208 183 Q 177 164 176 128 L 176 128 Z M 128 270 Q 128 250 141 237 L 141 237 Q 154 224 174 224 L 306 224 Q 326 224 339 237 Q 352 250 352 270 Q 350 286 334 288 L 146 288 Q 130 286 128 270 L 128 270 Z"/>
</svg>
