<svg xmlns="http://www.w3.org/2000/svg" viewBox="0 0 448 448">
    <path d="M 34 448 L 118 448 Q 194 447 257 407 Q 265 401 262 393 Q 259 385 249 384 Q 241 383 240 375 Q 240 368 246 366 L 327 342 Q 331 341 334 338 L 357 315 Q 364 307 360 298 Q 356 289 345 288 L 313 288 Q 305 287 304 279 Q 304 272 310 270 L 422 236 Q 429 235 432 229 Q 448 197 448 160 Q 447 96 403 51 L 397 45 Q 352 1 288 0 Q 224 1 179 45 L 75 149 Q 39 185 20 232 Q 0 279 0 330 L 0 414 L 247 167 Q 264 153 281 167 Q 295 184 281 201 L 34 448 L 34 448 Z"/>
</svg>
