<svg xmlns="http://www.w3.org/2000/svg" viewBox="0 0 256 320">
    <path d="M 128 0 Q 108 1 94 14 L 94 14 Q 81 28 80 48 L 80 160 Q 81 180 94 194 Q 108 207 128 208 Q 148 207 162 194 Q 175 180 176 160 L 176 48 Q 175 28 162 14 Q 148 1 128 0 L 128 0 Z M 32 144 Q 31 129 16 128 Q 1 129 0 144 L 0 160 Q 1 210 32 245 Q 64 280 112 287 L 112 304 Q 113 319 128 320 Q 143 319 144 304 L 144 287 Q 192 280 224 245 Q 255 210 256 160 L 256 144 Q 255 129 240 128 Q 225 129 224 144 L 224 160 Q 223 201 196 228 Q 169 255 128 256 Q 87 255 60 228 Q 33 201 32 160 L 32 144 L 32 144 Z"/>
</svg>
