<svg xmlns="http://www.w3.org/2000/svg" viewBox="0 0 512 512">
    <path d="M 288 96 Q 289 55 316 28 L 316 28 Q 343 1 384 0 L 422 0 Q 460 1 486 26 Q 511 52 512 90 L 512 176 L 512 192 L 512 360 Q 510 425 467 467 Q 425 510 360 512 Q 295 510 253 467 Q 210 425 208 360 L 208 312 Q 207 288 192 272 Q 176 257 152 256 Q 128 257 112 272 Q 97 288 96 312 L 96 464 Q 95 484 82 498 Q 68 511 48 512 Q 28 511 14 498 Q 1 484 0 464 L 0 312 Q 2 247 45 205 Q 87 162 152 160 Q 217 162 259 205 Q 302 247 304 312 L 304 360 Q 305 384 320 400 Q 336 415 360 416 Q 384 415 400 400 Q 415 384 416 360 L 416 192 L 384 192 Q 343 191 316 164 Q 289 137 288 96 L 288 96 Z M 432 88 Q 430 66 408 64 Q 386 66 384 88 Q 386 110 408 112 Q 430 110 432 88 L 432 88 Z"/>
</svg>
