<svg xmlns="http://www.w3.org/2000/svg" viewBox="0 0 574 456">
    <path d="M 501 128 Q 537 127 556 96 Q 574 64 556 32 Q 537 1 501 0 Q 465 1 446 32 Q 428 64 446 96 Q 465 127 501 128 L 501 128 Z M 213 64 Q 137 65 80 108 L 80 108 Q 23 150 0 219 L 18 237 Q 37 256 64 256 L 97 256 Q 117 256 131 270 L 181 320 L 181 352 Q 181 366 190 375 Q 199 384 213 384 L 213 431 Q 215 454 238 456 Q 253 455 260 443 L 301 366 Q 309 352 309 336 L 309 320 Q 309 306 300 297 Q 291 288 277 288 L 211 288 Q 197 288 187 278 Q 178 268 177 255 Q 176 243 185 232 L 238 169 Q 245 160 245 148 L 245 66 Q 229 64 213 64 L 213 64 Z"/>
</svg>
