<svg xmlns="http://www.w3.org/2000/svg" viewBox="0 0 640 512">
    <path d="M 64 64 L 64 192 L 192 192 L 192 64 L 64 64 L 64 64 Z M 0 64 Q 1 37 19 19 L 19 19 Q 37 1 64 0 L 192 0 Q 219 1 237 19 Q 255 37 256 64 L 256 192 Q 255 219 237 237 Q 219 255 192 256 L 64 256 Q 37 255 19 237 Q 1 219 0 192 L 0 64 L 0 64 Z M 448 320 L 448 448 L 576 448 L 576 320 L 448 320 L 448 320 Z M 384 320 Q 385 293 403 275 L 403 275 Q 421 257 448 256 L 576 256 Q 603 257 621 275 Q 639 293 640 320 L 640 448 Q 639 475 621 493 Q 603 511 576 512 L 448 512 Q 421 511 403 493 Q 385 475 384 448 L 384 320 L 384 320 Z"/>
</svg>
