<svg xmlns="http://www.w3.org/2000/svg" viewBox="0 0 448 448">
    <path d="M 160 32 Q 160 46 151 55 L 151 55 Q 142 64 128 64 Q 114 64 105 55 Q 96 46 96 32 Q 96 18 105 9 Q 114 0 128 0 Q 142 0 151 9 Q 160 18 160 32 L 160 32 Z M 32 160 Q 18 160 9 151 L 9 151 Q 0 142 0 128 Q 0 114 9 105 Q 18 96 32 96 Q 46 96 55 105 Q 64 114 64 128 Q 64 142 55 151 Q 46 160 32 160 L 32 160 Z M 32 352 Q 18 352 9 343 L 9 343 Q 0 334 0 320 Q 0 306 9 297 Q 18 288 32 288 Q 46 288 55 297 Q 64 306 64 320 Q 64 334 55 343 Q 46 352 32 352 L 32 352 Z M 128 256 Q 114 256 105 247 L 105 247 Q 96 238 96 224 Q 96 210 105 201 Q 114 192 128 192 Q 142 192 151 201 Q 160 210 160 224 Q 160 238 151 247 Q 142 256 128 256 L 128 256 Z M 160 416 Q 160 430 151 439 L 151 439 Q 142 448 128 448 Q 114 448 105 439 Q 96 430 96 416 Q 96 402 105 393 Q 114 384 128 384 Q 142 384 151 393 Q 160 402 160 416 L 160 416 Z M 224 160 Q 210 160 201 151 L 201 151 Q 192 142 192 128 Q 192 114 201 105 Q 210 96 224 96 Q 238 96 247 105 Q 256 114 256 128 Q 256 142 247 151 Q 238 160 224 160 L 224 160 Z M 256 320 Q 256 334 247 343 L 247 343 Q 238 352 224 352 Q 210 352 201 343 Q 192 334 192 320 Q 192 306 201 297 Q 210 288 224 288 Q 238 288 247 297 Q 256 306 256 320 L 256 320 Z M 320 64 Q 306 64 297 55 L 297 55 Q 288 46 288 32 Q 288 18 297 9 Q 306 0 320 0 Q 334 0 343 9 Q 352 18 352 32 Q 352 46 343 55 Q 334 64 320 64 L 320 64 Z M 352 224 Q 352 238 343 247 L 343 247 Q 334 256 320 256 Q 306 256 297 247 Q 288 238 288 224 Q 288 210 297 201 Q 306 192 320 192 Q 334 192 343 201 Q 352 210 352 224 L 352 224 Z M 320 448 Q 306 448 297 439 L 297 439 Q 288 430 288 416 Q 288 402 297 393 Q 306 384 320 384 Q 334 384 343 393 Q 352 402 352 416 Q 352 430 343 439 Q 334 448 320 448 L 320 448 Z M 448 128 Q 448 142 439 151 L 439 151 Q 430 160 416 160 Q 402 160 393 151 Q 384 142 384 128 Q 384 114 393 105 Q 402 96 416 96 Q 430 96 439 105 Q 448 114 448 128 L 448 128 Z M 416 352 Q 402 352 393 343 L 393 343 Q 384 334 384 320 Q 384 306 393 297 Q 402 288 416 288 Q 430 288 439 297 Q 448 306 448 320 Q 448 334 439 343 Q 430 352 416 352 L 416 352 Z"/>
</svg>
