<svg xmlns="http://www.w3.org/2000/svg" viewBox="0 0 465 373">
    <path d="M 227 10 Q 237 21 227 32 L 220 40 Q 183 76 133 84 L 131 85 Q 116 86 112 72 Q 111 57 125 53 L 128 53 Q 168 46 197 17 L 205 10 Q 216 0 227 10 L 227 10 Z M 208 101 Q 221 101 230 110 L 230 110 Q 239 119 240 133 Q 239 147 230 156 Q 221 165 208 165 Q 194 165 185 156 Q 176 147 176 133 Q 176 119 185 110 Q 194 101 208 101 L 208 101 Z M 368 101 Q 381 101 390 110 L 390 110 Q 399 119 400 133 Q 399 147 390 156 Q 381 165 368 165 Q 354 165 345 156 Q 336 147 336 133 Q 336 119 345 110 Q 354 101 368 101 L 368 101 Z M 349 32 Q 339 21 349 10 Q 360 0 371 10 L 379 17 Q 408 46 448 53 L 451 53 Q 465 57 464 72 Q 460 86 446 85 L 443 84 Q 393 76 356 40 L 349 32 L 349 32 Z M 352 264 L 352 309 Q 351 336 333 354 Q 315 372 288 373 Q 261 372 243 354 Q 225 336 224 309 L 224 264 Q 226 239 251 237 L 253 237 Q 271 238 276 256 Q 279 265 288 265 Q 297 265 300 256 Q 305 238 323 237 L 325 237 Q 350 239 352 264 L 352 264 Z M 48 277 Q 28 277 14 263 L 14 263 Q 1 250 0 230 Q 1 214 16 190 Q 30 167 42 152 Q 48 146 54 152 Q 66 167 80 190 Q 95 214 96 230 Q 95 250 82 263 Q 68 277 48 277 L 48 277 Z"/>
</svg>
