<svg xmlns="http://www.w3.org/2000/svg" viewBox="0 0 576 448">
    <path d="M 64 0 L 224 0 L 224 64 L 208 64 Q 193 65 192 80 Q 193 95 208 96 L 368 96 Q 383 95 384 80 Q 383 65 368 64 L 352 64 L 352 0 L 512 0 Q 539 1 557 19 Q 575 37 576 64 L 576 384 Q 575 411 557 429 Q 539 447 512 448 L 64 448 Q 37 447 19 429 Q 1 411 0 384 L 0 64 Q 1 37 19 19 Q 37 1 64 0 L 64 0 Z M 176 373 Q 177 383 187 384 L 389 384 Q 399 383 400 373 Q 399 351 384 336 Q 369 321 347 320 L 229 320 Q 207 321 192 336 Q 177 351 176 373 L 176 373 Z M 288 288 Q 324 287 343 256 Q 361 224 343 192 Q 324 161 288 160 Q 252 161 233 192 Q 215 224 233 256 Q 252 287 288 288 L 288 288 Z"/>
</svg>
