<svg xmlns="http://www.w3.org/2000/svg" viewBox="0 0 224 487">
    <path d="M 96 128 Q 132 127 151 96 Q 169 64 151 32 Q 132 1 96 0 Q 60 1 41 32 Q 23 64 41 96 Q 60 127 96 128 L 96 128 Z M 64 160 Q 37 161 19 179 L 19 179 Q 1 197 0 224 L 0 256 Q 0 270 9 279 Q 18 288 32 288 L 160 288 Q 174 288 183 279 Q 192 270 192 256 L 192 224 Q 191 197 173 179 Q 155 161 128 160 L 64 160 L 64 160 Z M 0 400 Q 0 411 8 418 L 72 474 Q 90 487 106 472 Q 119 454 104 438 L 88 424 L 200 424 Q 222 422 224 400 Q 222 378 200 376 L 88 376 L 104 362 Q 119 346 106 328 Q 90 313 72 326 L 8 382 Q 0 389 0 400 L 0 400 Z"/>
</svg>
