<svg xmlns="http://www.w3.org/2000/svg" viewBox="0 0 512 406">
    <path d="M 512 224 L 512 208 Q 510 120 451 61 Q 392 2 304 0 Q 288 0 275 9 L 228 40 Q 217 50 222 65 Q 224 72 224 80 Q 223 100 210 114 Q 196 127 176 128 Q 158 128 145 116 Q 132 106 119 113 L 29 173 Q 2 192 0 224 L 332 224 Q 320 237 320 256 Q 321 276 334 290 Q 348 303 368 304 Q 388 303 402 290 Q 415 276 416 256 Q 416 237 404 224 L 512 224 L 512 224 Z M 224 352 Q 223 325 200 310 Q 176 298 152 310 Q 129 325 128 352 Q 129 379 152 394 Q 176 406 200 394 Q 223 379 224 352 L 224 352 Z"/>
</svg>
