<svg xmlns="http://www.w3.org/2000/svg" viewBox="0 0 512 417">
    <path d="M 122 138 Q 121 144 119 150 Q 110 174 98 193 Q 97 195 96 197 Q 96 197 96 197 Q 85 214 75 238 Q 65 263 64 304 Q 67 378 117 415 Q 100 414 73 404 Q 45 394 23 367 Q 1 340 0 288 Q 1 247 26 220 Q 51 192 83 169 Q 83 169 83 169 Q 104 154 122 138 L 122 138 Z M 314 416 Q 365 378 368 304 Q 367 265 355 241 Q 344 216 329 198 Q 329 198 329 198 L 329 198 Q 328 196 327 195 Q 326 194 325 193 Q 310 174 300 149 Q 289 124 288 80 L 288 0 L 304 0 Q 324 1 338 14 Q 352 28 352 48 L 352 64 Q 353 98 376 123 Q 398 147 429 169 Q 429 169 429 169 Q 461 192 486 220 Q 511 247 512 288 Q 510 351 479 378 Q 448 405 417 411 Q 386 417 384 416 L 314 416 L 314 416 Z M 256 0 L 256 80 Q 257 130 270 161 Q 283 192 299 212 Q 301 214 303 216 L 303 216 Q 303 216 303 216 Q 317 234 326 254 Q 336 273 336 304 Q 335 356 300 386 Q 266 415 216 416 Q 166 415 132 386 Q 97 356 96 304 Q 97 269 105 249 Q 112 231 123 213 Q 123 213 123 213 L 126 209 Q 139 189 149 159 Q 160 129 160 80 L 160 64 L 160 48 Q 161 28 174 14 Q 188 1 208 0 L 256 0 L 256 0 Z"/>
</svg>
