<svg xmlns="http://www.w3.org/2000/svg" viewBox="0 0 448 448">
    <path d="M 0 16 Q 1 1 16 0 L 48 0 Q 63 1 64 16 L 64 48 Q 63 63 48 64 L 16 64 Q 1 63 0 48 L 0 16 L 0 16 Z M 0 208 Q 1 193 16 192 L 48 192 Q 63 193 64 208 L 64 240 Q 63 255 48 256 L 16 256 Q 1 255 0 240 L 0 208 L 0 208 Z M 16 384 L 48 384 Q 63 385 64 400 L 64 432 Q 63 447 48 448 L 16 448 Q 1 447 0 432 L 0 400 Q 1 385 16 384 L 16 384 Z M 96 112 Q 97 97 112 96 L 144 96 Q 159 97 160 112 L 160 144 Q 159 159 144 160 L 112 160 Q 97 159 96 144 L 96 112 L 96 112 Z M 112 288 L 144 288 Q 159 289 160 304 L 160 336 Q 159 351 144 352 L 112 352 Q 97 351 96 336 L 96 304 Q 97 289 112 288 L 112 288 Z M 192 16 Q 193 1 208 0 L 240 0 Q 255 1 256 16 L 256 48 Q 255 63 240 64 L 208 64 Q 193 63 192 48 L 192 16 L 192 16 Z M 208 192 L 240 192 Q 255 193 256 208 L 256 240 Q 255 255 240 256 L 208 256 Q 193 255 192 240 L 192 208 Q 193 193 208 192 L 208 192 Z M 192 400 Q 193 385 208 384 L 240 384 Q 255 385 256 400 L 256 432 Q 255 447 240 448 L 208 448 Q 193 447 192 432 L 192 400 L 192 400 Z M 304 96 L 336 96 Q 351 97 352 112 L 352 144 Q 351 159 336 160 L 304 160 Q 289 159 288 144 L 288 112 Q 289 97 304 96 L 304 96 Z M 288 304 Q 289 289 304 288 L 336 288 Q 351 289 352 304 L 352 336 Q 351 351 336 352 L 304 352 Q 289 351 288 336 L 288 304 L 288 304 Z M 400 0 L 432 0 Q 447 1 448 16 L 448 48 Q 447 63 432 64 L 400 64 Q 385 63 384 48 L 384 16 Q 385 1 400 0 L 400 0 Z M 384 208 Q 385 193 400 192 L 432 192 Q 447 193 448 208 L 448 240 Q 447 255 432 256 L 400 256 Q 385 255 384 240 L 384 208 L 384 208 Z M 400 384 L 432 384 Q 447 385 448 400 L 448 432 Q 447 447 432 448 L 400 448 Q 385 447 384 432 L 384 400 Q 385 385 400 384 L 400 384 Z"/>
</svg>
