<svg xmlns="http://www.w3.org/2000/svg" viewBox="0 0 384 384">
    <path d="M 334 374 L 334 374 L 334 374 Q 339 383 349 384 Q 360 384 364 374 Q 384 326 384 272 Q 383 196 347 135 Q 311 73 249 37 Q 188 1 112 0 Q 58 0 10 20 Q 0 24 0 35 Q 1 46 11 50 L 11 50 L 11 50 L 11 50 L 12 50 Q 12 50 13 51 Q 14 51 15 51 Q 19 53 28 57 Q 44 64 73 80 Q 101 96 136 120 Q 170 145 205 180 Q 239 214 264 249 Q 289 283 304 312 Q 320 340 327 357 Q 331 365 333 370 Q 334 371 334 373 Q 334 373 334 373 L 334 374 L 335 374 L 334 374 Z"/>
</svg>
