<svg xmlns="http://www.w3.org/2000/svg" viewBox="0 0 512 144">
    <path d="M 183 144 L 105 144 Q 87 144 74 133 Q 61 122 57 104 L 51 64 L 16 64 Q 1 63 0 48 Q 1 33 16 32 L 51 32 Q 63 2 97 0 L 191 0 Q 214 1 227 16 L 285 16 Q 299 1 321 0 L 416 0 Q 449 2 461 32 L 496 32 Q 511 33 512 48 Q 511 63 496 64 L 461 64 L 455 104 Q 451 122 438 133 Q 425 144 407 144 L 329 144 Q 311 144 298 133 Q 285 122 281 104 L 273 56 Q 273 52 273 48 L 239 48 Q 239 52 239 56 L 231 104 Q 227 122 214 133 Q 201 144 183 144 L 183 144 Z"/>
</svg>
