<svg xmlns="http://www.w3.org/2000/svg" viewBox="0 0 320 224">
    <path d="M 173 128 L 205 160 L 288 160 L 288 192 L 237 192 L 269 224 L 304 224 Q 319 223 320 208 L 320 144 Q 319 129 304 128 L 173 128 L 173 128 Z M 83 128 L 16 128 Q 1 129 0 144 L 0 208 Q 1 223 16 224 L 179 224 L 83 128 L 83 128 Z M 192 16 Q 191 1 176 0 Q 161 1 160 16 Q 161 36 174 50 Q 188 63 208 64 L 240 64 Q 255 65 256 80 Q 257 95 272 96 Q 287 95 288 80 Q 287 60 274 46 Q 260 33 240 32 L 208 32 Q 193 31 192 16 L 192 16 Z"/>
</svg>
