<svg xmlns="http://www.w3.org/2000/svg" viewBox="0 0 510 352">
    <path d="M 248 0 Q 226 2 224 24 Q 226 46 248 48 L 306 48 L 322 78 L 224 160 L 179 115 Q 160 96 133 96 L 32 96 Q 18 96 9 105 Q 0 114 0 128 L 0 160 L 96 160 Q 164 162 209 207 Q 254 252 256 320 Q 256 337 253 352 L 323 352 Q 320 337 320 320 Q 320 280 337 247 Q 354 214 384 192 L 459 331 Q 471 350 491 341 Q 510 329 501 309 L 386 96 L 448 96 Q 462 96 471 87 Q 480 78 480 64 L 480 32 Q 480 18 471 9 Q 462 0 448 0 L 428 0 Q 416 0 407 7 L 360 47 L 346 21 Q 334 1 311 0 L 248 0 L 248 0 Z M 96 352 Q 110 352 119 343 L 119 343 Q 128 334 128 320 Q 128 306 119 297 Q 110 288 96 288 Q 82 288 73 297 Q 64 306 64 320 Q 64 334 73 343 Q 82 352 96 352 L 96 352 Z"/>
</svg>
