<svg xmlns="http://www.w3.org/2000/svg" viewBox="0 0 515 517">
    <path d="M 141 221 L 237 121 Q 258 98 257 69 Q 256 39 233 17 Q 211 0 185 2 Q 158 4 139 24 L 129 34 L 119 24 Q 99 4 73 2 Q 47 0 26 17 Q 2 39 1 69 Q 0 98 21 121 L 118 221 Q 129 231 141 221 L 141 221 Z M 474 261 Q 464 254 455 262 L 327 374 Q 319 381 322 392 Q 326 402 337 402 L 393 402 L 354 492 Q 350 503 360 511 Q 370 517 380 510 L 508 398 Q 515 391 512 380 Q 508 370 497 370 L 441 370 L 480 280 Q 484 269 474 261 L 474 261 Z"/>
</svg>
