<svg xmlns="http://www.w3.org/2000/svg" viewBox="0 0 644 201">
    <path d="M 7 16 Q 15 5 28 3 L 28 3 Q 40 0 52 7 L 52 7 L 52 8 Q 52 8 53 8 Q 53 8 55 9 Q 58 11 66 15 Q 82 24 116 36 Q 150 47 201 56 Q 253 66 322 66 Q 391 66 443 56 Q 494 47 528 36 Q 562 24 578 15 Q 586 11 589 9 Q 590 9 590 9 Q 591 8 592 8 L 592 7 L 592 7 L 592 7 Q 604 0 616 3 Q 629 5 637 16 Q 644 28 641 40 Q 639 53 628 61 L 610 34 Q 623 53 626 57 Q 628 61 628 61 L 628 61 L 628 61 L 627 61 L 627 61 Q 627 61 627 61 Q 626 61 626 62 Q 625 62 625 62 Q 624 63 622 64 Q 616 68 606 73 Q 586 83 548 96 Q 533 101 515 106 L 534 161 Q 518 159 502 165 Q 486 171 474 182 L 452 120 Q 408 127 354 129 L 354 201 Q 339 194 322 194 Q 305 194 290 201 L 290 129 Q 236 127 193 120 L 170 182 Q 158 171 142 165 Q 126 160 110 161 L 130 106 Q 111 101 96 96 Q 58 83 38 73 Q 28 68 23 64 Q 21 63 19 62 Q 19 62 18 62 Q 18 62 17 61 Q 17 61 17 61 L 17 61 L 17 61 L 17 61 L 17 61 Q 16 62 19 57 Q 22 53 34 34 L 16 61 Q 5 53 3 40 Q 0 28 7 16 L 7 16 Z"/>
</svg>
