<svg xmlns="http://www.w3.org/2000/svg" viewBox="0 0 448 512">
    <path d="M 0 64 Q 1 37 19 19 L 19 19 Q 37 1 64 0 L 384 0 Q 411 1 429 19 Q 447 37 448 64 L 448 352 Q 447 379 429 397 Q 411 415 384 416 L 310 416 L 369 453 Q 388 466 383 489 Q 375 511 352 512 L 96 512 Q 73 511 65 489 Q 60 466 79 453 L 138 416 L 64 416 Q 37 415 19 397 Q 1 379 0 352 L 0 64 L 0 64 Z M 224 336 Q 259 336 288 319 L 288 319 Q 317 302 335 272 Q 352 242 352 208 Q 352 174 335 144 Q 317 114 288 97 Q 259 80 224 80 Q 189 80 160 97 Q 131 114 113 144 Q 96 174 96 208 Q 96 242 113 272 Q 131 302 160 319 Q 189 336 224 336 L 224 336 Z"/>
</svg>
