<svg xmlns="http://www.w3.org/2000/svg" viewBox="0 0 512 512">
    <path d="M 0 56 Q 1 32 16 16 L 16 16 Q 32 1 56 0 L 136 0 Q 158 2 160 24 Q 158 46 136 48 L 56 48 Q 49 49 48 56 L 48 136 Q 46 158 24 160 Q 2 158 0 136 L 0 56 L 0 56 Z M 352 24 Q 354 2 376 0 L 456 0 Q 480 1 496 16 Q 511 32 512 56 L 512 136 Q 510 158 488 160 Q 466 158 464 136 L 464 56 Q 463 49 456 48 L 376 48 Q 354 46 352 24 L 352 24 Z M 24 352 Q 46 354 48 376 L 48 456 Q 49 463 56 464 L 136 464 Q 158 466 160 488 Q 158 510 136 512 L 56 512 Q 32 511 16 496 Q 1 480 0 456 L 0 376 Q 2 354 24 352 L 24 352 Z M 488 352 Q 510 354 512 376 L 512 456 Q 511 480 496 496 Q 480 511 456 512 L 376 512 Q 354 510 352 488 Q 354 466 376 464 L 456 464 Q 463 463 464 456 L 464 376 Q 466 354 488 352 L 488 352 Z"/>
</svg>
