<svg xmlns="http://www.w3.org/2000/svg" viewBox="0 0 486 486">
    <path d="M 432 96 Q 459 95 474 72 Q 486 48 474 24 Q 459 1 432 0 Q 405 1 390 24 Q 378 48 390 72 Q 405 95 432 96 L 432 96 Z M 304 224 Q 331 223 346 200 Q 358 176 346 152 Q 331 129 304 128 Q 277 129 262 152 Q 250 176 262 200 Q 277 223 304 224 L 304 224 Z M 352 304 Q 351 277 328 262 Q 304 250 280 262 Q 257 277 256 304 Q 257 331 280 346 Q 304 358 328 346 Q 351 331 352 304 L 352 304 Z M 304 480 Q 331 479 346 456 Q 358 432 346 408 Q 331 385 304 384 Q 277 385 262 408 Q 250 432 262 456 Q 277 479 304 480 L 304 480 Z M 432 480 Q 459 479 474 456 Q 486 432 474 408 Q 459 385 432 384 Q 405 385 390 408 Q 378 432 390 456 Q 405 479 432 480 L 432 480 Z M 224 304 Q 223 277 200 262 Q 176 250 152 262 Q 129 277 128 304 Q 129 331 152 346 Q 176 358 200 346 Q 223 331 224 304 L 224 304 Z M 176 480 Q 203 479 218 456 Q 230 432 218 408 Q 203 385 176 384 Q 149 385 134 408 Q 122 432 134 456 Q 149 479 176 480 L 176 480 Z M 96 432 Q 95 405 72 390 Q 48 378 24 390 Q 1 405 0 432 Q 1 459 24 474 Q 48 486 72 474 Q 95 459 96 432 L 96 432 Z M 432 352 Q 459 351 474 328 Q 486 304 474 280 Q 459 257 432 256 Q 405 257 390 280 Q 378 304 390 328 Q 405 351 432 352 L 432 352 Z M 480 176 Q 479 149 456 134 Q 432 122 408 134 Q 385 149 384 176 Q 385 203 408 218 Q 432 230 456 218 Q 479 203 480 176 L 480 176 Z"/>
</svg>
