<svg xmlns="http://www.w3.org/2000/svg" viewBox="0 0 448 478">
    <path d="M 170 7 Q 179 15 174 26 L 138 99 L 192 99 Q 203 100 207 110 Q 210 121 202 128 L 74 224 Q 64 230 54 223 Q 45 215 50 204 L 86 131 L 32 131 Q 21 130 17 120 Q 14 109 22 102 L 150 6 Q 161 0 170 7 L 170 7 Z M 0 387 Q 1 342 40 318 Q 80 296 120 318 Q 159 342 160 387 Q 159 432 120 456 Q 80 478 40 456 Q 1 432 0 387 L 0 387 Z M 288 387 Q 289 342 328 318 Q 368 296 408 318 Q 447 342 448 387 Q 447 432 408 456 Q 368 478 328 456 Q 289 432 288 387 L 288 387 Z"/>
</svg>
