<svg xmlns="http://www.w3.org/2000/svg" viewBox="0 0 384 416">
    <path d="M 160 80 Q 158 118 134 157 L 134 157 Q 110 197 91 219 Q 80 230 69 219 Q 50 197 26 157 Q 2 118 0 80 Q 1 46 23 23 Q 46 1 80 0 Q 114 1 137 23 Q 159 46 160 80 L 160 80 Z M 112 80 Q 112 66 103 57 L 103 57 Q 94 48 80 48 Q 66 48 57 57 Q 48 66 48 80 Q 48 94 57 103 Q 66 112 80 112 Q 94 112 103 103 Q 112 94 112 80 L 112 80 Z M 203 280 Q 229 261 248 235 L 375 361 Q 384 371 384 384 Q 384 397 375 407 Q 365 416 352 416 Q 339 416 329 407 L 203 280 L 203 280 Z"/>
</svg>
