<svg xmlns="http://www.w3.org/2000/svg" viewBox="0 0 426 512">
    <path d="M 238 25 Q 259 1 291 0 Q 321 1 341 21 Q 361 41 362 71 L 362 74 Q 362 102 344 123 L 187 304 Q 173 320 151 320 L 18 320 Q 8 320 4 311 Q 0 301 6 294 L 238 25 L 238 25 Z M 90 480 L 154 480 Q 169 481 170 496 Q 169 511 154 512 L 90 512 Q 75 511 74 496 Q 75 481 90 480 L 90 480 Z M 218 480 L 282 480 Q 297 481 298 496 Q 297 511 282 512 L 218 512 Q 203 511 202 496 Q 203 481 218 480 L 218 480 Z M 346 480 L 410 480 Q 425 481 426 496 Q 425 511 410 512 L 346 512 Q 331 511 330 496 Q 331 481 346 480 L 346 480 Z"/>
</svg>
