<svg xmlns="http://www.w3.org/2000/svg" viewBox="0 0 512 515">
    <path d="M 270 6 Q 256 0 242 6 L 82 86 Q 70 93 66 105 Q 62 117 67 129 Q 77 147 96 147 L 96 227 Q 96 241 105 250 Q 114 259 128 259 L 133 259 L 198 259 L 314 259 L 379 259 L 384 259 Q 398 259 407 250 Q 416 241 416 227 L 416 147 Q 435 147 445 129 Q 450 117 446 105 Q 442 93 430 86 L 270 6 L 270 6 Z M 480 451 L 411 451 L 315 451 L 198 451 L 101 451 L 32 451 Q 18 451 9 460 Q 0 469 0 483 Q 0 497 9 506 Q 18 515 32 515 L 128 515 Q 128 515 128 515 Q 128 515 129 515 L 383 515 Q 384 515 384 515 Q 384 515 385 515 L 480 515 Q 494 515 503 506 Q 512 497 512 483 Q 512 469 503 460 Q 494 451 480 451 L 480 451 Z M 160 147 Q 161 132 176 131 L 336 131 Q 351 132 352 147 Q 351 162 336 163 L 176 163 Q 161 162 160 147 L 160 147 Z"/>
</svg>
