<svg xmlns="http://www.w3.org/2000/svg" viewBox="0 0 480 480">
    <path d="M 16 24 Q 18 46 40 48 L 440 48 Q 462 46 464 24 Q 462 2 440 0 L 40 0 Q 18 2 16 24 L 16 24 Z M 240 480 Q 318 479 370 440 L 370 440 Q 422 402 424 344 Q 422 286 370 248 Q 318 209 240 208 Q 162 209 110 248 Q 58 286 56 344 Q 58 402 110 440 Q 162 479 240 480 L 240 480 Z M 240 376 Q 226 376 217 369 L 217 369 Q 208 362 208 352 Q 208 342 217 335 Q 226 328 240 328 Q 254 328 263 335 Q 272 342 272 352 Q 272 362 263 369 Q 254 376 240 376 L 240 376 Z M 24 80 Q 2 82 0 104 Q 2 126 24 128 L 456 128 Q 478 126 480 104 Q 478 82 456 80 L 24 80 L 24 80 Z"/>
</svg>
