<svg xmlns="http://www.w3.org/2000/svg" viewBox="0 0 544 160">
    <path d="M 145 19 Q 171 0 202 0 Q 244 1 272 31 Q 300 1 342 0 Q 373 0 399 19 L 412 29 Q 438 48 470 48 Q 492 48 513 38 L 521 34 Q 524 32 527 32 Q 530 32 532 33 Q 532 33 532 33 Q 533 33 533 33 Q 536 34 539 36 Q 541 38 542 40 Q 542 40 543 41 Q 543 41 543 42 Q 544 44 544 46 Q 544 49 543 53 Q 526 97 484 127 Q 465 141 443 150 Q 420 159 399 160 Q 374 159 349 148 Q 325 138 309 123 Q 299 112 309 100 Q 320 91 331 100 Q 341 110 362 119 Q 382 127 399 128 Q 429 127 465 101 Q 480 90 491 78 Q 480 80 469 80 Q 427 79 392 54 L 379 44 Q 363 32 342 32 Q 312 32 293 55 L 285 65 Q 284 66 283 67 Q 281 69 279 70 Q 272 73 265 70 Q 263 69 260 67 Q 260 66 259 65 L 251 55 Q 232 32 202 32 Q 181 32 164 44 L 151 54 Q 117 79 74 80 Q 64 80 53 78 Q 64 90 78 101 Q 115 127 144 128 Q 161 127 182 119 Q 203 110 212 100 Q 224 91 235 100 Q 244 112 235 123 Q 219 138 194 148 Q 170 159 145 160 Q 124 160 101 151 Q 79 141 60 127 Q 18 97 1 53 Q 1 53 1 52 Q 0 50 0 47 Q 0 44 2 41 Q 3 38 6 36 Q 8 34 10 33 Q 11 33 11 33 Q 11 33 11 33 Q 17 31 23 33 Q 23 33 23 34 Q 23 34 23 34 L 31 38 Q 52 48 75 48 Q 107 48 132 29 L 145 19 L 145 19 Z"/>
</svg>
