<svg xmlns="http://www.w3.org/2000/svg" viewBox="0 0 352 514">
    <path d="M 225 128 Q 233 128 240 129 Q 241 93 229 59 Q 240 32 262 10 L 266 6 Q 272 0 280 0 Q 295 1 299 15 L 300 20 Q 314 86 279 142 Q 288 147 295 153 L 330 181 Q 351 199 352 228 Q 351 253 334 270 Q 317 287 292 288 L 256 288 L 256 314 L 318 468 Q 322 481 317 493 Q 312 504 300 510 Q 287 514 275 509 Q 264 504 258 492 L 219 393 L 170 448 L 192 448 Q 206 448 215 457 Q 224 466 224 480 Q 224 494 215 503 Q 206 512 192 512 L 112 512 L 64 512 Q 37 511 19 493 Q 1 475 0 448 L 0 432 Q 1 359 46 307 Q 90 256 160 243 L 160 193 Q 160 177 167 163 Q 142 135 130 100 Q 119 64 124 26 L 125 21 Q 129 2 150 0 Q 160 0 167 7 L 170 10 Q 219 61 216 129 Q 220 128 225 128 L 225 128 Z M 272 224 Q 287 223 288 208 Q 287 193 272 192 Q 257 193 256 208 Q 257 223 272 224 L 272 224 Z"/>
</svg>
