<svg xmlns="http://www.w3.org/2000/svg" viewBox="0 0 432 432">
    <path d="M 280 24 Q 280 47 266 64 Q 303 76 329 103 Q 356 130 368 166 Q 385 152 408 152 Q 421 152 432 157 Q 416 99 374 58 Q 333 16 275 0 Q 280 11 280 24 L 280 24 Z M 432 275 Q 421 280 408 280 Q 385 280 368 266 Q 356 303 329 329 Q 302 356 266 368 Q 280 385 280 408 Q 280 421 275 432 Q 333 416 374 374 Q 416 333 432 275 L 432 275 Z M 157 432 Q 152 421 152 408 Q 152 385 166 368 Q 129 356 103 329 Q 76 302 64 266 Q 47 280 24 280 Q 11 280 0 275 Q 16 333 58 374 Q 99 416 157 432 L 157 432 Z M 157 0 Q 99 16 58 58 L 58 58 Q 16 99 0 157 Q 11 152 24 152 Q 47 152 64 166 Q 76 129 103 103 Q 130 76 166 64 Q 152 47 152 24 Q 152 11 157 0 L 157 0 Z"/>
</svg>
