<svg xmlns="http://www.w3.org/2000/svg" viewBox="0 0 384 512">
    <path d="M 64 0 Q 37 1 19 19 L 19 19 Q 1 37 0 64 L 0 448 Q 1 475 19 493 Q 37 511 64 512 L 320 512 Q 347 511 365 493 Q 383 475 384 448 L 384 160 L 256 160 Q 242 160 233 151 Q 224 142 224 128 L 224 0 L 64 0 L 64 0 Z M 64 80 Q 65 65 80 64 L 144 64 Q 159 65 160 80 Q 159 95 144 96 L 80 96 Q 65 95 64 80 L 64 80 Z M 64 144 Q 65 129 80 128 L 144 128 Q 159 129 160 144 Q 159 159 144 160 L 80 160 Q 65 159 64 144 L 64 144 Z M 64 256 Q 64 242 73 233 L 73 233 Q 82 224 96 224 L 288 224 Q 302 224 311 233 Q 320 242 320 256 L 320 320 Q 320 334 311 343 Q 302 352 288 352 L 96 352 Q 82 352 73 343 Q 64 334 64 320 L 64 256 L 64 256 Z M 224 432 Q 225 417 240 416 L 304 416 Q 319 417 320 432 Q 319 447 304 448 L 240 448 Q 225 447 224 432 L 224 432 Z"/>
</svg>
