<svg xmlns="http://www.w3.org/2000/svg" viewBox="0 0 640 235">
    <path d="M 320 75 Q 412 72 455 50 L 455 50 Q 497 27 496 24 L 496 24 Q 496 24 496 24 Q 496 12 494 0 Q 561 17 600 45 Q 639 73 640 107 Q 639 143 596 172 Q 554 200 481 218 Q 409 235 320 235 Q 231 235 159 218 Q 86 200 44 172 Q 1 143 0 107 Q 1 73 40 45 Q 79 17 146 0 Q 144 12 144 24 Q 143 27 185 50 Q 227 72 320 75 L 320 75 Z M 344 163 Q 342 141 320 139 Q 298 141 296 163 Q 298 185 320 187 Q 342 185 344 163 L 344 163 Z M 128 139 Q 150 137 152 115 Q 150 93 128 91 Q 106 93 104 115 Q 106 137 128 139 L 128 139 Z M 536 115 Q 534 93 512 91 Q 490 93 488 115 Q 490 137 512 139 Q 534 137 536 115 L 536 115 Z"/>
</svg>
