<svg xmlns="http://www.w3.org/2000/svg" viewBox="0 0 288 451">
    <path d="M 88 24 Q 86 2 64 0 Q 42 2 40 24 L 40 32 L 16 32 Q 1 33 0 48 Q 1 63 16 64 L 64 64 L 112 64 Q 127 63 128 48 Q 127 33 112 32 L 88 32 L 88 24 L 88 24 Z M 248 24 Q 246 2 224 0 Q 202 2 200 24 L 200 32 L 176 32 Q 161 33 160 48 Q 161 63 176 64 L 224 64 L 272 64 Q 287 63 288 48 Q 287 33 272 32 L 248 32 L 248 24 L 248 24 Z M 0 112 Q 1 127 16 128 L 112 128 Q 127 127 128 112 Q 127 97 112 96 L 16 96 Q 1 97 0 112 L 0 112 Z M 160 112 Q 161 127 176 128 L 272 128 Q 287 127 288 112 Q 287 97 272 96 L 176 96 Q 161 97 160 112 L 160 112 Z M 191 245 Q 194 234 185 227 Q 175 221 166 228 L 54 324 Q 46 331 49 342 Q 53 352 64 352 L 122 352 L 97 427 Q 94 438 103 445 Q 113 451 122 444 L 234 348 Q 242 341 239 330 Q 235 320 224 320 L 166 320 L 191 245 L 191 245 Z"/>
</svg>
