<svg xmlns="http://www.w3.org/2000/svg" viewBox="0 0 512 512">
    <path d="M 478 128 Q 511 185 512 256 Q 511 328 477 385 Q 443 443 385 477 Q 328 511 256 512 Q 184 511 127 477 Q 69 443 35 385 Q 1 328 0 256 Q 1 184 35 127 Q 69 69 127 35 Q 184 1 256 0 Q 330 1 389 37 Q 392 43 396 48 Q 377 71 388 98 Q 401 127 432 128 L 478 128 L 478 128 Z M 256 80 Q 257 95 272 96 L 297 96 L 261 133 Q 254 140 257 150 Q 262 159 272 160 L 336 160 Q 351 159 352 144 Q 351 129 336 128 L 311 128 L 347 91 Q 354 84 351 74 Q 346 65 336 64 L 272 64 Q 257 65 256 80 L 256 80 Z M 256 424 Q 279 423 291 404 Q 301 384 291 364 Q 279 345 256 344 Q 233 345 221 364 Q 211 384 221 404 Q 233 423 256 424 L 256 424 Z M 317 238 Q 307 227 294 235 Q 284 245 291 258 Q 316 288 352 288 Q 388 288 413 258 Q 420 245 410 235 Q 397 228 387 238 Q 373 256 352 256 Q 331 256 317 238 L 317 238 Z M 195 238 Q 181 256 160 256 L 160 256 Q 139 256 125 238 Q 115 227 102 235 Q 91 245 99 258 Q 124 288 160 288 Q 196 288 221 258 Q 229 245 218 235 Q 205 228 195 238 L 195 238 Z"/>
</svg>
