<svg xmlns="http://www.w3.org/2000/svg" viewBox="0 0 448 448">
    <path d="M 0 0 L 448 0 L 448 288 L 0 288 L 0 0 L 0 0 Z M 283 384 L 352 384 Q 366 384 375 393 Q 384 402 384 416 Q 384 430 375 439 Q 366 448 352 448 L 96 448 Q 82 448 73 439 Q 64 430 64 416 Q 64 402 73 393 Q 82 384 96 384 L 165 384 L 176 352 L 272 352 L 283 384 L 283 384 Z M 185 113 Q 199 96 185 79 Q 168 65 151 79 L 103 127 Q 89 144 103 161 L 151 209 Q 168 223 185 209 Q 199 192 185 175 L 154 144 L 185 113 L 185 113 Z M 297 79 Q 280 65 263 79 Q 249 96 263 113 L 294 144 L 263 175 Q 249 192 263 209 Q 280 223 297 209 L 345 161 Q 359 144 345 127 L 297 79 L 297 79 Z"/>
</svg>
