<svg xmlns="http://www.w3.org/2000/svg" viewBox="0 0 322 322">
    <path d="M 185 24 Q 183 2 161 0 Q 139 2 137 24 Q 135 46 117 54 Q 98 62 81 47 Q 64 33 47 47 Q 33 64 47 81 Q 62 98 54 117 Q 46 135 24 137 Q 2 139 0 161 Q 2 183 24 185 Q 46 186 54 205 Q 62 224 47 241 Q 33 258 47 275 Q 64 289 81 275 Q 98 260 117 268 Q 135 276 137 298 Q 139 320 161 322 Q 183 320 185 298 Q 186 275 205 268 Q 224 260 241 275 Q 258 289 275 275 Q 289 258 275 241 Q 260 224 268 205 Q 275 186 298 185 Q 320 183 322 161 Q 320 139 298 137 Q 275 135 268 117 Q 260 98 275 81 Q 289 64 275 47 Q 258 33 241 47 Q 224 62 205 54 Q 186 46 185 24 L 185 24 Z M 97 130 Q 97 116 106 107 L 106 107 Q 115 98 129 98 Q 143 98 152 107 Q 161 116 161 130 Q 161 144 152 153 Q 143 162 129 162 Q 115 162 106 153 Q 97 144 97 130 L 97 130 Z M 193 170 Q 215 172 217 194 Q 215 216 193 218 Q 171 216 169 194 Q 171 172 193 170 L 193 170 Z"/>
</svg>
