<svg xmlns="http://www.w3.org/2000/svg" viewBox="0 0 339 518">
    <path d="M 146 54 Q 147 27 170 12 Q 194 0 218 12 Q 241 27 242 54 Q 241 81 218 96 Q 194 108 170 96 Q 147 81 146 54 L 146 54 Z M 90 263 L 61 311 Q 54 322 42 325 Q 29 328 18 321 Q 6 314 3 302 Q 0 289 7 278 L 65 181 Q 78 159 100 146 Q 122 134 147 134 L 183 134 Q 228 135 257 169 L 331 258 Q 339 268 338 281 Q 337 294 326 303 Q 316 311 303 310 Q 290 309 281 298 L 234 241 L 234 486 Q 234 500 225 509 Q 216 518 202 518 Q 188 518 179 509 Q 170 500 170 486 L 170 358 L 154 358 L 154 486 Q 154 500 145 509 Q 136 518 122 518 Q 108 518 99 509 Q 90 500 90 486 L 90 263 L 90 263 Z"/>
</svg>
