<svg xmlns="http://www.w3.org/2000/svg" viewBox="0 0 362 176">
    <path d="M 101 32 Q 94 32 88 33 Q 56 38 32 60 Q 20 69 9 59 Q 0 47 10 36 Q 41 7 84 1 Q 92 0 101 0 Q 116 1 117 16 Q 116 31 101 32 L 101 32 Z M 85 112 Q 99 112 108 121 L 108 121 Q 117 130 117 144 Q 117 158 108 167 Q 99 176 85 176 Q 72 176 63 167 Q 54 158 53 144 Q 54 130 63 121 Q 72 112 85 112 L 85 112 Z M 277 112 Q 291 112 300 121 L 300 121 Q 309 130 309 144 Q 309 158 300 167 Q 291 176 277 176 Q 264 176 255 167 Q 246 158 245 144 Q 246 130 255 121 Q 264 112 277 112 L 277 112 Z M 274 33 Q 268 32 261 32 Q 246 31 245 16 Q 246 1 261 0 Q 270 0 278 1 Q 321 7 352 36 Q 362 47 353 59 Q 342 69 330 60 Q 306 38 274 33 L 274 33 Z"/>
</svg>
