<svg xmlns="http://www.w3.org/2000/svg" viewBox="0 0 520 230">
    <path d="M 241 12 Q 260 0 279 12 L 388 90 L 388 70 Q 388 56 397 47 Q 406 38 420 38 L 452 38 Q 466 38 475 47 Q 484 56 484 70 L 484 159 L 503 172 Q 520 186 515 208 Q 507 229 484 230 L 452 230 L 420 230 L 36 230 Q 14 229 6 208 Q 0 186 17 172 L 241 12 L 241 12 Z M 260 166 Q 274 166 283 157 L 283 157 Q 292 148 292 134 Q 292 120 283 111 Q 274 102 260 102 Q 246 102 237 111 Q 228 120 228 134 Q 228 148 237 157 Q 246 166 260 166 L 260 166 Z"/>
</svg>
