<svg xmlns="http://www.w3.org/2000/svg" viewBox="0 0 448 512">
    <path d="M 64 32 Q 64 18 55 9 L 55 9 Q 46 0 32 0 Q 18 0 9 9 Q 0 18 0 32 L 0 480 Q 0 494 9 503 Q 18 512 32 512 Q 46 512 55 503 Q 64 494 64 480 L 64 352 L 128 336 Q 160 328 192 332 L 192 225 Q 162 222 133 229 L 64 246 L 64 150 L 133 133 Q 162 126 192 129 L 192 225 Q 220 229 246 242 Q 282 259 320 259 L 320 368 Q 357 370 393 357 L 427 344 Q 447 335 448 314 L 448 214 L 394 241 Q 358 259 320 259 L 320 163 Q 358 163 394 145 L 448 118 L 448 66 Q 447 48 433 40 Q 420 31 403 38 L 394 43 Q 358 61 320 61 L 320 163 Q 282 163 246 145 Q 220 132 192 129 L 192 27 Q 162 24 133 31 L 64 48 L 64 32 L 64 32 Z"/>
</svg>
