<svg xmlns="http://www.w3.org/2000/svg" viewBox="0 0 376 512">
    <path d="M 287 49 Q 291 48 296 48 Q 309 48 319 57 Q 328 66 328 80 L 328 136 Q 330 158 352 160 Q 374 158 376 136 L 376 80 Q 375 46 353 23 Q 330 1 296 0 Q 285 0 274 3 L 197 25 Q 126 46 84 103 Q 41 159 40 233 L 40 288 L 32 288 Q 18 288 9 297 Q 0 306 0 320 L 0 480 Q 0 494 9 503 Q 18 512 32 512 L 96 512 Q 110 512 119 503 Q 128 494 128 480 L 128 320 Q 128 306 119 297 Q 110 288 96 288 L 88 288 L 88 233 Q 89 175 122 132 Q 155 88 210 71 L 287 49 L 287 49 Z"/>
</svg>
