<svg xmlns="http://www.w3.org/2000/svg" viewBox="0 0 272 304">
    <path d="M 45 83 L 56 122 Q 58 128 64 128 Q 70 128 72 122 L 83 83 L 122 72 Q 128 70 128 64 Q 128 58 122 56 L 83 45 L 72 6 Q 70 0 64 0 Q 58 0 56 6 L 45 45 L 6 56 Q 0 58 0 64 Q 0 70 6 72 L 45 83 L 45 83 Z M 147 237 L 164 295 Q 167 304 176 304 Q 185 303 188 295 L 205 237 L 263 220 Q 272 217 272 208 Q 271 199 263 196 L 205 179 L 188 121 Q 185 112 176 112 Q 167 113 164 121 L 147 179 L 89 196 Q 80 199 80 208 Q 81 217 89 220 L 147 237 L 147 237 Z"/>
</svg>
