<svg xmlns="http://www.w3.org/2000/svg" viewBox="0 0 448 416">
    <path d="M 82 49 Q 95 25 117 13 L 117 13 Q 139 0 164 0 L 284 0 Q 309 0 331 13 Q 353 25 366 49 Q 380 76 399 120 Q 418 164 433 216 Q 447 268 448 320 L 448 337 Q 447 371 425 393 Q 403 415 369 416 Q 346 416 325 408 L 258 383 Q 224 371 190 383 L 123 408 Q 102 416 79 416 Q 45 415 23 393 Q 1 371 0 337 L 0 320 Q 1 268 15 216 Q 30 164 49 120 Q 68 76 82 49 L 82 49 Z M 164 64 Q 146 65 139 79 Q 116 121 91 187 Q 66 254 64 320 L 64 337 Q 65 351 79 352 Q 90 352 101 348 L 168 323 Q 224 302 280 323 L 347 348 Q 358 352 369 352 Q 383 351 384 337 L 384 320 Q 382 254 357 187 Q 332 121 309 79 Q 302 65 284 64 L 164 64 L 164 64 Z"/>
</svg>
