<svg xmlns="http://www.w3.org/2000/svg" viewBox="0 0 513 411">
    <path d="M 389 8 Q 397 0 408 5 L 401 19 Q 406 9 407 6 Q 409 4 408 5 L 408 5 L 408 5 L 408 5 L 409 5 L 410 5 Q 410 6 411 6 Q 412 7 413 7 Q 413 7 413 7 Q 418 10 425 15 Q 440 24 460 44 Q 481 63 496 93 Q 512 123 513 163 Q 512 203 497 237 Q 481 271 462 297 Q 442 322 427 336 Q 420 343 416 347 Q 414 348 413 349 Q 413 350 413 350 L 412 351 L 411 351 L 411 351 L 411 351 L 411 351 Q 412 351 410 350 Q 408 348 401 339 L 411 351 Q 403 358 393 353 L 317 310 L 285 332 L 330 364 Q 333 363 336 363 Q 358 365 360 387 Q 358 409 336 411 Q 316 409 312 390 L 256 352 L 200 391 Q 195 410 176 411 Q 154 409 152 387 Q 154 365 176 363 Q 179 363 183 364 L 228 332 L 196 310 L 120 353 Q 110 358 102 351 L 112 339 Q 105 348 103 350 Q 101 352 102 351 L 102 351 L 102 351 L 102 351 L 101 351 L 100 350 Q 100 350 100 349 Q 99 349 97 347 Q 93 343 86 336 Q 71 322 51 297 Q 32 272 16 237 Q 1 203 0 163 Q 1 123 17 93 Q 32 63 53 44 Q 73 24 88 15 Q 96 10 100 7 Q 101 7 102 6 Q 103 6 103 6 L 104 5 L 105 5 L 105 5 L 105 5 L 105 5 Q 105 4 106 7 Q 107 9 112 19 L 105 5 Q 116 0 124 9 Q 131 18 125 28 L 123 32 Q 96 72 96 120 Q 96 159 114 193 Q 132 227 164 250 L 206 278 L 257 313 L 308 278 L 349 250 Q 381 227 399 193 Q 417 159 417 120 Q 417 72 391 32 L 388 28 Q 382 18 389 8 L 389 8 Z M 144 115 Q 144 83 160 58 L 160 58 Q 175 32 201 17 Q 207 28 213 44 Q 217 53 220 62 Q 193 80 192 115 Q 193 150 220 168 Q 217 177 213 186 Q 207 202 201 213 Q 175 198 160 172 Q 144 147 144 115 L 144 115 Z M 299 44 Q 305 28 311 17 Q 337 32 352 58 Q 368 83 368 115 Q 368 147 352 172 Q 337 198 311 213 Q 305 202 299 186 Q 295 177 292 168 Q 319 150 320 115 Q 319 81 292 62 Q 295 53 299 44 L 299 44 Z"/>
</svg>
