<svg xmlns="http://www.w3.org/2000/svg" viewBox="0 0 482 180">
    <path d="M 0 34 L 34 136 Q 41 156 58 168 Q 74 180 95 180 L 387 180 Q 408 180 424 168 Q 441 156 448 136 L 482 34 Q 464 30 450 22 Q 439 16 433 12 Q 431 11 430 10 Q 429 9 428 9 Q 428 8 427 8 L 427 8 L 427 8 L 427 8 L 427 8 L 427 8 L 427 8 L 427 8 Q 417 0 406 8 L 406 8 Q 406 8 406 8 Q 406 9 405 9 Q 405 9 405 9 Q 403 10 401 12 Q 396 16 385 22 Q 364 34 329 36 Q 294 34 273 22 Q 262 16 257 12 Q 254 10 253 9 Q 253 9 253 9 Q 252 9 252 8 Q 252 8 252 8 L 252 8 L 252 8 Q 241 0 230 8 L 230 8 Q 230 8 230 8 Q 230 9 229 9 Q 229 9 229 9 Q 228 10 225 12 Q 220 16 209 22 Q 188 34 153 36 Q 118 34 97 22 Q 86 16 81 12 Q 78 10 77 9 Q 77 9 77 9 Q 76 9 76 8 Q 76 8 76 8 L 76 8 L 76 8 Q 65 0 55 8 L 55 8 L 55 8 L 55 8 Q 54 8 54 9 Q 53 9 52 9 Q 51 10 49 12 Q 43 16 32 22 Q 18 30 0 34 L 0 34 Z M 55 8 L 76 8 Q 76 8 76 8 Q 76 8 76 8 L 55 8 L 55 8 Z"/>
</svg>
