<svg xmlns="http://www.w3.org/2000/svg" viewBox="0 0 352 512">
    <path d="M 160 160 L 0 0 L 0 128 Q 0 142 9 151 Q 18 160 32 160 L 160 160 L 160 160 Z M 208 512 Q 247 512 280 493 L 280 493 Q 313 474 333 440 Q 352 406 352 368 Q 352 330 333 296 Q 313 262 280 243 Q 247 224 208 224 Q 169 224 136 243 Q 103 262 83 296 Q 64 330 64 368 Q 64 406 83 440 Q 103 474 136 493 Q 169 512 208 512 L 208 512 Z M 267 331 L 231 368 L 267 405 Q 277 416 267 427 Q 256 437 245 427 L 208 391 L 171 427 Q 160 437 149 427 Q 139 416 149 405 L 185 368 L 149 331 Q 139 320 149 309 Q 160 299 171 309 L 208 345 L 245 309 Q 256 299 267 309 Q 277 320 267 331 L 267 331 Z"/>
</svg>
