<svg xmlns="http://www.w3.org/2000/svg" viewBox="0 0 428 416">
    <path d="M 54 96 Q 81 95 96 72 Q 108 48 96 24 Q 81 1 54 0 Q 27 1 12 24 Q 0 48 12 72 Q 27 95 54 96 L 54 96 Z M 374 416 Q 401 415 416 392 Q 428 368 416 344 Q 401 321 374 320 Q 347 321 332 344 Q 320 368 332 392 Q 347 415 374 416 L 374 416 Z M 350 120 Q 349 97 330 85 Q 310 75 290 85 Q 271 97 270 120 Q 271 143 290 155 Q 310 165 330 155 Q 349 143 350 120 L 350 120 Z M 214 272 Q 250 271 269 240 Q 287 208 269 176 Q 250 145 214 144 Q 178 145 159 176 Q 141 208 159 240 Q 178 271 214 272 L 214 272 Z"/>
</svg>
