<svg xmlns="http://www.w3.org/2000/svg" viewBox="0 0 362 437">
    <path d="M 181 88 Q 134 86 108 70 L 89 11 Q 85 1 74 0 Q 74 0 75 0 Q 75 0 75 0 Q 104 3 119 19 Q 126 26 141 33 Q 156 39 181 40 Q 206 39 221 33 Q 236 26 243 19 Q 258 3 287 0 Q 287 0 287 0 Q 288 0 288 0 Q 277 1 273 11 L 254 70 Q 228 86 181 88 L 181 88 Z M 80 357 Q 90 368 80 379 L 32 427 Q 21 437 10 427 Q 0 416 10 405 L 58 357 Q 69 347 80 357 L 80 357 Z M 282 357 Q 293 347 304 357 L 352 405 Q 362 416 352 427 Q 341 437 330 427 L 282 379 Q 272 368 282 357 L 282 357 Z"/>
</svg>
