<svg xmlns="http://www.w3.org/2000/svg" viewBox="0 0 640 480">
    <path d="M 48 8 Q 47 1 41 0 Q 34 0 32 6 L 2 135 Q 0 143 0 152 Q 1 182 21 203 Q 41 223 72 224 L 72 456 Q 74 478 96 480 Q 118 478 120 456 L 120 224 Q 151 223 171 203 Q 191 182 192 152 Q 192 143 190 135 L 160 6 Q 158 0 151 0 Q 145 1 144 8 L 137 136 L 119 136 L 104 7 Q 103 1 96 0 Q 89 0 88 7 L 73 136 L 56 136 L 48 8 L 48 8 Z M 512 144 L 512 272 Q 512 286 521 295 Q 530 304 544 304 L 592 304 L 592 456 Q 594 478 616 480 Q 638 478 640 456 L 640 304 L 640 200 L 640 21 Q 638 2 619 0 Q 616 0 613 1 Q 603 4 579 18 Q 556 33 534 64 Q 513 94 512 144 L 512 144 Z"/>
</svg>
