<svg xmlns="http://www.w3.org/2000/svg" viewBox="0 0 322 518">
    <path d="M 209 54 Q 208 27 185 12 Q 161 0 137 12 Q 114 27 113 54 Q 114 81 137 96 Q 161 108 185 96 Q 208 81 209 54 L 209 54 Z M 121 518 L 201 518 L 289 518 Q 303 518 312 509 Q 321 500 321 486 Q 321 472 312 463 Q 303 454 289 454 L 33 454 Q 19 454 10 463 Q 1 472 1 486 Q 1 500 10 509 Q 19 518 33 518 L 121 518 L 121 518 Z M 264 282 Q 274 294 289 294 L 289 294 L 289 294 Q 300 294 309 287 Q 319 278 321 266 Q 322 253 314 242 L 256 170 Q 227 135 181 134 L 141 134 Q 95 135 66 170 L 8 242 Q 0 253 1 266 Q 3 278 13 287 Q 22 294 33 294 L 33 294 L 33 294 Q 48 294 58 282 L 89 243 L 89 294 L 233 294 L 233 243 L 264 282 L 264 282 Z"/>
</svg>
