<svg xmlns="http://www.w3.org/2000/svg" viewBox="0 0 512 512">
    <path d="M 510 224 Q 508 224 506 225 L 391 276 Q 377 257 352 256 L 160 256 Q 135 257 121 276 L 7 225 Q 5 225 4 225 Q 3 224 2 224 Q 16 127 86 65 Q 156 2 256 0 Q 356 2 426 65 Q 496 127 510 224 L 510 224 Z M 512 258 Q 511 330 475 389 Q 471 384 464 384 L 400 384 L 400 307 L 512 258 L 512 258 Z M 456 416 Q 420 460 369 486 L 369 486 Q 317 511 256 512 Q 195 511 143 486 Q 92 460 56 416 L 115 416 Q 127 446 160 448 L 352 448 Q 385 446 397 416 L 456 416 L 456 416 Z M 37 389 Q 1 330 0 258 L 112 307 L 112 384 L 48 384 Q 41 384 37 389 L 37 389 Z M 208 176 Q 223 175 224 160 Q 223 145 208 144 Q 166 145 139 157 Q 111 169 101 181 Q 91 192 101 203 Q 112 213 123 203 Q 129 197 151 187 Q 173 177 208 176 L 208 176 Z M 389 203 Q 400 213 411 203 Q 421 192 411 181 Q 401 169 373 157 Q 346 145 304 144 Q 289 145 288 160 Q 289 175 304 176 Q 339 177 361 187 Q 383 197 389 203 L 389 203 Z"/>
</svg>
