<svg xmlns="http://www.w3.org/2000/svg" viewBox="0 0 416 416">
    <path d="M 32 16 Q 31 1 16 0 Q 1 1 0 16 Q 1 31 16 32 Q 31 31 32 16 L 32 16 Z M 32 400 Q 31 385 16 384 Q 1 385 0 400 Q 1 415 16 416 Q 31 415 32 400 L 32 400 Z M 400 32 Q 415 31 416 16 Q 415 1 400 0 Q 385 1 384 16 Q 385 31 400 32 L 400 32 Z M 416 400 Q 415 385 400 384 Q 385 385 384 400 Q 385 415 400 416 Q 415 415 416 400 L 416 400 Z M 208 368 Q 251 368 288 347 L 288 347 Q 325 325 347 288 Q 368 250 368 208 Q 368 166 347 128 Q 325 91 288 69 Q 251 48 208 48 Q 165 48 128 69 Q 91 91 69 128 Q 48 166 48 208 Q 48 250 69 288 Q 91 325 128 347 Q 165 368 208 368 L 208 368 Z"/>
</svg>
