<svg xmlns="http://www.w3.org/2000/svg" viewBox="0 0 512 512">
    <path d="M 495 413 Q 511 390 512 360 L 512 224 L 512 192 L 512 168 L 512 155 Q 512 128 493 109 L 416 32 Q 400 19 384 32 Q 371 48 384 64 L 416 96 L 416 160 Q 416 183 430 200 Q 443 216 464 222 L 464 360 Q 464 373 457 383 L 495 413 L 495 413 Z M 320 276 L 320 64 Q 319 37 301 19 Q 283 1 256 0 L 96 0 Q 72 0 55 15 Q 38 29 33 51 L 320 276 L 320 276 Z M 32 172 L 32 416 L 320 416 L 320 399 L 32 172 L 32 172 Z M 0 480 Q 0 494 9 503 L 9 503 Q 18 512 32 512 L 320 512 Q 334 512 343 503 Q 352 494 352 480 Q 352 466 343 457 Q 334 448 320 448 L 32 448 Q 18 448 9 457 Q 0 466 0 480 L 0 480 Z"/>
</svg>
