<svg xmlns="http://www.w3.org/2000/svg" viewBox="0 0 288 288">
    <path d="M 144 288 Q 183 288 216 269 L 216 269 Q 249 250 269 216 Q 288 182 288 144 Q 288 106 269 72 Q 249 38 216 19 Q 183 0 144 0 Q 105 0 72 19 Q 39 38 19 72 Q 0 106 0 144 Q 0 182 19 216 Q 39 250 72 269 Q 105 288 144 288 L 144 288 Z M 120 115 L 120 115 Q 119 116 125 120 Q 133 124 147 127 Q 148 128 149 128 L 149 128 Q 164 131 180 139 Q 197 148 200 172 Q 199 199 178 209 Q 169 213 160 215 L 160 226 Q 159 240 144 242 Q 129 240 128 226 L 128 214 Q 115 211 104 208 L 104 208 Q 102 207 100 206 Q 100 206 99 206 Q 86 200 89 186 Q 95 172 109 175 Q 112 176 115 177 Q 115 177 115 177 Q 115 177 115 177 Q 131 183 144 184 Q 155 184 163 180 Q 166 179 167 177 Q 168 176 168 173 Q 169 171 163 167 Q 155 163 140 159 L 138 158 Q 124 155 110 148 Q 92 141 88 117 Q 89 89 110 80 Q 119 75 128 74 L 128 64 Q 129 49 144 48 Q 158 49 160 64 L 160 73 Q 169 75 178 77 Q 192 82 189 97 Q 185 110 170 108 Q 156 105 144 104 Q 134 104 125 108 Q 122 110 121 112 Q 120 112 120 115 L 120 115 Z"/>
</svg>
