<svg xmlns="http://www.w3.org/2000/svg" viewBox="0 0 576 448">
    <path d="M 0 224 Q 1 287 31 337 L 31 337 Q 60 388 111 417 L 111 417 Q 161 447 224 448 Q 276 448 325 433 Q 323 431 322 429 L 225 304 L 224 304 Q 190 303 167 281 Q 145 258 144 224 Q 145 190 167 167 Q 190 145 224 144 Q 258 145 281 167 Q 303 190 304 224 Q 304 235 301 245 L 384 352 L 432 352 Q 460 353 474 376 L 556 344 Q 575 335 576 314 L 576 272 Q 575 257 560 256 L 446 256 L 432 256 Q 417 255 416 240 L 416 208 Q 417 193 432 192 L 446 192 L 560 192 Q 575 191 576 176 L 576 134 Q 575 113 556 104 L 348 23 Q 288 0 224 0 Q 161 1 111 31 Q 60 60 31 111 Q 1 161 0 224 L 0 224 Z M 64 224 Q 65 209 80 208 Q 95 209 96 224 Q 95 239 80 240 Q 65 239 64 224 L 64 224 Z M 112 112 Q 127 113 128 128 Q 127 143 112 144 Q 97 143 96 128 Q 97 113 112 112 L 112 112 Z M 96 320 Q 97 305 112 304 Q 127 305 128 320 Q 127 335 112 336 Q 97 335 96 320 L 96 320 Z"/>
</svg>
