<svg xmlns="http://www.w3.org/2000/svg" viewBox="0 0 512 499">
    <path d="M 337 499 Q 415 472 463 407 L 463 407 Q 511 342 512 256 Q 511 184 477 127 Q 443 69 385 35 Q 328 1 256 0 Q 184 1 127 35 Q 69 69 35 127 Q 1 184 0 256 Q 1 328 35 385 Q 69 443 127 477 Q 112 450 112 417 L 112 384 L 112 330 Q 113 308 127 294 Q 142 279 164 278 Q 167 278 169 279 Q 181 254 204 239 Q 227 224 256 224 Q 300 225 328 257 Q 352 253 370 270 Q 388 290 383 315 Q 384 316 386 318 Q 399 332 400 351 Q 400 369 388 384 Q 400 399 400 417 Q 399 436 386 450 L 337 499 L 337 499 Z M 202 125 L 122 189 Q 110 197 100 186 Q 91 174 102 164 L 182 100 Q 194 91 205 102 Q 213 114 202 125 L 202 125 Z M 308 102 Q 318 91 330 100 L 410 164 Q 421 174 413 186 Q 402 197 390 189 L 310 125 Q 299 114 308 102 L 308 102 Z"/>
</svg>
