<svg xmlns="http://www.w3.org/2000/svg" viewBox="0 0 320 384">
    <path d="M 64 144 Q 86 144 103 131 L 135 179 Q 144 192 160 192 Q 176 192 185 179 L 217 131 Q 234 144 256 144 Q 283 143 301 125 Q 319 107 320 80 Q 319 53 301 35 Q 283 17 256 16 Q 232 16 215 31 Q 196 2 160 0 Q 124 2 105 31 Q 88 16 64 16 Q 37 17 19 35 Q 1 53 0 80 Q 1 107 19 125 Q 37 143 64 144 L 64 144 Z M 95 331 Q 112 320 132 320 Q 160 320 180 340 L 214 374 Q 224 384 238 384 Q 256 384 266 369 L 303 313 L 252 256 Q 223 225 181 224 L 139 224 Q 96 225 67 256 L 1 331 L 19 343 Q 32 352 48 352 Q 64 352 77 343 L 95 331 L 95 331 Z"/>
</svg>
