<svg xmlns="http://www.w3.org/2000/svg" viewBox="0 0 352 256">
    <path d="M 32 0 Q 18 0 9 9 L 9 9 Q 0 18 0 32 Q 0 46 9 55 Q 18 64 32 64 L 128 64 Q 142 64 151 55 Q 160 46 160 32 Q 160 18 151 9 Q 142 0 128 0 L 32 0 L 32 0 Z M 96 96 Q 82 96 73 105 L 73 105 Q 64 114 64 128 Q 64 142 73 151 Q 82 160 96 160 L 224 160 Q 238 160 247 151 Q 256 142 256 128 Q 256 114 247 105 Q 238 96 224 96 L 96 96 L 96 96 Z M 256 192 Q 242 192 233 201 L 233 201 Q 224 210 224 224 Q 224 238 233 247 Q 242 256 256 256 L 320 256 Q 334 256 343 247 Q 352 238 352 224 Q 352 210 343 201 Q 334 192 320 192 L 256 192 L 256 192 Z"/>
</svg>
