<svg xmlns="http://www.w3.org/2000/svg" viewBox="0 0 384 512">
    <path d="M 32 32 Q 32 18 41 9 L 41 9 Q 50 0 64 0 Q 78 0 87 9 Q 96 18 96 32 L 96 240 L 32 240 L 32 32 L 32 32 Z M 320 96 Q 320 82 329 73 L 329 73 Q 338 64 352 64 Q 366 64 375 73 Q 384 82 384 96 L 384 192 L 384 288 L 384 352 Q 382 420 337 465 Q 292 510 224 512 L 162 512 Q 96 511 49 465 L 38 454 Q 1 416 0 363 L 0 336 Q 1 309 19 291 Q 37 273 64 272 L 152 272 Q 169 272 180 284 Q 192 295 192 312 Q 192 329 180 340 Q 169 352 152 352 L 96 352 Q 81 353 80 368 Q 81 383 96 384 L 152 384 Q 183 383 203 363 Q 223 343 224 312 L 224 311 Q 238 320 256 320 Q 283 319 301 301 Q 319 283 320 256 L 320 192 L 320 96 L 320 96 Z"/>
</svg>
