<svg xmlns="http://www.w3.org/2000/svg" viewBox="0 0 176 416">
    <path d="M 0 24 Q 2 2 24 0 Q 46 2 48 24 Q 46 46 24 48 Q 2 46 0 24 L 0 24 Z M 88 48 Q 110 50 112 72 Q 110 94 88 96 Q 66 94 64 72 Q 66 50 88 48 L 88 48 Z M 16 264 Q 18 242 40 240 Q 62 242 64 264 Q 62 286 40 288 Q 18 286 16 264 L 16 264 Z M 16 328 Q 18 306 40 304 Q 62 306 64 328 Q 62 350 40 352 Q 18 350 16 328 L 16 328 Z M 40 368 Q 62 370 64 392 Q 62 414 40 416 Q 18 414 16 392 Q 18 370 40 368 L 40 368 Z M 112 264 Q 114 242 136 240 Q 158 242 160 264 Q 158 286 136 288 Q 114 286 112 264 L 112 264 Z M 152 0 Q 174 2 176 24 Q 174 46 152 48 Q 130 46 128 24 Q 130 2 152 0 L 152 0 Z M 112 328 Q 114 306 136 304 Q 158 306 160 328 Q 158 350 136 352 Q 114 350 112 328 L 112 328 Z M 136 368 Q 158 370 160 392 Q 158 414 136 416 Q 114 414 112 392 Q 114 370 136 368 L 136 368 Z"/>
</svg>
