<svg xmlns="http://www.w3.org/2000/svg" viewBox="0 0 352 384">
    <path d="M 96 32 Q 96 50 87 64 L 297 64 Q 288 50 288 32 Q 288 14 297 0 L 87 0 Q 96 14 96 32 L 96 32 Z M 64 297 L 64 87 Q 50 96 32 96 Q 14 96 0 87 L 0 297 Q 14 288 32 288 Q 50 288 64 297 L 64 297 Z M 87 384 L 297 384 Q 288 370 288 352 Q 288 334 297 320 L 87 320 Q 96 334 96 352 Q 96 370 87 384 L 87 384 Z M 352 288 L 352 288 L 348 280 L 316 224 L 314 220 Q 297 252 260 256 L 260 256 L 292 312 L 297 320 Q 315 290 352 288 L 352 288 Z M 260 128 Q 297 132 314 164 L 316 160 L 348 104 L 352 96 L 352 96 Q 315 94 297 64 L 292 72 L 260 128 L 260 128 L 260 128 Z"/>
</svg>
