<svg xmlns="http://www.w3.org/2000/svg" viewBox="0 0 292 171">
    <path d="M 217 41 Q 225 33 236 34 L 236 34 Q 247 35 254 45 L 259 52 Q 268 63 281 56 Q 292 47 285 34 L 280 27 Q 264 5 239 2 Q 214 0 194 18 L 165 48 Q 155 59 165 70 Q 176 80 187 70 L 217 41 L 217 41 Z M 16 43 Q 1 44 0 59 Q 1 74 16 75 L 80 75 Q 95 74 96 59 Q 95 44 80 43 L 16 43 L 16 43 Z M 96 139 Q 96 125 87 116 L 87 116 Q 78 107 64 107 Q 51 107 42 116 Q 33 125 32 139 Q 33 153 42 162 Q 51 171 64 171 Q 78 171 87 162 Q 96 153 96 139 L 96 139 Z M 256 139 Q 256 125 247 116 L 247 116 Q 238 107 224 107 Q 211 107 202 116 Q 193 125 192 139 Q 193 153 202 162 Q 211 171 224 171 Q 238 171 247 162 Q 256 153 256 139 L 256 139 Z"/>
</svg>
