<svg xmlns="http://www.w3.org/2000/svg" viewBox="0 0 448 448">
    <path d="M 32 0 Q 18 0 9 9 L 9 9 Q 0 18 0 32 Q 0 46 9 55 Q 18 64 32 64 Q 130 65 210 112 Q 289 159 336 238 Q 383 318 384 416 Q 384 430 393 439 Q 402 448 416 448 Q 430 448 439 439 Q 448 430 448 416 Q 447 300 391 206 Q 336 112 242 57 Q 148 1 32 0 L 32 0 Z M 32 128 Q 18 128 9 137 L 9 137 Q 0 146 0 160 Q 0 174 9 183 Q 18 192 32 192 Q 95 193 145 223 Q 196 252 225 303 Q 255 353 256 416 Q 256 430 265 439 Q 274 448 288 448 Q 302 448 311 439 Q 320 430 320 416 Q 319 336 281 271 Q 242 206 177 167 Q 112 129 32 128 L 32 128 Z"/>
</svg>
