<svg xmlns="http://www.w3.org/2000/svg" viewBox="0 0 384 416">
    <path d="M 0 0 L 384 0 L 384 352 Q 383 379 365 397 Q 347 415 320 416 L 64 416 Q 37 415 19 397 Q 1 379 0 352 L 0 0 L 0 0 Z M 186 72 Q 170 57 152 70 L 72 142 Q 64 149 64 160 Q 64 171 72 178 L 152 250 Q 170 263 186 248 Q 199 230 184 214 L 151 184 L 208 184 Q 225 184 236 196 Q 248 207 248 224 L 248 264 Q 250 286 272 288 Q 294 286 296 264 L 296 224 Q 295 187 270 162 Q 245 137 208 136 L 151 136 L 184 106 Q 199 90 186 72 L 186 72 Z"/>
</svg>
