<svg xmlns="http://www.w3.org/2000/svg" viewBox="0 0 352 448">
    <path d="M 352 96 Q 351 55 324 28 L 324 28 Q 297 1 256 0 L 256 64 Q 270 64 279 73 Q 288 82 288 96 L 288 128 Q 288 142 279 151 Q 270 160 256 160 L 112 160 Q 78 161 55 183 Q 33 206 32 240 L 32 256 Q 18 256 9 265 Q 0 274 0 288 L 0 416 Q 0 430 9 439 Q 18 448 32 448 L 96 448 Q 110 448 119 439 Q 128 430 128 416 L 128 288 Q 128 274 119 265 Q 110 256 96 256 L 96 240 Q 97 225 112 224 L 256 224 Q 297 223 324 196 Q 351 169 352 128 L 352 96 L 352 96 Z"/>
</svg>
