<svg xmlns="http://www.w3.org/2000/svg" viewBox="0 0 448 459">
    <path d="M 80 16 Q 81 1 96 0 L 128 0 Q 143 1 144 16 L 144 64 L 192 64 Q 207 65 208 80 L 208 112 Q 207 127 192 128 L 144 128 L 144 176 Q 143 191 128 192 L 96 192 Q 81 191 80 176 L 80 128 L 32 128 Q 17 127 16 112 L 16 80 Q 17 65 32 64 L 80 64 L 80 16 L 80 16 Z M 0 368 Q 1 323 40 299 Q 80 277 120 299 Q 159 323 160 368 Q 159 413 120 437 Q 80 459 40 437 Q 1 413 0 368 L 0 368 Z M 288 368 Q 289 323 328 299 Q 368 277 408 299 Q 447 323 448 368 Q 447 413 408 437 Q 368 459 328 437 Q 289 413 288 368 L 288 368 Z"/>
</svg>
