<svg xmlns="http://www.w3.org/2000/svg" viewBox="0 0 526 526">
    <path d="M 48 14 Q 31 0 14 14 Q 0 31 14 48 L 94 128 Q 111 142 128 128 Q 142 111 128 94 L 48 14 L 48 14 Z M 478 14 L 398 94 Q 384 111 398 128 Q 415 142 432 128 L 512 48 Q 526 31 512 14 Q 495 0 478 14 L 478 14 Z M 14 512 Q 31 526 48 512 L 128 432 Q 142 415 128 398 Q 111 384 94 398 L 14 478 Q 0 495 14 512 L 14 512 Z M 478 512 Q 495 526 512 512 Q 526 495 512 478 L 432 398 Q 415 384 398 398 Q 384 415 398 432 L 478 512 L 478 512 Z"/>
</svg>
