<svg xmlns="http://www.w3.org/2000/svg" viewBox="0 0 384 256">
    <path d="M 0 24 Q 2 2 24 0 L 72 0 Q 94 2 96 24 Q 94 46 72 48 L 24 48 Q 2 46 0 24 L 0 24 Z M 128 24 Q 130 2 152 0 L 200 0 Q 222 2 224 24 Q 222 46 200 48 L 152 48 Q 130 46 128 24 L 128 24 Z M 288 24 Q 290 2 312 0 L 360 0 Q 382 2 384 24 Q 382 46 360 48 L 312 48 Q 290 46 288 24 L 288 24 Z M 0 160 Q 2 138 24 136 L 72 136 Q 94 138 96 160 Q 94 182 72 184 L 24 184 Q 2 182 0 160 L 0 160 Z M 128 160 Q 130 138 152 136 L 200 136 Q 222 138 224 160 Q 222 182 200 184 L 152 184 Q 130 182 128 160 L 128 160 Z M 0 232 Q 2 210 24 208 L 72 208 Q 94 210 96 232 Q 94 254 72 256 L 24 256 Q 2 254 0 232 L 0 232 Z M 128 232 Q 130 210 152 208 L 200 208 Q 222 210 224 232 Q 222 254 200 256 L 152 256 Q 130 254 128 232 L 128 232 Z M 288 232 Q 290 210 312 208 L 360 208 Q 382 210 384 232 Q 382 254 360 256 L 312 256 Q 290 254 288 232 L 288 232 Z"/>
</svg>
