<svg xmlns="http://www.w3.org/2000/svg" viewBox="0 0 514 516">
    <path d="M 288 115 L 289 120 L 412 87 L 396 26 Q 392 13 381 6 Q 370 0 357 3 L 296 20 Q 291 21 288 23 L 288 98 L 160 98 L 160 130 L 288 130 L 288 115 L 288 115 Z M 420 118 L 298 151 L 364 398 L 486 365 L 420 118 L 420 118 Z M 388 490 Q 392 503 403 510 L 403 510 Q 414 516 427 513 L 489 496 Q 501 493 508 481 Q 514 470 511 457 L 495 396 L 372 429 L 388 490 L 388 490 Z M 0 98 L 0 130 L 128 130 L 128 98 L 0 98 L 0 98 Z M 128 386 L 0 386 L 0 418 L 128 418 L 128 386 L 128 386 Z M 288 386 L 160 386 L 160 418 L 288 418 L 288 386 L 288 386 Z"/>
</svg>
