<svg xmlns="http://www.w3.org/2000/svg" viewBox="0 0 323 457">
    <path d="M 121 14 L 160 111 Q 175 92 196 82 Q 218 73 244 76 Q 280 82 302 110 Q 323 138 319 175 Q 315 190 300 189 L 196 174 Q 206 196 203 220 Q 200 244 185 264 Q 161 293 126 297 Q 92 301 62 279 Q 51 269 59 257 L 124 174 Q 100 171 80 157 Q 61 143 51 119 Q 38 84 52 52 Q 66 20 100 5 Q 114 0 121 14 L 121 14 Z M 176 153 Q 175 138 160 137 Q 145 138 144 153 Q 145 168 160 169 Q 175 168 176 153 L 176 153 Z M 32 393 L 160 393 L 288 393 Q 302 393 311 402 Q 320 411 320 425 Q 320 439 311 448 Q 302 457 288 457 L 160 457 L 32 457 Q 18 457 9 448 Q 0 439 0 425 Q 0 411 9 402 Q 18 393 32 393 L 32 393 Z"/>
</svg>
