<svg xmlns="http://www.w3.org/2000/svg" viewBox="0 0 471 448">
    <path d="M 165 64 L 347 64 Q 369 65 377 85 L 403 160 L 109 160 L 135 85 Q 143 65 165 64 L 165 64 Z M 75 64 L 40 165 Q 22 172 11 188 Q 0 204 0 224 L 0 368 L 0 416 Q 0 430 9 439 Q 18 448 32 448 L 64 448 Q 78 448 87 439 Q 96 430 96 416 L 96 368 L 323 368 Q 320 352 320 336 Q 321 268 364 220 Q 406 172 471 162 L 437 64 Q 427 35 402 18 Q 378 0 347 0 L 165 0 Q 134 0 110 18 Q 85 35 75 64 L 75 64 Z M 96 224 Q 110 224 119 233 L 119 233 Q 128 242 128 256 Q 128 270 119 279 Q 110 288 96 288 Q 82 288 73 279 Q 64 270 64 256 Q 64 242 73 233 Q 82 224 96 224 L 96 224 Z"/>
</svg>
