<svg xmlns="http://www.w3.org/2000/svg" viewBox="0 0 454 515">
    <path d="M 259 352 L 259 488 Q 260 502 271 509 Q 283 515 296 509 L 440 421 Q 454 411 450 393 Q 422 303 419 208 Q 418 165 394 130 Q 369 95 334 67 Q 299 39 266 19 Q 264 18 262 16 Q 261 16 260 15 Q 244 3 227 0 Q 210 3 194 15 Q 193 16 192 16 Q 190 18 188 19 Q 155 39 120 67 Q 85 95 60 130 Q 36 165 35 208 Q 32 303 4 393 Q 0 410 15 421 L 159 509 Q 171 515 183 509 Q 194 502 195 488 L 195 296 L 195 296 L 195 268 Q 194 256 184 252 L 112 228 Q 100 224 99 211 Q 101 194 118 192 L 336 192 Q 353 194 355 211 Q 354 224 342 228 L 270 252 Q 260 256 259 268 L 259 352 L 259 352 L 259 352 Z"/>
</svg>
