<svg xmlns="http://www.w3.org/2000/svg" viewBox="0 0 384 512">
    <path d="M 0 64 Q 1 37 19 19 L 19 19 Q 37 1 64 0 L 224 0 L 224 128 Q 224 142 233 151 Q 242 160 256 160 L 384 160 L 384 448 Q 383 475 365 493 Q 347 511 320 512 L 64 512 Q 37 511 19 493 Q 1 475 0 448 L 0 64 L 0 64 Z M 136 240 Q 114 242 112 264 L 112 368 L 112 424 Q 114 446 136 448 Q 158 446 160 424 L 160 392 L 204 392 Q 236 391 258 370 Q 279 348 280 316 Q 279 284 258 262 Q 236 241 204 240 L 136 240 L 136 240 Z M 204 344 L 160 344 L 160 288 L 204 288 Q 216 288 224 296 Q 232 304 232 316 Q 232 328 224 336 Q 216 344 204 344 L 204 344 Z"/>
</svg>
