<svg xmlns="http://www.w3.org/2000/svg" viewBox="0 0 352 416">
    <path d="M 256 0 L 64 0 Q 37 1 19 19 Q 1 37 0 64 L 0 352 Q 1 379 19 397 Q 37 415 64 416 L 288 416 Q 315 415 333 397 Q 351 379 352 352 L 352 96 L 288 96 Q 274 96 265 87 Q 256 78 256 64 L 256 0 L 256 0 Z M 144 176 Q 145 161 160 160 L 192 160 Q 207 161 208 176 L 208 224 L 256 224 Q 271 225 272 240 L 272 272 Q 271 287 256 288 L 208 288 L 208 336 Q 207 351 192 352 L 160 352 Q 145 351 144 336 L 144 288 L 96 288 Q 81 287 80 272 L 80 240 Q 81 225 96 224 L 144 224 L 144 176 L 144 176 Z"/>
</svg>
