<svg xmlns="http://www.w3.org/2000/svg" viewBox="0 0 384 384">
    <path d="M 48 32 Q 48 18 57 9 L 57 9 Q 66 0 80 0 L 176 0 L 176 128 L 80 128 Q 66 128 57 119 Q 48 110 48 96 L 48 32 L 48 32 Z M 208 128 L 208 0 L 304 0 Q 318 0 327 9 Q 336 18 336 32 L 336 96 Q 336 110 327 119 Q 318 128 304 128 L 208 128 L 208 128 Z M 0 352 L 0 320 L 96 320 L 96 352 Q 96 366 87 375 Q 78 384 64 384 L 32 384 Q 18 384 9 375 Q 0 366 0 352 L 0 352 Z M 288 352 L 288 320 L 384 320 L 384 352 Q 384 366 375 375 Q 366 384 352 384 L 320 384 Q 306 384 297 375 Q 288 366 288 352 L 288 352 Z"/>
</svg>
