<svg xmlns="http://www.w3.org/2000/svg" viewBox="0 0 448 514">
    <path d="M 0 64 Q 1 37 19 19 L 19 19 Q 37 1 64 0 L 384 0 Q 411 1 429 19 Q 447 37 448 64 L 448 352 Q 447 379 429 397 Q 411 415 384 416 L 277 416 L 154 509 Q 146 514 137 510 Q 128 506 128 496 L 128 416 L 64 416 Q 37 415 19 397 Q 1 379 0 352 L 0 64 L 0 64 Z M 96 96 Q 82 96 73 105 L 73 105 Q 64 114 64 128 L 64 256 Q 64 270 73 279 Q 82 288 96 288 L 352 288 Q 366 288 375 279 Q 384 270 384 256 L 384 128 Q 384 114 375 105 Q 366 96 352 96 L 96 96 L 96 96 Z"/>
</svg>
