<svg xmlns="http://www.w3.org/2000/svg" viewBox="0 0 448 512">
    <path d="M 336 112 Q 336 82 321 56 L 321 56 Q 306 30 280 15 Q 254 0 224 0 Q 194 0 168 15 Q 142 30 127 56 Q 112 82 112 112 Q 112 142 127 168 Q 142 194 168 209 Q 194 224 224 224 Q 254 224 280 209 Q 306 194 321 168 Q 336 142 336 112 L 336 112 Z M 176 72 Q 178 50 200 48 Q 222 50 224 72 Q 222 94 200 96 Q 178 94 176 72 L 176 72 Z M 64 352 Q 37 353 19 371 L 19 371 Q 1 389 0 416 L 0 448 Q 1 475 19 493 Q 37 511 64 512 L 384 512 Q 411 511 429 493 Q 447 475 448 448 L 448 416 Q 447 389 429 371 Q 411 353 384 352 L 64 352 L 64 352 Z"/>
</svg>
