<svg xmlns="http://www.w3.org/2000/svg" viewBox="0 0 448 448">
    <path d="M 224 448 Q 285 447 336 418 L 336 418 Q 387 388 418 336 Q 448 283 448 224 Q 448 165 418 112 Q 387 60 336 30 Q 285 1 224 0 Q 163 1 112 30 Q 61 60 30 112 Q 0 165 0 224 Q 0 283 30 336 Q 61 388 112 418 Q 163 447 224 448 L 224 448 Z M 144 144 Q 158 144 167 153 L 167 153 Q 176 162 176 176 Q 176 190 167 199 Q 158 208 144 208 Q 131 208 122 199 Q 113 190 112 176 Q 113 162 122 153 Q 131 144 144 144 L 144 144 Z M 272 176 Q 273 162 282 153 L 282 153 Q 291 144 304 144 Q 318 144 327 153 Q 336 162 336 176 Q 336 190 327 199 Q 318 208 304 208 Q 291 208 282 199 Q 273 190 272 176 L 272 176 Z M 140 282 Q 172 319 224 320 Q 276 319 308 282 Q 319 272 331 281 Q 341 291 332 303 Q 290 350 224 352 Q 158 350 116 303 Q 107 291 117 281 Q 129 272 140 282 L 140 282 Z"/>
</svg>
