<svg xmlns="http://www.w3.org/2000/svg" viewBox="0 0 352 456">
    <path d="M 225 54 Q 226 27 249 12 Q 273 0 297 12 Q 320 27 321 54 Q 320 81 297 96 Q 273 108 249 96 Q 226 81 225 54 L 225 54 Z M 78 60 Q 93 50 111 57 L 227 112 Q 249 123 254 146 Q 258 168 242 187 L 204 230 L 302 230 Q 325 231 339 248 Q 352 264 349 287 L 320 428 Q 317 442 307 449 Q 296 456 283 453 Q 269 450 262 440 Q 255 429 258 416 L 282 294 L 212 294 Q 196 258 166 234 Q 136 210 97 201 L 152 147 L 101 123 L 52 160 Q 41 167 28 166 Q 16 164 7 153 Q 0 142 1 129 Q 3 117 14 108 L 78 60 L 78 60 Z"/>
</svg>
