<svg xmlns="http://www.w3.org/2000/svg" viewBox="0 0 578 194">
    <path d="M 18 120 Q 5 130 2 146 L 2 146 Q 0 162 10 176 Q 20 189 36 192 Q 52 194 66 184 L 185 96 L 306 96 Q 321 97 322 112 Q 321 127 306 128 L 290 128 L 226 128 Q 212 128 203 137 Q 194 146 194 160 Q 194 174 203 183 Q 212 192 226 192 L 290 192 L 306 192 L 384 192 Q 429 192 464 164 L 509 128 L 546 128 Q 560 128 569 119 Q 578 110 578 96 L 578 32 Q 578 18 569 9 Q 560 0 546 0 L 386 0 L 226 0 Q 181 0 145 27 L 18 120 L 18 120 Z M 384 128 Q 384 128 384 127 Q 385 127 385 127 Q 385 128 385 128 Q 385 128 385 129 Q 385 129 385 129 Q 384 128 384 128 L 384 128 Z"/>
</svg>
