<svg xmlns="http://www.w3.org/2000/svg" viewBox="0 0 576 448">
    <path d="M 0 64 Q 1 37 19 19 L 19 19 Q 37 1 64 0 L 512 0 Q 539 1 557 19 Q 575 37 576 64 L 576 384 Q 575 411 557 429 Q 539 447 512 448 L 483 448 L 447 351 Q 434 322 402 320 L 174 320 Q 142 322 129 351 L 93 448 L 64 448 Q 37 447 19 429 Q 1 411 0 384 L 0 64 L 0 64 Z M 417 362 L 449 448 L 127 448 L 159 362 Q 163 353 174 352 L 402 352 Q 413 352 417 362 L 417 362 Z M 160 96 Q 126 97 103 119 L 103 119 Q 81 142 80 176 Q 81 210 103 233 Q 126 255 160 256 L 416 256 Q 450 255 473 233 Q 495 210 496 176 Q 495 142 473 119 Q 450 97 416 96 L 160 96 L 160 96 Z"/>
</svg>
