<svg xmlns="http://www.w3.org/2000/svg" viewBox="0 0 640 512">
    <path d="M 450 192 L 37 192 Q 21 192 11 181 Q 0 171 0 155 Q 0 144 6 135 L 82 21 Q 96 1 122 0 L 518 0 Q 544 1 558 21 L 634 135 Q 640 144 640 155 Q 640 170 630 180 Q 621 190 606 192 Q 575 161 528 160 Q 481 161 450 192 L 450 192 Z M 384 352 L 384 384 L 384 464 Q 383 484 370 498 Q 356 511 336 512 L 112 512 Q 92 511 78 498 Q 65 484 64 464 L 64 384 L 64 224 L 128 224 L 128 384 L 320 384 L 320 224 L 384 224 L 384 352 L 384 352 Z"/>
</svg>
