<svg xmlns="http://www.w3.org/2000/svg" viewBox="0 0 384 512">
    <path d="M 0 256 Q 1 184 35 127 L 35 127 Q 69 69 127 35 L 127 35 Q 184 1 256 0 Q 310 1 347 37 Q 383 74 384 128 Q 383 182 347 219 Q 310 255 256 256 Q 202 257 165 293 Q 129 330 128 384 Q 129 438 165 475 Q 202 511 256 512 Q 184 511 127 477 Q 69 443 35 385 Q 1 328 0 256 L 0 256 Z M 288 384 Q 288 398 279 407 L 279 407 Q 270 416 256 416 Q 242 416 233 407 Q 224 398 224 384 Q 224 370 233 361 Q 242 352 256 352 Q 270 352 279 361 Q 288 370 288 384 L 288 384 Z M 256 96 Q 242 96 233 105 L 233 105 Q 224 114 224 128 Q 224 142 233 151 Q 242 160 256 160 Q 270 160 279 151 Q 288 142 288 128 Q 288 114 279 105 Q 270 96 256 96 L 256 96 Z"/>
</svg>
