<svg xmlns="http://www.w3.org/2000/svg" viewBox="0 0 512 512">
    <path d="M 510 289 Q 512 272 512 256 Q 511 184 477 127 Q 443 69 385 35 Q 328 1 256 0 Q 184 1 127 35 Q 69 69 35 127 Q 1 184 0 256 Q 0 273 2 289 Q 34 285 60 306 L 60 306 Q 103 342 127 391 Q 150 440 158 493 Q 204 512 256 512 Q 309 512 354 493 Q 362 440 385 391 Q 409 342 452 306 L 452 306 Q 478 285 510 289 L 510 289 Z M 256 320 Q 276 321 290 334 L 290 334 Q 303 348 304 368 L 304 400 Q 303 420 290 434 Q 276 447 256 448 Q 236 447 222 434 Q 209 420 208 400 L 208 368 Q 209 348 222 334 Q 236 321 256 320 L 256 320 Z M 209 243 Q 192 271 166 282 L 166 282 Q 141 294 119 283 Q 99 271 96 244 Q 94 218 111 189 Q 128 161 154 150 Q 179 139 201 149 Q 221 161 224 188 Q 226 214 209 243 L 209 243 Z M 393 283 Q 371 294 346 282 L 346 282 Q 320 271 303 243 Q 286 214 288 188 Q 291 161 311 149 Q 333 139 358 150 Q 384 161 401 189 Q 418 218 416 244 Q 413 271 393 283 L 393 283 Z"/>
</svg>
