<svg xmlns="http://www.w3.org/2000/svg" viewBox="0 0 384 384">
    <path d="M 352 64 Q 366 64 375 55 L 375 55 Q 384 46 384 32 Q 384 18 375 9 Q 366 0 352 0 Q 338 0 329 9 Q 320 18 320 32 Q 320 46 329 55 Q 338 64 352 64 L 352 64 Z M 272 144 Q 286 144 295 135 L 295 135 Q 304 126 304 112 Q 304 98 295 89 Q 286 80 272 80 Q 258 80 249 89 Q 240 98 240 112 Q 240 126 249 135 Q 258 144 272 144 L 272 144 Z M 384 192 Q 384 178 375 169 L 375 169 Q 366 160 352 160 Q 338 160 329 169 Q 320 178 320 192 Q 320 206 329 215 Q 338 224 352 224 Q 366 224 375 215 Q 384 206 384 192 L 384 192 Z M 144 272 Q 144 258 135 249 L 135 249 Q 126 240 112 240 Q 98 240 89 249 Q 80 258 80 272 Q 80 286 89 295 Q 98 304 112 304 Q 126 304 135 295 Q 144 286 144 272 L 144 272 Z M 64 352 Q 64 338 55 329 L 55 329 Q 46 320 32 320 Q 18 320 9 329 Q 0 338 0 352 Q 0 366 9 375 Q 18 384 32 384 Q 46 384 55 375 Q 64 366 64 352 L 64 352 Z M 192 384 Q 206 384 215 375 L 215 375 Q 224 366 224 352 Q 224 338 215 329 Q 206 320 192 320 Q 178 320 169 329 Q 160 338 160 352 Q 160 366 169 375 Q 178 384 192 384 L 192 384 Z M 384 352 Q 384 338 375 329 L 375 329 Q 366 320 352 320 Q 338 320 329 329 Q 320 338 320 352 Q 320 366 329 375 Q 338 384 352 384 Q 366 384 375 375 Q 384 366 384 352 L 384 352 Z M 272 304 Q 286 304 295 295 L 295 295 Q 304 286 304 272 Q 304 258 295 249 Q 286 240 272 240 Q 258 240 249 249 Q 240 258 240 272 Q 240 286 249 295 Q 258 304 272 304 L 272 304 Z M 224 192 Q 224 178 215 169 L 215 169 Q 206 160 192 160 Q 178 160 169 169 Q 160 178 160 192 Q 160 206 169 215 Q 178 224 192 224 Q 206 224 215 215 Q 224 206 224 192 L 224 192 Z"/>
</svg>
