<svg xmlns="http://www.w3.org/2000/svg" viewBox="0 0 638 352">
    <path d="M 328 24 Q 330 2 352 0 L 393 0 Q 411 0 426 10 Q 440 20 446 38 L 454 61 L 505 35 Q 512 32 520 32 L 528 32 Q 543 33 544 48 L 544 112 Q 543 127 528 128 L 520 128 Q 512 128 505 125 L 470 107 L 500 192 Q 503 192 506 192 Q 509 192 512 192 Q 579 194 624 238 Q 638 255 624 272 Q 608 286 590 272 Q 559 241 512 240 Q 470 241 440 266 Q 410 292 402 332 Q 397 351 378 352 L 336 352 Q 335 352 333 352 L 32 352 Q 18 352 9 343 Q 0 334 0 320 L 0 288 Q 1 234 37 197 Q 74 161 128 160 L 224 160 Q 238 160 247 169 Q 256 178 256 192 L 256 256 Q 256 270 265 279 Q 274 288 288 288 L 365 288 Q 392 228 453 203 L 401 53 Q 399 48 393 48 L 352 48 Q 330 46 328 24 L 328 24 Z"/>
</svg>
