<svg xmlns="http://www.w3.org/2000/svg" viewBox="0 0 495 512">
    <path d="M 0 32 Q 0 18 9 9 L 9 9 Q 18 0 32 0 L 96 0 Q 110 0 119 9 Q 128 18 128 32 L 128 96 L 0 96 L 0 32 L 0 32 Z M 0 128 L 128 128 L 128 384 L 0 384 L 0 128 L 0 128 Z M 0 416 L 128 416 L 128 480 Q 128 494 119 503 Q 110 512 96 512 L 32 512 Q 18 512 9 503 Q 0 494 0 480 L 0 416 L 0 416 Z M 160 32 Q 160 18 169 9 L 169 9 Q 178 0 192 0 L 256 0 Q 270 0 279 9 Q 288 18 288 32 L 288 96 L 160 96 L 160 32 L 160 32 Z M 160 128 L 288 128 L 288 384 L 160 384 L 160 128 L 160 128 Z M 160 416 L 288 416 L 288 480 Q 288 494 279 503 Q 270 512 256 512 L 192 512 Q 178 512 169 503 Q 160 494 160 480 L 160 416 L 160 416 Z M 289 118 L 412 85 L 420 116 L 298 149 L 289 118 L 289 118 Z M 364 396 L 486 363 L 495 394 L 372 427 L 364 396 L 364 396 Z"/>
</svg>
