<svg xmlns="http://www.w3.org/2000/svg" viewBox="0 0 328 448">
    <path d="M 328 160 L 168 0 L 168 128 Q 168 142 177 151 Q 186 160 200 160 L 328 160 L 328 160 Z M 32 224 Q 18 224 9 233 L 9 233 Q 0 242 0 256 L 0 272 L 0 352 L 0 416 Q 0 430 9 439 Q 18 448 32 448 L 96 448 L 176 448 L 240 448 Q 254 448 263 439 Q 272 430 272 416 L 272 352 L 272 272 L 272 256 Q 272 242 263 233 Q 254 224 240 224 L 32 224 L 32 224 Z M 32 336 L 32 288 L 80 288 L 80 336 L 32 336 L 32 336 Z M 112 336 L 112 288 L 160 288 L 160 336 L 112 336 L 112 336 Z M 192 336 L 192 288 L 240 288 L 240 336 L 192 336 L 192 336 Z M 192 368 L 240 368 L 240 416 L 192 416 L 192 368 L 192 368 Z M 160 368 L 160 416 L 112 416 L 112 368 L 160 368 L 160 368 Z M 80 368 L 80 416 L 32 416 L 32 368 L 80 368 L 80 368 Z"/>
</svg>
