<svg xmlns="http://www.w3.org/2000/svg" viewBox="0 0 448 448">
    <path d="M 224 448 Q 285 447 336 418 L 336 418 Q 387 388 418 336 Q 448 283 448 224 Q 448 165 418 112 Q 387 60 336 30 Q 285 1 224 0 Q 163 1 112 30 Q 61 60 30 112 Q 0 165 0 224 Q 0 283 30 336 Q 61 388 112 418 Q 163 447 224 448 L 224 448 Z M 224 96 Q 246 98 248 120 L 248 232 Q 246 254 224 256 Q 202 254 200 232 L 200 120 Q 202 98 224 96 L 224 96 Z M 192 320 Q 192 306 201 297 L 201 297 Q 210 288 224 288 Q 238 288 247 297 Q 256 306 256 320 Q 256 334 247 343 Q 238 352 224 352 Q 210 352 201 343 Q 192 334 192 320 L 192 320 Z"/>
</svg>
