<svg xmlns="http://www.w3.org/2000/svg" viewBox="0 0 448 448">
    <path d="M 64 0 Q 37 1 19 19 L 19 19 Q 1 37 0 64 L 0 384 Q 1 411 19 429 Q 37 447 64 448 L 296 448 Q 272 418 261 380 Q 243 384 224 384 Q 156 382 111 337 Q 66 292 64 224 Q 66 156 111 111 Q 156 66 224 64 Q 277 65 317 94 Q 357 123 375 170 Q 402 160 432 160 Q 440 160 448 161 L 448 64 Q 447 37 429 19 Q 411 1 384 0 L 64 0 L 64 0 Z M 256 224 Q 256 210 247 201 L 247 201 Q 238 192 224 192 Q 210 192 201 201 Q 192 210 192 224 Q 192 238 201 247 Q 210 256 224 256 Q 238 256 247 247 Q 256 238 256 224 L 256 224 Z"/>
</svg>
