<svg xmlns="http://www.w3.org/2000/svg" viewBox="0 0 505 472">
    <path d="M 131 29 Q 162 56 185 91 Q 112 126 65 185 Q 18 244 0 317 Q 8 349 23 377 Q 29 294 75 225 Q 121 157 201 119 Q 230 178 233 247 Q 175 283 137 336 Q 99 389 83 451 Q 96 462 111 472 Q 120 431 139 394 Q 205 439 279 451 Q 354 462 426 441 Q 450 419 467 391 Q 392 427 310 422 Q 227 416 155 366 Q 191 311 249 275 Q 310 307 375 313 Q 439 320 501 302 Q 504 285 505 267 Q 465 281 424 283 Q 430 203 403 132 Q 375 62 321 10 Q 290 1 257 0 Q 326 46 362 121 Q 399 195 392 282 Q 326 279 265 247 Q 262 178 236 119 Q 209 59 163 15 Q 146 21 131 29 L 131 29 Z"/>
</svg>
