<svg xmlns="http://www.w3.org/2000/svg" viewBox="0 0 640 416">
    <path d="M 0 48 Q 1 28 14 14 L 14 14 Q 28 1 48 0 L 368 0 Q 388 1 402 14 Q 415 28 416 48 L 416 96 L 467 96 Q 493 96 512 115 L 589 192 Q 608 211 608 237 L 608 256 L 608 288 L 608 352 Q 622 352 631 361 Q 640 370 640 384 Q 640 398 631 407 Q 622 416 608 416 L 576 416 L 575 416 Q 568 374 538 348 Q 507 321 464 320 Q 421 321 390 348 Q 360 374 353 416 L 287 416 Q 280 374 250 348 Q 219 321 176 320 Q 133 321 102 348 Q 72 374 65 416 L 48 416 Q 28 415 14 402 Q 1 388 0 368 L 0 48 L 0 48 Z M 416 256 L 544 256 L 544 237 L 467 160 L 416 160 L 416 256 L 416 256 Z M 266 52 Q 257 44 246 51 L 118 147 Q 110 154 113 165 Q 117 176 128 176 L 182 176 L 146 249 Q 141 260 150 268 Q 160 275 170 269 L 298 173 Q 306 166 303 155 Q 299 144 288 144 L 234 144 L 270 71 Q 275 60 266 52 L 266 52 Z"/>
</svg>
