<svg xmlns="http://www.w3.org/2000/svg" viewBox="0 0 448 448">
    <path d="M 448 369 L 448 64 Q 447 37 429 19 Q 411 1 384 0 L 64 0 Q 30 1 12 27 L 131 121 Q 141 97 168 96 L 240 96 Q 281 97 308 124 Q 335 151 336 192 Q 335 233 308 260 L 448 369 L 448 369 Z M 257 219 Q 271 210 272 192 Q 272 178 263 169 Q 254 160 240 160 L 192 160 L 192 168 L 257 219 L 257 219 Z M 391 448 L 192 291 L 192 320 Q 192 334 183 343 Q 174 352 160 352 Q 146 352 137 343 Q 128 334 128 320 L 128 256 L 128 241 L 0 140 L 0 384 Q 1 411 19 429 Q 37 447 64 448 L 384 448 Q 387 448 391 448 L 391 448 Z"/>
</svg>
