<svg xmlns="http://www.w3.org/2000/svg" viewBox="0 0 615 516">
    <path d="M 176 36 Q 181 15 161 5 Q 140 0 130 20 L 120 50 L 110 20 Q 101 0 79 5 Q 59 14 64 36 L 74 64 L 46 41 Q 28 29 12 45 Q 0 63 16 79 L 42 100 L 196 100 L 222 79 Q 238 63 226 45 Q 210 29 192 41 L 166 62 L 176 36 L 176 36 Z M 567 228 L 563 228 Q 555 249 537 263 Q 519 276 495 276 L 423 276 L 423 356 L 615 356 L 615 276 Q 614 256 601 242 Q 587 229 567 228 L 567 228 Z M 423 388 L 423 516 L 567 516 Q 587 515 601 502 Q 614 488 615 468 L 615 388 L 423 388 L 423 388 Z M 391 388 L 199 388 L 199 468 Q 200 488 213 502 Q 227 515 247 516 L 391 516 L 391 388 L 391 388 Z M 391 356 L 391 276 L 375 276 L 319 276 Q 295 276 277 263 Q 259 249 251 228 L 247 228 Q 227 229 213 242 Q 200 256 199 276 L 199 356 L 391 356 L 391 356 Z"/>
</svg>
