<svg xmlns="http://www.w3.org/2000/svg" viewBox="0 0 288 454">
    <path d="M 0 54 Q 1 27 24 12 Q 48 0 72 12 Q 95 27 96 54 Q 95 81 72 96 Q 48 108 24 96 Q 1 81 0 54 L 0 54 Z M 96 230 L 96 262 L 150 262 Q 181 263 203 282 Q 225 301 229 332 L 236 390 L 256 390 Q 270 390 279 399 Q 288 408 288 422 Q 288 436 279 445 Q 270 454 256 454 L 208 454 Q 182 452 176 426 L 166 340 Q 163 327 150 326 L 64 326 Q 37 325 19 307 Q 1 289 0 262 L 0 182 Q 1 162 14 148 Q 28 135 48 134 Q 81 136 93 166 L 160 166 Q 174 166 183 175 Q 192 184 192 198 Q 192 212 183 221 Q 174 230 160 230 L 96 230 L 96 230 Z"/>
</svg>
