<svg xmlns="http://www.w3.org/2000/svg" viewBox="0 0 448 256">
    <path d="M 160 0 Q 146 0 137 9 L 137 9 Q 128 18 128 32 L 128 224 Q 128 238 137 247 Q 146 256 160 256 Q 174 256 183 247 Q 192 238 192 224 L 192 32 Q 192 18 183 9 Q 174 0 160 0 L 160 0 Z M 32 96 Q 18 96 9 105 L 9 105 Q 0 114 0 128 L 0 224 Q 0 238 9 247 Q 18 256 32 256 Q 46 256 55 247 Q 64 238 64 224 L 64 128 Q 64 114 55 105 Q 46 96 32 96 L 32 96 Z M 256 96 L 256 224 Q 256 238 265 247 Q 274 256 288 256 Q 302 256 311 247 Q 320 238 320 224 L 320 96 Q 320 82 311 73 Q 302 64 288 64 Q 274 64 265 73 Q 256 82 256 96 L 256 96 Z M 416 0 Q 402 0 393 9 L 393 9 Q 384 18 384 32 L 384 224 Q 384 238 393 247 Q 402 256 416 256 Q 430 256 439 247 Q 448 238 448 224 L 448 32 Q 448 18 439 9 Q 430 0 416 0 L 416 0 Z"/>
</svg>
