<svg xmlns="http://www.w3.org/2000/svg" viewBox="0 0 224 416">
    <path d="M 33 66 Q 39 37 60 19 L 60 19 Q 82 1 112 0 Q 142 1 164 19 Q 185 37 191 66 Q 222 78 224 112 L 224 136 Q 222 158 200 160 L 112 160 L 24 160 Q 2 158 0 136 L 0 112 Q 2 78 33 66 L 33 66 Z M 136 80 Q 134 58 112 56 Q 90 58 88 80 Q 90 102 112 104 Q 134 102 136 80 L 136 80 Z M 80 240 Q 81 225 96 224 L 128 224 Q 143 225 144 240 L 144 288 L 192 288 Q 207 289 208 304 L 208 336 Q 207 351 192 352 L 144 352 L 144 400 Q 143 415 128 416 L 96 416 Q 81 415 80 400 L 80 352 L 32 352 Q 17 351 16 336 L 16 304 Q 17 289 32 288 L 80 288 L 80 240 L 80 240 Z"/>
</svg>
