<svg xmlns="http://www.w3.org/2000/svg" viewBox="0 0 608 457">
    <path d="M 48 0 Q 28 1 14 14 L 14 14 Q 1 28 0 48 L 0 192 Q 1 212 14 226 Q 28 239 48 240 L 352 240 Q 372 239 386 226 Q 399 212 400 192 L 400 48 Q 399 28 386 14 Q 372 1 352 0 L 48 0 L 48 0 Z M 80 40 Q 95 41 96 56 L 96 184 Q 95 199 80 200 Q 65 199 64 184 L 64 56 Q 65 41 80 40 L 80 40 Z M 224 56 Q 225 41 240 40 Q 255 41 256 56 L 256 184 Q 255 199 240 200 Q 225 199 224 184 L 224 56 L 224 56 Z M 160 40 Q 175 41 176 56 L 176 184 Q 175 199 160 200 Q 145 199 144 184 L 144 56 Q 145 41 160 40 L 160 40 Z M 304 56 Q 305 41 320 40 Q 335 41 336 56 L 336 184 Q 335 199 320 200 Q 305 199 304 184 L 304 56 L 304 56 Z M 32 384 Q 33 420 64 439 Q 96 457 128 439 Q 159 420 160 384 Q 159 348 128 329 Q 96 311 64 329 Q 33 348 32 384 L 32 384 Z M 192 384 Q 193 420 224 439 Q 256 457 288 439 Q 319 420 320 384 Q 319 348 288 329 Q 256 311 224 329 Q 193 348 192 384 L 192 384 Z M 480 384 Q 481 420 512 439 Q 544 457 576 439 Q 607 420 608 384 Q 607 348 576 329 Q 544 311 512 329 Q 481 348 480 384 L 480 384 Z"/>
</svg>
