<svg xmlns="http://www.w3.org/2000/svg" viewBox="0 0 510 491">
    <path d="M 154 0 Q 100 23 62 67 L 102 167 Q 106 176 103 186 Q 100 195 91 200 L 0 258 Q 6 318 35 366 L 143 359 Q 153 359 161 364 Q 169 370 171 380 L 198 485 Q 226 491 255 491 Q 284 491 312 485 L 339 380 Q 341 370 349 364 Q 357 359 367 359 L 475 366 Q 504 318 510 258 L 419 200 Q 410 195 407 186 Q 404 176 408 167 L 448 67 Q 410 23 356 0 L 273 69 Q 265 75 255 75 Q 245 75 237 69 L 154 0 L 154 0 Z M 241 145 Q 255 136 269 145 L 336 194 Q 349 204 345 221 L 319 299 Q 313 315 296 316 L 214 316 Q 197 315 191 299 L 165 221 Q 161 204 174 194 L 241 145 L 241 145 Z"/>
</svg>
