<svg xmlns="http://www.w3.org/2000/svg" viewBox="0 0 512 448">
    <path d="M 64 16 Q 65 1 80 0 L 144 0 Q 159 1 160 16 L 160 32 L 64 32 L 64 16 L 64 16 Z M 0 384 L 0 128 L 512 128 L 512 384 Q 511 411 493 429 Q 475 447 448 448 L 64 448 Q 37 447 19 429 Q 1 411 0 384 L 0 384 Z M 256 368 Q 282 368 304 355 L 304 355 Q 326 342 339 320 Q 352 297 352 272 Q 352 247 339 224 Q 326 202 304 189 Q 282 176 256 176 Q 230 176 208 189 Q 186 202 173 224 Q 160 247 160 272 Q 160 297 173 320 Q 186 342 208 355 Q 230 368 256 368 L 256 368 Z"/>
</svg>
