<svg xmlns="http://www.w3.org/2000/svg" viewBox="0 0 448 512">
    <path d="M 96 0 Q 55 1 28 28 L 28 28 Q 1 55 0 96 L 0 416 Q 1 457 28 484 Q 55 511 96 512 L 216 512 L 216 448 L 96 448 Q 82 448 73 439 Q 64 430 64 416 Q 64 402 73 393 Q 82 384 96 384 L 216 384 L 216 210 L 177 249 Q 160 263 143 249 Q 129 232 143 215 L 223 135 Q 240 121 257 135 L 337 215 Q 351 232 337 249 Q 320 263 303 249 L 264 210 L 264 384 L 352 384 L 416 384 Q 430 384 439 375 Q 448 366 448 352 L 448 32 Q 448 18 439 9 Q 430 0 416 0 L 384 0 L 96 0 L 96 0 Z M 264 448 L 264 512 L 384 512 L 416 512 Q 430 512 439 503 Q 448 494 448 480 Q 448 466 439 457 Q 430 448 416 448 L 352 448 L 264 448 L 264 448 Z"/>
</svg>
