<svg xmlns="http://www.w3.org/2000/svg" viewBox="0 0 448 320">
    <path d="M 0 160 Q 0 117 21 80 L 21 80 Q 43 43 80 21 Q 118 0 160 0 Q 202 0 240 21 Q 277 43 299 80 Q 320 117 320 160 Q 320 203 299 240 Q 277 277 240 299 Q 202 320 160 320 Q 118 320 80 299 Q 43 277 21 240 Q 0 203 0 160 L 0 160 Z M 192 160 Q 192 146 183 137 L 183 137 Q 174 128 160 128 Q 146 128 137 137 Q 128 146 128 160 Q 128 174 137 183 Q 146 192 160 192 Q 174 192 183 183 Q 192 174 192 160 L 192 160 Z M 432 0 Q 447 1 448 16 L 448 176 Q 448 188 443 198 L 427 230 Q 436 245 429 262 L 413 294 Q 406 306 394 310 Q 382 314 370 308 Q 358 302 354 290 Q 350 278 355 266 L 371 234 Q 380 217 398 216 L 414 183 Q 416 180 416 176 L 416 16 Q 417 1 432 0 L 432 0 Z"/>
</svg>
