<svg xmlns="http://www.w3.org/2000/svg" viewBox="0 0 640 384">
    <path d="M 0 80 Q 1 46 23 23 L 23 23 Q 46 1 80 0 L 416 0 Q 484 2 529 47 Q 574 92 576 160 L 576 320 L 608 320 Q 622 320 631 329 Q 640 338 640 352 Q 640 366 631 375 Q 622 384 608 384 L 576 384 L 303 384 Q 296 342 266 316 Q 235 289 192 288 Q 149 289 118 316 Q 88 342 81 384 L 80 384 Q 46 383 23 361 Q 1 338 0 304 L 0 80 L 0 80 Z M 349 320 L 448 320 L 448 128 Q 448 114 439 105 Q 430 96 416 96 L 352 96 Q 338 96 329 105 Q 320 114 320 128 L 320 279 Q 337 297 349 320 L 349 320 Z M 96 96 Q 82 96 73 105 L 73 105 Q 64 114 64 128 L 64 192 Q 64 206 73 215 Q 82 224 96 224 L 224 224 Q 238 224 247 215 Q 256 206 256 192 L 256 128 Q 256 114 247 105 Q 238 96 224 96 L 96 96 L 96 96 Z"/>
</svg>
