<svg xmlns="http://www.w3.org/2000/svg" viewBox="0 0 448 432">
    <path d="M 256 32 Q 256 18 247 9 L 247 9 Q 238 0 224 0 Q 210 0 201 9 Q 192 18 192 32 L 192 48 L 176 48 Q 162 48 153 57 Q 144 66 144 80 Q 144 94 153 103 Q 162 112 176 112 L 192 112 L 192 160 L 41 160 Q 24 160 12 172 Q 0 184 0 201 Q 0 208 2 215 L 80 432 L 368 432 L 446 215 Q 448 208 448 201 Q 448 184 436 172 Q 424 160 407 160 L 256 160 L 256 112 L 272 112 Q 286 112 295 103 Q 304 94 304 80 Q 304 66 295 57 Q 286 48 272 48 L 256 48 L 256 32 L 256 32 Z"/>
</svg>
