<svg xmlns="http://www.w3.org/2000/svg" viewBox="0 0 448 377">
    <path d="M 222 7 Q 228 0 237 1 Q 273 7 296 33 Q 319 59 320 96 Q 320 105 319 113 L 320 113 Q 347 114 365 132 Q 383 150 384 177 Q 384 195 375 210 Q 407 214 427 237 Q 447 260 448 293 Q 447 329 423 352 Q 400 376 364 377 L 351 377 Q 353 365 349 353 Q 337 323 304 321 L 286 321 L 315 263 Q 322 247 319 231 Q 315 215 302 204 Q 289 193 272 193 Q 256 193 242 204 L 82 332 Q 62 349 64 375 Q 36 367 18 345 Q 1 323 0 293 Q 1 260 21 237 Q 41 214 73 210 Q 64 195 64 177 Q 65 150 83 132 Q 101 114 128 113 L 144 113 Q 181 113 202 96 Q 223 81 224 48 Q 224 34 220 22 Q 217 14 223 7 L 222 7 Z"/>
</svg>
