<svg xmlns="http://www.w3.org/2000/svg" viewBox="0 0 384 384">
    <path d="M 0 32 L 0 96 Q 0 110 9 119 Q 18 128 32 128 L 160 128 Q 174 128 183 119 Q 192 110 192 96 L 192 32 Q 192 18 183 9 Q 174 0 160 0 L 32 0 Q 18 0 9 9 Q 0 18 0 32 L 0 32 Z M 256 32 L 256 96 Q 256 110 265 119 Q 274 128 288 128 L 352 128 Q 366 128 375 119 Q 384 110 384 96 L 384 32 Q 384 18 375 9 Q 366 0 352 0 L 288 0 Q 274 0 265 9 Q 256 18 256 32 L 256 32 Z M 128 384 Q 173 383 197 344 Q 219 304 197 264 Q 173 225 128 224 Q 83 225 59 264 Q 37 304 59 344 Q 83 383 128 384 L 128 384 Z"/>
</svg>
