<svg xmlns="http://www.w3.org/2000/svg" viewBox="0 0 384 384">
    <path d="M 288 0 Q 274 0 265 9 L 265 9 Q 256 18 256 32 L 256 96 Q 256 110 265 119 Q 274 128 288 128 L 352 128 Q 366 128 375 119 Q 384 110 384 96 L 384 32 Q 384 18 375 9 Q 366 0 352 0 L 288 0 L 288 0 Z M 0 288 L 0 352 Q 0 366 9 375 Q 18 384 32 384 L 96 384 Q 110 384 119 375 Q 128 366 128 352 L 128 288 Q 128 274 119 265 Q 110 256 96 256 L 32 256 Q 18 256 9 265 Q 0 274 0 288 L 0 288 Z M 160 288 L 160 352 Q 160 366 169 375 Q 178 384 192 384 L 256 384 Q 270 384 279 375 Q 288 366 288 352 L 288 288 Q 288 274 279 265 Q 270 256 256 256 L 192 256 Q 178 256 169 265 Q 160 274 160 288 L 160 288 Z"/>
</svg>
