<svg xmlns="http://www.w3.org/2000/svg" viewBox="0 0 512 512">
    <path d="M 240 80 L 272 80 L 272 48 L 240 48 L 240 80 L 240 80 Z M 192 32 Q 192 18 201 9 L 201 9 Q 210 0 224 0 L 288 0 Q 302 0 311 9 Q 320 18 320 32 L 320 96 Q 320 110 311 119 Q 302 128 288 128 L 224 128 Q 210 128 201 119 Q 192 110 192 96 L 192 32 L 192 32 Z M 48 272 L 80 272 L 80 240 L 48 240 L 48 272 L 48 272 Z M 0 224 Q 0 210 9 201 L 9 201 Q 18 192 32 192 L 96 192 Q 110 192 119 201 Q 128 210 128 224 L 128 288 Q 128 302 119 311 Q 110 320 96 320 L 32 320 Q 18 320 9 311 Q 0 302 0 288 L 0 224 L 0 224 Z M 240 432 L 240 464 L 272 464 L 272 432 L 240 432 L 240 432 Z M 224 384 L 288 384 Q 302 384 311 393 Q 320 402 320 416 L 320 480 Q 320 494 311 503 Q 302 512 288 512 L 224 512 Q 210 512 201 503 Q 192 494 192 480 L 192 416 Q 192 402 201 393 Q 210 384 224 384 L 224 384 Z M 432 272 L 464 272 L 464 240 L 432 240 L 432 272 L 432 272 Z M 384 224 Q 384 210 393 201 L 393 201 Q 402 192 416 192 L 480 192 Q 494 192 503 201 Q 512 210 512 224 L 512 288 Q 512 302 503 311 Q 494 320 480 320 L 416 320 Q 402 320 393 311 Q 384 302 384 288 L 384 224 L 384 224 Z"/>
</svg>
