<svg xmlns="http://www.w3.org/2000/svg" viewBox="0 0 389 502">
    <path d="M 69 200 L 69 196 Q 69 182 79 172 L 97 154 Q 101 150 101 144 Q 101 134 111 131 L 137 122 Q 149 118 158 109 L 178 89 Q 181 86 181 81 Q 180 71 170 70 L 169 70 Q 165 70 162 72 L 120 100 Q 117 102 113 102 Q 102 101 101 90 L 101 81 Q 101 70 110 64 L 205 0 Q 286 25 337 91 Q 387 157 389 246 Q 389 279 381 310 L 324 310 Q 301 310 285 294 L 267 276 Q 261 270 261 262 Q 261 254 267 248 L 274 241 Q 277 238 277 234 Q 277 230 274 227 L 268 221 Q 261 214 252 214 L 240 214 Q 230 213 229 203 Q 229 198 232 195 L 237 190 Q 245 182 256 182 L 277 182 Q 292 181 293 166 Q 292 151 277 150 L 248 150 Q 231 152 229 169 Q 228 182 216 186 L 195 193 Q 183 199 188 211 L 189 214 Q 193 227 179 230 Q 173 230 169 226 L 153 204 Q 149 198 142 198 Q 133 198 129 206 L 125 214 Q 117 229 99 230 Q 86 230 78 221 Q 69 213 69 200 L 69 200 Z M 370 342 Q 342 410 284 453 L 284 453 Q 225 496 149 502 L 149 467 Q 149 448 136 435 Q 123 422 104 422 Q 85 422 72 409 L 56 393 Q 37 374 37 347 L 37 344 Q 38 310 66 291 L 93 273 Q 109 262 128 262 L 149 262 Q 173 262 191 277 L 218 300 Q 229 310 244 310 Q 261 310 273 322 L 277 326 Q 293 342 316 342 L 371 342 L 370 342 Z M 64 91 Q 74 102 64 113 L 32 145 Q 21 155 10 145 Q 0 134 10 123 L 42 91 Q 53 81 64 91 L 64 91 Z"/>
</svg>
