<svg xmlns="http://www.w3.org/2000/svg" viewBox="0 0 290 512">
    <path d="M 162 160 L 2 0 L 2 128 Q 2 142 11 151 Q 20 160 34 160 L 162 160 L 162 160 Z M 18 352 Q 3 353 2 368 Q 3 383 18 384 L 56 384 L 4 489 Q 0 497 4 504 Q 9 512 18 512 L 82 512 Q 97 511 98 496 Q 97 481 82 480 L 44 480 L 96 375 Q 100 367 96 360 Q 91 352 82 352 L 18 352 L 18 352 Z M 162 368 Q 161 353 146 352 Q 131 353 130 368 L 130 496 Q 131 511 146 512 Q 161 511 162 496 L 162 368 L 162 368 Z M 194 368 L 194 448 L 194 496 Q 195 511 210 512 Q 225 511 226 496 L 226 464 L 234 464 Q 258 463 274 448 Q 289 432 290 408 Q 289 384 274 368 Q 258 353 234 352 L 210 352 Q 195 353 194 368 L 194 368 Z M 226 432 L 226 384 L 234 384 Q 256 386 258 408 Q 256 430 234 432 L 226 432 L 226 432 Z"/>
</svg>
