<svg xmlns="http://www.w3.org/2000/svg" viewBox="0 0 522 416">
    <path d="M 0 208 Q 0 151 28 104 L 28 104 Q 55 57 104 28 Q 153 0 208 0 Q 263 0 312 28 Q 361 57 388 104 Q 416 151 416 208 Q 416 265 388 312 Q 361 359 312 388 Q 263 416 208 416 Q 153 416 104 388 Q 55 359 28 312 Q 0 265 0 208 L 0 208 Z M 224 76 Q 224 64 216 56 L 216 56 Q 208 48 196 48 Q 184 48 176 56 Q 168 64 168 76 Q 168 88 176 96 Q 184 104 196 104 Q 208 104 216 96 Q 224 88 224 76 L 224 76 Z M 196 192 Q 208 192 216 184 L 216 184 Q 224 176 224 164 Q 224 152 216 144 Q 208 136 196 136 Q 184 136 176 144 Q 168 152 168 164 Q 168 176 176 184 Q 184 192 196 192 L 196 192 Z M 152 124 Q 152 112 144 104 L 144 104 Q 136 96 124 96 Q 112 96 104 104 Q 96 112 96 124 Q 96 136 104 144 Q 112 152 124 152 Q 136 152 144 144 Q 152 136 152 124 L 152 124 Z M 439 64 L 522 64 Q 520 73 520 81 Q 520 89 521 96 L 439 96 Q 440 89 440 81 Q 440 73 439 64 L 439 64 Z"/>
</svg>
