<svg xmlns="http://www.w3.org/2000/svg" viewBox="0 0 416 512">
    <path d="M 176 158 Q 173 205 136 227 Q 103 247 84 279 Q 64 312 64 352 Q 65 409 101 448 L 315 448 Q 351 409 352 352 Q 352 312 332 279 Q 313 247 280 227 Q 243 205 240 158 L 240 64 L 176 64 L 176 158 L 176 158 Z M 304 64 L 304 158 Q 304 167 313 172 Q 360 200 387 247 Q 415 294 416 352 Q 414 438 358 496 Q 341 512 318 512 L 98 512 Q 75 512 58 496 Q 2 438 0 352 Q 1 294 29 247 Q 56 200 104 172 Q 112 167 112 158 L 112 64 Q 98 64 89 55 Q 80 46 80 32 Q 80 18 89 9 Q 98 0 112 0 L 128 0 L 288 0 L 304 0 Q 318 0 327 9 Q 336 18 336 32 Q 336 46 327 55 Q 318 64 304 64 L 304 64 Z"/>
</svg>
