<svg xmlns="http://www.w3.org/2000/svg" viewBox="0 0 640 285">
    <path d="M 128 0 L 56 0 Q 32 1 16 16 Q 1 32 0 56 L 0 141 Q 1 183 25 215 Q 50 247 91 257 L 199 284 Q 159 258 132 218 L 103 211 Q 78 204 63 185 Q 48 166 48 141 L 48 56 Q 49 49 56 48 L 96 48 L 96 32 Q 96 18 105 9 Q 114 0 128 0 L 128 0 Z M 441 285 L 549 258 Q 590 247 615 215 Q 639 183 640 141 L 640 56 Q 639 32 624 16 Q 608 1 584 0 L 512 0 Q 526 0 535 9 Q 544 18 544 32 L 544 48 L 584 48 Q 591 49 592 56 L 592 141 Q 592 166 577 185 Q 562 204 538 211 L 508 218 Q 481 258 441 284 L 441 285 Z"/>
</svg>
