<svg xmlns="http://www.w3.org/2000/svg" viewBox="0 0 640 256">
    <path d="M 128 192 Q 148 192 164 181 L 164 181 Q 180 170 187 152 L 254 152 Q 244 197 210 226 Q 176 255 128 256 Q 74 255 37 219 Q 1 182 0 128 Q 1 74 37 37 Q 74 1 128 0 Q 176 1 210 30 Q 244 59 254 104 L 187 104 Q 180 86 164 75 Q 148 64 128 64 Q 101 65 83 83 Q 65 101 64 128 Q 65 155 83 173 Q 101 191 128 192 L 128 192 Z M 384 128 Q 386 66 431 29 L 463 87 Q 448 104 448 128 Q 449 155 467 173 Q 485 191 512 192 Q 539 191 557 173 Q 575 155 576 128 Q 575 101 557 83 Q 539 65 512 64 Q 508 64 505 64 L 473 6 Q 492 0 512 0 Q 566 1 603 37 Q 639 74 640 128 Q 639 182 603 219 Q 566 255 512 256 Q 458 255 421 219 Q 385 182 384 128 L 384 128 Z"/>
</svg>
