<svg xmlns="http://www.w3.org/2000/svg" viewBox="0 0 576 367">
    <path d="M 409 48 L 281 176 Q 264 190 247 176 L 183 112 Q 169 95 183 78 Q 200 64 217 78 L 264 125 L 375 14 Q 392 0 409 14 Q 423 31 409 48 L 409 48 Z M 48 175 L 96 175 L 96 255 L 80 255 Q 65 256 64 271 Q 65 286 80 287 L 496 287 Q 511 286 512 271 Q 511 256 496 255 L 480 255 L 480 175 L 528 175 Q 548 176 562 189 Q 575 203 576 223 L 576 319 Q 575 339 562 353 Q 548 366 528 367 L 48 367 Q 28 366 14 353 Q 1 339 0 319 L 0 223 Q 1 203 14 189 Q 28 176 48 175 L 48 175 Z"/>
</svg>
