<svg xmlns="http://www.w3.org/2000/svg" viewBox="0 0 512 432">
    <path d="M 208 144 Q 228 144 245 150 Q 275 119 320 113 L 320 112 Q 319 85 301 67 Q 283 49 256 48 Q 245 48 235 52 Q 226 29 206 15 Q 186 1 160 0 Q 130 1 109 19 Q 87 37 81 65 Q 77 64 72 64 Q 41 65 21 85 Q 1 105 0 136 Q 1 167 21 187 Q 41 207 72 208 Q 96 208 115 194 Q 130 171 154 158 Q 179 144 208 144 L 208 144 Z M 64 352 Q 65 386 87 408 L 87 408 Q 110 431 144 432 L 416 432 Q 457 431 484 404 Q 511 377 512 336 Q 511 299 489 274 Q 467 248 432 241 L 432 240 Q 431 199 404 172 Q 377 145 336 144 Q 309 144 288 157 Q 267 169 254 190 Q 234 176 208 176 Q 174 177 151 199 Q 129 222 128 256 Q 128 265 130 273 Q 101 279 83 300 Q 65 322 64 352 L 64 352 Z"/>
</svg>
