<svg xmlns="http://www.w3.org/2000/svg" viewBox="0 0 384 384">
    <path d="M 32 32 Q 32 18 41 9 L 41 9 Q 50 0 64 0 L 176 0 L 176 160 L 64 160 Q 50 160 41 151 Q 32 142 32 128 L 32 32 L 32 32 Z M 208 160 L 208 0 L 320 0 Q 334 0 343 9 Q 352 18 352 32 L 352 128 Q 352 142 343 151 Q 334 160 320 160 L 208 160 L 208 160 Z M 0 320 L 96 320 L 96 352 Q 96 366 87 375 Q 78 384 64 384 L 32 384 Q 18 384 9 375 Q 0 366 0 352 L 0 320 L 0 320 Z M 288 320 L 384 320 L 384 352 Q 384 366 375 375 Q 366 384 352 384 L 320 384 Q 306 384 297 375 Q 288 366 288 352 L 288 320 L 288 320 Z"/>
</svg>
