<svg xmlns="http://www.w3.org/2000/svg" viewBox="0 0 512 512">
    <path d="M 512 256 Q 512 309 492 354 L 441 329 Q 410 315 385 338 L 370 353 Q 347 378 361 409 L 390 467 Q 391 470 393 472 Q 332 511 256 512 Q 184 511 127 477 Q 69 443 35 385 Q 1 328 0 256 Q 1 184 35 127 Q 69 69 127 35 Q 184 1 256 0 Q 328 1 385 35 Q 443 69 477 127 Q 511 184 512 256 L 512 256 Z M 208 208 Q 208 194 199 185 L 199 185 Q 190 176 176 176 Q 163 176 154 185 Q 145 194 144 208 Q 145 222 154 231 Q 163 240 176 240 Q 190 240 199 231 Q 208 222 208 208 L 208 208 Z M 336 240 Q 350 240 359 231 L 359 231 Q 368 222 368 208 Q 368 194 359 185 Q 350 176 336 176 Q 323 176 314 185 Q 305 194 304 208 Q 305 222 314 231 Q 323 240 336 240 L 336 240 Z M 128 320 Q 113 321 112 336 L 112 368 Q 113 383 128 384 Q 143 383 144 368 L 144 336 Q 143 321 128 320 L 128 320 Z M 208 336 Q 207 321 192 320 Q 177 321 176 336 L 176 368 Q 177 383 192 384 Q 207 383 208 368 L 208 336 L 208 336 Z M 256 320 Q 241 321 240 336 L 240 368 Q 241 383 256 384 Q 271 383 272 368 L 272 336 Q 271 321 256 320 L 256 320 Z M 336 336 Q 335 321 320 320 Q 305 321 304 336 L 304 368 Q 305 383 320 384 Q 335 383 336 368 L 336 336 L 336 336 Z"/>
</svg>
