<svg xmlns="http://www.w3.org/2000/svg" viewBox="0 0 352 352">
    <path d="M 176 0 Q 191 1 192 16 L 192 64 Q 206 64 215 73 Q 224 82 224 96 L 224 192 Q 224 206 215 215 Q 206 224 192 224 L 192 272 Q 191 287 176 288 Q 161 287 160 272 L 160 224 Q 146 224 137 215 Q 128 206 128 192 L 128 96 Q 128 82 137 73 Q 146 64 160 64 L 160 16 Q 161 1 176 0 L 176 0 Z M 288 160 L 288 112 Q 289 97 304 96 Q 319 97 320 112 L 320 160 Q 334 160 343 169 Q 352 178 352 192 L 352 256 Q 352 270 343 279 Q 334 288 320 288 L 320 336 Q 319 351 304 352 Q 289 351 288 336 L 288 288 Q 274 288 265 279 Q 256 270 256 256 L 256 192 Q 256 178 265 169 Q 274 160 288 160 L 288 160 Z M 0 128 Q 0 114 9 105 L 9 105 Q 18 96 32 96 L 32 48 Q 33 33 48 32 Q 63 33 64 48 L 64 96 Q 78 96 87 105 Q 96 114 96 128 L 96 256 Q 96 270 87 279 Q 78 288 64 288 L 64 336 Q 63 351 48 352 Q 33 351 32 336 L 32 288 Q 18 288 9 279 Q 0 270 0 256 L 0 128 L 0 128 Z"/>
</svg>
