<svg xmlns="http://www.w3.org/2000/svg" viewBox="0 0 512 512">
    <path d="M 512 256 Q 512 268 511 279 Q 401 319 256 320 Q 111 319 1 279 Q 0 268 0 256 Q 1 184 35 127 Q 69 69 127 35 Q 184 1 256 0 Q 328 1 385 35 Q 443 69 477 127 Q 511 184 512 256 L 512 256 Z M 256 512 Q 163 510 96 456 L 96 456 Q 28 401 7 315 Q 117 351 256 352 Q 395 351 505 315 Q 484 401 416 456 Q 349 510 256 512 L 256 512 Z M 192 240 Q 237 239 261 200 Q 283 160 261 120 Q 237 81 192 80 Q 147 81 123 120 Q 101 160 123 200 Q 147 239 192 240 L 192 240 Z"/>
</svg>
