<svg xmlns="http://www.w3.org/2000/svg" viewBox="0 0 640 512">
    <path d="M 352 32 L 352 64 L 288 64 L 288 32 Q 288 18 297 9 Q 306 0 320 0 Q 334 0 343 9 Q 352 18 352 32 L 352 32 Z M 480 376 Q 475 376 471 375 L 352 339 L 352 380 Q 320 373 288 380 L 288 338 L 160 373 Q 162 339 171 303 L 288 272 L 288 232 L 186 255 Q 200 215 215 183 L 288 166 L 288 128 L 352 128 L 352 166 L 425 183 Q 440 215 454 255 L 352 232 L 352 272 L 470 307 Q 478 343 480 376 L 480 376 Z M 288 446 Q 320 435 352 446 L 352 480 Q 352 494 343 503 Q 334 512 320 512 Q 306 512 297 503 Q 288 494 288 480 L 288 446 L 288 446 Z M 64 80 Q 91 81 109 99 L 109 99 Q 127 117 128 144 Q 127 176 102 195 L 77 214 Q 64 224 64 240 L 64 480 Q 64 494 55 503 Q 46 512 32 512 Q 18 512 9 503 Q 0 494 0 480 L 0 240 L 0 144 Q 1 117 19 99 Q 37 81 64 80 L 64 80 Z M 640 144 L 640 240 L 640 480 Q 640 494 631 503 Q 622 512 608 512 Q 594 512 585 503 Q 576 494 576 480 L 576 240 Q 576 224 563 214 L 538 195 Q 513 176 512 144 Q 513 117 531 99 Q 549 81 576 80 Q 603 81 621 99 Q 639 117 640 144 L 640 144 Z"/>
</svg>
