<svg xmlns="http://www.w3.org/2000/svg" viewBox="0 0 318 288">
    <path d="M 103 128 Q 104 96 131 80 L 95 17 Q 88 5 76 3 Q 64 0 53 8 Q 14 43 2 96 Q 0 110 9 119 Q 17 128 31 128 L 103 128 L 103 128 Z M 131 177 L 95 239 Q 88 251 92 263 Q 95 275 108 280 Q 132 288 159 288 Q 186 288 210 280 Q 223 275 226 263 Q 230 251 223 239 L 187 177 Q 175 184 159 184 Q 144 184 131 177 L 131 177 Z M 215 128 L 287 128 Q 301 128 309 119 Q 318 110 316 96 Q 304 43 265 8 Q 254 0 242 2 Q 230 5 223 17 L 187 79 Q 213 95 215 128 L 215 128 Z"/>
</svg>
