<svg xmlns="http://www.w3.org/2000/svg" viewBox="0 0 202 512">
    <path d="M 101 0 Q 115 0 124 9 L 124 9 Q 133 18 133 32 L 133 64 L 165 64 Q 186 65 195 84 Q 202 103 188 119 L 124 183 Q 114 192 101 192 Q 88 192 78 183 L 14 119 Q 0 103 8 84 Q 16 65 37 64 L 69 64 L 69 32 Q 69 18 78 9 Q 87 0 101 0 L 101 0 Z M 14 393 L 78 329 Q 88 320 101 320 Q 114 320 124 329 L 188 393 Q 202 409 195 428 Q 186 447 165 448 L 133 448 L 133 480 Q 133 494 124 503 Q 115 512 101 512 Q 87 512 78 503 Q 69 494 69 480 L 69 448 L 37 448 Q 16 447 7 428 Q 0 409 14 393 L 14 393 Z"/>
</svg>
