<svg xmlns="http://www.w3.org/2000/svg" viewBox="0 0 384 384">
    <path d="M 64 0 Q 37 1 19 19 L 19 19 Q 1 37 0 64 L 0 320 Q 1 347 19 365 Q 37 383 64 384 L 320 384 Q 347 383 365 365 Q 383 347 384 320 L 384 64 Q 383 37 365 19 Q 347 1 320 0 L 64 0 L 64 0 Z M 159 122 L 201 218 L 215 250 Q 219 264 207 271 Q 193 275 185 263 L 176 240 L 113 240 L 103 262 Q 96 275 82 271 Q 69 263 73 250 L 87 218 L 129 122 Q 134 112 144 112 Q 154 112 159 122 L 159 122 Z M 144 168 L 127 208 L 162 208 L 144 168 L 144 168 Z M 288 128 L 288 256 Q 287 271 272 272 Q 257 271 256 256 L 256 128 Q 257 113 272 112 Q 287 113 288 128 L 288 128 Z"/>
</svg>
