<svg xmlns="http://www.w3.org/2000/svg" viewBox="0 0 640 368">
    <path d="M 171 64 L 224 64 L 224 160 L 111 160 L 142 84 Q 150 65 171 64 L 171 64 Z M 272 160 L 272 64 L 353 64 Q 368 64 378 76 L 445 160 L 272 160 L 272 160 Z M 528 161 L 428 36 Q 399 1 353 0 L 171 0 Q 141 0 117 17 Q 94 33 82 60 L 41 164 Q 22 172 11 188 Q 0 203 0 224 L 0 336 Q 0 350 9 359 Q 18 368 32 368 Q 33 320 65 289 Q 96 257 144 256 Q 192 257 223 289 Q 255 320 256 368 L 384 368 Q 385 320 417 289 Q 448 257 496 256 Q 544 257 575 289 Q 607 320 608 368 Q 622 368 631 359 Q 640 350 640 336 L 640 288 Q 639 238 608 203 Q 577 168 528 161 L 528 161 Z"/>
</svg>
