<svg xmlns="http://www.w3.org/2000/svg" viewBox="0 0 448 256">
    <path d="M 293 0 L 64 0 Q 50 0 41 9 Q 32 18 32 32 Q 32 46 41 55 Q 50 64 64 64 L 282 64 L 293 0 L 293 0 Z M 347 64 L 416 64 Q 430 64 439 55 Q 448 46 448 32 Q 448 18 439 9 Q 430 0 416 0 L 358 0 L 347 64 L 347 64 Z M 155 256 L 384 256 Q 398 256 407 247 Q 416 238 416 224 Q 416 210 407 201 Q 398 192 384 192 L 166 192 L 155 256 L 155 256 Z M 101 192 L 32 192 Q 18 192 9 201 Q 0 210 0 224 Q 0 238 9 247 Q 18 256 32 256 L 90 256 L 101 192 L 101 192 Z"/>
</svg>
