<svg xmlns="http://www.w3.org/2000/svg" viewBox="0 0 640 448">
    <path d="M 604 43 Q 615 62 597 76 L 549 108 Q 530 119 516 101 Q 505 82 523 68 L 571 36 Q 590 25 604 43 L 604 43 Z M 512 224 Q 514 202 536 200 L 616 200 Q 638 202 640 224 Q 638 246 616 248 L 536 248 Q 514 246 512 224 L 512 224 Z M 516 347 Q 530 330 549 340 L 597 372 Q 614 386 604 405 Q 590 422 571 412 L 523 380 Q 506 366 516 347 L 516 347 Z M 64 0 Q 37 1 19 19 L 19 19 Q 1 37 0 64 L 0 384 Q 1 411 19 429 Q 37 447 64 448 L 384 448 Q 411 447 429 429 Q 447 411 448 384 L 448 64 Q 447 37 429 19 Q 411 1 384 0 L 64 0 L 64 0 Z M 112 88 L 112 232 Q 110 254 88 256 Q 66 254 64 232 L 64 88 Q 66 66 88 64 Q 110 66 112 88 L 112 88 Z M 208 88 L 208 232 Q 206 254 184 256 Q 162 254 160 232 L 160 88 Q 162 66 184 64 Q 206 66 208 88 L 208 88 Z"/>
</svg>
