<svg xmlns="http://www.w3.org/2000/svg" viewBox="0 0 232 392">
    <path d="M 41 66 Q 47 37 68 19 L 68 19 Q 90 1 120 0 Q 150 1 172 19 Q 193 37 199 66 Q 230 78 232 112 L 232 136 Q 230 158 208 160 L 120 160 L 32 160 Q 10 158 8 136 L 8 112 Q 10 78 41 66 L 41 66 Z M 144 80 Q 142 58 120 56 Q 98 58 96 80 Q 98 102 120 104 Q 142 102 144 80 L 144 80 Z M 0 272 Q 2 250 24 248 Q 46 250 48 272 Q 46 294 24 296 Q 2 294 0 272 L 0 272 Z M 0 368 Q 2 346 24 344 Q 46 346 48 368 Q 46 390 24 392 Q 2 390 0 368 L 0 368 Z"/>
</svg>
