<svg xmlns="http://www.w3.org/2000/svg" viewBox="0 0 640 517">
    <path d="M 574 12 L 560 25 L 546 11 Q 534 0 519 0 Q 503 0 491 11 Q 480 23 480 39 Q 480 55 491 67 L 547 122 Q 560 133 573 122 L 629 67 Q 640 55 640 39 Q 640 23 629 11 Q 617 0 601 0 Q 586 0 574 11 L 574 12 Z M 275 234 Q 285 245 298 237 Q 309 227 301 214 Q 276 184 240 184 Q 204 184 179 214 Q 172 227 182 237 Q 195 244 205 234 Q 219 216 240 216 Q 261 216 275 234 L 275 234 Z M 435 234 Q 445 245 458 237 Q 469 227 461 214 Q 436 184 400 184 Q 364 184 339 214 Q 332 227 342 237 Q 355 244 365 234 Q 379 216 400 216 Q 421 216 435 234 L 435 234 Z M 629 396 Q 617 384 601 384 L 601 384 Q 586 384 574 396 L 560 409 L 546 396 Q 534 384 519 384 Q 503 384 491 396 Q 480 408 480 423 Q 480 439 491 451 L 547 507 Q 560 517 573 507 L 629 451 Q 640 439 640 423 Q 640 407 629 396 L 629 396 Z M 94 364 L 80 377 L 66 363 Q 54 352 39 352 Q 23 352 11 363 Q 0 375 0 391 Q 0 407 11 419 L 67 474 Q 80 485 93 474 L 149 419 Q 160 407 160 391 Q 160 375 149 363 Q 137 352 121 352 Q 106 352 94 363 L 94 364 Z"/>
</svg>
