<svg xmlns="http://www.w3.org/2000/svg" viewBox="0 0 512 512">
    <path d="M 512 426 L 512 343 Q 497 373 472 395 L 512 426 L 512 426 Z M 446 375 Q 481 351 499 288 Q 512 245 512 192 Q 511 110 484 56 Q 457 2 416 0 Q 399 0 384 11 Q 356 32 338 80 Q 321 128 320 192 Q 320 243 332 285 L 446 374 L 446 375 Z M 293 254 Q 288 224 288 192 Q 289 104 320 42 Q 331 19 348 0 L 96 0 Q 58 2 32 50 L 293 254 L 293 254 Z M 464 512 L 342 416 L 160 416 L 160 464 Q 161 484 174 498 Q 188 511 208 512 L 464 512 L 464 512 L 464 512 L 464 512 Z M 0 192 Q 1 274 28 328 L 28 328 Q 55 382 96 384 L 302 384 L 3 148 Q 0 169 0 192 L 0 192 Z M 416 256 Q 402 255 393 237 L 393 237 Q 384 219 384 192 Q 384 165 393 147 Q 402 129 416 128 Q 430 129 439 147 Q 448 165 448 192 Q 448 219 439 237 Q 430 255 416 256 L 416 256 Z"/>
</svg>
