<svg xmlns="http://www.w3.org/2000/svg" viewBox="0 0 516 516">
    <path d="M 373 15 Q 371 7 364 3 Q 356 0 348 5 L 258 67 L 168 5 Q 160 0 153 3 Q 145 7 143 15 L 123 123 L 15 143 Q 7 145 3 153 Q 0 160 5 168 L 67 258 L 5 348 Q 0 356 3 364 Q 7 371 15 373 L 123 393 L 143 501 Q 145 509 152 513 Q 160 516 168 511 L 258 449 L 348 511 Q 356 516 364 513 Q 371 509 373 501 L 393 393 L 501 373 Q 509 371 513 364 Q 516 356 511 348 L 449 258 L 511 168 Q 516 160 513 153 Q 509 145 501 143 L 393 123 L 373 15 L 373 15 Z M 258 114 Q 297 114 330 133 L 330 133 Q 363 152 383 186 Q 402 220 402 258 Q 402 296 383 330 Q 363 364 330 383 Q 297 402 258 402 Q 219 402 186 383 Q 153 364 133 330 Q 114 296 114 258 Q 114 220 133 186 Q 153 152 186 133 Q 219 114 258 114 L 258 114 Z"/>
</svg>
