<svg xmlns="http://www.w3.org/2000/svg" viewBox="0 0 470 523">
    <path d="M 91 56 Q 113 58 115 80 Q 113 102 91 104 Q 69 102 67 80 Q 69 58 91 56 L 91 56 Z M 91 160 Q 136 159 160 120 Q 182 80 160 40 Q 136 1 91 0 Q 46 1 22 40 Q 0 80 22 120 Q 46 159 91 160 L 91 160 Z M 379 56 Q 401 58 403 80 Q 401 102 379 104 Q 357 102 355 80 Q 357 58 379 56 L 379 56 Z M 379 160 Q 424 159 448 120 Q 470 80 448 40 Q 424 1 379 0 Q 334 1 310 40 Q 288 80 310 120 Q 334 159 379 160 L 379 160 Z M 67 432 Q 69 410 91 408 Q 113 410 115 432 Q 113 454 91 456 Q 69 454 67 432 L 67 432 Z M 171 432 Q 170 387 131 363 Q 91 341 51 363 Q 12 387 11 432 Q 12 477 51 501 Q 91 523 131 501 Q 170 477 171 432 L 171 432 Z"/>
</svg>
