<svg xmlns="http://www.w3.org/2000/svg" viewBox="0 0 576 368">
    <path d="M 474 176 Q 477 176 480 176 L 512 176 Q 539 175 557 157 Q 575 139 576 112 L 576 96 Q 575 55 548 28 Q 521 1 480 0 Q 453 1 435 19 Q 417 37 416 64 L 416 80 L 416 112 L 416 136 Q 415 167 395 187 Q 375 207 344 208 L 312 208 L 264 208 L 152 208 L 104 208 L 32 208 Q 18 208 9 217 Q 0 226 0 240 Q 0 254 9 263 Q 18 272 32 272 L 64 272 L 64 328 Q 64 345 76 356 Q 87 368 104 368 L 152 368 Q 169 368 180 356 Q 192 345 192 328 L 192 272 L 224 272 L 224 328 Q 224 345 236 356 Q 247 368 264 368 L 312 368 Q 329 368 340 356 Q 352 345 352 328 L 352 272 Q 396 269 429 242 Q 461 216 474 176 L 474 176 Z M 496 80 Q 511 81 512 96 Q 511 111 496 112 Q 481 111 480 96 Q 481 81 496 80 L 496 80 Z"/>
</svg>
