<svg xmlns="http://www.w3.org/2000/svg" viewBox="0 0 498 300">
    <path d="M 323 3 Q 318 0 311 0 L 187 0 Q 180 0 175 3 L 103 45 Q 94 53 104 59 L 241 108 Q 249 111 257 108 L 394 59 Q 404 53 395 45 L 323 3 L 323 3 Z M 6 165 Q 0 176 8 185 L 116 292 Q 124 300 135 295 L 224 251 Q 233 246 233 236 L 233 151 Q 232 140 222 136 L 70 81 Q 57 77 50 88 L 6 165 L 6 165 Z M 428 81 L 276 136 Q 266 140 265 151 L 265 236 Q 265 246 274 251 L 364 295 Q 374 300 382 292 L 490 185 Q 498 176 492 165 L 448 88 Q 440 77 428 81 L 428 81 Z"/>
</svg>
