<svg xmlns="http://www.w3.org/2000/svg" viewBox="0 0 512 256">
    <path d="M 32 0 Q 18 0 9 9 L 9 9 Q 0 18 0 32 Q 0 46 9 55 Q 18 64 32 64 L 480 64 Q 494 64 503 55 Q 512 46 512 32 Q 512 18 503 9 Q 494 0 480 0 L 32 0 L 32 0 Z M 480 96 L 32 96 L 32 112 Q 33 156 64 184 L 64 224 Q 64 238 73 247 Q 82 256 96 256 Q 110 256 119 247 Q 128 238 128 224 L 128 208 L 384 208 L 384 224 Q 384 238 393 247 Q 402 256 416 256 Q 430 256 439 247 Q 448 238 448 224 L 448 184 Q 479 156 480 112 L 480 96 L 480 96 Z"/>
</svg>
