<svg xmlns="http://www.w3.org/2000/svg" viewBox="0 0 576 448">
    <path d="M 380 266 L 401 208 L 432 208 Q 445 208 455 199 L 477 176 L 544 176 Q 558 176 567 167 Q 576 158 576 144 L 576 64 Q 576 50 567 41 Q 558 32 544 32 L 528 32 L 528 24 Q 526 2 504 0 Q 482 2 480 24 L 480 32 L 82 32 L 164 96 L 464 96 Q 479 97 480 112 Q 479 127 464 128 L 204 128 L 307 208 L 350 208 L 340 235 L 380 266 L 380 266 Z M 293 320 L 0 89 L 0 176 Q 0 190 9 199 Q 18 208 32 208 L 42 208 Q 58 209 67 220 Q 76 232 73 248 L 33 408 Q 30 423 39 436 Q 48 448 64 448 L 160 448 Q 184 447 191 424 L 217 320 L 293 320 L 293 320 Z"/>
</svg>
