<svg xmlns="http://www.w3.org/2000/svg" viewBox="0 0 448 288">
    <path d="M 448 208 Q 447 242 424 264 L 424 264 Q 402 287 368 288 L 349 288 Q 337 258 304 256 L 286 256 L 315 198 Q 322 182 319 166 Q 315 150 302 139 Q 289 128 272 128 Q 256 128 242 139 L 82 267 Q 73 274 68 284 Q 38 274 19 250 Q 1 225 0 192 Q 1 155 23 130 Q 45 104 80 97 L 80 96 Q 81 55 108 28 Q 135 1 176 0 Q 202 0 224 13 Q 245 25 258 46 Q 278 32 304 32 Q 338 33 361 55 Q 383 78 384 112 Q 384 121 382 129 Q 411 135 429 156 Q 447 178 448 208 L 448 208 Z"/>
</svg>
