<svg xmlns="http://www.w3.org/2000/svg" viewBox="0 0 496 352">
    <path d="M 43 46 Q 49 25 66 13 L 66 13 Q 82 0 104 0 L 136 0 Q 157 0 174 13 Q 191 25 197 46 L 236 183 Q 240 199 231 211 Q 222 223 205 224 L 184 224 L 184 304 Q 183 324 170 338 Q 156 351 136 352 L 104 352 Q 84 351 70 338 Q 57 324 56 304 L 56 224 L 34 224 Q 18 223 9 211 Q 0 199 4 183 L 43 46 L 43 46 Z M 299 46 Q 305 25 322 13 L 322 13 Q 338 0 360 0 L 392 0 Q 413 0 430 13 Q 447 25 453 46 L 492 183 Q 496 199 487 211 Q 478 223 461 224 L 440 224 L 440 304 Q 439 324 426 338 Q 412 351 392 352 L 360 352 Q 340 351 326 338 Q 313 324 312 304 L 312 224 L 290 224 Q 274 223 265 211 Q 256 199 260 183 L 299 46 L 299 46 Z"/>
</svg>
