<svg xmlns="http://www.w3.org/2000/svg" viewBox="0 0 448 512">
    <path d="M 96 0 Q 55 1 28 28 L 28 28 Q 1 55 0 96 L 0 416 Q 1 457 28 484 Q 55 511 96 512 L 384 512 L 416 512 Q 430 512 439 503 Q 448 494 448 480 Q 448 466 439 457 Q 430 448 416 448 L 352 448 L 256 448 L 96 448 Q 82 448 73 439 Q 64 430 64 416 Q 64 402 73 393 Q 82 384 96 384 L 256 384 L 352 384 L 416 384 Q 430 384 439 375 Q 448 366 448 352 L 448 32 Q 448 18 439 9 Q 430 0 416 0 L 384 0 L 96 0 L 96 0 Z M 128 157 Q 129 131 146 114 L 146 114 Q 163 97 189 96 Q 214 96 233 114 L 240 121 L 247 114 Q 266 96 291 96 Q 317 97 334 114 Q 351 131 352 157 Q 352 182 334 201 L 251 283 Q 240 293 229 283 L 146 201 Q 129 182 128 157 L 128 157 Z"/>
</svg>
