<svg xmlns="http://www.w3.org/2000/svg" viewBox="0 0 332 337">
    <path d="M 200 30 Q 208 34 208 44 Q 208 53 200 57 Q 193 62 184 57 L 160 44 L 160 161 L 192 161 Q 207 162 208 177 Q 207 191 192 193 L 160 193 L 160 321 Q 159 335 144 337 Q 129 335 128 321 L 128 177 L 128 16 Q 128 14 129 12 Q 129 9 131 6 Q 133 4 135 3 Q 139 0 144 0 Q 144 0 144 0 Q 145 0 145 0 Q 149 1 152 2 L 200 30 L 200 30 Z M 232 85 Q 224 80 224 71 Q 224 61 232 57 Q 239 53 248 57 L 320 98 Q 332 107 326 120 Q 317 132 304 126 L 288 117 L 288 273 Q 286 287 272 289 Q 257 287 256 273 L 256 98 L 232 85 L 232 85 Z M 96 65 L 96 289 Q 95 301 82 304 Q 70 306 65 294 L 32 195 L 32 257 Q 30 271 16 273 Q 1 271 0 257 L 0 97 Q 1 84 13 81 Q 26 80 31 92 L 64 190 L 64 65 Q 65 50 80 49 Q 94 50 96 65 L 96 65 Z"/>
</svg>
