<svg xmlns="http://www.w3.org/2000/svg" viewBox="0 0 448 512">
    <path d="M 288 32 L 416 32 Q 430 32 439 41 Q 448 50 448 64 Q 448 78 439 87 Q 430 96 416 96 L 302 96 Q 293 136 256 153 L 256 448 L 416 448 Q 430 448 439 457 Q 448 466 448 480 Q 448 494 439 503 Q 430 512 416 512 L 224 512 L 32 512 Q 18 512 9 503 Q 0 494 0 480 Q 0 466 9 457 Q 18 448 32 448 L 192 448 L 192 153 Q 155 136 146 96 L 32 96 Q 18 96 9 87 Q 0 78 0 64 Q 0 50 9 41 Q 18 32 32 32 L 160 32 Q 183 1 224 0 Q 265 1 288 32 L 288 32 Z"/>
</svg>
