<svg xmlns="http://www.w3.org/2000/svg" viewBox="0 0 385 385">
    <path d="M 122 158 L 27 158 Q 13 158 6 146 Q 0 134 7 122 L 59 35 Q 81 1 121 0 L 202 0 Q 180 36 158 80 Q 137 124 122 158 L 122 158 Z M 385 183 L 385 264 Q 384 304 350 326 L 264 379 Q 251 385 239 379 Q 228 372 227 358 L 227 262 Q 262 247 305 226 Q 349 205 385 183 L 385 183 Z M 170 340 Q 142 365 102 373 L 102 373 Q 61 382 31 382 Q 19 382 11 374 Q 3 366 3 354 Q 3 324 12 283 Q 20 243 45 216 Q 72 190 107 190 Q 142 190 170 216 Q 195 243 195 278 Q 195 313 170 340 L 170 340 Z M 123 304 Q 131 295 131 283 L 131 283 Q 131 271 123 262 Q 114 254 102 254 Q 90 254 81 262 Q 74 270 71 282 Q 68 293 68 304 Q 68 317 82 317 Q 92 317 103 314 Q 115 311 123 304 L 123 304 Z"/>
</svg>
