<svg xmlns="http://www.w3.org/2000/svg" viewBox="0 0 512 382">
    <path d="M 128 32 L 80 32 L 80 24 Q 82 2 104 0 Q 126 2 128 24 L 128 32 L 128 32 Z M 48 32 L 0 32 L 0 24 Q 2 2 24 0 Q 46 2 48 24 L 48 32 L 48 32 Z M 83 96 L 141 96 L 224 151 L 224 190 L 83 96 L 83 96 Z M 288 151 L 371 96 L 429 96 L 288 190 L 288 151 L 288 151 Z M 384 32 L 384 24 Q 386 2 408 0 Q 430 2 432 24 L 432 32 L 384 32 L 384 32 Z M 464 32 L 464 24 Q 466 2 488 0 Q 510 2 512 24 L 512 32 L 464 32 L 464 32 Z M 288 343 L 371 288 L 429 288 L 288 382 L 288 343 L 288 343 Z M 141 288 L 224 343 L 224 382 L 83 288 L 141 288 L 141 288 Z M 128 224 L 80 224 L 80 216 Q 82 194 104 192 Q 126 194 128 216 L 128 224 L 128 224 Z M 48 224 L 0 224 L 0 216 Q 2 194 24 192 Q 46 194 48 216 L 48 224 L 48 224 Z M 512 224 L 464 224 L 464 216 Q 466 194 488 192 Q 510 194 512 216 L 512 224 L 512 224 Z M 432 224 L 384 224 L 384 216 Q 386 194 408 192 Q 430 194 432 216 L 432 224 L 432 224 Z"/>
</svg>
