<svg xmlns="http://www.w3.org/2000/svg" viewBox="0 0 318 352">
    <path d="M 84 0 Q 59 1 41 17 L 41 17 Q 23 33 21 59 L 2 283 Q 0 312 19 331 Q 37 351 66 352 L 252 352 Q 281 351 299 331 Q 318 312 316 283 L 297 59 Q 295 33 277 17 Q 259 1 234 0 L 84 0 L 84 0 Z M 183 120 L 183 152 L 215 152 Q 237 154 239 176 Q 237 198 215 200 L 183 200 L 183 232 Q 181 254 159 256 Q 137 254 135 232 L 135 200 L 103 200 Q 81 198 79 176 Q 81 154 103 152 L 135 152 L 135 120 Q 137 98 159 96 Q 181 98 183 120 L 183 120 Z"/>
</svg>
