<svg xmlns="http://www.w3.org/2000/svg" viewBox="0 0 488 448">
    <path d="M 288 48 Q 198 50 135 106 Q 117 119 101 104 Q 88 86 103 70 Q 140 37 187 19 Q 235 0 288 0 Q 341 0 389 19 Q 436 37 473 70 Q 488 86 475 104 Q 459 119 441 106 Q 378 50 288 48 L 288 48 Z M 0 416 Q 0 402 9 393 L 9 393 Q 18 384 32 384 Q 46 384 55 393 Q 64 402 64 416 Q 64 430 55 439 Q 46 448 32 448 Q 18 448 9 439 Q 0 430 0 416 L 0 416 Z M 213 187 Q 194 199 179 183 Q 166 165 182 149 Q 227 113 288 112 Q 349 113 394 149 Q 409 165 397 183 Q 382 199 363 187 Q 332 161 288 160 Q 244 161 213 187 L 213 187 Z"/>
</svg>
