<svg xmlns="http://www.w3.org/2000/svg" viewBox="0 0 518 436">
    <path d="M 126 109 L 273 69 Q 294 65 308 81 L 345 133 L 96 200 L 103 136 Q 106 115 126 109 L 126 109 Z M 39 129 L 29 222 Q 13 234 7 252 Q 0 270 5 290 L 38 414 L 44 436 L 144 436 Q 144 436 144 435 L 131 389 L 409 314 L 422 361 Q 425 374 437 380 Q 448 387 461 383 L 492 375 Q 505 371 511 360 Q 518 349 514 336 L 502 290 L 469 166 Q 463 146 448 134 Q 434 121 414 119 L 359 43 Q 341 19 314 10 Q 286 0 257 7 L 110 47 Q 80 55 62 77 Q 43 99 39 129 L 39 129 Z M 98 265 Q 116 261 129 273 Q 142 287 138 304 Q 132 322 115 327 Q 97 332 83 319 Q 71 306 75 288 Q 80 270 98 265 L 98 265 Z M 354 230 Q 349 212 361 199 Q 375 186 393 190 Q 410 196 415 213 Q 420 231 407 245 Q 394 257 376 253 Q 359 248 354 230 L 354 230 Z"/>
</svg>
