<svg xmlns="http://www.w3.org/2000/svg" viewBox="0 0 408 512">
    <path d="M 160 0 L 288 0 L 320 0 Q 334 0 343 9 Q 352 18 352 32 Q 352 46 343 55 Q 334 64 320 64 L 320 197 Q 320 215 330 230 L 336 241 Q 329 251 322 261 Q 312 279 306 299 Q 304 305 304 311 L 275 264 Q 256 233 256 197 L 256 64 L 192 64 L 192 197 Q 192 233 173 264 L 119 352 L 326 352 Q 326 352 326 352 Q 326 352 326 352 Q 313 360 307 375 Q 301 389 306 406 Q 312 425 322 443 Q 333 461 347 476 Q 359 489 375 490 Q 390 492 404 485 L 404 486 Q 404 496 408 505 Q 395 512 379 512 L 69 512 Q 40 511 20 492 Q 1 472 0 443 Q 0 423 10 406 L 119 230 Q 128 215 128 197 L 128 64 Q 114 64 105 55 Q 96 46 96 32 Q 96 18 105 9 Q 114 0 128 0 L 160 0 L 160 0 Z"/>
</svg>
