<svg xmlns="http://www.w3.org/2000/svg" viewBox="0 0 514 480">
    <path d="M 34 144 Q 35 96 43 62 L 43 62 Q 51 28 60 11 Q 66 0 79 0 Q 97 1 103 19 Q 121 75 161 109 Q 201 143 246 158 Q 290 174 322 176 L 322 112 Q 323 78 345 55 Q 368 33 402 32 L 502 32 Q 513 33 514 44 Q 514 48 512 51 L 482 96 L 482 256 Q 480 324 435 369 Q 390 414 322 416 L 248 416 L 172 477 Q 168 480 162 480 Q 100 478 60 454 Q 19 430 5 410 Q 0 403 3 395 Q 6 387 14 385 L 152 347 Q 132 336 105 310 Q 77 285 56 244 Q 35 202 34 144 L 34 144 Z M 402 128 Q 417 127 418 112 Q 417 97 402 96 Q 387 97 386 112 Q 387 127 402 128 L 402 128 Z"/>
</svg>
