<svg xmlns="http://www.w3.org/2000/svg" viewBox="0 0 320 272">
    <path d="M 102 48 L 218 48 Q 224 48 226 53 L 238 88 L 82 88 L 94 53 Q 96 48 102 48 L 102 48 Z M 49 38 L 29 95 Q 2 111 0 144 L 0 240 Q 0 254 9 263 Q 18 272 32 272 Q 46 272 55 263 Q 64 254 64 240 L 64 224 L 256 224 L 256 240 Q 256 254 265 263 Q 274 272 288 272 Q 302 272 311 263 Q 320 254 320 240 L 320 144 Q 318 111 291 95 L 271 38 Q 265 20 251 10 Q 236 0 218 0 L 102 0 Q 84 0 69 10 Q 55 20 49 38 L 49 38 Z M 56 160 Q 58 138 80 136 Q 102 138 104 160 Q 102 182 80 184 Q 58 182 56 160 L 56 160 Z M 240 136 Q 262 138 264 160 Q 262 182 240 184 Q 218 182 216 160 Q 218 138 240 136 L 240 136 Z"/>
</svg>
