<svg xmlns="http://www.w3.org/2000/svg" viewBox="0 0 448 288">
    <path d="M 160 40 Q 160 23 172 12 L 172 12 Q 183 0 200 0 L 248 0 Q 265 0 276 12 Q 288 23 288 40 L 288 88 Q 288 105 276 116 Q 265 128 248 128 L 200 128 Q 183 128 172 116 Q 160 105 160 88 L 160 40 L 160 40 Z M 0 200 Q 0 183 12 172 L 12 172 Q 23 160 40 160 L 88 160 Q 105 160 116 172 Q 128 183 128 200 L 128 248 Q 128 265 116 276 Q 105 288 88 288 L 40 288 Q 23 288 12 276 Q 0 265 0 248 L 0 200 L 0 200 Z M 360 160 L 408 160 Q 425 160 436 172 Q 448 183 448 200 L 448 248 Q 448 265 436 276 Q 425 288 408 288 L 360 288 Q 343 288 332 276 Q 320 265 320 248 L 320 200 Q 320 183 332 172 Q 343 160 360 160 L 360 160 Z"/>
</svg>
