<svg xmlns="http://www.w3.org/2000/svg" viewBox="0 0 448 448">
    <path d="M 0 0 L 448 0 L 448 288 L 0 288 L 0 0 L 0 0 Z M 283 384 L 352 384 Q 366 384 375 393 Q 384 402 384 416 Q 384 430 375 439 Q 366 448 352 448 L 96 448 Q 82 448 73 439 Q 64 430 64 416 Q 64 402 73 393 Q 82 384 96 384 L 165 384 L 176 352 L 272 352 L 283 384 L 283 384 Z M 192 64 L 192 112 L 144 112 Q 129 113 128 128 L 128 160 Q 129 175 144 176 L 192 176 L 192 224 Q 193 239 208 240 L 240 240 Q 255 239 256 224 L 256 176 L 304 176 Q 319 175 320 160 L 320 128 Q 319 113 304 112 L 256 112 L 256 64 Q 255 49 240 48 L 208 48 Q 193 49 192 64 L 192 64 Z"/>
</svg>
