<svg xmlns="http://www.w3.org/2000/svg" viewBox="0 0 512 512">
    <path d="M 512 256 Q 512 300 498 340 Q 481 332 462 335 Q 451 309 427 296 Q 403 283 374 291 Q 344 300 330 326 Q 315 352 323 383 L 345 472 Q 348 484 356 492 Q 309 512 256 512 Q 185 511 127 477 Q 69 443 35 385 Q 1 328 0 256 Q 1 184 35 127 Q 69 69 127 35 Q 184 1 256 0 Q 328 1 385 35 Q 443 69 477 127 Q 511 184 512 256 L 512 256 Z M 289 314 Q 282 306 272 300 Q 251 289 224 288 Q 218 288 216 294 Q 215 300 220 303 L 220 303 L 220 303 L 220 303 L 220 303 Q 220 303 221 303 Q 221 303 221 304 Q 222 304 222 304 Q 223 305 225 306 Q 229 309 235 313 Q 241 318 244 323 Q 248 329 248 332 Q 248 335 244 341 Q 240 346 235 351 Q 229 355 225 358 Q 223 359 222 360 Q 222 360 221 360 Q 221 361 221 361 Q 220 361 220 361 L 220 361 L 220 361 L 220 361 L 220 361 L 220 361 L 220 361 Q 216 363 216 368 Q 216 373 220 375 L 220 375 L 220 375 L 220 375 L 220 375 L 221 375 L 221 376 Q 222 376 222 376 Q 223 377 225 378 Q 229 381 235 385 Q 241 390 244 396 Q 248 401 248 404 Q 248 407 244 413 Q 241 418 235 423 Q 229 428 225 430 Q 223 431 222 432 Q 222 432 221 433 Q 221 433 221 433 Q 220 433 220 433 L 220 433 L 220 433 L 220 433 L 220 433 L 220 433 Q 215 436 216 442 Q 218 448 224 448 Q 251 448 272 436 Q 282 430 289 422 Q 295 415 296 404 Q 295 394 289 386 Q 282 378 272 372 Q 268 370 263 368 Q 268 366 272 364 Q 282 358 289 350 Q 295 343 296 332 Q 295 322 289 314 L 289 314 Z M 208 208 Q 208 194 199 185 L 199 185 Q 190 176 176 176 Q 163 176 154 185 Q 145 194 144 208 Q 145 222 154 231 Q 163 240 176 240 Q 190 240 199 231 Q 208 222 208 208 L 208 208 Z M 301 234 Q 315 216 336 216 L 336 216 Q 357 216 371 234 Q 381 245 394 237 Q 405 227 397 214 Q 372 184 336 184 Q 300 184 275 214 Q 267 227 278 237 Q 291 244 301 234 L 301 234 Z"/>
</svg>
