<svg xmlns="http://www.w3.org/2000/svg" viewBox="0 0 448 446">
    <path d="M 224 446 Q 287 445 337 415 L 337 415 Q 388 386 417 335 L 417 335 Q 447 285 448 222 Q 446 136 393 75 Q 339 14 256 0 L 256 82 Q 256 94 249 103 L 196 166 Q 187 177 188 189 Q 189 202 198 212 Q 208 222 222 222 L 288 222 Q 302 222 311 231 Q 320 240 320 254 L 320 270 Q 320 286 312 300 L 271 377 Q 264 389 249 390 Q 226 388 224 365 L 224 318 Q 210 318 201 309 Q 192 300 192 286 L 192 254 L 142 204 Q 128 190 108 190 L 75 190 Q 48 190 29 171 L 11 153 Q 0 186 0 222 Q 1 285 31 335 Q 60 386 111 415 Q 161 445 224 446 L 224 446 Z"/>
</svg>
