<svg xmlns="http://www.w3.org/2000/svg" viewBox="0 0 523 512">
    <path d="M 243 318 Q 265 295 279 265 Q 308 287 347 288 Q 395 287 426 255 Q 458 224 459 176 Q 458 128 426 97 Q 395 65 347 64 Q 308 65 279 87 Q 265 58 243 34 Q 288 1 347 0 Q 422 2 471 52 Q 521 101 523 176 Q 522 242 482 289 Q 442 337 379 349 L 379 384 L 411 384 Q 425 384 434 393 Q 443 402 443 416 Q 443 430 434 439 Q 425 448 411 448 L 379 448 L 379 480 Q 379 494 370 503 Q 361 512 347 512 Q 333 512 324 503 Q 315 494 315 480 L 315 448 L 283 448 Q 269 448 260 439 Q 251 430 251 416 Q 251 402 260 393 Q 269 384 283 384 L 315 384 L 315 349 Q 275 341 243 318 L 243 318 Z M 91 96 Q 136 97 160 136 Q 182 176 160 216 Q 136 255 91 256 Q 46 255 22 216 Q 0 176 22 136 Q 46 97 91 96 L 91 96 Z"/>
</svg>
