<svg xmlns="http://www.w3.org/2000/svg" viewBox="0 0 578 461">
    <path d="M 268 16 Q 289 0 310 16 L 417 110 L 417 72 Q 417 58 426 49 Q 435 40 449 40 L 481 40 Q 495 40 504 49 Q 513 58 513 72 L 513 194 L 566 240 Q 576 249 577 262 Q 578 275 569 285 Q 560 295 547 296 Q 534 297 524 288 L 289 83 L 54 288 Q 44 297 31 296 Q 18 295 9 285 Q 0 275 1 262 Q 2 249 12 240 L 268 16 L 268 16 Z M 238 264 Q 263 264 282 282 L 289 289 L 296 282 Q 315 264 340 264 Q 366 265 383 282 Q 400 299 401 325 Q 401 350 383 369 L 300 451 Q 289 461 278 451 L 195 369 Q 178 350 177 325 Q 178 299 195 282 Q 212 265 238 264 L 238 264 Z"/>
</svg>
