<svg xmlns="http://www.w3.org/2000/svg" viewBox="0 0 640 526">
    <path d="M 558 71 L 384 71 Q 362 73 360 95 Q 362 117 384 119 L 558 119 L 535 142 Q 521 159 535 176 Q 552 190 569 176 L 633 112 Q 640 105 640 95 Q 640 85 633 78 L 569 14 Q 552 0 535 14 Q 521 31 535 48 L 558 71 L 558 71 Z M 82 407 L 105 384 Q 119 367 105 350 Q 88 336 71 350 L 7 414 Q 0 421 0 431 Q 0 441 7 448 L 71 512 Q 88 526 105 512 Q 119 495 105 478 L 82 455 L 256 455 Q 278 453 280 431 Q 278 409 256 407 L 82 407 L 82 407 Z"/>
</svg>
