<svg xmlns="http://www.w3.org/2000/svg" viewBox="0 0 288 320">
    <path d="M 0 32 Q 0 18 9 9 L 9 9 Q 18 0 32 0 L 256 0 Q 270 0 279 9 Q 288 18 288 32 Q 288 46 279 55 Q 270 64 256 64 L 32 64 Q 18 64 9 55 Q 0 46 0 32 L 0 32 Z M 0 160 Q 0 146 9 137 L 9 137 Q 18 128 32 128 L 256 128 Q 270 128 279 137 Q 288 146 288 160 Q 288 174 279 183 Q 270 192 256 192 L 32 192 Q 18 192 9 183 Q 0 174 0 160 L 0 160 Z M 0 288 Q 0 274 9 265 L 9 265 Q 18 256 32 256 L 128 256 Q 142 256 151 265 Q 160 274 160 288 Q 160 302 151 311 Q 142 320 128 320 L 32 320 Q 18 320 9 311 Q 0 302 0 288 L 0 288 Z"/>
</svg>
