<svg xmlns="http://www.w3.org/2000/svg" viewBox="0 0 544 192">
    <path d="M 96 24 Q 98 2 120 0 L 200 0 Q 222 2 224 24 L 224 32 Q 239 33 240 48 Q 239 63 224 64 L 96 64 Q 81 63 80 48 Q 81 33 96 32 L 96 24 L 96 24 Z M 96 96 L 224 96 Q 262 97 289 121 Q 290 122 292 124 Q 319 151 320 192 L 0 192 Q 1 151 28 124 Q 55 97 96 96 L 96 96 Z M 543 192 L 352 192 Q 350 129 303 92 Q 311 83 322 78 L 335 72 Q 343 68 352 66 L 352 24 Q 354 2 376 0 L 456 0 Q 478 2 480 24 L 480 66 Q 488 68 496 72 L 509 78 Q 542 95 544 132 Q 543 151 534 166 Q 541 177 543 192 L 543 192 Z"/>
</svg>
