<svg xmlns="http://www.w3.org/2000/svg" viewBox="0 0 352 224">
    <path d="M 135 79 L 27 0 L 109 0 L 176 49 L 243 0 L 325 0 L 217 79 L 254 106 Q 269 96 288 96 Q 315 97 333 115 Q 351 133 352 160 Q 351 187 333 205 Q 315 223 288 224 Q 261 223 243 205 Q 225 187 224 160 Q 224 152 226 144 L 176 108 L 126 145 Q 128 152 128 160 Q 127 187 109 205 Q 91 223 64 224 Q 37 223 19 205 Q 1 187 0 160 Q 1 133 19 115 Q 37 97 64 96 Q 83 96 98 106 L 135 79 L 135 79 Z M 64 176 Q 79 175 80 160 Q 79 145 64 144 Q 49 145 48 160 Q 49 175 64 176 L 64 176 Z M 288 176 Q 303 175 304 160 Q 303 145 288 144 Q 273 145 272 160 Q 273 175 288 176 L 288 176 Z"/>
</svg>
