<svg xmlns="http://www.w3.org/2000/svg" viewBox="0 0 388 202">
    <path d="M 59 0 L 3 132 Q 0 140 5 148 Q 11 155 20 154 L 77 146 L 109 195 Q 114 202 124 202 Q 133 201 137 192 L 187 73 Q 181 72 176 69 L 158 57 Q 149 51 138 51 L 117 53 Q 95 53 85 34 L 75 15 Q 70 6 61 1 L 59 0 L 59 0 Z M 201 73 L 251 192 Q 255 201 265 202 Q 274 202 279 195 L 312 146 L 368 154 Q 377 155 383 148 Q 388 140 385 132 L 329 0 L 327 1 Q 318 6 313 15 L 303 35 Q 293 53 272 53 L 250 51 Q 239 51 230 57 L 212 69 Q 207 72 201 73 L 201 73 Z"/>
</svg>
