<svg xmlns="http://www.w3.org/2000/svg" viewBox="0 0 352 512">
    <path d="M 160 160 L 0 0 L 0 128 Q 0 142 9 151 Q 18 160 32 160 L 160 160 L 160 160 Z M 208 512 Q 247 512 280 493 L 280 493 Q 313 474 333 440 Q 352 406 352 368 Q 352 330 333 296 Q 313 262 280 243 Q 247 224 208 224 Q 169 224 136 243 Q 103 262 83 296 Q 64 330 64 368 Q 64 406 83 440 Q 103 474 136 493 Q 169 512 208 512 L 208 512 Z M 208 416 Q 230 418 232 440 Q 230 462 208 464 Q 186 462 184 440 Q 186 418 208 416 L 208 416 Z M 208 272 Q 223 273 224 288 L 224 368 Q 223 383 208 384 Q 193 383 192 368 L 192 288 Q 193 273 208 272 L 208 272 Z"/>
</svg>
