<svg xmlns="http://www.w3.org/2000/svg" viewBox="0 0 429 448">
    <path d="M 0 256 L 0 256 L 65 256 L 65 256 L 0 256 L 0 256 Z M 221 64 Q 204 64 188 67 L 188 2 Q 204 0 221 0 Q 310 2 372 58 L 402 29 Q 410 22 419 25 Q 428 29 429 40 L 429 146 Q 427 160 413 162 L 307 162 Q 296 161 293 152 Q 289 143 296 134 L 327 104 Q 283 65 221 64 L 221 64 Z M 146 316 L 117 345 Q 160 382 221 384 Q 237 384 252 381 L 252 445 Q 237 447 221 448 Q 133 446 72 391 L 41 422 Q 32 429 23 425 Q 14 421 13 410 L 13 305 Q 15 290 29 289 L 135 289 Q 146 290 150 299 Q 153 308 146 316 L 146 316 Z"/>
</svg>
