<svg xmlns="http://www.w3.org/2000/svg" viewBox="0 0 448 512">
    <path d="M 352 64 L 352 0 L 448 96 L 384 96 Q 370 96 361 87 Q 352 78 352 64 L 352 64 Z M 24 96 Q 46 98 48 120 L 48 376 Q 49 413 74 438 Q 99 463 136 464 L 328 464 Q 350 466 352 488 Q 350 510 328 512 L 136 512 Q 78 511 40 472 Q 1 434 0 376 L 0 120 Q 2 98 24 96 L 24 96 Z M 240 176 Q 241 161 256 160 L 288 160 Q 303 161 304 176 L 304 224 L 352 224 Q 367 225 368 240 L 368 272 Q 367 287 352 288 L 304 288 L 304 336 Q 303 351 288 352 L 256 352 Q 241 351 240 336 L 240 288 L 192 288 Q 177 287 176 272 L 176 240 Q 177 225 192 224 L 240 224 L 240 176 L 240 176 Z"/>
</svg>
