<svg xmlns="http://www.w3.org/2000/svg" viewBox="0 0 640 400">
    <path d="M 48 0 Q 70 2 72 24 L 72 48 Q 94 50 96 72 Q 94 94 72 96 L 72 376 Q 70 398 48 400 Q 26 398 24 376 L 24 96 Q 2 94 0 72 Q 2 50 24 48 L 24 24 Q 26 2 48 0 L 48 0 Z M 592 0 Q 614 2 616 24 L 616 48 Q 638 50 640 72 Q 638 94 616 96 L 616 376 Q 614 398 592 400 Q 570 398 568 376 L 568 96 Q 546 94 544 72 Q 546 50 568 48 L 568 24 Q 570 2 592 0 L 592 0 Z M 320 152 Q 334 152 343 161 L 343 161 Q 352 170 352 184 L 352 232 Q 351 247 336 248 L 304 248 Q 289 247 288 232 L 288 184 Q 288 170 297 161 Q 306 152 320 152 L 320 152 Z M 128 248 Q 128 234 137 225 L 137 225 Q 146 216 160 216 L 192 216 Q 206 216 215 225 Q 224 234 224 248 L 224 344 Q 224 358 215 367 Q 206 376 192 376 L 160 376 Q 146 376 137 367 Q 128 358 128 344 L 128 248 L 128 248 Z M 480 216 Q 494 216 503 225 L 503 225 Q 512 234 512 248 L 512 344 Q 512 358 503 367 Q 494 376 480 376 L 448 376 Q 434 376 425 367 Q 416 358 416 344 L 416 248 Q 416 234 425 225 Q 434 216 448 216 L 480 216 L 480 216 Z"/>
</svg>
