<svg xmlns="http://www.w3.org/2000/svg" viewBox="0 0 352 352">
    <path d="M 320 0 Q 306 0 297 9 L 297 9 Q 288 18 288 32 Q 288 46 297 55 Q 306 64 320 64 Q 334 64 343 55 Q 352 46 352 32 Q 352 18 343 9 Q 334 0 320 0 L 320 0 Z M 320 96 Q 306 96 297 105 L 297 105 Q 288 114 288 128 Q 288 142 297 151 Q 306 160 320 160 Q 334 160 343 151 Q 352 142 352 128 Q 352 114 343 105 Q 334 96 320 96 L 320 96 Z M 32 352 Q 46 352 55 343 L 55 343 Q 64 334 64 320 Q 64 306 55 297 Q 46 288 32 288 Q 18 288 9 297 Q 0 306 0 320 Q 0 334 9 343 Q 18 352 32 352 L 32 352 Z M 224 352 Q 238 352 247 343 L 247 343 Q 256 334 256 320 Q 256 306 247 297 Q 238 288 224 288 Q 210 288 201 297 Q 192 306 192 320 Q 192 334 201 343 Q 210 352 224 352 L 224 352 Z M 128 288 Q 114 288 105 297 L 105 297 Q 96 306 96 320 Q 96 334 105 343 Q 114 352 128 352 Q 142 352 151 343 Q 160 334 160 320 Q 160 306 151 297 Q 142 288 128 288 L 128 288 Z M 320 352 Q 334 352 343 343 L 343 343 Q 352 334 352 320 Q 352 306 343 297 Q 334 288 320 288 Q 306 288 297 297 Q 288 306 288 320 Q 288 334 297 343 Q 306 352 320 352 L 320 352 Z M 320 256 Q 334 256 343 247 L 343 247 Q 352 238 352 224 Q 352 210 343 201 Q 334 192 320 192 Q 306 192 297 201 Q 288 210 288 224 Q 288 238 297 247 Q 306 256 320 256 L 320 256 Z"/>
</svg>
