<svg xmlns="http://www.w3.org/2000/svg" viewBox="0 0 491 513">
    <path d="M 393 513 Q 384 499 384 481 L 384 353 Q 386 316 416 298 L 416 273 Q 417 236 437 208 Q 457 179 491 167 L 310 8 Q 300 1 289 1 Q 278 0 267 9 L 10 233 Q 0 243 0 257 Q 0 270 9 279 Q 18 288 32 289 L 64 289 L 64 358 Q 64 360 64 361 Q 64 361 64 361 L 64 473 Q 64 490 76 501 Q 87 513 104 513 L 120 513 Q 122 513 124 513 Q 125 513 126 513 Q 127 513 128 513 L 160 513 L 184 513 Q 201 513 212 501 Q 224 490 224 473 L 224 449 L 224 385 Q 224 371 233 362 Q 242 353 256 353 L 320 353 Q 334 353 343 362 Q 352 371 352 385 L 352 449 L 352 473 Q 352 490 364 501 Q 375 513 392 513 L 393 513 L 393 513 Z"/>
</svg>
