<svg xmlns="http://www.w3.org/2000/svg" viewBox="0 0 480 384">
    <path d="M 64 0 Q 37 1 19 19 L 19 19 Q 1 37 0 64 L 0 320 Q 1 347 19 365 Q 37 383 64 384 L 416 384 Q 443 383 461 365 Q 479 347 480 320 L 480 64 Q 479 37 461 19 Q 443 1 416 0 L 64 0 L 64 0 Z M 80 64 L 112 64 Q 127 65 128 80 L 128 112 Q 127 127 112 128 L 80 128 Q 65 127 64 112 L 64 80 Q 65 65 80 64 L 80 64 Z M 64 176 Q 65 161 80 160 L 112 160 Q 127 161 128 176 L 128 208 Q 127 223 112 224 L 80 224 Q 65 223 64 208 L 64 176 L 64 176 Z M 80 256 L 112 256 Q 127 257 128 272 L 128 304 Q 127 319 112 320 L 80 320 Q 65 319 64 304 L 64 272 Q 65 257 80 256 L 80 256 Z M 160 80 Q 161 65 176 64 L 208 64 Q 223 65 224 80 L 224 112 Q 223 127 208 128 L 176 128 Q 161 127 160 112 L 160 80 L 160 80 Z M 176 160 L 208 160 Q 223 161 224 176 L 224 208 Q 223 223 208 224 L 176 224 Q 161 223 160 208 L 160 176 Q 161 161 176 160 L 176 160 Z M 160 272 Q 161 257 176 256 L 304 256 Q 319 257 320 272 L 320 304 Q 319 319 304 320 L 176 320 Q 161 319 160 304 L 160 272 L 160 272 Z M 272 64 L 304 64 Q 319 65 320 80 L 320 112 Q 319 127 304 128 L 272 128 Q 257 127 256 112 L 256 80 Q 257 65 272 64 L 272 64 Z M 256 176 Q 257 161 272 160 L 304 160 Q 319 161 320 176 L 320 208 Q 319 223 304 224 L 272 224 Q 257 223 256 208 L 256 176 L 256 176 Z M 368 64 L 400 64 Q 415 65 416 80 L 416 112 Q 415 127 400 128 L 368 128 Q 353 127 352 112 L 352 80 Q 353 65 368 64 L 368 64 Z M 352 176 Q 353 161 368 160 L 400 160 Q 415 161 416 176 L 416 208 Q 415 223 400 224 L 368 224 Q 353 223 352 208 L 352 176 L 352 176 Z M 368 256 L 400 256 Q 415 257 416 272 L 416 304 Q 415 319 400 320 L 368 320 Q 353 319 352 304 L 352 272 Q 353 257 368 256 L 368 256 Z"/>
</svg>
