<svg xmlns="http://www.w3.org/2000/svg" viewBox="0 0 640 192">
    <path d="M 320 0 L 128 0 L 0 0 L 0 96 L 0 160 Q 0 174 9 183 Q 18 192 32 192 L 96 192 Q 110 192 119 183 Q 128 174 128 160 L 128 96 L 320 96 L 320 160 Q 320 174 329 183 Q 338 192 352 192 L 416 192 Q 430 192 439 183 Q 448 174 448 160 L 448 96 L 448 64 L 480 64 L 480 112 Q 481 146 503 169 Q 526 191 560 192 Q 594 191 617 169 Q 639 146 640 112 L 640 64 Q 640 50 631 41 Q 622 32 608 32 Q 594 32 585 41 Q 576 50 576 64 L 576 112 Q 575 127 560 128 Q 545 127 544 112 L 544 32 L 544 0 L 512 0 L 448 0 L 416 0 L 320 0 L 320 0 Z"/>
</svg>
