<svg xmlns="http://www.w3.org/2000/svg" viewBox="0 0 512 448">
    <path d="M 175 45 Q 204 1 256 0 Q 308 1 337 45 L 376 107 L 320 139 L 283 79 Q 273 65 256 64 Q 239 65 229 79 L 212 107 Q 204 118 192 121 Q 180 124 168 118 Q 156 110 153 98 Q 150 85 157 73 L 175 45 L 175 45 Z M 430 252 Q 441 245 453 248 L 453 248 Q 466 251 473 262 L 498 302 Q 512 325 512 352 Q 511 393 484 420 Q 457 447 416 448 L 320 448 L 320 384 L 416 384 Q 430 384 439 375 Q 448 366 448 352 Q 448 343 443 335 L 419 296 Q 412 284 415 272 Q 418 259 430 252 L 430 252 Z M 65 221 L 120 253 L 69 335 Q 64 343 64 352 Q 64 366 73 375 Q 82 384 96 384 L 128 384 Q 142 384 151 393 Q 160 402 160 416 Q 160 430 151 439 Q 142 448 128 448 L 96 448 Q 55 447 28 420 Q 1 393 0 352 Q 0 324 15 301 L 65 221 L 65 221 Z"/>
</svg>
