<svg xmlns="http://www.w3.org/2000/svg" viewBox="0 0 640 512">
    <path d="M 208 0 Q 188 1 174 14 L 174 14 Q 161 28 160 48 L 160 512 L 272 512 L 272 432 Q 273 412 286 398 Q 300 385 320 384 Q 340 385 354 398 Q 367 412 368 432 L 368 512 L 480 512 L 480 48 Q 479 28 466 14 Q 452 1 432 0 L 208 0 L 208 0 Z M 640 224 L 640 192 L 560 192 Q 545 193 544 208 Q 545 223 560 224 L 640 224 L 640 224 Z M 640 320 L 640 288 L 560 288 Q 545 289 544 304 Q 545 319 560 320 L 640 320 L 640 320 Z M 80 224 Q 95 223 96 208 Q 95 193 80 192 L 0 192 L 0 224 L 80 224 L 80 224 Z M 80 320 Q 95 319 96 304 Q 95 289 80 288 L 0 288 L 0 320 L 80 320 L 80 320 Z M 312 64 L 328 64 Q 343 65 344 80 L 344 104 L 368 104 Q 383 105 384 120 L 384 136 Q 383 151 368 152 L 344 152 L 344 176 Q 343 191 328 192 L 312 192 Q 297 191 296 176 L 296 152 L 272 152 Q 257 151 256 136 L 256 120 Q 257 105 272 104 L 296 104 L 296 80 Q 297 65 312 64 L 312 64 Z"/>
</svg>
