<svg xmlns="http://www.w3.org/2000/svg" viewBox="0 0 640 416">
    <path d="M 160 0 L 64 0 Q 37 1 19 19 Q 1 37 0 64 L 0 288 Q 1 315 19 333 Q 37 351 64 352 L 290 352 Q 298 324 320 309 Q 330 301 342 296 L 192 296 Q 178 296 169 287 Q 160 278 160 264 L 160 0 L 160 0 Z M 56 72 Q 57 57 72 56 L 88 56 Q 103 57 104 72 L 104 88 Q 103 103 88 104 L 72 104 Q 57 103 56 88 L 56 72 L 56 72 Z M 72 152 L 88 152 Q 103 153 104 168 L 104 184 Q 103 199 88 200 L 72 200 Q 57 199 56 184 L 56 168 Q 57 153 72 152 L 72 152 Z M 56 264 Q 57 249 72 248 L 88 248 Q 103 249 104 264 L 104 280 Q 103 295 88 296 L 72 296 Q 57 295 56 280 L 56 264 L 56 264 Z M 640 88 Q 640 76 630 69 Q 620 62 608 65 L 416 129 Q 401 135 400 152 L 400 200 L 400 322 Q 392 320 384 320 Q 357 321 339 334 Q 321 348 320 368 Q 321 388 339 402 Q 357 415 384 416 Q 411 415 429 402 Q 447 388 448 368 L 448 217 L 592 169 L 592 258 Q 584 256 576 256 Q 549 257 531 270 Q 513 284 512 304 Q 513 324 531 338 Q 549 351 576 352 Q 603 351 621 338 Q 639 324 640 304 Q 640 302 640 300 Q 640 298 640 296 L 640 136 L 640 88 L 640 88 Z M 462 8 Q 457 0 448 0 Q 439 0 434 8 L 388 82 L 373 62 Q 368 56 360 56 Q 352 56 348 62 L 292 134 Q 286 142 290 151 Q 294 160 304 160 L 368 160 L 368 152 Q 368 134 379 119 Q 389 105 406 99 L 500 68 L 462 8 L 462 8 Z"/>
</svg>
