<svg xmlns="http://www.w3.org/2000/svg" viewBox="0 0 338 386">
    <path d="M 196 381 Q 184 374 180 362 L 180 362 Q 176 350 181 338 L 204 292 L 103 377 Q 92 385 79 384 Q 66 383 57 373 Q 49 362 50 349 Q 51 336 62 327 L 143 259 L 42 287 Q 29 290 18 284 Q 7 277 3 264 Q 0 251 6 240 Q 13 229 26 225 L 106 203 Q 68 190 48 156 Q 41 144 45 132 Q 48 119 60 112 Q 72 106 84 109 Q 96 112 103 124 Q 115 143 138 144 Q 155 144 166 132 Q 178 121 178 104 Q 178 87 166 76 Q 155 64 138 64 Q 115 65 103 84 Q 96 96 84 99 Q 72 102 60 96 Q 48 89 45 76 Q 42 64 48 52 Q 75 7 130 0 L 130 0 L 138 0 L 210 0 Q 264 1 301 37 Q 337 74 338 128 L 338 137 Q 338 168 325 195 L 239 366 Q 232 378 220 382 Q 208 386 196 381 L 196 381 Z"/>
</svg>
