<svg xmlns="http://www.w3.org/2000/svg" viewBox="0 0 358 416">
    <path d="M 0 25 L 40 80 Q 46 88 46 98 L 46 138 Q 46 144 50 148 Q 62 158 72 147 L 86 130 Q 94 121 106 126 L 121 133 Q 126 136 132 136 Q 142 136 149 129 L 153 125 Q 158 120 164 123 L 193 138 Q 205 144 206 158 Q 205 175 189 180 L 153 189 Q 142 192 131 188 L 99 178 Q 94 176 89 176 Q 78 176 69 182 L 30 212 Q 14 224 14 244 L 14 272 Q 15 292 28 306 Q 42 319 62 320 L 94 320 Q 109 321 110 336 L 110 384 Q 110 398 119 407 Q 128 416 142 416 Q 158 416 168 403 L 193 369 Q 206 352 206 331 L 206 319 Q 206 312 212 310 L 218 309 Q 237 303 238 283 Q 238 272 230 264 L 197 231 Q 191 224 197 217 Q 206 209 218 212 L 231 216 Q 253 222 265 202 Q 270 193 282 192 L 358 192 Q 335 108 268 55 Q 201 2 110 0 Q 50 0 0 25 L 0 25 Z"/>
</svg>
