<svg xmlns="http://www.w3.org/2000/svg" viewBox="0 0 512 512">
    <path d="M 192 96 L 320 96 L 367 25 Q 372 16 368 8 Q 364 1 354 0 L 158 0 Q 148 1 144 8 Q 140 16 145 25 L 192 96 L 192 96 Z M 320 128 L 192 128 Q 186 132 179 136 L 179 136 L 179 136 Q 179 136 179 136 Q 149 154 107 188 Q 66 223 34 278 Q 2 334 0 416 Q 1 457 28 484 Q 55 511 96 512 L 416 512 Q 457 511 484 484 Q 511 457 512 416 Q 510 334 478 278 Q 446 223 405 188 Q 363 154 333 136 Q 333 136 333 136 Q 331 135 328 133 Q 324 130 320 128 L 320 128 Z M 256 196 Q 274 198 276 216 L 276 230 Q 287 232 297 235 Q 314 241 311 259 Q 305 276 287 273 Q 270 269 256 268 Q 243 268 234 273 Q 227 277 228 282 Q 227 285 233 289 Q 242 294 262 300 L 262 300 L 262 300 Q 263 300 263 300 Q 281 305 299 315 Q 321 326 324 356 Q 322 388 299 401 Q 288 408 276 410 L 276 424 Q 274 442 256 444 Q 238 442 236 424 L 236 409 Q 220 406 208 401 L 208 401 L 208 401 Q 205 400 202 399 Q 185 392 189 374 Q 196 357 214 361 Q 216 362 218 362 Q 220 363 222 363 L 222 363 Q 241 371 257 372 Q 270 372 278 367 Q 284 364 284 357 Q 285 353 278 348 Q 269 343 250 338 L 248 337 Q 248 337 248 337 Q 230 333 213 323 Q 191 312 188 283 Q 190 251 214 239 Q 224 233 236 230 L 236 216 Q 238 198 256 196 L 256 196 Z"/>
</svg>
