<svg xmlns="http://www.w3.org/2000/svg" viewBox="0 0 512 480">
    <path d="M 128 32 Q 128 18 137 9 L 137 9 Q 146 0 160 0 L 256 0 Q 270 0 279 9 Q 288 18 288 32 L 288 256 Q 288 270 279 279 Q 270 288 256 288 Q 256 302 247 311 Q 238 320 224 320 L 192 320 Q 178 320 169 311 Q 160 302 160 288 Q 146 288 137 279 Q 128 270 128 256 L 128 32 L 128 32 Z M 512 288 Q 510 363 463 416 L 480 416 Q 494 416 503 425 Q 512 434 512 448 Q 512 462 503 471 Q 494 480 480 480 L 320 480 L 32 480 Q 18 480 9 471 Q 0 462 0 448 Q 0 434 9 425 Q 18 416 32 416 L 320 416 Q 374 415 411 379 Q 447 342 448 288 Q 447 234 411 197 Q 374 161 320 160 L 320 96 Q 402 98 456 152 Q 510 206 512 288 L 512 288 Z"/>
</svg>
