<svg xmlns="http://www.w3.org/2000/svg" viewBox="0 0 580 393">
    <path d="M 309 13 Q 290 1 272 13 Q 237 38 194 39 Q 152 37 117 13 L 117 13 Q 96 0 77 15 Q 55 33 27 40 Q 14 43 7 54 Q 0 65 3 78 Q 6 91 17 98 Q 28 105 41 102 Q 79 92 99 77 Q 144 102 194 103 Q 243 100 274 84 Q 283 80 290 76 Q 297 80 306 84 Q 337 100 386 103 Q 436 102 481 77 Q 501 92 539 102 Q 552 105 563 98 Q 574 91 577 78 Q 580 65 573 54 Q 566 43 553 40 Q 525 33 503 15 Q 484 0 463 13 L 463 13 Q 428 37 386 39 Q 344 38 309 13 L 309 13 Z M 386 327 Q 344 326 309 301 Q 290 289 272 301 Q 237 326 194 327 Q 152 325 117 301 L 117 301 Q 96 288 77 303 Q 55 321 27 328 Q 14 331 7 342 Q 0 353 3 366 Q 6 379 17 386 Q 28 393 41 390 Q 79 380 100 365 Q 144 390 194 391 Q 243 388 274 372 Q 283 368 290 364 Q 297 368 306 372 Q 337 388 386 391 Q 436 390 481 365 Q 501 380 539 390 Q 552 393 563 386 Q 574 379 577 366 Q 580 353 573 342 Q 566 331 553 328 Q 525 321 503 303 Q 484 289 463 301 L 463 301 Q 428 325 386 327 L 386 327 Z"/>
</svg>
