<svg xmlns="http://www.w3.org/2000/svg" viewBox="0 0 358 197">
    <path d="M 102 0 Q 117 1 124 13 L 196 157 Q 203 178 185 190 Q 164 197 153 179 L 147 168 L 57 168 L 51 179 Q 40 197 19 189 Q 0 178 9 157 L 81 13 Q 88 0 102 0 L 102 0 Z M 123 120 L 102 78 L 81 120 L 123 120 L 123 120 Z M 286 96 Q 264 98 262 120 Q 264 142 286 144 Q 308 142 310 120 Q 308 98 286 96 L 286 96 Z M 310 52 L 310 24 Q 312 2 334 0 Q 356 2 358 24 L 358 120 L 358 168 Q 356 190 334 192 Q 324 192 317 185 Q 303 192 286 192 Q 255 191 235 171 Q 215 151 214 120 Q 215 89 235 69 Q 255 49 286 48 Q 299 48 310 52 L 310 52 Z"/>
</svg>
