<svg xmlns="http://www.w3.org/2000/svg" viewBox="0 0 384 336">
    <path d="M 224 39 Q 224 40 224 40 L 224 40 Q 224 40 224 40 Q 223 71 203 91 Q 183 111 152 112 L 96 112 Q 81 111 80 96 Q 81 81 96 80 L 152 80 Q 169 80 180 68 Q 192 57 192 40 Q 192 23 180 12 Q 169 0 152 0 L 64 0 Q 37 1 19 19 Q 1 37 0 64 L 0 91 Q 1 144 38 182 L 49 193 Q 70 214 96 226 L 96 304 Q 96 318 105 327 Q 114 336 128 336 L 288 336 Q 302 336 311 327 Q 320 318 320 304 L 320 208 Q 350 186 367 153 Q 384 120 384 80 L 384 71 Q 370 80 352 80 Q 331 80 315 68 Q 298 56 292 37 Q 276 48 256 48 Q 238 48 224 39 L 224 39 Z"/>
</svg>
