<svg xmlns="http://www.w3.org/2000/svg" viewBox="0 0 448 357">
    <path d="M 0 32 Q 0 18 9 9 L 9 9 Q 18 0 32 0 L 416 0 Q 430 0 439 9 Q 448 18 448 32 Q 447 91 416 138 Q 385 184 334 207 L 382 319 Q 389 340 370 350 Q 349 357 338 337 L 327 312 L 155 312 Q 148 330 132 341 Q 116 352 96 352 Q 69 351 51 333 Q 33 315 32 288 Q 33 261 51 243 Q 69 225 96 224 Q 101 224 106 225 L 114 207 Q 63 184 32 138 Q 1 91 0 32 L 0 32 Z M 155 264 L 307 264 L 288 221 Q 272 224 256 224 L 192 224 Q 176 224 160 221 L 148 250 Q 152 256 155 264 L 155 264 Z M 96 312 Q 118 310 120 288 Q 118 266 96 264 Q 74 266 72 288 Q 74 310 96 312 L 96 312 Z"/>
</svg>
