<svg xmlns="http://www.w3.org/2000/svg" viewBox="0 0 245 424">
    <path d="M 54 66 Q 60 37 81 19 L 81 19 Q 103 1 133 0 Q 163 1 185 19 Q 206 37 212 66 Q 243 78 245 112 L 245 136 Q 243 158 221 160 L 133 160 L 45 160 Q 23 158 21 136 L 21 112 Q 23 78 54 66 L 54 66 Z M 157 80 Q 155 58 133 56 Q 111 58 109 80 Q 111 102 133 104 Q 155 102 157 80 L 157 80 Z M 128 229 Q 138 240 128 251 L 64 315 Q 53 325 42 315 L 10 283 Q 0 272 10 261 Q 21 251 32 261 L 53 281 L 106 229 Q 117 219 128 229 L 128 229 Z M 13 400 Q 15 378 37 376 Q 59 378 61 400 Q 59 422 37 424 Q 15 422 13 400 L 13 400 Z"/>
</svg>
