<svg xmlns="http://www.w3.org/2000/svg" viewBox="0 0 448 352">
    <path d="M 64 32 Q 64 18 55 9 L 55 9 Q 46 0 32 0 Q 18 0 9 9 Q 0 18 0 32 Q 0 46 9 55 Q 18 64 32 64 Q 46 64 55 55 Q 64 46 64 32 L 64 32 Z M 448 32 Q 448 18 439 9 L 439 9 Q 430 0 416 0 Q 402 0 393 9 Q 384 18 384 32 Q 384 46 393 55 Q 402 64 416 64 Q 430 64 439 55 Q 448 46 448 32 L 448 32 Z M 192 32 Q 192 46 201 55 L 201 55 Q 210 64 224 64 Q 238 64 247 55 Q 256 46 256 32 Q 256 18 247 9 Q 238 0 224 0 Q 210 0 201 9 Q 192 18 192 32 L 192 32 Z M 64 224 Q 64 210 55 201 L 55 201 Q 46 192 32 192 Q 18 192 9 201 Q 0 210 0 224 Q 0 238 9 247 Q 18 256 32 256 Q 46 256 55 247 Q 64 238 64 224 L 64 224 Z M 384 224 Q 384 238 393 247 L 393 247 Q 402 256 416 256 Q 430 256 439 247 Q 448 238 448 224 Q 448 210 439 201 Q 430 192 416 192 Q 402 192 393 201 Q 384 210 384 224 L 384 224 Z M 256 224 Q 256 210 247 201 L 247 201 Q 238 192 224 192 Q 210 192 201 201 Q 192 210 192 224 Q 192 238 201 247 Q 210 256 224 256 Q 238 256 247 247 Q 256 238 256 224 L 256 224 Z M 0 128 Q 0 142 9 151 L 9 151 Q 18 160 32 160 Q 46 160 55 151 Q 64 142 64 128 Q 64 114 55 105 Q 46 96 32 96 Q 18 96 9 105 Q 0 114 0 128 L 0 128 Z M 448 128 Q 448 114 439 105 L 439 105 Q 430 96 416 96 Q 402 96 393 105 Q 384 114 384 128 Q 384 142 393 151 Q 402 160 416 160 Q 430 160 439 151 Q 448 142 448 128 L 448 128 Z M 192 128 Q 192 142 201 151 L 201 151 Q 210 160 224 160 Q 238 160 247 151 Q 256 142 256 128 Q 256 114 247 105 Q 238 96 224 96 Q 210 96 201 105 Q 192 114 192 128 L 192 128 Z M 64 320 Q 64 306 55 297 L 55 297 Q 46 288 32 288 Q 18 288 9 297 Q 0 306 0 320 Q 0 334 9 343 Q 18 352 32 352 Q 46 352 55 343 Q 64 334 64 320 L 64 320 Z M 384 320 Q 384 334 393 343 L 393 343 Q 402 352 416 352 Q 430 352 439 343 Q 448 334 448 320 Q 448 306 439 297 Q 430 288 416 288 Q 402 288 393 297 Q 384 306 384 320 L 384 320 Z M 256 320 Q 256 306 247 297 L 247 297 Q 238 288 224 288 Q 210 288 201 297 Q 192 306 192 320 Q 192 334 201 343 Q 210 352 224 352 Q 238 352 247 343 Q 256 334 256 320 L 256 320 Z M 96 128 Q 96 142 105 151 L 105 151 Q 114 160 128 160 Q 142 160 151 151 Q 160 142 160 128 Q 160 114 151 105 Q 142 96 128 96 Q 114 96 105 105 Q 96 114 96 128 L 96 128 Z M 160 320 Q 160 306 151 297 L 151 297 Q 142 288 128 288 Q 114 288 105 297 Q 96 306 96 320 Q 96 334 105 343 Q 114 352 128 352 Q 142 352 151 343 Q 160 334 160 320 L 160 320 Z M 288 320 Q 288 334 297 343 L 297 343 Q 306 352 320 352 Q 334 352 343 343 Q 352 334 352 320 Q 352 306 343 297 Q 334 288 320 288 Q 306 288 297 297 Q 288 306 288 320 L 288 320 Z M 352 128 Q 352 114 343 105 L 343 105 Q 334 96 320 96 Q 306 96 297 105 Q 288 114 288 128 Q 288 142 297 151 Q 306 160 320 160 Q 334 160 343 151 Q 352 142 352 128 L 352 128 Z"/>
</svg>
