<svg xmlns="http://www.w3.org/2000/svg" viewBox="0 0 384 448">
    <path d="M 113 2 Q 113 2 113 1 L 113 1 Q 114 0 114 0 L 64 0 Q 37 1 19 19 Q 1 37 0 64 L 0 384 Q 1 411 19 429 Q 37 447 64 448 L 320 448 Q 347 447 365 429 Q 383 411 384 384 L 384 64 Q 383 37 365 19 Q 347 1 320 0 L 270 0 Q 271 1 271 2 Q 271 2 271 2 Q 302 14 304 48 L 304 72 Q 302 94 280 96 L 192 96 L 104 96 Q 82 94 80 72 L 80 48 Q 82 14 113 2 L 113 2 Z M 160 176 Q 161 161 176 160 L 208 160 Q 223 161 224 176 L 224 224 L 272 224 Q 287 225 288 240 L 288 272 Q 287 287 272 288 L 224 288 L 224 336 Q 223 351 208 352 L 176 352 Q 161 351 160 336 L 160 288 L 112 288 Q 97 287 96 272 L 96 240 Q 97 225 112 224 L 160 224 L 160 176 L 160 176 Z"/>
</svg>
