<svg xmlns="http://www.w3.org/2000/svg" viewBox="0 0 423 448">
    <path d="M 204 222 L 248 64 L 351 64 L 345 88 Q 342 101 349 112 Q 355 123 368 127 Q 382 130 393 123 Q 403 117 407 104 L 418 60 Q 423 36 409 18 Q 396 1 372 0 L 224 0 L 224 0 L 53 0 Q 36 0 23 10 Q 10 20 6 36 L 0 62 L 55 105 Q 55 105 55 104 Q 55 104 55 104 L 65 64 L 182 64 L 149 179 L 204 222 L 204 222 Z M 175 322 L 121 279 L 91 384 L 40 384 Q 26 384 17 393 Q 8 402 8 416 Q 8 430 17 439 Q 26 448 40 448 L 200 448 Q 214 448 223 439 Q 232 430 232 416 Q 232 402 223 393 Q 214 384 200 384 L 158 384 L 175 322 L 175 322 Z"/>
</svg>
