<svg xmlns="http://www.w3.org/2000/svg" viewBox="0 0 448 416">
    <path d="M 224 0 Q 209 1 208 16 L 208 40 Q 209 55 224 56 Q 239 55 240 40 L 240 16 Q 239 1 224 0 L 224 0 Z M 64 112 Q 65 127 80 128 L 112 128 Q 127 127 128 112 Q 127 97 112 96 L 80 96 Q 65 97 64 112 L 64 112 Z M 320 112 Q 321 127 336 128 L 368 128 Q 383 127 384 112 Q 383 97 368 96 L 336 96 Q 321 97 320 112 L 320 112 Z M 224 168 Q 209 169 208 184 L 208 208 Q 209 223 224 224 Q 239 223 240 208 L 240 184 Q 239 169 224 168 L 224 168 Z M 117 29 Q 107 40 117 51 L 133 67 Q 144 77 155 67 Q 165 56 155 45 L 139 29 Q 128 19 117 29 L 117 29 Z M 309 29 L 293 45 Q 283 56 293 67 Q 304 77 315 67 L 331 51 Q 341 40 331 29 Q 320 19 309 29 L 309 29 Z M 155 157 Q 144 147 133 157 L 117 173 Q 107 184 117 195 Q 128 205 139 195 L 155 179 Q 165 168 155 157 L 155 157 Z M 293 157 Q 283 168 293 179 L 309 195 Q 320 205 331 195 Q 341 184 331 173 L 315 157 Q 304 147 293 157 L 293 157 Z M 224 416 Q 287 415 337 385 L 337 385 Q 388 356 417 305 L 417 305 Q 447 255 448 192 L 448 112 Q 446 173 382 214 Q 319 254 224 256 Q 129 254 66 214 Q 2 173 0 112 L 0 192 Q 1 255 31 305 Q 60 356 111 385 Q 161 415 224 416 L 224 416 Z"/>
</svg>
