<svg xmlns="http://www.w3.org/2000/svg" viewBox="0 0 524 428">
    <path d="M 223 7 Q 222 7 222 7 L 222 7 Q 222 7 222 7 Q 209 5 195 7 Q 189 7 183 9 Q 144 20 128 53 Q 112 85 121 125 L 158 274 Q 160 288 146 293 Q 132 295 127 281 L 90 133 Q 81 97 89 64 Q 98 31 121 8 Q 101 3 79 9 Q 39 20 20 53 Q 0 85 9 125 L 65 349 Q 76 389 109 408 Q 142 428 181 419 Q 192 417 201 412 Q 210 408 219 412 Q 223 414 228 416 Q 244 422 262 422 Q 280 422 296 416 Q 301 414 305 412 Q 314 408 323 412 Q 332 416 343 419 Q 383 428 415 408 Q 448 389 459 349 L 515 125 Q 524 85 504 53 Q 485 20 445 9 Q 410 1 379 16 Q 370 20 361 16 Q 352 11 341 9 Q 304 0 272 18 Q 262 23 252 18 Q 238 10 223 7 L 223 7 Z"/>
</svg>
