<svg xmlns="http://www.w3.org/2000/svg" viewBox="0 0 345 384">
    <path d="M 12 334 Q 3 322 15 311 Q 44 287 61 252 Q 78 217 78 176 Q 78 134 60 99 Q 43 64 13 39 Q 0 26 12 15 Q 33 0 62 0 Q 83 0 105 6 Q 127 12 145 19 Q 174 30 203 19 Q 221 12 243 6 Q 265 0 286 0 Q 315 0 336 15 Q 343 19 342 27 Q 342 34 336 39 Q 305 64 288 99 Q 271 134 270 176 Q 271 217 287 252 Q 304 287 334 311 Q 345 322 336 334 Q 292 383 238 384 Q 225 384 211 380 Q 197 376 187 373 Q 174 368 162 373 Q 151 376 137 380 Q 123 384 110 384 Q 56 383 12 334 L 12 334 Z"/>
</svg>
