<svg xmlns="http://www.w3.org/2000/svg" viewBox="0 0 481 416">
    <path d="M 61 355 Q 125 416 208 416 L 208 416 Q 291 416 355 355 L 231 231 Q 221 221 221 208 Q 221 195 231 185 L 355 61 Q 291 0 208 0 Q 125 0 61 61 Q 0 125 0 208 Q 0 291 61 355 L 61 355 Z M 80 208 Q 80 194 89 185 L 89 185 Q 98 176 112 176 Q 126 176 135 185 Q 144 194 144 208 Q 144 222 135 231 Q 126 240 112 240 Q 98 240 89 231 Q 80 222 80 208 L 80 208 Z M 176 48 Q 190 48 199 57 L 199 57 Q 208 66 208 80 Q 208 94 199 103 Q 190 112 176 112 Q 162 112 153 103 Q 144 94 144 80 Q 144 66 153 57 Q 162 48 176 48 L 176 48 Z M 176 336 Q 176 322 185 313 L 185 313 Q 194 304 208 304 Q 222 304 231 313 Q 240 322 240 336 Q 240 350 231 359 Q 222 368 208 368 Q 194 368 185 359 Q 176 350 176 336 L 176 336 Z M 432 72 L 319 185 Q 309 195 309 208 Q 309 221 319 231 L 431 343 Q 480 286 481 206 Q 479 128 432 72 L 432 72 Z M 368 208 Q 368 194 377 185 L 377 185 Q 386 176 400 176 Q 414 176 423 185 Q 432 194 432 208 Q 432 222 423 231 Q 414 240 400 240 Q 386 240 377 231 Q 368 222 368 208 L 368 208 Z"/>
</svg>
