<svg xmlns="http://www.w3.org/2000/svg" viewBox="0 0 512 480">
    <path d="M 0 80 Q 1 46 23 23 L 23 23 Q 46 1 80 0 L 112 0 Q 126 0 135 9 Q 144 18 144 32 Q 144 46 135 55 Q 126 64 112 64 L 80 64 Q 65 65 64 80 L 64 400 Q 65 415 80 416 L 432 416 Q 447 415 448 400 L 448 80 Q 447 65 432 64 L 400 64 Q 386 64 377 55 Q 368 46 368 32 Q 368 18 377 9 Q 386 0 400 0 L 432 0 Q 466 1 489 23 Q 511 46 512 80 L 512 400 Q 511 434 489 457 Q 466 479 432 480 L 80 480 Q 46 479 23 457 Q 1 434 0 400 L 0 80 L 0 80 Z"/>
</svg>
