<svg xmlns="http://www.w3.org/2000/svg" viewBox="0 0 512 384">
    <path d="M 64 0 Q 37 1 19 19 L 19 19 Q 1 37 0 64 L 0 320 Q 1 347 19 365 Q 37 383 64 384 L 448 384 Q 475 383 493 365 Q 511 347 512 320 L 512 64 Q 511 37 493 19 Q 475 1 448 0 L 64 0 L 64 0 Z M 160 96 Q 187 97 202 120 Q 214 144 202 168 Q 187 191 160 192 Q 133 191 118 168 Q 106 144 118 120 Q 133 97 160 96 L 160 96 Z M 80 272 Q 81 252 94 238 L 94 238 Q 108 225 128 224 L 192 224 Q 212 225 226 238 Q 239 252 240 272 L 240 288 Q 240 302 231 311 Q 222 320 208 320 L 112 320 Q 98 320 89 311 Q 80 302 80 288 L 80 272 L 80 272 Z M 272 272 Q 273 252 286 238 L 286 238 Q 300 225 320 224 L 384 224 Q 404 225 418 238 Q 431 252 432 272 L 432 288 Q 432 302 423 311 Q 414 320 400 320 L 304 320 Q 290 320 281 311 Q 272 302 272 288 L 272 272 L 272 272 Z M 304 144 Q 305 117 328 102 Q 352 90 376 102 Q 399 117 400 144 Q 399 171 376 186 Q 352 198 328 186 Q 305 171 304 144 L 304 144 Z"/>
</svg>
