<svg xmlns="http://www.w3.org/2000/svg" viewBox="0 0 288 512">
    <path d="M 144 512 Q 205 509 246 437 L 246 437 Q 286 365 288 256 Q 286 147 246 75 Q 205 3 144 0 Q 83 3 42 75 Q 2 147 0 256 Q 2 365 42 437 Q 83 509 144 512 L 144 512 Z M 136 448 Q 105 446 88 425 Q 71 407 61 381 Q 40 329 40 256 Q 40 183 61 131 Q 71 105 88 87 Q 105 66 136 64 Q 167 66 184 87 Q 201 105 211 131 Q 232 183 232 256 Q 232 329 211 381 Q 201 407 184 425 Q 167 446 136 448 L 136 448 Z M 200 256 Q 199 188 181 143 L 181 143 Q 163 98 136 96 Q 109 98 91 143 Q 73 188 72 256 Q 73 324 91 369 Q 109 414 136 416 Q 163 414 181 369 Q 199 324 200 256 L 200 256 Z"/>
</svg>
