<svg xmlns="http://www.w3.org/2000/svg" viewBox="0 0 448 256">
    <path d="M 0 24 Q 2 2 24 0 L 136 0 Q 158 2 160 24 L 160 40 Q 158 62 136 64 L 24 64 Q 2 62 0 40 L 0 24 L 0 24 Z M 24 96 L 136 96 Q 158 98 160 120 L 160 136 Q 158 158 136 160 L 24 160 Q 2 158 0 136 L 0 120 Q 2 98 24 96 L 24 96 Z M 24 192 L 136 192 Q 158 194 160 216 L 160 232 Q 158 254 136 256 L 24 256 Q 2 254 0 232 L 0 216 Q 2 194 24 192 L 24 192 Z M 312 0 L 424 0 Q 446 2 448 24 L 448 40 Q 446 62 424 64 L 312 64 Q 290 62 288 40 L 288 24 Q 290 2 312 0 L 312 0 Z M 288 216 Q 290 194 312 192 L 424 192 Q 446 194 448 216 L 448 232 Q 446 254 424 256 L 312 256 Q 290 254 288 232 L 288 216 L 288 216 Z M 312 96 L 424 96 Q 446 98 448 120 L 448 136 Q 446 158 424 160 L 312 160 Q 290 158 288 136 L 288 120 Q 290 98 312 96 L 312 96 Z"/>
</svg>
