<svg xmlns="http://www.w3.org/2000/svg" viewBox="0 0 512 269">
    <path d="M 481 22 L 512 11 Q 512 11 512 12 Q 512 12 512 13 Q 511 85 477 142 Q 443 200 385 234 Q 328 268 256 269 Q 184 268 127 234 Q 69 200 35 142 Q 1 85 0 13 Q 0 12 0 12 Q 0 11 0 11 L 31 22 Q 53 30 73 18 L 94 5 Q 102 0 111 5 L 128 16 Q 154 31 179 16 L 196 5 Q 205 0 213 5 L 231 16 Q 256 31 282 16 L 299 5 Q 307 0 316 5 L 333 16 Q 358 31 384 16 L 401 5 Q 410 0 418 5 L 439 18 Q 459 30 482 22 L 481 22 Z M 176 125 Q 190 125 199 116 L 199 116 Q 208 107 208 93 Q 208 79 199 70 Q 190 61 176 61 Q 163 61 154 70 Q 145 79 144 93 Q 145 107 154 116 Q 163 125 176 125 L 176 125 Z M 368 93 Q 368 79 359 70 L 359 70 Q 350 61 336 61 Q 323 61 314 70 Q 305 79 304 93 Q 305 107 314 116 Q 323 125 336 125 Q 350 125 359 116 Q 368 107 368 93 L 368 93 Z M 245 141 Q 223 142 208 157 L 208 157 Q 193 172 192 194 Q 193 204 203 205 L 309 205 Q 319 204 320 194 Q 319 172 304 157 Q 289 142 267 141 L 245 141 L 245 141 Z"/>
</svg>
