<svg xmlns="http://www.w3.org/2000/svg" viewBox="0 0 256 256">
    <path d="M 0 24 Q 2 2 24 0 Q 89 1 141 32 Q 193 63 224 115 Q 255 167 256 232 Q 254 254 232 256 Q 210 254 208 232 Q 206 154 154 102 Q 102 50 24 48 Q 2 46 0 24 L 0 24 Z M 0 224 Q 0 210 9 201 L 9 201 Q 18 192 32 192 Q 46 192 55 201 Q 64 210 64 224 Q 64 238 55 247 Q 46 256 32 256 Q 18 256 9 247 Q 0 238 0 224 L 0 224 Z M 24 96 Q 82 97 120 136 L 120 136 Q 159 174 160 232 Q 158 254 136 256 Q 114 254 112 232 Q 111 195 86 170 Q 61 145 24 144 Q 2 142 0 120 Q 2 98 24 96 L 24 96 Z"/>
</svg>
