<svg xmlns="http://www.w3.org/2000/svg" viewBox="0 0 450 256">
    <path d="M 75 64 L 129 64 L 129 192 L 112 192 Q 112 192 112 192 Q 112 191 112 191 L 75 64 L 75 64 Z M 177 64 L 273 64 L 273 192 L 177 192 L 177 64 L 177 64 Z M 321 64 L 375 64 L 338 191 Q 338 191 338 192 Q 338 192 338 192 L 321 192 L 321 64 L 321 64 Z M 5 51 L 46 192 Q 19 197 17 224 Q 17 238 26 247 Q 35 256 49 256 L 401 256 Q 415 256 424 247 Q 433 238 433 224 Q 431 197 405 192 L 445 51 Q 450 31 438 16 Q 427 1 406 0 L 44 0 Q 23 1 12 16 Q 0 31 5 51 L 5 51 Z"/>
</svg>
