<svg xmlns="http://www.w3.org/2000/svg" viewBox="0 0 448 353">
    <path d="M 288 177 Q 290 106 318 67 L 318 67 Q 345 29 376 15 L 376 15 Q 406 0 416 1 Q 430 1 439 10 Q 448 19 448 33 L 448 353 L 352 353 Q 325 352 307 334 Q 289 316 288 289 L 288 177 L 288 177 Z M 50 1 Q 63 4 64 17 L 64 151 Q 65 160 74 161 Q 82 160 84 152 L 96 16 Q 98 2 112 1 Q 126 2 128 16 L 140 152 Q 142 160 150 161 Q 159 160 160 151 L 160 17 Q 161 4 174 1 Q 188 1 192 14 L 222 150 Q 224 159 224 169 Q 223 206 198 231 Q 173 256 136 257 L 88 257 Q 51 256 26 231 Q 1 206 0 169 Q 0 159 2 150 L 32 14 Q 36 1 50 1 L 50 1 Z M 112 168 L 112 169 L 112 169 L 112 169 L 112 168 L 112 168 Z"/>
</svg>
