<svg xmlns="http://www.w3.org/2000/svg" viewBox="0 0 384 448">
    <path d="M 113 2 Q 113 2 113 1 L 113 1 Q 114 0 114 0 L 64 0 Q 37 1 19 19 Q 1 37 0 64 L 0 384 Q 1 411 19 429 Q 37 447 64 448 L 320 448 Q 347 447 365 429 Q 383 411 384 384 L 384 64 Q 383 37 365 19 Q 347 1 320 0 L 270 0 Q 271 1 271 2 Q 271 2 271 2 Q 302 14 304 48 L 304 72 Q 302 94 280 96 L 192 96 L 104 96 Q 82 94 80 72 L 80 48 Q 82 14 113 2 L 113 2 Z M 128 192 Q 129 156 160 137 Q 192 119 224 137 Q 255 156 256 192 Q 255 228 224 247 Q 192 265 160 247 Q 129 228 128 192 L 128 192 Z M 80 368 Q 81 334 103 311 L 103 311 Q 126 289 160 288 L 224 288 Q 258 289 281 311 Q 303 334 304 368 Q 303 383 288 384 L 96 384 Q 81 383 80 368 L 80 368 Z"/>
</svg>
