<svg xmlns="http://www.w3.org/2000/svg" viewBox="0 0 448 448">
    <path d="M 48 0 Q 28 1 14 14 L 14 14 Q 1 28 0 48 L 0 144 Q 1 164 14 178 Q 28 191 48 192 L 144 192 Q 164 191 178 178 Q 191 164 192 144 L 192 48 Q 191 28 178 14 Q 164 1 144 0 L 48 0 L 48 0 Z M 128 64 L 128 128 L 64 128 L 64 64 L 128 64 L 128 64 Z M 48 256 Q 28 257 14 270 L 14 270 Q 1 284 0 304 L 0 400 Q 1 420 14 434 Q 28 447 48 448 L 144 448 Q 164 447 178 434 Q 191 420 192 400 L 192 304 Q 191 284 178 270 Q 164 257 144 256 L 48 256 L 48 256 Z M 128 320 L 128 384 L 64 384 L 64 320 L 128 320 L 128 320 Z M 256 48 L 256 144 Q 257 164 270 178 Q 284 191 304 192 L 400 192 Q 420 191 434 178 Q 447 164 448 144 L 448 48 Q 447 28 434 14 Q 420 1 400 0 L 304 0 Q 284 1 270 14 Q 257 28 256 48 L 256 48 Z M 320 64 L 384 64 L 384 128 L 320 128 L 320 64 L 320 64 Z"/>
</svg>
