<svg xmlns="http://www.w3.org/2000/svg" viewBox="0 0 448 383">
    <path d="M 135 18 Q 144 1 164 0 L 284 0 Q 304 1 313 18 L 320 32 L 416 32 Q 430 32 439 41 Q 448 50 448 64 Q 448 78 439 87 Q 430 96 416 96 L 32 96 Q 18 96 9 87 Q 0 78 0 64 Q 0 50 9 41 Q 18 32 32 32 L 128 32 L 135 18 L 135 18 Z M 143 207 Q 160 193 177 207 L 224 254 L 271 207 Q 288 193 305 207 Q 319 224 305 241 L 258 288 L 305 335 Q 319 352 305 369 Q 288 383 271 369 L 224 322 L 177 369 Q 160 383 143 369 Q 129 352 143 335 L 190 288 L 143 241 Q 129 224 143 207 L 143 207 Z"/>
</svg>
