<svg xmlns="http://www.w3.org/2000/svg" viewBox="0 0 504 512">
    <path d="M 395 512 Q 360 488 340 450 L 340 450 Q 320 413 320 368 Q 322 293 372 244 Q 421 194 496 192 Q 498 192 500 192 Q 502 192 504 192 Q 485 162 448 160 L 64 160 Q 37 161 19 179 Q 1 197 0 224 L 0 448 Q 1 475 19 493 Q 37 511 64 512 L 395 512 L 395 512 Z M 464 104 Q 462 82 440 80 L 72 80 Q 50 82 48 104 Q 50 126 72 128 L 440 128 Q 462 126 464 104 L 464 104 Z M 416 24 Q 414 2 392 0 L 120 0 Q 98 2 96 24 Q 98 46 120 48 L 392 48 Q 414 46 416 24 L 416 24 Z"/>
</svg>
