<svg xmlns="http://www.w3.org/2000/svg" viewBox="0 0 512 448">
    <path d="M 1 54 L 65 105 Q 64 106 64 108 Q 64 110 64 112 Q 65 132 78 146 Q 92 159 112 160 Q 122 160 131 156 L 237 240 L 217 270 L 195 241 Q 188 233 177 232 Q 165 232 158 241 L 70 345 Q 60 356 66 370 Q 73 383 88 384 L 184 384 L 256 384 L 421 384 L 487 435 Q 470 448 448 448 L 64 448 Q 37 447 19 429 Q 1 411 0 384 L 0 64 Q 0 59 1 54 L 1 54 Z M 160 118 Q 160 117 160 115 L 160 115 Q 160 114 160 112 Q 159 92 146 78 Q 132 65 112 64 Q 103 64 95 67 L 26 13 Q 42 0 64 0 L 448 0 Q 475 1 493 19 Q 511 37 512 64 L 512 384 Q 512 389 511 394 L 435 334 L 324 171 Q 316 160 304 160 Q 291 160 284 171 L 264 200 L 160 118 L 160 118 Z"/>
</svg>
