<svg xmlns="http://www.w3.org/2000/svg" viewBox="0 0 448 448">
    <path d="M 32 16 Q 31 1 16 0 Q 1 1 0 16 L 0 432 Q 1 447 16 448 Q 31 447 32 432 L 32 80 Q 70 79 107 67 L 142 55 Q 163 48 184 48 Q 205 48 226 55 L 272 70 Q 301 80 332 80 Q 363 80 392 70 L 416 62 L 416 184 L 416 208 L 416 333 L 382 344 Q 357 352 332 352 Q 307 352 283 344 L 236 328 Q 211 320 184 320 Q 157 320 132 328 L 107 337 Q 94 343 97 357 Q 103 370 117 367 L 142 359 Q 163 352 184 352 Q 205 352 226 359 L 272 374 Q 301 384 332 384 Q 363 384 392 374 L 437 359 L 448 356 L 448 344 L 448 208 L 448 184 L 448 40 L 448 18 L 427 25 L 382 40 Q 357 48 332 48 Q 307 48 283 40 L 236 24 Q 211 16 184 16 Q 157 16 132 24 L 97 36 Q 65 47 32 48 L 32 16 L 32 16 Z"/>
</svg>
