<svg xmlns="http://www.w3.org/2000/svg" viewBox="0 0 448 448">
    <path d="M 48 24 Q 46 2 24 0 Q 2 2 0 24 L 0 424 Q 2 446 24 448 Q 46 446 48 424 L 48 92 L 61 90 Q 86 84 105 77 L 105 77 L 105 77 Q 107 76 109 75 Q 112 74 115 73 Q 137 65 166 64 Q 202 65 230 77 L 230 77 Q 230 77 230 77 Q 260 91 309 93 Q 333 93 353 88 Q 373 83 400 74 L 400 311 L 390 314 Q 390 314 390 314 Q 360 325 344 329 Q 327 334 309 333 Q 274 332 246 320 L 245 320 Q 216 306 166 304 Q 141 304 122 309 Q 101 316 104 338 Q 111 359 133 356 Q 147 352 166 352 Q 202 353 230 365 L 230 366 Q 230 366 230 366 Q 260 379 309 382 Q 334 382 356 376 Q 377 370 407 359 Q 414 357 422 354 Q 427 353 431 351 L 448 345 L 448 328 L 448 40 L 448 6 L 416 17 Q 406 21 398 24 Q 394 25 391 26 Q 390 26 390 26 Q 360 37 344 41 Q 328 46 310 45 Q 274 44 246 32 L 245 32 Q 216 18 166 16 Q 126 17 100 28 Q 96 29 92 30 Q 89 31 86 32 Q 69 39 51 43 L 48 43 L 48 24 L 48 24 Z"/>
</svg>
