<svg xmlns="http://www.w3.org/2000/svg" viewBox="0 0 432 448">
    <path d="M 16 8 Q 15 1 8 0 Q 1 1 0 8 L 0 440 Q 1 447 8 448 Q 15 447 16 440 L 16 64 Q 57 64 97 51 L 132 39 Q 153 32 176 32 Q 199 32 220 39 L 267 55 Q 295 64 324 64 Q 353 64 381 55 L 416 43 L 416 184 L 416 200 L 416 338 L 376 352 Q 351 360 324 360 Q 297 360 272 352 L 225 336 Q 201 328 176 328 Q 151 328 127 336 L 102 344 Q 95 347 96 355 Q 99 361 107 360 L 132 351 Q 153 344 176 344 Q 199 344 220 351 L 267 367 Q 295 376 324 376 Q 353 376 381 367 L 427 352 L 432 350 L 432 344 L 432 200 L 432 184 L 432 32 L 432 21 L 422 24 L 376 40 Q 351 48 324 48 Q 297 48 272 40 L 225 24 Q 201 16 176 16 Q 151 16 127 24 L 91 36 Q 55 48 16 48 L 16 8 L 16 8 Z"/>
</svg>
